<?xml version="1.0" encoding="UTF-8" standalone="no"?>
<svg xmlns:xlink="http://www.w3.org/1999/xlink" height="17.75px" width="23.05px" xmlns="http://www.w3.org/2000/svg">
  <g transform="matrix(1.0, 0.0, 0.0, 1.0, 12.05, 12.0)">
    <use height="17.4" transform="matrix(1.0, 0.0, 0.0, 1.0, -2.25, -11.65)" width="11.75" xlink:href="#shape0"/>
  </g>
  <defs>
    <g id="shape0" transform="matrix(1.0, 0.0, 0.0, 1.0, 2.25, 11.65)">
      <path d="M2.45 -0.3 Q2.25 -0.75 2.4 -1.1 L2.75 -1.9 2.3 -3.75 0.65 -5.85 Q-0.2 -6.25 -1.35 -6.45 L-1.25 -7.0 Q-1.25 -7.35 -1.75 -8.1 L-2.25 -9.15 Q-2.25 -10.35 1.15 -11.25 L2.65 -11.65 Q9.5 -9.55 9.5 -3.6 9.5 -1.3 8.1 1.5 6.05 5.75 2.15 5.75 0.15 5.75 0.15 3.95 L0.15 3.75 0.15 3.45 0.2 3.4 Q0.35 2.75 0.75 2.35 L1.55 1.7 2.15 0.3 2.45 -0.3" fill="#cccccc" fill-rule="evenodd" stroke="none"/>
    </g>
  </defs>
</svg>
