<?xml version="1.0" encoding="UTF-8" standalone="no"?>
<svg xmlns:xlink="http://www.w3.org/1999/xlink" height="17.75px" width="23.05px" xmlns="http://www.w3.org/2000/svg">
  <g transform="matrix(1.0, 0.0, 0.0, 1.0, 12.05, 12.0)">
    <use height="15.85" transform="matrix(1.0, 0.0, 0.0, 1.0, -1.65, -10.3)" width="11.75" xlink:href="#shape0"/>
  </g>
  <defs>
    <g id="shape0" transform="matrix(1.0, 0.0, 0.0, 1.0, 1.65, 10.3)">
      <path d="M4.45 -4.95 L4.5 -5.45 4.15 -7.1 Q3.8 -8.35 3.8 -8.75 3.8 -11.1 6.35 -9.85 7.7 -9.15 9.65 -7.5 10.1 -5.3 10.1 -2.85 10.1 -0.7 8.4 1.9 6.0 5.55 1.65 5.55 0.4 5.55 -0.1 4.9 -1.15 4.6 -1.5 3.95 L-1.65 2.6 Q0.9 -1.6 3.45 -4.1 L4.45 -4.95" fill="#cccccc" fill-rule="evenodd" stroke="none"/>
    </g>
  </defs>
</svg>
