<?xml version="1.0" encoding="UTF-8" standalone="no"?>
<svg xmlns:xlink="http://www.w3.org/1999/xlink" height="17.75px" width="23.05px" xmlns="http://www.w3.org/2000/svg">
  <g transform="matrix(1.0, 0.0, 0.0, 1.0, 12.05, 12.0)">
    <use height="13.1" transform="matrix(1.0, 0.0, 0.0, 1.0, -11.45, -8.45)" width="10.65" xlink:href="#shape0"/>
  </g>
  <defs>
    <g id="shape0" transform="matrix(1.0, 0.0, 0.0, 1.0, 11.45, 8.45)">
      <path d="M-11.45 -2.1 Q-11.45 -6.35 -6.75 -8.0 L-3.55 -8.35 Q-2.1 -8.05 -2.1 -6.9 -2.1 -6.35 -3.6 -4.55 -5.35 -2.55 -6.5 -2.55 -7.2 -2.55 -7.8 -3.15 L-8.3 -2.05 -8.15 -1.5 Q-8.15 -0.8 -8.55 -0.35 -9.0 0.15 -9.65 0.15 -11.05 0.15 -11.35 -0.9 L-11.45 -2.1" fill="#cccccc" fill-rule="evenodd" stroke="none"/>
      <path d="M-9.8 -6.65 L-6.1 -6.5 Q-0.8 -4.5 -0.8 0.0 -0.8 1.05 -1.95 2.7 -3.3 4.65 -4.8 4.65 -8.35 4.65 -10.25 0.5 -11.2 -1.55 -11.45 -3.45 -11.45 -5.9 -9.8 -6.65" fill="#ffffff" fill-rule="evenodd" stroke="none"/>
    </g>
  </defs>
</svg>
