<?xml version="1.0" encoding="UTF-8" standalone="no"?>
<svg xmlns:xlink="http://www.w3.org/1999/xlink" height="17.75px" width="23.05px" xmlns="http://www.w3.org/2000/svg">
  <g transform="matrix(1.0, 0.0, 0.0, 1.0, 12.05, 12.0)">
    <use height="14.05" transform="matrix(1.0, 0.0, 0.0, 1.0, -11.45, -9.8)" width="12.35" xlink:href="#shape0"/>
  </g>
  <defs>
    <g id="shape0" transform="matrix(1.0, 0.0, 0.0, 1.0, 11.45, 9.8)">
      <path d="M-4.25 -9.6 Q0.9 -10.4 0.9 -7.55 0.9 -6.85 -2.6 -3.3 -6.05 0.15 -6.4 0.15 -7.45 0.15 -9.45 -5.35 -9.45 -8.85 -4.25 -9.6" fill="#cccccc" fill-rule="evenodd" stroke="none"/>
      <path d="M-11.45 -4.35 Q-11.45 -6.8 -8.3 -8.15 -5.1 -9.55 -4.8 -5.25 -4.8 -2.85 -3.5 0.0 L-2.25 2.55 Q-2.25 4.25 -4.65 4.25 -8.6 4.25 -10.4 -0.05 -11.3 -2.2 -11.45 -4.35" fill="#ffffff" fill-rule="evenodd" stroke="none"/>
    </g>
  </defs>
</svg>
