<?xml version="1.0" encoding="UTF-8" standalone="no"?>
<svg xmlns:xlink="http://www.w3.org/1999/xlink" height="17.75px" width="23.05px" xmlns="http://www.w3.org/2000/svg">
  <g transform="matrix(1.0, 0.0, 0.0, 1.0, 12.05, 12.0)">
    <use height="14.7" transform="matrix(1.0, 0.0, 0.0, 1.0, -11.1, -11.2)" width="15.5" xlink:href="#shape0"/>
  </g>
  <defs>
    <g id="shape0" transform="matrix(1.0, 0.0, 0.0, 1.0, 11.1, 11.2)">
      <path d="M3.65 -5.65 Q1.35 -5.0 -1.65 -3.6 -3.3 -2.8 -4.7 -0.75 -5.85 0.9 -7.05 0.9 -8.35 0.9 -9.2 -1.25 L-9.75 -3.45 Q-9.75 -10.25 -2.65 -11.1 0.05 -11.45 2.2 -10.45 4.4 -9.45 4.4 -7.65 4.4 -5.95 3.65 -5.65" fill="#cccccc" fill-rule="evenodd" stroke="none"/>
      <path d="M-5.85 -4.4 Q-6.75 -2.8 -6.75 -2.25 -6.75 -1.4 -6.0 -0.05 -5.25 1.3 -5.25 1.9 -5.25 2.5 -5.7 3.0 -6.15 3.5 -6.9 3.5 -9.45 3.5 -11.1 -2.8 -11.1 -6.55 -8.0 -8.1 -4.95 -9.65 -4.95 -6.25 -4.95 -6.0 -5.85 -4.4" fill="#ffffff" fill-rule="evenodd" stroke="none"/>
    </g>
  </defs>
</svg>
