<?xml version="1.0" encoding="UTF-8" standalone="no"?>
<svg xmlns:xlink="http://www.w3.org/1999/xlink" height="37.85px" width="18.0px" xmlns="http://www.w3.org/2000/svg">
  <g transform="matrix(1.0, 0.0, 0.0, 1.0, 88.8, 28.0)">
    <use height="37.85" transform="matrix(1.0, 0.0, 0.0, 1.0, -88.8, -28.0)" width="18.0" xlink:href="#shape0"/>
  </g>
  <defs>
    <g id="shape0" transform="matrix(1.0, 0.0, 0.0, 1.0, 88.8, 28.0)">
      <path d="M-73.2 -22.4 Q-70.8 -20.6 -70.8 -17.85 -70.8 -16.85 -71.65 -16.45 L-72.5 -16.25 -74.65 -16.6 Q-75.2 -16.95 -76.0 -18.35 -77.4 -20.9 -77.25 -22.35 -77.1 -23.65 -75.75 -23.65 -74.9 -23.65 -73.2 -22.4" fill="#ffd633" fill-opacity="0.5019608" fill-rule="evenodd" stroke="none"/>
      <path d="M-86.1 -27.0 Q-85.1 -25.85 -85.1 -24.4 -85.1 -23.5 -85.6 -23.15 -85.85 -23.0 -86.15 -23.0 -87.85 -23.0 -88.6 -25.5 -89.3 -28.0 -87.75 -28.0 -86.95 -28.0 -86.1 -27.0 M-77.65 -6.55 Q-77.3 -4.45 -78.15 -2.65 L-78.9 -1.3 -79.4 8.85 -79.6 9.85 Q-80.55 4.7 -80.2 -0.3 -80.0 -2.95 -80.2 -5.25 L-80.5 -7.25 -80.35 -7.5 -79.15 -7.75 -77.65 -6.55" fill="#ffd633" fill-opacity="0.2" fill-rule="evenodd" stroke="none"/>
    </g>
  </defs>
</svg>
