<?xml version="1.0" encoding="UTF-8" standalone="no"?>
<svg xmlns:xlink="http://www.w3.org/1999/xlink" height="37.4px" width="40.8px" xmlns="http://www.w3.org/2000/svg">
  <g transform="matrix(1.0, 0.0, 0.0, 1.0, 24.9, 22.25)">
    <use height="20.7" id="_col2" transform="matrix(1.0, 0.0, 0.0, 1.0, -22.75, -16.7)" width="19.8" xlink:href="#sprite0"/>
    <use height="37.4" id="_col4" transform="matrix(1.0, 0.0, 0.0, 1.0, -24.9, -22.25)" width="40.8" xlink:href="#sprite1"/>
    <use height="8.45" transform="matrix(1.0, 0.0, 0.0, 1.0, -21.6, -20.15)" width="11.55" xlink:href="#shape2"/>
  </g>
  <defs>
    <g id="sprite0" transform="matrix(1.0, 0.0, 0.0, 1.0, 25.5, 16.85)">
      <use height="20.7" transform="matrix(1.0, 0.0, 0.0, 1.0, -25.5, -16.85)" width="19.8" xlink:href="#shape0"/>
    </g>
    <g id="shape0" transform="matrix(1.0, 0.0, 0.0, 1.0, 25.5, 16.85)">
      <path d="M-17.25 2.8 L-17.9 -2.0 -18.15 -5.75 -18.25 -7.8 -18.35 -9.2 -18.3 -9.25 Q-18.1 -7.35 -16.9 -3.35 -15.55 1.25 -14.3 2.85 -13.65 2.0 -13.65 1.55 L-13.1 -3.9 Q-13.1 -5.2 -13.9 -8.9 L-15.0 -13.55 -14.55 -13.55 -12.0 -13.3 -11.45 -10.5 Q-10.55 -6.45 -10.4 -2.6 L-8.45 -5.15 -8.25 -7.35 Q-8.25 -8.85 -8.8 -10.8 L-9.3 -13.05 -6.25 -12.8 Q-5.05 -6.65 -6.5 -0.7 L-6.6 -0.3 Q-7.25 0.45 -8.25 0.85 L-8.95 1.05 -10.5 1.0 -10.95 1.95 Q-11.5 3.2 -12.55 3.7 L-15.0 3.65 -16.35 3.25 -17.25 2.8 M-10.5 1.0 L-10.4 -2.6 -10.5 1.0" fill="#d6baba" fill-rule="evenodd" stroke="none"/>
      <path d="M-23.15 -15.85 Q-22.85 -10.25 -22.25 -7.2 -21.65 -4.2 -20.95 -2.8 -21.65 -4.2 -22.25 -7.2 -22.85 -10.25 -23.15 -15.85 -18.7 -13.75 -15.0 -13.55 L-13.9 -8.9 Q-13.1 -5.2 -13.1 -3.9 L-13.65 1.55 Q-13.65 2.0 -14.3 2.85 -15.55 1.25 -16.9 -3.35 -18.1 -7.35 -18.3 -9.25 L-18.35 -9.2 -18.25 -7.8 -18.15 -5.75 -17.9 -2.0 -17.25 2.8 Q-19.4 1.4 -20.95 -2.8 L-22.25 -4.15 Q-24.6 -6.6 -25.5 -16.85 L-23.15 -15.85 M-12.0 -13.3 L-9.35 -13.05 -9.3 -13.05 -8.8 -10.8 Q-8.25 -8.85 -8.25 -7.35 L-8.45 -5.15 -10.4 -2.6 Q-10.55 -6.45 -11.45 -10.5 L-12.0 -13.3" fill="#ffffff" fill-rule="evenodd" stroke="none"/>
      <path d="M-20.95 -2.8 Q-21.65 -4.2 -22.25 -7.2 -22.85 -10.25 -23.15 -15.85 M-25.5 -16.85 Q-24.6 -6.6 -22.25 -4.15 L-20.95 -2.8 Q-19.4 1.4 -17.25 2.8 M-6.25 -12.8 Q-5.05 -6.65 -6.5 -0.7 L-6.6 -0.3 Q-7.25 0.45 -8.25 0.85 L-8.95 1.05 -10.5 1.0 -10.95 1.95 Q-11.5 3.2 -12.55 3.7 L-15.0 3.65 -16.35 3.25 -17.25 2.8 M-10.4 -2.6 L-10.5 1.0 M-12.0 -13.3 L-11.45 -10.5 Q-10.55 -6.45 -10.4 -2.6" fill="none" stroke="#000000" stroke-linecap="round" stroke-linejoin="round" stroke-opacity="0.3019608" stroke-width="0.05"/>
    </g>
    <g id="sprite1" transform="matrix(1.0, 0.0, 0.0, 1.0, -7.95, 10.2)">
      <use height="37.4" transform="matrix(1.0, 0.0, 0.0, 1.0, 7.95, -10.2)" width="40.8" xlink:href="#shape1"/>
    </g>
    <g id="shape1" transform="matrix(1.0, 0.0, 0.0, 1.0, -7.95, 10.2)">
      <path d="M9.4 -5.25 L9.2 -5.5 7.95 -7.1 8.7 -8.15 8.95 -8.45 10.45 -10.2 Q11.8 -9.0 13.25 -8.1 17.35 -5.4 21.9 -5.05 L26.5 -5.3 27.6 -5.5 30.6 -6.1 30.6 -5.85 Q30.6 -5.25 27.2 -4.05 L26.8 -3.95 27.2 -0.6 27.4 0.3 26.3 0.4 21.95 0.35 21.9 0.35 17.8 -0.2 Q15.05 -1.15 12.95 -2.4 L9.4 -5.25 M42.35 27.2 L42.3 27.2 Q36.1 13.1 30.3 1.95 L35.4 1.15 39.15 15.0 42.35 27.2 M10.5 18.1 Q9.65 16.25 9.4 14.35 8.15 5.0 9.3 -4.4 L9.75 -3.75 Q10.7 -2.4 11.15 -2.4 L11.4 -2.3 11.25 -1.85 11.0 5.5 Q10.35 13.65 10.35 16.7 L10.5 18.1 M13.9 -4.75 L13.7 -3.85 Q13.7 -3.0 14.85 -2.2 16.05 -1.35 17.5 -1.35 18.3 -1.35 18.8 -1.7 L19.25 -2.4 Q19.25 -3.75 16.6 -4.6 L13.9 -4.75" fill="#ffffff" fill-rule="evenodd" stroke="none"/>
      <path d="M30.6 -6.1 Q36.15 -7.2 38.9 -8.35 L40.95 -6.1 Q41.95 -6.0 42.55 -4.8 L44.4 -0.9 47.25 4.65 Q48.75 7.85 48.75 8.7 L48.65 8.95 45.85 8.55 44.75 8.4 Q44.0 8.35 44.0 8.65 L43.55 11.55 Q43.1 14.55 43.1 15.95 L42.85 23.9 42.7 25.8 42.55 26.8 42.5 27.15 42.35 27.2 39.15 15.0 35.4 1.15 30.3 1.95 29.35 0.1 27.4 0.3 27.2 -0.6 26.8 -3.95 27.2 -4.05 Q30.6 -5.25 30.6 -5.85 L30.6 -6.1 M12.95 -2.4 Q13.05 0.35 12.75 3.1 11.85 11.45 11.3 19.8 L10.5 18.1 10.35 16.7 Q10.35 13.65 11.0 5.5 L11.25 -1.85 11.4 -2.3 11.15 -2.4 Q10.7 -2.4 9.75 -3.75 L9.3 -4.4 9.4 -5.25 12.95 -2.4 M13.9 -4.75 L16.6 -4.6 Q19.25 -3.75 19.25 -2.4 L18.8 -1.7 Q18.3 -1.35 17.5 -1.35 16.05 -1.35 14.85 -2.2 13.7 -3.0 13.7 -3.85 L13.9 -4.75 M29.35 0.1 Q35.35 -0.8 40.9 -3.85 L41.75 -5.35 40.95 -6.1 41.75 -5.35 40.9 -3.85 Q35.35 -0.8 29.35 0.1" fill="#d6baba" fill-rule="evenodd" stroke="none"/>
      <path d="M9.4 -5.25 L9.2 -5.5 7.95 -7.1 8.7 -8.15 8.95 -8.45 10.45 -10.2 Q11.8 -9.0 13.25 -8.1 17.35 -5.4 21.9 -5.05 L26.5 -5.3 27.6 -5.5 30.6 -6.1 Q36.15 -7.2 38.9 -8.35 L40.95 -6.1 Q41.95 -6.0 42.55 -4.8 L44.4 -0.9 47.25 4.65 Q48.75 7.85 48.75 8.7 L48.65 8.95 45.85 8.55 44.75 8.4 Q44.0 8.35 44.0 8.65 L43.55 11.55 Q43.1 14.55 43.1 15.95 L42.85 23.9 42.7 25.8 42.55 26.8 42.5 27.15 42.35 27.2 42.3 27.2 Q36.1 13.1 30.3 1.95 L29.35 0.1 27.4 0.3 26.3 0.4 21.95 0.35 21.9 0.35 17.8 -0.2 Q15.05 -1.15 12.95 -2.4 13.05 0.35 12.75 3.1 11.85 11.45 11.3 19.8 L10.5 18.1 Q9.65 16.25 9.4 14.35 8.15 5.0 9.3 -4.4 L9.4 -5.25 12.95 -2.4 M40.95 -6.1 L41.75 -5.35 40.9 -3.85 Q35.35 -0.8 29.35 0.1" fill="none" stroke="#000000" stroke-linecap="round" stroke-linejoin="round" stroke-opacity="0.3019608" stroke-width="0.05"/>
    </g>
    <g id="shape2" transform="matrix(1.0, 0.0, 0.0, 1.0, 21.6, 20.15)">
      <path d="M-16.4 -17.65 Q-16.45 -17.55 -16.6 -17.55 L-17.4 -17.7 -19.25 -18.05 -20.4 -18.45 Q-20.4 -19.05 -18.55 -19.05 -17.85 -19.05 -17.1 -18.45 L-16.4 -17.75 -16.4 -17.65 M-13.7 -13.15 Q-11.95 -14.45 -11.95 -13.35 -11.95 -12.75 -12.8 -12.75 -13.7 -12.75 -13.7 -13.15" fill="#ffffff" fill-rule="evenodd" stroke="none"/>
      <path d="M-21.05 -15.75 Q-21.6 -16.85 -21.6 -17.8 -21.6 -18.7 -20.85 -19.4 L-19.6 -20.15 -10.95 -17.1 -10.4 -15.6 Q-10.05 -14.65 -10.05 -14.1 L-10.5 -12.65 -10.9 -11.7 -10.95 -11.7 -15.05 -12.25 Q-18.1 -13.3 -20.35 -14.75 L-20.6 -14.9 -21.05 -15.75 M-16.4 -17.65 L-16.4 -17.75 -17.1 -18.45 Q-17.85 -19.05 -18.55 -19.05 -20.4 -19.05 -20.4 -18.45 L-19.25 -18.05 -17.4 -17.7 -16.6 -17.55 Q-16.45 -17.55 -16.4 -17.65 M-17.75 -14.85 L-17.4 -14.65 Q-16.2 -14.0 -14.75 -14.0 L-14.5 -14.0 -14.4 -14.15 -14.05 -15.05 Q-14.05 -15.7 -16.2 -16.3 L-17.6 -16.65 -18.65 -16.85 -18.75 -16.5 Q-18.75 -15.55 -17.75 -14.85 M-13.7 -13.15 Q-13.7 -12.75 -12.8 -12.75 -11.95 -12.75 -11.95 -13.35 -11.95 -14.45 -13.7 -13.15" fill="#bcfefd" fill-rule="evenodd" stroke="none"/>
      <path d="M-17.6 -16.65 L-18.0 -16.1 -17.85 -15.45 -17.75 -14.85 Q-18.75 -15.55 -18.75 -16.5 L-18.65 -16.85 -17.6 -16.65" fill="#81a3c2" fill-rule="evenodd" stroke="none"/>
      <path d="M-21.05 -15.75 Q-21.6 -16.85 -21.6 -17.8 -21.6 -18.7 -20.85 -19.4 L-19.6 -20.15 -10.95 -17.1 -10.4 -15.6 Q-10.05 -14.65 -10.05 -14.1 L-10.5 -12.65 -10.9 -11.7 -10.95 -11.7 -15.05 -12.25 Q-18.1 -13.3 -20.35 -14.75 L-20.6 -14.9 -21.05 -15.75 M-17.75 -14.85 L-17.4 -14.65 Q-16.2 -14.0 -14.75 -14.0 L-14.5 -14.0 -14.4 -14.15 -14.05 -15.05 Q-14.05 -15.7 -16.2 -16.3 L-17.6 -16.65 -18.0 -16.1 -17.85 -15.45 -17.75 -14.85 Q-18.75 -15.55 -18.75 -16.5 L-18.65 -16.85 -17.6 -16.65" fill="none" stroke="#000000" stroke-linecap="round" stroke-linejoin="round" stroke-opacity="0.3019608" stroke-width="0.05"/>
    </g>
  </defs>
</svg>
