<?xml version="1.0" encoding="UTF-8" standalone="no"?>
<svg xmlns:xlink="http://www.w3.org/1999/xlink" height="42.05px" width="70.4px" xmlns="http://www.w3.org/2000/svg">
  <g transform="matrix(1.0, 0.0, 0.0, 1.0, 35.45, 21.0)">
    <use height="42.05" transform="matrix(1.0, 0.0, 0.0, 1.0, -35.45, -21.0)" width="70.4" xlink:href="#shape0"/>
    <use height="64.85" transform="matrix(0.0, 1.0, -1.0, 0.0, 30.8, -20.7)" width="19.65" xlink:href="#sprite0"/>
  </g>
  <defs>
    <g id="shape0" transform="matrix(1.0, 0.0, 0.0, 1.0, 35.45, 21.0)">
      <path d="M-0.15 15.6 L-2.05 13.7 -4.85 9.4 -5.15 8.7 -4.85 8.55 Q-4.75 8.55 -2.2 10.9 L-1.8 11.6 -1.65 11.85 -1.0 12.75 2.45 16.25 3.05 16.65 Q2.95 17.25 2.5 17.1 L-0.15 15.6 M-9.45 1.95 L-9.35 2.1 Q-8.95 3.0 -8.1 2.6 L-8.0 3.4 -8.65 3.2 -9.1 3.35 -10.05 2.65 Q-10.15 1.95 -9.45 1.95" fill="#ffffff" fill-rule="evenodd" stroke="none"/>
      <path d="M8.0 20.15 L4.8 18.9 4.65 18.8 4.4 18.7 3.85 18.4 Q1.6 17.2 -0.15 15.6 L2.5 17.1 Q2.95 17.25 3.05 16.65 L2.45 16.25 5.0 17.85 6.6 18.65 6.8 18.75 Q8.45 19.6 8.45 20.1 L8.45 20.3 8.0 20.15 M-4.85 9.4 L-5.65 7.5 -6.7 3.7 -6.8 2.7 -6.9 1.2 -4.65 3.2 -4.65 3.25 -4.3 5.0 -3.85 7.0 Q-3.25 9.1 -2.2 10.9 -4.75 8.55 -4.85 8.55 L-5.15 8.7 -4.85 9.4" fill="#fe9f78" fill-rule="evenodd" stroke="none"/>
      <path d="M-6.65 -4.1 L-5.75 -7.0 -5.15 -8.55 -4.1 -10.65 Q0.0 -17.75 7.95 -20.05 L9.35 -20.45 9.85 -20.55 14.3 -21.0 15.2 -21.0 18.15 -20.6 18.55 -20.5 18.8 -20.45 19.0 -20.4 19.1 -20.35 19.3 -20.3 19.55 -20.25 19.85 -20.15 19.95 -20.1 20.1 -20.1 20.3 -20.0 20.6 -19.9 20.85 -19.85 21.05 -19.75 21.35 -19.6 22.05 -19.3 22.35 -19.2 22.6 -19.1 22.8 -19.0 22.95 -18.95 23.05 -18.85 23.45 -18.7 23.75 -18.5 23.9 -18.45 24.0 -18.4 Q31.6 -14.2 34.05 -5.95 36.5 2.3 32.35 10.0 28.15 17.65 19.85 20.1 13.75 21.95 8.0 20.15 L8.45 20.3 8.45 20.1 Q8.45 19.6 6.8 18.75 L6.6 18.65 Q12.65 21.3 19.1 19.4 26.5 17.15 30.1 10.4 33.85 3.6 31.7 -3.7 29.5 -11.05 22.7 -14.75 L21.95 -15.15 Q15.8 -18.2 9.2 -16.4 L8.6 -16.25 Q2.55 -14.5 -0.95 -9.6 L-2.35 -7.25 -3.25 -5.55 -3.85 -3.85 -4.3 -2.1 -4.55 -0.3 -4.65 1.4 -4.65 3.2 -6.9 1.2 -6.95 -0.2 -6.95 -2.15 -6.65 -4.1" fill="#a93301" fill-rule="evenodd" stroke="none"/>
      <path d="M-4.65 3.2 L-4.65 1.4 -4.55 -0.3 -4.3 -2.1 -3.85 -3.85 -3.25 -5.55 -2.35 -7.25 -0.95 -9.6 Q2.55 -14.5 8.6 -16.25 L9.2 -16.4 Q15.8 -18.2 21.95 -15.15 L22.7 -14.75 Q29.5 -11.05 31.7 -3.7 33.85 3.6 30.1 10.4 26.5 17.15 19.1 19.4 12.65 21.3 6.6 18.65 L5.0 17.85 2.45 16.25 -1.0 12.75 -1.65 11.85 -1.8 11.6 -2.2 10.9 Q-3.25 9.1 -3.85 7.0 L-4.3 5.0 -4.65 3.25 -4.65 3.2 M3.95 -2.55 L3.6 -1.6 3.3 -0.55 3.15 0.45 3.15 1.45 3.15 2.5 3.35 3.55 3.55 4.7 Q4.85 8.9 8.7 11.0 12.65 13.15 16.9 11.9 21.15 10.6 23.3 6.65 25.45 2.7 24.2 -1.5 22.95 -5.8 19.0 -7.9 15.05 -10.05 10.75 -8.75 7.3 -7.7 5.25 -4.9 L4.45 -3.55 3.95 -2.55" fill="#4e4843" fill-rule="evenodd" stroke="none"/>
      <path d="M3.95 -2.55 L4.45 -3.55 5.25 -4.9 Q7.3 -7.7 10.75 -8.75 15.05 -10.05 19.0 -7.9 22.95 -5.8 24.2 -1.5 25.45 2.7 23.3 6.65 21.15 10.6 16.9 11.9 12.65 13.15 8.7 11.0 4.85 8.9 3.55 4.7 L3.35 3.55 3.15 2.5 3.15 1.45 3.15 0.45 3.3 -0.55 3.6 -1.6 3.95 -2.55 M10.1 -1.25 L9.8 -0.65 9.55 -0.25 9.4 0.2 9.35 0.6 9.25 1.1 9.25 1.5 9.25 2.0 9.3 2.4 9.4 2.9 Q9.95 4.7 11.6 5.6 13.35 6.55 15.15 6.0 17.0 5.45 17.95 3.75 18.8 2.05 18.3 0.25 17.75 -1.6 16.05 -2.55 14.35 -3.45 12.55 -2.9 11.0 -2.45 10.1 -1.25 M19.2 -2.35 Q19.8 -2.6 20.0 -2.35 L20.3 -1.95 20.6 -2.05 20.8 -2.3 21.05 -2.65 21.75 -2.8 21.7 -2.85 Q21.2 -3.3 19.3 -2.85 18.6 -2.7 18.9 -2.25 19.15 -1.65 18.85 -1.5 L18.6 -1.4 18.2 -1.55 18.15 -1.45 18.4 -1.1 18.95 -1.15 Q19.5 -1.5 19.2 -2.35 M12.25 -7.25 L11.4 -6.65 11.25 -6.55 Q11.9 -6.0 11.55 -5.35 11.15 -4.65 11.25 -4.45 11.35 -4.35 11.95 -4.1 L13.0 -4.0 13.1 -4.3 Q12.35 -4.65 12.25 -4.85 L12.9 -6.0 Q13.15 -6.4 13.0 -6.65 L12.25 -7.25 M18.25 -6.7 L17.55 -6.75 Q17.1 -6.5 16.95 -5.6 L16.9 -4.65 16.65 -4.6 16.6 -4.65 16.9 -5.65 16.75 -6.5 Q16.25 -7.4 15.55 -6.95 14.9 -6.5 15.3 -5.8 L15.35 -5.1 15.4 -5.1 16.0 -5.15 15.65 -4.45 15.6 -4.05 16.35 -3.85 17.6 -4.05 Q17.85 -4.15 17.75 -5.0 17.6 -5.9 18.0 -6.15 L18.4 -6.3 18.25 -6.7 M9.05 -4.25 Q8.8 -3.4 8.9 -3.2 L9.7 -3.15 10.15 -3.6 10.65 -3.85 10.55 -4.15 Q10.45 -4.35 10.2 -4.3 L9.85 -4.35 Q9.5 -5.0 8.4 -5.25 7.3 -5.55 7.7 -4.85 7.9 -4.45 9.05 -4.25 M20.15 8.05 L19.2 7.85 18.15 7.95 17.9 8.35 17.65 8.8 17.2 8.6 16.8 8.45 16.75 8.05 16.7 8.0 16.15 8.85 Q15.85 9.3 16.05 9.6 L16.4 10.05 17.5 10.0 18.05 9.3 Q18.35 8.8 18.6 8.65 L20.35 8.4 20.15 8.05 M10.15 9.7 L10.3 9.4 8.65 8.9 8.5 7.95 6.75 7.85 7.1 6.55 6.75 6.2 6.7 6.25 6.55 7.2 6.35 8.05 6.6 8.25 7.1 8.3 7.45 8.15 7.95 8.15 8.05 8.6 8.2 9.15 8.9 9.65 10.15 9.7 M14.2 8.2 L14.05 9.15 13.3 10.15 13.0 10.2 12.8 9.4 12.3 9.1 11.85 8.9 12.0 7.3 Q11.55 6.55 11.3 7.8 10.95 9.05 11.05 9.25 L11.6 9.55 12.25 9.9 12.15 10.3 12.15 10.9 Q12.45 11.4 13.65 10.75 14.3 10.35 14.6 9.5 14.85 8.7 14.6 8.3 L14.2 8.2" fill="#8f8881" fill-rule="evenodd" stroke="none"/>
      <path d="M-10.6 3.1 L-10.7 3.05 -11.5 2.55 -12.15 2.4 -15.05 1.65 Q-17.75 0.9 -19.85 1.1 L-25.55 1.3 -27.5 1.55 -29.95 1.95 Q-32.35 2.85 -34.2 1.4 -35.2 0.55 -35.4 -0.55 -35.6 -1.8 -34.85 -3.1 -33.45 -3.95 -31.35 -3.4 L-31.25 -3.4 -31.35 -3.35 Q-33.35 -2.9 -34.5 -1.45 L-34.5 -0.7 -34.45 -0.45 -34.3 -0.3 -32.55 0.25 -30.35 0.35 -30.05 0.3 -28.9 0.15 -27.7 -0.05 -26.6 -0.2 -25.8 -0.4 -24.55 -0.5 -24.35 -0.4 -23.85 -0.5 -22.3 -0.35 -22.1 -0.3 -21.45 -0.25 -18.6 -0.1 -17.65 0.05 -18.9 0.15 -19.05 0.15 -18.0 0.3 -17.05 0.5 -15.65 0.95 -14.4 1.25 -13.7 1.4 Q-13.05 1.4 -13.05 1.0 L-13.15 0.75 -13.35 0.7 -14.1 0.45 Q-14.3 0.3 -14.45 0.25 -14.3 0.3 -14.1 0.45 L-13.25 0.65 -12.1 0.8 -11.05 0.65 -10.8 0.8 -10.3 0.5 -10.35 1.75 -10.6 3.1 M9.05 -4.25 Q7.9 -4.45 7.7 -4.85 7.3 -5.55 8.4 -5.25 9.5 -5.0 9.85 -4.35 L10.2 -4.3 Q10.45 -4.35 10.55 -4.15 L10.65 -3.85 10.15 -3.6 9.7 -3.15 8.9 -3.2 Q8.8 -3.4 9.05 -4.25 M18.25 -6.7 L18.4 -6.3 18.0 -6.15 Q17.6 -5.9 17.75 -5.0 17.85 -4.15 17.6 -4.05 L16.35 -3.85 15.6 -4.05 15.65 -4.45 16.0 -5.15 15.4 -5.1 15.35 -5.1 15.3 -5.8 Q14.9 -6.5 15.55 -6.95 16.25 -7.4 16.75 -6.5 L16.9 -5.65 16.6 -4.65 16.65 -4.6 16.9 -4.65 16.95 -5.6 Q17.1 -6.5 17.55 -6.75 L18.25 -6.7 M12.25 -7.25 L13.0 -6.65 Q13.15 -6.4 12.9 -6.0 L12.25 -4.85 Q12.35 -4.65 13.1 -4.3 L13.0 -4.0 11.95 -4.1 Q11.35 -4.35 11.25 -4.45 11.15 -4.65 11.55 -5.35 11.9 -6.0 11.25 -6.55 L11.4 -6.65 12.25 -7.25 M19.2 -2.35 Q19.5 -1.5 18.95 -1.15 L18.4 -1.1 18.15 -1.45 18.2 -1.55 18.6 -1.4 18.85 -1.5 Q19.15 -1.65 18.9 -2.25 18.6 -2.7 19.3 -2.85 21.2 -3.3 21.7 -2.85 L21.75 -2.8 21.05 -2.65 20.8 -2.3 20.6 -2.05 20.3 -1.95 20.0 -2.35 Q19.8 -2.6 19.2 -2.35 M-27.7 -2.8 L-27.7 -2.75 -27.7 -2.8 M-33.0 1.25 Q-33.3 0.6 -33.85 0.25 -34.55 0.55 -33.85 1.3 L-32.8 1.3 -33.0 1.25 M14.2 8.2 L14.6 8.3 Q14.85 8.7 14.6 9.5 14.3 10.35 13.65 10.75 12.45 11.4 12.15 10.9 L12.15 10.3 12.25 9.9 11.6 9.55 11.05 9.25 Q10.95 9.05 11.3 7.8 11.55 6.55 12.0 7.3 L11.85 8.9 12.3 9.1 12.8 9.4 13.0 10.2 13.3 10.15 14.05 9.15 14.2 8.2 M10.15 9.7 L8.9 9.65 8.2 9.15 8.05 8.6 7.95 8.15 7.45 8.15 7.1 8.3 6.6 8.25 6.35 8.05 6.55 7.2 6.7 6.25 6.75 6.2 7.1 6.55 6.75 7.85 8.5 7.95 8.65 8.9 10.3 9.4 10.15 9.7 M20.15 8.05 L20.35 8.4 18.6 8.65 Q18.35 8.8 18.05 9.3 L17.5 10.0 16.4 10.05 16.05 9.6 Q15.85 9.3 16.15 8.85 L16.7 8.0 16.75 8.05 16.8 8.45 17.2 8.6 17.65 8.8 17.9 8.35 18.15 7.95 19.2 7.85 20.15 8.05" fill="#605a53" fill-rule="evenodd" stroke="none"/>
      <path d="M-6.7 3.7 L-7.35 3.8 -10.2 3.4 -10.6 3.1 -10.35 1.75 -10.3 0.5 -10.25 -0.55 -10.25 -3.1 -10.25 -3.3 -10.2 -4.45 -9.95 -4.6 -8.5 -4.75 Q-7.3 -4.85 -6.65 -4.1 L-6.95 -2.15 -6.95 -0.2 -6.9 1.2 -6.8 2.7 -6.7 3.7 M-9.45 1.95 Q-10.15 1.95 -10.05 2.65 L-9.1 3.35 -8.65 3.2 -8.0 3.4 -8.1 2.6 Q-8.95 3.0 -9.35 2.1 L-9.45 1.95" fill="#999999" fill-rule="evenodd" stroke="none"/>
      <path d="M-17.65 0.05 L-17.6 0.05 -16.65 -0.05 -14.85 0.15 -14.75 0.15 -14.45 0.25 Q-14.3 0.3 -14.1 0.45 L-13.35 0.7 -13.15 0.75 -13.05 1.0 Q-13.05 1.4 -13.7 1.4 L-14.4 1.25 -15.65 0.95 -17.05 0.5 -18.0 0.3 -19.05 0.15 -18.9 0.15 -17.65 0.05 M-33.0 1.25 L-32.8 1.3 -33.85 1.3 Q-34.55 0.55 -33.85 0.25 -33.3 0.6 -33.0 1.25" fill="#d3cfcd" fill-rule="evenodd" stroke="none"/>
      <path d="M-31.25 -3.4 L-31.2 -3.4 -28.65 -2.95 -27.7 -2.8 -26.6 -2.6 -16.5 -2.9 -14.85 -3.3 -13.45 -3.65 -10.2 -4.45 -10.25 -3.3 -10.25 -3.1 -10.25 -0.55 -10.3 0.5 -10.8 0.8 -11.05 0.65 -12.1 0.8 -13.25 0.65 -14.1 0.45 Q-14.3 0.3 -14.45 0.25 L-14.75 0.15 -14.85 0.15 -16.65 -0.05 -17.6 0.05 -17.65 0.05 -18.6 -0.1 -21.45 -0.25 -22.1 -0.3 -22.3 -0.35 -23.85 -0.5 -24.35 -0.4 -24.55 -0.5 -25.8 -0.4 -26.6 -0.2 -27.7 -0.05 -28.9 0.15 -30.05 0.3 -30.35 0.35 -30.2 0.25 -29.55 -0.2 -29.15 -0.9 -29.15 -0.95 Q-29.85 -1.7 -30.9 -1.75 L-31.8 -1.5 Q-32.75 -1.25 -33.4 -0.5 L-32.55 0.25 -34.3 -0.3 -34.45 -0.45 -34.5 -0.7 -34.5 -1.45 Q-33.35 -2.9 -31.35 -3.35 L-31.25 -3.4 M-27.7 -2.8 L-27.7 -2.75 -27.7 -2.8" fill="#3a3634" fill-rule="evenodd" stroke="none"/>
      <path d="M10.1 -1.25 Q11.0 -2.45 12.55 -2.9 14.35 -3.45 16.05 -2.55 17.75 -1.6 18.3 0.25 18.8 2.05 17.95 3.75 17.0 5.45 15.15 6.0 13.35 6.55 11.6 5.6 9.95 4.7 9.4 2.9 L9.3 2.4 9.25 2.0 9.25 1.5 9.25 1.1 9.35 0.6 9.4 0.2 9.55 -0.25 9.8 -0.65 10.1 -1.25" fill="#af7061" fill-rule="evenodd" stroke="none"/>
      <path d="M-6.65 -4.1 L-5.75 -7.0 -5.15 -8.55 -4.1 -10.65 Q0.0 -17.75 7.95 -20.05 L9.35 -20.45 9.85 -20.55 14.3 -21.0 15.2 -21.0 18.15 -20.6 18.55 -20.5 18.8 -20.45 19.0 -20.4 19.1 -20.35 19.3 -20.3 19.55 -20.25 19.85 -20.15 19.95 -20.1 20.1 -20.1 20.3 -20.0 20.6 -19.9 20.85 -19.85 21.05 -19.75 21.35 -19.6 22.05 -19.3 22.35 -19.2 22.6 -19.1 22.8 -19.0 22.95 -18.95 23.05 -18.85 23.45 -18.7 23.75 -18.5 23.9 -18.45 24.0 -18.4 Q31.6 -14.2 34.05 -5.95 36.5 2.3 32.35 10.0 28.15 17.65 19.85 20.1 13.75 21.95 8.0 20.15 L4.8 18.9 4.65 18.8 4.4 18.7 3.85 18.4 Q1.6 17.2 -0.15 15.6 L-2.05 13.7 -4.85 9.4 -5.65 7.5 -6.7 3.7 -7.35 3.8 -10.2 3.4 -10.6 3.1 -10.7 3.05 -11.5 2.55 -12.15 2.4 -15.05 1.65 Q-17.75 0.9 -19.85 1.1 L-25.55 1.3 -27.5 1.55 -29.95 1.95 Q-32.35 2.85 -34.2 1.4 -35.2 0.55 -35.4 -0.55 -35.6 -1.8 -34.85 -3.1 -33.45 -3.95 -31.35 -3.4 L-31.25 -3.4 M-31.2 -3.4 L-28.65 -2.95 -27.7 -2.8 -26.6 -2.6 -16.5 -2.9 -14.85 -3.3 -13.45 -3.65 -10.2 -4.45 -9.95 -4.6 -8.5 -4.75 Q-7.3 -4.85 -6.65 -4.1 L-6.95 -2.15 -6.95 -0.2 -6.9 1.2 M-4.65 3.2 L-4.65 1.4 -4.55 -0.3 -4.3 -2.1 -3.85 -3.85 -3.25 -5.55 -2.35 -7.25 -0.95 -9.6 Q2.55 -14.5 8.6 -16.25 L9.2 -16.4 Q15.8 -18.2 21.95 -15.15 L22.7 -14.75 Q29.5 -11.05 31.7 -3.7 33.85 3.6 30.1 10.4 26.5 17.15 19.1 19.4 12.65 21.3 6.6 18.65 L5.0 17.85 2.45 16.25 -1.0 12.75 -1.65 11.85 -1.8 11.6 -2.2 10.9 Q-3.25 9.1 -3.85 7.0 L-4.3 5.0 -4.65 3.25 M-32.55 0.25 L-33.4 -0.5 Q-32.75 -1.25 -31.8 -1.5 L-30.9 -1.75 Q-29.85 -1.7 -29.15 -0.95 M-29.15 -0.9 L-29.55 -0.2 -30.2 0.25 -30.35 0.35 -32.55 0.25 M-10.3 0.5 L-10.25 -0.55 -10.25 -3.1 -10.25 -3.3 -10.2 -4.45 M-6.8 2.7 L-6.7 3.7 M-10.6 3.1 L-10.35 1.75 -10.3 0.5" fill="none" stroke="#000000" stroke-linecap="round" stroke-linejoin="round" stroke-opacity="0.4" stroke-width="0.05"/>
    </g>
    <g id="sprite0" transform="matrix(1.0, 0.0, 0.0, 1.0, 80.8, 13.5)">
      <use height="64.85" transform="matrix(1.0, 0.0, 0.0, 1.0, -80.8, -13.5)" width="19.65" xlink:href="#shape1"/>
    </g>
    <g id="shape1" transform="matrix(1.0, 0.0, 0.0, 1.0, 80.8, 13.5)">
      <path d="M-75.05 -5.3 L-75.15 -5.2 -75.35 -4.65 Q-75.35 -4.35 -76.65 -1.75 L-77.15 -0.35 -77.4 0.15 -77.4 0.2 -77.6 1.75 -77.8 3.6 -77.6 5.3 -77.7 5.3 Q-78.05 5.15 -78.25 4.25 L-78.4 3.2 -78.4 2.95 -78.15 0.75 -78.3 0.8 Q-78.3 1.15 -79.0 1.15 L-79.2 1.25 -79.45 1.35 -79.35 1.35 -79.35 1.55 -79.5 2.65 -79.65 3.8 -79.65 3.9 -79.6 4.4 -79.7 3.95 -79.75 3.2 -79.5 1.35 -79.95 1.25 -80.15 1.1 -80.35 0.75 -80.1 -0.4 -80.2 -0.6 -80.3 -0.85 -80.25 -0.95 -80.25 -1.0 -80.2 -1.1 -79.45 -3.6 Q-78.8 -5.35 -78.15 -5.95 L-77.4 -6.35 Q-77.1 -6.35 -77.0 -6.15 L-76.9 -5.75 -76.55 -6.3 -75.1 -8.25 -75.05 -8.1 -75.2 -7.6 -76.25 -6.0 -75.9 -5.8 -75.5 -6.25 Q-75.0 -6.25 -75.0 -5.75 L-75.0 -5.65 -75.1 -5.25 -75.05 -5.3 M-64.05 25.15 L-63.8 24.9 Q-63.0 24.9 -63.0 25.8 -63.0 27.15 -63.6 27.25 -64.2 27.35 -64.2 26.5 L-64.05 25.15 M-63.9 28.8 L-63.5 28.05 -63.0 28.3 -62.2 33.35 -63.05 31.3 -63.45 29.8 Q-63.55 29.15 -63.9 28.8 M-62.05 46.95 L-62.7 49.65 -63.0 51.35 Q-63.0 46.3 -62.05 41.5 -61.6 38.95 -61.95 34.35 L-61.55 37.45 Q-60.5 42.3 -62.05 46.95" fill="#ffd633" fill-rule="evenodd" stroke="none"/>
      <path d="M-78.15 -5.95 Q-75.95 -10.15 -74.5 -11.15 L-72.8 -12.45 -72.0 -13.05 -72.15 -13.05 -72.1 -13.1 -72.0 -13.05 -71.5 -13.5 Q-71.7 -12.1 -72.4 -11.45 L-71.2 -12.35 -70.4 -12.3 -70.35 -12.0 -72.95 -8.2 -75.05 -5.3 -75.1 -5.25 -75.0 -5.65 -75.0 -5.75 Q-75.0 -6.25 -75.5 -6.25 L-75.9 -5.8 -76.25 -6.0 -75.2 -7.6 -75.05 -8.1 -75.1 -8.25 -76.55 -6.3 -76.9 -5.75 -77.0 -6.15 Q-77.1 -6.35 -77.4 -6.35 L-78.15 -5.95 M-77.7 5.3 L-75.65 12.4 -75.95 12.45 Q-76.3 12.45 -77.25 10.5 L-76.4 13.15 -76.5 13.45 -77.85 11.5 -78.6 9.4 -78.6 9.35 -78.85 9.35 -78.85 9.75 -79.1 9.9 Q-79.4 9.9 -79.55 9.2 L-79.95 8.1 Q-80.35 7.05 -80.35 6.2 L-80.8 3.2 -80.65 0.55 -80.5 -0.45 -80.35 -0.8 -80.35 -0.85 -80.3 -1.0 -80.2 -1.1 -80.25 -1.0 -80.25 -0.95 -80.3 -0.85 -80.2 -0.6 -80.1 -0.4 -80.35 0.75 -80.15 1.1 -79.95 1.25 -79.5 1.35 -79.75 3.2 -79.7 3.95 -79.6 4.4 -79.65 3.9 -79.65 3.8 -79.5 2.65 -79.35 1.55 -79.35 1.35 -79.45 1.35 -79.2 1.25 -79.0 1.15 Q-78.3 1.15 -78.3 0.8 L-78.15 0.75 -78.4 2.95 -78.4 3.2 -78.25 4.25 Q-78.05 5.15 -77.7 5.3 M-77.65 7.3 L-77.7 7.3 -77.3 8.75 -77.65 7.3 M-77.2 9.3 L-76.95 9.95 -76.95 9.9 Q-77.0 9.6 -77.2 9.3" fill="#ffd633" fill-opacity="0.4" fill-rule="evenodd" stroke="none"/>
    </g>
  </defs>
</svg>
