<?xml version="1.0" encoding="UTF-8" standalone="no"?>
<svg xmlns:xlink="http://www.w3.org/1999/xlink" height="9.25px" width="12.0px" xmlns="http://www.w3.org/2000/svg">
  <g transform="matrix(1.0, 0.0, 0.0, 1.0, 6.0, 4.6)">
    <use height="9.25" transform="matrix(1.0, 0.0, 0.0, 1.0, -6.0, -4.6)" width="12.0" xlink:href="#shape0"/>
  </g>
  <defs>
    <g id="shape0" transform="matrix(1.0, 0.0, 0.0, 1.0, 6.0, 4.6)">
      <path d="M1.1 1.4 L2.3 0.85 Q3.65 0.05 4.1 -0.95 4.5 -2.0 4.5 -4.6 L5.65 -3.15 Q6.0 -2.75 6.0 -2.2 6.0 0.6 4.65 2.25 3.25 3.9 0.95 4.5 -1.05 5.0 -3.25 4.05 L-2.0 4.1 Q-0.05 4.1 0.95 3.4 1.65 2.9 1.65 2.3 1.65 1.75 1.1 1.4" fill="#a78383" fill-rule="evenodd" stroke="none"/>
      <path d="M1.1 1.4 Q1.65 1.75 1.65 2.3 1.65 2.9 0.95 3.4 -0.05 4.1 -2.0 4.1 L-3.25 4.05 -3.95 3.7 -5.5 2.35 Q-6.3 1.05 -5.8 -1.0 -4.65 0.9 -3.55 1.4 L-0.75 1.75 0.35 1.6 1.1 1.4" fill="#d6baba" fill-rule="evenodd" stroke="none"/>
      <path d="M-3.25 4.05 Q-1.05 5.0 0.95 4.5 3.25 3.9 4.65 2.25 6.0 0.6 6.0 -2.2 6.0 -2.75 5.65 -3.15 L4.5 -4.6 Q4.5 -2.0 4.1 -0.95 3.65 0.05 2.3 0.85 L1.1 1.4 M-3.25 4.05 L-3.95 3.7 -5.5 2.35 Q-6.3 1.05 -5.8 -1.0 -4.65 0.9 -3.55 1.4 L-0.75 1.75 0.35 1.6 1.1 1.4" fill="none" stroke="#000000" stroke-linecap="round" stroke-linejoin="round" stroke-opacity="0.3019608" stroke-width="0.05"/>
    </g>
  </defs>
</svg>
