<?xml version="1.0" encoding="UTF-8" standalone="no"?>
<svg xmlns:xlink="http://www.w3.org/1999/xlink" height="57.85px" width="28.75px" xmlns="http://www.w3.org/2000/svg">
  <g transform="matrix(1.0, 0.0, 0.0, 1.0, 7.05, 33.9)">
    <use height="18.25" transform="matrix(1.0, 0.0, 0.0, 1.0, -7.05, -9.1)" width="14.05" xlink:href="#shape0"/>
    <use height="57.85" id="_col3" transform="matrix(1.0, 0.0, 0.0, 1.0, -6.75, -33.9)" width="28.45" xlink:href="#sprite0"/>
  </g>
  <defs>
    <g id="shape0" transform="matrix(1.0, 0.0, 0.0, 1.0, 7.05, 9.1)">
      <path d="M-0.6 -4.75 L-0.75 -5.2 Q-0.3 -5.25 0.15 -5.7 0.75 -6.4 0.75 -7.45 L0.75 -8.0 Q6.7 -6.7 7.0 -5.4 6.95 -4.4 6.55 -3.75 L5.95 -3.15 5.6 -3.1 Q4.1 -3.15 -0.6 -4.75 4.1 -3.15 5.6 -3.1 L5.95 -3.15 6.05 -2.9 6.05 -2.6 5.95 -2.3 6.15 -1.2 Q6.2 -0.4 5.7 0.15 L5.5 0.35 5.25 1.95 4.8 2.35 4.9 4.15 3.25 6.05 Q3.4 7.2 2.75 7.45 2.05 7.7 2.15 7.95 L0.55 8.95 -1.5 9.15 -2.25 9.15 -3.6 8.75 Q-3.5 8.15 -2.9 7.3 L-2.45 6.65 -1.6 5.15 -1.4 4.2 -1.1 2.2 3.7 2.5 4.8 2.35 3.7 2.5 -1.1 2.2 -1.1 1.65 -0.15 0.0 -0.05 -0.5 -0.25 -1.25 -0.2 -1.3 Q-0.05 -1.7 -0.05 -2.15 -0.05 -3.0 -0.6 -4.75 M6.05 -2.6 Q5.65 -2.35 4.6 -2.0 L2.65 -1.7 -0.2 -1.3 2.65 -1.7 4.6 -2.0 Q5.65 -2.35 6.05 -2.6 M-0.15 0.0 L4.35 0.8 5.5 0.35 4.35 0.8 -0.15 0.0 M3.25 6.05 Q2.85 6.3 2.7 6.8 L1.9 6.85 Q1.0 6.9 -0.9 5.65 L-1.6 5.15 -0.9 5.65 Q1.0 6.9 1.9 6.85 L2.7 6.8 Q2.85 6.3 3.25 6.05 M2.15 7.95 L-0.2 7.95 -2.8 7.35 -2.9 7.3 -2.8 7.35 -0.2 7.95 2.15 7.95" fill="#dbc7c6" fill-rule="evenodd" stroke="none"/>
      <path d="M0.75 -8.0 L0.75 -7.45 Q0.75 -6.4 0.15 -5.7 -0.3 -5.25 -0.75 -5.2 L-0.6 -4.75 -1.1 -4.95 -5.45 -6.6 -5.7 -6.7 -5.45 -6.6 -1.1 -4.95 -0.6 -4.75 Q-0.05 -3.0 -0.05 -2.15 -0.05 -1.7 -0.2 -1.3 L-0.75 -1.2 -2.9 -0.95 -0.75 -1.2 -0.2 -1.3 -0.25 -1.25 -0.05 -0.5 -0.15 0.0 -1.1 1.65 -1.1 2.2 -1.4 4.2 -1.6 5.15 -3.75 3.8 Q-5.6 2.65 -6.1 1.35 -5.6 2.65 -3.75 3.8 L-1.6 5.15 -2.45 6.65 -2.9 7.3 Q-3.5 8.15 -3.6 8.75 L-5.35 7.9 Q-6.8 6.85 -6.9 5.5 L-6.7 5.0 -7.05 3.05 Q-6.8 2.0 -6.1 1.35 L-6.25 0.95 Q-6.6 0.6 -6.55 0.05 L-6.5 -0.55 -6.1 -1.15 -6.15 -1.25 -6.35 -2.05 -6.4 -3.65 -6.3 -5.45 -5.7 -6.7 -6.4 -7.3 -6.15 -8.4 -5.45 -9.1 0.75 -8.0 M-6.1 -1.15 L-5.25 -0.85 -2.9 -0.95 -0.5 -0.1 -0.15 0.0 -0.5 -0.1 -2.9 -0.95 -5.25 -0.85 -6.1 -1.15 M-6.25 0.95 L-5.7 1.35 -1.7 2.15 -1.1 2.2 -1.7 2.15 -5.7 1.35 -6.25 0.95 M-6.7 5.0 Q-6.35 6.05 -5.45 6.55 L-2.9 7.3 -5.45 6.55 Q-6.35 6.05 -6.7 5.0" fill="#ffffff" fill-rule="evenodd" stroke="none"/>
      <path d="M-0.6 -4.75 Q4.1 -3.15 5.6 -3.1 L5.95 -3.15 6.55 -3.75 Q6.95 -4.4 7.0 -5.4 6.7 -6.7 0.75 -8.0 L-5.45 -9.1 -6.15 -8.4 -6.4 -7.3 -5.7 -6.7 -5.45 -6.6 -1.1 -4.95 -0.6 -4.75 M-0.2 -1.3 L2.65 -1.7 4.6 -2.0 Q5.65 -2.35 6.05 -2.6 L6.05 -2.9 5.95 -3.15 M6.05 -2.6 L5.95 -2.3 6.15 -1.2 Q6.2 -0.4 5.7 0.15 L5.5 0.35 5.25 1.95 4.8 2.35 4.9 4.15 3.25 6.05 Q3.4 7.2 2.75 7.45 2.05 7.7 2.15 7.95 L0.55 8.95 -1.5 9.15 -2.25 9.15 -3.6 8.75 -5.35 7.9 Q-6.8 6.85 -6.9 5.5 L-6.7 5.0 -7.05 3.05 Q-6.8 2.0 -6.1 1.35 L-6.25 0.95 Q-6.6 0.6 -6.55 0.05 L-6.5 -0.55 -6.1 -1.15 -6.15 -1.25 -6.35 -2.05 -6.4 -3.65 -6.3 -5.45 -5.7 -6.7 M4.8 2.35 L3.7 2.5 -1.1 2.2 -1.7 2.15 -5.7 1.35 -6.25 0.95 M-1.6 5.15 L-0.9 5.65 Q1.0 6.9 1.9 6.85 L2.7 6.8 Q2.85 6.3 3.25 6.05 M5.5 0.35 L4.35 0.8 -0.15 0.0 -0.5 -0.1 -2.9 -0.95 -5.25 -0.85 -6.1 -1.15 M-0.2 -1.3 L-0.75 -1.2 -2.9 -0.95 M-6.1 1.35 Q-5.6 2.65 -3.75 3.8 L-1.6 5.15 M-2.9 7.3 L-2.8 7.35 -0.2 7.95 2.15 7.95 M-2.9 7.3 L-5.45 6.55 Q-6.35 6.05 -6.7 5.0" fill="none" stroke="#000000" stroke-linecap="round" stroke-linejoin="round" stroke-opacity="0.3019608" stroke-width="0.05"/>
    </g>
    <g id="sprite0" transform="matrix(1.0, 0.0, 0.0, 1.0, 13.9, 28.3)">
      <use height="57.85" transform="matrix(1.0, 0.0, 0.0, 1.0, -13.9, -28.3)" width="28.45" xlink:href="#shape1"/>
    </g>
    <g id="shape1" transform="matrix(1.0, 0.0, 0.0, 1.0, 13.9, 28.3)">
      <path d="M-4.25 2.25 Q-1.75 -4.65 0.5 -11.9 L5.3 -27.9 7.75 -26.55 Q9.4 -26.25 11.8 -27.15 L14.55 -28.3 13.9 -25.9 Q10.2 -23.55 8.3 -23.75 6.35 -24.0 6.5 -22.0 6.6 -20.0 4.6 -15.35 2.6 -10.7 2.1 -8.15 L-4.6 5.2 -8.95 14.25 -7.6 11.1 -6.9 9.4 -5.1 4.65 -4.25 2.25 M-10.6 8.45 Q-13.9 7.35 -13.9 6.5 -13.45 5.15 -13.35 3.05 L-13.3 2.75 Q-13.2 0.45 -12.25 0.5 -11.3 0.55 -8.45 1.6 L-8.0 1.7 -8.8 3.8 -9.0 4.35 -10.6 8.45" fill="#ffffff" fill-rule="evenodd" stroke="none"/>
      <path d="M13.9 -25.9 Q11.55 -18.0 8.65 -9.7 4.7 1.9 1.8 7.8 L-3.7 20.15 Q-5.5 24.1 -6.6 25.7 L-7.7 27.6 Q-8.2 28.55 -10.15 29.35 -12.1 30.15 -13.05 27.95 -14.05 25.75 -13.5 24.55 L-12.3 21.8 -8.95 14.25 -4.6 5.2 2.1 -8.15 Q2.6 -10.7 4.6 -15.35 6.6 -20.0 6.5 -22.0 6.35 -24.0 8.3 -23.75 10.2 -23.55 13.9 -25.9 M-6.9 9.4 L-10.2 8.55 -10.6 8.45 -9.0 4.35 -8.8 3.8 -8.0 1.7 -4.25 2.25 -5.1 4.65 -6.9 9.4" fill="#d6baba" fill-rule="evenodd" stroke="none"/>
      <path d="M-4.25 2.25 Q-1.75 -4.65 0.5 -11.9 L5.3 -27.9 7.75 -26.55 Q9.4 -26.25 11.8 -27.15 L14.55 -28.3 13.9 -25.9 Q11.55 -18.0 8.65 -9.7 4.7 1.9 1.8 7.8 L-3.7 20.15 Q-5.5 24.1 -6.6 25.7 L-7.7 27.6 Q-8.2 28.55 -10.15 29.35 -12.1 30.15 -13.05 27.95 -14.05 25.75 -13.5 24.55 L-12.3 21.8 -8.95 14.25 -7.6 11.1 -6.9 9.4 -10.2 8.55 -10.6 8.45 Q-13.9 7.35 -13.9 6.5 -13.45 5.15 -13.35 3.05 L-13.3 2.75 Q-13.2 0.45 -12.25 0.5 -11.3 0.55 -8.45 1.6 L-8.0 1.7 -4.25 2.25 -5.1 4.65 -6.9 9.4" fill="none" stroke="#000000" stroke-linecap="round" stroke-linejoin="round" stroke-opacity="0.3019608" stroke-width="0.05"/>
    </g>
  </defs>
</svg>
