<?xml version="1.0" encoding="UTF-8" standalone="no"?>
<svg xmlns:xlink="http://www.w3.org/1999/xlink" height="123.0px" width="4.45px" xmlns="http://www.w3.org/2000/svg">
  <g transform="matrix(1.0, 0.0, 0.0, 1.0, 122.3, -9.9)">
    <use height="123.0" transform="matrix(1.0, 0.0, 0.0, 1.0, -122.3, 9.9)" width="4.45" xlink:href="#shape0"/>
  </g>
  <defs>
    <g id="shape0" transform="matrix(1.0, 0.0, 0.0, 1.0, 122.3, -9.9)">
      <path d="M-121.55 32.15 L-121.6 36.8 -121.55 64.65 -121.65 87.35 -121.55 90.35 -121.6 95.05 -121.5 123.25 Q-121.5 131.8 -121.8 132.9 L-122.05 132.9 -122.2 119.15 -122.1 89.75 -122.1 88.6 -122.3 83.65 -122.3 77.25 -122.3 64.65 -122.25 36.75 -122.3 32.05 Q-122.3 29.25 -121.95 27.55 -121.55 29.35 -121.55 32.15" fill="#ffd633" fill-rule="evenodd" stroke="none"/>
      <path d="M-117.85 10.65 Q-117.85 11.2 -119.6 12.2 -121.25 13.15 -121.65 13.15 -122.25 13.15 -122.3 12.1 L-122.25 10.55 Q-122.25 9.9 -120.8 9.9 -117.85 9.9 -117.85 10.65 M-118.45 15.4 Q-118.45 15.8 -119.0 16.3 -119.65 16.9 -120.4 16.9 -121.1 16.9 -121.1 16.4 -121.1 15.45 -119.75 15.05 -118.45 14.65 -118.45 15.4 M-120.25 20.5 Q-120.75 20.5 -120.75 20.05 -120.75 19.4 -119.95 18.85 -119.2 18.3 -119.2 19.25 L-119.45 20.0 -120.25 20.5 M-119.2 22.35 L-119.5 23.0 Q-119.8 23.4 -120.2 23.4 -120.65 23.4 -120.65 23.05 L-120.35 22.45 -119.65 22.0 Q-119.2 22.0 -119.2 22.35" fill="#ffd633" fill-opacity="0.4" fill-rule="evenodd" stroke="none"/>
    </g>
  </defs>
</svg>
