<?xml version="1.0" encoding="UTF-8" standalone="no"?>
<svg xmlns:xlink="http://www.w3.org/1999/xlink" height="27.6px" width="20.5px" xmlns="http://www.w3.org/2000/svg">
  <g transform="matrix(1.0, 0.0, 0.0, 1.0, 10.25, 13.8)">
    <use height="27.6" transform="matrix(1.0, 0.0, 0.0, 1.0, -10.25, -13.8)" width="20.5" xlink:href="#shape0"/>
  </g>
  <defs>
    <g id="shape0" transform="matrix(1.0, 0.0, 0.0, 1.0, 10.25, 13.8)">
      <path d="M1.1 -10.1 Q1.3 -12.35 1.6 -13.0 1.6 -13.3 1.95 -13.8 4.4 -12.3 7.35 -9.55 9.1 -7.95 10.25 -5.6 L10.1 -4.8 10.05 -4.6 8.9 -4.3 7.7 -4.15 6.45 -4.25 5.95 -4.5 6.05 -5.75 Q5.95 -5.7 4.05 -7.45 L1.15 -10.05 1.1 -10.1 M-0.8 -1.45 Q-1.3 -1.1 -2.05 -0.85 L-3.7 -0.5 -5.85 -0.9 -6.6 -1.15 -6.85 -1.5 -7.1 -2.0 -7.2 -2.25 -7.15 -2.6 Q-7.1 -4.1 -5.45 -7.8 L-3.65 -11.55 -3.7 -11.6 -2.2 -10.65 -0.8 -9.65 -0.95 -8.4 -1.3 -5.65 -1.4 -5.05 -1.6 -3.9 -1.55 -2.4 -0.8 -1.45 M0.4 6.5 Q0.9 5.25 2.6 4.15 4.1 3.2 4.95 3.2 L7.2 3.8 8.7 4.35 Q8.7 5.5 9.35 7.45 L9.95 9.75 Q10.1 11.3 8.85 12.55 7.75 13.65 6.4 13.8 L6.0 13.8 5.5 13.8 3.8 13.45 3.2 12.9 3.15 12.85 2.95 12.6 2.5 11.5 1.35 8.55 0.6 6.9 0.4 6.5" fill="#ffffff" fill-rule="evenodd" stroke="none"/>
      <path d="M1.95 -13.8 Q1.6 -13.3 1.6 -13.0 1.3 -12.35 1.1 -10.1 L1.1 -10.05 1.15 -10.05 4.05 -7.45 Q5.95 -5.7 6.05 -5.75 L5.95 -4.5 6.45 -4.25 7.7 -4.15 8.9 -4.3 10.05 -4.6 9.45 -1.8 Q8.7 3.25 8.7 4.35 L7.2 3.8 4.95 3.2 Q4.1 3.2 2.6 4.15 0.9 5.25 0.4 6.5 L0.1 6.1 -1.0 5.1 -2.7 3.0 -5.2 0.35 -6.6 -1.15 -5.2 0.35 -2.7 3.0 -1.0 5.1 0.1 6.1 0.4 6.5 0.6 6.9 1.35 8.55 2.5 11.5 2.95 12.6 3.15 12.85 3.2 12.9 3.8 13.45 5.5 13.8 1.7 13.8 Q-1.25 10.0 -2.05 8.3 L-1.05 7.7 0.6 6.9 -1.05 7.7 -2.05 8.3 -10.25 -0.3 Q-9.75 -3.8 -7.75 -8.5 -5.85 -10.4 -3.65 -11.55 L-5.45 -7.8 Q-7.1 -4.1 -7.15 -2.6 L-7.2 -2.25 -7.1 -2.0 -6.85 -1.5 -6.6 -1.15 -5.85 -0.9 -3.7 -0.5 -2.05 -0.85 Q-1.3 -1.1 -0.8 -1.45 L-1.55 -2.4 -1.6 -3.9 -1.4 -5.05 -1.3 -5.65 -0.95 -8.4 -0.8 -9.65 -0.8 -12.25 Q0.9 -13.0 1.95 -13.8 M1.1 -10.05 L-0.8 -9.65 1.1 -10.05 M-0.8 -1.45 L2.55 1.4 3.9 2.4 Q4.25 2.4 4.8 0.6 L5.4 -1.5 5.4 -1.6 5.85 -3.75 5.95 -4.5 5.85 -3.75 5.4 -1.6 5.4 -1.5 4.8 0.6 Q4.25 2.4 3.9 2.4 L2.55 1.4 -0.8 -1.45 M-7.1 -2.0 L-10.25 -0.3 -7.1 -2.0" fill="#d6baba" fill-rule="evenodd" stroke="none"/>
      <path d="M1.95 -13.8 Q1.6 -13.3 1.6 -13.0 1.3 -12.35 1.1 -10.1 L1.15 -10.05 4.05 -7.45 Q5.95 -5.7 6.05 -5.75 L5.95 -4.5 5.85 -3.75 5.4 -1.6 5.4 -1.5 4.8 0.6 Q4.25 2.4 3.9 2.4 L2.55 1.4 -0.8 -1.45 -1.55 -2.4 -1.6 -3.9 -1.4 -5.05 -1.3 -5.65 -0.95 -8.4 -0.8 -9.65 1.1 -10.05 1.15 -10.05 M10.1 -4.8 L10.25 -5.6 Q9.1 -7.95 7.35 -9.55 4.4 -12.3 1.95 -13.8 0.9 -13.0 -0.8 -12.25 L-0.8 -9.65 -2.2 -10.65 -3.7 -11.6 -3.65 -11.55 -5.45 -7.8 Q-7.1 -4.1 -7.15 -2.6 L-7.2 -2.25 -7.1 -2.0 -6.85 -1.5 M-6.6 -1.15 L-5.2 0.35 -2.7 3.0 -1.0 5.1 0.1 6.1 0.4 6.5 M8.7 4.35 Q8.7 3.25 9.45 -1.8 L10.05 -4.6 M0.6 6.9 L0.4 6.5 M5.5 13.8 L3.8 13.45 3.2 12.9 3.15 12.85 2.95 12.6 2.5 11.5 1.35 8.55 0.6 6.9 -1.05 7.7 -2.05 8.3 Q-1.25 10.0 1.7 13.8 L5.5 13.8 6.0 13.8 6.4 13.8 Q7.75 13.65 8.85 12.55 10.1 11.3 9.95 9.75 L9.35 7.45 Q8.7 5.5 8.7 4.35 M-3.65 -11.55 Q-5.85 -10.4 -7.75 -8.5 -9.75 -3.8 -10.25 -0.3 L-7.1 -2.0 M-10.25 -0.3 L-2.05 8.3" fill="none" stroke="#000000" stroke-linecap="round" stroke-linejoin="round" stroke-opacity="0.3019608" stroke-width="0.05"/>
    </g>
  </defs>
</svg>
