<?xml version="1.0" encoding="UTF-8" standalone="no"?>
<svg xmlns:xlink="http://www.w3.org/1999/xlink" height="26.65px" width="25.8px" xmlns="http://www.w3.org/2000/svg">
  <g transform="matrix(1.0, 0.0, 0.0, 1.0, 12.9, 13.3)">
    <use height="26.65" transform="matrix(1.0, 0.0, 0.0, 1.0, -12.9, -13.3)" width="25.8" xlink:href="#shape0"/>
  </g>
  <defs>
    <g id="shape0" transform="matrix(1.0, 0.0, 0.0, 1.0, 12.9, 13.3)">
      <path d="M12.75 12.6 L12.65 13.35 Q10.9 10.7 8.05 9.95 L-0.4 7.35 Q-5.45 5.8 -9.9 2.9 -13.45 0.5 -12.8 -3.65 -12.0 -8.75 -8.5 -12.5 L-5.25 -13.3 Q-1.4 -12.9 2.05 -11.15 6.55 -8.95 9.7 -5.1 12.1 -2.25 12.25 1.45 L12.55 5.55 Q11.45 4.5 9.65 3.4 5.05 0.65 5.05 2.4 5.05 2.65 9.4 7.7 L11.3 10.55 12.75 12.6" fill="#d6baba" fill-rule="evenodd" stroke="none"/>
      <path d="M12.55 5.55 L12.9 11.55 12.8 12.25 12.75 12.6 11.3 10.55 9.4 7.7 Q5.05 2.65 5.05 2.4 5.05 0.65 9.65 3.4 11.45 4.5 12.55 5.55" fill="#ffffff" fill-rule="evenodd" stroke="none"/>
      <path d="M12.75 12.6 L12.65 13.35 Q10.9 10.7 8.05 9.95 L-0.4 7.35 Q-5.45 5.8 -9.9 2.9 -13.45 0.5 -12.8 -3.65 -12.0 -8.75 -8.5 -12.5 L-5.25 -13.3 Q-1.4 -12.9 2.05 -11.15 6.55 -8.95 9.7 -5.1 12.1 -2.25 12.25 1.45 L12.55 5.55 12.9 11.55 12.8 12.25" fill="none" stroke="#000000" stroke-linecap="round" stroke-linejoin="round" stroke-opacity="0.3019608" stroke-width="0.05"/>
    </g>
  </defs>
</svg>
