<?xml version="1.0" encoding="UTF-8" standalone="no"?>
<svg xmlns:xlink="http://www.w3.org/1999/xlink" height="37.6px" width="26.2px" xmlns="http://www.w3.org/2000/svg">
  <g transform="matrix(1.0, 0.0, 0.0, 1.0, 13.1, 18.8)">
    <use height="37.6" transform="matrix(1.0, 0.0, 0.0, 1.0, -13.1, -18.8)" width="26.2" xlink:href="#shape0"/>
  </g>
  <defs>
    <g id="shape0" transform="matrix(1.0, 0.0, 0.0, 1.0, 13.1, 18.8)">
      <path d="M3.1 -17.0 L3.3 -17.25 4.25 -16.95 4.65 -18.45 Q6.25 -18.0 7.5 -16.9 L13.1 -11.95 12.8 -8.5 10.6 -0.45 Q8.6 6.15 9.45 8.6 L10.7 12.2 11.25 13.6 11.4 13.9 11.55 14.15 11.7 14.65 11.85 15.1 Q11.85 16.25 9.0 18.8 L8.4 18.65 8.1 18.2 7.95 18.0 7.8 17.8 3.35 13.55 2.9 13.1 Q2.4 12.7 2.4 12.5 L2.1 12.15 1.8 11.9 1.65 11.75 1.5 11.6 Q1.5 11.25 0.1 10.85 L-1.8 10.55 -4.5 10.15 Q-5.35 10.15 -7.4 10.85 L-8.95 11.5 -10.5 12.1 -10.7 12.25 -10.95 12.4 Q-12.05 12.4 -12.05 11.5 L-12.5 10.3 Q-11.8 9.7 -7.95 8.3 L-4.15 7.0 -3.3 6.75 0.35 7.55 Q3.65 8.35 3.65 8.7 L4.75 10.15 Q5.9 6.9 5.9 6.1 5.9 5.55 3.25 3.75 L1.2 2.35 Q2.1 -1.45 2.1 -6.05 L2.25 -6.9 2.8 -12.3 3.15 -14.5 3.3 -16.15 3.1 -17.0 M8.7 -11.6 L9.75 -11.1 10.3 -10.7 9.9 -8.4 8.6 -3.5 Q6.5 4.6 6.25 4.65 L5.55 4.5 Q5.2 4.35 5.2 4.1 L8.7 -11.6 5.2 4.1 Q5.2 4.35 5.55 4.5 L6.25 4.65 Q6.5 4.6 8.6 -3.5 L9.9 -8.4 10.3 -10.7 9.75 -11.1 8.7 -11.6 M10.45 16.95 Q10.45 16.55 7.05 12.75 L4.75 10.15 7.05 12.75 Q10.45 16.55 10.45 16.95 M-4.9 -15.15 L-4.45 -15.45 -4.25 -15.05 -3.3 -13.15 -3.55 1.3 -4.45 2.35 -4.85 2.15 -5.55 -8.8 -4.9 -15.15 M-4.25 -15.05 L-4.45 2.35 -4.25 -15.05" fill="#a78383" fill-rule="evenodd" stroke="none"/>
      <path d="M4.65 -18.45 L4.25 -16.95 3.3 -17.25 3.1 -17.0 3.3 -16.15 3.15 -14.5 2.8 -12.3 2.25 -6.9 2.1 -6.05 Q2.1 -1.45 1.2 2.35 L3.25 3.75 Q5.9 5.55 5.9 6.1 5.9 6.9 4.75 10.15 L3.65 8.7 Q3.65 8.35 0.35 7.55 L-3.3 6.75 -4.15 7.0 -7.95 8.3 Q-11.8 9.7 -12.5 10.3 L-13.1 8.45 Q-13.1 7.7 -11.25 5.75 L-11.2 5.7 -8.5 3.35 Q-7.5 -3.0 -8.75 -9.5 -10.0 -16.05 -3.0 -18.0 1.55 -19.3 4.65 -18.45 M1.2 2.35 L0.95 3.2 0.4 3.0 Q-0.25 3.0 -0.45 2.65 L-0.55 1.7 -0.25 -2.6 0.45 -8.7 1.75 -17.35 3.1 -17.0 1.75 -17.35 0.45 -8.7 -0.25 -2.6 -0.55 1.7 -0.45 2.65 Q-0.25 3.0 0.4 3.0 L0.95 3.2 1.2 2.35 M-4.45 -15.45 L-4.9 -15.15 Q-6.3 -14.55 -6.3 -13.65 L-6.6 -10.8 -6.35 -5.55 Q-6.35 -2.15 -5.65 2.7 -4.75 2.15 -4.55 2.35 L-4.45 2.35 -4.55 2.35 Q-4.75 2.15 -5.65 2.7 -6.35 -2.15 -6.35 -5.55 L-6.6 -10.8 -6.3 -13.65 Q-6.3 -14.55 -4.9 -15.15 L-5.55 -8.8 -4.85 2.15 -4.45 2.35 -3.55 1.3 -3.3 -13.15 -4.25 -15.05 -4.45 -15.45" fill="#d6baba" fill-rule="evenodd" stroke="none"/>
      <path d="M3.1 -17.0 L3.3 -16.15 3.15 -14.5 2.8 -12.3 2.25 -6.9 2.1 -6.05 Q2.1 -1.45 1.2 2.35 M4.75 10.15 L7.05 12.75 Q10.45 16.55 10.45 16.95 M8.7 -11.6 L5.2 4.1 Q5.2 4.35 5.55 4.5 L6.25 4.65 Q6.5 4.6 8.6 -3.5 L9.9 -8.4 10.3 -10.7 9.75 -11.1 8.7 -11.6 M4.65 -18.45 Q6.25 -18.0 7.5 -16.9 L13.1 -11.95 12.8 -8.5 10.6 -0.45 Q8.6 6.15 9.45 8.6 L10.7 12.2 11.25 13.6 11.4 13.9 11.55 14.15 11.7 14.65 11.85 15.1 Q11.85 16.25 9.0 18.8 L8.4 18.65 8.1 18.2 7.95 18.0 7.8 17.8 3.35 13.55 2.9 13.1 Q2.4 12.7 2.4 12.5 L2.1 12.15 1.8 11.9 1.65 11.75 1.5 11.6 Q1.5 11.25 0.1 10.85 L-1.8 10.55 -4.5 10.15 Q-5.35 10.15 -7.4 10.85 L-8.95 11.5 -10.5 12.1 -10.7 12.25 -10.95 12.4 Q-12.05 12.4 -12.05 11.5 L-12.5 10.3 -13.1 8.45 Q-13.1 7.7 -11.25 5.75 L-11.2 5.7 -8.5 3.35 Q-7.5 -3.0 -8.75 -9.5 -10.0 -16.05 -3.0 -18.0 1.55 -19.3 4.65 -18.45 M4.75 10.15 L3.65 8.7 Q3.65 8.35 0.35 7.55 L-3.3 6.75 -4.15 7.0 -7.95 8.3 Q-11.8 9.7 -12.5 10.3 M3.1 -17.0 L1.75 -17.35 0.45 -8.7 -0.25 -2.6 -0.55 1.7 -0.45 2.65 Q-0.25 3.0 0.4 3.0 L0.95 3.2 1.2 2.35 M-4.9 -15.15 L-4.45 -15.45 M-4.45 2.35 L-4.55 2.35 Q-4.75 2.15 -5.65 2.7 -6.35 -2.15 -6.35 -5.55 L-6.6 -10.8 -6.3 -13.65 Q-6.3 -14.55 -4.9 -15.15 M-4.45 2.35 L-4.25 -15.05" fill="none" stroke="#000000" stroke-linecap="round" stroke-linejoin="round" stroke-opacity="0.3019608" stroke-width="0.05"/>
    </g>
  </defs>
</svg>
