<?xml version="1.0" encoding="UTF-8" standalone="no"?>
<svg xmlns:xlink="http://www.w3.org/1999/xlink" height="26.2px" width="60.6px" xmlns="http://www.w3.org/2000/svg">
  <g transform="matrix(1.0, 0.0, 0.0, 1.0, 27.65, 12.45)">
    <use height="24.95" transform="matrix(1.0, 0.0, 0.0, 1.0, -26.4, -11.8)" width="59.35" xlink:href="#shape0"/>
    <use height="83.1" transform="matrix(-0.135, 0.539, -0.539, -0.135, 20.8748, -1.2467)" width="27.85" xlink:href="#sprite0"/>
  </g>
  <defs>
    <g id="shape0" transform="matrix(1.0, 0.0, 0.0, 1.0, 26.4, 11.8)">
      <path d="M-1.45 -9.3 L1.05 -9.0 Q3.1 -9.25 4.1 -11.8 L4.2 -11.7 4.55 -10.55 4.6 -9.05 3.85 -7.65 3.75 -7.7 2.65 -8.15 0.65 -8.0 -2.0 -7.9 -3.2 -8.1 -4.3 -8.05 -4.85 -8.05 -5.45 -7.95 -5.85 -7.55 -6.1 -7.15 Q-6.45 -6.9 -6.8 -6.9 L-6.9 -6.4 -6.8 -4.8 -6.55 -3.65 -6.8 -3.6 Q-7.3 -3.7 -7.65 -4.75 -7.95 -5.8 -7.75 -6.65 -7.2 -8.85 -5.15 -9.15 L-1.65 -9.25 -1.45 -9.3 M-4.15 -2.45 Q-3.35 -1.95 -2.4 -1.65 L2.8 -0.3 5.95 0.6 15.9 3.3 Q23.7 5.35 32.95 8.65 L32.6 8.65 32.5 8.65 29.85 8.4 29.55 8.4 29.4 8.35 29.35 8.35 28.45 8.05 26.1 7.2 22.05 5.95 17.75 4.8 13.45 3.75 11.25 3.35 Q10.65 3.05 9.95 2.9 L8.0 2.3 4.45 1.3 -0.45 -0.15 -1.65 -0.2 -3.5 -0.7 Q-4.45 -0.95 -5.95 -0.7 L-7.4 -0.45 -8.3 -1.35 -8.85 -2.45 -7.65 -3.1 -5.8 -2.1 -5.05 -2.1 -4.15 -2.2 -4.2 -2.35 -4.15 -2.45 M-8.7 5.05 L-8.65 5.1 -7.9 5.75 -7.85 5.75 Q-7.15 6.2 -4.55 6.85 -2.2 7.55 -1.35 8.15 0.0 9.2 -0.45 11.0 -0.6 11.7 -1.15 12.3 L-1.25 12.4 -1.45 11.55 Q-1.75 10.2 -3.05 9.25 -4.35 8.3 -5.65 7.7 -6.55 7.2 -8.3 6.6 L-9.4 5.4 Q-10.2 4.2 -9.95 3.15 -9.7 2.15 -9.05 2.1 -8.7 2.15 -8.8 2.5 L-9.1 3.3 Q-9.35 4.4 -8.7 5.05 M-23.5 -7.85 Q-22.35 -7.6 -23.0 -6.6 -23.6 -5.55 -24.05 -5.65 -24.45 -5.75 -24.4 -6.1 L-24.15 -7.5 -23.7 -7.9 -23.5 -7.85" fill="#ffffff" fill-rule="evenodd" stroke="none"/>
      <path d="M-1.45 -9.3 L-1.65 -9.25 -5.15 -9.15 Q-7.2 -8.85 -7.75 -6.65 -7.95 -5.8 -7.65 -4.75 -7.3 -3.7 -6.8 -3.6 L-6.55 -3.65 -6.8 -4.8 -6.9 -6.4 -6.8 -6.9 Q-6.45 -6.9 -6.1 -7.15 L-6.4 -6.5 Q-6.8 -4.75 -5.15 -3.2 L-4.15 -2.45 -4.2 -2.35 -4.15 -2.2 -5.05 -2.1 -5.8 -2.1 -7.65 -3.1 -8.85 -2.45 -8.3 -1.35 -7.4 -0.45 -5.95 -0.7 Q-4.45 -0.95 -3.5 -0.7 L-1.65 -0.2 -0.45 -0.15 4.45 1.3 8.0 2.3 9.95 2.9 Q10.65 3.05 11.25 3.35 L13.45 3.75 17.75 4.8 22.05 5.95 26.1 7.2 28.45 8.05 29.35 8.35 17.6 6.15 5.5 3.3 2.1 2.4 -3.1 1.15 -6.25 1.3 Q-8.45 1.8 -8.9 3.55 -9.15 4.4 -8.7 5.05 -9.35 4.4 -9.1 3.3 L-8.8 2.5 Q-8.7 2.15 -9.05 2.1 -9.7 2.15 -9.95 3.15 -10.2 4.2 -9.4 5.4 L-8.3 6.6 Q-6.55 7.2 -5.65 7.7 -4.35 8.3 -3.05 9.25 -1.75 10.2 -1.45 11.55 L-1.25 12.4 -2.0 13.15 -2.15 13.15 Q-1.85 10.4 -3.55 9.25 -4.5 8.55 -7.35 7.95 -10.1 7.35 -10.95 6.6 -12.4 5.35 -11.7 2.5 L-11.15 1.15 -10.7 0.05 -10.9 -0.3 -10.4 -1.4 -10.1 -2.05 -9.85 -2.7 Q-9.6 -3.6 -9.7 -4.1 L-9.6 -4.25 -9.5 -5.4 -9.3 -6.9 Q-8.6 -9.7 -6.8 -10.15 L-2.9 -9.7 -1.45 -9.3 M-5.85 -7.55 L-5.45 -7.95 -4.85 -8.05 -4.3 -8.05 -3.2 -8.1 -2.0 -7.9 0.65 -8.0 2.65 -8.15 3.75 -7.7 3.85 -7.65 Q3.3 -7.1 2.45 -6.95 L-1.05 -7.35 -4.4 -7.95 Q-5.3 -7.95 -5.85 -7.55 M-22.7 -3.25 L-23.4 -3.0 Q-24.1 -2.4 -25.45 -2.65 -26.25 -2.8 -26.4 -3.6 L-26.25 -4.9 -25.8 -6.05 -25.65 -7.2 -25.15 -8.45 Q-24.7 -9.1 -23.9 -8.8 -22.6 -8.5 -22.25 -7.6 L-21.95 -7.15 -22.35 -6.1 -22.4 -5.65 -22.75 -3.7 -22.7 -3.25 M-23.5 -7.85 L-23.7 -7.9 -24.15 -7.5 -24.4 -6.1 Q-24.45 -5.75 -24.05 -5.65 -23.6 -5.55 -23.0 -6.6 -22.35 -7.6 -23.5 -7.85" fill="#9ea4ad" fill-rule="evenodd" stroke="none"/>
      <path d="M-10.9 -0.25 L-10.9 -0.05 -11.1 -0.1 -10.9 -0.25 M-20.65 -2.85 L-20.85 -2.65 -20.8 -3.05 -20.65 -2.85 M-21.95 -7.15 Q-21.55 -7.9 -21.05 -7.75 L-20.3 -7.1 Q-19.9 -7.6 -19.35 -7.45 L-18.75 -6.95 -18.25 -6.2 Q-17.75 -6.9 -17.15 -6.8 L-16.15 -5.7 Q-15.75 -6.65 -15.15 -6.5 L-14.55 -6.1 -14.1 -5.4 Q-13.55 -6.0 -12.95 -5.85 -12.75 -5.8 -12.25 -5.35 L-11.55 -4.65 Q-11.0 -5.15 -10.4 -5.0 -9.8 -4.85 -9.7 -4.1 -9.6 -3.6 -9.85 -2.7 L-10.1 -2.05 -10.5 -2.0 -11.4 -1.85 -11.9 -2.35 Q-12.25 -2.85 -12.55 -2.9 L-11.85 -4.25 -11.55 -4.65 -11.85 -4.25 -12.55 -2.9 -12.6 -2.6 -13.05 -3.0 -14.5 -4.0 -14.7 -4.05 -14.75 -3.85 -14.95 -3.9 -16.8 -3.9 -16.65 -4.35 -16.4 -5.15 -16.35 -5.3 -16.15 -5.7 -16.35 -5.3 -16.4 -5.15 -16.65 -4.35 -17.25 -4.15 Q-17.7 -3.85 -17.9 -3.9 L-18.25 -4.6 -18.75 -5.3 -18.8 -5.3 -19.0 -5.1 -19.4 -4.9 -19.9 -4.45 -20.3 -5.25 -20.75 -5.65 -20.8 -5.65 -20.6 -6.35 -20.4 -6.95 -20.3 -7.1 -20.4 -6.95 -20.6 -6.35 -20.8 -5.65 -20.9 -5.3 -20.95 -5.3 -21.45 -4.6 -21.5 -4.65 -22.0 -5.25 -22.4 -5.65 -22.35 -6.1 -21.95 -7.15 M-20.75 -6.8 L-21.15 -6.7 -21.1 -6.5 -21.0 -6.45 Q-20.85 -6.4 -20.75 -6.8 M-18.25 -6.2 L-18.4 -6.1 -18.6 -5.7 -18.8 -5.3 -18.6 -5.7 -18.4 -6.1 -18.25 -6.2 M-19.25 -6.5 L-19.4 -6.55 -19.5 -6.35 Q-19.6 -5.9 -19.25 -5.85 -18.95 -6.4 -19.25 -6.5 M-14.1 -5.4 L-14.45 -4.85 -14.45 -4.75 -14.7 -4.05 -14.45 -4.75 -14.45 -4.85 -14.1 -5.4 M-17.45 -6.0 L-17.45 -5.4 -17.2 -5.15 Q-16.8 -5.05 -16.8 -5.5 -16.75 -6.05 -17.2 -6.1 L-17.45 -6.0 M-15.4 -5.55 L-15.4 -5.45 Q-15.5 -5.1 -15.25 -5.0 L-15.15 -5.0 -15.15 -5.25 -15.35 -5.5 -15.4 -5.55 M-13.15 -5.15 L-13.45 -4.8 Q-13.65 -4.1 -13.3 -4.0 -12.9 -3.9 -12.9 -4.45 -12.95 -5.1 -13.15 -5.15 M-11.25 -3.65 L-11.1 -3.5 -10.8 -3.7 Q-10.7 -4.05 -10.9 -4.1 L-11.25 -3.65" fill="#990000" fill-rule="evenodd" stroke="none"/>
      <path d="M-10.9 -0.3 L-10.9 -0.25 -11.1 -0.1 -11.45 -0.1 -11.7 0.0 -12.2 0.15 Q-12.85 0.0 -13.0 -0.45 L-13.0 -0.85 -13.4 -0.45 -14.05 -0.35 Q-14.6 -0.5 -14.95 -1.2 L-15.05 -1.5 -15.7 -1.25 -16.2 -1.25 Q-16.7 -1.4 -16.95 -2.1 L-17.85 -1.7 -18.35 -1.65 Q-18.8 -1.75 -19.05 -2.45 L-19.3 -2.15 -19.9 -2.1 Q-20.35 -2.2 -20.65 -2.85 L-20.8 -3.05 -20.85 -2.65 -21.3 -2.35 -21.55 -2.2 -21.55 -2.25 -21.65 -2.2 -21.7 -2.2 Q-22.55 -2.45 -22.7 -3.25 L-22.75 -3.7 -22.4 -5.65 -22.0 -5.25 -21.5 -4.65 -21.45 -4.6 -20.95 -5.3 -20.9 -5.3 -20.8 -5.65 -20.75 -5.65 -20.3 -5.25 -19.9 -4.45 -19.4 -4.9 -19.0 -5.1 -18.8 -5.3 -18.75 -5.3 -18.25 -4.6 -17.9 -3.9 Q-17.7 -3.85 -17.25 -4.15 L-16.65 -4.35 -16.8 -3.9 -14.95 -3.9 -14.75 -3.85 -14.7 -4.05 -14.5 -4.0 -13.05 -3.0 -12.6 -2.6 -12.55 -2.9 Q-12.25 -2.85 -11.9 -2.35 L-11.4 -1.85 -10.5 -2.0 -10.1 -2.05 -10.4 -1.4 -10.9 -0.3 M-20.9 -5.3 L-20.95 -5.1 -21.0 -3.65 -21.0 -3.55 -20.95 -3.45 -21.0 -3.4 -20.9 -3.15 -20.8 -3.05 -20.9 -3.15 -21.0 -3.4 -20.95 -3.45 -21.0 -3.55 -21.0 -3.65 -20.95 -5.1 -20.9 -5.3 M-16.95 -2.1 L-17.0 -2.3 -16.9 -3.45 -16.8 -3.9 -16.9 -3.45 -17.0 -2.3 -16.95 -2.1 M-19.1 -4.65 Q-19.3 -3.75 -19.1 -2.8 L-19.1 -2.5 -19.05 -2.45 -19.1 -2.5 -19.1 -2.8 Q-19.3 -3.75 -19.1 -4.65 M-12.6 -2.6 L-12.9 -1.7 -13.0 -1.1 -13.0 -0.85 -13.0 -1.1 -12.9 -1.7 -12.6 -2.6 M-14.75 -3.85 L-14.85 -3.55 -15.05 -2.8 -15.1 -1.75 -15.05 -1.5 -15.1 -1.75 -15.05 -2.8 -14.85 -3.55 -14.75 -3.85" fill="#5c0101" fill-rule="evenodd" stroke="none"/>
      <path d="M-20.75 -6.8 Q-20.85 -6.4 -21.0 -6.45 L-21.1 -6.5 -21.15 -6.7 -20.75 -6.8 M-19.25 -6.5 Q-18.95 -6.4 -19.25 -5.85 -19.6 -5.9 -19.5 -6.35 L-19.4 -6.55 -19.25 -6.5 M-15.4 -5.55 L-15.35 -5.5 -15.15 -5.25 -15.15 -5.0 -15.25 -5.0 Q-15.5 -5.1 -15.4 -5.45 L-15.4 -5.55 M-17.45 -6.0 L-17.2 -6.1 Q-16.75 -6.05 -16.8 -5.5 -16.8 -5.05 -17.2 -5.15 L-17.45 -5.4 -17.45 -6.0 M-11.25 -3.65 L-10.9 -4.1 Q-10.7 -4.05 -10.8 -3.7 L-11.1 -3.5 -11.25 -3.65 M-13.15 -5.15 Q-12.95 -5.1 -12.9 -4.45 -12.9 -3.9 -13.3 -4.0 -13.65 -4.1 -13.45 -4.8 L-13.15 -5.15" fill="#ffffff" fill-opacity="0.4" fill-rule="evenodd" stroke="none"/>
      <path d="M3.85 -7.65 L4.6 -9.05 4.55 -10.55 4.2 -11.7 4.1 -11.8 Q3.1 -9.25 1.05 -9.0 L-1.45 -9.3 M-6.1 -7.15 L-5.85 -7.55 M3.85 -7.65 Q3.3 -7.1 2.45 -6.95 L-1.05 -7.35 -4.4 -7.95 Q-5.3 -7.95 -5.85 -7.55 M29.55 8.4 L29.85 8.4 32.5 8.65 32.6 8.65 32.95 8.65 Q23.7 5.35 15.9 3.3 L5.95 0.6 2.8 -0.3 -2.4 -1.65 Q-3.35 -1.95 -4.15 -2.45 L-5.15 -3.2 Q-6.8 -4.75 -6.4 -6.5 L-6.1 -7.15 M29.55 8.4 L29.35 8.35 17.6 6.15 5.5 3.3 2.1 2.4 -3.1 1.15 -6.25 1.3 Q-8.45 1.8 -8.9 3.55 -9.15 4.4 -8.7 5.05 M-8.65 5.1 L-7.9 5.75 -7.85 5.75 Q-7.15 6.2 -4.55 6.85 -2.2 7.55 -1.35 8.15 0.0 9.2 -0.45 11.0 -0.6 11.7 -1.15 12.3 L-1.25 12.4 -2.0 13.15 -2.15 13.15 Q-1.85 10.4 -3.55 9.25 -4.5 8.55 -7.35 7.95 -10.1 7.35 -10.95 6.6 -12.4 5.35 -11.7 2.5 L-11.15 1.15 -10.7 0.05 -10.9 -0.3 -10.9 -0.25 -10.9 -0.05 -11.1 -0.1 -11.45 -0.1 -11.7 0.0 -12.2 0.15 Q-12.85 0.0 -13.0 -0.45 L-13.0 -0.85 -13.4 -0.45 -14.05 -0.35 Q-14.6 -0.5 -14.95 -1.2 L-15.05 -1.5 -15.7 -1.25 -16.2 -1.25 Q-16.7 -1.4 -16.95 -2.1 L-17.85 -1.7 -18.35 -1.65 Q-18.8 -1.75 -19.05 -2.45 L-19.3 -2.15 -19.9 -2.1 Q-20.35 -2.2 -20.65 -2.85 L-20.85 -2.65 -21.3 -2.35 -21.55 -2.2 -21.55 -2.25 -21.65 -2.2 -21.7 -2.2 Q-22.55 -2.45 -22.7 -3.25 L-23.4 -3.0 Q-24.1 -2.4 -25.45 -2.65 -26.25 -2.8 -26.4 -3.6 L-26.25 -4.9 -25.8 -6.05 -25.65 -7.2 -25.15 -8.45 Q-24.7 -9.1 -23.9 -8.8 -22.6 -8.5 -22.25 -7.6 L-21.95 -7.15 Q-21.55 -7.9 -21.05 -7.75 L-20.3 -7.1 Q-19.9 -7.6 -19.35 -7.45 L-18.75 -6.95 -18.25 -6.2 Q-17.75 -6.9 -17.15 -6.8 L-16.15 -5.7 Q-15.75 -6.65 -15.15 -6.5 L-14.55 -6.1 -14.1 -5.4 Q-13.55 -6.0 -12.95 -5.85 -12.75 -5.8 -12.25 -5.35 L-11.55 -4.65 Q-11.0 -5.15 -10.4 -5.0 -9.8 -4.85 -9.7 -4.1 L-9.6 -4.25 -9.5 -5.4 -9.3 -6.9 Q-8.6 -9.7 -6.8 -10.15 L-2.9 -9.7 -1.45 -9.3 M-20.3 -7.1 L-20.4 -6.95 -20.6 -6.35 -20.8 -5.65 M-19.0 -5.1 L-18.8 -5.3 -18.6 -5.7 -18.4 -6.1 -18.25 -6.2 M-20.8 -3.05 L-20.9 -3.15 -21.0 -3.4 -20.95 -3.45 -21.0 -3.55 -21.0 -3.65 -20.95 -5.1 -20.9 -5.3 -20.8 -5.65 M-22.4 -5.65 L-22.75 -3.7 -22.7 -3.25 M-22.4 -5.65 L-22.35 -6.1 -21.95 -7.15 M-20.65 -2.85 L-20.8 -3.05 M-16.15 -5.7 L-16.35 -5.3 -16.4 -5.15 -16.65 -4.35 -16.8 -3.9 -16.9 -3.45 -17.0 -2.3 -16.95 -2.1 M-14.75 -3.85 L-14.7 -4.05 -14.45 -4.75 -14.45 -4.85 -14.1 -5.4 M-19.05 -2.45 L-19.1 -2.5 -19.1 -2.8 Q-19.3 -3.75 -19.1 -4.65 M-11.55 -4.65 L-11.85 -4.25 -12.55 -2.9 M-10.1 -2.05 L-9.85 -2.7 Q-9.6 -3.6 -9.7 -4.1 M-12.6 -2.6 L-12.55 -2.9 M-15.05 -1.5 L-15.1 -1.75 -15.05 -2.8 -14.85 -3.55 -14.75 -3.85 M-13.0 -0.85 L-13.0 -1.1 -12.9 -1.7 -12.6 -2.6 M-10.9 -0.3 L-10.4 -1.4 -10.1 -2.05" fill="none" stroke="#000000" stroke-linecap="round" stroke-linejoin="round" stroke-opacity="0.4" stroke-width="0.05"/>
    </g>
    <g id="sprite0" transform="matrix(1.0, 0.0, 0.0, 1.0, -96.15, 59.85)">
      <use height="83.1" transform="matrix(1.0, 0.0, 0.0, 1.0, 96.15, -59.85)" width="27.85" xlink:href="#shape1"/>
    </g>
    <g id="shape1" transform="matrix(1.0, 0.0, 0.0, 1.0, -96.15, 59.85)">
      <path d="M109.6 -55.25 L109.35 -57.3 109.4 -59.85 109.55 -59.85 Q109.55 -58.1 110.0 -54.5 L110.45 -49.2 110.4 -40.95 110.15 -32.75 Q110.15 -19.4 110.5 -17.05 112.1 -6.9 118.95 -6.9 120.55 -6.9 122.3 -8.95 123.75 -10.6 123.9 -11.45 L124.0 -11.5 124.0 -11.45 Q123.95 -9.7 122.35 -7.5 120.75 -5.35 118.3 -5.45 L114.4 -5.8 111.4 -6.0 Q110.1 -6.0 110.1 -6.7 L110.85 -7.95 111.6 -9.15 110.35 -12.7 Q109.1 -16.05 109.2 -17.7 L108.8 -26.1 Q108.8 -30.75 108.95 -33.1 L109.2 -38.7 109.5 -45.75 109.75 -51.7 109.6 -55.25 M97.4 -5.7 L96.15 -6.6 97.7 -6.4 100.7 -6.8 102.8 -7.6 Q104.1 -7.95 104.1 -7.1 104.1 -6.4 102.65 -5.8 101.25 -5.25 99.65 -5.25 98.1 -5.25 97.4 -5.7 M110.75 -2.65 L111.0 -3.2 Q111.3 -3.6 111.9 -3.6 112.7 -3.6 112.7 -2.95 L112.4 -2.2 111.55 -1.65 Q111.3 -1.65 111.0 -2.15 L110.75 -2.65 M111.9 1.8 Q111.4 2.35 110.6 2.35 110.15 2.35 110.1 2.1 L110.1 1.8 Q110.1 1.0 111.2 0.55 112.3 0.05 112.3 0.95 L111.9 1.8 M110.65 4.25 Q111.45 4.25 111.45 4.85 L111.05 5.65 110.0 6.25 Q109.45 6.25 109.3 5.85 L109.25 5.45 Q109.25 4.25 110.65 4.25 M110.55 11.3 Q111.0 10.9 111.15 11.4 111.85 11.3 111.85 11.9 111.4 12.8 110.8 13.05 L110.35 13.45 109.65 13.2 109.75 12.75 109.75 12.7 Q109.75 12.15 110.15 11.8 L110.55 11.3 M110.35 8.15 Q111.25 7.85 111.25 9.2 L110.95 9.65 110.05 9.9 Q109.5 9.9 109.4 9.6 L109.4 9.25 Q109.4 8.4 110.35 8.15 M109.9 15.55 Q109.9 14.7 111.1 14.6 112.25 14.5 112.25 15.4 L111.8 16.0 Q111.3 16.4 110.85 16.4 L110.4 16.3 110.35 16.3 109.9 16.0 109.8 15.8 109.9 15.55 M111.3 19.8 Q112.95 19.95 112.95 21.5 L112.55 22.55 Q112.0 23.25 111.1 23.25 110.1 23.25 109.75 22.35 L109.6 21.4 Q109.6 19.6 111.3 19.8" fill="#ffd633" fill-opacity="0.4" fill-rule="evenodd" stroke="none"/>
    </g>
  </defs>
</svg>
