<?xml version="1.0" encoding="UTF-8" standalone="no"?>
<svg xmlns:xlink="http://www.w3.org/1999/xlink" height="29.4px" width="14.65px" xmlns="http://www.w3.org/2000/svg">
  <g transform="matrix(1.0, 0.0, 0.0, 1.0, 7.35, 14.7)">
    <use height="28.0" id="_col2" transform="matrix(1.0011, 0.1232, -0.1232, 1.0011, -3.8774, -14.7233)" width="11.15" xlink:href="#sprite0"/>
    <use height="16.4" transform="matrix(1.0, 0.0, 0.0, 1.0, -4.05, -7.5)" width="1.85" xlink:href="#shape1"/>
  </g>
  <defs>
    <g id="sprite0" transform="matrix(1.0, 0.0, 0.0, 1.0, 5.45, 1.45)">
      <use height="28.0" transform="matrix(1.0, 0.0, 0.0, 1.0, -5.45, -1.45)" width="11.15" xlink:href="#shape0"/>
    </g>
    <g id="shape0" transform="matrix(1.0, 0.0, 0.0, 1.0, 5.45, 1.45)">
      <path d="M3.7 0.7 Q4.3 1.25 4.6 2.1 L3.85 0.9 3.7 0.7 M-0.55 26.25 Q-2.8 25.8 -3.65 24.7 -4.4 23.85 -4.4 22.75 L-5.4 5.15 Q-5.5 3.8 -5.2 2.7 L-4.6 1.3 Q-3.4 -1.05 -0.1 -1.45 L0.15 11.35 -0.1 22.1 -0.05 23.3 -0.5 24.65 -0.55 26.25" fill="#efcdaf" fill-rule="evenodd" stroke="none"/>
      <path d="M3.7 0.7 L3.85 0.9 4.6 2.1 5.65 4.95 5.7 5.15 4.85 22.75 Q4.5 24.1 3.7 25.15 2.5 26.3 0.5 26.55 L0.25 26.45 -0.55 26.25 -0.5 24.65 -0.05 23.3 -0.1 22.1 0.15 11.35 -0.1 -1.45 Q1.65 -1.2 2.95 -0.2 L3.6 0.55 3.7 0.7" fill="#c6886a" fill-rule="evenodd" stroke="none"/>
      <path d="M3.85 0.9 L4.6 2.1 5.65 4.95 5.7 5.15 4.85 22.75 Q4.5 24.1 3.7 25.15 M-3.65 24.7 Q-4.4 23.85 -4.4 22.75 L-5.4 5.15 Q-5.5 3.8 -5.2 2.7" fill="none" stroke="#000000" stroke-linecap="round" stroke-linejoin="round" stroke-opacity="0.3019608" stroke-width="0.05"/>
    </g>
    <g id="shape1" transform="matrix(1.0, 0.0, 0.0, 1.0, 4.05, 7.5)">
      <path d="M-2.35 -7.5 L-2.2 -5.45 -2.45 -3.35 -2.7 -1.95 -2.55 -0.55 -2.65 0.5 -2.8 1.6 -3.1 5.5 -3.0 5.85 -3.55 8.45 -3.75 8.9 -4.05 8.2 -4.0 7.9 -3.85 6.55 -3.7 6.35 -3.75 5.7 -3.9 4.15 -3.55 -0.2 -3.4 -0.6 -3.5 -0.85 -3.35 -1.3 -3.45 -1.7 -3.4 -2.15 -2.8 -4.6 -2.75 -5.3 -2.4 -7.5 -2.35 -7.5" fill="#ffffff" fill-rule="evenodd" stroke="none"/>
    </g>
  </defs>
</svg>
