<?xml version="1.0" encoding="UTF-8" standalone="no"?>
<svg xmlns:xlink="http://www.w3.org/1999/xlink" height="41.1px" width="51.05px" xmlns="http://www.w3.org/2000/svg">
  <g transform="matrix(1.0, 0.0, 0.0, 1.0, 20.8, 17.95)">
    <use height="39.6" transform="matrix(1.0, 0.0, 0.0, 1.0, -19.05, -16.95)" width="36.6" xlink:href="#sprite0"/>
  </g>
  <defs>
    <g id="sprite0" transform="matrix(1.0, 0.0, 0.0, 1.0, 18.3, 19.75)">
      <use height="38.65" id="_col3" transform="matrix(1.0, 0.0, 0.0, 1.0, -18.3, -18.8)" width="34.2" xlink:href="#sprite1"/>
      <use height="33.1" transform="matrix(1.0, 0.0, 0.0, 1.0, -15.35, -19.75)" width="33.65" xlink:href="#shape1"/>
      <use height="21.5" id="_col3b" transform="matrix(1.0, 0.0, 0.0, 1.0, -15.85, -7.9)" width="17.55" xlink:href="#sprite2"/>
      <use height="20.35" transform="matrix(1.0, 0.0, 0.0, 1.0, -15.6, -7.15)" width="16.05" xlink:href="#shape3"/>
    </g>
    <g id="sprite1" transform="matrix(1.0, 0.0, 0.0, 1.0, 17.1, 19.25)">
      <use height="38.65" transform="matrix(1.0, 0.0, 0.0, 1.0, -17.1, -19.25)" width="34.2" xlink:href="#shape0"/>
    </g>
    <g id="shape0" transform="matrix(1.0, 0.0, 0.0, 1.0, 17.1, 19.25)">
      <path d="M5.15 -11.55 L5.95 -12.65 9.05 -15.95 Q11.05 -17.95 13.0 -19.25 L14.75 -19.1 17.1 -18.4 Q14.0 -15.75 12.55 -14.0 L10.6 -11.2 10.4 -10.7 9.95 -9.7 9.2 -7.8 Q8.3 -5.45 6.6 -2.55 L6.6 -3.8 Q6.35 -5.0 5.35 -5.8 L4.35 -6.25 3.35 -6.2 2.0 -5.25 2.7 -7.1 4.05 -9.75 4.9 -11.2 5.15 -11.55 M11.3 -5.75 L11.4 -6.05 Q11.5 -3.25 13.25 -2.05 14.55 -1.15 16.95 -1.15 L13.2 4.45 12.4 5.75 11.7 7.1 Q11.0 9.75 11.4 11.45 L11.8 13.65 Q11.85 14.05 11.1 14.95 9.75 16.5 8.7 16.95 L8.65 17.0 2.5 19.0 -2.35 19.3 -5.6 18.5 -5.85 18.1 -6.35 16.8 -4.2 13.5 -3.6 8.3 -3.6 8.1 -3.45 7.25 -3.05 5.75 Q-2.6 4.4 -2.0 3.75 L-0.55 1.75 0.55 0.85 0.6 0.7 1.6 -0.65 2.85 0.3 4.05 0.65 6.8 0.2 Q7.9 -0.2 8.9 -1.4 10.0 -2.75 11.0 -5.05 L11.15 -5.4 11.2 -5.45 11.3 -5.75" fill="#64544f" fill-rule="evenodd" stroke="none"/>
      <path d="M5.15 -11.55 L4.9 -11.2 4.05 -9.75 2.7 -7.1 2.0 -5.25 3.35 -6.2 4.35 -6.25 5.35 -5.8 Q6.35 -5.0 6.6 -3.8 L6.6 -2.55 Q8.3 -5.45 9.2 -7.8 L9.95 -9.7 10.4 -10.7 10.35 -10.5 Q10.35 -9.5 10.65 -7.7 10.75 -6.9 11.1 -6.2 L11.3 -5.75 11.2 -5.45 11.15 -5.4 11.0 -5.05 Q10.0 -2.75 8.9 -1.4 7.9 -0.2 6.8 0.2 L4.05 0.65 2.85 0.3 1.6 -0.65 0.6 0.7 0.55 0.85 -0.55 1.75 -2.0 3.75 Q-2.6 4.4 -3.05 5.75 L-3.45 7.25 -3.6 8.1 -3.6 8.3 -4.2 13.5 -6.35 16.8 -5.85 18.1 -5.6 18.5 -7.55 17.9 Q-9.55 17.25 -11.7 15.95 L-15.4 13.5 Q-16.9 12.35 -17.1 11.55 L-15.8 9.85 -15.25 9.0 Q-14.55 7.75 -14.5 6.25 L-14.5 5.45 -14.5 3.9 -14.25 3.2 -13.95 2.5 -13.65 1.6 -13.6 1.15 Q-13.6 0.1 -14.2 -2.35 L-14.15 -2.7 -14.2 -2.75 -13.85 -4.35 -13.75 -4.3 -14.1 -5.8 -14.65 -6.3 -14.7 -7.15 Q-14.7 -8.25 -14.05 -9.25 -13.3 -10.3 -12.25 -10.5 L-11.65 -10.45 -11.75 -10.3 Q-10.65 -10.75 -10.1 -11.15 L-8.8 -12.1 -8.5 -12.25 -7.75 -13.15 -7.85 -12.65 Q-8.0 -11.35 -6.9 -10.45 -5.85 -9.6 -3.1 -9.4 -0.55 -9.25 1.8 -10.45 L3.35 -11.1 5.15 -11.55 M2.4 -10.4 L2.35 -10.35 2.4 -10.35 2.4 -10.4 M-9.65 -10.85 L-9.6 -10.8 -9.6 -10.85 -9.65 -10.85" fill="#938175" fill-rule="evenodd" stroke="none"/>
      <path d="M10.4 -10.7 L10.6 -11.2 12.55 -14.0 Q14.0 -15.75 17.1 -18.4 L14.75 -19.1 13.0 -19.25 Q11.05 -17.95 9.05 -15.95 L5.95 -12.65 5.15 -11.55 4.9 -11.2 4.05 -9.75 2.7 -7.1 2.0 -5.25 3.35 -6.2 4.35 -6.25 5.35 -5.8 Q6.35 -5.0 6.6 -3.8 L6.6 -2.55 Q8.3 -5.45 9.2 -7.8 L9.95 -9.7 10.4 -10.7 10.35 -10.5 Q10.35 -9.5 10.65 -7.7 10.75 -6.9 11.1 -6.2 L11.3 -5.75 11.4 -6.05 Q11.5 -3.25 13.25 -2.05 14.55 -1.15 16.95 -1.15 L13.2 4.45 12.4 5.75 11.7 7.1 Q11.0 9.75 11.4 11.45 L11.8 13.65 Q11.85 14.05 11.1 14.95 9.75 16.5 8.7 16.95 L8.65 17.0 2.5 19.0 -2.35 19.3 -5.6 18.5 -7.55 17.9 Q-9.55 17.25 -11.7 15.95 L-15.4 13.5 Q-16.9 12.35 -17.1 11.55 L-15.8 9.85 -15.25 9.0 Q-14.55 7.75 -14.5 6.25 L-14.5 5.45 -14.5 3.9 -14.25 3.2 -13.95 2.5 -13.65 1.6 -13.6 1.15 Q-13.6 0.1 -14.2 -2.35 L-14.15 -2.7 -14.2 -2.75 -13.85 -4.35 -13.75 -4.3 -14.1 -5.8 -14.65 -6.3 -14.7 -7.15 Q-14.7 -8.25 -14.05 -9.25 -13.3 -10.3 -12.25 -10.5 L-11.65 -10.45 -11.75 -10.3 Q-10.65 -10.75 -10.1 -11.15 L-8.8 -12.1 -8.5 -12.25 -7.75 -13.15 -7.85 -12.65 Q-8.0 -11.35 -6.9 -10.45 -5.85 -9.6 -3.1 -9.4 -0.55 -9.25 1.8 -10.45 L3.35 -11.1 5.15 -11.55" fill="none" stroke="#000000" stroke-linecap="round" stroke-linejoin="round" stroke-opacity="0.3019608" stroke-width="0.05"/>
    </g>
    <g id="shape1" transform="matrix(1.0, 0.0, 0.0, 1.0, 15.35, 19.75)">
      <path d="M2.85 1.1 L1.65 0.75 0.4 -0.2 -0.45 -1.5 Q-0.85 -2.55 -0.75 -4.3 L-0.65 -5.45 -0.6 -5.65 -0.4 -6.65 -0.35 -6.9 0.0 -7.8 0.05 -8.0 0.2 -8.5 0.3 -8.7 0.35 -8.85 Q0.55 -9.5 0.9 -10.15 L2.8 -13.0 6.0 -16.0 6.55 -16.5 Q9.55 -19.35 10.85 -19.65 L11.2 -19.75 Q12.2 -19.85 11.8 -18.8 9.85 -17.5 7.85 -15.5 L4.75 -12.2 Q3.75 -11.05 2.85 -9.3 L1.5 -6.65 0.8 -4.8 0.8 -2.9 Q1.05 -2.2 1.7 -1.65 L1.85 -1.5 Q2.65 -0.85 3.35 -0.85 L3.9 -0.9 3.9 -0.75 Q3.9 0.5 2.85 1.1 M-8.95 -12.7 L-11.2 -9.8 -11.65 -9.05 -12.45 -7.4 Q-14.0 -3.75 -14.7 -3.75 L-15.05 -3.9 -15.15 -4.0 -15.35 -4.35 -15.2 -5.35 Q-14.8 -7.35 -12.85 -10.0 -9.05 -15.5 -5.3 -15.65 L-8.95 -12.7" fill="#dac594" fill-rule="evenodd" stroke="none"/>
      <path d="M3.9 -0.9 Q4.75 -1.05 5.2 -1.65 L5.2 -1.7 5.4 -2.1 Q7.1 -5.0 8.0 -7.35 L9.4 -10.75 Q9.85 -11.8 11.35 -13.55 12.8 -15.3 15.9 -17.95 16.5 -18.3 17.5 -18.3 18.45 -18.4 18.3 -15.55 17.5 -15.95 16.6 -15.3 L15.4 -14.25 14.3 -12.95 12.7 -10.9 Q12.0 -9.85 10.2 -5.6 L9.95 -4.95 Q8.9 -2.4 7.7 -0.95 6.7 0.25 5.6 0.65 L2.85 1.1 Q3.9 0.5 3.9 -0.75 L3.9 -0.9" fill="#c7a97c" fill-rule="evenodd" stroke="none"/>
      <path d="M-3.55 8.35 L-3.45 8.35 -3.5 8.45 -3.55 8.35" fill="#8d9b9c" fill-rule="evenodd" stroke="none"/>
      <path d="M-4.95 13.3 L-5.1 13.35 -5.0 13.25 -4.95 13.3" fill="#c6c7d2" fill-rule="evenodd" stroke="none"/>
      <path d="M3.9 -0.9 Q4.75 -1.05 5.2 -1.65 L5.2 -1.7 5.4 -2.1 Q7.1 -5.0 8.0 -7.35 L9.4 -10.75 Q9.85 -11.8 11.35 -13.55 12.8 -15.3 15.9 -17.95 16.5 -18.3 17.5 -18.3 18.45 -18.4 18.3 -15.55 17.5 -15.95 16.6 -15.3 L15.4 -14.25 14.3 -12.95 12.7 -10.9 Q12.0 -9.85 10.2 -5.6 L9.95 -4.95 Q8.9 -2.4 7.7 -0.95 6.7 0.25 5.6 0.65 L2.85 1.1 1.65 0.75 0.4 -0.2 -0.45 -1.5 Q-0.85 -2.55 -0.75 -4.3 L-0.65 -5.45 -0.6 -5.65 -0.4 -6.65 -0.35 -6.9 0.0 -7.8 0.05 -8.0 0.2 -8.5 0.3 -8.7 0.35 -8.85 Q0.55 -9.5 0.9 -10.15 L2.8 -13.0 6.0 -16.0 6.55 -16.5 Q9.55 -19.35 10.85 -19.65 L11.2 -19.75 Q12.2 -19.85 11.8 -18.8 9.85 -17.5 7.85 -15.5 L4.75 -12.2 Q3.75 -11.05 2.85 -9.3 L1.5 -6.65 0.8 -4.8 0.8 -2.9 Q1.05 -2.2 1.7 -1.65 L1.85 -1.5 Q2.65 -0.85 3.35 -0.85 L3.9 -0.9 M-8.95 -12.7 L-11.2 -9.8 -11.65 -9.05 -12.45 -7.4 Q-14.0 -3.75 -14.7 -3.75 L-15.05 -3.9 -15.15 -4.0 -15.35 -4.35 -15.2 -5.35 Q-14.8 -7.35 -12.85 -10.0 -9.05 -15.5 -5.3 -15.65 L-8.95 -12.7 M-4.95 13.3 L-5.1 13.35" fill="none" stroke="#000000" stroke-linecap="round" stroke-linejoin="round" stroke-opacity="0.3019608" stroke-width="0.05"/>
    </g>
    <g id="sprite2" transform="matrix(1.0, 0.0, 0.0, 1.0, 8.8, 10.75)">
      <use height="21.5" transform="matrix(1.0, 0.0, 0.0, 1.0, -8.8, -10.75)" width="17.55" xlink:href="#shape2"/>
    </g>
    <g id="shape2" transform="matrix(1.0, 0.0, 0.0, 1.0, 8.8, 10.75)">
      <path d="M0.35 -5.8 L-2.25 -3.1 -3.65 -2.05 -4.45 -7.2 Q-4.15 -7.0 -2.9 -6.6 L-2.85 -6.6 0.35 -5.8 M-2.9 -6.6 L-3.0 -6.4 Q-3.55 -4.5 -3.65 -2.05 -3.55 -4.5 -3.0 -6.4 L-2.9 -6.6 M5.1 1.65 L5.7 1.1 Q6.35 0.6 6.35 -0.5 L6.2 -1.25 6.3 -1.45 6.7 -1.1 Q8.75 0.7 8.75 1.65 L8.45 3.45 Q8.15 4.3 7.35 4.8 L5.55 5.25 Q4.6 5.25 3.9 4.75 5.2 4.4 5.2 2.75 L5.05 1.7 5.1 1.65 5.35 1.8 6.0 2.3 5.35 1.8 5.1 1.65 M3.55 5.6 L3.6 5.7 Q4.4 7.3 4.4 8.0 4.4 9.05 3.25 9.85 L2.1 10.45 2.05 10.4 3.15 8.9 Q3.6 8.1 3.6 6.8 L3.5 5.6 3.55 5.6" fill="#bcbecb" fill-rule="evenodd" stroke="none"/>
      <path d="M-4.45 -7.2 L-4.45 -7.25 -2.15 -9.8 -0.9 -10.75 Q-0.5 -10.75 -0.15 -8.35 L0.35 -5.8 -2.85 -6.6 -2.9 -6.6 Q-4.15 -7.0 -4.45 -7.2 M-0.9 -10.75 Q-2.1 -8.85 -2.9 -6.6 -2.1 -8.85 -0.9 -10.75 M-8.75 -1.25 L-8.5 -0.7 -8.3 0.4 -8.25 0.75 -8.3 0.4 -8.5 -0.7 -8.75 -1.25 -8.35 -5.15 Q-7.6 -5.2 -6.2 -3.95 -4.85 -2.75 -5.35 -1.05 L-6.7 2.55 Q-7.6 4.45 -7.55 5.5 -7.55 6.55 -7.2 7.2 L-6.6 8.0 -6.15 7.95 -5.95 7.35 Q-5.95 8.35 -6.1 8.65 L-7.1 8.7 Q-7.95 8.2 -8.45 6.95 L-8.7 6.35 -8.7 6.15 -8.75 3.6 -8.7 3.25 -8.6 2.85 Q-8.25 1.5 -8.25 0.75 L-8.7 1.7 -8.8 1.85 -8.8 -0.1 -8.75 -1.25 M6.3 -1.45 L6.2 -1.25 6.35 -0.5 Q6.35 0.6 5.7 1.1 L5.1 1.65 4.8 1.5 4.55 1.45 Q3.8 1.45 3.3 1.95 2.9 2.35 2.85 3.0 L2.8 3.3 2.8 3.35 2.8 3.3 2.85 3.0 Q2.9 2.35 3.3 1.95 3.8 1.45 4.55 1.45 L4.8 1.5 5.1 1.65 5.05 1.7 5.2 2.75 Q5.2 4.4 3.9 4.75 L3.8 4.65 3.75 4.6 2.8 3.35 Q2.8 4.1 3.5 5.5 L3.55 5.6 3.5 5.6 3.6 6.8 Q3.6 8.1 3.15 8.9 L2.05 10.4 1.95 10.5 0.1 10.75 Q-1.6 10.75 -2.15 10.1 -2.5 9.7 -2.5 8.65 L-2.1 9.45 -1.1 9.75 Q-0.3 9.75 0.35 9.35 1.15 8.85 1.15 8.15 1.15 7.2 0.25 4.45 L-0.7 1.2 Q-0.7 -0.25 0.45 -1.4 1.8 -2.75 3.85 -2.75 4.75 -2.75 6.3 -1.45" fill="#ffffff" fill-rule="evenodd" stroke="none"/>
      <path d="M-4.45 -7.2 L-4.45 -7.25 -2.15 -9.8 -0.9 -10.75 Q-0.5 -10.75 -0.15 -8.35 L0.35 -5.8 -2.25 -3.1 -3.65 -2.05 -4.45 -7.2 Q-4.15 -7.0 -2.9 -6.6 -2.1 -8.85 -0.9 -10.75 M-2.9 -6.6 L-2.85 -6.6 0.35 -5.8 M-3.65 -2.05 Q-3.55 -4.5 -3.0 -6.4 L-2.9 -6.6 M-8.25 0.75 L-8.3 0.4 -8.5 -0.7 -8.75 -1.25 M-8.8 1.85 L-8.7 1.7 -8.25 0.75 Q-8.25 1.5 -8.6 2.85 L-8.7 3.25 M-5.95 7.35 L-6.15 7.95 -6.6 8.0 -7.2 7.2 Q-7.55 6.55 -7.55 5.5 -7.6 4.45 -6.7 2.55 L-5.35 -1.05 Q-4.85 -2.75 -6.2 -3.95 -7.6 -5.2 -8.35 -5.15 M5.1 1.65 L5.35 1.8 6.0 2.3 M6.3 -1.45 L6.7 -1.1 Q8.75 0.7 8.75 1.65 L8.45 3.45 Q8.15 4.3 7.35 4.8 L5.55 5.25 Q4.6 5.25 3.9 4.75 L3.8 4.65 3.75 4.6 2.8 3.35 Q2.8 4.1 3.5 5.5 L3.55 5.6 3.6 5.7 Q4.4 7.3 4.4 8.0 4.4 9.05 3.25 9.85 L2.1 10.45 M1.95 10.5 L0.1 10.75 Q-1.6 10.75 -2.15 10.1 -2.5 9.7 -2.5 8.65 L-2.1 9.45 -1.1 9.75 Q-0.3 9.75 0.35 9.35 1.15 8.85 1.15 8.15 1.15 7.2 0.25 4.45 L-0.7 1.2 Q-0.7 -0.25 0.45 -1.4 1.8 -2.75 3.85 -2.75 4.75 -2.75 6.3 -1.45 M2.8 3.35 L2.8 3.3 2.85 3.0 Q2.9 2.35 3.3 1.95 3.8 1.45 4.55 1.45 L4.8 1.5 5.1 1.65" fill="none" stroke="#000000" stroke-linecap="round" stroke-linejoin="round" stroke-opacity="0.3019608" stroke-width="0.05"/>
    </g>
    <g id="shape3" transform="matrix(1.0, 0.0, 0.0, 1.0, 15.6, 7.15)">
      <path d="M-10.7 -4.35 L-11.05 -4.6 Q-11.05 -5.0 -8.85 -6.9 L-8.8 -6.8 -9.05 -6.2 -9.5 -5.45 -9.75 -4.7 Q-10.0 -4.1 -10.15 -4.1 -10.3 -4.1 -10.7 -4.35 M-7.55 -6.2 Q-7.05 -4.85 -7.05 -3.6 L-7.1 -3.45 Q-7.15 -3.3 -7.35 -3.3 L-8.25 -3.5 -9.25 -3.9 -9.6 -4.35 -8.8 -5.7 -8.35 -6.95 Q-8.05 -7.6 -7.55 -6.2 M-1.0 2.5 L-1.0 2.65 -0.85 2.6 -1.0 2.5 M-0.75 1.85 Q0.45 2.55 0.45 3.75 0.45 4.55 -0.2 4.55 -1.15 4.35 -1.8 3.95 L-2.25 3.6 -3.6 3.45 -4.05 3.5 -4.55 3.75 Q-5.4 4.15 -5.65 4.45 L-5.9 5.1 -6.15 5.8 -6.55 4.8 -6.75 3.9 -6.55 3.1 -6.6 2.95 Q-6.6 2.4 -5.8 1.65 -4.9 0.7 -3.7 0.75 L-3.1 0.75 Q-2.1 1.1 -1.55 1.5 -1.25 1.55 -0.75 1.85 M-3.6 5.35 Q-3.6 4.65 -2.9 4.7 -2.2 4.75 -2.2 5.3 L-2.4 5.75 -2.9 6.0 Q-3.4 6.0 -3.6 5.35 M-4.65 11.5 L-5.05 12.55 Q-5.55 13.2 -6.5 13.2 L-7.0 13.1 -7.05 13.0 -5.4 11.65 Q-5.2 10.7 -4.9 10.75 -4.65 10.8 -4.65 11.5 M-14.75 10.15 L-15.5 9.1 Q-15.5 6.3 -14.7 10.05 L-14.75 10.15 M-14.5 4.95 L-14.65 4.95 Q-14.55 4.25 -14.9 2.75 L-15.6 0.85 Q-15.6 -2.35 -14.1 -1.1 -12.65 0.1 -13.2 1.5 L-14.5 4.95" fill="#ffffff" fill-opacity="0.8" fill-rule="evenodd" stroke="none"/>
    </g>
  </defs>
</svg>
