<?xml version="1.0" encoding="UTF-8" standalone="no"?>
<svg xmlns:xlink="http://www.w3.org/1999/xlink" height="41.1px" width="51.05px" xmlns="http://www.w3.org/2000/svg">
  <g transform="matrix(1.0, 0.0, 0.0, 1.0, 20.8, 17.95)">
    <use height="35.3" id="_p1" transform="matrix(1.0, 0.0, 0.0, 1.0, -17.9, -15.25)" width="37.9" xlink:href="#sprite0"/>
  </g>
  <defs>
    <g id="sprite0" transform="matrix(1.0, 0.0, 0.0, 1.0, 18.95, 17.65)">
      <use height="20.7" id="_col2b" transform="matrix(1.0, 0.0, 0.0, 1.0, -18.95, -3.05)" width="21.15" xlink:href="#sprite1"/>
      <use height="23.6" id="_col3" transform="matrix(1.0, 0.0, 0.0, 1.0, -15.65, -17.65)" width="34.6" xlink:href="#sprite2"/>
      <use height="27.8" id="_col2a" transform="matrix(1.0, 0.0, 0.0, 1.0, -17.3, -11.1)" width="30.7" xlink:href="#sprite3"/>
      <use height="3.35" transform="matrix(1.0, 0.0, 0.0, 1.0, -1.25, -7.0)" width="5.5" xlink:href="#shape3"/>
    </g>
    <g id="sprite1" transform="matrix(1.0, 0.0, 0.0, 1.0, 18.95, 3.05)">
      <use height="20.7" transform="matrix(1.0, 0.0, 0.0, 1.0, -18.95, -3.05)" width="21.15" xlink:href="#shape0"/>
    </g>
    <g id="shape0" transform="matrix(1.0, 0.0, 0.0, 1.0, 18.95, 3.05)">
      <path d="M-16.7 -1.25 Q-16.85 -2.15 -16.1 -2.75 L-15.45 -2.95 -15.3 -2.95 -11.35 -1.45 -8.45 -0.5 -6.65 0.2 Q-5.95 0.6 -5.5 1.55 L-5.45 1.65 -6.15 3.15 -7.7 7.8 -8.25 12.4 -8.05 15.75 -7.9 17.4 -10.15 16.9 -13.35 15.65 -16.65 14.0 -17.9 13.15 Q-18.75 12.5 -18.85 11.75 L-18.95 10.55 -18.4 8.6 Q-17.9 6.75 -17.65 3.6 -17.4 0.4 -16.7 -1.25 M-5.3 17.65 L-6.35 17.55 Q-6.45 11.7 -5.95 7.5 -5.7 4.95 -4.6 3.4 -4.25 4.35 -4.25 4.9 L-4.7 11.1 -5.3 17.65 M-13.35 15.65 Q-13.35 10.2 -12.95 7.0 L-12.1 1.4 -11.35 -1.45 -12.1 1.4 -12.95 7.0 Q-13.35 10.2 -13.35 15.65 M-8.85 11.55 Q-8.85 11.0 -9.3 10.55 -9.65 10.2 -10.2 10.2 -10.75 10.2 -11.2 10.55 -11.55 11.0 -11.55 11.55 -11.55 12.1 -11.2 12.45 L-10.2 12.9 Q-9.65 12.9 -9.3 12.45 -8.85 12.1 -8.85 11.55 M-7.95 4.5 Q-7.95 3.95 -8.4 3.5 -8.75 3.15 -9.3 3.15 -9.85 3.15 -10.3 3.5 L-10.65 4.5 Q-10.65 5.05 -10.3 5.4 L-9.3 5.85 Q-8.75 5.85 -8.4 5.4 -7.95 5.05 -7.95 4.5 M-15.55 8.25 Q-15.95 8.25 -16.25 8.6 L-16.5 9.5 -16.25 10.35 -15.55 10.75 -14.95 10.35 Q-14.65 10.0 -14.65 9.5 -14.65 9.0 -14.95 8.6 -15.2 8.25 -15.55 8.25 M-13.9 1.4 Q-14.15 1.05 -14.5 1.05 -14.9 1.05 -15.2 1.4 L-15.45 2.3 -15.2 3.15 Q-14.9 3.55 -14.5 3.55 L-13.9 3.15 Q-13.6 2.8 -13.6 2.3 -13.6 1.8 -13.9 1.4 M-17.9 13.15 Q-17.85 9.95 -16.9 5.0 L-15.45 -2.95 -16.9 5.0 Q-17.85 9.95 -17.9 13.15" fill="#ffffff" fill-rule="evenodd" stroke="none"/>
      <path d="M-15.3 -2.95 L-13.85 -3.05 -12.45 -2.9 -10.9 -2.55 -9.0 -1.95 -8.2 -1.7 -6.75 -1.15 Q-3.95 0.0 -3.4 0.85 L-2.85 1.7 -1.55 4.15 -1.1 4.95 -0.3 5.95 1.95 7.45 2.2 7.55 Q1.7 8.2 1.7 10.0 L1.7 16.7 Q-2.5 17.75 -5.3 17.65 L-4.7 11.1 -4.25 4.9 Q-4.25 4.35 -4.6 3.4 -5.7 4.95 -5.95 7.5 -6.45 11.7 -6.35 17.55 L-7.9 17.4 -8.05 15.75 -8.25 12.4 -7.7 7.8 -6.15 3.15 -5.45 1.65 -5.5 1.55 Q-5.95 0.6 -6.65 0.2 L-8.45 -0.5 -11.35 -1.45 -10.9 -2.55 -11.35 -1.45 -15.3 -2.95 M-4.6 3.4 Q-3.9 2.3 -2.85 1.7 -3.9 2.3 -4.6 3.4" fill="#d6baba" fill-rule="evenodd" stroke="none"/>
      <path d="M-7.95 4.5 Q-7.95 5.05 -8.4 5.4 -8.75 5.85 -9.3 5.85 L-10.3 5.4 Q-10.65 5.05 -10.65 4.5 L-10.3 3.5 Q-9.85 3.15 -9.3 3.15 -8.75 3.15 -8.4 3.5 -7.95 3.95 -7.95 4.5 M-8.85 11.55 Q-8.85 12.1 -9.3 12.45 -9.65 12.9 -10.2 12.9 L-11.2 12.45 Q-11.55 12.1 -11.55 11.55 -11.55 11.0 -11.2 10.55 -10.75 10.2 -10.2 10.2 -9.65 10.2 -9.3 10.55 -8.85 11.0 -8.85 11.55 M-13.9 1.4 Q-13.6 1.8 -13.6 2.3 -13.6 2.8 -13.9 3.15 L-14.5 3.55 Q-14.9 3.55 -15.2 3.15 L-15.45 2.3 -15.2 1.4 Q-14.9 1.05 -14.5 1.05 -14.15 1.05 -13.9 1.4 M-15.55 8.25 Q-15.2 8.25 -14.95 8.6 -14.65 9.0 -14.65 9.5 -14.65 10.0 -14.95 10.35 L-15.55 10.75 -16.25 10.35 -16.5 9.5 -16.25 8.6 Q-15.95 8.25 -15.55 8.25" fill="#a78383" fill-rule="evenodd" stroke="none"/>
      <path d="M-13.85 -3.05 L-12.45 -2.9 M-8.2 -1.7 L-6.75 -1.15 M-1.1 4.95 L-0.3 5.95 M2.2 7.55 Q1.7 8.2 1.7 10.0 L1.7 16.7 Q-2.5 17.75 -5.3 17.65 L-6.35 17.55 -7.9 17.4 -10.15 16.9 -13.35 15.65 -16.65 14.0 -17.9 13.15 Q-18.75 12.5 -18.85 11.75 L-18.95 10.55 -18.4 8.6 Q-17.9 6.75 -17.65 3.6 -17.4 0.4 -16.7 -1.25 M-11.35 -1.45 L-10.9 -2.55 M-11.35 -1.45 L-12.1 1.4 -12.95 7.0 Q-13.35 10.2 -13.35 15.65 M-2.85 1.7 Q-3.9 2.3 -4.6 3.4 -5.7 4.95 -5.95 7.5 -6.45 11.7 -6.35 17.55 M-7.95 4.5 Q-7.95 5.05 -8.4 5.4 -8.75 5.85 -9.3 5.85 L-10.3 5.4 Q-10.65 5.05 -10.65 4.5 L-10.3 3.5 Q-9.85 3.15 -9.3 3.15 -8.75 3.15 -8.4 3.5 -7.95 3.95 -7.95 4.5 M-8.85 11.55 Q-8.85 12.1 -9.3 12.45 -9.65 12.9 -10.2 12.9 L-11.2 12.45 Q-11.55 12.1 -11.55 11.55 -11.55 11.0 -11.2 10.55 -10.75 10.2 -10.2 10.2 -9.65 10.2 -9.3 10.55 -8.85 11.0 -8.85 11.55 M-13.9 1.4 Q-13.6 1.8 -13.6 2.3 -13.6 2.8 -13.9 3.15 L-14.5 3.55 Q-14.9 3.55 -15.2 3.15 L-15.45 2.3 -15.2 1.4 Q-14.9 1.05 -14.5 1.05 -14.15 1.05 -13.9 1.4 M-15.55 8.25 Q-15.2 8.25 -14.95 8.6 -14.65 9.0 -14.65 9.5 -14.65 10.0 -14.95 10.35 L-15.55 10.75 -16.25 10.35 -16.5 9.5 -16.25 8.6 Q-15.95 8.25 -15.55 8.25 M-15.45 -2.95 L-16.9 5.0 Q-17.85 9.95 -17.9 13.15" fill="none" stroke="#000000" stroke-linecap="round" stroke-linejoin="round" stroke-opacity="0.3019608" stroke-width="0.05"/>
    </g>
    <g id="sprite2" transform="matrix(1.0, 0.0, 0.0, 1.0, 15.65, 17.65)">
      <use height="23.6" transform="matrix(1.0, 0.0, 0.0, 1.0, -15.65, -17.65)" width="34.6" xlink:href="#shape1"/>
    </g>
    <g id="shape1" transform="matrix(1.0, 0.0, 0.0, 1.0, 15.65, 17.65)">
      <path d="M6.0 -7.65 L5.85 -7.8 Q4.7 -8.65 3.75 -8.65 L-0.55 -8.15 Q1.15 -11.2 5.3 -14.2 L5.65 -14.45 7.4 -13.85 10.05 -13.3 12.5 -12.15 9.95 -10.8 Q6.85 -8.8 6.0 -7.65 M8.3 -3.0 L9.35 -1.7 -0.3 5.95 -1.1 4.95 1.6 3.0 5.3 -0.25 8.3 -3.0 M-15.1 -8.65 Q-15.75 -9.3 -15.6 -9.55 L-13.4 -12.0 Q-11.4 -14.25 -9.9 -15.0 L-6.75 -16.75 Q-5.15 -17.65 -4.7 -17.65 -4.45 -17.65 -4.25 -16.5 -8.55 -14.65 -12.15 -11.1 L-10.9 -9.25 Q-11.65 -7.45 -12.45 -2.9 L-13.85 -3.05 Q-13.75 -6.1 -12.15 -11.1 L-12.15 -11.15 -12.65 -10.75 -12.8 -10.65 -15.1 -8.65 M-5.45 -7.85 L-2.8 -8.0 Q-5.45 -4.5 -6.75 -1.15 L-8.2 -1.7 Q-7.5 -4.2 -5.45 -7.85" fill="#ffffff" fill-rule="evenodd" stroke="none"/>
      <path d="M6.2 -14.8 L6.75 -15.15 6.85 -15.25 Q10.05 -17.3 12.1 -17.3 14.85 -17.3 16.7 -16.3 18.1 -15.55 18.65 -14.45 L18.95 -13.4 12.5 -10.55 Q7.85 -8.25 6.8 -6.15 L6.0 -7.65 Q6.85 -8.8 9.95 -10.8 L12.5 -12.15 10.05 -13.3 7.4 -13.85 5.65 -14.45 6.2 -14.8 5.65 -14.45 6.2 -14.8 M18.65 -14.45 L12.5 -12.15 18.65 -14.45" fill="#d6baba" fill-rule="evenodd" stroke="none"/>
      <path d="M6.2 -14.8 L6.75 -15.15 6.85 -15.25 Q10.05 -17.3 12.1 -17.3 14.85 -17.3 16.7 -16.3 18.1 -15.55 18.65 -14.45 L18.95 -13.4 12.5 -10.55 Q7.85 -8.25 6.8 -6.15 M-0.55 -8.15 Q1.15 -11.2 5.3 -14.2 L5.65 -14.45 M6.2 -14.8 L5.65 -14.45 M12.5 -12.15 L18.65 -14.45 M6.0 -7.65 Q6.85 -8.8 9.95 -10.8 L12.5 -12.15 M9.35 -1.7 L8.3 -3.0 M-15.1 -8.65 Q-15.75 -9.3 -15.6 -9.55 L-13.4 -12.0 Q-11.4 -14.25 -9.9 -15.0 L-6.75 -16.75 Q-5.15 -17.65 -4.7 -17.65 -4.45 -17.65 -4.25 -16.5 -8.55 -14.65 -12.15 -11.1 L-10.9 -9.25 M-12.15 -11.1 L-12.15 -11.15 -12.65 -10.75 M-2.8 -8.0 L-5.45 -7.85" fill="none" stroke="#000000" stroke-linecap="round" stroke-linejoin="round" stroke-opacity="0.3019608" stroke-width="0.05"/>
    </g>
    <g id="sprite3" transform="matrix(1.0, 0.0, 0.0, 1.0, 15.35, 13.9)">
      <use height="27.8" transform="matrix(1.0, 0.0, 0.0, 1.0, -15.35, -13.9)" width="30.7" xlink:href="#shape2"/>
    </g>
    <g id="shape2" transform="matrix(1.0, 0.0, 0.0, 1.0, 15.35, 13.9)">
      <path d="M5.4 -11.45 L5.7 -11.45 5.9 -11.45 Q6.75 -11.35 7.8 -10.6 L7.95 -10.45 8.75 -8.95 8.75 -8.9 10.2 -5.9 10.25 -5.8 7.25 -3.05 3.55 0.2 0.85 2.15 0.4 1.35 -0.9 -1.1 -1.3 -1.7 5.4 -11.45 M4.15 4.75 L3.9 4.65 1.65 3.15 Q9.05 -2.45 11.3 -4.5 13.7 -1.85 15.35 -2.6 L14.4 -0.05 Q13.7 1.75 9.2 5.3 L9.05 5.75 8.9 6.95 8.9 7.05 Q8.85 8.05 9.1 9.0 L9.15 9.25 9.55 10.35 3.65 13.9 3.65 11.1 3.65 8.25 3.65 7.2 Q3.65 5.4 4.15 4.75 6.05 5.5 9.2 5.3 6.05 5.5 4.15 4.75 M8.9 7.05 Q5.85 8.35 4.0 8.35 L3.65 8.25 4.0 8.35 Q5.85 8.35 8.9 7.05 M9.1 9.0 Q8.6 9.45 7.4 9.9 L4.8 11.0 3.65 11.1 4.8 11.0 7.4 9.9 Q8.6 9.45 9.1 9.0" fill="#a78383" fill-rule="evenodd" stroke="none"/>
      <path d="M-1.3 -1.7 L-1.45 -1.95 Q-2.0 -2.8 -4.8 -3.95 -3.5 -7.3 -0.85 -10.8 L0.8 -10.9 1.4 -10.95 5.4 -11.45 -1.3 -1.7 M-10.7 -13.55 L-10.2 -13.9 Q-11.8 -8.9 -11.9 -5.85 L-13.5 -5.75 -14.15 -5.55 Q-14.9 -4.95 -14.75 -4.05 -15.45 -5.75 -15.35 -6.5 -15.1 -8.15 -14.25 -9.9 L-13.15 -11.45 -10.85 -13.45 -10.7 -13.55 M-8.95 -12.05 L-5.4 -10.95 -3.5 -10.65 Q-5.55 -7.0 -6.25 -4.5 L-7.05 -4.75 -8.95 -5.35 -10.5 -5.7 Q-9.7 -10.25 -8.95 -12.05" fill="#d6baba" fill-rule="evenodd" stroke="none"/>
      <path d="M5.4 -11.45 L5.7 -11.45 5.9 -11.45 Q6.75 -11.35 7.8 -10.6 L7.95 -10.45 8.75 -8.95 8.75 -8.9 10.2 -5.9 10.25 -5.8 7.25 -3.05 3.55 0.2 0.85 2.15 0.4 1.35 -0.9 -1.1 -1.3 -1.7 -1.45 -1.95 Q-2.0 -2.8 -4.8 -3.95 -3.5 -7.3 -0.85 -10.8 L0.8 -10.9 1.4 -10.95 5.4 -11.45 M4.15 4.75 L3.9 4.65 1.65 3.15 Q9.05 -2.45 11.3 -4.5 13.7 -1.85 15.35 -2.6 L14.4 -0.05 Q13.7 1.75 9.2 5.3 M9.05 5.75 L8.9 6.95 8.9 7.05 Q8.85 8.05 9.1 9.0 L9.15 9.25 9.55 10.35 3.65 13.9 M4.15 4.75 Q6.05 5.5 9.2 5.3 M-10.7 -13.55 L-10.2 -13.9 Q-11.8 -8.9 -11.9 -5.85 L-13.5 -5.75 -14.15 -5.55 Q-14.9 -4.95 -14.75 -4.05 -15.45 -5.75 -15.35 -6.5 -15.1 -8.15 -14.25 -9.9 L-13.15 -11.45 -10.85 -13.45 -10.7 -13.55 M-8.95 -12.05 Q-9.7 -10.25 -10.5 -5.7 L-8.95 -5.35 -7.05 -4.75 -6.25 -4.5 Q-5.55 -7.0 -3.5 -10.65 L-5.4 -10.95 -8.95 -12.05 M3.65 11.1 L4.8 11.0 7.4 9.9 Q8.6 9.45 9.1 9.0 M3.65 8.25 L4.0 8.35 Q5.85 8.35 8.9 7.05" fill="none" stroke="#000000" stroke-linecap="round" stroke-linejoin="round" stroke-opacity="0.3019608" stroke-width="0.05"/>
    </g>
    <g id="shape3" transform="matrix(1.0, 0.0, 0.0, 1.0, 1.25, 7.0)">
      <path d="M0.9 -7.0 L1.15 -6.55 Q0.2 -4.45 -0.9 -4.45 L-1.25 -4.55 -1.25 -5.35 Q-0.6 -6.75 0.3 -6.95 L0.35 -7.0 0.9 -7.0 M4.25 -5.95 Q3.3 -3.65 2.2 -3.65 2.1 -3.65 1.95 -3.75 L1.7 -4.05 Q1.7 -4.8 2.4 -5.65 L3.4 -6.5 3.95 -6.15 4.25 -5.95" fill="#ffffff" fill-rule="evenodd" stroke="none"/>
      <path d="M0.9 -7.0 L0.35 -7.0 0.3 -6.95 Q-0.6 -6.75 -1.25 -5.35 L-1.25 -4.55 -0.9 -4.45 Q0.2 -4.45 1.15 -6.55 L0.9 -7.0 M4.25 -5.95 Q3.3 -3.65 2.2 -3.65 2.1 -3.65 1.95 -3.75 L1.7 -4.05 Q1.7 -4.8 2.4 -5.65 L3.4 -6.5 3.95 -6.15 4.25 -5.95" fill="none" stroke="#000000" stroke-linecap="round" stroke-linejoin="round" stroke-opacity="0.3019608" stroke-width="0.05"/>
    </g>
  </defs>
</svg>
