<?xml version="1.0" encoding="UTF-8" standalone="no"?>
<svg xmlns:xlink="http://www.w3.org/1999/xlink" height="41.1px" width="51.05px" xmlns="http://www.w3.org/2000/svg">
  <g transform="matrix(1.0, 0.0, 0.0, 1.0, 20.8, 17.95)">
    <use height="38.35" id="_p1" transform="matrix(1.0, 0.0, 0.0, 1.0, -18.7, -16.35)" width="38.2" xlink:href="#sprite0"/>
  </g>
  <defs>
    <g id="sprite0" transform="matrix(1.0, 0.0, 0.0, 1.0, 19.4, 18.55)">
      <use height="36.6" id="_col3" transform="matrix(1.0, 0.0, 0.0, 1.0, -18.15, -18.55)" width="36.95" xlink:href="#sprite1"/>
      <use height="31.35" id="_col2" transform="matrix(1.0, 0.0, 0.0, 1.0, -19.4, -11.55)" width="33.2" xlink:href="#sprite2"/>
      <use height="5.15" transform="matrix(1.0, 0.0, 0.0, 1.0, -15.1, 4.5)" width="5.0" xlink:href="#shape2"/>
    </g>
    <g id="sprite1" transform="matrix(1.0, 0.0, 0.0, 1.0, 18.45, 16.75)">
      <use height="36.6" transform="matrix(1.0, 0.0, 0.0, 1.0, -18.45, -16.75)" width="36.95" xlink:href="#shape0"/>
    </g>
    <g id="shape0" transform="matrix(1.0, 0.0, 0.0, 1.0, 18.45, 16.75)">
      <path d="M3.65 -3.65 L2.35 -4.15 0.15 -5.0 -2.55 -5.85 Q-1.7 -7.45 0.05 -9.25 L3.25 -12.1 3.65 -12.1 6.9 -11.15 Q8.35 -10.55 9.5 -10.25 L6.45 -7.0 2.55 -8.2 Q0.05 -9.0 0.05 -9.25 0.05 -9.0 2.55 -8.2 L6.45 -7.0 3.65 -3.65 M-7.7 -15.35 L-6.55 -13.5 -7.7 -15.35 Q-5.4 -16.8 -4.35 -16.75 L-2.85 -16.6 -2.1 -15.6 -2.1 -15.05 Q-4.45 -14.75 -6.55 -13.5 -8.6 -12.3 -10.4 -10.7 L-11.9 -12.15 -10.4 -10.7 -12.35 -8.95 -13.65 -9.75 -13.9 -9.65 -11.9 -12.15 -9.1 -14.4 -7.7 -15.35 M-6.9 7.2 L-6.75 8.45 Q-6.75 9.65 -7.65 10.55 L-8.35 11.15 -8.35 11.3 -8.25 11.45 -7.4 13.25 -7.35 13.7 Q-7.35 16.2 -9.05 17.75 -9.2 16.35 -9.65 14.9 L-9.9 14.15 Q-11.0 11.15 -12.5 10.6 L-13.2 10.5 -13.7 10.6 Q-14.65 11.05 -15.6 13.0 L-16.5 15.5 -15.6 13.0 Q-14.65 11.05 -13.7 10.6 L-13.2 10.5 -12.5 10.6 Q-11.0 11.15 -9.9 14.15 L-9.65 14.9 Q-9.2 16.35 -9.05 17.75 L-9.0 19.1 -11.65 18.25 -12.6 17.8 -14.65 16.75 -16.5 15.5 -16.85 15.2 -17.5 14.6 -18.45 13.6 -17.95 10.6 Q-17.2 6.75 -16.1 5.25 -14.6 3.2 -11.15 4.4 -8.45 5.4 -6.9 7.2 M-8.35 11.3 L-8.4 11.2 -8.75 10.6 Q-10.85 7.05 -13.1 7.05 -14.95 7.05 -16.2 9.8 L-16.55 10.6 Q-17.2 12.3 -17.5 14.6 -17.2 12.3 -16.55 10.6 L-16.2 9.8 Q-14.95 7.05 -13.1 7.05 -10.85 7.05 -8.75 10.6 L-8.4 11.2 -8.35 11.3 M-14.65 16.75 L-14.05 15.55 Q-13.55 14.75 -12.9 14.75 -11.65 14.75 -11.65 17.45 L-11.65 18.25 -11.65 17.45 Q-11.65 14.75 -12.9 14.75 -13.55 14.75 -14.05 15.55 L-14.65 16.75" fill="#ffffff" fill-opacity="0.8" fill-rule="evenodd" stroke="none"/>
      <path d="M6.45 -14.45 L8.55 -15.45 8.65 -15.45 15.6 -14.1 Q16.3 -13.8 16.9 -13.3 15.5 -13.85 13.8 -13.0 L13.7 -13.0 6.45 -14.45 13.7 -13.0 13.8 -13.0 Q15.5 -13.85 16.9 -13.3 17.9 -12.45 18.5 -10.9 L16.05 -10.95 14.4 -10.75 Q12.35 -10.35 10.35 -8.6 L10.0 -8.25 6.9 -5.2 5.15 -3.15 3.65 -3.65 6.45 -7.0 9.5 -10.25 Q9.45 -9.65 10.0 -8.25 9.45 -9.65 9.5 -10.25 8.35 -10.55 6.9 -11.15 L3.65 -12.1 3.25 -12.1 6.45 -14.45 M6.9 -5.2 L6.45 -7.0 6.9 -5.2 M13.7 -13.0 L10.75 -11.2 9.5 -10.25 10.75 -11.2 13.7 -13.0 M13.8 -13.0 Q13.75 -12.75 14.05 -11.8 L14.4 -10.75 14.05 -11.8 Q13.75 -12.75 13.8 -13.0 M-8.35 11.3 L-8.35 11.15 -7.65 10.55 Q-6.75 9.65 -6.75 8.45 L-6.9 7.2 -6.15 8.2 -5.05 10.6 Q-3.9 13.7 -2.55 19.65 L-5.95 19.85 Q-6.2 16.3 -7.4 13.25 -6.2 16.3 -5.95 19.85 L-7.8 19.5 -9.0 19.1 -9.05 17.75 Q-7.35 16.2 -7.35 13.7 L-7.4 13.25 -8.25 11.45 -8.35 11.3" fill="#d1b6b6" fill-rule="evenodd" stroke="none"/>
      <path d="M16.9 -13.3 Q16.3 -13.8 15.6 -14.1 L8.65 -15.45 8.55 -15.45 6.45 -14.45 13.7 -13.0 13.8 -13.0 Q15.5 -13.85 16.9 -13.3 17.9 -12.45 18.5 -10.9 L16.05 -10.95 14.4 -10.75 Q12.35 -10.35 10.35 -8.6 L10.0 -8.25 6.9 -5.2 5.15 -3.15 M-2.55 -5.85 Q-1.7 -7.45 0.05 -9.25 L3.25 -12.1 6.45 -14.45 M9.5 -10.25 L6.45 -7.0 6.9 -5.2 M10.0 -8.25 Q9.45 -9.65 9.5 -10.25 8.35 -10.55 6.9 -11.15 L3.65 -12.1 3.25 -12.1 M0.05 -9.25 Q0.05 -9.0 2.55 -8.2 L6.45 -7.0 3.65 -3.65 M14.4 -10.75 L14.05 -11.8 Q13.75 -12.75 13.8 -13.0 M9.5 -10.25 L10.75 -11.2 13.7 -13.0 M-6.55 -13.5 L-7.7 -15.35 -9.1 -14.4 -11.9 -12.15 -10.4 -10.7 Q-8.6 -12.3 -6.55 -13.5 -4.45 -14.75 -2.1 -15.05 L-2.1 -15.6 -2.85 -16.6 -4.35 -16.75 Q-5.4 -16.8 -7.7 -15.35 M-13.9 -9.65 L-11.9 -12.15 M-10.4 -10.7 L-12.35 -8.95 M-8.35 11.3 L-8.25 11.45 -7.4 13.25 Q-6.2 16.3 -5.95 19.85 L-2.55 19.65 M-18.45 13.6 L-17.5 14.6 Q-17.2 12.3 -16.55 10.6 L-16.2 9.8 Q-14.95 7.05 -13.1 7.05 -10.85 7.05 -8.75 10.6 L-8.4 11.2 -8.35 11.3 M-16.5 15.5 L-15.6 13.0 Q-14.65 11.05 -13.7 10.6 L-13.2 10.5 -12.5 10.6 Q-11.0 11.15 -9.9 14.15 L-9.65 14.9 Q-9.2 16.35 -9.05 17.75 M-11.65 18.25 L-11.65 17.45 Q-11.65 14.75 -12.9 14.75 -13.55 14.75 -14.05 15.55 L-14.65 16.75 -12.6 17.8 -11.65 18.25 -9.0 19.1 -9.05 17.75 M-17.5 14.6 L-16.85 15.2 -16.5 15.5 -14.65 16.75 M-9.0 19.1 L-7.8 19.5 -5.95 19.85" fill="none" stroke="#000000" stroke-linecap="round" stroke-linejoin="round" stroke-opacity="0.3019608" stroke-width="0.05"/>
    </g>
    <g id="sprite2" transform="matrix(1.0, 0.0, 0.0, 1.0, 15.95, 13.2)">
      <use height="31.35" transform="matrix(1.0, 0.0, 0.0, 1.0, -15.95, -13.2)" width="33.2" xlink:href="#shape1"/>
    </g>
    <g id="shape1" transform="matrix(1.0, 0.0, 0.0, 1.0, 15.95, 13.2)">
      <path d="M-15.1 12.0 L-15.15 11.95 -15.75 11.2 -15.8 11.15 Q-16.2 11.35 -15.35 6.85 L-13.95 -0.25 -14.0 -0.3 -13.3 -0.9 -11.45 -2.0 -8.9 -1.85 -8.45 -4.75 -7.15 -8.4 -7.95 -8.55 -9.25 -5.75 -10.3 -3.45 Q-11.45 -2.0 -13.3 -2.0 L-14.55 -2.3 -14.55 -2.5 Q-14.55 -6.25 -13.75 -8.2 -12.7 -10.95 -11.6 -11.3 L-11.6 -11.85 -11.15 -12.85 -9.9 -13.2 -8.85 -12.65 Q-8.35 -12.4 -8.65 -11.85 L-8.75 -11.35 Q-8.95 -10.45 -6.15 -9.45 -3.35 -8.55 -2.25 -8.75 -1.15 -8.95 -0.35 -9.3 L0.45 -9.7 Q0.85 -9.45 1.2 -9.3 L3.9 -8.45 4.55 -8.2 4.55 -8.0 Q4.55 -7.55 3.9 -7.1 L3.4 -6.75 0.1 -8.05 -1.05 -7.7 -2.35 -7.4 -4.6 -7.6 -2.35 -7.4 -1.05 -7.7 0.1 -8.05 3.4 -6.75 3.65 -5.35 Q3.65 -1.5 1.7 0.45 0.25 1.95 -1.45 1.8 -2.1 1.0 -3.3 0.2 -4.85 -0.85 -6.45 -1.25 L-6.4 -1.5 -6.45 -1.25 Q-4.85 -0.85 -3.3 0.2 -2.1 1.0 -1.45 1.8 L-1.35 1.95 Q-0.95 2.7 -0.5 4.25 L-0.5 4.3 Q-0.65 4.8 -1.25 5.1 L-1.45 5.2 Q-2.15 2.95 -4.55 1.35 -6.95 -0.25 -9.2 -0.35 -11.5 -0.45 -12.4 0.5 -13.35 1.45 -13.35 3.7 L-13.3 3.95 -13.85 5.3 Q-14.45 7.1 -14.85 10.05 L-12.05 12.65 -6.8 15.1 -2.7 16.15 -2.1 16.25 -2.0 16.75 -2.3 16.9 -3.1 16.95 -5.7 16.35 -8.1 15.7 -9.65 15.05 -10.9 14.5 -13.9 12.75 -15.1 12.0 M-6.4 -1.5 L-5.95 -4.2 Q-5.6 -6.3 -4.8 -7.7 L-4.6 -7.6 Q-4.75 -7.8 -5.0 -7.8 -6.3 -7.8 -7.0 -2.7 -7.0 -1.7 -6.4 -1.5 M-11.6 -11.3 L-10.1 -11.1 Q-10.1 -10.4 -9.6 -9.6 L-8.75 -8.75 -7.95 -8.55 -8.75 -8.75 -9.6 -9.6 Q-10.1 -10.4 -10.1 -11.1 L-11.6 -11.3" fill="#ffffff" fill-rule="evenodd" stroke="none"/>
      <path d="M4.55 -8.2 L6.1 -7.6 7.4 -7.1 8.9 -6.6 8.95 -6.6 Q9.55 -6.3 9.55 -5.2 9.55 -1.45 12.45 0.3 15.3 2.0 17.05 -0.95 17.6 0.6 16.55 2.6 L15.85 3.75 Q13.9 6.45 13.0 8.5 12.1 10.55 11.95 11.3 L11.85 12.25 12.4 12.45 12.5 13.25 Q12.4 13.95 11.5 15.0 10.55 16.0 6.8 17.1 2.95 18.2 0.2 18.15 L-4.95 17.45 Q-7.4 16.85 -10.8 15.1 -13.55 13.7 -15.1 12.0 L-13.9 12.75 -10.9 14.5 -9.65 15.05 -8.1 15.7 -5.7 16.35 -3.1 16.95 -2.3 16.9 -2.0 16.75 -2.1 16.25 1.2 16.35 Q-0.3 8.9 -2.05 5.4 L-2.05 5.35 Q-2.45 4.6 -3.55 3.4 -4.65 2.2 -7.6 1.1 -10.6 -0.05 -11.8 1.4 -12.65 2.4 -13.3 3.95 L-13.35 3.7 Q-13.35 1.45 -12.4 0.5 -11.5 -0.45 -9.2 -0.35 -6.95 -0.25 -4.55 1.35 -2.15 2.95 -1.45 5.2 L-1.25 5.1 Q-0.65 4.8 -0.5 4.3 L-0.5 4.25 Q-0.95 2.7 -1.35 1.95 L-1.45 1.8 Q0.25 1.95 1.7 0.45 3.65 -1.5 3.65 -5.35 L3.4 -6.75 3.9 -7.1 Q4.55 -7.55 4.55 -8.0 L4.55 -8.2 M-14.0 -0.3 Q-14.6 -1.15 -14.55 -2.3 L-13.3 -2.0 Q-11.45 -2.0 -10.3 -3.45 L-9.25 -5.75 -7.95 -8.55 -7.15 -8.4 -8.45 -4.75 -8.9 -1.85 -11.45 -2.0 -13.3 -0.9 -14.0 -0.3 M16.55 2.6 L13.65 3.0 12.25 2.65 11.45 2.15 Q9.9 4.95 7.85 6.5 5.8 8.0 4.15 8.0 L1.95 7.95 Q1.4 7.95 0.8 7.4 L-0.2 4.95 0.2 5.35 0.3 5.45 3.2 6.0 5.0 5.8 6.4 5.35 7.2 4.9 8.5 3.2 9.65 1.4 8.3 -1.8 8.05 -3.5 Q7.95 -4.6 7.3 -5.0 L3.45 -6.75 3.4 -6.75 3.45 -6.75 7.3 -5.0 Q7.95 -4.6 8.05 -3.5 L8.3 -1.8 9.65 1.4 8.5 3.2 7.2 4.9 6.4 5.35 5.0 5.8 3.2 6.0 0.3 5.45 0.2 5.35 -0.2 4.95 0.8 7.4 Q1.4 7.95 1.95 7.95 L4.15 8.0 Q5.8 8.0 7.85 6.5 9.9 4.95 11.45 2.15 L12.25 2.65 13.65 3.0 16.55 2.6 M-4.6 -7.6 L-4.8 -7.7 Q-5.6 -6.3 -5.95 -4.2 L-6.4 -1.5 Q-7.0 -1.7 -7.0 -2.7 -6.3 -7.8 -5.0 -7.8 -4.75 -7.8 -4.6 -7.6 M11.85 12.25 L11.85 12.3 10.8 13.6 Q9.65 14.7 7.65 15.35 L3.45 16.25 Q2.9 13.25 1.85 10.15 L0.8 7.4 1.85 10.15 Q2.9 13.25 3.45 16.25 L7.65 15.35 Q9.65 14.7 10.8 13.6 L11.85 12.3 11.85 12.25 M-0.2 4.95 L-0.5 4.3 -0.2 4.95" fill="#d1b6b6" fill-rule="evenodd" stroke="none"/>
      <path d="M4.55 -8.2 L6.1 -7.6 7.4 -7.1 8.9 -6.6 8.95 -6.6 Q9.55 -6.3 9.55 -5.2 9.55 -1.45 12.45 0.3 15.3 2.0 17.05 -0.95 17.6 0.6 16.55 2.6 L15.85 3.75 Q13.9 6.45 13.0 8.5 12.1 10.55 11.95 11.3 L11.85 12.25 12.4 12.45 12.5 13.25 Q12.4 13.95 11.5 15.0 10.55 16.0 6.8 17.1 2.95 18.2 0.2 18.15 L-4.95 17.45 Q-7.4 16.85 -10.8 15.1 -13.55 13.7 -15.1 12.0 L-15.15 11.95 -15.75 11.2 -15.8 11.15 Q-16.2 11.35 -15.35 6.85 L-13.95 -0.25 -14.0 -0.3 Q-14.6 -1.15 -14.55 -2.3 L-14.55 -2.5 Q-14.55 -6.25 -13.75 -8.2 -12.7 -10.95 -11.6 -11.3 L-11.6 -11.85 -11.15 -12.85 -9.9 -13.2 -8.85 -12.65 Q-8.35 -12.4 -8.65 -11.85 L-8.75 -11.35 Q-8.95 -10.45 -6.15 -9.45 -3.35 -8.55 -2.25 -8.75 -1.15 -8.95 -0.35 -9.3 L0.45 -9.7 Q0.85 -9.45 1.2 -9.3 L3.9 -8.45 4.55 -8.2 M3.4 -6.75 L3.45 -6.75 7.3 -5.0 Q7.95 -4.6 8.05 -3.5 L8.3 -1.8 9.65 1.4 8.5 3.2 7.2 4.9 6.4 5.35 5.0 5.8 3.2 6.0 0.3 5.45 0.2 5.35 -0.2 4.95 0.8 7.4 Q1.4 7.95 1.95 7.95 L4.15 8.0 Q5.8 8.0 7.85 6.5 9.9 4.95 11.45 2.15 L12.25 2.65 13.65 3.0 16.55 2.6 M3.4 -6.75 L0.1 -8.05 -1.05 -7.7 -2.35 -7.4 -4.6 -7.6 -4.8 -7.7 Q-5.6 -6.3 -5.95 -4.2 L-6.4 -1.5 -6.45 -1.25 Q-4.85 -0.85 -3.3 0.2 -2.1 1.0 -1.45 1.8 L-1.35 1.95 Q-0.95 2.7 -0.5 4.25 L-0.5 4.3 -0.2 4.95 M0.8 7.4 L1.85 10.15 Q2.9 13.25 3.45 16.25 L7.65 15.35 Q9.65 14.7 10.8 13.6 L11.85 12.3 11.85 12.25 M-14.0 -0.3 L-13.3 -0.9 -11.45 -2.0 -8.9 -1.85 -8.45 -4.75 -7.15 -8.4 -7.95 -8.55 -8.75 -8.75 -9.6 -9.6 Q-10.1 -10.4 -10.1 -11.1 L-11.6 -11.3 M-13.3 3.95 Q-12.65 2.4 -11.8 1.4 -10.6 -0.05 -7.6 1.1 -4.65 2.2 -3.55 3.4 -2.45 4.6 -2.05 5.35 L-2.05 5.4 Q-0.3 8.9 1.2 16.35 L-2.1 16.25 M-13.3 3.95 L-13.85 5.3 Q-14.45 7.1 -14.85 10.05 L-12.05 12.65 -6.8 15.1 -2.7 16.15 -2.1 16.25" fill="none" stroke="#000000" stroke-linecap="round" stroke-linejoin="round" stroke-opacity="0.3019608" stroke-width="0.05"/>
    </g>
    <g id="shape2" transform="matrix(1.0, 0.0, 0.0, 1.0, 15.1, -4.5)">
      <path d="M-12.6 4.5 Q-11.35 4.5 -10.65 5.15 -10.15 5.6 -10.15 5.9 -10.15 6.4 -11.0 6.7 L-12.7 6.95 -14.55 6.5 -15.1 5.75 Q-15.1 5.3 -14.5 4.95 L-14.05 4.75 -13.65 4.6 -13.4 4.5 -12.6 4.5 M-11.15 9.65 Q-11.6 9.65 -11.9 9.3 L-12.15 8.8 Q-12.15 8.15 -11.1 8.25 -10.1 8.35 -10.1 8.85 L-10.4 9.4 -11.15 9.65" fill="#ffffff" fill-rule="evenodd" stroke="none"/>
    </g>
  </defs>
</svg>
