<?xml version="1.0" encoding="UTF-8" standalone="no"?>
<svg xmlns:xlink="http://www.w3.org/1999/xlink" height="26.75px" width="15.75px" xmlns="http://www.w3.org/2000/svg">
  <g transform="matrix(1.0, 0.0, 0.0, 1.0, -0.35, 1.1)">
    <use height="26.75" id="_col3" transform="matrix(1.0, 0.0, 0.0, 1.0, 0.35, -1.1)" width="15.75" xlink:href="#sprite0"/>
    <use height="9.45" id="_col4a" transform="matrix(0.5977, 0.0, 0.0, 1.2273, 2.0316, 7.0318)" width="5.6" xlink:href="#sprite1"/>
  </g>
  <defs>
    <g id="sprite0" transform="matrix(1.0, 0.0, 0.0, 1.0, -0.35, 1.1)">
      <use height="26.75" transform="matrix(1.0, 0.0, 0.0, 1.0, 0.35, -1.1)" width="15.75" xlink:href="#shape0"/>
    </g>
    <g id="shape0" transform="matrix(1.0, 0.0, 0.0, 1.0, -0.35, 1.1)">
      <path d="M6.75 25.65 Q4.65 25.6 3.9 24.95 L1.55 22.65 Q0.0 21.0 0.45 16.6 L0.95 10.05 1.3 8.2 1.4 7.75 2.0 5.6 Q2.4 4.6 3.05 4.0 L3.2 3.8 Q4.2 2.7 5.6 2.2 9.55 0.75 11.05 0.8 L11.75 0.8 11.8 0.85 12.2 1.45 Q10.9 2.05 9.6 2.9 6.95 4.55 6.95 7.75 6.15 17.15 6.75 25.65" fill="#ffffff" fill-rule="evenodd" stroke="none"/>
      <path d="M11.75 0.8 L12.8 0.65 13.8 0.3 15.5 -0.5 16.1 -1.1 15.8 1.5 15.75 1.8 Q14.8 10.15 14.65 16.15 14.6 18.95 14.15 21.7 13.45 23.1 12.55 24.15 L11.7 25.0 11.05 25.25 8.0 25.65 6.75 25.65 Q6.15 17.15 6.95 7.75 6.95 4.55 9.6 2.9 10.9 2.05 12.2 1.45 L11.8 0.85 11.75 0.8" fill="#d6baba" fill-rule="evenodd" stroke="none"/>
      <path d="M11.75 0.8 L12.8 0.65 13.8 0.3 15.5 -0.5 16.1 -1.1 15.8 1.5 15.75 1.8 Q14.8 10.15 14.65 16.15 14.6 18.95 14.15 21.7 13.45 23.1 12.55 24.15 L11.7 25.0 M1.55 22.65 Q0.0 21.0 0.45 16.6 L0.95 10.05 1.3 8.2 1.4 7.75 2.0 5.6 Q2.4 4.6 3.05 4.0 L3.2 3.8 Q4.2 2.7 5.6 2.2 9.55 0.75 11.05 0.8 L11.75 0.8 Z" fill="none" stroke="#000000" stroke-linecap="round" stroke-linejoin="round" stroke-opacity="0.3019608" stroke-width="0.05"/>
    </g>
    <g id="sprite1" transform="matrix(1.0, 0.0, 0.0, 1.0, 0.7, 0.3)">
      <use height="9.45" transform="matrix(1.0, 0.0, 0.0, 1.0, -0.7, -0.3)" width="5.6" xlink:href="#shape1"/>
    </g>
    <g id="shape1" transform="matrix(1.0, 0.0, 0.0, 1.0, 0.7, 0.3)">
      <path d="M0.6 8.3 Q1.6 7.45 1.7 6.45 2.0 4.3 -0.7 2.75 -0.5 1.05 1.2 0.0 L1.65 -0.3 1.8 0.3 1.8 0.9 4.5 3.65 Q5.05 4.1 4.85 4.7 3.85 7.7 -0.5 9.15 L0.6 8.3" fill="#ffffff" fill-rule="evenodd" stroke="none"/>
      <path d="M0.6 8.3 L-0.5 9.15 Q3.85 7.7 4.85 4.7 5.05 4.1 4.5 3.65 L1.8 0.9 1.8 0.3 1.65 -0.3 1.2 0.0 Q-0.5 1.05 -0.7 2.75 2.0 4.3 1.7 6.45 1.6 7.45 0.6 8.3 Z" fill="none" stroke="#000000" stroke-linecap="round" stroke-linejoin="round" stroke-opacity="0.3019608" stroke-width="0.05"/>
    </g>
  </defs>
</svg>
