<?xml version="1.0" encoding="UTF-8" standalone="no"?>
<svg xmlns:xlink="http://www.w3.org/1999/xlink" height="38.65px" width="29.95px" xmlns="http://www.w3.org/2000/svg">
  <g transform="matrix(1.0, 0.0, 0.0, 1.0, 15.0, 19.35)">
    <use height="38.65" transform="matrix(1.0, 0.0, 0.0, 1.0, -15.0, -19.35)" width="29.95" xlink:href="#shape0"/>
    <use height="19.9" id="_col3" transform="matrix(1.0954, 0.0, 0.0, 1.0379, -14.5043, -5.9771)" width="26.25" xlink:href="#sprite0"/>
    <use height="16.5" transform="matrix(1.0, 0.0, 0.0, 1.0, -12.7, -1.9)" width="21.7" xlink:href="#shape2"/>
  </g>
  <defs>
    <g id="shape0" transform="matrix(1.0, 0.0, 0.0, 1.0, 15.0, 19.35)">
      <path d="M5.2 -4.7 L7.5 -3.65 Q10.6 -1.9 12.45 0.9 L12.65 1.15 Q14.8 4.7 14.05 8.45 L12.8 11.75 Q12.0 13.15 8.95 13.9 L8.05 10.45 Q7.15 7.1 6.05 6.85 4.9 6.65 4.3 9.65 3.6 12.6 4.45 14.6 L3.45 14.65 -6.1 14.3 -8.05 13.75 -8.35 12.7 -8.6 11.25 -8.85 9.15 -8.95 6.95 -8.9 6.1 Q-8.95 5.65 -9.6 5.6 -10.2 5.55 -11.45 7.5 -12.75 9.55 -12.75 11.2 -14.35 9.9 -14.5 8.35 L-14.5 8.05 -14.5 8.0 Q-14.65 4.1 -11.9 -0.5 L-11.65 -1.05 Q-8.85 -5.35 -3.0 -5.85 1.25 -6.3 5.2 -4.7" fill="#cccccc" fill-rule="evenodd" stroke="none"/>
      <path d="M-0.45 19.3 L-1.35 19.25 Q-6.35 19.0 -9.05 17.75 -11.75 16.5 -13.85 14.65 -15.75 12.55 -14.5 8.35 -14.35 9.9 -12.75 11.2 L-12.75 11.25 -12.65 11.3 Q-11.05 12.6 -8.05 13.75 L-6.1 14.3 3.45 14.65 3.5 15.25 Q3.5 16.1 0.25 18.7 L-0.45 19.3" fill="#cc9900" fill-rule="evenodd" stroke="none"/>
      <path d="M6.0 -17.9 L6.25 -15.1 Q6.25 -9.6 5.2 -4.7 1.25 -6.3 -3.0 -5.85 -8.85 -5.35 -11.65 -1.05 L-11.7 -1.2 Q-11.7 -4.45 -9.9 -9.55 L-8.8 -12.15 Q-8.35 -12.7 -7.7 -14.75 -7.2 -16.7 -3.7 -19.15 1.65 -19.9 6.0 -17.9" fill="#996600" fill-rule="evenodd" stroke="none"/>
      <path d="M6.0 -17.9 L6.2 -17.8 Q9.5 -16.45 10.2 -12.55 L12.15 -2.4 12.45 0.9 Q10.6 -1.9 7.5 -3.65 L5.2 -4.7 Q6.25 -9.6 6.25 -15.1 L6.0 -17.9" fill="#764701" fill-rule="evenodd" stroke="none"/>
      <path d="M14.05 8.45 Q14.75 9.3 14.9 10.45 15.3 14.55 12.85 16.35 10.2 18.15 6.95 18.8 L1.5 19.3 -0.45 19.3 0.25 18.7 Q3.5 16.1 3.5 15.25 L3.45 14.65 4.45 14.6 4.55 14.6 5.95 14.45 8.95 13.9 Q12.0 13.15 12.8 11.75 L14.05 8.45" fill="#ad8000" fill-rule="evenodd" stroke="none"/>
      <path d="M12.45 0.9 L12.15 -2.4 10.2 -12.55 Q9.5 -16.45 6.2 -17.8 L6.0 -17.9 M5.2 -4.7 L7.5 -3.65 Q10.6 -1.9 12.45 0.9 L12.65 1.15 Q14.8 4.7 14.05 8.45 14.75 9.3 14.9 10.45 15.3 14.55 12.85 16.35 10.2 18.15 6.95 18.8 L1.5 19.3 -0.45 19.3 -1.35 19.25 Q-6.35 19.0 -9.05 17.75 -11.75 16.5 -13.85 14.65 -15.75 12.55 -14.5 8.35 L-14.5 8.05 -14.5 8.0 Q-14.65 4.1 -11.9 -0.5 L-11.65 -1.05 -11.7 -1.2 Q-11.7 -4.45 -9.9 -9.55 L-8.8 -12.15 Q-8.35 -12.7 -7.7 -14.75 -7.2 -16.7 -3.7 -19.15 1.65 -19.9 6.0 -17.9 M14.05 8.45 L12.8 11.75 Q12.0 13.15 8.95 13.9 L5.95 14.45 4.55 14.6 4.45 14.6 3.45 14.65 M-11.65 -1.05 Q-8.85 -5.35 -3.0 -5.85 1.25 -6.3 5.2 -4.7 M-8.05 13.75 L-6.1 14.3 3.45 14.65 M-8.05 13.75 Q-11.05 12.6 -12.65 11.3 L-12.75 11.25 -12.75 11.2 Q-14.35 9.9 -14.5 8.35" fill="none" stroke="#000000" stroke-linecap="round" stroke-linejoin="round" stroke-opacity="0.3019608" stroke-width="0.05"/>
    </g>
    <g id="sprite0" transform="matrix(1.0, 0.0, 0.0, 1.0, 13.15, 9.95)">
      <use height="19.9" transform="matrix(1.0, 0.0, 0.0, 1.0, -13.15, -9.95)" width="26.25" xlink:href="#shape1"/>
    </g>
    <g id="shape1" transform="matrix(1.0, 0.0, 0.0, 1.0, 13.15, 9.95)">
      <path d="M5.25 -8.6 L7.0 -7.7 Q9.8 -6.05 11.45 -3.35 L11.6 -3.1 Q13.65 0.35 12.9 3.95 L11.75 7.1 Q11.1 8.45 8.3 9.2 L5.5 9.7 4.15 9.85 Q-0.6 10.15 -5.5 9.6 L-7.25 9.05 Q-9.95 7.95 -11.5 6.6 -13.0 5.35 -13.15 3.85 L-13.15 3.55 -13.15 3.5 Q-13.2 2.05 -12.85 0.5 -11.75 1.55 -9.7 2.15 L-4.2 2.85 -3.0 2.55 Q-0.15 2.55 2.8 0.0 6.1 -2.85 6.1 -6.6 6.1 -7.4 5.25 -8.6" fill="#d6baba" fill-rule="evenodd" stroke="none"/>
      <path d="M5.25 -8.6 Q6.1 -7.4 6.1 -6.6 6.1 -2.85 2.8 0.0 -0.15 2.55 -3.0 2.55 L-4.2 2.85 -9.7 2.15 Q-11.75 1.55 -12.85 0.5 -12.35 -1.95 -10.8 -4.7 L-10.55 -5.2 Q-8.0 -9.35 -2.65 -9.85 1.25 -10.25 4.85 -8.75 L5.25 -8.6" fill="#ffffff" fill-rule="evenodd" stroke="none"/>
      <path d="M-12.85 0.5 Q-13.2 2.05 -13.15 3.5 L-13.15 3.55 -13.15 3.85 Q-13.0 5.35 -11.5 6.6 -9.95 7.95 -7.25 9.05 L-5.5 9.6 Q-0.6 10.15 4.15 9.85 L5.5 9.7 8.3 9.2 Q11.1 8.45 11.75 7.1 L12.9 3.95 Q13.65 0.35 11.6 -3.1 L11.45 -3.35 Q9.8 -6.05 7.0 -7.7 L5.25 -8.6 M-12.85 0.5 Q-12.35 -1.95 -10.8 -4.7 L-10.55 -5.2 Q-8.0 -9.35 -2.65 -9.85 1.25 -10.25 4.85 -8.75 L5.25 -8.6" fill="none" stroke="#000000" stroke-linecap="round" stroke-linejoin="round" stroke-opacity="0.3019608" stroke-width="0.05"/>
    </g>
    <g id="shape2" transform="matrix(1.0, 0.0, 0.0, 1.0, 12.7, 1.9)">
      <path d="M4.45 14.6 Q3.6 12.6 4.25 9.65 4.95 6.65 6.0 6.85 7.1 7.1 8.05 10.45 L9.0 13.9 5.9 14.45 4.45 14.6 M-12.7 11.2 Q-12.7 9.55 -11.45 7.5 -10.25 5.55 -9.6 5.6 -9.0 5.65 -8.95 6.1 L-9.0 6.95 -8.8 9.15 -8.6 11.25 -8.3 12.7 -8.05 13.75 Q-11.0 12.6 -12.6 11.3 L-12.7 11.2" fill="#ffffcc" fill-rule="evenodd" stroke="none"/>
      <path d="M4.45 14.6 Q3.6 12.6 4.25 9.65 4.95 6.65 6.0 6.85 7.1 7.1 8.05 10.45 L9.0 13.9 M-12.7 11.2 Q-12.7 9.55 -11.45 7.5 -10.25 5.55 -9.6 5.6 -9.0 5.65 -8.95 6.1 L-9.0 6.95 -8.8 9.15 -8.6 11.25 -8.3 12.7 -8.05 13.75" fill="none" stroke="#000000" stroke-linecap="round" stroke-linejoin="round" stroke-opacity="0.3019608" stroke-width="0.05"/>
      <path d="M-4.9 -1.9 Q-3.2 -2.0 -3.2 -1.0 -3.2 -0.6 -3.7 -0.25 -4.3 0.2 -5.2 0.2 -5.85 0.2 -6.7 -0.85 -6.7 -1.85 -4.9 -1.9" fill="#ffffff" fill-rule="evenodd" stroke="none"/>
    </g>
  </defs>
</svg>
