<?xml version="1.0" encoding="UTF-8" standalone="no"?>
<svg xmlns:xlink="http://www.w3.org/1999/xlink" height="27.4px" width="27.4px" xmlns="http://www.w3.org/2000/svg">
  <g transform="matrix(1.0, 0.0, 0.0, 1.0, 13.7, 13.7)">
    <use height="21.25" id="_col4" transform="matrix(0.7071, -0.7071, 0.7071, 0.7071, -13.717, -1.3067)" width="17.5" xlink:href="#sprite0"/>
    <use height="9.55" transform="matrix(1.0, 0.0, 0.0, 1.0, -1.45, -9.15)" width="1.5" xlink:href="#shape1"/>
  </g>
  <defs>
    <g id="sprite0" transform="matrix(1.0, 0.0, 0.0, 1.0, 7.75, 10.8)">
      <use height="21.25" transform="matrix(1.0, 0.0, 0.0, 1.0, -7.75, -10.8)" width="17.5" xlink:href="#shape0"/>
    </g>
    <g id="shape0" transform="matrix(1.0, 0.0, 0.0, 1.0, 7.75, 10.8)">
      <path d="M-6.25 0.75 L-5.95 -1.05 9.75 -10.8 8.0 -6.05 5.45 -2.95 Q1.3 2.1 0.95 2.1 L-6.25 0.75" fill="#ffffff" fill-rule="evenodd" stroke="none"/>
      <path d="M-6.25 0.75 L0.95 2.1 Q1.3 2.1 5.45 -2.95 L8.0 -6.05 3.5 6.2 -7.75 10.45 -6.25 0.75" fill="#d6baba" fill-rule="evenodd" stroke="none"/>
      <path d="M8.0 -6.05 L9.75 -10.8 -5.95 -1.05 -6.25 0.75 M8.0 -6.05 L3.5 6.2 -7.75 10.45 -6.25 0.75" fill="none" stroke="#000000" stroke-linecap="round" stroke-linejoin="round" stroke-opacity="0.3019608" stroke-width="0.05"/>
    </g>
    <g id="shape1" transform="matrix(1.0, 0.0, 0.0, 1.0, 1.45, 9.15)">
      <path d="M-0.65 -9.15 L-0.3 -7.85 -0.35 -7.2 Q0.25 -3.4 0.0 0.4 L-1.0 0.25 Q-2.1 -4.45 -0.65 -9.15" fill="#ffffff" fill-rule="evenodd" stroke="none"/>
    </g>
  </defs>
</svg>
