<?xml version="1.0" encoding="UTF-8" standalone="no"?>
<svg xmlns:xlink="http://www.w3.org/1999/xlink" height="31.3px" width="35.8px" xmlns="http://www.w3.org/2000/svg">
  <g transform="matrix(1.0, 0.0, 0.0, 1.0, 19.0, 15.8)">
    <use height="31.3" id="_col2" transform="matrix(1.0, 0.0, 0.0, 1.0, -18.4, -15.8)" width="35.2" xlink:href="#sprite0"/>
    <use height="12.2" id="_col3" transform="matrix(1.0, 0.0, 0.0, 1.0, -19.0, -6.2)" width="30.35" xlink:href="#sprite1"/>
    <use height="10.35" transform="matrix(1.0, 0.0, 0.0, 1.0, -15.45, -10.2)" width="22.35" xlink:href="#shape2"/>
  </g>
  <defs>
    <g id="sprite0" transform="matrix(1.0, 0.0, 0.0, 1.0, 18.4, 15.8)">
      <use height="31.3" transform="matrix(1.0, 0.0, 0.0, 1.0, -18.4, -15.8)" width="35.2" xlink:href="#shape0"/>
    </g>
    <g id="shape0" transform="matrix(1.0, 0.0, 0.0, 1.0, 18.4, 15.8)">
      <path d="M3.75 -9.35 L5.05 -9.8 10.65 -11.7 13.7 -5.4 14.05 -4.6 14.1 -4.5 14.7 -2.85 15.4 -0.9 15.6 -0.3 14.9 0.05 Q9.3 2.8 7.9 3.35 L6.4 3.9 4.5 4.3 6.4 3.9 7.9 3.35 Q9.3 2.8 14.9 0.05 16.2 5.1 16.8 10.3 L16.4 10.75 Q12.4 14.3 7.0 15.15 L5.15 9.55 3.6 4.25 3.65 4.2 3.95 4.3 4.5 4.3 Q3.9 3.05 3.0 -0.15 2.6 -1.45 1.6 -7.35 1.55 -7.9 2.45 -8.5 L3.75 -9.35" fill="#d6baba" fill-rule="evenodd" stroke="none"/>
      <path d="M3.75 -9.35 L2.45 -8.5 Q1.55 -7.9 1.6 -7.35 2.6 -1.45 3.0 -0.15 3.9 3.05 4.5 4.3 L3.95 4.3 3.65 4.2 3.6 4.25 5.15 9.55 7.0 15.15 6.5 15.2 4.9 14.5 Q4.1 10.45 2.9 6.65 L1.95 4.05 3.05 3.5 Q2.25 1.65 1.55 -0.9 L0.7 -3.9 0.4 -4.6 Q-0.05 -6.7 0.05 -8.95 L3.45 -9.25 3.75 -9.35 M3.65 4.2 L3.05 3.5 3.65 4.2 M-16.3 -2.35 L-16.5 2.2 -16.25 6.2 Q-17.45 5.8 -18.35 4.75 -18.5 1.15 -18.2 -2.35 L-18.15 -2.8 -18.0 -3.9 -17.85 -5.35 -17.75 -6.1 Q-17.1 -11.05 -15.4 -15.8 L-14.35 -15.5 Q-14.3 -15.05 -14.6 -13.85 -15.0 -12.7 -15.0 -11.65 -15.85 -7.7 -16.15 -4.75 L-16.3 -3.2 -16.3 -2.35 M-17.85 -5.35 L-17.65 -5.1 Q-17.25 -4.75 -16.15 -4.75 -17.25 -4.75 -17.65 -5.1 L-17.85 -5.35" fill="#ffffff" fill-rule="evenodd" stroke="none"/>
      <path d="M14.9 0.05 L15.6 -0.3 15.4 -0.9 14.7 -2.85 14.1 -4.5 14.05 -4.6 13.7 -5.4 10.65 -11.7 5.05 -9.8 3.75 -9.35 M4.5 4.3 L6.4 3.9 7.9 3.35 Q9.3 2.8 14.9 0.05 16.2 5.1 16.8 10.3 L16.4 10.75 Q12.4 14.3 7.0 15.15 L6.5 15.2 4.9 14.5 Q4.1 10.45 2.9 6.65 L1.95 4.05 3.05 3.5 Q2.25 1.65 1.55 -0.9 L0.7 -3.9 0.4 -4.6 Q-0.05 -6.7 0.05 -8.95 L3.45 -9.25 3.75 -9.35 M3.05 3.5 L3.65 4.2 3.95 4.3 4.5 4.3 M-16.3 -2.35 L-16.5 2.2 -16.25 6.2 Q-17.45 5.8 -18.35 4.75 -18.5 1.15 -18.2 -2.35 L-18.15 -2.8 -18.0 -3.9 -17.85 -5.35 -17.75 -6.1 Q-17.1 -11.05 -15.4 -15.8 L-14.35 -15.5 Q-14.3 -15.05 -14.6 -13.85 -15.0 -12.7 -15.0 -11.65 -15.85 -7.7 -16.15 -4.75 L-16.3 -3.2 -16.3 -2.35 M-16.15 -4.75 Q-17.25 -4.75 -17.65 -5.1 L-17.85 -5.35" fill="none" stroke="#000000" stroke-linecap="round" stroke-linejoin="round" stroke-opacity="0.3019608" stroke-width="0.05"/>
      <path d="M-14.8 2.0 Q-15.55 1.35 -15.65 -1.15 -15.85 -3.8 -15.25 -6.95 L-14.6 -10.3 -14.45 -11.2 -14.4 -11.4 -13.9 -11.2 -13.0 -10.8 -9.45 -9.45 Q-8.6 -9.05 -7.7 -8.8 L-6.4 -8.5 -6.2 -8.5 -6.0 -2.65 -6.2 0.6 -6.35 2.55 -7.05 4.65 -8.2 4.4 -10.95 3.9 -11.75 3.6 -13.2 3.05 -14.7 2.05 -14.8 1.95 -14.8 2.0 M-7.35 15.3 L-8.65 15.0 Q-10.95 14.45 -13.05 13.35 L-15.2 11.8 -15.15 9.3 -15.15 9.1 -14.85 3.8 -9.3 5.05 -8.25 5.3 Q-6.95 5.7 -6.95 6.05 L-6.75 8.4 -6.75 8.55 -6.85 11.0 -7.35 15.2 -7.35 15.3" fill="#ffffff" fill-rule="evenodd" stroke="none"/>
      <path d="M-14.8 2.0 L-14.8 1.95 -14.7 2.05 -13.2 3.05 -11.75 3.6 -10.95 3.9 -8.2 4.4 -7.05 4.65 -6.35 2.55 -6.2 0.6 -6.0 -2.65 -6.2 -8.5 -5.25 -8.55 -5.15 -8.55 Q-4.65 -7.85 -4.5 -4.1 L-4.5 -3.35 -4.4 -3.35 -4.4 -2.2 -4.7 2.7 -4.8 4.15 -5.7 4.6 -6.25 4.8 -6.15 4.8 -5.7 4.65 -4.75 4.2 -4.05 4.3 -4.1 8.2 -4.25 14.65 Q-4.8 15.55 -5.8 15.5 L-7.35 15.3 -7.35 15.2 -6.85 11.0 -6.75 8.55 -6.75 8.4 -6.95 6.05 Q-6.95 5.7 -8.25 5.3 L-9.3 5.05 -14.85 3.8 -14.85 3.7 Q-14.75 3.15 -14.8 2.0 L-14.7 2.05 -14.8 2.0 M-4.4 -2.2 L-4.5 -3.35 -4.4 -2.2 M-7.05 4.65 L-6.25 4.8 -7.05 4.65" fill="#d6baba" fill-rule="evenodd" stroke="none"/>
      <path d="M-6.2 -8.5 L-6.4 -8.5 -7.7 -8.8 Q-8.6 -9.05 -9.45 -9.45 L-13.0 -10.8 -13.9 -11.2 -14.4 -11.4 -14.45 -11.2 -14.6 -10.3 -15.25 -6.95 Q-15.85 -3.8 -15.65 -1.15 -15.55 1.35 -14.8 2.0 L-14.8 1.95 M-14.7 2.05 L-13.2 3.05 -11.75 3.6 -10.95 3.9 -8.2 4.4 -7.05 4.65 M-6.2 -8.5 L-5.25 -8.55 -5.15 -8.55 Q-4.65 -7.85 -4.5 -4.1 L-4.5 -3.35 -4.4 -2.2 -4.7 2.7 -4.8 4.15 -4.75 4.2 -4.05 4.3 -4.1 8.2 -4.25 14.65 Q-4.8 15.55 -5.8 15.5 L-7.35 15.3 -8.65 15.0 Q-10.95 14.45 -13.05 13.35 L-15.2 11.8 -15.15 9.3 -15.15 9.1 -14.85 3.8 M-14.85 3.7 Q-14.75 3.15 -14.8 2.0 L-14.7 2.05 M-4.8 4.15 L-5.7 4.6 -6.25 4.8 -7.05 4.65" fill="none" stroke="#000000" stroke-linecap="round" stroke-linejoin="round" stroke-opacity="0.3019608" stroke-width="0.05"/>
    </g>
    <g id="sprite1" transform="matrix(1.0, 0.0, 0.0, 1.0, 15.2, 6.1)">
      <use height="12.2" transform="matrix(1.0, 0.0, 0.0, 1.0, -15.2, -6.1)" width="30.35" xlink:href="#shape1"/>
    </g>
    <g id="shape1" transform="matrix(1.0, 0.0, 0.0, 1.0, 15.2, 6.1)">
      <path d="M-14.45 -1.1 Q-15.2 -1.05 -15.2 -1.65 L-15.0 -3.9 -14.65 -6.0 -14.25 -6.1 -13.95 -6.0 -14.2 -3.8 -14.35 -2.7 -14.45 -1.1 M13.8 5.1 L12.7 1.3 14.0 0.95 15.15 4.55 14.45 4.75 13.8 5.1 M-7.65 6.1 Q-9.0 5.95 -9.0 5.6 L-8.8 3.5 -8.8 1.75 -7.85 2.0 -7.15 2.15 -7.65 6.1" fill="#d6baba" fill-rule="evenodd" stroke="none"/>
      <path d="M-13.95 -6.0 L-14.25 -6.1 -14.65 -6.0 -15.0 -3.9 -15.2 -1.65 Q-15.2 -1.05 -14.45 -1.1 M-7.65 6.1 L-7.15 2.15 -7.85 2.0 -8.8 1.75 -8.8 3.5 -9.0 5.6 Q-9.0 5.95 -7.65 6.1 M13.8 5.1 L14.45 4.75 15.15 4.55 14.0 0.95 12.7 1.3 13.8 5.1" fill="none" stroke="#000000" stroke-linecap="round" stroke-linejoin="round" stroke-opacity="0.3019608" stroke-width="0.05"/>
    </g>
    <g id="shape2" transform="matrix(1.0, 0.0, 0.0, 1.0, 15.45, 10.2)">
      <path d="M-15.15 -4.05 L-14.55 -8.0 Q-14.55 -9.5 -13.7 -10.0 -12.9 -10.5 -11.85 -9.75 L-10.75 -9.4 -15.15 -4.05" fill="#ffffff" fill-opacity="0.8" fill-rule="evenodd" stroke="none"/>
      <path d="M6.9 -9.45 L4.95 -7.65 Q3.0 -5.75 3.0 -4.2 L2.85 -3.9 2.8 -3.9 3.0 -2.15 2.85 -0.9 2.55 -0.65 Q1.75 -1.85 1.2 -3.55 0.6 -5.3 0.6 -6.55 0.6 -8.15 1.6 -8.7 2.2 -9.05 4.05 -9.2 L4.7 -9.2 4.8 -9.15 Q5.75 -9.7 6.75 -9.65 L6.9 -9.45 M-10.75 -9.4 L-8.45 -8.7 Q-6.6 -8.15 -6.6 -7.3 -6.6 -6.45 -7.9 -5.4 L-10.4 -3.6 -14.85 0.15 -15.15 0.1 -15.3 0.0 -15.45 -1.15 -15.15 -4.05 -10.75 -9.4" fill="#ffffff" fill-opacity="0.4" fill-rule="evenodd" stroke="none"/>
    </g>
  </defs>
</svg>
