<?xml version="1.0" encoding="UTF-8" standalone="no"?>
<svg xmlns:xlink="http://www.w3.org/1999/xlink" height="45.1px" width="77.15px" xmlns="http://www.w3.org/2000/svg">
  <g transform="matrix(1.0, 0.0, 0.0, 1.0, 39.9, 25.65)">
    <use height="45.1" transform="matrix(1.0, 0.0, 0.0, 1.0, -39.9, -25.65)" width="77.15" xlink:href="#shape0"/>
    <use height="67.0" transform="matrix(0.0, 1.0, -1.0, 0.0, 30.85, -9.6)" width="27.85" xlink:href="#sprite0"/>
  </g>
  <defs>
    <g id="shape0" transform="matrix(1.0, 0.0, 0.0, 1.0, 39.9, 25.65)">
      <path d="M-12.7 0.75 L-11.0 1.05 -9.25 1.35 -8.05 0.95 -7.1 0.5 Q-6.35 0.5 -4.95 3.35 -3.55 6.25 -2.4 6.45 L-1.1 6.45 Q-0.45 6.6 0.0 8.4 0.3 9.55 1.15 10.45 1.8 11.2 2.55 11.45 L5.1 12.2 7.8 12.9 8.85 14.3 Q9.6 15.65 10.05 15.9 L12.75 16.35 Q15.05 16.35 16.4 15.35 17.8 14.3 18.85 14.3 L21.55 14.6 Q23.2 14.75 24.15 14.1 L24.7 13.55 26.3 16.35 26.1 16.45 Q22.0 18.75 17.15 19.2 L8.55 18.85 Q3.85 17.85 0.05 14.7 -3.75 11.55 -5.55 8.45 -7.35 5.3 -9.75 3.65 -11.75 2.3 -14.3 2.5 L-12.7 0.75 M25.45 12.5 L26.2 11.3 Q27.35 9.45 29.25 9.45 31.6 9.45 31.45 6.6 31.25 3.8 34.05 3.75 L36.65 3.25 36.9 2.65 Q35.3 6.55 32.9 10.1 30.95 13.05 28.3 15.05 L25.45 12.5 M34.55 2.35 L34.2 2.45 34.25 2.35 34.55 2.35" fill="#ffffff" fill-rule="evenodd" stroke="none"/>
      <path d="M-6.8 -1.8 L-5.35 -1.15 Q-0.05 1.2 2.45 1.2 L2.55 1.2 2.25 1.5 7.55 5.35 Q11.55 8.1 13.3 8.1 14.2 8.1 14.85 6.6 15.7 4.5 16.1 4.05 16.85 3.3 17.9 2.8 18.65 1.9 19.05 -1.95 19.5 -0.95 22.0 1.6 24.5 4.2 25.05 4.2 L25.35 4.1 25.4 3.75 23.35 1.05 Q22.0 -0.7 21.6 -1.85 19.4 -9.3 18.55 -9.3 18.0 -9.3 18.0 -8.15 L18.05 -7.95 17.95 -7.95 16.05 -7.55 Q16.75 -8.35 17.5 -10.05 L17.2 -10.15 17.6 -10.05 Q18.1 -10.05 18.5 -10.5 19.1 -11.25 18.9 -13.05 L17.7 -18.0 17.3 -17.55 16.8 -15.55 Q16.35 -13.95 16.35 -12.4 L16.45 -11.55 Q16.0 -10.1 15.6 -9.6 L14.7 -8.65 14.7 -9.3 14.6 -9.6 14.3 -9.6 13.65 -7.85 Q13.4 -8.25 12.75 -8.3 13.5 -9.75 13.95 -11.35 15.4 -16.35 15.9 -19.9 16.4 -23.45 17.15 -25.65 L19.1 -19.65 21.3 -11.2 Q22.7 -6.6 24.75 -3.75 26.95 -0.7 29.45 0.8 31.4 1.9 33.6 2.25 L34.25 2.35 34.2 2.45 34.55 2.35 35.45 2.25 36.45 2.05 37.25 1.75 36.9 2.65 36.65 3.25 34.05 3.75 Q31.25 3.8 31.45 6.6 31.6 9.45 29.25 9.45 27.35 9.45 26.2 11.3 L25.45 12.5 25.35 12.4 24.75 11.75 20.2 6.7 24.15 12.7 24.7 13.55 24.15 14.1 Q23.2 14.75 21.55 14.6 L18.85 14.3 Q17.8 14.3 16.4 15.35 15.05 16.35 12.75 16.35 L10.05 15.9 Q9.6 15.65 8.85 14.3 L7.8 12.9 5.1 12.2 2.55 11.45 Q1.8 11.2 1.15 10.45 0.3 9.55 0.0 8.4 -0.45 6.6 -1.1 6.45 L-2.4 6.45 Q-3.55 6.25 -4.95 3.35 -6.35 0.5 -7.1 0.5 L-8.05 0.95 -9.25 1.35 -11.0 1.05 -12.7 0.75 -11.35 -0.25 -8.75 -1.45 -6.8 -1.8 M11.85 -3.55 L12.75 -4.6 12.45 -3.5 Q10.85 2.6 9.5 2.6 7.75 2.6 5.25 1.85 L3.2 1.2 Q7.75 0.85 11.85 -3.55 M23.5 13.75 Q25.55 13.75 23.65 12.65 21.7 11.55 19.65 11.55 L15.5 12.9 Q13.3 12.9 10.8 11.85 7.8 10.45 5.8 9.75 3.75 9.0 0.85 6.0 L-4.0 0.85 Q-2.1 4.15 0.3 6.8 3.1 9.9 5.45 10.75 L10.45 13.25 Q13.25 14.7 15.45 14.7 16.35 14.7 18.4 13.9 L20.4 13.1 23.5 13.75" fill="#ccced5" fill-rule="evenodd" stroke="none"/>
      <path d="M12.75 -8.3 Q13.4 -8.25 13.65 -7.85 L14.3 -9.6 14.6 -9.6 14.7 -9.3 14.7 -8.65 15.6 -9.6 Q16.0 -10.1 16.45 -11.55 L16.35 -12.4 Q16.35 -13.95 16.8 -15.55 L17.3 -17.55 17.7 -18.0 18.9 -13.05 Q19.1 -11.25 18.5 -10.5 18.1 -10.05 17.6 -10.05 L17.2 -10.15 17.5 -10.05 Q16.75 -8.35 16.05 -7.55 L17.95 -7.95 18.05 -7.95 18.0 -8.15 Q18.0 -9.3 18.55 -9.3 19.4 -9.3 21.6 -1.85 22.0 -0.7 23.35 1.05 L25.4 3.75 25.35 4.1 25.05 4.2 Q24.5 4.2 22.0 1.6 19.5 -0.95 19.05 -1.95 18.65 1.9 17.9 2.8 16.85 3.3 16.1 4.05 15.7 4.5 14.85 6.6 14.2 8.1 13.3 8.1 11.55 8.1 7.55 5.35 L2.25 1.5 2.55 1.2 2.45 1.2 Q-0.05 1.2 -5.35 -1.15 L-6.8 -1.8 Q-4.7 -2.05 -2.65 -1.25 L-2.55 -1.2 Q-0.05 -0.3 2.55 -0.75 5.45 -1.15 8.2 -3.15 11.15 -5.3 12.75 -8.3 M11.85 -3.55 Q7.75 0.85 3.2 1.2 L5.25 1.85 Q7.75 2.6 9.5 2.6 10.85 2.6 12.45 -3.5 L12.75 -4.6 11.85 -3.55 M23.5 13.75 L20.4 13.1 18.4 13.9 Q16.35 14.7 15.45 14.7 13.25 14.7 10.45 13.25 L5.45 10.75 Q3.1 9.9 0.3 6.8 -2.1 4.15 -4.0 0.85 L0.85 6.0 Q3.75 9.0 5.8 9.75 7.8 10.45 10.8 11.85 13.3 12.9 15.5 12.9 L19.65 11.55 Q21.7 11.55 23.65 12.65 25.55 13.75 23.5 13.75" fill="#9ea4ad" fill-rule="evenodd" stroke="none"/>
      <path d="M-6.8 -1.8 L-8.75 -1.45 -11.35 -0.25 -12.7 0.75 M24.7 13.55 L24.15 12.7 20.2 6.7 24.75 11.75 25.35 12.4 25.45 12.5 M36.9 2.65 L37.25 1.75 36.45 2.05 35.45 2.25 34.55 2.35 M34.25 2.35 L33.6 2.25 Q31.4 1.9 29.45 0.8 26.95 -0.7 24.75 -3.75 22.7 -6.6 21.3 -11.2 L19.1 -19.65 17.15 -25.65 Q16.4 -23.45 15.9 -19.9 15.4 -16.35 13.95 -11.35 13.5 -9.75 12.75 -8.3 11.15 -5.3 8.2 -3.15 5.45 -1.15 2.55 -0.75 -0.05 -0.3 -2.55 -1.2 L-2.65 -1.25 Q-4.7 -2.05 -6.8 -1.8 M35.45 2.2 L35.25 2.2 35.45 2.25 35.45 2.2 M34.25 2.35 L34.55 2.35 M36.9 2.65 Q35.3 6.55 32.9 10.1 30.95 13.05 28.3 15.05 L25.45 12.5 M24.7 13.55 L26.3 16.35 26.1 16.45 Q22.0 18.75 17.15 19.2 L8.55 18.85 Q3.85 17.85 0.05 14.7 -3.75 11.55 -5.55 8.45 -7.35 5.3 -9.75 3.65 -11.75 2.3 -14.3 2.5 L-12.7 0.75" fill="none" stroke="#000000" stroke-linecap="round" stroke-linejoin="round" stroke-opacity="0.4" stroke-width="0.05"/>
      <path d="M13.25 -13.3 L12.5 -13.25 9.3 -12.9 3.25 -12.45 3.3 -12.75 3.95 -12.8 13.25 -13.3 M-27.1 -13.0 L-30.5 -13.0 Q-37.4 -12.6 -37.4 -10.85 -37.4 -9.85 -36.05 -9.85 L-33.8 -10.25 -31.95 -10.65 -27.85 -10.65 Q-24.1 -10.65 -22.35 -9.85 -20.6 -9.05 -17.2 -9.05 -11.6 -9.05 -7.6 -9.95 L-1.95 -10.85 0.3 -10.35 4.3 -9.9 16.1 -10.85 26.15 -11.85 Q28.25 -11.85 29.15 -13.3 30.05 -14.7 28.25 -14.75 30.75 -15.4 33.2 -16.4 L34.65 -10.85 30.0 -10.4 34.5 -9.35 34.35 -8.35 34.05 -7.2 33.6 -6.2 Q26.85 -8.25 19.75 -7.35 L6.3 -6.15 3.95 -6.05 -20.6 -7.35 -30.7 -6.35 Q-34.3 -5.65 -35.1 -1.95 L-36.6 -2.6 Q-39.05 -3.7 -39.75 -6.5 -40.4 -9.25 -38.2 -11.45 -37.2 -12.5 -35.9 -12.7 L-28.4 -13.1 -27.1 -13.0 M31.1 -12.75 L31.7 -12.5 Q32.75 -12.5 32.75 -13.45 32.75 -14.45 31.75 -14.45 L31.3 -14.35 Q30.75 -14.1 30.75 -13.5 30.75 -13.0 31.1 -12.75" fill="#512115" fill-rule="evenodd" stroke="none"/>
      <path d="M3.3 -12.75 L3.25 -12.45 9.3 -12.9 12.5 -13.25 13.25 -13.3 22.95 -13.85 28.25 -14.75 Q30.05 -14.7 29.15 -13.3 28.25 -11.85 26.15 -11.85 L16.1 -10.85 4.3 -9.9 0.3 -10.35 -1.95 -10.85 -7.6 -9.95 Q-11.6 -9.05 -17.2 -9.05 -20.6 -9.05 -22.35 -9.85 -24.1 -10.65 -27.85 -10.65 L-31.95 -10.65 -33.8 -10.25 -36.05 -9.85 Q-37.4 -9.85 -37.4 -10.85 -37.4 -12.6 -30.5 -13.0 L-27.1 -13.0 -20.6 -12.7 -14.85 -12.5 -5.65 -12.45 3.3 -12.75 M31.1 -12.75 Q30.75 -13.0 30.75 -13.5 30.75 -14.1 31.3 -14.35 L31.75 -14.45 Q32.75 -14.45 32.75 -13.45 32.75 -12.5 31.7 -12.5 L31.1 -12.75" fill="#853825" fill-rule="evenodd" stroke="none"/>
      <path d="M3.3 -12.75 L-5.65 -12.45 -14.85 -12.5 -20.6 -12.7 -27.1 -13.0 -28.4 -13.1 -35.9 -12.7 Q-37.2 -12.5 -38.2 -11.45 -40.4 -9.25 -39.75 -6.5 -39.05 -3.7 -36.6 -2.6 L-35.1 -1.95 Q-34.3 -5.65 -30.7 -6.35 L-20.6 -7.35 3.95 -6.05 6.3 -6.15 19.75 -7.35 Q26.85 -8.25 33.6 -6.2 L34.05 -7.2 34.35 -8.35 34.5 -9.35 30.0 -10.4 34.65 -10.85 33.2 -16.4 Q30.75 -15.4 28.25 -14.75 L22.95 -13.85 13.25 -13.3 3.95 -12.8 3.3 -12.75 Z" fill="none" stroke="#000000" stroke-linecap="round" stroke-linejoin="round" stroke-opacity="0.4" stroke-width="0.05"/>
    </g>
    <g id="sprite0" transform="matrix(1.0, 0.0, 0.0, 1.0, 57.95, 19.75)">
      <use height="67.0" transform="matrix(1.0, 0.0, 0.0, 1.0, -57.95, -19.75)" width="27.85" xlink:href="#shape1"/>
    </g>
    <g id="shape1" transform="matrix(1.0, 0.0, 0.0, 1.0, 57.95, 19.75)">
      <path d="M-56.3 -19.15 Q-56.3 -18.7 -56.65 -18.15 L-57.0 -17.2 Q-57.0 -13.95 -55.4 -0.75 L-55.5 0.25 -55.65 0.25 -56.35 -3.1 -56.35 -3.05 -56.65 3.25 -56.4 5.8 -56.45 6.8 -56.55 6.95 Q-57.25 1.9 -57.35 -0.7 L-57.25 -2.6 Q-57.15 -3.85 -57.35 -4.55 L-57.65 -6.4 -57.85 -8.25 -57.75 -10.4 -57.95 -13.7 -57.85 -16.7 Q-57.6 -17.95 -56.45 -19.75 L-56.3 -19.15 M-31.15 -5.95 Q-30.1 -0.55 -30.1 1.9 -30.1 4.45 -31.75 6.8 L-36.0 12.3 Q-37.05 13.75 -41.55 16.95 -45.65 19.9 -46.55 21.85 L-46.9 20.05 Q-46.9 18.9 -43.9 16.75 L-40.25 14.0 -38.25 10.25 Q-37.15 8.05 -36.05 7.25 -32.05 4.35 -31.5 0.65 -31.6 -3.65 -31.3 -5.95 L-31.15 -5.95 M-30.55 -8.9 Q-30.7 -8.45 -31.2 -8.45 -31.95 -8.45 -32.05 -10.25 -32.05 -11.25 -31.25 -11.1 -30.5 -10.95 -30.5 -9.7 L-30.55 -8.9 M-54.95 5.45 L-54.75 7.7 -55.0 10.85 Q-55.0 13.35 -55.8 21.15 L-55.95 22.55 -56.5 12.5 -55.75 7.55 Q-55.2 4.4 -55.65 2.6 L-55.5 2.6 -54.95 5.45 M-55.9 31.45 L-56.1 36.6 -56.1 38.9 -56.1 39.1 Q-55.75 40.2 -55.35 43.0 -54.6 45.45 -51.65 46.4 L-51.6 46.65 -52.05 46.7 Q-53.5 46.7 -54.45 45.9 -53.9 46.65 -53.1 46.7 L-53.05 46.85 -53.35 47.1 -53.8 47.25 Q-55.65 47.25 -56.15 44.7 L-56.45 41.05 -56.8 38.05 Q-57.25 33.45 -56.55 28.95 L-56.05 25.15 Q-55.7 28.35 -55.9 31.45" fill="#ffd633" fill-rule="evenodd" stroke="none"/>
    </g>
  </defs>
</svg>
