<?xml version="1.0" encoding="UTF-8" standalone="no"?>
<svg xmlns:xlink="http://www.w3.org/1999/xlink" height="44.25px" width="37.4px" xmlns="http://www.w3.org/2000/svg">
  <g transform="matrix(1.0, 0.0, 0.0, 1.0, 14.05, 20.9)">
    <use height="22.55" id="_col0" transform="matrix(1.0, 0.0, 0.0, 1.0, -10.7, -20.8)" width="28.0" xlink:href="#sprite0"/>
    <use height="44.25" id="_p7" transform="matrix(1.0, 0.0, 0.0, 1.0, -14.05, -20.9)" width="37.4" xlink:href="#sprite1"/>
  </g>
  <defs>
    <g id="sprite0" transform="matrix(1.0, 0.0, 0.0, 1.0, 10.7, 20.8)">
      <use height="22.55" transform="matrix(1.0, 0.0, 0.0, 1.0, -10.7, -20.8)" width="28.0" xlink:href="#shape0"/>
    </g>
    <g id="shape0" transform="matrix(1.0, 0.0, 0.0, 1.0, 10.7, 20.8)">
      <path d="M-1.05 1.4 Q-2.9 1.1 -4.4 0.4 -6.55 -0.1 -8.2 -1.4 -10.2 -2.4 -10.7 -4.95 L-10.55 -6.1 -10.2 -8.45 Q-9.7 -11.75 -8.7 -14.75 -8.2 -16.45 -6.2 -17.95 -4.2 -19.6 -1.55 -20.45 L2.8 -20.8 3.65 -20.8 Q3.65 -18.95 4.65 -17.3 L4.85 -16.85 5.2 -14.75 4.65 -12.95 Q2.95 -10.1 3.15 -7.1 3.15 -4.1 1.45 -1.9 L-1.05 1.4 M-4.9 -7.45 Q-6.2 -7.1 -5.7 -6.25 -5.4 -6.1 -5.2 -6.45 -5.05 -6.45 -5.05 -6.6 L-4.9 -7.45 -4.9 -9.75 -4.9 -7.45" fill="#efcdaf" fill-rule="evenodd" stroke="none"/>
      <path d="M-1.05 1.4 L1.45 -1.9 Q3.15 -4.1 3.15 -7.1 2.95 -10.1 4.65 -12.95 L5.2 -14.75 4.85 -16.85 4.65 -17.3 Q3.65 -18.95 3.65 -20.8 L4.45 -20.65 8.8 -19.45 9.65 -18.95 Q10.9 -18.15 12.5 -17.8 L13.8 -17.3 14.1 -16.8 Q14.65 -15.9 14.5 -14.75 14.4 -12.55 15.5 -10.1 L17.15 -5.6 Q17.8 -3.75 15.15 -1.9 12.3 -0.1 10.3 0.4 L5.8 1.75 1.8 1.75 0.3 1.75 -0.7 1.6 Q-0.85 1.4 -1.05 1.4 M-4.9 -7.45 L-5.05 -6.6 Q-5.05 -6.45 -5.2 -6.45 -5.4 -6.1 -5.7 -6.25 -6.2 -7.1 -4.9 -7.45" fill="#c6886a" fill-rule="evenodd" stroke="none"/>
      <path d="M3.65 -20.8 L2.8 -20.8 -1.55 -20.45 Q-4.2 -19.6 -6.2 -17.95 -8.2 -16.45 -8.7 -14.75 -9.7 -11.75 -10.2 -8.45 L-10.55 -6.1 -10.7 -4.95 Q-10.2 -2.4 -8.2 -1.4 -6.55 -0.1 -4.4 0.4 -2.9 1.1 -1.05 1.4 M3.65 -20.8 L4.45 -20.65 8.8 -19.45 M12.5 -17.8 L13.8 -17.3 14.1 -16.8 Q14.65 -15.9 14.5 -14.75 14.4 -12.55 15.5 -10.1 L17.15 -5.6 Q17.8 -3.75 15.15 -1.9 12.3 -0.1 10.3 0.4 L5.8 1.75 1.8 1.75 0.3 1.75 -0.7 1.6 M-4.9 -7.45 L-5.05 -6.6 Q-5.05 -6.45 -5.2 -6.45 -5.4 -6.1 -5.7 -6.25 -6.2 -7.1 -4.9 -7.45 L-4.9 -9.75" fill="none" stroke="#000000" stroke-linecap="round" stroke-linejoin="round" stroke-opacity="0.3019608" stroke-width="0.05"/>
    </g>
    <g id="sprite1" transform="matrix(1.0, 0.0, 0.0, 1.0, 17.95, 28.0)">
      <use height="28.6" id="_p1" transform="matrix(1.0, 0.0, 0.0, 1.0, -17.0, -14.3)" width="34.05" xlink:href="#sprite2"/>
    </g>
  </defs>
</svg>
