<?xml version="1.0" encoding="UTF-8" standalone="no"?>
<svg xmlns:xlink="http://www.w3.org/1999/xlink" height="57.85px" width="28.45px" xmlns="http://www.w3.org/2000/svg">
  <g transform="matrix(1.0, 0.0, 0.0, 1.0, 13.9, 28.3)">
    <use height="57.85" transform="matrix(1.0, 0.0, 0.0, 1.0, -13.9, -28.3)" width="28.45" xlink:href="#shape0"/>
  </g>
  <defs>
    <g id="shape0" transform="matrix(1.0, 0.0, 0.0, 1.0, 13.9, 28.3)">
      <path d="M-4.25 2.25 Q-1.75 -4.65 0.5 -11.9 L5.3 -27.9 7.75 -26.55 Q9.4 -26.25 11.8 -27.15 L14.55 -28.3 13.9 -25.9 Q10.2 -23.55 8.3 -23.75 6.35 -24.0 6.5 -22.0 6.6 -20.0 4.6 -15.35 2.6 -10.7 2.1 -8.15 L-4.6 5.2 -8.95 14.25 -7.6 11.1 -6.9 9.4 -5.1 4.65 -4.25 2.25 M-10.6 8.45 Q-13.9 7.35 -13.9 6.5 -13.45 5.15 -13.35 3.05 L-13.3 2.75 Q-13.2 0.45 -12.25 0.5 -11.3 0.55 -8.45 1.6 L-8.0 1.7 -8.8 3.8 -9.0 4.35 -10.6 8.45" fill="#ffffff" fill-rule="evenodd" stroke="none"/>
      <path d="M13.9 -25.9 Q11.55 -18.0 8.65 -9.7 4.7 1.9 1.8 7.8 L-3.7 20.15 Q-5.5 24.1 -6.6 25.7 L-7.7 27.6 Q-8.2 28.55 -10.15 29.35 -12.1 30.15 -13.05 27.95 -14.05 25.75 -13.5 24.55 L-12.3 21.8 -8.95 14.25 -4.6 5.2 2.1 -8.15 Q2.6 -10.7 4.6 -15.35 6.6 -20.0 6.5 -22.0 6.35 -24.0 8.3 -23.75 10.2 -23.55 13.9 -25.9 M-6.9 9.4 L-10.2 8.55 -10.6 8.45 -9.0 4.35 -8.8 3.8 -8.0 1.7 -4.25 2.25 -5.1 4.65 -6.9 9.4" fill="#d6baba" fill-rule="evenodd" stroke="none"/>
      <path d="M-4.25 2.25 Q-1.75 -4.65 0.5 -11.9 L5.3 -27.9 7.75 -26.55 Q9.4 -26.25 11.8 -27.15 L14.55 -28.3 13.9 -25.9 Q11.55 -18.0 8.65 -9.7 4.7 1.9 1.8 7.8 L-3.7 20.15 Q-5.5 24.1 -6.6 25.7 L-7.7 27.6 Q-8.2 28.55 -10.15 29.35 -12.1 30.15 -13.05 27.95 -14.05 25.75 -13.5 24.55 L-12.3 21.8 -8.95 14.25 -7.6 11.1 -6.9 9.4 -10.2 8.55 -10.6 8.45 Q-13.9 7.35 -13.9 6.5 -13.45 5.15 -13.35 3.05 L-13.3 2.75 Q-13.2 0.45 -12.25 0.5 -11.3 0.55 -8.45 1.6 L-8.0 1.7 -4.25 2.25 -5.1 4.65 -6.9 9.4" fill="none" stroke="#000000" stroke-linecap="round" stroke-linejoin="round" stroke-opacity="0.3019608" stroke-width="0.05"/>
    </g>
  </defs>
</svg>
