<?xml version="1.0" encoding="UTF-8" standalone="no"?>
<svg xmlns:xlink="http://www.w3.org/1999/xlink" height="51.8px" width="33.6px" xmlns="http://www.w3.org/2000/svg">
  <g transform="matrix(1.0, 0.0, 0.0, 1.0, 16.35, 22.55)">
    <use height="25.1" transform="matrix(1.0, 0.0, 0.0, 1.0, -9.8, -7.75)" width="18.6" xlink:href="#sprite0"/>
  </g>
  <defs>
    <g id="sprite0" transform="matrix(1.0, 0.0, 0.0, 1.0, 9.3, 12.55)">
      <use height="25.1" transform="matrix(1.0, 0.0, 0.0, 1.0, -9.3, -12.55)" width="18.6" xlink:href="#shape0"/>
    </g>
    <g id="shape0" transform="matrix(1.0, 0.0, 0.0, 1.0, 9.3, 12.55)">
      <path d="M-6.05 8.2 Q-3.4 6.45 -1.3 3.9 0.45 1.75 0.85 0.45 L0.7 -0.2 0.6 -0.4 2.3 -2.3 Q4.25 -4.3 5.95 -4.35 L8.25 -4.95 Q8.05 -3.85 6.1 -1.3 L2.05 3.1 1.65 3.5 -1.3 6.15 1.65 3.5 2.05 3.1 5.2 7.15 Q4.9 8.3 4.1 8.65 L1.35 9.0 -1.3 6.15 -4.15 8.55 -5.75 8.25 -6.05 8.2 M-0.3 0.5 L-2.95 3.3 -3.45 3.85 -4.7 2.35 -4.15 1.7 Q-3.85 1.25 -3.6 -2.55 L-3.6 -2.8 -2.45 -1.65 -0.3 0.5" fill="#764701" fill-rule="evenodd" stroke="none"/>
      <path d="M0.6 -0.4 L0.7 -0.2 0.85 0.45 Q0.45 1.75 -1.3 3.9 -3.4 6.45 -6.05 8.2 -6.15 8.1 -6.2 8.1 L-6.8 7.2 -3.45 3.85 -2.95 3.3 -0.3 0.5 0.6 -0.4 M-4.7 2.35 L-5.55 1.35 Q-8.5 -2.1 -7.5 -5.15 L-6.95 -5.25 Q-6.25 -5.35 -5.65 -4.65 L-3.95 -3.25 -3.8 -3.05 -3.6 -2.8 -3.6 -2.55 Q-3.85 1.25 -4.15 1.7 L-4.7 2.35" fill="#996600" fill-rule="evenodd" stroke="none"/>
      <path d="M-6.05 8.2 L-5.75 8.25 -4.15 8.55 -1.3 6.15 1.65 3.5 2.05 3.1 6.1 -1.3 Q8.05 -3.85 8.25 -4.95 L5.95 -4.35 Q4.25 -4.3 2.3 -2.3 L0.6 -0.4 -0.3 0.5 -2.95 3.3 -3.45 3.85 -6.8 7.2 -6.2 8.1 M-1.3 6.15 L1.35 9.0 4.1 8.65 Q4.9 8.3 5.2 7.15 L2.05 3.1 M-4.7 2.35 L-5.55 1.35 Q-8.5 -2.1 -7.5 -5.15 L-6.95 -5.25 Q-6.25 -5.35 -5.65 -4.65 L-3.95 -3.25 -3.8 -3.05 -3.6 -2.8 -2.45 -1.65 -0.3 0.5 M-4.7 2.35 L-3.45 3.85" fill="none" stroke="#000000" stroke-linecap="round" stroke-linejoin="round" stroke-opacity="0.3019608" stroke-width="0.05"/>
      <path d="M7.8 -12.55 L9.25 -10.05 9.3 -9.75 9.3 -9.7 8.9 -6.75 Q8.5 -4.35 6.2 -2.9 3.85 -1.5 1.05 -1.3 L-1.35 -1.3 -1.25 -1.8 Q-1.25 -2.85 -0.6 -3.7 0.1 -4.6 1.1 -4.6 1.8 -4.6 2.3 -5.0 2.8 -5.35 2.95 -6.0 4.0 -6.2 4.95 -6.75 L6.0 -7.45 8.0 -9.55 8.0 -9.95 7.8 -12.55 M1.35 8.3 Q2.9 8.3 4.25 7.7 L5.3 7.1 Q6.55 6.3 7.85 4.65 L7.75 2.95 8.55 5.0 8.6 5.25 8.55 5.3 8.0 8.05 Q7.4 10.3 5.1 11.45 2.85 12.55 0.1 12.55 L-2.0 12.4 -2.05 12.25 Q-2.05 10.8 -1.4 10.05 -0.9 9.5 -0.4 9.65 L0.1 9.6 Q1.05 9.6 1.2 9.05 L1.35 8.3" fill="#764701" fill-rule="evenodd" stroke="none"/>
      <path d="M2.95 -6.0 Q2.8 -5.35 2.3 -5.0 1.8 -4.6 1.1 -4.6 0.1 -4.6 -0.6 -3.7 -1.25 -2.85 -1.25 -1.8 L-1.35 -1.3 -3.2 -1.7 Q-4.65 -2.35 -5.75 -3.1 -8.5 -4.85 -8.5 -5.95 L-8.65 -6.6 -8.9 -7.55 -9.3 -10.2 -8.05 -12.55 -7.95 -9.95 Q-4.5 -6.25 0.05 -5.9 L2.95 -6.0 M-2.0 12.4 L-3.85 11.85 -6.1 10.35 Q-8.55 8.5 -8.45 7.45 L-8.55 6.8 -8.75 5.9 -8.85 3.4 -7.85 1.6 -7.85 3.6 Q-4.65 7.4 -0.4 8.1 L1.35 8.3 1.2 9.05 Q1.05 9.6 0.1 9.6 L-0.4 9.65 Q-0.9 9.5 -1.4 10.05 -2.05 10.8 -2.05 12.25 L-2.0 12.4" fill="#996600" fill-rule="evenodd" stroke="none"/>
      <path d="M-1.35 -1.3 L1.05 -1.3 Q3.85 -1.5 6.2 -2.9 8.5 -4.35 8.9 -6.75 L9.3 -9.7 9.3 -9.75 9.25 -10.05 7.8 -12.55 M8.0 -9.95 L8.0 -9.55 6.0 -7.45 4.95 -6.75 Q4.0 -6.2 2.95 -6.0 M-1.35 -1.3 L-3.2 -1.7 Q-4.65 -2.35 -5.75 -3.1 -8.5 -4.85 -8.5 -5.95 L-8.65 -6.6 -8.9 -7.55 -9.3 -10.2 -8.05 -12.55 M-7.95 -9.95 Q-4.5 -6.25 0.05 -5.9 L2.95 -6.0 M-2.0 12.4 L-3.85 11.85 -6.1 10.35 Q-8.55 8.5 -8.45 7.45 L-8.55 6.8 -8.75 5.9 -8.85 3.4 -7.85 1.6 M-7.85 3.6 Q-4.65 7.4 -0.4 8.1 L1.35 8.3 Q2.9 8.3 4.25 7.7 L5.3 7.1 Q6.55 6.3 7.85 4.65 M7.75 2.95 L8.55 5.0 8.6 5.25 8.55 5.3 8.0 8.05 Q7.4 10.3 5.1 11.45 2.85 12.55 0.1 12.55 L-2.0 12.4" fill="none" stroke="#000000" stroke-linecap="round" stroke-linejoin="round" stroke-opacity="0.3019608" stroke-width="0.05"/>
    </g>
  </defs>
</svg>
