<?xml version="1.0" encoding="UTF-8" standalone="no"?>
<svg xmlns:xlink="http://www.w3.org/1999/xlink" height="51.8px" width="33.6px" xmlns="http://www.w3.org/2000/svg">
  <g transform="matrix(1.0, 0.0, 0.0, 1.0, 16.35, 22.55)">
    <use height="37.35" id="_col2" transform="matrix(1.0375, 0.0, 0.0, 1.008, -8.9, -20.35)" width="16.0" xlink:href="#sprite0"/>
    <use height="29.9" id="_col3" transform="matrix(1.0375, 0.0, 0.0, 1.008, -10.9232, -12.7897)" width="20.45" xlink:href="#sprite1"/>
  </g>
  <defs>
    <g id="sprite0" transform="matrix(1.0, 0.0, 0.0, 1.0, 8.0, 18.65)">
      <use height="37.35" transform="matrix(1.1594, 0.0, 0.0, 1.0, -8.0, -18.65)" width="13.8" xlink:href="#shape0"/>
    </g>
    <g id="shape0" transform="matrix(1.0, 0.0, 0.0, 1.0, 6.9, 18.65)">
      <path d="M0.05 -18.6 Q3.4 -18.45 5.5 -16.1 L5.95 -15.65 6.9 -13.35 6.75 12.25 Q6.45 14.0 5.75 15.25 4.05 18.45 0.3 18.7 -0.7 11.7 -0.55 11.15 L0.15 -5.25 0.05 -18.6" fill="#68606a" fill-rule="evenodd" stroke="none"/>
      <path d="M0.05 -18.6 L0.15 -5.25 -0.55 11.15 Q-0.7 11.7 0.3 18.7 -3.55 17.8 -5.25 16.05 -6.8 14.5 -6.65 12.15 L-6.9 -13.5 -5.45 -16.15 -4.05 -17.4 Q-2.4 -18.9 0.05 -18.6" fill="#91a5af" fill-rule="evenodd" stroke="none"/>
      <path d="M5.75 15.25 Q6.45 14.0 6.75 12.25 L6.9 -13.35 5.95 -15.65 M-5.45 -16.15 L-6.9 -13.5 -6.65 12.15 Q-6.8 14.5 -5.25 16.05" fill="none" stroke="#000000" stroke-linecap="round" stroke-linejoin="round" stroke-opacity="0.3019608" stroke-width="0.05"/>
    </g>
    <g id="sprite1" transform="matrix(1.0, 0.0, 0.0, 1.0, 9.95, 11.15)">
      <use height="29.9" transform="matrix(1.0, 0.0, 0.0, 1.0, -9.95, -11.15)" width="20.45" xlink:href="#shape1"/>
    </g>
    <g id="shape1" transform="matrix(1.0, 0.0, 0.0, 1.0, 9.95, 11.15)">
      <path d="M6.25 -6.8 L6.4 -6.9 7.0 -7.3 7.6 -8.05 7.7 -8.2 Q8.95 -7.6 8.95 -7.15 L9.5 -5.9 9.35 -4.6 Q8.05 -0.4 8.05 0.45 7.5 2.4 7.55 5.7 7.6 8.9 8.0 10.95 L8.25 13.45 8.15 14.1 8.25 13.45 8.0 10.95 Q7.6 8.9 7.55 5.7 7.5 2.4 8.05 0.45 8.05 -0.4 9.35 -4.6 L9.5 -5.9 8.95 -7.15 Q8.95 -7.6 7.7 -8.2 8.05 -9.0 8.05 -11.15 9.25 -10.0 10.1 -8.35 10.7 -7.15 10.4 -5.95 L10.05 -4.1 9.6 -2.3 Q8.7 0.15 9.25 2.85 L9.4 3.8 9.85 7.8 9.85 9.1 9.5 10.95 8.7 13.15 8.15 14.1 7.4 15.0 5.7 16.55 5.3 16.85 5.55 16.05 5.75 15.0 5.3 10.35 Q5.3 7.0 6.6 2.05 7.9 -2.9 7.9 -3.9 7.9 -4.55 7.15 -5.6 L7.05 -5.75 6.25 -6.8 7.05 -5.75 7.15 -5.6 Q7.9 -4.55 7.9 -3.9 7.9 -2.9 6.6 2.05 5.3 7.0 5.3 10.35 L5.75 15.0 5.55 16.05 5.3 16.85 4.95 17.15 3.8 17.85 3.35 18.05 1.6 18.45 1.45 18.5 0.4 18.75 -0.9 18.6 -1.1 17.55 -1.25 15.25 -1.25 14.95 -1.25 15.25 -1.1 17.55 -0.9 18.6 -3.5 17.8 -5.1 17.0 -5.4 16.35 -5.8 14.8 -6.2 13.2 -6.15 13.0 -6.2 13.2 -5.8 14.8 -5.4 16.35 -5.1 17.0 -6.3 16.1 -7.85 14.5 -7.9 14.45 -8.15 14.05 -8.5 13.6 -9.1 12.65 Q-9.6 11.8 -9.45 10.65 L-8.7 11.3 -6.45 12.8 -6.15 13.0 Q-3.3 14.55 -1.25 14.95 L0.0 15.05 0.15 14.9 0.3 14.7 Q0.9 14.7 0.9 12.95 L0.35 6.75 0.4 6.25 0.5 3.6 0.15 -0.6 0.4 -3.15 0.15 -0.6 0.5 3.6 0.4 6.25 0.35 6.75 0.3 6.45 0.15 6.25 0.0 6.05 -0.9 5.15 Q-0.9 4.4 -3.25 3.4 L-3.8 3.2 -3.55 0.8 -3.95 -3.15 -3.55 0.8 -3.8 3.2 -5.6 2.55 -6.25 2.2 -6.9 2.0 -7.05 1.95 -8.4 1.6 -8.45 0.6 -8.9 -3.0 -9.1 -4.15 -9.3 -4.85 -9.4 -5.2 -9.95 -6.75 Q-9.45 -5.55 -8.05 -4.55 L-7.9 -4.45 -7.9 -4.15 -7.75 -2.65 -7.45 -0.95 Q-7.2 -0.2 -7.2 0.9 L-7.05 1.95 -7.2 0.9 Q-7.2 -0.2 -7.45 -0.95 L-7.75 -2.65 -7.9 -4.15 -7.9 -4.45 Q-6.8 -3.7 -5.65 -3.4 L-4.1 -3.2 -3.95 -3.2 -3.95 -3.15 -1.9 -2.9 0.4 -3.15 0.65 -3.2 Q1.05 -3.2 1.8 -3.5 2.0 -3.5 2.2 -3.65 L2.55 -3.8 3.45 -4.4 3.7 -4.8 3.75 -5.25 3.8 -5.95 4.15 -5.3 4.35 -4.65 Q4.95 -4.7 5.1 -5.45 L5.1 -5.9 5.0 -6.15 Q5.65 -6.4 6.25 -6.8 M4.35 -4.65 L4.35 -4.55 4.6 -2.95 4.45 -1.3 Q3.3 2.8 3.3 3.85 L3.15 4.65 2.95 5.9 2.6 11.15 2.8 13.4 2.65 15.6 1.6 18.45 2.65 15.6 2.8 13.4 2.6 11.15 2.95 5.9 3.15 4.65 3.3 3.85 Q3.3 2.8 4.45 -1.3 L4.6 -2.95 4.35 -4.55 4.35 -4.65 M-8.7 11.3 L-8.8 11.65 -8.5 13.6 -8.8 11.65 -8.7 11.3" fill="#d6baba" fill-rule="evenodd" stroke="none"/>
      <path d="M4.35 -4.65 L4.15 -5.3 3.8 -5.95 4.8 -6.1 5.0 -6.15 5.1 -5.9 5.1 -5.45 Q4.95 -4.7 4.35 -4.65 M3.8 -5.95 L3.75 -5.25 3.7 -4.8 3.45 -4.4 2.55 -3.8 2.2 -3.65 Q2.0 -3.5 1.8 -3.5 1.05 -3.2 0.65 -3.2 L0.4 -3.15 0.6 -5.8 0.4 -3.15 -1.9 -2.9 -3.95 -3.15 -3.95 -3.2 -4.0 -3.4 -3.85 -5.05 -3.3 -5.9 -3.0 -6.25 -3.3 -5.9 -3.85 -5.05 -4.0 -3.4 -3.95 -3.2 -4.1 -3.2 -5.65 -3.4 Q-6.8 -3.7 -7.9 -4.45 L-8.05 -4.55 Q-9.45 -5.55 -9.95 -6.75 L-9.75 -7.6 -9.6 -8.25 Q-9.25 -9.7 -8.0 -11.1 L-7.9 -9.15 Q-7.85 -8.4 -7.25 -7.95 L-6.5 -7.5 -5.7 -7.15 Q-4.35 -6.55 -3.0 -6.25 L-2.8 -6.25 0.25 -5.8 0.6 -5.8 3.75 -5.95 3.8 -5.95 M0.35 6.75 L0.9 12.95 Q0.9 14.7 0.3 14.7 L0.15 14.9 0.0 15.05 -1.25 14.95 -0.7 12.25 -0.2 10.05 0.35 6.75 -0.2 10.05 -0.7 12.25 -1.25 14.95 Q-3.3 14.55 -6.15 13.0 L-5.5 10.9 -4.65 8.45 -4.05 4.9 -3.8 3.2 -3.25 3.4 Q-0.9 4.4 -0.9 5.15 L0.0 6.05 0.15 6.25 0.3 6.45 0.35 6.75 M-6.5 -7.5 L-7.6 -6.15 -7.9 -4.45 -7.6 -6.15 -6.5 -7.5 M-3.8 3.2 L-4.05 4.9 -4.65 8.45 -5.5 10.9 -6.15 13.0 -6.45 12.8 -8.7 11.3 -7.95 8.6 Q-7.1 5.75 -7.1 4.5 L-6.95 2.9 -7.05 1.95 -6.95 2.9 -7.1 4.5 Q-7.1 5.75 -7.95 8.6 L-8.7 11.3 -9.45 10.65 -9.3 9.7 -8.65 7.2 -8.4 4.45 -8.4 1.6 -7.05 1.95 -6.9 2.0 -6.25 2.2 -5.6 2.55 -3.8 3.2" fill="#ffffff" fill-rule="evenodd" stroke="none"/>
      <path d="M7.7 -8.2 L7.6 -8.05 7.0 -7.3 6.4 -6.9 6.25 -6.8 Q5.65 -6.4 5.0 -6.15 M5.3 16.85 L5.7 16.55 7.4 15.0 8.15 14.1 M7.7 -8.2 Q8.05 -9.0 8.05 -11.15 9.25 -10.0 10.1 -8.35 10.7 -7.15 10.4 -5.95 L10.05 -4.1 9.6 -2.3 Q8.7 0.15 9.25 2.85 L9.4 3.8 9.85 7.8 9.85 9.1 9.5 10.95 8.7 13.15 8.15 14.1 M4.8 -6.1 L3.8 -5.95 3.75 -5.95 0.6 -5.8 0.25 -5.8 -2.8 -6.25 -3.0 -6.25 M-0.9 18.6 L0.4 18.75 1.45 18.5 M-5.1 17.0 L-3.5 17.8 -0.9 18.6 M1.6 18.45 L3.35 18.05 3.8 17.85 4.95 17.15 M-9.95 -6.75 L-9.75 -7.6 -9.6 -8.25 Q-9.25 -9.7 -8.0 -11.1 L-7.9 -9.15 Q-7.85 -8.4 -7.25 -7.95 L-6.5 -7.5 -5.7 -7.15 Q-4.35 -6.55 -3.0 -6.25 M-8.4 1.6 L-8.45 0.6 -8.9 -3.0 -9.1 -4.15 -9.3 -4.85 -9.4 -5.2 -9.95 -6.75 M-9.45 10.65 L-9.3 9.7 -8.65 7.2 -8.4 4.45 -8.4 1.6 M-9.45 10.65 Q-9.6 11.8 -9.1 12.65 L-8.5 13.6 -8.15 14.05 -7.9 14.45 -7.85 14.5 -6.3 16.1 -5.1 17.0" fill="none" stroke="#000000" stroke-linecap="round" stroke-linejoin="round" stroke-opacity="0.3019608" stroke-width="0.05"/>
      <path d="M6.25 -6.8 L7.05 -5.75 7.15 -5.6 Q7.9 -4.55 7.9 -3.9 7.9 -2.9 6.6 2.05 5.3 7.0 5.3 10.35 L5.75 15.0 5.55 16.05 5.3 16.85 M8.15 14.1 L8.25 13.45 8.0 10.95 Q7.6 8.9 7.55 5.7 7.5 2.4 8.05 0.45 8.05 -0.4 9.35 -4.6 L9.5 -5.9 8.95 -7.15 Q8.95 -7.6 7.7 -8.2 M3.8 -5.95 L4.15 -5.3 4.35 -4.65 M0.4 -3.15 L0.15 -0.6 0.5 3.6 0.4 6.25 0.35 6.75 -0.2 10.05 -0.7 12.25 -1.25 14.95 -1.25 15.25 -1.1 17.55 -0.9 18.6 M1.45 18.5 L1.6 18.45 2.65 15.6 2.8 13.4 2.6 11.15 2.95 5.9 3.15 4.65 3.3 3.85 Q3.3 2.8 4.45 -1.3 L4.6 -2.95 4.35 -4.55 4.35 -4.65 M0.6 -5.8 L0.4 -3.15 M-3.95 -3.15 L-3.55 0.8 -3.8 3.2 M-6.15 13.0 L-6.2 13.2 -5.8 14.8 -5.4 16.35 -5.1 17.0 M-3.0 -6.25 L-3.3 -5.9 -3.85 -5.05 -4.0 -3.4 -3.95 -3.2 -3.95 -3.15 M4.95 17.15 L5.3 16.85 M-7.9 -4.45 L-7.6 -6.15 -6.5 -7.5 M-7.05 1.95 L-7.2 0.9 Q-7.2 -0.2 -7.45 -0.95 L-7.75 -2.65 -7.9 -4.15 -7.9 -4.45 M-6.15 13.0 L-5.5 10.9 -4.65 8.45 -4.05 4.9 -3.8 3.2 M-7.05 1.95 L-6.95 2.9 -7.1 4.5 Q-7.1 5.75 -7.95 8.6 L-8.7 11.3 M-8.5 13.6 L-8.8 11.65 -8.7 11.3 M-7.85 14.5 Q-8.4 14.45 -8.15 14.05" fill="none" stroke="#000000" stroke-linecap="round" stroke-linejoin="round" stroke-opacity="0.15294118" stroke-width="0.05"/>
    </g>
  </defs>
</svg>
