<?xml version="1.0" encoding="UTF-8" standalone="no"?>
<svg xmlns:xlink="http://www.w3.org/1999/xlink" height="34.3px" width="24.0px" xmlns="http://www.w3.org/2000/svg">
  <g transform="matrix(1.0, 0.0, 0.0, 1.0, 12.0, 17.15)">
    <use height="34.3" transform="matrix(1.0, 0.0, 0.0, 1.0, -12.0, -17.15)" width="24.0" xlink:href="#shape0"/>
  </g>
  <defs>
    <g id="shape0" transform="matrix(1.0, 0.0, 0.0, 1.0, 12.0, 17.15)">
      <path d="M10.1 -12.45 Q11.75 -11.15 12.0 -9.7 12.15 -8.9 9.65 -5.5 7.1 -2.1 7.2 -1.5 L8.05 0.8 8.8 2.9 8.15 4.85 Q7.45 6.6 7.45 6.9 L7.2 8.2 Q6.9 9.55 6.95 9.8 L6.95 16.25 7.2 17.15 4.45 16.5 4.45 16.2 4.75 11.8 5.05 7.35 5.35 4.9 Q5.35 2.35 2.25 0.9 L1.25 0.45 1.3 -0.3 0.5 -3.25 -0.15 -5.1 0.0 -5.0 Q2.25 -3.65 4.1 -3.65 5.0 -3.65 5.95 -4.6 6.85 -5.45 6.85 -6.0 L7.7 -7.65 8.95 -9.8 10.1 -12.45 M0.15 -6.8 L0.15 -6.75 0.0 -6.35 0.15 -6.8 M-8.1 -15.65 Q-10.75 -15.2 -10.65 -12.35 -10.55 -9.4 -9.9 -6.8 L-8.45 -1.2 Q-8.05 0.3 -8.15 1.8 L-8.35 3.3 -8.55 4.5 -9.55 10.2 -9.65 10.8 -9.85 11.65 -10.75 11.55 -11.9 11.15 Q-12.1 10.3 -11.8 9.45 -11.25 8.0 -11.2 6.5 L-11.05 5.55 -10.85 4.6 -10.35 2.5 Q-10.1 1.75 -10.15 1.05 -10.35 -0.9 -10.8 -2.75 -12.05 -8.1 -11.8 -13.65 -11.75 -15.1 -10.85 -16.2 -10.0 -17.3 -8.85 -17.05 -7.45 -17.4 -6.25 -16.65 L-5.5 -16.05 -5.15 -15.4 -5.75 -14.5 Q-6.65 -15.5 -8.1 -15.65" fill="#d6baba" fill-rule="evenodd" stroke="none"/>
      <path d="M10.1 -12.45 L8.95 -9.8 7.7 -7.65 6.85 -6.0 Q6.85 -5.45 5.95 -4.6 5.0 -3.65 4.1 -3.65 2.25 -3.65 0.0 -5.0 L-0.15 -5.1 -0.2 -5.25 -0.15 -5.7 -0.05 -6.15 0.0 -6.35 0.15 -6.75 0.15 -6.8 0.3 -7.6 1.2 -9.95 2.15 -12.5 Q2.1 -12.8 3.15 -13.9 4.1 -14.9 4.9 -14.45 7.3 -14.05 8.7 -13.3 L8.8 -13.25 8.85 -13.25 10.1 -12.45 M1.25 0.45 L2.25 0.9 Q5.35 2.35 5.35 4.9 L5.05 7.35 4.75 11.8 4.45 16.2 4.45 16.5 2.9 16.15 2.3 16.05 Q-0.3 15.0 -0.4 13.05 -0.5 11.05 0.0 8.0 L0.45 4.95 0.75 3.05 0.9 2.05 1.05 1.35 1.25 0.45" fill="#ffffff" fill-rule="evenodd" stroke="none"/>
      <path d="M4.45 16.5 L7.2 17.15 6.95 16.25 6.95 9.8 Q6.9 9.55 7.2 8.2 L7.45 6.9 Q7.45 6.6 8.15 4.85 L8.8 2.9 8.05 0.8 7.2 -1.5 Q7.1 -2.1 9.65 -5.5 12.15 -8.9 12.0 -9.7 11.75 -11.15 10.1 -12.45 L8.85 -13.25 8.8 -13.25 M-0.15 -5.1 L0.5 -3.25 1.3 -0.3 1.25 0.45 M4.45 16.5 L2.9 16.15 2.3 16.05 Q-0.3 15.0 -0.4 13.05 -0.5 11.05 0.0 8.0 L0.45 4.95 0.75 3.05 0.9 2.05 1.05 1.35 1.25 0.45 M8.7 -13.3 Q7.3 -14.05 4.9 -14.45 4.1 -14.9 3.15 -13.9 2.1 -12.8 2.15 -12.5 L1.2 -9.95 0.3 -7.6 0.15 -6.8 0.0 -6.35 -0.05 -6.15 -0.15 -5.7 -0.2 -5.25 -0.15 -5.1 M-8.1 -15.65 Q-10.75 -15.2 -10.65 -12.35 -10.55 -9.4 -9.9 -6.8 L-8.45 -1.2 Q-8.05 0.3 -8.15 1.8 L-8.35 3.3 -8.55 4.5 -9.55 10.2 -9.65 10.8 -9.85 11.65 -10.75 11.55 -11.9 11.15 Q-12.1 10.3 -11.8 9.45 -11.25 8.0 -11.2 6.5 L-11.05 5.55 -10.85 4.6 -10.35 2.5 Q-10.1 1.75 -10.15 1.05 -10.35 -0.9 -10.8 -2.75 -12.05 -8.1 -11.8 -13.65 -11.75 -15.1 -10.85 -16.2 -10.0 -17.3 -8.85 -17.05 -7.45 -17.4 -6.25 -16.65 L-5.5 -16.05 -5.15 -15.4 -5.75 -14.5 Q-6.65 -15.5 -8.1 -15.65" fill="none" stroke="#000000" stroke-linecap="round" stroke-linejoin="round" stroke-opacity="0.3019608" stroke-width="0.05"/>
    </g>
  </defs>
</svg>
