<?xml version="1.0" encoding="UTF-8" standalone="no"?>
<svg xmlns:xlink="http://www.w3.org/1999/xlink" height="40.5px" width="32.25px" xmlns="http://www.w3.org/2000/svg">
  <g transform="matrix(1.0, 0.0, 0.0, 1.0, 0.0, 17.25)">
    <use height="25.9" id="_col2" transform="matrix(1.0, 0.0, 0.0, 1.0, 9.35, -17.25)" width="22.25" xlink:href="#sprite0"/>
    <use height="33.65" id="_col3" transform="matrix(1.021, 0.0492, 0.0358, 0.6471, -0.0109, -0.0364)" width="30.4" xlink:href="#sprite1"/>
  </g>
  <defs>
    <g id="sprite0" transform="matrix(1.0, 0.0, 0.0, 1.0, 0.0, 0.0)">
      <use height="25.9" transform="matrix(1.0, 0.0, 0.0, 1.0, 0.0, 0.0)" width="22.25" xlink:href="#shape0"/>
    </g>
    <g id="shape0" transform="matrix(1.0, 0.0, 0.0, 1.0, 0.0, 0.0)">
      <path d="M19.95 0.75 Q19.0 2.65 14.15 6.9 9.25 11.1 7.05 16.5 4.85 21.9 4.7 25.75 L3.9 25.6 Q2.75 25.35 2.0 24.9 0.15 23.8 0.0 21.35 3.25 15.3 7.1 9.65 8.55 7.55 10.6 5.85 14.85 2.6 19.95 0.75" fill="#ffffff" fill-rule="evenodd" stroke="none"/>
      <path d="M4.7 25.75 Q4.85 21.9 7.05 16.5 9.25 11.1 14.15 6.9 19.0 2.65 19.95 0.75 L22.25 0.0 19.7 4.0 Q16.95 8.1 15.4 12.65 14.0 16.6 13.25 20.9 13.05 21.85 12.5 22.6 9.5 26.6 4.7 25.75" fill="#d6baba" fill-rule="evenodd" stroke="none"/>
      <path d="M19.95 0.75 Q14.85 2.6 10.6 5.85 8.55 7.55 7.1 9.65 3.25 15.3 0.0 21.35 0.15 23.8 2.0 24.9 2.75 25.35 3.9 25.6 L4.7 25.75 Q9.5 26.6 12.5 22.6 13.05 21.85 13.25 20.9 14.0 16.6 15.4 12.65 16.95 8.1 19.7 4.0 L22.25 0.0 19.95 0.75 Z" fill="none" stroke="#000000" stroke-linecap="round" stroke-linejoin="round" stroke-opacity="0.3019608" stroke-width="0.05"/>
    </g>
    <g id="sprite1" transform="matrix(1.0, 0.0, 0.0, 1.0, 4.5, 6.05)">
      <use height="33.65" transform="matrix(1.0, 0.0, 0.0, 1.0, -4.5, -6.05)" width="30.4" xlink:href="#shape1"/>
    </g>
    <g id="shape1" transform="matrix(1.0, 0.0, 0.0, 1.0, 4.5, 6.05)">
      <path d="M4.9 26.1 Q4.05 26.55 3.15 26.95 1.65 24.95 0.5 22.95 -1.1 20.8 -2.0 18.55 L-4.4 19.8 Q-3.5 13.9 -1.1 8.75 L-4.5 9.35 -2.25 4.7 Q-1.75 3.45 -0.85 2.35 L-2.25 1.95 Q-1.6 0.7 -0.35 -0.3 1.0 -1.3 2.65 -2.05 L2.4 -2.55 1.9 -3.2 1.9 -3.7 2.05 -4.1 7.2 -3.95 8.3 -4.7 Q10.3 -6.95 11.45 -5.45 L11.95 -4.7 13.2 -2.55 14.2 -1.05 10.05 -1.2 Q6.95 -1.3 9.55 0.2 12.95 1.95 14.85 5.35 L15.1 5.6 14.45 5.6 Q10.05 4.85 11.85 8.6 12.85 10.75 13.2 13.0 L11.35 11.75 Q10.3 11.0 9.2 10.75 6.05 9.75 7.45 12.4 9.05 14.9 9.2 18.05 7.2 17.15 6.45 19.3 5.3 22.45 4.9 26.1" fill="#ffffff" fill-rule="evenodd" stroke="none"/>
      <path d="M11.95 -4.7 L17.5 -5.35 16.25 -4.1 19.6 -2.55 23.15 -1.05 23.25 -0.7 22.0 -0.55 20.15 -0.7 25.9 9.85 22.15 7.35 23.25 12.65 24.0 16.4 20.65 13.5 Q21.15 18.3 18.35 23.3 17.85 24.05 17.6 24.95 L16.85 24.8 Q15.75 23.7 15.2 22.45 L5.8 27.6 5.15 26.1 4.9 26.1 Q5.3 22.45 6.45 19.3 7.2 17.15 9.2 18.05 9.05 14.9 7.45 12.4 6.05 9.75 9.2 10.75 10.3 11.0 11.35 11.75 L13.2 13.0 Q12.85 10.75 11.85 8.6 10.05 4.85 14.45 5.6 L15.1 5.6 14.85 5.35 Q12.95 1.95 9.55 0.2 6.95 -1.3 10.05 -1.2 L14.2 -1.05 13.2 -2.55 11.95 -4.7" fill="#d6baba" fill-rule="evenodd" stroke="none"/>
      <path d="M4.9 26.1 Q4.05 26.55 3.15 26.95 1.65 24.95 0.5 22.95 -1.1 20.8 -2.0 18.55 L-4.4 19.8 Q-3.5 13.9 -1.1 8.75 L-4.5 9.35 -2.25 4.7 Q-1.75 3.45 -0.85 2.35 L-2.25 1.95 Q-1.6 0.7 -0.35 -0.3 1.0 -1.3 2.65 -2.05 L2.4 -2.55 1.9 -3.2 1.9 -3.7 2.05 -4.1 7.2 -3.95 8.3 -4.7 Q10.3 -6.95 11.45 -5.45 L11.95 -4.7 17.5 -5.35 16.25 -4.1 19.6 -2.55 23.15 -1.05 23.25 -0.7 22.0 -0.55 20.15 -0.7 25.9 9.85 22.15 7.35 23.25 12.65 24.0 16.4 20.65 13.5 Q21.15 18.3 18.35 23.3 17.85 24.05 17.6 24.95 L16.85 24.8 Q15.75 23.7 15.2 22.45 L5.8 27.6 5.15 26.1 4.9 26.1 Z" fill="none" stroke="#000000" stroke-linecap="round" stroke-linejoin="round" stroke-opacity="0.3019608" stroke-width="0.05"/>
    </g>
  </defs>
</svg>
