<?xml version="1.0" encoding="UTF-8" standalone="no"?>
<svg xmlns:xlink="http://www.w3.org/1999/xlink" height="23.9px" width="57.35px" xmlns="http://www.w3.org/2000/svg">
  <g transform="matrix(1.0, 0.0, 0.0, 1.0, 5.7, 16.5)">
    <use height="23.9" transform="matrix(1.0, 0.0, 0.0, 1.0, -5.7, -16.5)" width="57.35" xlink:href="#shape0"/>
  </g>
  <defs>
    <g id="shape0" transform="matrix(1.0, 0.0, 0.0, 1.0, 5.7, 16.5)">
      <path d="M3.5 -8.65 L5.85 -10.45 6.5 -10.8 Q9.25 -11.95 12.2 -12.25 L15.05 -12.55 17.35 -12.0 17.55 -12.85 Q17.55 -14.6 19.4 -15.6 20.75 -16.3 22.05 -16.3 24.5 -16.3 26.3 -14.9 L28.55 -15.65 32.35 -16.5 Q35.45 -16.5 37.4 -14.2 L38.55 -12.45 38.3 -11.7 37.65 -9.4 Q36.95 -7.45 36.95 -6.4 L36.9 -6.2 36.6 -4.8 36.45 -4.8 35.95 -6.15 35.1 -8.25 Q33.7 -10.45 30.0 -10.45 L28.95 -10.35 28.5 -12.05 27.1 -14.15 26.3 -14.9 27.1 -14.15 28.5 -12.05 28.95 -10.35 30.0 -10.45 Q33.7 -10.45 35.1 -8.25 L35.95 -6.15 36.45 -4.8 36.65 -4.3 37.0 -3.3 37.7 -1.5 37.0 -3.3 37.35 -2.95 Q38.0 -2.45 40.05 -1.75 L42.9 -0.5 Q43.9 0.05 44.9 0.05 45.35 0.05 49.3 -1.25 L50.6 -1.65 49.45 -0.75 Q46.95 1.35 45.3 2.1 43.75 2.85 42.1 3.05 L37.9 3.2 Q31.55 3.2 29.2 0.6 28.15 -0.55 27.2 -3.6 26.65 -5.25 26.2 -7.4 24.3 -6.6 22.95 -6.8 L22.75 -6.0 22.5 -5.4 Q21.25 -2.95 19.4 -0.7 L19.1 -0.25 18.4 0.7 Q17.65 1.65 16.25 2.4 14.85 3.65 13.45 4.25 10.95 5.5 8.3 6.4 L8.25 6.3 Q12.2 3.05 13.8 0.85 L14.35 0.05 17.25 -5.2 9.7 -2.05 8.15 -1.1 10.0 -3.0 11.6 -4.65 11.1 -4.5 8.05 -3.7 Q5.45 -2.9 2.65 -2.6 2.75 -4.9 3.15 -7.1 L3.5 -8.65 M17.35 -12.0 L17.9 -11.8 21.1 -10.5 22.85 -9.7 16.25 -6.5 13.7 -5.4 11.6 -4.65 13.7 -5.4 16.25 -6.5 22.85 -9.7 21.1 -10.5 17.9 -11.8 17.35 -12.0 M9.7 -2.05 L11.3 -3.1 Q12.5 -3.8 13.7 -4.6 L16.25 -6.5 13.7 -4.6 Q12.5 -3.8 11.3 -3.1 L9.7 -2.05 M22.85 -9.7 L23.55 -9.7 22.95 -6.8 23.55 -9.7 22.85 -9.7 M28.95 -10.35 L28.95 -9.85 Q28.95 -8.7 26.65 -7.6 L26.2 -7.4 26.65 -7.6 Q28.95 -8.7 28.95 -9.85 L28.95 -10.35 M21.1 -10.5 L23.9 -12.35 Q24.95 -12.9 26.05 -12.9 L26.95 -12.65 Q28.15 -12.1 28.5 -12.05 28.15 -12.1 26.95 -12.65 L26.05 -12.9 Q24.95 -12.9 23.9 -12.35 L21.1 -10.5" fill="#d6baba" fill-rule="evenodd" stroke="none"/>
      <path d="M38.55 -12.45 L40.05 -9.05 41.05 -6.8 Q41.95 -4.85 42.6 -3.95 44.4 -1.65 47.2 -1.65 49.6 -1.65 51.65 -2.35 L50.6 -1.65 49.3 -1.25 Q45.35 0.05 44.9 0.05 43.9 0.05 42.9 -0.5 L40.05 -1.75 Q38.0 -2.45 37.35 -2.95 L37.0 -3.3 36.65 -4.3 36.45 -4.8 36.6 -4.8 36.9 -6.2 36.95 -6.4 Q36.95 -7.45 37.65 -9.4 L38.3 -11.7 38.55 -12.45 M8.3 6.4 L7.9 6.55 7.65 6.65 5.75 7.2 Q2.45 7.8 -0.55 6.45 L-5.7 4.1 Q-2.8 0.35 -0.55 -3.8 0.15 -5.15 1.2 -6.3 L3.5 -8.65 3.15 -7.1 Q2.75 -4.9 2.65 -2.6 5.45 -2.9 8.05 -3.7 L11.1 -4.5 11.6 -4.65 10.0 -3.0 8.15 -1.1 9.7 -2.05 17.25 -5.2 14.35 0.05 13.8 0.85 Q12.2 3.05 8.25 6.3 L8.3 6.4 M0.3 -2.25 L2.65 -2.6 0.3 -2.25 M2.25 0.8 Q4.65 0.65 6.85 -0.4 L7.7 -0.85 8.15 -1.1 7.7 -0.85 6.85 -0.4 Q4.65 0.65 2.25 0.8" fill="#ffffff" fill-rule="evenodd" stroke="none"/>
      <path d="M3.5 -8.65 L5.85 -10.45 6.5 -10.8 Q9.25 -11.95 12.2 -12.25 L15.05 -12.55 17.35 -12.0 17.55 -12.85 Q17.55 -14.6 19.4 -15.6 20.75 -16.3 22.05 -16.3 24.5 -16.3 26.3 -14.9 L28.55 -15.65 32.35 -16.5 Q35.45 -16.5 37.4 -14.2 L38.55 -12.45 40.05 -9.05 41.05 -6.8 Q41.95 -4.85 42.6 -3.95 44.4 -1.65 47.2 -1.65 49.6 -1.65 51.65 -2.35 L50.6 -1.65 49.45 -0.75 Q46.95 1.35 45.3 2.1 43.75 2.85 42.1 3.05 L37.9 3.2 Q31.55 3.2 29.2 0.6 28.15 -0.55 27.2 -3.6 26.65 -5.25 26.2 -7.4 24.3 -6.6 22.95 -6.8 L22.75 -6.0 22.5 -5.4 Q21.25 -2.95 19.4 -0.7 L19.1 -0.25 18.4 0.7 Q17.65 1.65 16.25 2.4 14.85 3.65 13.45 4.25 10.95 5.5 8.3 6.4 L7.9 6.55 M7.65 6.65 L5.75 7.2 Q2.45 7.8 -0.55 6.45 L-5.7 4.1 Q-2.8 0.35 -0.55 -3.8 0.15 -5.15 1.2 -6.3 L3.5 -8.65 3.15 -7.1 Q2.75 -4.9 2.65 -2.6 5.45 -2.9 8.05 -3.7 L11.1 -4.5 11.6 -4.65 13.7 -5.4 16.25 -6.5 22.85 -9.7 21.1 -10.5 17.9 -11.8 17.35 -12.0 M2.65 -2.6 L0.3 -2.25 M9.7 -2.05 L8.15 -1.1 7.7 -0.85 6.85 -0.4 Q4.65 0.65 2.25 0.8 M16.25 -6.5 L13.7 -4.6 Q12.5 -3.8 11.3 -3.1 L9.7 -2.05 M26.3 -14.9 L27.1 -14.15 28.5 -12.05 28.95 -10.35 30.0 -10.45 Q33.7 -10.45 35.1 -8.25 L35.95 -6.15 36.45 -4.8 36.65 -4.3 37.0 -3.3 37.7 -1.5 M28.5 -12.05 Q28.15 -12.1 26.95 -12.65 L26.05 -12.9 Q24.95 -12.9 23.9 -12.35 L21.1 -10.5 M26.2 -7.4 L26.65 -7.6 Q28.95 -8.7 28.95 -9.85 L28.95 -10.35 M22.95 -6.8 L23.55 -9.7 22.85 -9.7" fill="none" stroke="#000000" stroke-linecap="round" stroke-linejoin="round" stroke-opacity="0.3019608" stroke-width="0.05"/>
    </g>
  </defs>
</svg>
