<?xml version="1.0" encoding="UTF-8" standalone="no"?>
<svg xmlns:xlink="http://www.w3.org/1999/xlink" height="16.25px" width="16.2px" xmlns="http://www.w3.org/2000/svg">
  <g transform="matrix(1.0, 0.0, 0.0, 1.0, 8.1, 8.1)">
    <use height="16.25" id="_col3" transform="matrix(0.8642, 0.0, 0.0, 0.8642, -7.0, -7.0)" width="16.2" xlink:href="#sprite0"/>
    <use height="5.65" transform="matrix(1.0, 0.0, 0.0, 1.0, -5.4, -5.6)" width="3.4" xlink:href="#shape1"/>
  </g>
  <defs>
    <g id="sprite0" transform="matrix(1.0, 0.0, 0.0, 1.0, 8.1, 8.1)">
      <use height="16.25" transform="matrix(1.0, 0.0, 0.0, 1.0, -8.1, -8.1)" width="16.2" xlink:href="#shape0"/>
    </g>
    <g id="shape0" transform="matrix(1.0, 0.0, 0.0, 1.0, 8.1, 8.1)">
      <path d="M-0.15 -8.1 L1.0 -7.35 Q3.85 -5.75 5.8 -3.25 7.7 -0.6 8.1 2.75 2.2 10.05 -2.85 7.45 -7.95 4.8 -8.1 2.05 L-8.05 0.85 -6.3 1.15 -5.2 1.5 -1.05 2.2 Q-1.4 -2.65 -0.9 -5.05 L-0.15 -8.1" fill="#d6baba" fill-rule="evenodd" stroke="none"/>
      <path d="M-8.05 0.85 Q-7.65 -1.45 -5.3 -4.85 L-4.65 -5.55 Q-2.35 -7.45 -0.15 -8.1 L-0.9 -5.05 Q-1.4 -2.65 -1.05 2.2 L-5.2 1.5 -6.3 1.15 -8.05 0.85" fill="#ffffff" fill-rule="evenodd" stroke="none"/>
      <path d="M-0.15 -8.1 L1.0 -7.35 Q3.85 -5.75 5.8 -3.25 7.7 -0.6 8.1 2.75 2.2 10.05 -2.85 7.45 -7.95 4.8 -8.1 2.05 L-8.05 0.85 Q-7.65 -1.45 -5.3 -4.85 L-4.65 -5.55 Q-2.35 -7.45 -0.15 -8.1 Z" fill="none" stroke="#000000" stroke-linecap="round" stroke-linejoin="round" stroke-opacity="0.3019608" stroke-width="0.05"/>
    </g>
    <g id="shape1" transform="matrix(1.0, 0.0, 0.0, 1.0, 5.4, 5.6)">
      <path d="M-3.95 -0.35 Q-4.85 -1.15 -5.4 -2.4 L-5.25 -2.75 Q-4.1 -4.45 -2.65 -5.45 L-2.0 -5.35 -2.0 -5.15 -2.15 -4.1 -2.45 -2.6 Q-2.6 -1.35 -3.1 0.05 -3.5 0.05 -3.95 -0.35" fill="#ffffff" fill-rule="evenodd" stroke="none"/>
    </g>
  </defs>
</svg>
