<?xml version="1.0" encoding="UTF-8" standalone="no"?>
<svg xmlns:xlink="http://www.w3.org/1999/xlink" height="16.25px" width="16.2px" xmlns="http://www.w3.org/2000/svg">
  <g transform="matrix(1.0, 0.0, 0.0, 1.0, 8.1, 8.1)">
    <use height="16.25" id="_col3" transform="matrix(1.0, 0.0, 0.0, 1.0, -8.1, -8.1)" width="16.2" xlink:href="#sprite0"/>
    <use height="11.8" id="_col2" transform="matrix(0.5742, -0.0673, 0.0813, 0.5162, -5.4837, -0.1015)" width="2.8" xlink:href="#sprite1"/>
    <use height="11.8" id="_col2b" transform="matrix(0.5742, -0.0673, 0.1945, -0.4811, -5.4014, -0.0172)" width="2.8" xlink:href="#sprite1"/>
    <use height="6.85" transform="matrix(1.0, 0.0, 0.0, 1.0, -7.05, -6.95)" width="5.05" xlink:href="#shape2"/>
  </g>
  <defs>
    <g id="sprite0" transform="matrix(1.0, 0.0, 0.0, 1.0, 8.1, 8.1)">
      <use height="16.25" transform="matrix(1.0, 0.0, 0.0, 1.0, -8.1, -8.1)" width="16.2" xlink:href="#shape0"/>
    </g>
    <g id="shape0" transform="matrix(1.0, 0.0, 0.0, 1.0, 8.1, 8.1)">
      <path d="M-0.15 -8.1 L1.0 -7.35 Q3.85 -5.75 5.8 -3.25 7.7 -0.6 8.1 2.75 2.2 10.05 -2.85 7.45 -7.95 4.8 -8.1 2.05 L-8.05 0.85 -6.3 1.15 -5.2 1.5 -1.05 2.2 Q-1.4 -2.65 -0.9 -5.05 L-0.15 -8.1" fill="#d6baba" fill-rule="evenodd" stroke="none"/>
      <path d="M-8.05 0.85 Q-7.65 -1.45 -5.3 -4.85 L-4.65 -5.55 Q-2.35 -7.45 -0.15 -8.1 L-0.9 -5.05 Q-1.4 -2.65 -1.05 2.2 L-5.2 1.5 -6.3 1.15 -8.05 0.85" fill="#ffffff" fill-rule="evenodd" stroke="none"/>
      <path d="M-0.15 -8.1 L1.0 -7.35 Q3.85 -5.75 5.8 -3.25 7.7 -0.6 8.1 2.75 2.2 10.05 -2.85 7.45 -7.95 4.8 -8.1 2.05 L-8.05 0.85 Q-7.65 -1.45 -5.3 -4.85 L-4.65 -5.55 Q-2.35 -7.45 -0.15 -8.1 Z" fill="none" stroke="#000000" stroke-linecap="round" stroke-linejoin="round" stroke-opacity="0.3019608" stroke-width="0.05"/>
    </g>
    <g id="sprite1" transform="matrix(1.0, 0.0, 0.0, 1.0, 1.4, 5.9)">
      <use height="11.8" transform="matrix(1.0, 0.0, 0.0, 1.0, -1.4, -5.9)" width="2.8" xlink:href="#shape1"/>
    </g>
    <g id="shape1" transform="matrix(1.0, 0.0, 0.0, 1.0, 1.4, 5.9)">
      <path d="M1.15 -2.3 L1.1 -0.75 0.95 5.8 0.55 5.9 -0.15 5.75 -0.9 5.85 -1.4 5.8 -1.2 4.35 -1.15 3.3 -1.25 1.7 -1.1 -0.7 -0.95 -3.8 -0.75 -5.85 -0.75 -5.9 1.25 -5.7 1.35 -5.35 1.4 -4.8 1.3 -4.4 1.15 -2.3" fill="#a78383" fill-rule="evenodd" stroke="none"/>
      <path d="M1.15 -2.3 L1.3 -4.4 1.4 -4.8 1.35 -5.35 1.25 -5.7 -0.75 -5.9 -0.75 -5.85 -0.95 -3.8 -1.1 -0.7 -1.25 1.7 -1.15 3.3 -1.2 4.35 -1.4 5.8 -0.9 5.85 -0.15 5.75 0.55 5.9 0.95 5.8 1.1 -0.75 1.15 -2.3 Z" fill="none" stroke="#000000" stroke-linecap="round" stroke-linejoin="round" stroke-opacity="0.3019608" stroke-width="0.05"/>
    </g>
    <g id="shape2" transform="matrix(1.0, 0.0, 0.0, 1.0, 7.05, 6.95)">
      <path d="M-6.6 -0.6 L-7.05 -1.2 Q-7.05 -2.1 -4.5 -4.95 -2.0 -7.85 -2.0 -6.5 -2.0 -6.3 -2.35 -6.0 L-3.05 -5.1 -3.75 -3.75 Q-4.7 -1.65 -4.7 -1.0 L-4.95 -0.55 -5.45 -0.1 Q-6.05 -0.1 -6.6 -0.6 M-5.5 -0.8 L-4.85 -2.6 -4.0 -4.35 -3.25 -5.6 -4.95 -3.5 Q-6.35 -1.7 -6.35 -1.35 L-6.3 -1.15 -5.5 -0.8" fill="#ffffff" fill-rule="evenodd" stroke="none"/>
    </g>
  </defs>
</svg>
