<?xml version="1.0" encoding="UTF-8" standalone="no"?>
<svg xmlns:xlink="http://www.w3.org/1999/xlink" height="146.8px" width="196.05px" xmlns="http://www.w3.org/2000/svg">
  <g transform="matrix(1.0, 0.0, 0.0, 1.0, 31.85, 19.65)">
    <use height="18.15" transform="matrix(1.0, 0.0, 0.0, 1.0, -8.75, 0.3)" width="17.85" xlink:href="#sprite0"/>
    <clipPath id="clipPath0" transform="matrix(1.0, 0.0, 0.0, 1.0, 31.85, 19.65)">
      <use height="146.8" transform="matrix(1.0, 0.0, 0.0, 1.0, -31.85, -19.65)" width="196.05" xlink:href="#shape1"/>
    </clipPath>
    <g clip-path="url(#clipPath0)">
      <use height="31.8" transform="matrix(1.0, 0.0, 0.0, 1.0, -10.15, 5.2)" width="31.8" xlink:href="#shape2"/>
    </g>
  </g>
  <defs>
    <g id="sprite0" transform="matrix(1.0, 0.0, 0.0, 1.0, 8.8, 2.35)">
      <use height="17.85" id="_col0" transform="matrix(1.0, 0.0, 0.0, 1.0, -8.8, -2.05)" width="17.65" xlink:href="#sprite1"/>
      <use height="16.55" id="_p7" transform="matrix(1.0, 0.0, 0.0, 1.0, -6.85, -2.35)" width="15.9" xlink:href="#sprite2"/>
    </g>
    <g id="sprite1" transform="matrix(1.0, 0.0, 0.0, 1.0, 8.65, 8.7)">
      <use height="17.85" transform="matrix(1.0, 0.0, 0.0, 1.0, -8.65, -8.7)" width="17.65" xlink:href="#shape0"/>
    </g>
    <g id="shape0" transform="matrix(1.0, 0.0, 0.0, 1.0, 8.65, 8.7)">
      <path d="M-4.8 -6.05 Q-4.95 -4.15 -4.35 -2.2 L-3.95 -0.85 -6.0 -0.45 -6.0 -0.7 -6.0 -0.45 -3.95 -0.85 -4.35 -2.2 Q-4.95 -4.15 -4.8 -6.05 M-7.15 4.7 L-8.65 4.3 -8.35 1.95 Q-8.5 -0.85 -6.0 -0.7 -6.45 -2.2 -6.6 -4.4 -6.7 -6.05 -6.15 -7.7 L-6.1 -7.85 -5.7 -8.7 1.65 -8.35 2.0 -5.9 Q2.05 -4.35 1.55 -2.8 L0.8 -0.45 Q0.35 0.75 0.35 2.05 0.2 3.85 -1.3 4.85 L-1.7 5.15 Q-2.45 5.45 -3.2 5.15 -3.8 4.7 -4.1 4.7 -4.65 4.55 -5.1 4.7 -5.45 5.0 -5.45 5.6 L-5.25 6.2 Q-5.7 6.2 -6.0 5.8 L-7.15 4.7 -7.15 4.55 Q-7.45 1.95 -6.0 -0.45 -7.45 1.95 -7.15 4.55 L-7.15 4.7 M-3.95 -0.85 Q-3.5 2.05 -5.1 4.7 -3.5 2.05 -3.95 -0.85" fill="#efcdaf" fill-rule="evenodd" stroke="none"/>
      <path d="M4.6 -8.25 L5.3 -7.2 5.65 -6.75 7.0 -3.25 8.9 2.35 Q9.2 3.35 8.75 5.15 6.7 6.2 4.6 7.35 2.1 8.85 -0.25 9.15 L-0.8 8.15 -1.6 6.65 -3.8 7.05 -1.6 6.65 -0.8 8.15 -2.75 8.0 -3.8 7.05 -5.25 6.2 -5.45 5.6 Q-5.45 5.0 -5.1 4.7 -4.65 4.55 -4.1 4.7 -3.8 4.7 -3.2 5.15 -2.45 5.45 -1.7 5.15 L-1.3 4.85 Q0.2 3.85 0.35 2.05 0.35 0.75 0.8 -0.45 L1.55 -2.8 Q2.05 -4.35 2.0 -5.9 L1.65 -8.35 1.65 -8.4 1.85 -8.35 4.6 -8.25 M4.75 -0.85 L3.3 0.3 2.55 1.0 1.4 3.35 0.9 5.15 Q0.8 5.8 0.5 6.05 -0.25 6.5 -1.3 6.5 L-1.85 6.05 -2.0 6.05 -3.5 5.6 -4.1 4.7 -3.5 5.6 -2.0 6.05 -1.85 6.05 -1.3 6.5 Q-0.25 6.5 0.5 6.05 0.8 5.8 0.9 5.15 L1.4 3.35 2.55 1.0 3.3 0.3 4.75 -0.85 M2.7 4.3 L2.7 3.7 1.4 3.35 2.7 3.7 Q4.05 2.95 4.2 1.65 4.5 -0.15 3.3 0.3 4.5 -0.15 4.2 1.65 4.05 2.95 2.7 3.7 L2.7 4.3 4.35 4.45 4.6 4.7 Q5.35 5.0 5.35 5.6 5.35 5.0 4.6 4.7 L4.35 4.45 2.7 4.3 3.0 5.8 2.85 6.05 1.4 7.8 2.85 6.05 3.0 5.8 2.7 4.3 M-1.3 6.5 L-1.6 6.65 -1.3 6.5" fill="#c6886a" fill-rule="evenodd" stroke="none"/>
      <path d="M-6.0 -0.7 L-6.0 -0.45 -3.95 -0.85 -4.35 -2.2 Q-4.95 -4.15 -4.8 -6.05 M-5.7 -8.7 L-6.1 -7.85 -6.15 -7.7 Q-6.7 -6.05 -6.6 -4.4 -6.45 -2.2 -6.0 -0.7 -8.5 -0.85 -8.35 1.95 L-8.65 4.3 -7.15 4.7 -7.15 4.55 Q-7.45 1.95 -6.0 -0.45 M-0.8 8.15 L-0.25 9.15 Q2.1 8.85 4.6 7.35 6.7 6.2 8.75 5.15 9.2 3.35 8.9 2.35 L7.0 -3.25 5.65 -6.75 5.3 -7.2 4.6 -8.25 M-4.1 4.7 L-3.5 5.6 -2.0 6.05 -1.85 6.05 -1.3 6.5 Q-0.25 6.5 0.5 6.05 0.8 5.8 0.9 5.15 L1.4 3.35 2.55 1.0 3.3 0.3 4.75 -0.85 M1.4 3.35 L2.7 3.7 Q4.05 2.95 4.2 1.65 4.5 -0.15 3.3 0.3 M5.35 5.6 Q5.35 5.0 4.6 4.7 L4.35 4.45 2.7 4.3 3.0 5.8 2.85 6.05 1.4 7.8 M2.7 3.7 L2.7 4.3 M-7.15 4.7 L-6.0 5.8 Q-5.7 6.2 -5.25 6.2 L-5.45 5.6 Q-5.45 5.0 -5.1 4.7 -3.5 2.05 -3.95 -0.85 M-0.8 8.15 L-1.6 6.65 -3.8 7.05 -2.75 8.0 -0.8 8.15 M-1.6 6.65 L-1.3 6.5 M-5.25 6.2 L-3.8 7.05" fill="none" stroke="#000000" stroke-linecap="round" stroke-linejoin="round" stroke-opacity="0.4" stroke-width="0.05"/>
    </g>
    <g id="shape1" transform="matrix(1.0, 0.0, 0.0, 1.0, 31.85, 19.65)">
      <path d="M24.65 -16.4 Q30.75 -19.65 44.3 -19.65 L49.9 -19.1 56.4 -18.6 62.4 -17.9 Q95.45 -12.7 131.75 -1.75 168.05 9.15 163.75 38.45 159.4 67.75 136.95 107.05 114.45 146.35 49.75 108.8 L24.25 100.1 Q-39.8 108.65 -30.7 83.1 -21.65 57.55 -19.55 49.25 -17.5 40.9 -14.0 37.2 -10.5 33.45 -11.5 29.8 -12.55 26.15 -9.55 24.1 -6.55 22.7 -5.65 19.7 -4.8 16.7 1.25 18.15 L1.5 17.8 1.4 17.4 Q3.6 13.8 4.4 10.65 4.55 10.2 5.0 9.65 5.7 7.7 9.75 1.3 14.1 -5.65 15.75 -7.75 21.1 -14.55 24.65 -16.4 M-9.15 -2.25 Q-5.55 -0.1 -5.55 2.25 L-5.25 4.05 Q-5.25 4.95 -4.35 6.45 L-3.5 8.25 Q-3.5 9.3 -4.4 9.3 -4.8 9.3 -5.6 8.55 L-6.15 8.65 -7.05 8.55 Q-8.25 8.7 -8.55 9.65 L-11.5 10.1 Q-17.2 10.1 -19.75 8.4 -21.65 7.15 -21.65 5.1 -21.65 3.45 -20.3 1.35 -19.05 -0.65 -17.45 -1.8 -13.3 -4.8 -9.15 -2.25" fill="#00ff00" fill-rule="evenodd" stroke="none"/>
    </g>
    <g id="shape2" transform="matrix(1.0, 0.0, 0.0, 1.0, 10.15, -5.2)">
      <path d="M21.6 13.5 L21.65 13.5 21.65 13.55 21.6 13.5 8.65 19.75 8.6 19.65 Q7.95 18.5 6.6 18.2 5.3 17.9 4.1 18.6 L3.9 18.75 -1.55 5.55 3.0 10.35 3.45 10.8 7.75 15.4 21.6 13.5 M11.55 22.95 L11.4 23.1 13.25 36.7 7.4 24.25 7.55 24.15 Q8.7 23.45 9.0 22.15 L9.1 21.7 9.1 21.6 9.1 21.3 11.55 22.95" fill="#e0e8eb" fill-rule="evenodd" stroke="none"/>
      <path d="M21.6 13.5 L21.65 13.55 11.55 22.95 9.1 21.3 8.65 19.75 21.6 13.5 M13.25 36.7 L13.3 37.0 3.7 26.75 -10.15 28.65 0.05 19.05 -1.85 5.2 -1.55 5.55 3.9 18.75 Q2.9 19.45 2.65 20.55 L2.6 20.65 Q2.3 21.95 3.0 23.1 3.75 24.3 5.05 24.6 6.3 24.9 7.4 24.25 L13.25 36.7" fill="#b8c9cf" fill-rule="evenodd" stroke="none"/>
      <path d="M9.1 21.7 L9.1 21.6" fill="none" stroke="#ff0000" stroke-linecap="round" stroke-linejoin="round" stroke-width="0.05"/>
      <path d="M21.65 13.55 L21.65 13.5 21.6 13.5 M21.65 13.55 L11.55 22.95 11.4 23.1 13.25 36.7 13.3 37.0 3.7 26.75 -10.15 28.65 0.05 19.05 -1.85 5.2 -1.55 5.55 3.0 10.35 M3.45 10.8 L7.75 15.4 21.6 13.5 M8.65 19.75 L9.1 21.3 M3.9 18.75 Q2.9 19.45 2.65 20.55 L2.6 20.65 Q2.3 21.95 3.0 23.1 3.75 24.3 5.05 24.6 6.3 24.9 7.4 24.25 L7.55 24.15 Q8.7 23.45 9.0 22.15 L9.1 21.7 M9.1 21.6 L9.1 21.3 M3.9 18.75 L4.1 18.6 Q5.3 17.9 6.6 18.2 7.95 18.5 8.6 19.65 L8.65 19.75" fill="none" stroke="#000000" stroke-linecap="round" stroke-linejoin="round" stroke-opacity="0.4" stroke-width="0.05"/>
    </g>
  </defs>
</svg>
