<?xml version="1.0" encoding="UTF-8" standalone="no"?>
<svg xmlns:xlink="http://www.w3.org/1999/xlink" height="146.8px" width="196.05px" xmlns="http://www.w3.org/2000/svg">
  <g transform="matrix(1.0, 0.0, 0.0, 1.0, 31.85, 19.65)">
    <use height="18.15" transform="matrix(1.0, 0.0, 0.0, 1.0, -8.75, 0.3)" width="17.85" xlink:href="#sprite0"/>
    <clipPath id="clipPath0" transform="matrix(1.0, 0.0, 0.0, 1.0, 31.85, 19.65)">
      <use height="146.8" transform="matrix(1.0, 0.0, 0.0, 1.0, -31.85, -19.65)" width="196.05" xlink:href="#shape1"/>
    </clipPath>
    <g clip-path="url(#clipPath0)">
      <use height="43.15" transform="matrix(1.0, 0.0, 0.0, 1.0, -16.85, -0.05)" width="84.7" xlink:href="#shape2"/>
    </g>
  </g>
  <defs>
    <g id="sprite0" transform="matrix(1.0, 0.0, 0.0, 1.0, 8.8, 2.35)">
      <use height="17.85" id="_col0" transform="matrix(1.0, 0.0, 0.0, 1.0, -8.8, -2.05)" width="17.65" xlink:href="#sprite1"/>
      <use height="16.55" id="_p7" transform="matrix(1.0, 0.0, 0.0, 1.0, -6.85, -2.35)" width="15.9" xlink:href="#sprite2"/>
    </g>
    <g id="sprite1" transform="matrix(1.0, 0.0, 0.0, 1.0, 8.65, 8.7)">
      <use height="17.85" transform="matrix(1.0, 0.0, 0.0, 1.0, -8.65, -8.7)" width="17.65" xlink:href="#shape0"/>
    </g>
    <g id="shape0" transform="matrix(1.0, 0.0, 0.0, 1.0, 8.65, 8.7)">
      <path d="M-4.8 -6.05 Q-4.95 -4.15 -4.35 -2.2 L-3.95 -0.85 -6.0 -0.45 -6.0 -0.7 -6.0 -0.45 -3.95 -0.85 -4.35 -2.2 Q-4.95 -4.15 -4.8 -6.05 M-7.15 4.7 L-8.65 4.3 -8.35 1.95 Q-8.5 -0.85 -6.0 -0.7 -6.45 -2.2 -6.6 -4.4 -6.7 -6.05 -6.15 -7.7 L-6.1 -7.85 -5.7 -8.7 1.65 -8.35 2.0 -5.9 Q2.05 -4.35 1.55 -2.8 L0.8 -0.45 Q0.35 0.75 0.35 2.05 0.2 3.85 -1.3 4.85 L-1.7 5.15 Q-2.45 5.45 -3.2 5.15 -3.8 4.7 -4.1 4.7 -4.65 4.55 -5.1 4.7 -5.45 5.0 -5.45 5.6 L-5.25 6.2 Q-5.7 6.2 -6.0 5.8 L-7.15 4.7 -7.15 4.55 Q-7.45 1.95 -6.0 -0.45 -7.45 1.95 -7.15 4.55 L-7.15 4.7 M-3.95 -0.85 Q-3.5 2.05 -5.1 4.7 -3.5 2.05 -3.95 -0.85" fill="#efcdaf" fill-rule="evenodd" stroke="none"/>
      <path d="M4.6 -8.25 L5.3 -7.2 5.65 -6.75 7.0 -3.25 8.9 2.35 Q9.2 3.35 8.75 5.15 6.7 6.2 4.6 7.35 2.1 8.85 -0.25 9.15 L-0.8 8.15 -1.6 6.65 -3.8 7.05 -1.6 6.65 -0.8 8.15 -2.75 8.0 -3.8 7.05 -5.25 6.2 -5.45 5.6 Q-5.45 5.0 -5.1 4.7 -4.65 4.55 -4.1 4.7 -3.8 4.7 -3.2 5.15 -2.45 5.45 -1.7 5.15 L-1.3 4.85 Q0.2 3.85 0.35 2.05 0.35 0.75 0.8 -0.45 L1.55 -2.8 Q2.05 -4.35 2.0 -5.9 L1.65 -8.35 1.65 -8.4 1.85 -8.35 4.6 -8.25 M4.75 -0.85 L3.3 0.3 2.55 1.0 1.4 3.35 0.9 5.15 Q0.8 5.8 0.5 6.05 -0.25 6.5 -1.3 6.5 L-1.85 6.05 -2.0 6.05 -3.5 5.6 -4.1 4.7 -3.5 5.6 -2.0 6.05 -1.85 6.05 -1.3 6.5 Q-0.25 6.5 0.5 6.05 0.8 5.8 0.9 5.15 L1.4 3.35 2.55 1.0 3.3 0.3 4.75 -0.85 M2.7 4.3 L2.7 3.7 1.4 3.35 2.7 3.7 Q4.05 2.95 4.2 1.65 4.5 -0.15 3.3 0.3 4.5 -0.15 4.2 1.65 4.05 2.95 2.7 3.7 L2.7 4.3 4.35 4.45 4.6 4.7 Q5.35 5.0 5.35 5.6 5.35 5.0 4.6 4.7 L4.35 4.45 2.7 4.3 3.0 5.8 2.85 6.05 1.4 7.8 2.85 6.05 3.0 5.8 2.7 4.3 M-1.3 6.5 L-1.6 6.65 -1.3 6.5" fill="#c6886a" fill-rule="evenodd" stroke="none"/>
      <path d="M-6.0 -0.7 L-6.0 -0.45 -3.95 -0.85 -4.35 -2.2 Q-4.95 -4.15 -4.8 -6.05 M-5.7 -8.7 L-6.1 -7.85 -6.15 -7.7 Q-6.7 -6.05 -6.6 -4.4 -6.45 -2.2 -6.0 -0.7 -8.5 -0.85 -8.35 1.95 L-8.65 4.3 -7.15 4.7 -7.15 4.55 Q-7.45 1.95 -6.0 -0.45 M-0.8 8.15 L-0.25 9.15 Q2.1 8.85 4.6 7.35 6.7 6.2 8.75 5.15 9.2 3.35 8.9 2.35 L7.0 -3.25 5.65 -6.75 5.3 -7.2 4.6 -8.25 M-4.1 4.7 L-3.5 5.6 -2.0 6.05 -1.85 6.05 -1.3 6.5 Q-0.25 6.5 0.5 6.05 0.8 5.8 0.9 5.15 L1.4 3.35 2.55 1.0 3.3 0.3 4.75 -0.85 M1.4 3.35 L2.7 3.7 Q4.05 2.95 4.2 1.65 4.5 -0.15 3.3 0.3 M5.35 5.6 Q5.35 5.0 4.6 4.7 L4.35 4.45 2.7 4.3 3.0 5.8 2.85 6.05 1.4 7.8 M2.7 3.7 L2.7 4.3 M-7.15 4.7 L-6.0 5.8 Q-5.7 6.2 -5.25 6.2 L-5.45 5.6 Q-5.45 5.0 -5.1 4.7 -3.5 2.05 -3.95 -0.85 M-0.8 8.15 L-1.6 6.65 -3.8 7.05 -2.75 8.0 -0.8 8.15 M-1.6 6.65 L-1.3 6.5 M-5.25 6.2 L-3.8 7.05" fill="none" stroke="#000000" stroke-linecap="round" stroke-linejoin="round" stroke-opacity="0.4" stroke-width="0.05"/>
    </g>
    <g id="shape1" transform="matrix(1.0, 0.0, 0.0, 1.0, 31.85, 19.65)">
      <path d="M24.65 -16.4 Q30.75 -19.65 44.3 -19.65 L49.9 -19.1 56.4 -18.6 62.4 -17.9 Q95.45 -12.7 131.75 -1.75 168.05 9.15 163.75 38.45 159.4 67.75 136.95 107.05 114.45 146.35 49.75 108.8 L24.25 100.1 Q-39.8 108.65 -30.7 83.1 -21.65 57.55 -19.55 49.25 -17.5 40.9 -14.0 37.2 -10.5 33.45 -11.5 29.8 -12.55 26.15 -9.55 24.1 -6.55 22.7 -5.65 19.7 -4.8 16.7 1.25 18.15 L1.5 17.8 1.4 17.4 Q3.6 13.8 4.4 10.65 4.55 10.2 5.0 9.65 5.7 7.7 9.75 1.3 14.1 -5.65 15.75 -7.75 21.1 -14.55 24.65 -16.4 M-9.15 -2.25 Q-5.55 -0.1 -5.55 2.25 L-5.25 4.05 Q-5.25 4.95 -4.35 6.45 L-3.5 8.25 Q-3.5 9.3 -4.4 9.3 -4.8 9.3 -5.6 8.55 L-6.15 8.65 -7.05 8.55 Q-8.25 8.7 -8.55 9.65 L-11.5 10.1 Q-17.2 10.1 -19.75 8.4 -21.65 7.15 -21.65 5.1 -21.65 3.45 -20.3 1.35 -19.05 -0.65 -17.45 -1.8 -13.3 -4.8 -9.15 -2.25" fill="#00ff00" fill-rule="evenodd" stroke="none"/>
    </g>
    <g id="shape2" transform="matrix(1.0, 0.0, 0.0, 1.0, 16.85, 0.05)">
      <path d="M65.95 39.7 L64.95 39.85 62.55 40.2 56.85 40.6 56.1 40.5 55.35 40.6 52.6 40.15 Q51.85 40.15 45.55 37.15 L33.8 31.5 Q31.55 30.4 28.1 29.05 L23.25 27.05 18.0 24.9 Q15.3 23.65 15.15 22.3 L15.15 22.2 15.8 22.35 16.25 22.45 39.3 30.15 49.95 33.95 54.6 35.75 58.6 37.15 58.9 37.1 58.95 36.95 58.45 36.6 57.9 36.4 52.2 33.0 46.4 29.6 Q44.25 28.35 41.3 26.85 L36.05 24.1 Q29.4 20.35 26.05 18.8 L17.95 14.75 20.25 9.6 57.05 27.1 65.95 39.7" fill="#e0e8eb" fill-rule="evenodd" stroke="none"/>
      <path d="M17.65 15.45 L12.15 27.6 4.3 31.4 6.3 22.2 -16.85 7.1 -13.95 0.5 13.6 7.15 18.75 -0.05 20.25 9.6 17.95 14.75 17.65 15.45 M17.3 3.45 Q16.6 3.9 16.35 5.5 L15.9 7.05 15.5 9.0 13.2 15.8 14.3 16.4 Q14.9 16.4 15.8 14.0 L16.85 10.6 17.5 7.7 17.95 4.5 Q17.95 2.95 17.3 3.45 M11.15 9.8 L11.5 9.5 11.65 9.05 Q11.65 8.5 11.2 8.45 L10.35 8.5 2.6 6.2 Q-5.25 3.9 -5.95 3.9 L-8.5 3.5 -10.8 3.05 Q-11.25 3.05 -11.35 3.4 L-11.3 3.3 Q-11.9 3.6 -11.9 4.0 -11.9 4.95 -10.9 5.35 -8.75 6.0 -6.6 6.8 -3.85 7.8 -1.3 9.2 0.35 9.9 4.5 12.45 8.15 14.75 8.6 14.75 9.4 14.75 10.15 12.0 L11.15 9.8" fill="#000000" fill-rule="evenodd" stroke="none"/>
      <path d="M17.95 14.75 L26.05 18.8 Q29.4 20.35 36.05 24.1 L41.3 26.85 Q44.25 28.35 46.4 29.6 L52.2 33.0 57.9 36.4 58.45 36.6 58.95 36.95 58.9 37.1 58.6 37.15 54.6 35.75 49.95 33.95 39.3 30.15 16.25 22.45 15.8 22.35 15.15 22.2 15.15 22.3 Q15.3 23.65 18.0 24.9 L23.25 27.05 28.1 29.05 Q31.55 30.4 33.8 31.5 L45.55 37.15 Q51.85 40.15 52.6 40.15 L55.35 40.6 56.1 40.5 56.85 40.6 62.55 40.2 64.95 39.85 65.95 39.7 67.85 42.35 51.2 43.1 12.15 27.6 17.65 15.45 17.95 14.75 17.65 15.45 17.95 14.75" fill="#b8c9cf" fill-rule="evenodd" stroke="none"/>
      <path d="M11.15 9.8 L10.15 12.0 Q9.4 14.75 8.6 14.75 8.15 14.75 4.5 12.45 0.35 9.9 -1.3 9.2 -3.85 7.8 -6.6 6.8 -8.75 6.0 -10.9 5.35 -11.9 4.95 -11.9 4.0 -11.9 3.6 -11.3 3.3 L-11.35 3.4 Q-11.25 3.05 -10.8 3.05 L-8.5 3.5 -5.95 3.9 Q-5.25 3.9 2.6 6.2 L10.35 8.5 11.2 8.45 Q11.65 8.5 11.65 9.05 L11.5 9.5 11.15 9.8 M17.3 3.45 Q17.95 2.95 17.95 4.5 L17.5 7.7 16.85 10.6 15.8 14.0 Q14.9 16.4 14.3 16.4 L13.2 15.8 15.5 9.0 15.9 7.05 16.35 5.5 Q16.6 3.9 17.3 3.45" fill="#6b5a50" fill-rule="evenodd" stroke="none"/>
      <path d="M17.95 14.75 L17.65 15.45 12.15 27.6 51.2 43.1 67.85 42.35 65.95 39.7 57.05 27.1 20.25 9.6 17.95 14.75 M20.25 9.6 L18.75 -0.05 13.6 7.15 -13.95 0.5 -16.85 7.1 6.3 22.2 4.3 31.4 12.15 27.6" fill="none" stroke="#000000" stroke-linecap="round" stroke-linejoin="round" stroke-opacity="0.4" stroke-width="0.05"/>
    </g>
  </defs>
</svg>
