<?xml version="1.0" encoding="UTF-8" standalone="no"?>
<svg xmlns:xlink="http://www.w3.org/1999/xlink" height="146.8px" width="196.05px" xmlns="http://www.w3.org/2000/svg">
  <g transform="matrix(1.0, 0.0, 0.0, 1.0, 31.85, 19.65)">
    <use height="18.15" transform="matrix(1.0, 0.0, 0.0, 1.0, -8.75, 0.3)" width="17.85" xlink:href="#sprite0"/>
    <clipPath id="clipPath0" transform="matrix(1.0, 0.0, 0.0, 1.0, 31.85, 19.65)">
      <use height="146.8" transform="matrix(1.0, 0.0, 0.0, 1.0, -31.85, -19.65)" width="196.05" xlink:href="#shape1"/>
    </clipPath>
    <g clip-path="url(#clipPath0)">
      <use height="51.55" transform="matrix(1.0, 0.0, 0.0, 1.0, -17.1, 2.3)" width="69.95" xlink:href="#shape2"/>
    </g>
  </g>
  <defs>
    <g id="sprite0" transform="matrix(1.0, 0.0, 0.0, 1.0, 8.8, 2.35)">
      <use height="17.85" id="_col0" transform="matrix(1.0, 0.0, 0.0, 1.0, -8.8, -2.05)" width="17.65" xlink:href="#sprite1"/>
      <use height="16.55" id="_p7" transform="matrix(1.0, 0.0, 0.0, 1.0, -6.85, -2.35)" width="15.9" xlink:href="#sprite2"/>
    </g>
    <g id="sprite1" transform="matrix(1.0, 0.0, 0.0, 1.0, 8.65, 8.7)">
      <use height="17.85" transform="matrix(1.0, 0.0, 0.0, 1.0, -8.65, -8.7)" width="17.65" xlink:href="#shape0"/>
    </g>
    <g id="shape0" transform="matrix(1.0, 0.0, 0.0, 1.0, 8.65, 8.7)">
      <path d="M-4.8 -6.05 Q-4.95 -4.15 -4.35 -2.2 L-3.95 -0.85 -6.0 -0.45 -6.0 -0.7 -6.0 -0.45 -3.95 -0.85 -4.35 -2.2 Q-4.95 -4.15 -4.8 -6.05 M-7.15 4.7 L-8.65 4.3 -8.35 1.95 Q-8.5 -0.85 -6.0 -0.7 -6.45 -2.2 -6.6 -4.4 -6.7 -6.05 -6.15 -7.7 L-6.1 -7.85 -5.7 -8.7 1.65 -8.35 2.0 -5.9 Q2.05 -4.35 1.55 -2.8 L0.8 -0.45 Q0.35 0.75 0.35 2.05 0.2 3.85 -1.3 4.85 L-1.7 5.15 Q-2.45 5.45 -3.2 5.15 -3.8 4.7 -4.1 4.7 -4.65 4.55 -5.1 4.7 -5.45 5.0 -5.45 5.6 L-5.25 6.2 Q-5.7 6.2 -6.0 5.8 L-7.15 4.7 -7.15 4.55 Q-7.45 1.95 -6.0 -0.45 -7.45 1.95 -7.15 4.55 L-7.15 4.7 M-3.95 -0.85 Q-3.5 2.05 -5.1 4.7 -3.5 2.05 -3.95 -0.85" fill="#efcdaf" fill-rule="evenodd" stroke="none"/>
      <path d="M4.6 -8.25 L5.3 -7.2 5.65 -6.75 7.0 -3.25 8.9 2.35 Q9.2 3.35 8.75 5.15 6.7 6.2 4.6 7.35 2.1 8.85 -0.25 9.15 L-0.8 8.15 -1.6 6.65 -3.8 7.05 -1.6 6.65 -0.8 8.15 -2.75 8.0 -3.8 7.05 -5.25 6.2 -5.45 5.6 Q-5.45 5.0 -5.1 4.7 -4.65 4.55 -4.1 4.7 -3.8 4.7 -3.2 5.15 -2.45 5.45 -1.7 5.15 L-1.3 4.85 Q0.2 3.85 0.35 2.05 0.35 0.75 0.8 -0.45 L1.55 -2.8 Q2.05 -4.35 2.0 -5.9 L1.65 -8.35 1.65 -8.4 1.85 -8.35 4.6 -8.25 M4.75 -0.85 L3.3 0.3 2.55 1.0 1.4 3.35 0.9 5.15 Q0.8 5.8 0.5 6.05 -0.25 6.5 -1.3 6.5 L-1.85 6.05 -2.0 6.05 -3.5 5.6 -4.1 4.7 -3.5 5.6 -2.0 6.05 -1.85 6.05 -1.3 6.5 Q-0.25 6.5 0.5 6.05 0.8 5.8 0.9 5.15 L1.4 3.35 2.55 1.0 3.3 0.3 4.75 -0.85 M2.7 4.3 L2.7 3.7 1.4 3.35 2.7 3.7 Q4.05 2.95 4.2 1.65 4.5 -0.15 3.3 0.3 4.5 -0.15 4.2 1.65 4.05 2.95 2.7 3.7 L2.7 4.3 4.35 4.45 4.6 4.7 Q5.35 5.0 5.35 5.6 5.35 5.0 4.6 4.7 L4.35 4.45 2.7 4.3 3.0 5.8 2.85 6.05 1.4 7.8 2.85 6.05 3.0 5.8 2.7 4.3 M-1.3 6.5 L-1.6 6.65 -1.3 6.5" fill="#c6886a" fill-rule="evenodd" stroke="none"/>
      <path d="M-6.0 -0.7 L-6.0 -0.45 -3.95 -0.85 -4.35 -2.2 Q-4.95 -4.15 -4.8 -6.05 M-5.7 -8.7 L-6.1 -7.85 -6.15 -7.7 Q-6.7 -6.05 -6.6 -4.4 -6.45 -2.2 -6.0 -0.7 -8.5 -0.85 -8.35 1.95 L-8.65 4.3 -7.15 4.7 -7.15 4.55 Q-7.45 1.95 -6.0 -0.45 M-0.8 8.15 L-0.25 9.15 Q2.1 8.85 4.6 7.35 6.7 6.2 8.75 5.15 9.2 3.35 8.9 2.35 L7.0 -3.25 5.65 -6.75 5.3 -7.2 4.6 -8.25 M-4.1 4.7 L-3.5 5.6 -2.0 6.05 -1.85 6.05 -1.3 6.5 Q-0.25 6.5 0.5 6.05 0.8 5.8 0.9 5.15 L1.4 3.35 2.55 1.0 3.3 0.3 4.75 -0.85 M1.4 3.35 L2.7 3.7 Q4.05 2.95 4.2 1.65 4.5 -0.15 3.3 0.3 M5.35 5.6 Q5.35 5.0 4.6 4.7 L4.35 4.45 2.7 4.3 3.0 5.8 2.85 6.05 1.4 7.8 M2.7 3.7 L2.7 4.3 M-7.15 4.7 L-6.0 5.8 Q-5.7 6.2 -5.25 6.2 L-5.45 5.6 Q-5.45 5.0 -5.1 4.7 -3.5 2.05 -3.95 -0.85 M-0.8 8.15 L-1.6 6.65 -3.8 7.05 -2.75 8.0 -0.8 8.15 M-1.6 6.65 L-1.3 6.5 M-5.25 6.2 L-3.8 7.05" fill="none" stroke="#000000" stroke-linecap="round" stroke-linejoin="round" stroke-opacity="0.4" stroke-width="0.05"/>
    </g>
    <g id="shape1" transform="matrix(1.0, 0.0, 0.0, 1.0, 31.85, 19.65)">
      <path d="M24.65 -16.4 Q30.75 -19.65 44.3 -19.65 L49.9 -19.1 56.4 -18.6 62.4 -17.9 Q95.45 -12.7 131.75 -1.75 168.05 9.15 163.75 38.45 159.4 67.75 136.95 107.05 114.45 146.35 49.75 108.8 L24.25 100.1 Q-39.8 108.65 -30.7 83.1 -21.65 57.55 -19.55 49.25 -17.5 40.9 -14.0 37.2 -10.5 33.45 -11.5 29.8 -12.55 26.15 -9.55 24.1 -6.55 22.7 -5.65 19.7 -4.8 16.7 1.25 18.15 L1.5 17.8 1.4 17.4 Q3.6 13.8 4.4 10.65 4.55 10.2 5.0 9.65 5.7 7.7 9.75 1.3 14.1 -5.65 15.75 -7.75 21.1 -14.55 24.65 -16.4 M-9.15 -2.25 Q-5.55 -0.1 -5.55 2.25 L-5.25 4.05 Q-5.25 4.95 -4.35 6.45 L-3.5 8.25 Q-3.5 9.3 -4.4 9.3 -4.8 9.3 -5.6 8.55 L-6.15 8.65 -7.05 8.55 Q-8.25 8.7 -8.55 9.65 L-11.5 10.1 Q-17.2 10.1 -19.75 8.4 -21.65 7.15 -21.65 5.1 -21.65 3.45 -20.3 1.35 -19.05 -0.65 -17.45 -1.8 -13.3 -4.8 -9.15 -2.25" fill="#00ff00" fill-rule="evenodd" stroke="none"/>
    </g>
    <g id="shape2" transform="matrix(1.0, 0.0, 0.0, 1.0, 17.1, -2.3)">
      <path d="M42.65 23.1 Q43.85 21.85 43.85 20.95 43.85 16.65 41.2 20.1 38.75 23.35 36.15 30.2 35.1 32.5 33.3 38.1 31.6 43.2 31.6 43.6 L31.7 44.15 31.65 44.25 31.95 44.35 Q33.45 44.35 35.05 40.05 36.5 35.25 36.9 34.25 37.25 33.3 39.5 28.65 L41.45 24.2 42.65 23.1 M38.2 16.75 L38.4 15.6 Q41.95 15.5 45.0 16.9 46.0 17.4 47.0 17.95 L47.2 18.4 Q40.45 29.85 48.65 40.2 L50.05 41.75 52.0 43.4 52.85 44.0 50.35 47.45 47.85 45.05 47.0 44.1 45.7 45.3 43.65 46.7 40.45 47.55 36.15 48.25 33.0 48.65 Q31.0 48.65 27.0 46.7 23.2 44.85 21.75 43.4 L19.65 40.85 17.65 38.3 17.65 38.25 20.8 38.45 Q26.1 38.45 31.0 34.15 34.45 31.15 35.7 28.4 37.75 20.1 38.2 16.75" fill="#e0e8eb" fill-rule="evenodd" stroke="none"/>
      <path d="M42.65 23.1 L41.45 24.2 39.5 28.65 Q37.25 33.3 36.9 34.25 36.5 35.25 35.05 40.05 33.45 44.35 31.95 44.35 L31.65 44.25 31.7 44.15 31.6 43.6 Q31.6 43.2 33.3 38.1 35.1 32.5 36.15 30.2 38.75 23.35 41.2 20.1 43.85 16.65 43.85 20.95 43.85 21.85 42.65 23.1 M50.35 47.45 Q43.05 55.7 30.5 53.3 12.15 50.05 8.8 32.3 L9.1 31.95 Q21.4 36.05 30.75 28.55 32.95 26.8 34.55 24.7 37.2 21.15 38.2 16.75 37.75 20.1 35.7 28.4 34.45 31.15 31.0 34.15 26.1 38.45 20.8 38.45 L17.65 38.25 17.65 38.3 19.65 40.85 21.75 43.4 Q23.2 44.85 27.0 46.7 31.0 48.65 33.0 48.65 L36.15 48.25 40.45 47.55 43.65 46.7 45.7 45.3 47.0 44.1 47.85 45.05 50.35 47.45" fill="#b8c9cf" fill-rule="evenodd" stroke="none"/>
      <path d="M38.2 16.75 L38.4 15.6 Q41.95 15.5 45.0 16.9 46.0 17.4 47.0 17.95 L47.2 18.4 Q40.45 29.85 48.65 40.2 L50.05 41.75 52.0 43.4 52.85 44.0 50.35 47.45 Q43.05 55.7 30.5 53.3 12.15 50.05 8.8 32.3 L9.1 31.95 Q21.4 36.05 30.75 28.55 32.95 26.8 34.55 24.7 37.2 21.15 38.2 16.75 Z" fill="none" stroke="#000000" stroke-linecap="round" stroke-linejoin="round" stroke-opacity="0.4" stroke-width="0.05"/>
      <path d="M-15.75 4.8 L-14.9 2.3 48.95 25.1 48.0 27.75 -15.75 4.8" fill="#6b5a50" fill-rule="evenodd" stroke="none"/>
      <path d="M48.0 27.75 L46.75 31.25 -17.1 8.45 -15.75 4.8 48.0 27.75" fill="#000000" fill-rule="evenodd" stroke="none"/>
      <path d="M-15.75 4.8 L-14.9 2.3 48.95 25.1 48.0 27.75 46.75 31.25 -17.1 8.45 -15.75 4.8 Z" fill="none" stroke="#000000" stroke-linecap="round" stroke-linejoin="round" stroke-opacity="0.4" stroke-width="0.05"/>
    </g>
  </defs>
</svg>
