<?xml version="1.0" encoding="UTF-8" standalone="no"?>
<svg xmlns:xlink="http://www.w3.org/1999/xlink" height="41.8px" width="56.45px" xmlns="http://www.w3.org/2000/svg">
  <g transform="matrix(1.0, 0.0, 0.0, 1.0, 0.5, 0.5)">
    <use height="41.8" transform="matrix(1.0, 0.0, 0.0, 1.0, -0.5, -0.5)" width="56.45" xlink:href="#shape0"/>
  </g>
  <defs>
    <g id="shape0" transform="matrix(1.0, 0.0, 0.0, 1.0, 0.5, 0.5)">
      <path d="M41.25 -0.5 Q47.05 -0.5 51.15 2.7 L51.2 2.75 Q56.15 6.35 55.95 13.4 55.85 17.8 53.05 21.7 L53.05 21.65 Q51.5 24.0 46.45 27.25 L53.75 27.5 Q54.25 27.5 54.75 27.85 55.2 28.1 55.45 28.6 L55.65 29.65 54.95 39.45 Q54.9 40.3 54.25 40.85 53.6 41.35 52.8 41.3 L25.9 39.25 25.6 39.2 25.2 39.2 15.1 38.45 14.15 38.15 13.5 37.35 11.55 33.55 9.95 36.8 9.15 37.65 8.0 37.9 1.5 37.4 Q0.8 37.35 0.3 36.9 -0.2 36.4 -0.3 35.75 -0.45 35.1 -0.1 34.5 L5.45 23.85 -0.25 13.8 Q-0.6 13.2 -0.45 12.5 -0.35 11.75 0.2 11.3 0.7 10.85 1.45 10.8 L10.55 10.45 11.65 10.75 12.4 11.55 13.2 13.1 14.05 11.35 Q14.3 10.85 14.8 10.6 15.25 10.25 15.8 10.25 L23.6 9.95 Q24.3 9.9 24.9 10.4 L24.95 10.45 Q26.25 6.35 29.05 3.95 L29.1 3.9 Q33.45 -0.05 39.5 -0.45 L41.25 -0.5 M23.9 15.75 L19.65 23.6 24.0 31.0 24.0 29.3 Q24.0 28.8 24.25 28.35 L24.85 27.65 30.4 23.7 30.35 23.7 34.75 20.2 34.8 20.15 39.0 16.15 Q39.65 15.1 39.75 13.95 L39.55 13.2 39.45 13.15 38.9 12.9 38.85 12.9 Q37.3 13.3 37.0 17.2 L36.65 18.25 Q36.3 18.7 35.75 18.9 L34.7 19.05 25.55 17.5 Q24.75 17.35 24.25 16.7 23.9 16.25 23.9 15.75" fill="#733c2f" fill-rule="evenodd" stroke="none"/>
      <path d="M23.65 11.95 L17.35 23.65 25.35 37.2 15.25 36.45 11.5 29.1 8.15 35.9 1.65 35.4 7.75 23.8 1.5 12.8 10.6 12.45 12.9 17.05 13.3 17.7 13.4 17.3 13.7 16.55 15.85 12.25 23.65 11.95 M26.0 29.25 L31.55 25.3 36.05 21.7 40.7 17.2 Q41.65 15.7 41.75 14.05 41.75 12.55 40.9 11.75 40.05 10.85 38.8 10.9 35.45 11.0 35.0 17.05 L25.85 15.5 Q26.65 8.75 30.4 5.4 34.25 1.9 39.6 1.55 L41.25 1.5 Q46.35 1.5 49.95 4.3 54.1 7.4 53.95 13.35 53.85 17.15 51.4 20.5 49.15 23.8 39.35 29.0 L53.65 29.5 52.95 39.3 26.05 37.25 26.0 29.25" fill="#cccc00" fill-rule="evenodd" stroke="none"/>
    </g>
  </defs>
</svg>
