<?xml version="1.0" encoding="UTF-8" standalone="no"?>
<svg xmlns:xlink="http://www.w3.org/1999/xlink" height="30.4px" width="20.05px" xmlns="http://www.w3.org/2000/svg">
  <g transform="matrix(1.0, 0.0, 0.0, 1.0, 10.05, 15.25)">
    <use height="28.0" id="_col0" transform="matrix(0.9552, -0.2927, 0.2927, 0.9552, -10.0342, -11.5985)" width="12.4" xlink:href="#sprite0"/>
    <use height="19.7" id="_col2" transform="matrix(0.9552, -0.2927, 0.2927, 0.9552, -10.0342, -11.5985)" width="12.4" xlink:href="#sprite1"/>
    <use height="0.0" id="_p7" transform="matrix(1.0, 0.0, 0.0, 1.0, 0.3, 3.3)" width="0.0" xlink:href="#sprite2"/>
  </g>
  <defs>
    <g id="sprite0" transform="matrix(1.0, 0.0, 0.0, 1.0, 6.2, -0.3)">
      <use height="28.0" transform="matrix(1.0, 0.0, 0.0, 1.0, -6.2, 0.3)" width="12.4" xlink:href="#shape0"/>
    </g>
    <g id="shape0" transform="matrix(1.0, 0.0, 0.0, 1.0, 6.2, -0.3)">
      <path d="M3.25 1.5 Q5.3 3.1 6.2 6.75 L5.5 24.35 4.35 26.8 3.15 27.6 Q1.45 28.6 -0.55 28.15 L-0.4 26.55 0.0 22.65 Q0.25 18.35 0.15 13.0 L-0.2 0.3 Q1.7 0.4 3.25 1.5" fill="#c6886a" fill-rule="evenodd" stroke="none"/>
      <path d="M-0.2 0.3 L0.15 13.0 Q0.25 18.35 0.0 22.65 L-0.4 26.55 -0.55 28.15 -2.1 27.65 Q-3.4 27.15 -4.0 26.55 -4.8 25.75 -4.85 24.65 L-6.2 6.95 Q-6.25 4.65 -5.35 3.25 -3.85 0.8 -0.2 0.3" fill="#efcdaf" fill-rule="evenodd" stroke="none"/>
      <path d="M4.35 26.8 L5.5 24.35 6.2 6.75 Q5.3 3.1 3.25 1.5 M-4.0 26.55 Q-4.8 25.75 -4.85 24.65 L-6.2 6.95 Q-6.25 4.65 -5.35 3.25" fill="none" stroke="#000000" stroke-linecap="round" stroke-linejoin="round" stroke-opacity="0.3019608" stroke-width="0.05"/>
    </g>
    <g id="sprite1" transform="matrix(1.0, 0.0, 0.0, 1.0, 6.2, -0.3)">
      <use height="19.7" transform="matrix(1.0, 0.0, 0.0, 1.0, -6.2, 0.3)" width="12.4" xlink:href="#shape1"/>
    </g>
    <g id="shape1" transform="matrix(1.0, 0.0, 0.0, 1.0, 6.2, -0.3)">
      <path d="M3.25 1.5 Q5.3 3.1 6.2 6.75 L5.9 14.7 Q3.75 18.8 2.4 18.8 L2.2 18.95 1.95 19.05 Q1.75 19.05 1.55 19.2 L1.2 19.35 0.1 19.85 0.15 13.0 -0.2 0.3 Q1.7 0.4 3.25 1.5" fill="#c6886a" fill-rule="evenodd" stroke="none"/>
      <path d="M-0.2 0.3 L0.15 13.0 0.1 19.85 -0.3 20.0 -1.85 19.8 Q-2.85 19.8 -4.35 18.3 L-5.4 17.15 -6.2 6.95 Q-6.25 4.65 -5.35 3.25 -3.85 0.8 -0.2 0.3" fill="#efcdaf" fill-rule="evenodd" stroke="none"/>
      <path d="M0.1 19.85 L1.2 19.35 1.55 19.2 Q1.75 19.05 1.95 19.05 L2.2 18.95 2.4 18.8 Q3.75 18.8 5.9 14.7 L6.2 6.75 Q5.3 3.1 3.25 1.5 M0.1 19.85 L-0.3 20.0 -1.85 19.8 Q-2.85 19.8 -4.35 18.3 L-5.4 17.15 -6.2 6.95 Q-6.25 4.65 -5.35 3.25" fill="none" stroke="#000000" stroke-linecap="round" stroke-linejoin="round" stroke-opacity="0.3019608" stroke-width="0.05"/>
    </g>
  </defs>
</svg>
