<?xml version="1.0" encoding="UTF-8" standalone="no"?>
<svg xmlns:xlink="http://www.w3.org/1999/xlink" height="25.45px" width="16.0px" xmlns="http://www.w3.org/2000/svg">
  <g transform="matrix(1.0, 0.0, 0.0, 1.0, 8.0, 17.45)">
    <use height="22.05" transform="matrix(1.0, 0.0, 0.0, 1.0, -8.0, -14.05)" width="16.0" xlink:href="#shape0"/>
    <use height="6.2" transform="matrix(1.0, 0.0, 0.0, 1.0, 0.25, -17.45)" width="4.95" xlink:href="#shape1"/>
  </g>
  <defs>
    <g id="shape0" transform="matrix(1.0, 0.0, 0.0, 1.0, 8.0, 14.05)">
      <path d="M2.45 -13.5 Q-0.9 -14.1 -0.4 -8.4" fill="none" stroke="#ffffff" stroke-linecap="round" stroke-linejoin="round" stroke-width="1.0"/>
      <path d="M2.5 -5.0 L-2.5 -5.0 -2.5 -10.0 2.5 -10.0 2.5 -5.0" fill="#000000" fill-rule="evenodd" stroke="none"/>
      <path d="M5.65 -5.7 Q8.0 -3.35 8.0 0.0 8.0 3.3 5.65 5.65 3.3 8.0 0.0 8.0 -3.35 8.0 -5.7 5.65 -8.0 3.3 -8.0 0.0 -8.0 -3.35 -5.7 -5.7 -3.35 -8.0 0.0 -8.0 3.3 -8.0 5.65 -5.7" fill="url(#gradient0)" fill-rule="evenodd" stroke="none"/>
    </g>
    <radialGradient cx="0" cy="0" gradientTransform="matrix(0.0143, 0.0, 0.0, 0.0143, -2.15, -2.8)" gradientUnits="userSpaceOnUse" id="gradient0" r="819.2" spreadMethod="pad">
      <stop offset="0.2549019607843137" stop-color="#323267"/>
      <stop offset="0.6745098039215687" stop-color="#000000"/>
    </radialGradient>
    <g id="shape1" transform="matrix(1.0, 0.0, 0.0, 1.0, -0.25, 17.45)">
      <path d="M1.35 -11.6 L0.95 -11.55 2.15 -13.1 1.7 -11.25 1.6 -11.3 1.35 -11.6 M4.65 -13.65 L5.05 -13.5 5.2 -13.25 5.05 -12.95 4.65 -12.85 4.25 -12.95 4.1 -13.25 4.25 -13.5 4.65 -13.65 M1.55 -17.45 L1.75 -15.95 1.65 -15.1 0.85 -15.1 0.7 -16.2 0.3 -16.8 0.25 -16.95 Q0.35 -17.3 0.65 -16.75 L1.55 -17.45" fill="#ffff00" fill-rule="evenodd" stroke="none"/>
    </g>
  </defs>
</svg>
