<?xml version="1.0" encoding="UTF-8" standalone="no"?>
<svg xmlns:xlink="http://www.w3.org/1999/xlink" height="30.35px" width="96.55px" xmlns="http://www.w3.org/2000/svg">
  <g transform="matrix(1.0, 0.0, 0.0, 1.0, 43.2, 15.55)">
    <use height="28.45" transform="matrix(1.0, 0.0, 0.0, 1.0, -3.95, -14.5)" width="21.75" xlink:href="#shape0"/>
  </g>
  <defs>
    <g id="shape0" transform="matrix(1.0, 0.0, 0.0, 1.0, 3.95, 14.5)">
      <path d="M-2.5 -0.5 L5.25 -6.4 12.4 -11.55 13.9 -12.7 15.75 -9.55 7.75 -5.7 2.8 -3.15 1.65 -2.5 -2.5 -0.5 M17.55 -4.0 L16.7 -3.9 8.15 -2.5 0.8 -0.8 -2.55 -0.05 2.2 -1.9 9.85 -4.8 16.7 -7.2 17.4 -4.55 17.55 -4.0 M17.55 0.85 L16.35 4.3 16.2 4.7 8.0 2.7 -2.5 0.3 0.8 0.15 Q6.9 0.0 11.5 0.25 L17.55 0.85 M13.95 8.4 L11.1 11.95 -2.05 1.15 6.7 5.1 13.95 8.4" fill="#ffffcc" fill-rule="evenodd" stroke="none"/>
      <path d="M-3.2 0.1 L-3.1 0.0 -2.5 -0.5 1.65 -2.5 2.8 -3.15 7.75 -5.7 15.75 -9.55 16.7 -7.2 9.85 -4.8 2.2 -1.9 -2.55 -0.05 0.8 -0.8 8.15 -2.5 16.7 -3.9 17.55 -4.0 Q18.05 -0.9 17.55 0.85 L11.5 0.25 Q6.9 0.0 0.8 0.15 L-2.5 0.3 8.0 2.7 16.2 4.7 13.95 8.4 6.7 5.1 -2.05 1.15 -3.25 0.15 -3.2 0.15 -3.2 0.1" fill="#e8d4ad" fill-rule="evenodd" stroke="none"/>
      <path d="M13.9 -12.7 L12.4 -11.55 5.25 -6.4 -2.5 -0.5 -3.1 0.0 -3.2 0.1 -3.2 0.15 -3.4 0.0 -3.45 -0.65 2.3 -5.5 14.25 -14.4 14.7 -13.3 13.9 -12.7 M11.1 11.95 L12.35 13.05 11.55 13.95 Q8.1 10.85 4.45 7.95 L-3.25 1.55 -3.95 0.8 -3.45 0.05 -3.4 0.0 -3.25 0.15 -2.05 1.15 11.1 11.95" fill="#725327" fill-rule="evenodd" stroke="none"/>
      <path d="M-2.5 -0.5 L5.25 -6.4 12.4 -11.55 13.9 -12.7 14.7 -13.3 14.25 -14.4 2.3 -5.5 -3.45 -0.65 -3.4 0.0 -3.2 0.15 -3.2 0.1 -3.1 0.0 -2.5 -0.5 M15.75 -9.55 L13.9 -12.7 M14.25 -14.4 L14.15 -14.5 14.25 -14.4 M16.7 -7.2 L15.75 -9.55 M16.7 -7.2 L17.4 -4.55 17.55 -4.0 Q18.05 -0.9 17.55 0.85 L16.35 4.3 16.2 4.7 13.95 8.4 11.1 11.95 12.35 13.05 11.55 13.95 Q8.1 10.85 4.45 7.95 L-3.25 1.55 -3.95 0.8 -3.45 0.05 -3.4 0.0 -3.25 0.15 M-2.05 1.15 L-3.25 0.15 M-2.05 1.15 L11.1 11.95" fill="none" stroke="#000000" stroke-linecap="round" stroke-linejoin="round" stroke-opacity="0.4" stroke-width="0.05"/>
    </g>
  </defs>
</svg>
