<?xml version="1.0" encoding="UTF-8" standalone="no"?>
<svg xmlns:xlink="http://www.w3.org/1999/xlink" height="30.35px" width="96.55px" xmlns="http://www.w3.org/2000/svg">
  <g transform="matrix(1.0, 0.0, 0.0, 1.0, 43.2, 15.55)">
    <use height="17.45" transform="matrix(1.0, 0.0, 0.0, 1.0, -19.7, -8.9)" width="40.85" xlink:href="#shape0"/>
  </g>
  <defs>
    <g id="shape0" transform="matrix(1.0, 0.0, 0.0, 1.0, 19.7, 8.9)">
      <path d="M19.8 -4.65 L19.95 -3.0 Q19.95 -1.45 19.35 -1.15 L19.25 -1.0 19.05 -0.75 18.95 -0.55 18.8 -0.4 18.45 -0.25 18.25 -0.3 18.0 -0.25 17.65 -0.15 15.2 1.6 11.9 1.5 Q10.1 0.55 8.8 1.3 L7.55 2.2 6.55 2.65 5.85 2.8 6.55 2.25 6.75 1.75 Q5.1 1.15 2.75 1.05 L0.6 0.95 0.5 0.75 0.3 0.6 -0.25 0.05 -0.7 -0.5 -0.9 -0.65 -1.1 -0.8 Q-1.3 -1.1 -1.3 -1.75 -1.35 -2.65 -0.8 -3.0 L-1.95 -2.8 -2.0 -2.95 Q-1.5 -2.9 -1.0 -3.3 L-0.25 -4.0 0.45 -4.95 0.85 -5.5 1.35 -6.15 2.05 -6.65 Q5.3 -7.95 8.75 -8.65 13.8 -9.7 17.7 -6.7 L19.8 -4.65" fill="#964d2e" fill-rule="evenodd" stroke="none"/>
      <path d="M2.05 -6.65 L1.35 -6.15 0.85 -5.5 0.45 -4.95 -0.25 -4.0 -1.0 -3.3 Q-1.5 -2.9 -2.0 -2.95 L-1.95 -2.8 -0.8 -3.0 Q-1.35 -2.65 -1.3 -1.75 -1.3 -1.1 -1.1 -0.8 L-0.9 -0.65 -0.7 -0.5 -0.25 0.05 0.3 0.6 0.5 0.75 0.6 0.95 2.75 1.05 Q5.1 1.15 6.75 1.75 L6.55 2.25 5.85 2.8 6.55 2.65 7.55 2.2 8.8 1.3 Q10.1 0.55 11.9 1.5 L15.2 1.6 17.65 -0.15 18.0 -0.25 18.25 -0.3 18.45 -0.25 18.8 -0.4 18.95 -0.55 19.05 -0.75 19.25 -1.0 19.35 -1.15 Q19.95 -1.45 19.95 -3.0 L19.8 -4.65 Q21.5 -2.15 21.05 1.3 20.05 4.2 15.8 7.15 11.35 10.1 1.6 6.8 -3.4 5.05 -8.9 2.35 L-11.95 1.4 -14.5 1.35 -16.9 1.85 Q-19.05 2.2 -19.45 1.55 L-19.7 0.75 Q-19.75 0.05 -19.5 -0.1 L-19.25 -0.35 -19.25 -0.4 -17.4 -0.6 -12.2 -1.5 Q-8.85 -2.25 -4.7 -3.75 L-0.95 -5.35 -0.6 -5.45 1.0 -6.2 2.05 -6.65" fill="#753c24" fill-rule="evenodd" stroke="none"/>
      <path d="M19.8 -4.65 L17.7 -6.7 Q13.8 -9.7 8.75 -8.65 5.3 -7.95 2.05 -6.65 L1.0 -6.2 -0.6 -5.45 -0.95 -5.35 -4.7 -3.75 Q-8.85 -2.25 -12.2 -1.5 L-17.4 -0.6 -19.25 -0.4 -19.25 -0.35 -19.5 -0.1 Q-19.75 0.05 -19.7 0.75 L-19.45 1.55 Q-19.05 2.2 -16.9 1.85 L-14.5 1.35 -11.95 1.4 -8.9 2.35 Q-3.4 5.05 1.6 6.8 11.35 10.1 15.8 7.15 20.05 4.2 21.05 1.3 21.5 -2.15 19.8 -4.65 Z" fill="none" stroke="#000000" stroke-linecap="round" stroke-linejoin="round" stroke-opacity="0.4" stroke-width="0.05"/>
    </g>
  </defs>
</svg>
