<?xml version="1.0" encoding="UTF-8" standalone="no"?>
<svg xmlns:xlink="http://www.w3.org/1999/xlink" height="30.35px" width="96.55px" xmlns="http://www.w3.org/2000/svg">
  <g transform="matrix(1.0, 0.0, 0.0, 1.0, 43.2, 15.55)">
    <use height="26.8" transform="matrix(1.0, 0.0, 0.0, 1.0, -18.65, -12.45)" width="50.45" xlink:href="#shape0"/>
  </g>
  <defs>
    <g id="shape0" transform="matrix(1.0, 0.0, 0.0, 1.0, 18.65, 12.45)">
      <path d="M18.6 1.25 L-18.6 1.5 -18.65 -1.5 18.6 -1.7 18.6 1.25" fill="#964d2e" fill-rule="evenodd" stroke="none"/>
      <path d="M18.6 1.25 L-18.6 1.5 -18.65 -1.5 18.6 -1.7 18.6 1.25 Z" fill="none" stroke="#000000" stroke-linecap="round" stroke-linejoin="round" stroke-opacity="0.4" stroke-width="0.05"/>
      <path d="M6.9 -3.75 L6.95 -3.9 7.05 -3.75 6.9 -3.75 M14.65 -6.05 L14.65 -6.1 14.65 -6.05 M9.25 -7.95 L9.3 -7.9 9.25 -7.9 9.25 -7.95" fill="#5c5f5f" fill-rule="evenodd" stroke="none"/>
      <path d="M27.45 -6.95 Q28.75 -5.1 29.2 -2.75 L27.8 -0.7 Q25.95 1.55 23.95 2.3 L23.35 2.5 22.25 2.55 21.3 3.15 22.25 2.55 23.35 2.5 24.2 3.0 25.05 3.75 Q25.5 4.85 24.75 6.15 23.95 7.5 22.55 8.05 L20.65 7.95 Q19.7 7.5 19.45 6.8 19.05 5.85 20.1 4.4 20.65 3.6 21.3 3.15 L20.45 3.35 17.0 3.5 14.3 2.8 14.6 3.4 Q14.9 4.15 14.7 5.15 14.4 6.15 13.7 6.45 13.0 6.7 11.75 6.0 10.3 5.1 9.75 3.65 L9.6 3.25 9.5 1.9 9.55 1.9 9.95 1.25 10.75 0.8 10.9 0.75 10.65 0.6 Q8.35 -0.8 8.1 -1.4 L8.0 -1.6 7.85 -1.75 7.35 -2.7 7.05 -3.75 6.95 -3.9 7.45 -5.2 7.8 -5.85 9.05 -7.6 9.25 -7.9 9.3 -7.9 9.25 -7.95 8.75 -8.35 6.75 -9.35 6.85 -9.5 8.85 -11.25 9.55 -11.65 10.05 -11.65 10.35 -11.65 10.5 -11.35 10.7 -11.05 11.3 -10.35 11.65 -10.05 Q13.75 -11.35 16.4 -11.75 20.4 -12.25 23.7 -10.35 L24.35 -11.45 25.0 -12.35 Q25.9 -12.7 27.3 -11.8 L27.5 -11.65 27.75 -11.45 28.15 -11.15 27.15 -10.15 25.7 -8.85 27.45 -6.95 M21.2 -7.05 L21.3 -6.75 21.45 -5.9 21.3 -5.2 Q20.9 -4.3 19.85 -3.9 L16.9 -4.1 Q15.7 -4.55 15.05 -5.35 L14.65 -6.05 Q14.4 -7.45 16.55 -8.25 L19.15 -8.4 Q20.65 -8.1 21.2 -7.05 20.65 -8.1 19.15 -8.4 L16.55 -8.25 Q14.4 -7.45 14.65 -6.05 L14.65 -6.1 Q14.35 -5.95 14.4 -5.45 L14.55 -4.5 Q15.0 -3.25 16.25 -2.3 18.3 -0.7 21.2 -1.85 22.45 -2.35 22.65 -3.75 22.8 -4.8 22.5 -5.6 21.65 -7.2 21.2 -7.05 M23.7 -7.65 Q23.5 -8.2 22.7 -8.2 21.85 -8.1 22.15 -7.35 22.45 -6.65 23.55 -7.1 L23.75 -7.35 23.7 -7.65 M22.35 -9.3 Q22.0 -10.15 20.85 -9.9 19.7 -9.55 20.0 -8.75 20.15 -8.45 20.6 -8.3 21.1 -8.1 21.65 -8.3 22.0 -8.4 22.2 -8.75 L22.35 -9.3 M25.7 -8.85 L25.1 -9.35 24.9 -9.5 23.7 -10.35 24.9 -9.5 25.1 -9.35 25.7 -8.85 M11.65 -10.05 L9.3 -7.9 11.65 -10.05 M14.3 2.8 Q13.8 1.9 12.85 1.25 11.7 0.55 10.9 0.75 11.7 0.55 12.85 1.25 13.8 1.9 14.3 2.8" fill="#6c7071" fill-rule="evenodd" stroke="none"/>
      <path d="M28.15 -11.15 L28.35 -11.0 29.05 -10.3 29.1 -10.25 29.6 -9.05 29.8 -8.5 29.7 -8.5 28.6 -7.7 27.45 -6.95 25.7 -8.85 27.15 -10.15 28.15 -11.15 M29.2 -2.75 L29.35 -1.9 Q29.65 0.3 29.25 2.4 L30.55 2.5 Q31.55 2.6 31.75 3.15 31.9 3.7 31.65 5.45 31.4 7.15 30.2 7.85 L29.4 8.15 Q28.75 8.0 27.25 6.5 L27.15 6.65 Q24.25 10.45 19.5 11.1 L18.95 11.15 18.95 12.5 18.85 13.9 18.75 13.95 18.6 14.15 15.95 14.25 Q13.85 14.0 13.45 13.05 L13.2 12.65 13.25 12.55 13.55 11.65 14.0 10.55 Q12.45 9.95 11.0 8.9 L9.4 7.45 8.35 7.25 Q7.3 6.85 6.85 5.65 6.6 5.05 6.5 3.8 6.45 2.6 6.75 2.25 L6.55 1.25 Q6.15 -1.4 6.9 -3.75 L7.05 -3.75 7.35 -2.7 7.85 -1.75 8.0 -1.6 8.1 -1.4 Q8.35 -0.8 10.65 0.6 L10.9 0.75 10.75 0.8 9.95 1.25 9.55 1.9 9.5 1.9 9.6 3.25 9.75 3.65 Q10.3 5.1 11.75 6.0 13.0 6.7 13.7 6.45 14.4 6.15 14.7 5.15 14.9 4.15 14.6 3.4 L14.3 2.8 17.0 3.5 20.45 3.35 21.3 3.15 Q20.65 3.6 20.1 4.4 19.05 5.85 19.45 6.8 19.7 7.5 20.65 7.95 L22.55 8.05 Q23.95 7.5 24.75 6.15 25.5 4.85 25.05 3.75 L24.2 3.0 23.35 2.5 23.95 2.3 Q25.95 1.55 27.8 -0.7 L29.2 -2.75 M7.8 -5.85 L5.85 -7.0 5.6 -7.25 6.75 -9.35 8.75 -8.35 9.25 -7.95 9.25 -7.9 9.05 -7.6 7.8 -5.85 M14.65 -6.05 L15.05 -5.35 Q15.7 -4.55 16.9 -4.1 L19.85 -3.9 Q20.9 -4.3 21.3 -5.2 L21.45 -5.9 21.3 -6.75 21.2 -7.05 Q21.65 -7.2 22.5 -5.6 22.8 -4.8 22.65 -3.75 22.45 -2.35 21.2 -1.85 18.3 -0.7 16.25 -2.3 15.0 -3.25 14.55 -4.5 L14.4 -5.45 Q14.35 -5.95 14.65 -6.1 L14.65 -6.05 M27.25 6.5 Q28.65 4.55 29.25 2.4 28.65 4.55 27.25 6.5 M6.75 2.25 Q7.4 5.2 9.4 7.45 7.4 5.2 6.75 2.25 M14.0 10.55 Q16.3 11.4 18.95 11.15 16.3 11.4 14.0 10.55" fill="#404040" fill-rule="evenodd" stroke="none"/>
      <path d="M22.35 -9.3 L22.2 -8.75 Q22.0 -8.4 21.65 -8.3 21.1 -8.1 20.6 -8.3 20.15 -8.45 20.0 -8.75 19.7 -9.55 20.85 -9.9 22.0 -10.15 22.35 -9.3 M23.7 -7.65 L23.75 -7.35 23.55 -7.1 Q22.45 -6.65 22.15 -7.35 21.85 -8.1 22.7 -8.2 23.5 -8.2 23.7 -7.65" fill="#d7dfe3" fill-rule="evenodd" stroke="none"/>
      <path d="M28.15 -11.15 L28.35 -11.0 29.05 -10.3 29.1 -10.25 29.6 -9.05 29.8 -8.5 29.7 -8.5 28.6 -7.7 27.45 -6.95 Q28.75 -5.1 29.2 -2.75 L29.35 -1.9 Q29.65 0.3 29.25 2.4 L30.55 2.5 Q31.55 2.6 31.75 3.15 31.9 3.7 31.65 5.45 31.4 7.15 30.2 7.85 L29.4 8.15 Q28.75 8.0 27.25 6.5 L27.15 6.65 Q24.25 10.45 19.5 11.1 L18.95 11.15 18.95 12.5 18.85 13.9 18.75 13.95 18.6 14.15 15.95 14.25 Q13.85 14.0 13.45 13.05 L13.2 12.65 13.25 12.55 13.55 11.65 14.0 10.55 Q12.45 9.95 11.0 8.9 L9.4 7.45 8.35 7.25 Q7.3 6.85 6.85 5.65 6.6 5.05 6.5 3.8 6.45 2.6 6.75 2.25 L6.55 1.25 Q6.15 -1.4 6.9 -3.75 L6.95 -3.9 7.45 -5.2 7.8 -5.85 5.85 -7.0 5.6 -7.25 6.75 -9.35 6.85 -9.5 8.85 -11.25 9.55 -11.65 10.05 -11.65 10.35 -11.65 10.5 -11.35 10.7 -11.05 11.3 -10.35 11.65 -10.05 Q13.75 -11.35 16.4 -11.75 20.4 -12.25 23.7 -10.35 L24.35 -11.45 25.0 -12.35 Q25.9 -12.7 27.3 -11.8 L27.5 -11.65 27.75 -11.45 28.15 -11.15 M25.7 -8.85 L27.45 -6.95 M14.65 -6.05 L15.05 -5.35 Q15.7 -4.55 16.9 -4.1 L19.85 -3.9 Q20.9 -4.3 21.3 -5.2 L21.45 -5.9 21.3 -6.75 21.2 -7.05 Q20.65 -8.1 19.15 -8.4 L16.55 -8.25 Q14.4 -7.45 14.65 -6.05 L14.65 -6.1 M23.7 -10.35 L24.9 -9.5 25.1 -9.35 25.7 -8.85 M29.25 2.4 Q28.65 4.55 27.25 6.5 M9.3 -7.9 L11.65 -10.05 M9.25 -7.9 L9.3 -7.9 M9.25 -7.9 L9.05 -7.6 7.8 -5.85 M10.9 0.75 Q11.7 0.55 12.85 1.25 13.8 1.9 14.3 2.8 M21.3 3.15 L22.25 2.55 23.35 2.5 24.2 3.0 25.05 3.75 Q25.5 4.85 24.75 6.15 23.95 7.5 22.55 8.05 L20.65 7.95 Q19.7 7.5 19.45 6.8 19.05 5.85 20.1 4.4 20.65 3.6 21.3 3.15 M10.9 0.75 L10.75 0.8 9.95 1.25 9.55 1.9 9.5 1.9 9.6 3.25 9.75 3.65 Q10.3 5.1 11.75 6.0 13.0 6.7 13.7 6.45 14.4 6.15 14.7 5.15 14.9 4.15 14.6 3.4 L14.3 2.8 M18.95 11.15 Q16.3 11.4 14.0 10.55 M9.4 7.45 Q7.4 5.2 6.75 2.25" fill="none" stroke="#000000" stroke-linecap="round" stroke-linejoin="round" stroke-opacity="0.4" stroke-width="0.05"/>
    </g>
  </defs>
</svg>
