<?xml version="1.0" encoding="UTF-8" standalone="no"?>
<svg xmlns:xlink="http://www.w3.org/1999/xlink" height="30.35px" width="96.55px" xmlns="http://www.w3.org/2000/svg">
  <g transform="matrix(1.0, 0.0, 0.0, 1.0, 43.2, 15.55)">
    <use height="15.55" transform="matrix(1.0, 0.0, 0.0, 1.0, -17.55, -9.5)" width="42.15" xlink:href="#shape0"/>
  </g>
  <defs>
    <g id="shape0" transform="matrix(1.0, 0.0, 0.0, 1.0, 17.55, 9.5)">
      <path d="M23.7 -7.85 L22.8 -6.25 22.35 -5.7 Q20.8 -4.55 19.0 -4.1 18.05 -3.95 17.3 -4.5 L16.7 -4.8 16.35 -4.9 16.05 -4.65 16.4 -3.1 18.1 -1.95 20.35 -1.8 20.45 -1.9 Q21.25 -0.5 20.4 0.8 L19.15 2.0 Q18.35 2.6 17.45 2.7 L16.9 2.6 16.45 2.25 15.85 1.5 15.35 0.6 Q14.55 -1.0 12.85 -1.2 L11.15 -1.3 6.7 -0.85 3.85 -0.55 0.0 -0.4 -6.35 -0.75 -11.75 -0.8 -14.45 -0.9 -16.4 -1.3 -17.5 -1.4 -17.5 -1.7 -17.05 -2.1 -16.4 -2.1 -16.05 -2.0 -16.05 -1.8 -15.5 -1.65 Q-14.9 -1.9 -15.3 -2.85 L-15.6 -3.2 -15.8 -3.25 -15.85 -3.2 Q-15.9 -3.75 -15.3 -4.0 L-14.65 -4.05 Q-14.2 -4.0 -14.1 -3.8 L-13.85 -3.0 -13.7 -2.1 -8.4 -1.8 -2.45 -1.65 4.55 -2.4 Q9.4 -2.95 11.6 -3.85 L13.05 -4.7 14.65 -6.65 Q16.0 -8.55 17.6 -9.2 19.15 -9.85 21.35 -9.15 22.9 -8.7 23.7 -7.85 M-14.05 -2.4 L-13.85 -2.15 -13.7 -2.1 -13.85 -2.15 -14.05 -2.4" fill="#ffffcc" fill-rule="evenodd" stroke="none"/>
      <path d="M-17.5 -1.4 L-16.4 -1.3 -14.45 -0.9 -11.75 -0.8 -6.35 -0.75 0.0 -0.4 3.85 -0.55 6.7 -0.85 11.15 -1.3 12.85 -1.2 Q14.55 -1.0 15.35 0.6 L15.85 1.5 16.45 2.25 16.9 2.6 17.45 2.7 Q18.35 2.6 19.15 2.0 L20.4 0.8 Q21.25 -0.5 20.45 -1.9 L20.35 -1.8 18.1 -1.95 16.4 -3.1 16.05 -4.65 16.35 -4.9 16.7 -4.8 17.3 -4.5 Q18.05 -3.95 19.0 -4.1 20.8 -4.55 22.35 -5.7 L22.8 -6.25 23.7 -7.85 Q24.95 -6.55 24.5 -4.75 L24.3 -4.15 Q23.8 -3.2 22.7 -2.75 L21.5 -2.05 21.2 -1.8 Q20.95 -1.45 21.1 -0.9 L21.35 0.05 21.55 1.35 21.4 3.05 20.35 4.6 18.45 5.7 16.4 5.95 Q15.55 5.8 15.0 5.2 L12.35 2.85 Q11.6 2.4 10.65 2.1 L9.2 1.95 5.5 1.5 2.5 1.25 -1.45 0.8 -4.7 0.3 -8.05 0.0 -11.75 0.2 -12.2 0.2 -16.1 -0.15 -16.45 -0.25 -17.0 -0.6 -17.5 -1.4 M-16.05 -2.0 L-15.55 -1.75 -15.8 -3.15 -15.85 -3.2 -15.8 -3.25 -15.6 -3.2 -15.3 -2.85 Q-14.9 -1.9 -15.5 -1.65 L-16.05 -1.8 -16.05 -2.0" fill="#cbb492" fill-rule="evenodd" stroke="none"/>
      <path d="M23.7 -7.85 Q22.9 -8.7 21.35 -9.15 19.15 -9.85 17.6 -9.2 16.0 -8.55 14.65 -6.65 L13.05 -4.7 11.6 -3.85 Q9.4 -2.95 4.55 -2.4 L-2.45 -1.65 -8.4 -1.8 -13.7 -2.1 -13.85 -2.15 -14.05 -2.4 M23.7 -7.85 Q24.95 -6.55 24.5 -4.75 L24.3 -4.15 Q23.8 -3.2 22.7 -2.75 L21.5 -2.05 21.2 -1.8 Q20.95 -1.45 21.1 -0.9 L21.35 0.05 21.55 1.35 21.4 3.05 20.35 4.6 18.45 5.7 16.4 5.95 Q15.55 5.8 15.0 5.2 L12.35 2.85 Q11.6 2.4 10.65 2.1 L9.2 1.95 5.5 1.5 2.5 1.25 -1.45 0.8 -4.7 0.3 -8.05 0.0 -11.75 0.2 -12.2 0.2 -16.1 -0.15 -16.45 -0.25 -17.0 -0.6 -17.5 -1.4 -17.5 -1.7 -17.05 -2.1 -16.4 -2.1 -16.05 -2.0 -15.55 -1.75 -15.8 -3.15 M-15.85 -3.2 Q-15.9 -3.75 -15.3 -4.0 L-14.65 -4.05 Q-14.2 -4.0 -14.1 -3.8 L-13.85 -3.0 -13.7 -2.1" fill="none" stroke="#000000" stroke-linecap="round" stroke-linejoin="round" stroke-opacity="0.4" stroke-width="0.05"/>
    </g>
  </defs>
</svg>
