<?xml version="1.0" encoding="UTF-8" standalone="no"?>
<svg xmlns:xlink="http://www.w3.org/1999/xlink" height="30.35px" width="96.55px" xmlns="http://www.w3.org/2000/svg">
  <g transform="matrix(1.0, 0.0, 0.0, 1.0, 43.2, 15.55)">
    <use height="25.2" transform="matrix(1.0, 0.0, 0.0, 1.0, -18.7, -10.4)" width="36.8" xlink:href="#shape0"/>
  </g>
  <defs>
    <g id="shape0" transform="matrix(1.0, 0.0, 0.0, 1.0, 18.7, 10.4)">
      <path d="M-3.7 -2.0 L-3.95 -0.15" fill="none" stroke="#000000" stroke-linecap="round" stroke-linejoin="round" stroke-opacity="0.4" stroke-width="0.05"/>
      <path d="M-3.75 -1.7 L-3.25 -3.8 -3.45 -3.8 -6.5 -1.95 -7.5 -1.2 -6.45 -0.35 -5.7 0.3 -4.75 1.2 -4.15 1.45 -4.05 0.15 -3.8 1.75 -3.0 5.0 -4.85 2.6 Q-5.7 1.65 -7.1 0.9 L-10.55 -0.3 Q-14.3 -0.1 -16.95 -0.35 -19.6 -0.55 -18.2 -2.9 L-16.05 -2.65 -11.4 -2.15 Q-9.05 -2.1 -7.05 -2.9 L-1.1 -6.6 -3.35 -2.6 -3.75 -1.7" fill="#5f66a9" fill-rule="evenodd" stroke="none"/>
      <path d="M-4.05 0.15 L-4.15 1.45 -4.75 1.2 -5.7 0.3 -6.45 -0.35 -7.5 -1.2 -6.5 -1.95 -3.45 -3.8 -3.25 -3.8 -3.75 -1.7 M-1.1 -6.6 L-7.05 -2.9 Q-9.05 -2.1 -11.4 -2.15 L-16.05 -2.65 -18.2 -2.9 Q-19.6 -0.55 -16.95 -0.35 -14.3 -0.1 -10.55 -0.3 L-7.1 0.9 Q-5.7 1.65 -4.85 2.6 L-3.0 5.0" fill="none" stroke="#000000" stroke-linecap="round" stroke-linejoin="round" stroke-opacity="0.4" stroke-width="0.05"/>
      <path d="M14.1 4.8 Q16.9 2.05 16.7 -1.45 16.55 -5.0 13.5 -7.3 10.4 -9.5 6.2 -9.25 2.0 -8.9 -0.8 -6.2 -3.65 -3.45 -3.4 0.1 -3.25 3.65 -0.2 5.85 2.85 8.15 7.05 7.85 11.2 7.5 14.1 4.8 M15.1 5.55 Q11.85 8.6 7.1 8.95 2.35 9.35 -1.15 6.8 -4.6 4.25 -4.8 0.2 -5.0 -3.85 -1.8 -6.95 1.4 -10.05 6.15 -10.35 10.95 -10.75 14.45 -8.2 17.9 -5.6 18.1 -1.55 18.3 2.5 15.1 5.55" fill="#5f66a9" fill-rule="evenodd" stroke="none"/>
      <path d="M14.1 4.8 Q11.2 7.5 7.05 7.85 2.85 8.15 -0.2 5.85 -3.25 3.65 -3.4 0.1 -3.65 -3.45 -0.8 -6.2 2.0 -8.9 6.2 -9.25 10.4 -9.5 13.5 -7.3 16.55 -5.0 16.7 -1.45 16.9 2.05 14.1 4.8 M15.1 5.55 Q11.85 8.6 7.1 8.95 2.35 9.35 -1.15 6.8 -4.6 4.25 -4.8 0.2 -5.0 -3.85 -1.8 -6.95 1.4 -10.05 6.15 -10.35 10.95 -10.75 14.45 -8.2 17.9 -5.6 18.1 -1.55 18.3 2.5 15.1 5.55" fill="none" stroke="#000000" stroke-linecap="round" stroke-linejoin="round" stroke-opacity="0.4" stroke-width="0.05"/>
      <path d="M3.65 -8.5 Q3.35 -8.1 3.5 -7.5 L3.85 -6.4 5.75 -6.85 6.1 -6.9 5.9 -7.2 Q5.7 -7.55 5.85 -8.1 6.0 -8.6 6.3 -8.95 M12.5 -7.65 L10.75 -7.65 10.7 -7.45 10.5 -5.85 12.55 -6.3 12.2 -7.2 M10.75 -7.65 L8.5 -7.4 Q8.5 -7.05 8.65 -6.8 L9.0 -6.55 9.45 -6.15 9.55 -5.65 10.5 -5.85 10.45 -5.5 Q10.4 -5.0 10.7 -4.05 L12.6 -4.35 12.55 -6.3 M8.85 -8.5 L8.6 -7.9 8.5 -7.4 6.1 -6.9 6.9 -5.75 6.9 -5.15 9.55 -5.65 Q9.6 -5.0 9.1 -3.8 L8.8 -3.15 9.0 -3.15 M10.7 -4.05 L10.7 -3.95 10.8 -3.75 M11.5 -0.35 L11.5 0.55 13.2 -0.3 13.25 -0.3 12.9 -0.75 M12.5 -3.35 L12.55 -3.95 12.6 -4.35 12.7 -4.4 13.85 -4.3 13.55 -6.45 M10.7 -4.05 L10.15 -3.8 M7.3 -1.6 L7.3 -1.5 7.8 -0.05 M6.95 -3.2 L6.95 -4.0 6.9 -5.15 5.05 -4.75 3.7 -4.5 3.65 -4.5 3.55 -3.6 M8.8 -3.15 L8.7 -2.95 M8.65 -1.5 L8.7 -1.4 9.05 -1.1 9.9 -0.6 M8.8 -3.15 L7.1 -3.15 M10.8 2.45 L11.9 2.1 Q11.55 1.5 11.55 1.1 L11.5 0.55 10.7 0.8 10.0 0.7 9.9 1.5 M6.7 0.7 L9.75 0.55 10.0 0.7 9.85 0.05 8.9 -1.05 M15.2 3.65 L14.45 -0.8 14.35 -1.15 14.25 -1.1 13.25 -0.3 Q13.25 -0.25 13.35 -0.25 L13.9 0.35 14.1 1.2 14.35 1.05 M14.1 -4.2 L13.85 -4.3 14.35 -1.15 15.1 -1.45 15.85 -1.6 14.85 -5.75 M15.85 -1.6 L16.25 -1.7 M10.95 -8.7 L10.75 -7.65 M-2.75 -3.0 L-2.45 -3.15 -1.6 -3.4 -1.65 -3.6 -1.95 -4.4 -2.55 -4.15 M-1.55 -5.25 L-1.9 -4.6 -1.95 -4.4 Q-1.65 -4.55 -1.4 -4.65 L-1.35 -5.3 M-1.4 -3.45 L-1.6 -3.4 -1.8 -1.75 -1.35 -1.7 -1.35 -2.5 -1.4 -3.45 -1.4 -4.65 0.4 -5.35 0.35 -6.0 Q0.3 -7.1 0.6 -7.25 L0.75 -7.3 M1.15 -4.0 L3.7 -4.5 3.85 -6.4 0.4 -5.35 0.5 -4.9 0.75 -4.6 1.0 -4.35 1.15 -4.0 -1.4 -3.45 M-1.9 4.3 L-1.5 4.15 -1.5 3.5 Q-1.45 2.25 -1.8 1.45 L-1.8 1.4 -2.85 1.65 -3.25 1.75 M1.0 8.85 L0.95 8.65 0.15 6.6 Q-0.55 4.6 -0.2 4.1 L-0.05 3.7 -1.5 4.15 -1.5 5.3 -0.8 7.1 Q-0.25 8.35 -0.35 9.35 -0.5 10.15 -0.25 11.75 -0.05 13.4 0.4 14.1 L0.9 14.8 M0.4 1.2 Q0.2 0.1 0.4 -0.9 L0.4 -0.85 -1.1 -1.6 -1.35 -1.7 Q-1.25 -0.15 -1.0 0.25 L-0.25 1.5 0.0 1.65 0.6 1.9 M-1.8 -1.75 L-1.85 -1.45 Q-2.15 0.5 -1.8 1.4 L-1.7 1.3 -0.65 1.25 -0.25 1.5 Q0.25 2.7 -0.05 3.7 L1.25 3.55 M10.45 4.1 L10.65 4.3 11.65 3.85 12.7 3.55 12.55 3.15 11.95 2.15 11.9 2.1 11.95 2.05 14.1 1.2 14.1 2.3 14.05 3.0 14.25 4.1 M-1.8 -1.75 Q-2.35 -1.7 -2.85 -1.3 L-3.15 -1.1 M3.35 4.45 L3.5 5.3 3.5 5.65 3.6 5.6 5.5 5.3 6.75 5.55 7.1 5.5 7.1 5.45 Q7.15 5.4 7.2 5.5 L7.3 5.45 8.1 5.35 10.65 4.3 10.8 4.5 10.85 5.25 12.8 4.55 12.7 3.95 12.7 3.55 12.75 3.55 14.05 3.0 M1.9 6.3 L3.5 5.65 3.75 6.4 4.25 6.95 4.55 7.75 4.65 8.75 4.55 9.65 5.1 10.0 5.7 10.35 5.75 11.05 M2.25 -1.45 Q0.9 -0.8 0.4 -0.9 L0.85 -2.35 Q1.3 -3.35 1.15 -4.0 M7.2 5.5 L7.1 5.5 7.1 6.5 10.85 5.25 10.8 5.6 Q10.7 6.55 10.9 6.9 L11.6 7.65 M7.1 6.5 L7.15 7.1 Q7.3 8.55 7.65 9.25 M7.1 6.5 L4.65 7.3 M12.8 4.55 L13.15 4.45 M12.85 4.9 L12.8 4.55 M15.85 -1.6 L16.05 -0.6" fill="none" stroke="#b3892b" stroke-linecap="round" stroke-linejoin="round" stroke-opacity="0.3019608" stroke-width="0.05"/>
      <path d="M10.8 -3.75 L11.4 -2.25 11.5 -0.9 11.5 -0.35 M12.9 -0.75 L12.7 -0.85 Q12.4 -1.4 12.5 -3.35 M10.15 -3.8 L9.7 -3.45 M7.1 -3.15 L6.95 -3.15 Q7.05 -2.1 7.3 -1.6 M3.55 -3.6 Q3.4 -2.9 3.55 -2.65 L3.8 -2.45 Q4.9 -3.1 6.35 -3.1 L6.95 -3.15 6.95 -3.2 M8.7 -2.95 Q8.4 -2.05 8.65 -1.5 M9.9 1.5 L9.85 1.85 9.75 2.85 10.8 2.45 M2.25 -1.45 L2.4 -1.55 3.8 -2.45 4.4 -2.0 5.15 -1.4 5.2 -0.6 5.25 0.6 M0.6 1.9 Q1.45 2.1 2.8 1.9 L6.05 0.95 6.7 0.7 M1.25 3.55 L1.8 3.5 6.35 3.15 7.05 3.3 7.8 3.45 9.65 2.85 9.75 2.85 Q9.7 3.35 9.8 3.55 L10.3 4.05 10.45 4.1" fill="none" stroke="#1b6522" stroke-linecap="round" stroke-linejoin="round" stroke-opacity="0.3019608" stroke-width="0.05"/>
      <path d="M7.45 -9.8 L7.8 -9.75 Q10.55 -9.7 11.7 -9.1 12.85 -8.5 12.95 -8.45 L13.1 -8.35 13.25 -8.3 13.45 -8.2 14.4 -7.55 Q17.9 -4.95 18.1 -0.9 18.35 3.1 15.1 6.15 11.9 9.3 7.1 9.65 2.35 10.0 -1.15 7.45 -4.65 4.9 -4.8 0.85 -5.0 -3.15 -1.8 -6.3 1.4 -9.4 6.15 -9.75 L7.45 -9.8 M6.6 -8.6 L6.2 -8.65 Q2.0 -8.25 -0.75 -5.55 -3.6 -2.8 -3.4 0.75 -3.25 4.3 -0.2 6.55 2.9 8.8 7.05 8.5 11.25 8.1 14.1 5.4 16.9 2.7 16.75 -0.8 16.55 -4.35 13.5 -6.65 L12.95 -7.0 Q10.2 -8.75 6.6 -8.6" fill="#5f66a9" fill-rule="evenodd" stroke="none"/>
      <path d="M7.8 -9.75 L7.45 -9.8 7.8 -9.75" fill="#e3e4f0" fill-rule="evenodd" stroke="none"/>
      <path d="M7.8 -9.75 L7.45 -9.8 6.15 -9.75 Q1.4 -9.4 -1.8 -6.3 -5.0 -3.15 -4.8 0.85 -4.65 4.9 -1.15 7.45 2.35 10.0 7.1 9.65 11.9 9.3 15.1 6.15 18.35 3.1 18.1 -0.9 17.9 -4.95 14.4 -7.55 L13.45 -8.2 13.25 -8.3 13.1 -8.35 12.95 -8.45 Q12.85 -8.5 11.7 -9.1 10.55 -9.7 7.8 -9.75 M6.6 -8.6 Q10.2 -8.75 12.95 -7.0 L13.5 -6.65 Q16.55 -4.35 16.75 -0.8 16.9 2.7 14.1 5.4 11.25 8.1 7.05 8.5 2.9 8.8 -0.2 6.55 -3.25 4.3 -3.4 0.75 -3.6 -2.8 -0.75 -5.55 2.0 -8.25 6.2 -8.65 L6.6 -8.6" fill="none" stroke="#000000" stroke-linecap="round" stroke-linejoin="round" stroke-opacity="0.4" stroke-width="0.05"/>
    </g>
  </defs>
</svg>
