<?xml version="1.0" encoding="UTF-8" standalone="no"?>
<svg xmlns:xlink="http://www.w3.org/1999/xlink" height="20.75px" width="22.85px" xmlns="http://www.w3.org/2000/svg">
  <g transform="matrix(1.0, 0.0, 0.0, 1.0, -6.8, -3.1)">
    <path d="M14.65 3.1 Q17.0 3.1 18.6 4.7 20.25 6.4 20.25 8.7 20.25 11.0 18.6 12.6 17.0 14.3 14.65 14.3 12.35 14.3 10.7 12.6 9.1 11.0 9.1 8.65 9.1 6.4 10.7 4.7 12.35 3.1 14.65 3.1 M14.1 6.45 Q14.75 8.15 16.45 8.9 L16.95 8.4 15.1 5.8 14.1 6.45 M19.7 8.6 L18.2 9.25 Q18.35 9.85 18.9 9.85 L19.5 9.4 19.7 8.8 19.7 8.6 M18.1 11.5 Q18.1 10.85 17.5 11.1 16.8 11.4 16.8 11.9 L16.85 12.2 Q17.0 12.5 17.4 12.5 L17.85 12.1 18.1 11.5" fill="#733c2f" fill-rule="evenodd" stroke="none"/>
    <path d="M14.1 6.45 L15.1 5.8 16.95 8.4 16.45 8.9 Q14.75 8.15 14.1 6.45 M18.1 11.5 L17.85 12.1 17.4 12.5 Q17.0 12.5 16.85 12.2 L16.8 11.9 Q16.8 11.4 17.5 11.1 18.1 10.85 18.1 11.5 M19.7 8.6 L19.7 8.8 19.5 9.4 18.9 9.85 Q18.35 9.85 18.2 9.25 L19.7 8.6" fill="#fcf9e0" fill-rule="evenodd" stroke="none"/>
    <path d="M23.9 16.15 L11.3 16.15 11.3 13.6 23.9 13.6 23.9 16.15" fill="#733c2f" fill-rule="evenodd" stroke="none"/>
    <path d="M16.1 19.8 L6.8 19.8 6.8 17.25 16.1 17.25 16.1 19.8" fill="#733c2f" fill-rule="evenodd" stroke="none"/>
    <path d="M24.3 11.15 L26.1 10.85 Q27.95 10.75 28.85 11.95 29.3 12.4 29.65 13.65 L29.65 13.75 29.65 15.75 29.65 15.85 Q29.15 18.2 26.9 18.8 L24.8 18.9 24.55 18.75 24.0 18.4 23.95 18.35 23.4 17.95 23.3 17.8 23.25 17.7 22.35 17.75 22.2 17.7 22.1 17.65 Q19.4 14.95 22.1 12.5 22.9 11.7 24.05 11.2 L24.3 11.15" fill="#733c2f" fill-rule="evenodd" stroke="none"/>
    <path d="M26.15 11.3 Q24.0 11.4 22.55 12.45 21.1 13.45 21.5 14.95 L21.7 16.2 Q21.9 16.85 22.5 17.2 L23.15 17.15 Q23.5 17.05 23.75 17.5 L24.3 17.9 24.95 18.35 26.8 18.25 Q28.75 17.75 29.2 15.7 L29.2 13.7 Q28.9 12.6 28.5 12.2 27.75 11.2 26.15 11.3" fill="#fcf9e0" fill-rule="evenodd" stroke="none"/>
    <path d="M10.6 21.6 L10.55 21.6 Q10.8 21.95 11.55 21.95 L11.6 22.0 11.65 22.1 12.05 22.7 12.75 23.35 12.85 23.4 13.45 23.65 14.3 23.85 14.8 23.85 Q17.15 23.9 18.25 21.75 L18.25 21.6 18.75 19.45 18.8 19.55 Q18.8 18.3 18.45 17.75 L18.45 17.7 Q17.9 16.35 16.1 16.0 L12.1 16.15 Q9.95 17.0 10.05 18.8 L9.9 19.95 9.9 20.1 Q9.9 20.95 10.6 21.6" fill="#733c2f" fill-rule="evenodd" stroke="none"/>
    <path d="M16.0 16.45 L12.3 16.65 Q10.55 17.3 10.55 18.8 L10.45 20.05 Q10.45 20.75 11.0 21.25 L11.6 21.35 Q11.95 21.35 12.1 21.8 L12.5 22.4 13.05 22.95 Q13.7 23.35 14.85 23.35 16.85 23.35 17.8 21.5 L18.35 19.55 18.1 17.9 Q17.6 16.8 16.0 16.45" fill="#fcf9e0" fill-rule="evenodd" stroke="none"/>
  </g>
</svg>
