<?xml version="1.0" encoding="UTF-8" standalone="no"?>
<svg xmlns:xlink="http://www.w3.org/1999/xlink" height="12.75px" width="12.7px" xmlns="http://www.w3.org/2000/svg">
  <g transform="matrix(1.0, 0.0, 0.0, 1.0, 6.4, 6.5)">
    <path d="M2.95 6.1 L3.0 6.25 -0.85 2.15 -6.4 2.9 -2.3 -0.95 -3.1 -6.5 -2.95 -6.35 -0.8 -1.05 -1.3 -0.35 -1.3 -0.3 Q-1.4 0.2 -1.15 0.7 L-0.3 1.3 0.6 1.15 2.95 6.1 M6.3 -3.15 L2.3 0.6 1.3 -0.05 1.1 -0.65 6.3 -3.15" fill="#b8c9cf" fill-rule="evenodd" stroke="none"/>
    <path d="M2.95 6.1 L0.6 1.15 0.7 1.1 Q1.15 0.8 1.25 0.3 L1.3 0.1 1.3 -0.05 2.3 0.6 2.2 0.7 2.95 6.1 M-0.8 -1.05 L-2.95 -6.35 -1.15 -4.4 -0.95 -4.25 0.75 -2.4 6.3 -3.15 1.1 -0.65 1.1 -0.7 0.3 -1.3 -0.7 -1.1 -0.8 -1.05" fill="#e0e8eb" fill-rule="evenodd" stroke="none"/>
    <path d="M-2.95 -6.35 L-3.1 -6.5 -2.3 -0.95 -6.4 2.9 -0.85 2.15 3.0 6.25 2.95 6.1 M0.6 1.15 L-0.3 1.3 -1.15 0.7 Q-1.4 0.2 -1.3 -0.3 L-1.3 -0.35 -0.8 -1.05 -0.7 -1.1 0.3 -1.3 1.1 -0.7 1.1 -0.65 M-2.95 -6.35 L-1.15 -4.4 M-0.95 -4.25 L0.75 -2.4 6.3 -3.15 2.3 0.6 2.2 0.7 2.95 6.1 M1.3 -0.05 L1.3 0.1 1.25 0.3 Q1.15 0.8 0.7 1.1 L0.6 1.15 M1.3 -0.05 L1.1 -0.65" fill="none" stroke="#000000" stroke-linecap="round" stroke-linejoin="round" stroke-opacity="0.4" stroke-width="0.05"/>
  </g>
</svg>
