<?xml version="1.0" encoding="UTF-8" standalone="no"?>
<svg xmlns:xlink="http://www.w3.org/1999/xlink" height="34.0px" width="34.0px" xmlns="http://www.w3.org/2000/svg">
  <g transform="matrix(1.0, 0.0, 0.0, 1.0, 1.0, 1.0)">
    <path d="M32.0 7.85 L32.0 24.1 Q30.7 26.45 28.55 28.55 L28.0 29.1 Q26.2 30.9 24.15 32.0 L7.95 32.0 Q5.45 30.7 3.3 28.55 1.25 26.5 0.0 24.1 L0.0 7.8 Q1.25 5.3 3.3 3.2 5.4 1.2 7.8 0.0 L24.25 0.0 Q26.6 1.2 28.55 3.2 30.7 5.35 32.0 7.85 M32.0 30.15 L32.0 32.0 30.15 32.0 31.05 31.1 32.0 30.15 M1.7 32.0 L0.0 32.0 0.0 30.3 0.75 31.1 1.7 32.0 M0.0 1.4 L0.0 0.0 1.4 0.0 0.75 0.6 0.0 1.4 M30.45 0.0 L32.0 0.0 32.0 1.6 31.05 0.6 30.45 0.0 M30.95 16.0 Q30.95 9.8 26.45 5.3 22.25 1.1 16.0 1.1 12.65 1.1 9.85 2.35 7.45 3.4 5.45 5.3 1.1 9.8 1.1 16.0 1.1 22.1 5.45 26.45 9.9 30.95 16.0 30.95 22.15 30.95 26.3 26.6 L26.45 26.45 Q30.95 22.1 30.95 16.0" fill="#fcf9e0" fill-rule="evenodd" stroke="none"/>
    <path d="M32.0 1.6 L32.0 7.85 Q30.7 5.35 28.55 3.2 26.6 1.2 24.25 0.0 L30.45 0.0 31.05 0.6 32.0 1.6 M32.0 24.1 L32.0 30.15 31.05 31.1 30.15 32.0 24.15 32.0 Q26.2 30.9 28.0 29.1 L28.55 28.55 Q30.7 26.45 32.0 24.1 M7.95 32.0 L1.7 32.0 0.75 31.1 0.0 30.3 0.0 24.1 Q1.25 26.5 3.3 28.55 5.45 30.7 7.95 32.0 M0.0 7.8 L0.0 1.4 0.75 0.6 1.4 0.0 7.8 0.0 Q5.4 1.2 3.3 3.2 1.25 5.3 0.0 7.8 M30.95 16.0 Q30.95 22.1 26.45 26.45 L26.3 26.6 Q22.15 30.95 16.0 30.95 9.9 30.95 5.45 26.45 1.1 22.1 1.1 16.0 1.1 9.8 5.45 5.3 7.45 3.4 9.85 2.35 12.65 1.1 16.0 1.1 22.25 1.1 26.45 5.3 30.95 9.8 30.95 16.0" fill="#cccc00" fill-rule="evenodd" stroke="none"/>
    <path d="M32.0 1.6 L32.0 7.85 32.0 24.1 32.0 30.15 32.0 32.0 30.15 32.0 24.15 32.0 7.95 32.0 1.7 32.0 0.0 32.0 0.0 30.3 0.0 24.1 0.0 7.8 0.0 1.4 0.0 0.0 1.4 0.0 7.8 0.0 24.25 0.0 30.45 0.0 32.0 0.0 32.0 1.6 Z" fill="none" stroke="#733c2f" stroke-linecap="round" stroke-linejoin="round" stroke-width="2.0"/>
    <path d="M24.75 11.25 Q26.4 13.35 27.5 15.8 27.3 16.6 26.8 15.7 L26.05 14.55 Q23.25 11.15 19.45 9.65 13.05 7.25 6.6 8.3 6.45 8.0 7.1 7.7 9.8 6.3 12.75 6.75 18.65 6.85 23.9 10.45 L24.75 11.25 M29.7 19.45 Q30.3 20.0 30.0 20.5 L23.25 22.8 Q17.25 24.9 11.2 24.3 8.1 23.85 5.45 22.25 4.3 21.6 4.15 20.55 L10.95 22.75 2.15 12.45 6.75 10.7 Q7.85 10.2 8.85 10.0 14.85 8.25 20.2 11.95 25.2 15.45 29.7 19.45" fill="#733c2f" fill-rule="evenodd" stroke="none"/>
    <path d="M25.6 17.65 L24.0 16.35 Q21.85 14.5 19.0 12.85 14.45 10.15 9.65 10.9 8.55 11.1 7.2 11.7 L6.75 12.0 6.0 12.7 5.6 14.1 5.9 15.75 7.0 17.8 Q10.45 21.75 15.0 22.4 18.45 22.9 22.3 21.75 L23.85 21.3 23.9 21.25 25.2 20.4 Q26.05 19.75 26.15 19.3 L25.9 18.2 25.6 17.65 M27.25 15.9 Q23.1 9.25 14.55 8.0 L8.45 7.75 6.8 8.15 Q8.3 6.85 11.6 6.8 L16.15 7.3 Q22.4 9.0 24.9 11.65 L27.25 15.8 27.25 15.9 M26.9 19.45 Q26.8 20.1 26.3 20.55 L28.2 19.95 26.95 18.95 26.9 19.45 M29.9 20.25 L21.55 22.9 Q16.75 24.2 14.8 24.15 13.35 24.35 11.9 24.15 8.95 23.75 6.75 22.65 4.9 21.75 4.3 20.75 L6.1 21.6 Q8.0 22.4 9.35 22.6 L10.9 23.0 13.15 23.2 Q9.95 22.25 8.1 20.95 6.6 19.85 5.55 18.1 L4.9 16.7 4.25 15.35 Q2.25 13.15 2.35 12.6 L8.15 10.3 Q10.75 9.05 14.75 9.85 18.0 10.55 19.65 11.8 21.1 12.75 25.4 16.2 29.95 19.85 29.9 20.25 M4.9 14.0 Q5.05 13.05 5.7 12.25 L4.1 13.05 4.85 14.05 4.9 14.1 4.9 14.0" fill="#733c2f" fill-rule="evenodd" stroke="none"/>
    <path d="M25.6 17.65 L25.9 18.2 26.15 19.3 Q26.05 19.75 25.2 20.4 L23.9 21.25 23.85 21.3 22.3 21.75 Q18.45 22.9 15.0 22.4 10.45 21.75 7.0 17.8 L5.9 15.75 5.6 14.1 6.0 12.7 6.75 12.0 7.2 11.7 Q8.55 11.1 9.65 10.9 14.45 10.15 19.0 12.85 21.85 14.5 24.0 16.35 L25.6 17.65 M26.9 19.45 L26.95 18.95 28.2 19.95 26.3 20.55 Q26.8 20.1 26.9 19.45 M4.85 14.05 L4.1 13.05 5.7 12.25 Q5.05 13.05 4.9 14.0 L4.85 14.05" fill="#fcf9e0" fill-rule="evenodd" stroke="none"/>
  </g>
</svg>
