<?xml version="1.0" encoding="UTF-8" standalone="no"?>
<svg xmlns:xlink="http://www.w3.org/1999/xlink" height="13.85px" width="13.9px" xmlns="http://www.w3.org/2000/svg">
  <g transform="matrix(1.0, 0.0, 0.0, 1.0, -8.8, -8.95)">
    <path d="M20.85 12.05 Q22.5 14.15 22.15 16.8 21.75 19.4 19.55 21.0 17.4 22.6 14.75 22.25 12.15 21.85 10.6 19.7 9.0 17.55 9.4 14.9 9.75 12.3 11.9 10.75 14.0 9.15 16.6 9.55 19.25 9.9 20.85 12.05" fill="#cccc00" fill-rule="evenodd" stroke="none"/>
    <path d="M20.85 12.05 Q22.5 14.15 22.15 16.8 21.75 19.4 19.55 21.0 17.4 22.6 14.75 22.25 12.15 21.85 10.6 19.7 9.0 17.55 9.4 14.9 9.75 12.3 11.9 10.75 14.0 9.15 16.6 9.55 19.25 9.9 20.85 12.05 Z" fill="none" stroke="#733c2f" stroke-linecap="round" stroke-linejoin="round" stroke-width="1.0"/>
    <path d="M13.85 11.25 Q15.9 10.65 17.7 11.8 L18.85 12.9 18.8 12.9 Q18.35 13.3 18.85 13.65 L18.2 14.3 19.55 15.7 18.85 16.1 18.75 16.15 Q19.1 16.8 18.4 16.8 L19.7 17.55 18.95 17.95 19.1 18.65 17.6 19.35 17.65 20.0 17.15 20.3 17.5 20.55 16.7 21.85 14.55 21.9 Q13.85 21.85 13.45 21.25 L13.15 20.55 12.3 19.8 12.35 19.75 Q12.9 19.5 12.35 18.95 13.2 18.6 12.45 18.25 L12.55 17.45 12.45 17.25 Q12.5 16.9 12.9 16.75 L13.5 16.65 13.1 16.0 11.4 15.4 12.05 14.95 13.6 14.7 12.05 13.85 13.8 12.55 13.75 12.45 Q13.1 11.85 13.7 11.3 L13.85 11.25" fill="#fcf9e0" fill-rule="evenodd" stroke="none"/>
    <path d="M17.65 11.6 Q17.8 13.5 17.45 16.15 17.05 18.7 16.35 20.35 15.55 22.25 14.95 22.15 14.25 22.05 14.0 20.05 13.8 18.2 14.2 15.6 14.55 13.0 15.3 11.3 16.05 9.55 16.75 9.65 17.35 9.75 17.65 11.6" fill="#733c2f" fill-rule="evenodd" stroke="none"/>
    <path d="M17.65 11.6 Q17.8 13.5 17.45 16.15 17.05 18.7 16.35 20.35 15.55 22.25 14.95 22.15 14.25 22.05 14.0 20.05 13.8 18.2 14.2 15.6 14.55 13.0 15.3 11.3 16.05 9.55 16.75 9.65 17.35 9.75 17.65 11.6 Z" fill="none" stroke="#733c2f" stroke-linecap="round" stroke-linejoin="round" stroke-width="1.0"/>
  </g>
</svg>
