<?xml version="1.0" encoding="UTF-8" standalone="no"?>
<svg xmlns:xlink="http://www.w3.org/1999/xlink" height="20.1px" width="31.75px" xmlns="http://www.w3.org/2000/svg">
  <g transform="matrix(1.0, 0.0, 0.0, 1.0, 0.25, -3.75)">
    <path d="M25.2 9.7 L24.2 13.05 25.2 18.35 18.4 17.1 8.05 19.0 8.45 11.2 25.2 9.7" fill="#733c2f" fill-rule="evenodd" stroke="none"/>
    <path d="M28.5 23.1 L21.25 16.2 21.6 16.2 21.6 10.95 30.1 21.4 28.5 23.1" fill="#733c2f" fill-rule="evenodd" stroke="none"/>
    <path d="M5.4 23.85 L3.6 22.35 13.45 10.85 16.75 13.65 13.15 18.6 5.4 23.85" fill="#733c2f" fill-rule="evenodd" stroke="none"/>
    <path d="M31.5 8.55 L28.8 9.35 30.05 10.25 29.85 11.65 26.1 10.85 24.2 12.55 17.85 11.4 21.6 7.9 23.55 3.75 24.65 5.85 26.35 5.8 27.65 7.2 30.95 7.3 31.5 8.55" fill="#733c2f" fill-rule="evenodd" stroke="none"/>
    <path d="M4.25 15.1 L1.6 13.75 -0.25 10.15 4.6 11.45 9.6 11.35 9.35 12.9 4.25 15.1" fill="#733c2f" fill-rule="evenodd" stroke="none"/>
  </g>
</svg>
