<?xml version="1.0" encoding="UTF-8" standalone="no"?>
<svg xmlns:xlink="http://www.w3.org/1999/xlink" height="27.5px" width="48.25px" xmlns="http://www.w3.org/2000/svg">
  <g transform="matrix(1.0, 0.0, 0.0, 1.0, 21.4, 15.45)">
    <path d="M12.55 -13.05 L13.05 -11.95 13.15 -11.7 13.8 -11.45 14.55 -10.3 14.75 -9.8 Q15.35 -9.85 16.25 -9.05 L17.0 -8.15 17.2 -7.5 18.05 -7.05 18.3 -6.45 18.2 -5.9 Q17.85 -5.5 17.5 -5.65 L17.25 -5.85 Q16.7 -6.35 16.7 -6.75 L15.75 -6.8 15.05 -7.3 Q14.3 -7.95 14.05 -8.5 L13.85 -8.45 13.8 -8.5 13.6 -7.55 13.95 -5.95 14.1 -4.3 14.55 -3.9 15.4 -2.25 15.45 -0.7 15.6 -0.6 16.5 1.0 Q17.0 2.4 16.4 3.05 15.95 3.6 15.5 3.5 L15.15 3.3 Q14.15 2.4 14.15 0.3 L14.1 0.25 Q12.65 -1.1 12.55 -3.45 12.5 -3.85 12.6 -4.1 12.05 -5.05 12.1 -6.85 L12.1 -7.2 Q11.35 -7.95 11.25 -10.45 L11.25 -10.55 Q9.9 -11.7 10.85 -12.7 11.25 -13.05 11.75 -13.2 L12.55 -13.05" fill="#404040" fill-rule="evenodd" stroke="none"/>
    <path d="M12.95 -12.85 L-20.05 4.35 -21.4 1.75 11.55 -15.45 12.95 -12.85" fill="#964d2e" fill-rule="evenodd" stroke="none"/>
    <path d="M12.95 -12.85 L-20.05 4.35 -21.4 1.75 11.55 -15.45 12.95 -12.85 Z" fill="none" stroke="#000000" stroke-linecap="round" stroke-linejoin="round" stroke-opacity="0.4" stroke-width="0.05"/>
    <path d="M10.9 4.7 L10.9 4.65 10.9 4.7" fill="#e0e8eb" fill-rule="evenodd" stroke="none"/>
    <path d="M17.15 1.0 L17.15 0.5 17.25 0.0 18.25 -0.25 18.3 -0.25 18.45 -0.2 18.7 -0.2 18.45 0.4 18.2 1.2 17.85 1.1 17.75 1.1 17.15 1.0 17.75 1.1 17.85 1.1 18.2 1.2 19.2 1.6 20.75 2.85 20.6 3.85 Q20.35 5.05 19.75 5.75 L19.55 5.95 20.0 6.0 20.45 6.1 Q20.85 6.45 20.8 7.1 L20.35 8.25 19.6 8.55 18.9 8.4 Q18.6 8.1 18.65 7.3 L18.85 6.6 19.1 6.2 19.55 5.95 19.1 6.2 18.85 6.6 18.6 6.9 Q18.25 7.3 17.3 7.6 L16.15 7.85 16.35 8.05 Q16.65 8.3 16.75 8.7 L16.65 9.35 15.8 9.6 Q15.1 9.55 14.6 9.1 L14.45 9.0 14.15 8.5 14.1 8.45 14.2 8.15 14.4 7.8 14.45 7.75 14.3 7.75 12.95 7.5 12.9 7.45 12.8 7.4 12.4 7.15 12.1 6.85 12.05 6.75 11.95 6.2 11.95 5.85 12.05 4.95 12.1 4.75 11.8 4.75 10.9 4.7 10.9 4.65 11.3 3.55 11.45 3.3 11.65 3.2 Q11.8 3.1 11.8 3.15 L11.9 3.2 12.0 3.25 12.4 3.4 12.6 3.5 14.1 1.95 Q15.5 0.9 17.15 1.0 M16.9 2.75 L17.0 2.85 17.2 3.15 17.25 3.45 16.95 4.2 Q16.55 4.65 15.8 4.75 L14.85 4.65 14.55 4.45 14.55 4.75 14.8 5.05 Q15.25 5.45 15.85 5.55 17.0 5.75 17.9 4.75 18.25 4.35 18.0 3.75 L17.6 3.1 Q17.0 2.6 16.9 2.75 L15.8 2.65 14.8 3.2 Q14.2 3.95 14.55 4.45 14.2 3.95 14.8 3.2 L15.8 2.65 16.9 2.75 M12.6 3.5 L12.1 4.75 12.6 3.5 M14.45 7.75 Q14.75 7.5 15.3 7.55 L16.15 7.85 15.3 7.55 Q14.75 7.5 14.45 7.75" fill="#8e9294" fill-rule="evenodd" stroke="none"/>
    <path d="M18.2 1.2 L18.45 0.4 18.7 -0.2 18.8 -0.15 19.2 -0.05 19.65 0.35 19.85 0.5 19.8 0.55 19.55 1.05 19.2 1.6 18.2 1.2 M20.75 2.85 L20.95 3.1 Q21.5 3.9 21.75 4.8 L22.3 4.55 22.85 4.6 23.3 5.45 Q23.5 6.15 23.25 6.7 L23.0 6.9 21.8 6.75 21.8 6.8 Q21.45 8.8 19.75 10.0 L19.55 10.15 19.8 10.65 20.05 11.2 20.05 11.25 20.0 11.35 19.05 11.9 Q18.15 12.2 17.85 11.9 L17.7 11.85 17.65 11.85 17.6 11.4 17.55 10.9 16.1 10.85 15.2 10.65 14.75 10.75 Q14.3 10.8 13.9 10.45 L13.4 9.75 Q13.1 9.35 13.15 9.2 L12.9 8.8 Q12.2 7.85 12.05 6.75 L12.1 6.85 12.4 7.15 12.8 7.4 12.9 7.45 12.95 7.5 14.3 7.75 14.45 7.75 14.4 7.8 14.2 8.15 14.1 8.45 14.15 8.5 14.45 9.0 14.6 9.1 Q15.1 9.55 15.8 9.6 L16.65 9.35 16.75 8.7 Q16.65 8.3 16.35 8.05 L16.15 7.85 17.3 7.6 Q18.25 7.3 18.6 6.9 L18.85 6.6 18.65 7.3 Q18.6 8.1 18.9 8.4 L19.6 8.55 20.35 8.25 20.8 7.1 Q20.85 6.45 20.45 6.1 L20.0 6.0 19.55 5.95 19.75 5.75 Q20.35 5.05 20.6 3.85 L20.75 2.85 M11.95 5.85 L11.0 5.8 10.85 5.75 10.9 4.7 11.8 4.75 12.1 4.75 12.05 4.95 11.95 5.85 M14.55 4.45 L14.85 4.65 15.8 4.75 Q16.55 4.65 16.95 4.2 L17.25 3.45 17.2 3.15 17.0 2.85 16.9 2.75 Q17.0 2.6 17.6 3.1 L18.0 3.75 Q18.25 4.35 17.9 4.75 17.0 5.75 15.85 5.55 15.25 5.45 14.8 5.05 L14.55 4.75 14.55 4.45 M21.8 6.75 Q22.0 5.7 21.75 4.8 22.0 5.7 21.8 6.75 M17.55 10.9 Q18.6 10.8 19.55 10.15 18.6 10.8 17.55 10.9 M13.15 9.2 Q14.0 10.2 15.2 10.65 14.0 10.2 13.15 9.2" fill="#5c5f5f" fill-rule="evenodd" stroke="none"/>
    <path d="M18.7 -0.2 L18.45 -0.2 18.3 -0.25 18.25 -0.25 17.25 0.0 17.15 0.5 17.15 1.0 17.75 1.1 17.85 1.1 18.2 1.2 19.2 1.6 20.75 2.85 20.95 3.1 Q21.5 3.9 21.75 4.8 L22.3 4.55 22.85 4.6 23.3 5.45 Q23.5 6.15 23.25 6.7 L23.0 6.9 21.8 6.75 21.8 6.8 Q21.45 8.8 19.75 10.0 L19.55 10.15 19.8 10.65 20.05 11.2 20.05 11.25 20.0 11.35 19.05 11.9 Q18.15 12.2 17.85 11.9 L17.7 11.85 17.65 11.85 17.6 11.4 17.55 10.9 16.1 10.85 15.2 10.65 14.75 10.75 Q14.3 10.8 13.9 10.45 L13.4 9.75 Q13.1 9.35 13.15 9.2 L12.9 8.8 Q12.2 7.85 12.05 6.75 L11.95 6.2 11.95 5.85 11.0 5.8 10.85 5.75 10.9 4.7 10.9 4.65 11.3 3.55 11.45 3.3 11.65 3.2 Q11.8 3.1 11.8 3.15 L11.9 3.2 12.0 3.25 12.4 3.4 12.6 3.5 14.1 1.95 Q15.5 0.9 17.15 1.0 M18.7 -0.2 L18.8 -0.15 19.2 -0.05 19.65 0.35 19.85 0.5 19.8 0.55 19.55 1.05 19.2 1.6 M16.9 2.75 L17.0 2.85 17.2 3.15 17.25 3.45 16.95 4.2 Q16.55 4.65 15.8 4.75 L14.85 4.65 14.55 4.45 M16.9 2.75 L15.8 2.65 14.8 3.2 Q14.2 3.95 14.55 4.45 M21.75 4.8 Q22.0 5.7 21.8 6.75 M18.85 6.6 L18.65 7.3 Q18.6 8.1 18.9 8.4 L19.6 8.55 20.35 8.25 20.8 7.1 Q20.85 6.45 20.45 6.1 L20.0 6.0 19.55 5.95 19.1 6.2 18.85 6.6 M16.15 7.85 L16.35 8.05 Q16.65 8.3 16.75 8.7 L16.65 9.35 15.8 9.6 Q15.1 9.55 14.6 9.1 L14.45 9.0 14.15 8.5 14.1 8.45 14.2 8.15 14.4 7.8 14.45 7.75 M10.9 4.65 L10.9 4.7 M12.1 4.75 L12.6 3.5 M11.95 5.85 L12.05 4.95 12.1 4.75 M16.15 7.85 L15.3 7.55 Q14.75 7.5 14.45 7.75 M15.2 10.65 Q14.0 10.2 13.15 9.2 M19.55 10.15 Q18.6 10.8 17.55 10.9" fill="none" stroke="#000000" stroke-linecap="round" stroke-linejoin="round" stroke-opacity="0.4" stroke-width="0.05"/>
    <path d="M14.35 -5.3 L14.35 -5.35 14.35 -5.3" fill="#e0e8eb" fill-rule="evenodd" stroke="none"/>
    <path d="M20.6 -9.0 L20.6 -9.5 20.7 -10.0 21.7 -10.25 21.75 -10.25 21.9 -10.2 22.15 -10.2 21.9 -9.6 21.65 -8.8 21.3 -8.9 21.2 -8.9 20.6 -9.0 21.2 -8.9 21.3 -8.9 21.65 -8.8 22.65 -8.4 Q23.55 -8.0 24.2 -7.15 L24.05 -6.15 Q23.8 -4.95 23.2 -4.25 L23.0 -4.05 23.45 -4.0 23.9 -3.9 Q24.3 -3.55 24.25 -2.9 24.2 -2.25 23.8 -1.75 23.5 -1.45 23.05 -1.45 L22.35 -1.6 Q22.05 -1.9 22.1 -2.7 L22.3 -3.4 22.55 -3.8 23.0 -4.05 22.55 -3.8 22.3 -3.4 22.05 -3.1 20.75 -2.4 19.6 -2.15 19.8 -1.95 20.2 -1.3 20.1 -0.65 Q19.9 -0.4 19.25 -0.4 18.55 -0.45 18.05 -0.9 L17.9 -1.0 17.6 -1.5 17.55 -1.55 17.65 -1.85 17.85 -2.2 17.9 -2.25 17.75 -2.25 Q16.65 -2.3 16.4 -2.5 L16.35 -2.55 Q16.25 -2.6 16.25 -2.6 L15.85 -2.85 15.55 -3.15 15.5 -3.25 15.4 -3.8 15.4 -4.15 15.5 -5.05 15.55 -5.25 15.25 -5.25 14.35 -5.3 14.35 -5.35 14.75 -6.45 14.9 -6.7 15.1 -6.8 15.25 -6.85 15.35 -6.8 15.45 -6.75 15.85 -6.6 16.05 -6.5 17.55 -8.05 Q18.95 -9.1 20.6 -9.0 M20.35 -7.25 L20.45 -7.15 20.65 -6.85 20.7 -6.55 20.4 -5.8 Q20.0 -5.35 19.25 -5.25 L18.3 -5.35 18.0 -5.55 18.0 -5.25 18.25 -4.95 Q18.7 -4.55 19.3 -4.45 20.45 -4.25 21.35 -5.25 21.7 -5.65 21.45 -6.25 L21.05 -6.9 20.35 -7.25 19.25 -7.35 Q18.65 -7.2 18.25 -6.8 17.65 -6.05 18.0 -5.55 17.65 -6.05 18.25 -6.8 18.65 -7.2 19.25 -7.35 L20.35 -7.25 M16.05 -6.5 L15.55 -5.25 16.05 -6.5 M17.9 -2.25 L18.75 -2.45 19.6 -2.15 18.75 -2.45 17.9 -2.25" fill="#8e9294" fill-rule="evenodd" stroke="none"/>
    <path d="M21.65 -8.8 L21.9 -9.6 22.15 -10.2 22.25 -10.15 22.65 -10.05 23.1 -9.65 23.3 -9.5 23.25 -9.45 23.0 -8.95 22.65 -8.4 21.65 -8.8 M24.2 -7.15 L24.4 -6.9 25.2 -5.2 25.75 -5.45 26.3 -5.4 26.75 -4.55 Q26.95 -3.85 26.7 -3.3 L26.45 -3.1 25.25 -3.25 25.25 -3.2 Q24.9 -1.2 23.2 0.0 L23.0 0.15 23.25 0.65 23.5 1.2 23.5 1.25 23.45 1.35 22.5 1.9 Q21.6 2.2 21.3 1.9 L21.15 1.85 21.1 1.85 21.05 1.4 21.0 0.9 19.55 0.85 18.65 0.65 18.2 0.75 Q17.75 0.8 17.35 0.45 L16.85 -0.25 Q16.55 -0.65 16.6 -0.8 L16.35 -1.2 Q15.65 -2.15 15.5 -3.25 L15.55 -3.15 15.85 -2.85 16.25 -2.6 Q16.25 -2.6 16.35 -2.55 L16.4 -2.5 Q16.65 -2.3 17.75 -2.25 L17.9 -2.25 17.85 -2.2 17.65 -1.85 17.55 -1.55 17.6 -1.5 17.9 -1.0 18.05 -0.9 Q18.55 -0.45 19.25 -0.4 19.9 -0.4 20.1 -0.65 L20.2 -1.3 19.8 -1.95 19.6 -2.15 20.75 -2.4 22.05 -3.1 22.3 -3.4 22.1 -2.7 Q22.05 -1.9 22.35 -1.6 L23.05 -1.45 Q23.5 -1.45 23.8 -1.75 24.2 -2.25 24.25 -2.9 24.3 -3.55 23.9 -3.9 L23.45 -4.0 23.0 -4.05 23.2 -4.25 Q23.8 -4.95 24.05 -6.15 L24.2 -7.15 M15.4 -4.15 L14.45 -4.2 14.3 -4.25 14.35 -5.3 15.25 -5.25 15.55 -5.25 15.5 -5.05 15.4 -4.15 M18.0 -5.55 L18.3 -5.35 19.25 -5.25 Q20.0 -5.35 20.4 -5.8 L20.7 -6.55 20.65 -6.85 20.45 -7.15 20.35 -7.25 21.05 -6.9 21.45 -6.25 Q21.7 -5.65 21.35 -5.25 20.45 -4.25 19.3 -4.45 18.7 -4.55 18.25 -4.95 L18.0 -5.25 18.0 -5.55 M25.25 -3.25 Q25.45 -4.3 25.2 -5.2 25.45 -4.3 25.25 -3.25 M21.0 0.9 Q22.05 0.8 23.0 0.15 22.05 0.8 21.0 0.9 M16.6 -0.8 Q17.45 0.2 18.65 0.65 17.45 0.2 16.6 -0.8" fill="#5c5f5f" fill-rule="evenodd" stroke="none"/>
    <path d="M22.15 -10.2 L21.9 -10.2 21.75 -10.25 21.7 -10.25 20.7 -10.0 20.6 -9.5 20.6 -9.0 21.2 -8.9 21.3 -8.9 21.65 -8.8 22.65 -8.4 Q23.55 -8.0 24.2 -7.15 L24.4 -6.9 25.2 -5.2 25.75 -5.45 26.3 -5.4 26.75 -4.55 Q26.95 -3.85 26.7 -3.3 L26.45 -3.1 25.25 -3.25 25.25 -3.2 Q24.9 -1.2 23.2 0.0 L23.0 0.15 23.25 0.65 23.5 1.2 23.5 1.25 23.45 1.35 22.5 1.9 Q21.6 2.2 21.3 1.9 L21.15 1.85 21.1 1.85 21.05 1.4 21.0 0.9 19.55 0.85 18.65 0.65 18.2 0.75 Q17.75 0.8 17.35 0.45 L16.85 -0.25 Q16.55 -0.65 16.6 -0.8 L16.35 -1.2 Q15.65 -2.15 15.5 -3.25 L15.4 -3.8 15.4 -4.15 14.45 -4.2 14.3 -4.25 14.35 -5.3 14.35 -5.35 14.75 -6.45 14.9 -6.7 15.1 -6.8 15.25 -6.85 15.35 -6.8 15.45 -6.75 15.85 -6.6 16.05 -6.5 17.55 -8.05 Q18.95 -9.1 20.6 -9.0 M22.15 -10.2 L22.25 -10.15 22.65 -10.05 23.1 -9.65 23.3 -9.5 23.25 -9.45 23.0 -8.95 22.65 -8.4 M20.35 -7.25 L20.45 -7.15 20.65 -6.85 20.7 -6.55 20.4 -5.8 Q20.0 -5.35 19.25 -5.25 L18.3 -5.35 18.0 -5.55 M20.35 -7.25 L19.25 -7.35 Q18.65 -7.2 18.25 -6.8 17.65 -6.05 18.0 -5.55 M22.3 -3.4 L22.1 -2.7 Q22.05 -1.9 22.35 -1.6 L23.05 -1.45 Q23.5 -1.45 23.8 -1.75 24.2 -2.25 24.25 -2.9 24.3 -3.55 23.9 -3.9 L23.45 -4.0 23.0 -4.05 22.55 -3.8 22.3 -3.4 M19.6 -2.15 L19.8 -1.95 20.2 -1.3 20.1 -0.65 Q19.9 -0.4 19.25 -0.4 18.55 -0.45 18.05 -0.9 L17.9 -1.0 17.6 -1.5 17.55 -1.55 17.65 -1.85 17.85 -2.2 17.9 -2.25 M25.2 -5.2 Q25.45 -4.3 25.25 -3.25 M14.35 -5.35 L14.35 -5.3 M15.55 -5.25 L16.05 -6.5 M15.4 -4.15 L15.5 -5.05 15.55 -5.25 M19.6 -2.15 L18.75 -2.45 17.9 -2.25 M18.65 0.65 Q17.45 0.2 16.6 -0.8 M23.0 0.15 Q22.05 0.8 21.0 0.9" fill="none" stroke="#000000" stroke-linecap="round" stroke-linejoin="round" stroke-opacity="0.4" stroke-width="0.05"/>
  </g>
</svg>
