<?xml version="1.0" encoding="UTF-8" standalone="no"?>
<svg xmlns:xlink="http://www.w3.org/1999/xlink" height="209.9px" width="310.9px" xmlns="http://www.w3.org/2000/svg">
  <g transform="matrix(1.0, 0.0, 0.0, 1.0, 0.0, 0.0)">
    <path d="M305.25 8.7 Q305.7 10.55 304.9 10.65 L304.8 10.65 300.35 14.95 298.5 16.9 307.35 16.55 307.35 20.4 Q307.3 24.25 307.55 27.6 307.8 30.95 307.3 38.25 306.75 45.5 303.05 44.95 303.6 49.45 303.45 51.8 303.3 54.1 303.45 57.1 L304.2 70.45 304.2 90.95 Q302.45 92.45 300.35 93.0 L300.4 93.35 301.6 93.35 301.7 95.65 302.4 108.55 302.65 114.65 302.7 116.15 Q302.9 121.25 302.2 126.4 301.85 128.9 302.25 131.4 L302.7 133.15 Q308.85 132.75 310.15 136.7 L310.5 138.8 310.5 139.05 309.95 139.05 301.4 143.55 Q308.45 145.3 310.75 145.4 L310.8 152.6 310.8 161.45 310.8 165.4 Q311.25 168.9 309.6 171.45 L309.35 171.7 303.6 171.45 Q304.65 174.05 304.6 177.6 L304.65 181.75 304.75 183.15 305.35 195.6 305.45 197.5 Q305.75 202.45 304.85 207.45 304.45 209.8 302.1 209.35 L287.45 208.6 271.55 207.95 257.25 207.4 244.3 207.25 228.4 208.15 217.0 208.4 205.0 208.3 191.65 208.45 179.55 208.6 Q171.75 208.7 164.1 208.95 L151.9 209.25 140.15 209.5 124.85 209.8 110.7 209.9 95.4 209.8 79.45 209.5 65.75 209.05 50.7 208.6 Q43.05 208.5 35.5 208.8 L23.05 209.2 7.35 208.55 6.4 208.35 Q4.4 195.5 3.9 182.5 3.8 179.55 5.0 176.75 5.7 175.15 7.6 174.85 L13.05 174.55 13.1 174.55 14.25 174.6 13.15 174.4 13.1 174.4 12.25 173.7 Q10.9 172.0 10.85 169.9 L10.85 166.6 10.95 166.55 11.2 166.35 Q13.55 164.45 16.95 162.35 L21.4 159.6 10.65 159.3 11.15 149.95 11.2 139.4 11.2 138.8 11.15 138.8 9.85 138.9 Q6.3 139.2 4.95 137.4 3.6 135.6 3.6 132.0 L3.2 117.3 2.5 106.0 2.05 96.9 2.2 94.75 2.3 94.4 3.2 92.95 3.35 92.65 Q1.65 91.75 1.0 89.95 0.4 88.2 0.4 83.95 L0.8 72.45 8.25 71.95 Q4.9 67.25 1.25 64.2 2.0 51.6 2.0 46.5 L3.2 46.5 3.3 46.05 3.2 46.0 Q0.2 44.95 0.1 39.75 L0.0 31.2 0.0 25.1 Q0.0 12.55 0.25 9.75 0.8 3.65 3.2 0.55 L29.2 1.0 81.5 0.55 Q131.05 -0.05 138.4 0.5 145.75 0.95 167.1 0.45 188.45 -0.05 207.3 0.2 226.15 0.35 234.25 0.15 242.3 -0.15 248.55 0.15 L261.4 0.7 274.75 1.2 285.9 1.5 Q290.2 1.55 297.85 1.2 305.5 0.8 305.15 3.85 304.8 6.85 305.25 8.7 M302.7 133.15 L300.75 133.35 302.75 133.35 302.7 133.15 M9.0 46.3 L9.0 46.25 7.2 46.3 9.0 46.3" fill="url(#gradient0)" fill-rule="evenodd" stroke="none"/>
  </g>
  <defs>
    <radialGradient cx="0" cy="0" gradientTransform="matrix(0.7541, 0.0, 0.0, 0.7541, -5.3, -11.15)" gradientUnits="userSpaceOnUse" id="gradient0" r="819.2" spreadMethod="pad">
      <stop offset="0.0" stop-color="#ffffff"/>
      <stop offset="1.0" stop-color="#000000"/>
    </radialGradient>
  </defs>
</svg>
