<?xml version="1.0" encoding="UTF-8" standalone="no"?>
<svg xmlns:xlink="http://www.w3.org/1999/xlink" height="8.1px" width="55.6px" xmlns="http://www.w3.org/2000/svg">
  <g transform="matrix(1.0, 0.0, 0.0, 1.0, 27.8, 4.05)">
    <path d="M27.65 -3.55 L27.6 -3.65 25.7 -2.65 Q25.15 -2.25 23.8 -2.0 L22.0 -1.6 19.1 0.05 19.05 -0.1 Q18.3 0.4 16.0 0.9 L12.8 1.05 Q11.85 0.7 9.2 1.65 6.45 2.65 5.2 1.6 3.9 0.6 2.35 1.25 L-0.3 2.0 Q-2.1 1.6 -2.5 1.0 -2.7 0.7 -2.95 0.7 L-2.8 -2.55 27.75 -3.75 27.8 -3.8 27.65 -3.55 M-5.9 -1.05 Q-5.2 0.15 -6.05 0.7 -7.15 1.4 -7.85 0.3 -8.45 -0.6 -7.45 -1.25 -6.4 -1.85 -5.9 -1.05" fill="#e0e8eb" fill-rule="evenodd" stroke="none"/>
    <path d="M-2.95 0.7 Q-2.7 0.7 -2.5 1.0 -2.1 1.6 -0.3 2.0 L2.35 1.25 Q3.9 0.6 5.2 1.6 6.45 2.65 9.2 1.65 11.85 0.7 12.8 1.05 L16.0 0.9 Q18.3 0.4 19.05 -0.1 L19.1 0.05 22.0 -1.6 23.8 -2.0 Q25.15 -2.25 25.7 -2.65 L27.6 -3.65 27.65 -3.55 Q21.75 1.75 14.2 3.3 6.5 5.05 -3.15 2.8 L-2.95 0.7" fill="#b8c9cf" fill-rule="evenodd" stroke="none"/>
    <path d="M-20.9 -2.05 L-18.75 -2.15 -13.65 -2.5 -9.55 -2.3 Q-9.1 -1.6 -9.85 -1.1 L-18.9 -0.25 -23.0 -0.35 Q-25.05 -0.65 -25.55 -1.35 -25.95 -1.95 -25.4 -2.3 -24.7 -2.75 -23.15 -2.3 L-20.9 -2.05" fill="#6b5a50" fill-rule="evenodd" stroke="none"/>
    <path d="M-2.8 -2.55 L-2.95 0.7 -3.15 2.8 -27.8 1.2 -27.5 -4.05 -2.8 -2.55 M-20.9 -2.05 L-23.15 -2.3 Q-24.7 -2.75 -25.4 -2.3 -25.95 -1.95 -25.55 -1.35 -25.05 -0.65 -23.0 -0.35 L-18.9 -0.25 -9.85 -1.1 Q-9.1 -1.6 -9.55 -2.3 L-13.65 -2.5 -18.75 -2.15 -20.9 -2.05 M-5.9 -1.05 Q-6.4 -1.85 -7.45 -1.25 -8.45 -0.6 -7.85 0.3 -7.15 1.4 -6.05 0.7 -5.2 0.15 -5.9 -1.05" fill="#000000" fill-rule="evenodd" stroke="none"/>
    <path d="M27.65 -3.55 L27.8 -3.8 27.75 -3.75 -2.8 -2.55 -2.95 0.7 -3.15 2.8 Q6.5 5.05 14.2 3.3 21.75 1.75 27.65 -3.55 M-2.8 -2.55 L-27.5 -4.05 -27.8 1.2 -3.15 2.8 M-5.9 -1.05 Q-6.4 -1.85 -7.45 -1.25 -8.45 -0.6 -7.85 0.3 -7.15 1.4 -6.05 0.7 -5.2 0.15 -5.9 -1.05" fill="none" stroke="#000000" stroke-linecap="round" stroke-linejoin="round" stroke-opacity="0.4" stroke-width="0.05"/>
  </g>
</svg>
