<?xml version="1.0" encoding="UTF-8" standalone="no"?>
<svg xmlns:xlink="http://www.w3.org/1999/xlink" height="9.85px" width="27.35px" xmlns="http://www.w3.org/2000/svg">
  <g transform="matrix(1.0, 0.0, 0.0, 1.0, 9.2, 5.0)">
    <path d="M1.3 -1.05 L1.3 -0.25 18.15 -0.25 18.1 -0.2 18.0 -0.1 15.5 0.95 15.4 0.95 -0.2 0.95 0.9 2.85 7.6 2.85 7.8 2.95 7.85 3.1 7.85 3.65 7.8 3.8 7.7 3.9 5.65 4.85 5.55 4.85 -0.05 4.85 -0.2 4.8 -0.3 4.8 -0.4 4.7 -2.5 0.95 -2.65 0.95 -2.65 -1.05 -2.55 -1.05 -2.25 -1.55 -0.75 -4.2 7.35 -4.2 7.7 -4.0 7.8 -3.9 7.85 -3.8 7.85 -3.25 7.8 -3.05 7.6 -3.0 0.9 -3.0 -0.25 -1.05 1.3 -1.05 M-7.8 0.95 L-8.95 0.95 -9.1 0.9 -9.2 0.7 -9.2 -0.8 -9.1 -0.95 -8.95 -1.05 -7.8 -1.05 -7.8 0.95" fill="#b8c9cf" fill-rule="evenodd" stroke="none"/>
    <path d="M18.15 -0.25 L1.3 -0.25 1.3 -1.05 17.9 -1.05 18.1 -0.95 18.15 -0.8 18.15 -0.35 18.15 -0.25 M7.35 -4.2 L-0.75 -4.2 -0.4 -4.8 -0.3 -4.9 -0.2 -4.95 -0.05 -5.0 5.55 -5.0 5.65 -4.95 7.35 -4.2" fill="#e0e8eb" fill-rule="evenodd" stroke="none"/>
    <path d="M-2.65 -1.05 L-2.65 0.95 -7.8 0.95 -7.8 -1.05 -2.65 -1.05" fill="#de9f10" fill-rule="evenodd" stroke="none"/>
    <path d="M18.15 -0.25 L18.15 -0.35 18.15 -0.8 18.1 -0.95 17.9 -1.05 1.3 -1.05 -0.25 -1.05 0.9 -3.0 7.6 -3.0 7.8 -3.05 7.85 -3.25 7.85 -3.8 7.8 -3.9 7.7 -4.0 7.35 -4.2 M-0.75 -4.2 L-2.25 -1.55 -2.55 -1.05 -2.65 -1.05 -2.25 -1.55 M-2.65 0.95 L-2.5 0.95 -0.4 4.7 -0.3 4.8 -0.2 4.8 -0.05 4.85 5.55 4.85 5.65 4.85 7.7 3.9 7.8 3.8 7.85 3.65 7.85 3.1 7.8 2.95 7.6 2.85 0.9 2.85 -0.2 0.95 15.4 0.95 15.5 0.95 18.0 -0.1 18.1 -0.2 18.15 -0.25 M-0.75 -4.2 L-0.4 -4.8 -0.3 -4.9 -0.2 -4.95 -0.05 -5.0 5.55 -5.0 5.65 -4.95 7.35 -4.2 M-7.8 0.95 L-8.95 0.95 -9.1 0.9 -9.2 0.7 -9.2 -0.8 -9.1 -0.95 -8.95 -1.05 -7.8 -1.05 -2.65 -1.05 M-2.65 0.95 L-7.8 0.95" fill="none" stroke="#000000" stroke-linecap="round" stroke-linejoin="round" stroke-opacity="0.4" stroke-width="0.05"/>
  </g>
</svg>
