<?xml version="1.0" encoding="UTF-8" standalone="no"?>
<svg xmlns:xlink="http://www.w3.org/1999/xlink" height="41.3px" width="81.15px" xmlns="http://www.w3.org/2000/svg">
  <g transform="matrix(1.0, 0.0, 0.0, 1.0, 40.95, 20.4)">
    <path d="M-0.55 -4.3 L-0.45 -4.8 -0.45 -4.75 1.5 -3.9 3.4 -3.3 4.75 -3.65 6.35 -4.05 7.15 -4.1 9.9 -1.9 1.0 -2.7 -1.5 -2.95 Q-0.85 -3.2 -0.55 -4.3 M17.7 -4.8 L17.75 -4.8 Q18.05 -4.8 18.2 -5.05 L18.7 -5.3 21.45 -3.8 Q24.15 -2.2 25.75 -1.8 26.8 -1.55 29.45 -0.15 L23.35 -0.7 17.7 -4.8 M-5.1 -4.15 L-4.15 -3.75 -2.3 -3.0 -4.15 -3.2 -12.75 -3.95 -10.9 -4.05 -7.85 -4.25 -6.4 -4.65 -5.1 -4.15 M28.1 -3.65 L27.4 -3.9 Q26.55 -4.2 25.95 -4.45 L26.3 -4.5 Q27.55 -4.45 28.0 -3.8 L28.1 -3.65 M33.95 0.0 L34.15 0.2 34.15 0.35 33.95 0.4 33.55 -0.25 33.25 -0.55 33.95 0.0 M32.0 1.0 L33.85 0.4 33.9 0.4 32.0 1.0 M25.5 3.25 L25.4 3.25 25.35 3.25 24.7 2.75 24.8 2.75 25.5 3.25 M22.8 5.15 L22.15 5.8 22.1 5.85 22.1 5.6 21.8 4.95 21.4 4.4 21.5 4.45 22.8 5.15" fill="#ecedf0" fill-rule="evenodd" stroke="none"/>
    <path d="M7.15 -4.1 L6.35 -4.05 4.75 -3.65 3.4 -3.3 1.5 -3.9 -0.45 -4.75 -0.45 -4.8 -0.55 -4.3 -2.25 -5.95 Q-0.85 -6.7 -0.1 -6.7 0.9 -6.7 2.3 -5.95 3.7 -5.2 5.8 -5.2 L5.9 -5.2 5.85 -5.15 7.15 -4.1 M-1.5 -2.95 L1.0 -2.7 3.8 0.1 12.4 0.05 9.9 -1.9 23.35 -0.7 24.35 0.0 25.7 0.0 30.85 -0.05 29.45 -0.15 Q26.8 -1.55 25.75 -1.8 24.15 -2.2 21.45 -3.8 L18.7 -5.3 18.2 -5.05 Q18.05 -4.8 17.75 -4.8 L17.7 -4.8 15.4 -6.45 Q16.3 -6.6 17.0 -7.15 18.0 -7.9 19.25 -7.9 L20.7 -7.8 21.35 -7.25 21.45 -7.15 21.5 -7.1 22.55 -5.6 Q23.2 -4.5 24.05 -4.45 L25.95 -4.45 Q26.55 -4.2 27.4 -3.9 L28.1 -3.65 Q29.2 -2.35 31.1 -1.65 32.4 -1.2 33.25 -0.55 L33.55 -0.25 33.95 0.4 34.15 0.35 34.15 0.2 33.95 0.0 39.45 -0.15 40.2 0.2 40.2 0.3 40.0 0.4 20.6 10.2 -14.5 8.3 -14.5 5.05 -13.1 5.4 -11.85 5.8 Q-10.5 5.15 -10.25 5.15 -9.65 5.15 -8.15 5.85 L-5.45 6.5 -1.05 5.45 Q-0.15 5.45 1.35 6.25 2.9 7.0 3.75 7.0 L4.9 6.9 5.45 6.55 Q5.85 6.05 7.7 6.05 L9.1 6.3 10.9 6.8 14.05 7.55 Q15.25 7.55 16.05 6.9 16.8 6.2 18.1 6.2 L18.15 6.2 20.2 6.5 Q21.2 6.6 22.1 5.85 L22.15 5.8 22.8 5.15 23.55 4.3 Q24.45 3.4 25.35 3.25 L25.4 3.25 25.5 3.25 26.2 3.15 26.85 3.0 29.85 1.9 31.8 1.05 30.55 0.4 30.05 0.15 24.15 0.65 13.65 1.6 5.25 2.35 1.2 2.75 -14.5 4.15 -14.5 0.4 -14.5 0.3 -14.5 0.2 -11.15 0.15 -1.0 0.1 -4.15 -3.2 -2.3 -3.0 -1.5 -2.95 M-14.5 -4.1 L-14.5 -5.2 -13.0 -5.2 -11.55 -4.85 Q-10.6 -4.85 -9.2 -5.7 L-7.4 -6.5 -5.1 -4.15 -6.4 -4.65 -7.85 -4.25 -10.9 -4.05 -12.75 -3.95 -14.5 -4.1 M32.0 1.0 L33.9 0.4 33.85 0.4 32.0 1.0" fill="#ccced5" fill-rule="evenodd" stroke="none"/>
    <path d="M-0.55 -4.3 Q-0.85 -3.2 -1.5 -2.95 L-2.3 -3.0 -4.15 -3.75 -5.1 -4.15 -7.4 -6.5 -9.2 -5.7 Q-10.6 -4.85 -11.55 -4.85 L-13.0 -5.2 -14.5 -5.2 -14.5 -7.8 -8.95 -8.1 -5.65 -8.3 -5.45 -8.3 -4.6 -8.35 1.4 -8.65 11.6 -9.2 20.6 -9.7 39.45 -0.15 33.95 0.0 33.25 -0.55 Q32.4 -1.2 31.1 -1.65 29.2 -2.35 28.1 -3.65 L28.0 -3.8 Q27.55 -4.45 26.3 -4.5 L25.95 -4.45 24.05 -4.45 Q23.2 -4.5 22.55 -5.6 L21.5 -7.1 21.45 -7.15 21.35 -7.25 20.7 -7.8 19.25 -7.9 Q18.0 -7.9 17.0 -7.15 16.3 -6.6 15.4 -6.45 L17.7 -4.8 23.35 -0.7 9.9 -1.9 7.15 -4.1 5.85 -5.15 5.9 -5.2 5.8 -5.2 Q3.7 -5.2 2.3 -5.95 0.9 -6.7 -0.1 -6.7 -0.85 -6.7 -2.25 -5.95 L-0.55 -4.3 M24.15 0.65 Q26.35 2.2 26.85 3.0 L26.2 3.15 25.5 3.25 24.8 2.75 24.7 2.75 25.35 3.25 Q24.45 3.4 23.55 4.3 L22.8 5.15 21.5 4.45 21.4 4.4 21.8 4.95 22.1 5.6 22.1 5.85 Q21.2 6.6 20.2 6.5 L18.15 6.2 16.25 4.5 13.2 1.65 13.65 1.6 24.15 0.65 M9.1 6.3 L7.7 6.05 Q5.85 6.05 5.45 6.55 L4.9 6.9 3.7 5.55 1.2 2.75 5.25 2.35 6.7 3.75 9.1 6.3" fill="#ffffff" fill-rule="evenodd" stroke="none"/>
    <path d="M1.0 -2.7 L9.9 -1.9 12.4 0.05 3.8 0.1 1.0 -2.7 M29.45 -0.15 L30.85 -0.05 25.7 0.0 24.35 0.0 23.35 -0.7 29.45 -0.15 M-14.5 5.05 L-14.5 5.0 -14.5 4.15 1.2 2.75 3.7 5.55 4.9 6.9 3.75 7.0 Q2.9 7.0 1.35 6.25 -0.15 5.45 -1.05 5.45 L-5.45 6.5 -8.15 5.85 Q-9.65 5.15 -10.25 5.15 -10.5 5.15 -11.85 5.8 L-13.1 5.4 -14.5 5.05 M-14.5 0.2 L-14.5 -4.1 -12.75 -3.95 -4.15 -3.2 -1.0 0.1 -11.15 0.15 -14.5 0.2 M24.15 0.65 L30.05 0.15 30.55 0.4 31.8 1.05 29.85 1.9 26.85 3.0 Q26.35 2.2 24.15 0.65 M18.15 6.2 L18.1 6.2 Q16.8 6.2 16.05 6.9 15.25 7.55 14.05 7.55 L10.9 6.8 9.1 6.3 6.7 3.75 5.25 2.35 13.65 1.6 13.2 1.65 16.25 4.5 18.15 6.2" fill="#9ea4ad" fill-rule="evenodd" stroke="none"/>
    <path d="M-14.5 -5.2 L-14.5 -7.8 -8.95 -8.1 -5.65 -8.3 -5.45 -8.3 -4.6 -8.35 1.4 -8.65 11.6 -9.2 20.6 -9.7 39.45 -0.15 40.2 0.2 40.2 0.3 40.0 0.4 20.6 10.2 -14.5 8.3 -14.5 5.05 M-14.5 5.0 L-14.5 4.15 -14.5 0.4 -14.5 0.3 -14.5 0.2 -14.5 -4.1 -14.5 -5.2 Z" fill="none" stroke="#000000" stroke-linecap="round" stroke-linejoin="round" stroke-opacity="0.4" stroke-width="0.05"/>
    <path d="M-17.3 7.75 Q-18.9 7.8 -20.3 7.1 L-22.75 7.35 -25.7 6.7 -27.05 5.8 -27.1 5.85 -28.55 6.15 -31.25 6.05 Q-32.45 5.85 -33.65 5.2 -34.85 4.55 -35.05 4.45 L-35.1 4.45 -37.05 4.35 Q-38.55 3.9 -39.65 2.75 -40.75 1.6 -40.95 0.35 -40.75 -1.15 -39.6 -2.55 -38.55 -3.85 -37.35 -4.05 L-35.55 -4.5 -34.1 -4.85 Q-33.2 -5.0 -32.8 -4.35 L-32.75 -4.35 -31.1 -5.5 -28.6 -6.05 -25.65 -6.25 Q-24.3 -6.25 -23.65 -5.75 L-20.7 -6.9 -17.05 -7.05 Q-16.75 -7.4 -16.15 -7.4 -15.45 -7.4 -14.65 -6.4 L-14.8 -5.95 Q-15.15 -4.6 -15.25 0.4 L-15.25 4.8 Q-15.25 7.05 -14.7 7.5 L-13.8 7.55 -13.8 8.25 -15.6 8.65 -16.85 8.35 -17.3 7.75 M-20.3 7.1 L-18.9 3.0 -17.8 0.35 -18.9 3.0 -20.3 7.1 M-23.65 -5.75 Q-24.55 -5.55 -25.6 -2.45 -26.5 0.25 -27.1 5.8 L-27.1 5.85 -27.1 5.8 Q-26.5 0.25 -25.6 -2.45 -24.55 -5.55 -23.65 -5.75 M-35.05 4.45 Q-35.0 1.4 -33.8 -1.85 L-32.8 -4.35 -33.8 -1.85 Q-35.0 1.4 -35.05 4.45" fill="#512115" fill-rule="evenodd" stroke="none"/>
    <path d="M-17.3 7.75 Q-18.9 7.8 -20.3 7.1 L-22.75 7.35 -25.7 6.7 -27.05 5.8 -27.1 5.85 -28.55 6.15 -31.25 6.05 Q-32.45 5.85 -33.65 5.2 -34.85 4.55 -35.05 4.45 L-35.1 4.45 -37.05 4.35 Q-38.55 3.9 -39.65 2.75 -40.75 1.6 -40.95 0.35 -40.75 -1.15 -39.6 -2.55 -38.55 -3.85 -37.35 -4.05 L-35.55 -4.5 -34.1 -4.85 Q-33.2 -5.0 -32.8 -4.35 L-32.75 -4.35 -31.1 -5.5 -28.6 -6.05 -25.65 -6.25 Q-24.3 -6.25 -23.65 -5.75 L-20.7 -6.9 -17.05 -7.05 M-32.8 -4.35 L-33.8 -1.85 Q-35.0 1.4 -35.05 4.45 M-27.1 5.85 L-27.1 5.8 Q-26.5 0.25 -25.6 -2.45 -24.55 -5.55 -23.65 -5.75 M-17.8 0.35 L-18.9 3.0 -20.3 7.1" fill="none" stroke="#000000" stroke-linecap="round" stroke-linejoin="round" stroke-opacity="0.4" stroke-width="0.05"/>
    <path d="M-35.7 -3.7 Q-34.35 -3.7 -35.05 -2.5 -35.8 -1.3 -37.25 -1.3 -38.5 -1.3 -38.5 -2.15 -38.5 -2.55 -37.15 -3.15 L-35.7 -3.7 M-27.3 -2.8 Q-28.3 0.05 -30.55 0.05 -32.35 0.05 -32.35 -1.3 -32.35 -2.7 -30.2 -4.3 -28.45 -5.65 -28.0 -5.65 -26.3 -5.65 -27.3 -2.8 M-23.5 -4.3 L-21.6 -5.5 Q-19.75 -5.5 -19.75 -3.6 -19.75 -1.0 -21.1 -0.1 L-23.1 0.35 -23.6 0.55 -24.1 0.7 Q-24.55 0.7 -24.9 0.3 -25.35 -0.15 -25.35 -1.05 -25.35 -2.75 -23.5 -4.3" fill="#6b2c1d" fill-rule="evenodd" stroke="none"/>
    <path d="M-16.3 -10.7 L-15.1 -11.95 -13.15 -14.0 -12.35 -14.85 -10.35 -14.1 -15.35 -8.5 -16.3 -10.7 M-13.9 -16.3 L-14.95 -15.4 -17.15 -12.75 -17.75 -14.1 -14.55 -20.4 Q-14.95 -17.9 -13.9 -16.3" fill="url(#gradient0)" fill-rule="evenodd" stroke="none"/>
    <path d="M-12.35 -14.85 L-13.15 -14.0 -15.1 -11.95 -16.3 -10.7 -17.15 -12.75 -14.95 -15.4 -13.9 -16.3 Q-13.35 -15.45 -12.35 -14.85 M-15.35 -2.55 L-15.35 -5.5 -13.3 -8.15 Q-11.85 -8.15 -14.3 -4.2 L-15.35 -2.55 M-15.35 0.7 Q-14.05 -0.85 -13.7 -0.85 L-13.6 -0.85 -13.6 -0.3 -13.6 0.25 -13.6 0.4 -13.6 0.65 -14.4 1.95 -15.35 3.25 -15.35 0.7" fill="#ffffff" fill-rule="evenodd" stroke="none"/>
    <path d="M-16.3 -10.7 L-15.35 -8.5 -15.35 -5.5 -15.35 -2.55 -15.35 0.7 -15.35 3.25 -15.35 9.0 -17.75 14.6 -17.75 -14.1 -17.15 -12.75 -16.3 -10.7" fill="#61898d" fill-rule="evenodd" stroke="none"/>
    <path d="M-15.35 -8.5 L-10.35 -14.1 Q-13.25 -7.85 -13.55 -1.55 L-13.55 -1.45 -13.55 -1.2 -13.6 -0.3 -13.6 -0.85 -13.7 -0.85 Q-14.05 -0.85 -15.35 0.7 L-15.35 -2.55 -14.3 -4.2 Q-11.85 -8.15 -13.3 -8.15 L-15.35 -5.5 -15.35 -8.5 M-15.35 3.25 L-14.4 1.95 -13.6 0.65 -13.55 1.95 -13.55 2.05 Q-13.25 8.35 -10.35 14.6 L-15.35 9.0 -15.35 3.25" fill="url(#gradient1)" fill-rule="evenodd" stroke="none"/>
    <path d="M-15.35 9.0 L-10.35 14.6 Q-13.8 15.45 -14.5 18.15 -14.8 19.35 -14.55 20.9 L-17.75 14.6 -15.35 9.0" fill="url(#gradient2)" fill-rule="evenodd" stroke="none"/>
    <path d="M-16.3 -10.7 L-15.35 -8.5 -10.35 -14.1 -12.35 -14.85 Q-13.35 -15.45 -13.9 -16.3 M-17.15 -12.75 L-16.3 -10.7 M-17.75 -14.1 L-14.55 -20.4 Q-14.95 -17.9 -13.9 -16.3 M-17.75 -14.1 L-17.15 -12.75 M-15.35 -5.5 L-15.35 -2.55 -15.35 0.7 -15.35 3.25 -15.35 9.0 -10.35 14.6 Q-13.25 8.35 -13.55 2.05 L-13.55 1.95 -13.6 0.65 -13.6 0.4 -13.6 0.25 -13.6 -0.3 -13.55 -1.2 -13.55 -1.45 -13.55 -1.55 Q-13.25 -7.85 -10.35 -14.1 M-15.35 -5.5 L-15.35 -8.5 M-10.35 14.6 Q-13.8 15.45 -14.5 18.15 -14.8 19.35 -14.55 20.9 L-17.75 14.6 -17.75 -14.1 M-15.35 9.0 L-17.75 14.6" fill="none" stroke="#000000" stroke-linecap="round" stroke-linejoin="round" stroke-opacity="0.4" stroke-width="0.05"/>
  </g>
  <defs>
    <linearGradient gradientTransform="matrix(-0.0028, -0.0028, 0.0039, -0.0039, -15.05, -14.6)" gradientUnits="userSpaceOnUse" id="gradient0" spreadMethod="pad" x1="-819.2" x2="819.2">
      <stop offset="0.0" stop-color="#b5c0c1"/>
      <stop offset="1.0" stop-color="#ffffff"/>
    </linearGradient>
    <linearGradient gradientTransform="matrix(0.0, 0.0133, -0.0031, 0.0, -12.85, 1.95)" gradientUnits="userSpaceOnUse" id="gradient1" spreadMethod="pad" x1="-819.2" x2="819.2">
      <stop offset="0.0" stop-color="#ccd5d5"/>
      <stop offset="1.0" stop-color="#e6e6e6"/>
    </linearGradient>
    <linearGradient gradientTransform="matrix(-0.0027, 0.0027, -0.0039, -0.0039, -14.85, 14.8)" gradientUnits="userSpaceOnUse" id="gradient2" spreadMethod="pad" x1="-819.2" x2="819.2">
      <stop offset="0.0" stop-color="#758a8a"/>
      <stop offset="1.0" stop-color="#bfbfbf"/>
    </linearGradient>
  </defs>
</svg>
