<?xml version="1.0" encoding="UTF-8" standalone="no"?>
<svg xmlns:xlink="http://www.w3.org/1999/xlink" height="163.3px" width="14.8px" xmlns="http://www.w3.org/2000/svg">
  <g transform="matrix(1.0, 0.0, 0.0, 1.0, 7.8, 81.8)">
    <path d="M-0.6 -38.1 L-0.65 -22.9 -0.6 60.6 -0.55 72.55 -0.65 78.5 -0.4 81.5 -2.5 81.5 -2.5 -38.1 -0.6 -38.1 M2.35 81.5 L2.5 77.4 2.5 81.5 2.35 81.5" fill="#6b2c1d" fill-rule="evenodd" stroke="none"/>
    <path d="M0.15 -38.1 L2.5 -38.1 2.5 77.4 2.35 81.5 -0.4 81.5 -0.65 78.5 -0.55 72.55 -0.6 60.6 -0.65 -22.9 -0.6 -38.1 0.15 -38.1" fill="#512115" fill-rule="evenodd" stroke="none"/>
    <path d="M0.15 -38.1 L-0.6 -38.1 M-0.4 81.5 L2.35 81.5 M2.5 77.4 L2.5 -38.1 M2.5 77.4 L2.5 81.5 2.35 81.5 M-0.4 81.5 L-2.5 81.5 -2.5 -38.1 -0.6 -38.1" fill="none" stroke="#000000" stroke-linecap="round" stroke-linejoin="round" stroke-opacity="0.4" stroke-width="0.05"/>
    <path d="M-2.45 -68.6 L-2.45 -67.55 -2.65 -67.55 -2.45 -68.6 M-6.85 -44.95 L-0.9 -45.05 -0.45 -38.2 0.15 -29.4 0.0 -29.1 -2.45 -34.4 -6.35 -42.75 -6.3 -42.75 -6.65 -43.5 -7.0 -44.25 -6.85 -44.95 M6.9 -44.95 L6.5 -45.0 Q2.05 -45.25 2.0 -47.2 L1.9 -51.7 Q1.75 -56.1 1.75 -60.7 L1.5 -69.7 1.3 -74.95 6.9 -44.95" fill="#ccced5" fill-rule="evenodd" stroke="none"/>
    <path d="M0.2 -80.85 Q-0.05 -78.8 0.05 -77.85 L0.1 -45.05 -0.15 -45.05 -0.9 -45.05 -6.85 -44.95 -2.65 -67.55 -2.45 -67.55 -2.45 -68.6 0.0 -81.8 0.2 -80.85 M-6.35 -42.75 L-6.65 -43.5 -6.3 -42.75 -6.35 -42.75" fill="#ffffff" fill-rule="evenodd" stroke="none"/>
    <path d="M-0.9 -45.05 L-0.15 -45.05 0.1 -45.05 0.05 -77.85 Q-0.05 -78.8 0.2 -80.85 L1.3 -74.95 1.5 -69.7 1.75 -60.7 Q1.75 -56.1 1.9 -51.7 L2.0 -47.2 Q2.05 -45.25 6.5 -45.0 L6.9 -44.95 7.0 -44.25 0.35 -29.9 0.15 -29.4 -0.45 -38.2 -0.9 -45.05" fill="#9ea4ad" fill-rule="evenodd" stroke="none"/>
    <path d="M0.2 -80.85 L0.0 -81.8 -2.45 -68.6 M-2.65 -67.55 L-6.85 -44.95 M0.35 -29.9 L7.0 -44.25 6.9 -44.95 1.3 -74.95 0.2 -80.85 M0.15 -29.4 L0.0 -29.1 -2.45 -34.4 -6.35 -42.75 -6.65 -43.5 -7.0 -44.25 -6.85 -44.95 M-2.65 -67.55 L-2.45 -68.6" fill="none" stroke="#000000" stroke-linecap="round" stroke-linejoin="round" stroke-opacity="0.4" stroke-width="0.05"/>
    <path d="M-0.3 -39.05 L0.15 -38.8 1.25 -37.9 Q1.25 -37.45 0.05 -36.5 -1.0 -35.65 -1.65 -35.45 L-4.5 -34.7 -5.15 -34.5 -5.8 -35.0 Q-6.45 -35.65 -6.45 -36.4 L-6.25 -37.8 -4.55 -39.3 Q-3.1 -38.45 -0.5 -39.0 L-0.3 -39.05 M-4.05 -34.35 L-3.95 -34.35 -3.85 -34.35 -2.85 -34.55 -2.5 -34.6 -2.4 -34.65 -0.15 -35.3 0.45 -35.15 Q0.9 -35.05 1.2 -34.8 L1.5 -34.3 1.5 -33.9 -0.25 -32.85 Q-2.6 -31.5 -4.05 -31.5 L-5.05 -31.7 -5.15 -31.75 -4.9 -33.1 Q-4.65 -34.1 -4.05 -34.35 M1.45 -31.65 L1.55 -31.55 1.85 -30.95 Q1.85 -30.2 -0.15 -29.35 -2.25 -28.4 -4.5 -28.35 L-4.55 -28.75 Q-4.65 -29.7 -4.05 -30.45 L-2.75 -30.45 Q-1.05 -30.45 1.45 -31.65 M-3.3 -26.35 L-3.15 -26.35 -1.7 -26.0 -1.95 -25.0 Q-2.25 -22.05 -3.75 -19.55 L-4.5 -18.25 -4.65 -18.0 -5.45 -15.95 -5.45 -13.85 Q-5.45 -13.35 -6.5 -12.8 L-7.0 -12.5 -7.05 -13.55 Q-7.05 -15.95 -6.3 -18.25 -5.05 -21.0 -4.1 -23.7 L-3.6 -25.0 -3.4 -25.8 -3.3 -26.35 M-4.65 -13.4 L-4.4 -14.5 -4.45 -14.35 -4.65 -13.4 M-1.65 -21.4 L-1.7 -21.5 -1.65 -21.45 -1.65 -21.4" fill="#f1daa7" fill-rule="evenodd" stroke="none"/>
    <path d="M-5.15 -34.5 L-4.85 -34.4 -5.2 -34.5 -5.15 -34.5 M-2.85 -34.55 L-2.4 -34.65 -2.5 -34.6 -2.85 -34.55 M0.75 -39.3 L0.35 -39.2 0.75 -39.3 M-4.85 -30.7 L-5.1 -31.1 -4.85 -30.7" fill="#c8a451" fill-rule="evenodd" stroke="none"/>
    <path d="M-5.15 -34.5 L-4.5 -34.7 -1.65 -35.45 Q-1.0 -35.65 0.05 -36.5 1.25 -37.45 1.25 -37.9 L0.15 -38.8 -0.3 -39.05 0.35 -39.2 0.75 -39.3 3.4 -40.1 5.5 -41.15 Q6.1 -40.5 6.1 -39.6 6.1 -38.4 4.3 -37.25 L3.5 -36.8 Q2.55 -36.3 1.3 -35.85 L1.15 -35.8 -0.15 -35.3 1.15 -35.8 1.3 -35.85 Q2.55 -36.3 3.5 -36.8 L4.3 -37.25 Q4.55 -37.3 5.0 -36.2 5.45 -35.15 4.8 -34.2 L4.05 -33.25 4.35 -33.15 4.55 -32.85 4.6 -31.45 Q4.5 -30.3 1.3 -28.85 L0.05 -28.35 Q-0.15 -28.25 -0.3 -28.2 -2.15 -27.5 -3.2 -27.45 -2.15 -27.5 -0.3 -28.2 L-0.35 -26.0 -0.4 -25.8 -0.55 -24.4 Q-0.75 -23.45 -1.1 -22.6 L-1.65 -21.45 -1.7 -21.5 -1.65 -21.4 -2.7 -19.35 -3.3 -17.85 -4.0 -15.8 -4.45 -14.35 -4.4 -14.5 -4.65 -13.4 -4.75 -12.6 -4.75 -12.55 -4.75 -11.8 Q-4.75 -10.65 -3.95 -10.4 L-5.1 -10.25 -4.75 -8.9 -5.75 -8.7 -5.9 -10.1 -6.5 -10.0 -6.5 -10.15 -6.55 -10.4 -6.75 -11.1 -6.8 -11.45 -6.9 -11.95 -6.8 -11.45 -6.75 -11.1 -6.55 -10.4 -6.5 -10.15 -6.6 -9.65 Q-6.8 -9.0 -7.05 -9.0 -7.45 -9.0 -7.8 -9.35 -7.55 -9.6 -7.15 -11.0 L-6.9 -11.95 -7.0 -12.5 -6.5 -12.8 Q-5.45 -13.35 -5.45 -13.85 L-5.45 -15.95 -4.65 -18.0 -4.5 -18.25 -3.75 -19.55 Q-2.25 -22.05 -1.95 -25.0 L-1.7 -26.0 -3.15 -26.35 -3.3 -26.35 -3.2 -27.1 -3.2 -27.45 -3.4 -27.45 -3.85 -27.45 Q-4.15 -27.5 -4.3 -27.65 L-4.5 -28.35 Q-2.25 -28.4 -0.15 -29.35 1.85 -30.2 1.85 -30.95 L1.55 -31.55 1.45 -31.65 Q-1.05 -30.45 -2.75 -30.45 L-4.05 -30.45 -4.3 -30.45 Q-4.65 -30.5 -4.85 -30.7 L-5.1 -31.1 -5.15 -31.4 -5.15 -31.45 -5.15 -31.5 -5.15 -31.75 -5.05 -31.7 -4.05 -31.5 Q-2.6 -31.5 -0.25 -32.85 L1.5 -33.9 1.5 -34.3 1.2 -34.8 Q0.9 -35.05 0.45 -35.15 L-0.15 -35.3 -2.4 -34.65 -2.85 -34.55 -3.85 -34.35 -3.95 -34.35 -4.05 -34.35 -4.5 -34.35 -4.85 -34.4 -5.15 -34.5 M1.45 -31.65 L1.8 -31.85 2.4 -32.2 4.05 -33.25 2.4 -32.2 1.8 -31.85 1.45 -31.65" fill="#bb953c" fill-rule="evenodd" stroke="none"/>
    <path d="M-0.3 -39.05 L-0.5 -39.0 Q-3.1 -38.45 -4.55 -39.3 L-6.25 -37.8 -6.45 -36.4 Q-6.45 -35.65 -5.8 -35.0 L-5.15 -34.5 -4.85 -34.4 -4.5 -34.35 -4.05 -34.35 -3.95 -34.35 -3.85 -34.35 -2.85 -34.55 -2.4 -34.65 -0.15 -35.3 1.15 -35.8 1.3 -35.85 Q2.55 -36.3 3.5 -36.8 L4.3 -37.25 Q6.1 -38.4 6.1 -39.6 6.1 -40.5 5.5 -41.15 L3.4 -40.1 0.75 -39.3 0.35 -39.2 -0.3 -39.05 M1.45 -31.65 Q-1.05 -30.45 -2.75 -30.45 L-4.05 -30.45 Q-4.65 -29.7 -4.55 -28.75 L-4.5 -28.35 -4.3 -27.65 Q-4.15 -27.5 -3.85 -27.45 L-3.4 -27.45 -3.2 -27.45 Q-2.15 -27.5 -0.3 -28.2 -0.15 -28.25 0.05 -28.35 L1.3 -28.85 Q4.5 -30.3 4.6 -31.45 L4.55 -32.85 4.35 -33.15 4.05 -33.25 2.4 -32.2 1.8 -31.85 1.45 -31.65 M4.3 -37.25 Q4.55 -37.3 5.0 -36.2 5.45 -35.15 4.8 -34.2 L4.05 -33.25 M-5.15 -31.75 L-4.9 -33.1 Q-4.65 -34.1 -4.05 -34.35 M-5.1 -31.1 L-5.15 -31.4 -5.15 -31.45 -5.15 -31.5 -5.15 -31.75 M-5.1 -31.1 L-4.85 -30.7 Q-4.65 -30.5 -4.3 -30.45 L-4.05 -30.45 M-3.3 -26.35 L-3.4 -25.8 -3.6 -25.0 -4.1 -23.7 Q-5.05 -21.0 -6.3 -18.25 -7.05 -15.95 -7.05 -13.55 L-7.0 -12.5 -6.9 -11.95 -6.8 -11.45 -6.75 -11.1 -6.55 -10.4 -6.5 -10.15 -6.5 -10.0 -5.9 -10.1 -5.75 -8.7 -4.75 -8.9 -5.1 -10.25 -3.95 -10.4 Q-4.75 -10.65 -4.75 -11.8 L-4.75 -12.55 -4.75 -12.6 -4.65 -13.4 M-4.45 -14.35 L-4.0 -15.8 -3.3 -17.85 -2.7 -19.35 -1.65 -21.4 M-1.65 -21.45 L-1.1 -22.6 Q-0.75 -23.45 -0.55 -24.4 L-0.4 -25.8 -0.35 -26.0 -0.3 -28.2 M-3.3 -26.35 L-3.2 -27.1 -3.2 -27.45 M-1.65 -21.45 L-1.65 -21.4 M-4.45 -14.35 L-4.65 -13.4 M-6.5 -10.15 L-6.6 -9.65 Q-6.8 -9.0 -7.05 -9.0 -7.45 -9.0 -7.8 -9.35 -7.55 -9.6 -7.15 -11.0 L-6.9 -11.95" fill="none" stroke="#000000" stroke-linecap="round" stroke-linejoin="round" stroke-opacity="0.4" stroke-width="0.05"/>
  </g>
</svg>
