<?xml version="1.0" encoding="UTF-8" standalone="no"?>
<svg xmlns:xlink="http://www.w3.org/1999/xlink" height="4.6px" width="116.55px" xmlns="http://www.w3.org/2000/svg">
  <g transform="matrix(1.0, 0.0, 0.0, 1.0, 58.25, 2.3)">
    <path d="M-58.1 0.25 L-58.15 -1.7 6.6 -2.05 58.0 -2.2 58.3 -2.3 58.25 0.15 -58.1 0.25 M6.6 -2.05 L6.75 -1.0 6.6 -2.05" fill="#6b5a50" fill-rule="evenodd" stroke="none"/>
    <path d="M58.25 0.15 L58.3 1.95 -58.25 2.3 -58.1 0.25 58.25 0.15" fill="#000000" fill-rule="evenodd" stroke="none"/>
    <path d="M58.25 0.15 L58.3 1.95 -58.25 2.3 -58.1 0.25 -58.15 -1.7 6.6 -2.05 58.0 -2.2 58.3 -2.3 58.25 0.15 M6.75 -1.0 L6.6 -2.05" fill="none" stroke="#000000" stroke-linecap="round" stroke-linejoin="round" stroke-opacity="0.4" stroke-width="0.05"/>
  </g>
</svg>
