<?xml version="1.0" encoding="UTF-8" standalone="no"?>
<svg xmlns:xlink="http://www.w3.org/1999/xlink" height="40.4px" width="176.35px" xmlns="http://www.w3.org/2000/svg">
  <g transform="matrix(1.0, 0.0, 0.0, 1.0, 92.3, 20.5)">
    <path d="M32.05 -15.65 Q33.7 -16.7 35.45 -17.5 39.05 -19.05 42.05 -18.85 L49.6 -19.55 57.65 -20.5 Q61.5 -20.5 64.95 -18.5 68.35 -16.5 69.55 -16.5 70.95 -16.5 72.8 -18.1 74.65 -19.75 76.4 -19.75 78.1 -19.75 80.0 -18.75 L81.0 -18.2 78.75 -18.55 Q76.65 -18.55 74.4 -17.2 71.75 -15.6 71.25 -13.1 70.6 -13.2 69.95 -13.45 L69.05 -13.7 67.9 -13.3 67.05 -12.95 Q66.6 -12.95 64.95 -14.3 63.3 -15.65 62.05 -15.65 60.1 -15.65 59.1 -16.55 58.1 -17.5 56.95 -17.5 53.25 -17.35 49.95 -16.15 43.4 -13.7 43.4 -8.15 43.4 -5.6 45.2 -4.15 45.9 -3.55 46.65 -3.25 46.85 -3.1 47.15 -3.0 L53.7 -2.75 63.15 -3.1 Q65.25 -3.4 66.9 -4.0 66.95 -3.45 67.25 -3.0 67.6 -2.4 68.25 -2.4 L70.2 -3.1 Q70.85 -1.9 72.5 -0.85 L71.5 -0.05 Q69.5 1.85 68.15 1.85 L67.45 1.1 Q66.95 0.35 64.65 0.45 62.95 0.5 62.15 -0.05 L61.0 -0.55 56.4 -0.2 51.9 0.25 45.6 0.75 Q42.85 1.75 42.85 6.05 42.85 10.45 46.65 12.4 L47.25 12.95 Q47.65 14.3 49.6 15.3 51.4 16.2 52.3 16.2 L54.25 15.7 Q55.45 15.15 55.7 15.15 56.15 15.15 57.25 15.75 58.35 16.35 59.35 16.35 60.35 16.35 67.35 14.05 67.55 14.05 68.0 14.4 L68.6 14.7 70.1 13.7 Q70.55 13.7 74.55 16.45 L78.35 18.85 76.4 19.15 Q74.65 19.15 72.8 17.5 70.95 15.9 69.55 15.9 68.35 15.9 64.95 17.9 61.5 19.9 57.65 19.9 L49.6 18.95 42.05 18.25 Q39.05 18.45 35.45 16.9 L32.85 15.6 Q42.2 14.85 42.3 -3.5 41.85 -10.2 39.05 -13.35 36.85 -15.8 33.6 -15.8 L32.05 -15.65 M30.65 -14.7 L30.2 -14.35 30.2 -14.3 30.25 -14.0 29.9 -14.0 29.9 -14.15 30.65 -14.7 M30.95 13.4 L30.5 14.0 31.05 14.4 29.9 13.55 29.9 13.4 30.95 13.4 M78.6 17.05 L81.85 16.6 81.9 16.6 Q80.3 17.3 78.95 17.3 L78.6 17.05 M76.15 0.55 L76.05 0.65 76.1 0.55 76.15 0.55 M70.7 6.0 L70.7 6.15 70.6 6.0 70.65 6.0 70.7 6.0 M67.5 11.45 L69.05 10.8 67.9 11.45 67.5 11.45" fill="#ccced5" fill-rule="evenodd" stroke="none"/>
    <path d="M32.05 -15.65 L33.6 -15.8 Q36.85 -15.8 39.05 -13.35 41.85 -10.2 42.3 -3.5 42.2 14.85 32.85 15.6 L31.05 14.4 30.5 14.0 30.95 13.4 Q36.6 13.2 37.55 8.9 38.4 4.9 38.7 0.4 L38.75 -0.3 38.7 -1.0 Q38.4 -5.45 37.55 -9.5 36.55 -14.1 30.25 -14.0 L30.2 -14.3 30.2 -14.35 30.65 -14.7 32.05 -15.65 M78.35 18.85 L74.55 16.45 Q70.55 13.7 70.1 13.7 L68.6 14.7 68.0 14.4 Q67.55 14.05 67.35 14.05 60.35 16.35 59.35 16.35 58.35 16.35 57.25 15.75 56.15 15.15 55.7 15.15 55.45 15.15 54.25 15.7 L52.3 16.2 Q51.4 16.2 49.6 15.3 47.65 14.3 47.25 12.95 L48.2 13.5 48.3 13.55 Q50.4 14.5 56.25 14.5 62.2 14.5 65.5 12.5 66.55 11.85 67.5 11.45 L67.9 11.45 69.05 10.8 69.8 10.6 69.05 10.8 69.1 10.8 69.8 10.6 70.45 10.55 Q71.75 10.55 73.8 13.8 75.85 17.05 78.3 17.05 L78.6 17.05 78.95 17.3 Q80.3 17.3 81.9 16.6 L81.95 16.6 83.0 16.3 83.8 16.05 84.05 15.9 84.0 15.95 83.8 16.05 80.0 18.15 78.35 18.85 M46.65 12.4 Q42.85 10.45 42.85 6.05 42.85 1.75 45.6 0.75 L51.9 0.25 56.4 -0.2 61.0 -0.55 62.15 -0.05 Q62.95 0.5 64.65 0.45 66.95 0.35 67.45 1.1 L68.15 1.85 Q69.5 1.85 71.5 -0.05 L72.5 -0.85 Q70.85 -1.9 70.2 -3.1 L68.25 -2.4 Q67.6 -2.4 67.25 -3.0 66.95 -3.45 66.9 -4.0 L68.05 -4.55 66.9 -4.0 66.9 -4.05 68.05 -4.55 70.6 -6.6 70.7 -6.75 Q70.75 -5.2 73.25 -3.25 L77.4 -0.3 76.8 0.15 76.2 0.55 76.15 0.55 76.8 0.15 76.15 0.55 76.1 0.55 76.05 0.65 73.25 2.65 70.7 6.0 70.65 6.0 70.6 6.0 Q68.35 3.25 63.15 2.5 L53.7 2.15 47.15 2.4 Q45.05 3.2 45.05 7.4 L45.1 8.35 45.1 8.45 45.1 8.55 46.1 11.65 46.7 12.45 46.65 12.4 46.1 11.65 46.65 12.4 M46.65 -3.25 Q45.9 -3.55 45.2 -4.15 43.4 -5.6 43.4 -8.15 43.4 -13.7 49.95 -16.15 53.25 -17.35 56.95 -17.5 58.1 -17.5 59.1 -16.55 60.1 -15.65 62.05 -15.65 63.3 -15.65 64.95 -14.3 66.6 -12.95 67.05 -12.95 L67.9 -13.3 69.05 -13.7 69.95 -13.45 Q70.6 -13.2 71.25 -13.1 71.75 -15.6 74.4 -17.2 76.65 -18.55 78.75 -18.55 L81.0 -18.2 81.3 -18.05 83.85 -16.6 84.05 -16.5 81.85 -17.2 78.3 -17.65 Q75.85 -17.65 73.8 -14.4 71.75 -11.15 70.45 -11.15 68.75 -11.15 65.5 -13.1 62.2 -15.1 56.25 -15.1 50.4 -15.1 48.3 -14.15 45.05 -12.7 45.05 -8.0 45.05 -4.35 46.65 -3.25 M83.0 16.3 L81.9 16.6 83.0 16.3" fill="#ffffff" fill-rule="evenodd" stroke="none"/>
    <path d="M81.0 -18.2 L80.0 -18.75 Q78.1 -19.75 76.4 -19.75 74.65 -19.75 72.8 -18.1 70.95 -16.5 69.55 -16.5 68.35 -16.5 64.95 -18.5 61.5 -20.5 57.65 -20.5 L49.6 -19.55 42.05 -18.85 Q39.05 -19.05 35.45 -17.5 33.7 -16.7 32.05 -15.65 L30.65 -14.7 29.9 -14.15 29.9 -14.0 30.25 -14.0 Q36.55 -14.1 37.55 -9.5 38.4 -5.45 38.7 -1.0 L38.75 -0.3 38.7 0.4 Q38.4 4.9 37.55 8.9 36.6 13.2 30.95 13.4 M32.85 15.6 L35.45 16.9 Q39.05 18.45 42.05 18.25 L49.6 18.95 57.65 19.9 Q61.5 19.9 64.95 17.9 68.35 15.9 69.55 15.9 70.95 15.9 72.8 17.5 74.65 19.15 76.4 19.15 L78.35 18.85 M47.25 12.95 L46.65 12.4 46.1 11.65 M66.9 -4.0 Q65.25 -3.4 63.15 -3.1 L53.7 -2.75 47.15 -3.0 Q46.85 -3.1 46.65 -3.25 M81.3 -18.05 L83.85 -16.6 84.05 -16.5 81.85 -17.2 78.3 -17.65 Q75.85 -17.65 73.8 -14.4 71.75 -11.15 70.45 -11.15 68.75 -11.15 65.5 -13.1 62.2 -15.1 56.25 -15.1 50.4 -15.1 48.3 -14.15 45.05 -12.7 45.05 -8.0 45.05 -4.35 46.65 -3.25 M31.05 14.4 L32.85 15.6 M76.8 0.15 L77.4 -0.3 73.25 -3.25 Q70.75 -5.2 70.7 -6.75 L70.6 -6.6 68.05 -4.55 66.9 -4.0 M78.6 17.05 L81.85 16.6 81.9 16.6 83.0 16.3 83.8 16.05 84.05 15.9 84.0 15.95 83.8 16.05 80.0 18.15 78.35 18.85 M76.8 0.15 L76.15 0.55 76.05 0.65 73.25 2.65 70.7 6.0 70.7 6.15 70.6 6.0 Q68.35 3.25 63.15 2.5 L53.7 2.15 47.15 2.4 Q45.05 3.2 45.05 7.4 L45.1 8.35 45.1 8.45 45.1 8.55 46.1 11.65 M67.5 11.45 L69.05 10.8 M69.8 10.6 L70.45 10.55 Q71.75 10.55 73.8 13.8 75.85 17.05 78.3 17.05 L78.6 17.05 M67.5 11.45 Q66.55 11.85 65.5 12.5 62.2 14.5 56.25 14.5 50.4 14.5 48.3 13.55 L48.2 13.5 47.25 12.95 M69.8 10.6 L69.05 10.8 M31.05 14.4 L29.9 13.55 29.9 13.4 30.95 13.4" fill="none" stroke="#000000" stroke-linecap="round" stroke-linejoin="round" stroke-opacity="0.4" stroke-width="0.05"/>
    <path d="M16.95 -3.15 L6.5 -3.25 Q-0.65 -3.65 -0.65 -1.95 -0.65 -1.0 2.85 -0.75 L5.05 -0.7 6.4 -0.75 20.8 -0.15 Q19.05 -2.15 16.95 -3.15 14.8 -4.2 12.3 -4.25 L12.25 -4.25 12.3 -4.25 Q14.8 -4.2 16.95 -3.15 M2.3 -4.25 L12.25 -4.25 14.55 -4.5 17.55 -3.65 Q19.3 -3.05 21.2 -1.5 21.95 -0.45 25.5 2.25 26.4 3.0 27.85 3.55 L30.2 4.05 Q33.5 4.05 33.15 2.8 L30.8 2.8 Q27.1 1.7 25.9 0.15 L26.0 0.15 46.6 -0.5 46.55 -0.45 46.6 -0.5 46.65 -0.5 46.55 -0.45 46.15 0.0 Q44.5 1.65 43.6 3.55 L40.9 9.5 Q42.3 5.25 39.35 2.8 L38.2 2.8 34.1 5.2 29.35 5.85 Q26.45 5.85 24.5 4.3 L23.1 2.8 1.2 2.8 1.05 2.8 1.2 2.8 0.95 2.95 1.05 2.8 -2.35 2.8 -4.95 2.8 -2.35 2.8 -3.3 3.0 -4.95 2.8 -6.45 2.8 -6.6 2.75 -6.65 2.75 -6.7 2.7 -6.9 2.65 -7.15 2.5 -7.25 2.45 -9.6 0.9 -9.85 0.7 -11.75 -0.95 -13.8 -2.65 -14.05 -2.85 Q-15.25 -3.8 -16.2 -4.25 L2.3 -4.25 M20.8 -0.15 L21.55 0.85 23.1 2.8 21.55 0.85 20.8 -0.15 M24.3 -1.65 L24.15 -1.75 24.15 -1.8 24.3 -1.65 M22.85 -3.1 L22.25 -3.65 21.55 -4.25 39.2 -4.25 39.55 -4.15 Q42.25 -6.3 40.85 -10.55 L42.65 -6.55 Q42.4 -5.3 41.55 -4.4 40.5 -3.25 39.5 -3.25 39.1 -3.25 39.05 -3.5 L33.3 -3.05 22.85 -3.1 M38.2 2.8 L33.15 2.8 38.2 2.8 M-86.85 -3.25 Q-87.35 -2.15 -88.5 -1.65 L-90.3 -0.8 Q-88.15 -1.05 -86.8 3.45 -86.55 3.4 -86.5 2.9 L-86.45 2.15 -86.1 1.35 -85.25 0.6 -83.85 0.95 -82.55 1.3 -81.65 1.15 -80.95 0.95 Q-80.65 0.6 -80.5 -0.8 L-80.5 -3.5 Q-80.75 -4.9 -81.65 -5.65 -82.4 -6.15 -83.3 -6.15 -84.1 -6.15 -85.15 -5.3 -86.25 -4.45 -86.85 -3.25 M-79.7 2.8 Q-80.1 5.35 -83.85 5.35 -86.4 5.35 -87.3 3.6 L-88.2 1.0 Q-88.8 0.0 -90.45 -0.45 L-92.3 -0.8 -90.45 -1.15 Q-88.8 -1.6 -88.2 -2.55 L-87.3 -5.2 Q-86.4 -6.95 -83.85 -6.95 -80.0 -6.95 -79.65 -4.25 L-45.15 -4.25 -31.2 -4.25 -27.95 -4.25 -26.25 -4.25 Q-24.0 -4.2 -21.3 -2.9 -21.85 -2.7 -21.85 -2.15 -21.85 -0.9 -21.05 -1.05 -19.7 -1.05 -19.2 -1.75 -16.3 0.0 -13.3 2.75 L-13.25 2.8 -13.3 2.75 Q-16.3 0.0 -19.2 -1.75 L-19.25 -1.8 -19.25 -1.95 Q-18.95 -3.1 -18.35 -3.25 -16.3 -2.15 -14.1 -0.45 -7.9 4.35 -4.15 4.35 L-1.1 4.05 -1.0 4.05 -2.15 4.65 Q-4.35 5.6 -6.9 5.5 L-9.0 5.15 -11.05 4.3 Q-12.25 3.7 -13.25 2.8 L-79.65 2.8 -79.7 2.8 -79.65 2.35 -79.7 2.35 -79.7 -0.2 -79.7 2.35 -79.65 2.35 -79.7 2.8 M-79.7 -0.2 L-71.05 -0.3 -55.65 -0.2 -55.35 -0.2 -47.05 -0.45 Q-43.6 -0.55 -42.15 -1.15 L-41.25 -1.75 Q-40.85 -2.25 -42.15 -2.55 L-46.8 -3.05 -55.35 -3.1 -55.7 -3.1 -71.25 -3.05 -79.7 -3.25 -79.7 -0.2 M-79.65 -4.25 L-79.65 -3.95 -79.7 -3.95 -79.7 -3.25 -79.7 -3.95 -79.65 -3.95 -79.65 -4.25 M-38.6 -2.65 L-39.15 -1.75 Q-39.15 -0.5 -38.3 -0.7 -35.6 -0.7 -35.85 -1.9 -36.1 -3.1 -37.7 -3.1 L-38.6 -2.65 M-34.45 -1.45 Q-34.45 -0.6 -33.7 -0.4 L-31.05 -0.75 Q-29.6 -1.0 -30.1 -2.1 -30.65 -3.1 -31.45 -3.1 -34.45 -2.5 -34.45 -1.45 M-27.15 -0.95 Q-26.35 -0.95 -25.25 -2.25 -24.1 -3.55 -25.9 -3.55 L-27.1 -3.25 Q-28.0 -2.8 -28.0 -2.1 -28.0 -0.75 -27.15 -0.95 M-20.4 -2.45 L-20.5 -2.5 -20.4 -2.45 M-11.35 -1.95 Q-11.35 -0.85 -9.6 -0.85 -8.15 -0.85 -8.2 -1.95 -8.2 -3.05 -9.35 -3.05 L-10.5 -3.0 Q-11.35 -2.75 -11.35 -1.95 M-5.55 -0.05 Q-3.4 -0.05 -2.2 -1.55 -1.0 -3.05 -3.25 -3.05 L-5.05 -2.8 Q-6.45 -2.4 -6.45 -1.55 -6.45 -0.2 -5.55 -0.05" fill="#ffcc00" fill-rule="evenodd" stroke="none"/>
    <path d="M20.8 -0.15 L6.4 -0.75 5.05 -0.7 2.85 -0.75 Q-0.65 -1.0 -0.65 -1.95 -0.65 -3.65 6.5 -3.25 L16.95 -3.15 Q19.05 -2.15 20.8 -0.15 M12.25 -4.25 L2.3 -4.25 Q4.75 -5.8 6.0 -6.35 8.85 -7.5 11.75 -7.5 14.25 -7.5 17.4 -6.35 L20.15 -5.15 21.55 -4.25 22.25 -3.65 22.85 -3.1 23.0 -2.95 24.15 -1.8 23.0 -2.95 22.85 -3.1 33.3 -3.05 39.05 -3.5 Q39.1 -3.25 39.5 -3.25 40.5 -3.25 41.55 -4.4 42.4 -5.3 42.65 -6.55 L43.55 -4.6 Q44.2 -3.25 45.2 -2.0 L46.55 -0.55 46.65 -0.5 46.6 -0.5 46.55 -0.55 46.6 -0.5 26.0 0.15 25.9 0.15 Q27.1 1.7 30.8 2.8 L33.15 2.8 Q33.5 4.05 30.2 4.05 L27.85 3.55 Q26.4 3.0 25.5 2.25 21.95 -0.45 21.2 -1.5 19.3 -3.05 17.55 -3.65 L14.55 -4.5 12.25 -4.25 M-16.2 -4.25 Q-15.25 -3.8 -14.05 -2.85 L-13.8 -2.65 -11.75 -0.95 -9.85 0.7 -9.6 0.9 -7.25 2.45 -7.15 2.5 -6.9 2.65 -6.7 2.7 -6.65 2.75 -6.6 2.75 -6.45 2.8 -4.95 2.8 -3.3 3.0 -2.35 2.8 1.05 2.8 0.95 2.95 -1.0 4.05 -1.1 4.05 -4.15 4.35 Q-7.9 4.35 -14.1 -0.45 -16.3 -2.15 -18.35 -3.25 -18.95 -3.1 -19.25 -1.95 L-19.25 -1.8 -19.2 -1.75 Q-19.7 -1.05 -21.05 -1.05 -21.85 -0.9 -21.85 -2.15 -21.85 -2.7 -21.3 -2.9 -24.0 -4.2 -26.25 -4.25 L-27.95 -4.25 -31.2 -4.25 -45.15 -4.25 -42.15 -5.15 -39.55 -6.0 Q-36.8 -6.9 -31.6 -7.2 L-22.7 -6.6 Q-19.55 -5.85 -17.1 -4.6 L-16.25 -4.25 -16.2 -4.25 M24.3 -1.65 L25.8 0.05 25.9 0.15 25.8 0.05 24.3 -1.65 24.15 -1.8 24.15 -1.75 24.3 -1.65 M-86.85 -3.25 Q-86.25 -4.45 -85.15 -5.3 -84.1 -6.15 -83.3 -6.15 -82.4 -6.15 -81.65 -5.65 -80.75 -4.9 -80.5 -3.5 L-80.5 -0.8 Q-80.65 0.6 -80.95 0.95 L-81.65 1.15 -82.55 1.3 -83.85 0.95 -85.25 0.6 -86.1 1.35 -86.45 2.15 -86.5 2.9 Q-86.55 3.4 -86.8 3.45 -88.15 -1.05 -90.3 -0.8 L-88.5 -1.65 Q-87.35 -2.15 -86.85 -3.25 M-79.7 -3.25 L-71.25 -3.05 -55.7 -3.1 -55.35 -3.1 -46.8 -3.05 -42.15 -2.55 Q-40.85 -2.25 -41.25 -1.75 L-42.15 -1.15 Q-43.6 -0.55 -47.05 -0.45 L-55.35 -0.2 -55.65 -0.2 -71.05 -0.3 -79.7 -0.2 -79.7 -3.25 M-27.15 -0.95 Q-28.0 -0.75 -28.0 -2.1 -28.0 -2.8 -27.1 -3.25 L-25.9 -3.55 Q-24.1 -3.55 -25.25 -2.25 -26.35 -0.95 -27.15 -0.95 M-34.45 -1.45 Q-34.45 -2.5 -31.45 -3.1 -30.65 -3.1 -30.1 -2.1 -29.6 -1.0 -31.05 -0.75 L-33.7 -0.4 Q-34.45 -0.6 -34.45 -1.45 M-38.6 -2.65 L-37.7 -3.1 Q-36.1 -3.1 -35.85 -1.9 -35.6 -0.7 -38.3 -0.7 -39.15 -0.5 -39.15 -1.75 L-38.6 -2.65 M-21.3 -2.9 L-20.5 -2.5 -21.3 -2.9 M-20.5 -2.5 L-20.4 -2.45 -20.5 -2.5 M-19.25 -1.8 L-20.4 -2.45 -19.25 -1.8 M-5.55 -0.05 Q-6.45 -0.2 -6.45 -1.55 -6.45 -2.4 -5.05 -2.8 L-3.25 -3.05 Q-1.0 -3.05 -2.2 -1.55 -3.4 -0.05 -5.55 -0.05 M-11.35 -1.95 Q-11.35 -2.75 -10.5 -3.0 L-9.35 -3.05 Q-8.2 -3.05 -8.2 -1.95 -8.15 -0.85 -9.6 -0.85 -11.35 -0.85 -11.35 -1.95" fill="#c7690e" fill-rule="evenodd" stroke="none"/>
    <path d="M45.2 -2.0 L48.4 -1.5 52.95 -1.0 58.35 -1.45 Q57.9 -0.55 56.8 -0.4 L54.8 -0.25 50.85 0.1 47.15 -0.1 46.15 0.0 46.55 -0.45 46.65 -0.5 46.55 -0.55 45.2 -2.0 M36.7 -16.3 L41.5 -17.1 46.45 -17.55 51.85 -18.65 56.2 -19.6 58.0 -19.05 59.6 -18.35 Q60.35 -17.9 62.85 -17.8 L64.5 -17.25 66.15 -16.45 Q66.7 -16.15 67.85 -15.75 L69.3 -15.15 68.8 -15.1 66.0 -15.7 63.95 -16.3 Q61.45 -16.3 58.95 -17.2 L56.05 -18.1 53.35 -17.5 51.15 -16.9 50.6 -17.15 46.2 -16.15 Q44.75 -15.75 44.05 -14.85 43.65 -14.3 43.35 -12.65 43.1 -11.35 42.6 -11.35 L41.95 -13.45 Q41.1 -15.6 39.9 -15.7 37.55 -15.8 36.7 -16.3 M64.8 -1.55 L65.4 -1.35 66.05 -1.2 68.65 -1.55 Q70.2 -1.55 68.75 -0.75 67.35 0.0 66.0 0.0 L64.45 -0.3 63.65 -0.5 62.6 -1.2 Q62.9 -1.7 63.25 -1.6 L63.85 -1.35 64.8 -1.55 M61.0 18.25 L54.05 19.05 49.8 18.55 Q48.95 18.55 46.6 17.55 44.3 16.55 42.2 16.55 L39.5 16.3 36.7 15.8 38.0 15.2 39.55 14.25 40.75 11.85 Q41.9 9.7 42.1 9.7 42.65 9.7 43.05 11.3 L43.8 13.75 Q44.05 14.25 44.65 14.5 L45.8 15.1 Q49.0 17.15 49.75 17.15 L52.05 16.8 55.05 16.45 Q56.95 16.45 59.65 17.25 61.6 17.25 63.0 16.35 64.45 15.4 66.95 15.4 L67.45 15.2 67.95 15.1 67.95 15.2 Q67.4 15.9 66.3 16.0 65.0 16.1 64.45 16.5 62.15 18.0 61.0 18.25" fill="#9ea4ad" fill-rule="evenodd" stroke="none"/>
    <path d="M20.8 -0.15 Q19.05 -2.15 16.95 -3.15 14.8 -4.2 12.3 -4.25 L12.25 -4.25 2.3 -4.25 -16.2 -4.25 Q-15.25 -3.8 -14.05 -2.85 L-13.8 -2.65 -11.75 -0.95 -9.85 0.7 M-9.6 0.9 L-7.25 2.45 -7.15 2.5 -6.9 2.65 -6.7 2.7 -6.65 2.75 -6.6 2.75 -6.45 2.8 -4.95 2.8 -2.35 2.8 1.05 2.8 1.2 2.8 23.1 2.8 21.55 0.85 20.8 -0.15 M21.55 -4.25 L20.15 -5.15 17.4 -6.35 Q14.25 -7.5 11.75 -7.5 8.85 -7.5 6.0 -6.35 4.75 -5.8 2.3 -4.25 M30.8 2.8 Q27.1 1.7 25.9 0.15 L25.8 0.05 24.3 -1.65 24.15 -1.8 23.0 -2.95 22.85 -3.1 22.25 -3.65 21.55 -4.25 39.2 -4.25 39.55 -4.15 Q42.25 -6.3 40.85 -10.55 L42.65 -6.55 43.55 -4.6 Q44.2 -3.25 45.2 -2.0 M46.15 0.0 Q44.5 1.65 43.6 3.55 L40.9 9.5 Q42.3 5.25 39.35 2.8 L38.2 2.8 34.1 5.2 29.35 5.85 Q26.45 5.85 24.5 4.3 L23.1 2.8 M46.6 -0.5 L46.55 -0.45 46.65 -0.5 M46.6 -0.5 L46.55 -0.55 45.2 -2.0 M46.55 -0.45 L46.15 0.0 M46.55 -0.55 L46.65 -0.5 M33.15 2.8 L38.2 2.8 M0.95 2.95 L1.2 2.8 M-79.7 2.8 Q-80.1 5.35 -83.85 5.35 -86.4 5.35 -87.3 3.6 L-88.2 1.0 Q-88.8 0.0 -90.45 -0.45 L-92.3 -0.8 -90.45 -1.15 Q-88.8 -1.6 -88.2 -2.55 L-87.3 -5.2 Q-86.4 -6.95 -83.85 -6.95 -80.0 -6.95 -79.65 -4.25 L-45.15 -4.25 -42.15 -5.15 -39.55 -6.0 Q-36.8 -6.9 -31.6 -7.2 L-22.7 -6.6 Q-19.55 -5.85 -17.1 -4.6 L-16.25 -4.25 -16.2 -4.25 M-79.7 -3.25 L-79.7 -0.2 -79.7 2.35 -79.65 2.35 -79.7 2.8 M-79.65 2.8 L-13.25 2.8 -13.3 2.75 Q-16.3 0.0 -19.2 -1.75 L-19.25 -1.8 M-21.3 -2.9 Q-24.0 -4.2 -26.25 -4.25 L-27.95 -4.25 M-31.2 -4.25 L-45.15 -4.25 M-79.7 -3.25 L-79.7 -3.95 -79.65 -3.95 -79.65 -4.25 M-20.5 -2.5 L-21.3 -2.9 M-20.4 -2.45 L-20.5 -2.5 M-20.4 -2.45 L-19.25 -1.8 M-1.0 4.05 L0.95 2.95 M-1.0 4.05 L-2.15 4.65 Q-4.35 5.6 -6.9 5.5 L-9.0 5.15 -11.05 4.3 Q-12.25 3.7 -13.25 2.8" fill="none" stroke="#000000" stroke-linecap="round" stroke-linejoin="round" stroke-opacity="0.4" stroke-width="0.05"/>
    <path d="M20.0 -1.4 L20.05 -1.6 20.3 -1.65 Q20.75 -1.65 22.05 -0.5 L23.4 0.9 23.1 0.9 21.65 -0.05 Q20.3 -1.0 20.0 -1.4 M30.05 5.15 Q25.7 4.3 25.7 2.25 L25.8 2.1 Q27.6 3.35 30.3 3.8 33.0 4.3 32.15 4.75 31.4 5.15 30.05 5.15 M17.7 1.55 L8.45 1.95 4.1 1.75 0.0 1.25 4.05 0.8 8.4 0.6 14.35 0.65 Q18.4 0.8 19.65 1.4 L19.65 1.7 Q19.8 1.85 19.4 1.85 L17.7 1.55 M-15.7 -0.5 L-15.45 -0.6 -12.3 1.45 -7.8 4.55 -7.8 4.6 -8.05 4.65 -9.5 4.4 Q-10.55 4.4 -12.95 2.35 L-15.75 -0.2 -15.7 -0.5 M-6.3 1.4 Q-6.3 0.7 -5.6 0.75 -2.2 0.75 -2.55 1.5 -2.95 2.25 -5.05 2.25 -6.3 2.45 -6.3 1.4 M-19.85 1.95 L-20.8 1.95 Q-21.45 1.9 -21.45 1.4 -21.45 0.3 -20.3 0.0 -17.5 0.0 -17.55 1.0 -17.65 1.95 -19.85 1.95 M-24.3 1.85 L-26.7 2.0 Q-27.9 2.0 -27.9 1.05 L-27.75 0.45 -27.15 0.45 -26.6 0.5 -23.9 -0.35 Q-23.05 -0.35 -22.8 0.6 -22.6 1.6 -24.3 1.85 M-32.9 1.3 Q-32.9 0.55 -31.8 0.3 L-30.5 0.5 Q-29.95 0.5 -29.8 1.1 -29.65 1.7 -30.45 1.85 L-32.0 1.95 Q-32.9 1.95 -32.9 1.3 M-38.85 1.95 L-39.3 1.65 -39.5 1.1 Q-39.5 0.25 -37.6 0.15 -36.15 0.15 -36.85 1.05 -37.55 1.95 -38.85 1.95 M-44.1 1.65 L-55.35 1.5 -59.1 1.4 -68.4 2.15 -74.0 1.8 -74.1 1.55 -62.8 0.4 -55.35 0.15 -54.3 0.15 -46.8 0.3 -42.8 0.45 -42.15 0.6 Q-41.3 0.8 -42.15 1.15 L-44.1 1.65 M-84.45 2.35 Q-84.45 1.05 -83.7 0.75 L-82.85 0.65 Q-81.0 0.65 -80.75 2.3 -80.55 3.95 -82.25 3.95 -84.45 3.95 -84.45 2.35" fill="#ffffff" fill-rule="evenodd" stroke="none"/>
    <path d="M61.1 18.7 Q59.55 19.3 57.1 19.3 L51.95 18.95 46.55 18.25 40.3 17.1 Q36.3 16.2 36.3 15.8 36.3 15.25 36.8 15.25 L41.9 15.85 47.35 17.3 49.9 18.25 52.3 18.3 58.1 18.05 Q60.25 18.05 62.3 17.1 64.35 16.1 65.2 16.1 65.6 16.1 65.8 16.35 L61.1 18.7" fill="#ffffff" fill-rule="evenodd" stroke="none"/>
  </g>
</svg>
