<?xml version="1.0" encoding="UTF-8" standalone="no"?>
<svg xmlns:xlink="http://www.w3.org/1999/xlink" height="22.9px" width="101.15px" xmlns="http://www.w3.org/2000/svg">
  <g transform="matrix(1.0, 0.0, 0.0, 1.0, 50.75, 12.75)">
    <path d="M-17.5 -9.25 L-17.6 -9.65 -17.55 -9.95 -17.55 -9.5 -17.5 -9.25" fill="#9ea4ad" fill-rule="evenodd" stroke="none"/>
    <path d="M-17.55 -10.0 Q-17.45 -11.35 -16.95 -12.0 -16.35 -12.75 -14.85 -12.75 L-14.55 -12.75 -13.0 -12.6 -12.4 -12.45 -10.75 -12.05 -7.85 -10.95 Q-5.15 -9.7 -4.45 -8.8 L-2.35 -9.05 -0.9 -8.75 Q0.0 -8.4 0.0 -7.7 0.0 -7.15 -1.1 -6.65 L-1.25 -6.55 -1.35 -7.0 Q-1.9 -8.0 -3.15 -8.0 L-3.85 -8.0 Q-4.45 -7.85 -4.55 -7.2 L-4.9 -7.4 Q-4.6 -7.6 -4.45 -7.75 L-5.1 -8.1 Q-7.1 -8.95 -9.3 -9.1 L-9.85 -9.15 -10.65 -10.0 Q-11.25 -10.35 -11.9 -10.35 L-12.4 -10.35 Q-12.75 -10.35 -12.85 -10.05 -13.95 -10.7 -15.35 -10.7 -16.8 -11.0 -16.8 -9.95 -16.8 -8.7 -15.5 -8.0 -17.05 -8.55 -17.45 -9.2 L-17.5 -9.25 -17.55 -9.5 -17.55 -9.95 -17.5 -10.0 -17.55 -10.0 M-5.1 -7.25 Q-5.75 -6.9 -6.6 -6.8 -6.5 -6.45 -7.35 -6.45 L-12.4 -7.15 -12.5 -7.2 -12.75 -7.25 Q-11.4 -7.3 -11.15 -7.75 -10.55 -7.2 -10.35 -7.2 L-9.8 -7.3 -9.75 -7.3 -8.25 -7.1 -5.1 -7.25 M-12.4 -10.3 L-12.4 -10.35 -12.4 -10.3 M-10.75 -12.05 Q-10.15 -11.3 -9.7 -10.25 L-9.3 -9.1 -9.7 -10.25 Q-10.15 -11.3 -10.75 -12.05 M-14.55 -12.75 Q-13.7 -12.15 -13.0 -11.2 L-12.4 -10.35 -13.0 -11.2 Q-13.7 -12.15 -14.55 -12.75 M-4.45 -7.75 L-4.2 -8.25 -4.45 -8.8 -4.2 -8.25 -4.45 -7.75" fill="#ffcc00" fill-rule="evenodd" stroke="none"/>
    <path d="M-1.25 -6.55 L-2.5 -6.2 Q-2.95 -6.2 -3.4 -6.55 L-4.55 -7.2 Q-4.45 -7.85 -3.85 -8.0 L-3.15 -8.0 Q-1.9 -8.0 -1.35 -7.0 L-1.25 -6.55 M-4.9 -7.4 L-5.1 -7.25 -8.25 -7.1 -9.75 -7.3 -9.8 -7.3 -10.35 -7.2 Q-10.55 -7.2 -11.15 -7.75 -11.4 -7.3 -12.75 -7.25 L-13.0 -7.3 -15.5 -8.0 Q-16.8 -8.7 -16.8 -9.95 -16.8 -11.0 -15.35 -10.7 -13.95 -10.7 -12.85 -10.05 -12.75 -10.35 -12.4 -10.35 L-11.9 -10.35 Q-11.25 -10.35 -10.65 -10.0 L-9.85 -9.15 -9.3 -9.1 -9.25 -8.25 -9.35 -7.7 -9.25 -8.25 -9.3 -9.1 Q-7.1 -8.95 -5.1 -8.1 L-4.45 -7.75 Q-4.6 -7.6 -4.9 -7.4 M-12.4 -10.35 L-12.4 -10.3 -12.4 -10.35 M-11.15 -7.75 L-11.5 -8.45 -12.4 -10.3 -11.5 -8.45 -11.15 -7.75" fill="#c7690e" fill-rule="evenodd" stroke="none"/>
    <path d="M-17.55 -10.0 Q-17.45 -11.35 -16.95 -12.0 -16.35 -12.75 -14.85 -12.75 L-14.55 -12.75 -13.0 -12.6 -12.4 -12.45 -10.75 -12.05 -7.85 -10.95 Q-5.15 -9.7 -4.45 -8.8 L-2.35 -9.05 -0.9 -8.75 Q0.0 -8.4 0.0 -7.7 0.0 -7.15 -1.1 -6.65 L-1.25 -6.55 -2.5 -6.2 Q-2.95 -6.2 -3.4 -6.55 L-4.55 -7.2 -4.9 -7.4 -5.1 -7.25 Q-5.75 -6.9 -6.6 -6.8 M-17.45 -9.2 L-17.5 -9.25 M-17.55 -9.95 L-17.55 -10.0 M-17.55 -9.95 L-17.55 -9.5 -17.5 -9.25 M-12.4 -10.3 L-12.4 -10.35 -13.0 -11.2 Q-13.7 -12.15 -14.55 -12.75 M-9.3 -9.1 L-9.7 -10.25 Q-10.15 -11.3 -10.75 -12.05 M-12.4 -10.3 L-11.5 -8.45 -11.15 -7.75 M-4.45 -8.8 L-4.2 -8.25 -4.45 -7.75 Q-4.6 -7.6 -4.9 -7.4 M-9.35 -7.7 L-9.25 -8.25 -9.3 -9.1" fill="none" stroke="#000000" stroke-linecap="round" stroke-linejoin="round" stroke-opacity="0.4" stroke-width="0.05"/>
    <path d="M10.25 -4.05 L18.1 -2.75 19.0 -1.55 21.6 2.15 20.85 2.2 20.25 2.2 15.05 1.65 14.35 0.8 10.25 -4.05 M48.45 -3.2 Q46.25 1.15 42.6 4.2 38.35 7.85 32.8 9.25 27.8 10.45 22.65 10.05 17.1 9.45 11.9 8.0 6.75 6.65 1.5 4.8 L-8.6 1.45 Q-14.35 -0.5 -19.85 -2.75 L-19.85 -3.0 -19.4 -5.55 -18.85 -5.0 -17.1 -3.6 -15.95 -3.85 -15.35 -4.05 -15.05 -4.1 -14.85 -4.15 -13.1 -3.3 -12.0 -2.8 Q-8.95 -1.5 -7.15 -1.5 L-6.95 -1.5 Q-6.1 -1.45 -5.2 -1.0 L-3.2 0.5 Q-1.25 2.45 0.85 2.45 L2.35 2.1 3.65 1.7 Q6.25 1.7 7.85 3.5 9.45 5.25 11.35 5.25 L13.5 4.9 16.05 4.5 17.35 4.65 16.3 3.25 16.95 3.3 17.4 3.3 20.25 3.15 22.1 2.9 22.15 3.0 24.75 6.65 26.9 6.1 28.75 5.65 35.6 5.65 Q37.05 5.55 37.95 4.45 38.75 3.45 39.8 3.05 45.15 1.4 48.45 -3.2 M-17.55 -9.3 L-13.0 -8.45 -12.4 -8.3 -0.85 -6.1 Q0.15 -4.75 -0.95 -4.75 L-2.35 -4.95 -2.65 -4.75 Q-2.9 -4.6 -3.05 -4.6 -3.3 -4.6 -5.0 -5.55 -5.0 -5.15 -5.25 -4.95 -5.4 -4.8 -5.55 -4.8 -6.15 -4.8 -9.45 -6.9 L-8.9 -6.45 Q-8.45 -6.15 -8.45 -5.75 -8.45 -5.35 -8.75 -5.2 L-9.1 -5.1 Q-9.45 -5.1 -9.8 -5.4 L-10.7 -6.05 -10.75 -6.05 -10.5 -5.85 Q-10.35 -5.7 -10.35 -5.4 L-10.35 -5.25 -12.6 -6.1 Q-16.75 -7.55 -18.3 -7.65 L-18.7 -8.3 -18.45 -8.85 -18.25 -9.3 -18.25 -9.45 -17.55 -9.3 M2.45 -5.5 L2.9 -5.4 3.3 -5.3 8.2 -4.4 10.15 -1.15 11.35 1.1 6.25 0.0 3.25 -4.35 2.45 -5.5" fill="#ccced5" fill-rule="evenodd" stroke="none"/>
    <path d="M-19.35 -5.95 L-19.25 -6.85 -19.1 -7.6 -18.5 -7.65 -18.3 -7.65 Q-16.75 -7.55 -12.6 -6.1 L-10.35 -5.25 -3.0 -2.65 Q1.75 -1.1 6.25 0.0 L11.35 1.1 15.05 1.65 20.25 2.2 20.85 2.2 27.0 2.1 26.5 2.3 22.1 2.9 20.25 3.15 17.4 3.3 16.95 3.3 16.3 3.25 13.25 2.85 8.65 2.4 -5.2 -1.0 Q-6.1 -1.45 -6.95 -1.5 L-13.1 -3.3 -14.85 -4.15 -15.05 -4.1 -15.35 -4.05 Q-18.4 -5.15 -19.35 -5.95" fill="#9ea4ad" fill-rule="evenodd" stroke="none"/>
    <path d="M8.2 -4.4 L10.25 -4.05 14.35 0.8 15.05 1.65 11.35 1.1 10.15 -1.15 8.2 -4.4 M18.1 -2.75 L20.25 -2.5 Q32.5 -1.2 38.55 -11.7 L38.85 -12.5 Q40.75 -5.65 36.65 -0.25 44.85 -1.4 50.4 -7.2 L48.45 -3.2 Q45.15 1.4 39.8 3.05 38.75 3.45 37.95 4.45 37.05 5.55 35.6 5.65 L28.75 5.65 26.9 6.1 24.75 6.65 22.15 3.0 22.1 2.9 26.5 2.3 27.0 2.1 20.85 2.2 21.6 2.15 19.0 -1.55 18.1 -2.75 M-19.4 -5.55 L-19.35 -5.95 Q-18.4 -5.15 -15.35 -4.05 L-15.95 -3.85 -17.1 -3.6 -18.85 -5.0 -19.4 -5.55 M-19.25 -6.85 L-18.95 -9.6 -17.55 -9.3 -18.25 -9.45 -18.25 -9.3 -18.45 -8.85 -18.7 -8.3 -18.3 -7.65 -18.5 -7.65 -19.1 -7.6 -19.25 -6.85 M-0.85 -6.1 L2.45 -5.5 3.25 -4.35 6.25 0.0 Q1.75 -1.1 -3.0 -2.65 L-10.35 -5.25 -10.35 -5.4 Q-10.35 -5.7 -10.5 -5.85 L-10.75 -6.05 -10.7 -6.05 -9.8 -5.4 Q-9.45 -5.1 -9.1 -5.1 L-8.75 -5.2 Q-8.45 -5.35 -8.45 -5.75 -8.45 -6.15 -8.9 -6.45 L-9.45 -6.9 Q-6.15 -4.8 -5.55 -4.8 -5.4 -4.8 -5.25 -4.95 -5.0 -5.15 -5.0 -5.55 -3.3 -4.6 -3.05 -4.6 -2.9 -4.6 -2.65 -4.75 L-2.35 -4.95 -0.95 -4.75 Q0.15 -4.75 -0.85 -6.1 M16.3 3.25 L17.35 4.65 16.05 4.5 13.5 4.9 11.35 5.25 Q9.45 5.25 7.85 3.5 6.25 1.7 3.65 1.7 L2.35 2.1 0.85 2.45 Q-1.25 2.45 -3.2 0.5 L-5.2 -1.0 8.65 2.4 13.25 2.85 16.3 3.25 M-6.95 -1.5 L-7.15 -1.5 Q-8.95 -1.5 -12.0 -2.8 L-13.1 -3.3 -6.95 -1.5" fill="#ffffff" fill-rule="evenodd" stroke="none"/>
    <path d="M8.2 -4.4 L10.25 -4.05 18.1 -2.75 20.25 -2.5 Q32.5 -1.2 38.55 -11.7 L38.85 -12.5 Q40.75 -5.65 36.65 -0.25 44.85 -1.4 50.4 -7.2 L48.45 -3.2 Q46.25 1.15 42.6 4.2 38.35 7.85 32.8 9.25 27.8 10.45 22.65 10.05 17.1 9.45 11.9 8.0 6.75 6.65 1.5 4.8 L-8.6 1.45 Q-14.35 -0.5 -19.85 -2.75 L-19.85 -3.0 -19.4 -5.55 -19.35 -5.95 -19.25 -6.85 -18.95 -9.6 -17.55 -9.3 -13.0 -8.45 -12.4 -8.3 -0.85 -6.1 2.45 -5.5 2.9 -5.4 3.3 -5.3 8.2 -4.4 Z" fill="none" stroke="#000000" stroke-linecap="round" stroke-linejoin="round" stroke-opacity="0.4" stroke-width="0.05"/>
    <path d="M-49.55 -1.65 Q-50.75 -3.8 -50.75 -6.3 -50.75 -10.35 -48.6 -10.85 L-40.5 -11.1 -32.8 -11.75 -23.1 -12.3 Q-20.5 -12.3 -18.95 -11.7 -17.1 -10.95 -17.1 -9.45 -17.1 -7.95 -17.7 -5.45 -18.3 -3.05 -19.0 -1.7 L-19.1 -1.3 -19.75 0.3 Q-20.35 1.55 -21.25 2.05 -22.2 2.55 -23.7 0.2 -25.2 -2.15 -26.0 -2.25 -28.0 -2.55 -31.7 -2.25 L-40.2 -1.95 Q-40.75 -1.9 -43.15 -0.55 -45.5 0.75 -46.35 0.75 -48.25 0.75 -49.55 -1.65 M-21.25 -11.25 L-21.8 -11.1 Q-22.35 -10.7 -22.35 -9.5 -22.35 -8.75 -21.45 -8.35 L-20.3 -8.1 -20.3 -6.45 -21.0 -2.6 -20.85 -2.3 -20.7 -2.15 Q-17.9 -5.45 -18.55 -8.5 -19.1 -11.25 -21.25 -11.25 M-38.0 -7.5 L-34.05 -8.4 Q-30.7 -9.25 -29.25 -9.8 L-32.85 -10.55 -36.85 -9.9 -39.4 -9.3 Q-41.55 -9.9 -41.55 -8.75 -41.55 -7.95 -39.9 -7.65 L-38.0 -7.5 M-47.5 -7.95 L-46.8 -8.25 Q-45.55 -8.25 -45.8 -9.0 -46.05 -9.75 -47.4 -9.75 -48.95 -9.75 -48.95 -8.55 -48.95 -7.65 -48.2 -7.65 L-47.5 -7.95" fill="#512115" fill-rule="evenodd" stroke="none"/>
    <path d="M-47.5 -7.95 L-48.2 -7.65 Q-48.95 -7.65 -48.95 -8.55 -48.95 -9.75 -47.4 -9.75 -46.05 -9.75 -45.8 -9.0 -45.55 -8.25 -46.8 -8.25 L-47.5 -7.95 M-38.0 -7.5 L-39.9 -7.65 Q-41.55 -7.95 -41.55 -8.75 -41.55 -9.9 -39.4 -9.3 L-36.85 -9.9 -32.85 -10.55 -29.25 -9.8 Q-30.7 -9.25 -34.05 -8.4 L-38.0 -7.5 M-21.25 -11.25 Q-19.1 -11.25 -18.55 -8.5 -17.9 -5.45 -20.7 -2.15 L-20.85 -2.3 -21.0 -2.6 -20.3 -6.45 -20.3 -8.1 -21.45 -8.35 Q-22.35 -8.75 -22.35 -9.5 -22.35 -10.7 -21.8 -11.1 L-21.25 -11.25" fill="#6b2c1d" fill-rule="evenodd" stroke="none"/>
    <path d="M-49.55 -1.65 Q-48.25 0.75 -46.35 0.75 -45.5 0.75 -43.15 -0.55 -40.75 -1.9 -40.2 -1.95 L-31.7 -2.25 Q-28.0 -2.55 -26.0 -2.25 -25.2 -2.15 -23.7 0.2 -22.2 2.55 -21.25 2.05 -20.35 1.55 -19.75 0.3 L-19.1 -1.3 -19.0 -1.7 Q-18.3 -3.05 -17.7 -5.45 -17.1 -7.95 -17.1 -9.45 -17.1 -10.95 -18.95 -11.7 -20.5 -12.3 -23.1 -12.3 L-32.8 -11.75 -40.5 -11.1 -48.6 -10.85 Q-50.75 -10.35 -50.75 -6.3 -50.75 -3.8 -49.55 -1.65 Z" fill="none" stroke="#000000" stroke-linecap="round" stroke-linejoin="round" stroke-opacity="0.4" stroke-width="0.05"/>
    <path d="M-46.15 -4.05 L-46.3 -4.15 Q-47.1 -4.65 -47.1 -5.55 L-46.65 -6.75 Q-46.0 -7.5 -44.85 -7.5 -43.2 -7.5 -43.2 -6.65 -43.2 -5.0 -43.35 -4.6 -43.7 -3.8 -45.1 -3.8 L-45.95 -3.95 -45.8 -3.9 -45.65 -3.9 Q-44.7 -3.9 -44.65 -5.15 -44.55 -6.45 -45.65 -6.45 -46.65 -6.45 -46.65 -5.1 -46.65 -4.6 -46.3 -4.2 L-46.15 -4.05 M-27.3 -6.45 L-27.45 -6.95 Q-27.45 -7.7 -26.8 -8.35 -26.0 -9.15 -24.8 -9.15 -24.55 -9.15 -23.95 -8.7 L-23.5 -8.4 -23.3 -8.25 -23.25 -7.95 Q-23.2 -6.95 -23.65 -6.2 -24.15 -5.4 -24.8 -5.4 L-26.25 -5.75 -26.15 -5.75 Q-24.7 -5.75 -24.35 -7.0 -23.95 -8.25 -25.25 -8.25 L-26.25 -7.95 Q-27.3 -7.45 -27.3 -6.6 L-27.3 -6.45" fill="#ffcc00" fill-rule="evenodd" stroke="none"/>
    <path d="M-46.15 -4.05 L-46.3 -4.2 Q-46.65 -4.6 -46.65 -5.1 -46.65 -6.45 -45.65 -6.45 -44.55 -6.45 -44.65 -5.15 -44.7 -3.9 -45.65 -3.9 L-45.8 -3.9 -45.95 -3.95 -46.1 -4.0 -46.15 -4.05 M-27.3 -6.45 L-27.3 -6.6 Q-27.3 -7.45 -26.25 -7.95 L-25.25 -8.25 Q-23.95 -8.25 -24.35 -7.0 -24.7 -5.75 -26.15 -5.75 L-26.25 -5.75 -27.3 -6.45" fill="#c7690e" fill-rule="evenodd" stroke="none"/>
    <path d="M-45.95 -3.95 L-45.1 -3.8 Q-43.7 -3.8 -43.35 -4.6 -43.2 -5.0 -43.2 -6.65 -43.2 -7.5 -44.85 -7.5 -46.0 -7.5 -46.65 -6.75 L-47.1 -5.55 Q-47.1 -4.65 -46.3 -4.15 L-46.15 -4.05 M-45.95 -3.95 L-46.1 -4.0 -46.15 -4.05 M-26.25 -5.75 L-24.8 -5.4 Q-24.15 -5.4 -23.65 -6.2 -23.2 -6.95 -23.25 -7.95 L-23.3 -8.25 -23.5 -8.4 -23.95 -8.7 Q-24.55 -9.15 -24.8 -9.15 -26.0 -9.15 -26.8 -8.35 -27.45 -7.7 -27.45 -6.95 L-27.3 -6.45 M-26.25 -5.75 L-27.3 -6.45" fill="none" stroke="#000000" stroke-linecap="round" stroke-linejoin="round" stroke-opacity="0.4" stroke-width="0.05"/>
    <path d="M-45.0 -5.4 L-45.3 -5.9 Q-45.3 -6.8 -44.65 -6.8 -43.85 -6.8 -43.95 -6.0 -44.0 -5.25 -44.55 -5.25 L-45.0 -5.4 M-25.3 -7.15 L-25.6 -7.7 Q-25.6 -8.45 -24.9 -8.45 -24.15 -8.45 -24.15 -7.7 -24.15 -7.0 -24.9 -7.0 L-25.3 -7.15 M-15.0 -10.5 L-15.7 -10.8 -16.2 -11.45 -15.95 -12.0 -15.5 -12.0 Q-14.9 -12.0 -14.4 -11.25 -13.85 -10.5 -15.0 -10.5 M-10.7 -10.55 L-10.75 -10.3 -11.0 -10.25 -12.05 -11.0 -12.05 -11.4 -11.75 -11.55 Q-11.6 -11.55 -11.2 -11.15 L-10.7 -10.55 M-2.9 -7.85 Q-2.9 -8.55 -2.1 -8.45 -1.45 -8.45 -1.45 -7.8 -1.45 -7.2 -2.1 -7.2 -2.9 -7.2 -2.9 -7.85 M-6.15 -9.3 L-7.1 -8.85 -8.1 -9.15 Q-8.85 -9.45 -8.85 -9.8 -8.85 -10.75 -8.1 -10.5 -7.25 -10.5 -6.15 -9.3" fill="#ffffff" fill-rule="evenodd" stroke="none"/>
  </g>
</svg>
