<?xml version="1.0" encoding="UTF-8" standalone="no"?>
<svg xmlns:xlink="http://www.w3.org/1999/xlink" height="89.95px" width="16.35px" xmlns="http://www.w3.org/2000/svg">
  <g transform="matrix(1.0, 0.0, 0.0, 1.0, 55.95, 32.7)">
    <path d="M-44.6 -32.7 L-40.15 -23.8 Q-39.6 -22.25 -39.6 -18.15 L-40.25 -13.55 -41.35 -7.15 -41.7 -4.45 -42.2 -1.6 Q-42.6 0.1 -43.9 3.85 -44.6 6.4 -47.55 14.8 L-49.7 21.45 Q-51.15 25.65 -51.65 25.65 -52.1 25.65 -52.1 25.1 L-51.8 23.85 -51.55 22.4 -51.3 19.75 -50.45 18.45 Q-49.85 17.5 -49.95 17.1 -50.1 15.75 -49.35 14.55 -48.75 13.65 -48.05 12.0 L-46.9 9.35 Q-46.65 8.85 -46.7 8.0 L-46.65 6.7 -45.9 5.15 Q-45.4 4.45 -45.4 4.15 -45.4 3.95 -45.75 3.55 L-46.15 2.8 Q-46.15 2.2 -45.2 1.0 L-43.95 -0.7 -43.35 -2.5 Q-43.05 -3.2 -43.05 -4.1 L-43.35 -6.4 Q-43.35 -7.8 -42.95 -8.9 -42.5 -10.0 -42.5 -12.05 L-41.95 -15.25 -41.45 -17.55 -41.6 -18.1 -41.75 -18.95 -41.55 -19.8 -41.4 -20.7 -41.75 -22.75 -41.4 -26.3 Q-41.45 -26.1 -41.6 -26.2 L-41.5 -25.75 -41.75 -23.65 -42.5 -26.4 -42.25 -27.15 -41.95 -26.65 -43.15 -29.0 -44.65 -32.6 -44.6 -32.7 M-44.9 2.65 L-44.75 2.7 -44.7 2.4 -44.85 2.5 -44.9 2.65 M-52.35 30.15 L-51.55 30.2 Q-50.4 30.2 -49.75 29.5 -49.25 28.95 -49.2 28.3 L-48.7 28.2 -48.25 28.55 Q-48.0 28.9 -48.0 29.2 -48.0 30.0 -49.35 30.95 L-52.0 32.85 -52.25 34.65 Q-52.4 35.35 -52.85 35.9 L-53.45 36.45 -52.7 38.4 -52.7 39.5 -52.8 39.6 Q-53.15 39.4 -53.1 38.85 -53.1 38.2 -53.4 37.9 -54.1 36.95 -54.1 36.3 L-54.1 36.25 -53.65 35.65 Q-53.2 35.1 -53.2 34.0 L-53.1 32.9 Q-53.0 32.15 -52.25 31.75 -52.5 31.35 -53.35 31.15 L-54.5 30.75 -55.35 30.1 -55.95 29.45 -55.65 29.35 -52.35 30.15 M-52.45 40.75 Q-51.95 41.3 -51.95 42.0 L-52.25 42.85 -52.3 42.95 -52.6 43.7 -52.5 44.15 -52.3 44.6 -52.3 44.7 -52.5 45.35 -52.8 46.1 -52.85 45.65 -52.8 45.3 -52.95 44.8 -53.15 44.35 Q-53.55 43.55 -53.55 42.95 L-53.3 42.5 -53.05 41.95 -53.25 40.95 Q-53.25 40.05 -52.6 40.6 L-52.45 40.75 M-52.45 47.9 Q-51.95 47.95 -50.8 49.8 -49.05 52.8 -49.05 53.7 -49.05 55.0 -49.75 55.65 -49.85 56.0 -50.7 56.55 -51.65 57.15 -52.45 57.15 L-53.1 57.0 -53.55 56.8 -51.3 55.9 -50.65 55.4 -50.35 55.2 -50.3 55.2 -49.9 54.25 -50.6 52.8 -51.5 51.3 -52.2 49.75 -52.2 49.7 -52.4 49.3 -52.75 48.65 -52.9 48.45 Q-52.8 47.8 -52.45 47.9" fill="#ffd633" fill-rule="evenodd" stroke="none"/>
    <path d="M-48.7 28.2 L-49.2 28.3 Q-49.25 28.95 -49.75 29.5 -50.4 30.2 -51.55 30.2 L-52.35 30.15 -52.15 29.95 Q-51.25 29.25 -51.25 28.85 -51.25 28.2 -51.9 27.9 L-52.6 27.25 Q-52.6 26.25 -50.55 27.05 -49.15 27.6 -48.7 28.2 M-54.1 36.3 Q-54.1 36.95 -53.4 37.9 -53.1 38.2 -53.1 38.85 -53.15 39.4 -52.8 39.6 L-52.7 39.5 -52.7 38.4 -53.45 36.45 -52.85 35.9 Q-52.3 36.9 -52.3 38.6 L-52.35 39.45 -52.55 40.0 -52.45 40.75 -52.6 40.6 Q-53.25 40.05 -53.25 40.95 L-53.05 41.95 -53.3 42.5 -53.55 42.95 Q-53.55 43.55 -53.15 44.35 L-52.95 44.8 -52.8 45.3 -52.85 45.65 -52.8 46.1 -52.5 45.35 -52.3 44.7 Q-52.05 45.3 -52.05 46.25 L-52.1 46.7 -52.4 47.1 -52.4 47.35 -52.45 47.9 Q-52.8 47.8 -52.9 48.45 L-52.75 48.65 -52.75 48.7 -52.55 48.95 -52.4 49.3 -52.2 49.7 -52.2 49.75 -51.5 51.3 -50.6 52.8 -49.9 54.25 -50.65 55.4 -51.3 55.9 -53.55 56.8 -53.1 57.0 -53.0 57.05 -54.45 57.25 Q-56.15 57.25 -55.95 56.75 -55.95 56.35 -54.4 56.0 -52.6 55.6 -52.05 54.8 L-51.35 52.75 Q-51.35 51.85 -52.6 50.6 -53.9 49.35 -53.9 48.7 L-53.7 47.9 -53.55 47.25 -54.1 46.6 Q-54.7 45.95 -54.7 45.45 -54.7 44.8 -54.35 44.35 -54.05 43.85 -54.05 43.4 L-54.4 42.5 -54.8 41.3 -54.5 40.2 Q-54.2 39.7 -54.2 39.25 L-54.4 37.05 Q-54.4 36.55 -54.1 36.3 M-52.3 42.95 Q-52.3 43.75 -52.45 44.0 L-52.5 44.15 -52.6 43.7 -52.3 42.95" fill="#ffd633" fill-opacity="0.4" fill-rule="evenodd" stroke="none"/>
  </g>
</svg>
