<?xml version="1.0" encoding="UTF-8" standalone="no"?>
<svg xmlns:xlink="http://www.w3.org/1999/xlink" height="22.5px" width="122.05px" xmlns="http://www.w3.org/2000/svg">
  <g transform="matrix(1.0, 0.0, 0.0, 1.0, 61.85, 11.45)">
    <path d="M-31.85 -1.45 L-24.85 -1.45 -24.65 -1.45 -24.05 -1.5 Q-14.65 -1.5 5.6 -1.95 L30.6 -2.7 4.8 -3.35 -24.05 -3.65 -24.85 -3.65 -31.85 -3.65 -31.85 -7.2 40.55 -7.1 46.05 -4.55 52.85 -0.9 55.95 0.75 -24.65 0.2 -31.85 0.2 -31.85 -1.45 M-4.8 5.8 L-3.95 5.85 -0.3 5.25 2.85 4.65 12.55 5.4 20.2 4.5 25.2 5.2 27.7 5.65 27.65 5.7 Q26.35 5.7 25.45 6.35 L23.85 7.95 23.3 7.95 21.25 7.2 18.0 6.6 16.6 6.7 15.5 7.8 Q15.45 7.0 14.05 6.35 12.65 5.7 11.05 5.7 9.25 5.7 8.35 6.75 L7.75 7.95 7.3 7.95 5.2 7.15 2.85 6.9 0.75 7.0 Q0.0 7.15 -0.45 7.95 L-3.1 6.55 Q-3.95 6.0 -4.8 5.8 M28.15 5.75 L28.2 5.7 29.9 5.85 33.55 5.5 36.95 5.1 39.15 5.35 41.4 5.55 44.1 5.35 46.6 5.1 Q49.75 5.1 51.15 5.95 52.6 6.75 53.9 6.75 L55.6 6.55 54.55 7.95 51.0 7.95 Q50.4 7.4 49.55 7.05 L47.75 6.6 Q47.3 6.6 46.55 7.2 L45.9 7.8 Q44.45 6.7 43.9 6.55 L42.3 6.45 Q40.85 6.45 40.25 6.8 40.05 6.9 38.9 7.95 L38.85 7.95 36.7 7.3 Q35.3 6.6 34.6 6.6 33.55 6.6 32.85 6.95 32.65 7.0 31.5 7.8 L30.05 6.35 Q29.25 5.8 28.15 5.75 M-5.85 5.7 Q-7.15 5.75 -8.1 6.55 L-9.3 7.35 -10.4 6.75 Q-11.45 6.15 -12.45 6.15 -13.95 6.15 -14.85 6.9 L-15.9 7.65 -17.65 7.05 -20.0 6.45 Q-21.05 6.45 -21.6 6.9 L-23.1 7.95 -31.85 7.95 -31.85 5.3 -27.3 5.15 -24.85 5.1 -24.65 5.1 -24.65 5.05 -17.6 4.5 -9.65 5.2 -5.85 5.7" fill="#ccced5" fill-rule="evenodd" stroke="none"/>
    <path d="M-31.85 -3.65 L-24.85 -3.65 -24.05 -3.65 4.8 -3.35 30.6 -2.7 5.6 -1.95 Q-14.65 -1.5 -24.05 -1.5 L-24.65 -1.45 -24.85 -1.45 -31.85 -1.45 -31.85 -3.65 M55.95 0.75 L52.85 -0.9 46.05 -4.55 40.55 -7.1 44.8 -7.1 60.2 0.25 59.85 0.75 55.95 0.75 M27.65 5.7 L27.7 5.65 27.65 5.7" fill="#ffffff" fill-rule="evenodd" stroke="none"/>
    <path d="M-31.85 0.2 L-24.65 0.2 55.95 0.75 59.85 0.75 55.6 6.55 53.9 6.75 Q52.6 6.75 51.15 5.95 49.75 5.1 46.6 5.1 L44.1 5.35 41.4 5.55 39.15 5.35 36.95 5.1 33.55 5.5 29.9 5.85 28.2 5.7 28.15 5.75 27.65 5.7 27.7 5.65 25.2 5.2 20.2 4.5 12.55 5.4 2.85 4.65 -0.3 5.25 -3.95 5.85 -4.8 5.8 -5.8 5.7 -5.85 5.7 -9.65 5.2 -17.6 4.5 -24.65 5.05 -24.65 5.1 -24.85 5.1 -27.3 5.15 -31.85 5.3 -31.85 0.2" fill="#9ea4ad" fill-rule="evenodd" stroke="none"/>
    <path d="M40.55 -7.1 L-31.85 -7.2 M59.85 0.75 L60.2 0.25 44.8 -7.1 40.55 -7.1 M-4.8 5.8 Q-3.95 6.0 -3.1 6.55 L-0.45 7.95 Q0.0 7.15 0.75 7.0 L2.85 6.9 5.2 7.15 7.3 7.95 7.75 7.95 8.35 6.75 Q9.25 5.7 11.05 5.7 12.65 5.7 14.05 6.35 15.45 7.0 15.5 7.8 L16.6 6.7 18.0 6.6 21.25 7.2 23.3 7.95 23.85 7.95 25.45 6.35 Q26.35 5.7 27.65 5.7 L28.15 5.75 Q29.25 5.8 30.05 6.35 L31.5 7.8 Q32.65 7.0 32.85 6.95 33.55 6.6 34.6 6.6 35.3 6.6 36.7 7.3 L38.85 7.95 38.9 7.95 Q40.05 6.9 40.25 6.8 40.85 6.45 42.3 6.45 L43.9 6.55 Q44.45 6.7 45.9 7.8 L46.55 7.2 Q47.3 6.6 47.75 6.6 L49.55 7.05 Q50.4 7.4 51.0 7.95 L54.55 7.95 55.6 6.55 59.85 0.75 M-4.8 5.8 L-5.8 5.7 -5.85 5.7 Q-7.15 5.75 -8.1 6.55 L-9.3 7.35 -10.4 6.75 Q-11.45 6.15 -12.45 6.15 -13.95 6.15 -14.85 6.9 L-15.9 7.65 -17.65 7.05 -20.0 6.45 Q-21.05 6.45 -21.6 6.9 L-23.1 7.95 -31.85 7.95 M23.85 7.95 L23.7 8.1 23.3 7.95 M7.75 7.95 L7.65 8.1 7.3 7.95" fill="none" stroke="#000000" stroke-linecap="round" stroke-linejoin="round" stroke-opacity="0.4" stroke-width="0.05"/>
    <path d="M-37.15 -3.65 L-37.15 3.65 -37.15 6.45 -58.5 5.4 -58.5 3.05 -42.6 3.5 -37.15 3.65 -42.6 3.5 -40.35 -3.55 -37.15 -3.65" fill="#62321e" fill-rule="evenodd" stroke="none"/>
    <path d="M-39.45 -6.3 L-37.15 -6.45 -37.15 -3.65 -40.35 -3.55 -39.45 -6.3 M-58.5 3.05 L-58.5 -3.05 -40.35 -3.55 -42.6 3.5 -58.5 3.05" fill="#753c24" fill-rule="evenodd" stroke="none"/>
    <path d="M-58.5 -3.05 L-58.5 -5.4 -39.45 -6.3 -40.35 -3.55 -58.5 -3.05" fill="#a35332" fill-rule="evenodd" stroke="none"/>
    <path d="M-58.5 -3.05 L-58.5 -5.4 -39.45 -6.3 -37.15 -6.45 -37.15 -3.65 -37.15 3.65 -37.15 6.45 -58.5 5.4 -58.5 3.05 -58.5 -3.05 -40.35 -3.55 -37.15 -3.65 M-42.6 3.5 L-58.5 3.05 M-37.15 3.65 L-42.6 3.5" fill="none" stroke="#000000" stroke-linecap="round" stroke-linejoin="round" stroke-opacity="0.4" stroke-width="0.05"/>
    <path d="M-30.1 -10.25 L-30.1 9.9 -34.25 9.9 -34.25 -10.25 -30.1 -10.25" fill="#62321e" fill-rule="evenodd" stroke="none"/>
    <path d="M-30.1 -10.25 L-30.1 9.9 -34.25 9.9 -34.25 -10.25 -30.1 -10.25 Z" fill="none" stroke="#000000" stroke-linecap="round" stroke-linejoin="round" stroke-opacity="0.4" stroke-width="0.05"/>
    <path d="M-57.7 -7.15 L-57.7 8.9 -61.85 8.9 -61.85 -7.15 -57.7 -7.15 M-60.45 -2.9 Q-60.45 -2.25 -59.8 -2.25 -59.2 -2.25 -59.15 -2.9 -59.1 -3.55 -59.75 -3.55 -60.45 -3.55 -60.45 -2.9 M-33.7 -11.45 L-33.7 11.05 -37.85 11.05 -37.85 -11.45 -33.7 -11.45 M-29.95 -7.8 L-29.6 -7.65 Q-28.95 -7.65 -28.95 -8.3 -28.95 -8.95 -29.6 -8.95 -30.25 -8.9 -30.25 -8.3 L-29.95 -7.8 M-36.4 -8.2 Q-36.4 -7.55 -35.75 -7.55 -35.1 -7.55 -35.1 -8.2 -35.1 -8.85 -35.7 -8.85 -36.4 -8.85 -36.4 -8.2 M-35.15 -0.05 Q-35.05 -0.7 -35.9 -0.7 -36.55 -0.65 -36.55 0.0 L-36.3 0.45 -35.9 0.6 Q-35.3 0.6 -35.15 -0.05 M-27.7 -11.45 L-27.7 11.05 -31.85 11.05 -31.85 -11.45 -27.7 -11.45 M-60.45 3.25 Q-60.45 3.9 -59.8 3.9 -59.25 3.9 -59.2 3.25 -59.15 2.6 -59.75 2.6 -60.45 2.6 -60.45 3.25 M-36.4 7.55 Q-36.4 8.2 -35.7 8.2 -35.1 8.2 -35.1 7.55 -35.1 6.9 -35.7 6.9 -36.4 6.9 -36.4 7.55 M-30.35 7.85 Q-30.35 8.5 -29.7 8.5 -29.05 8.5 -29.05 7.85 -29.05 7.2 -29.65 7.2 -30.35 7.2 -30.35 7.85 M-30.0 0.45 L-29.55 0.65 Q-29.05 0.65 -29.0 0.05 -28.95 -0.6 -29.6 -0.6 -30.2 -0.65 -30.2 0.05 L-30.0 0.45" fill="#bd614a" fill-rule="evenodd" stroke="none"/>
    <path d="M-60.45 -2.9 Q-60.45 -3.55 -59.75 -3.55 -59.1 -3.55 -59.15 -2.9 -59.2 -2.25 -59.8 -2.25 -60.45 -2.25 -60.45 -2.9 M-35.15 -0.05 Q-35.3 0.6 -35.9 0.6 L-36.3 0.45 -36.55 0.0 Q-36.55 -0.65 -35.9 -0.7 -35.05 -0.7 -35.15 -0.05 M-36.4 -8.2 Q-36.4 -8.85 -35.7 -8.85 -35.1 -8.85 -35.1 -8.2 -35.1 -7.55 -35.75 -7.55 -36.4 -7.55 -36.4 -8.2 M-29.95 -7.8 L-30.25 -8.3 Q-30.25 -8.9 -29.6 -8.95 -28.95 -8.95 -28.95 -8.3 -28.95 -7.65 -29.6 -7.65 L-29.95 -7.8 M-30.0 0.45 L-30.2 0.05 Q-30.2 -0.65 -29.6 -0.6 -28.95 -0.6 -29.0 0.05 -29.05 0.65 -29.55 0.65 L-30.0 0.45 M-30.35 7.85 Q-30.35 7.2 -29.65 7.2 -29.05 7.2 -29.05 7.85 -29.05 8.5 -29.7 8.5 -30.35 8.5 -30.35 7.85 M-36.4 7.55 Q-36.4 6.9 -35.7 6.9 -35.1 6.9 -35.1 7.55 -35.1 8.2 -35.7 8.2 -36.4 8.2 -36.4 7.55 M-60.45 3.25 Q-60.45 2.6 -59.75 2.6 -59.15 2.6 -59.2 3.25 -59.25 3.9 -59.8 3.9 -60.45 3.9 -60.45 3.25" fill="#62321e" fill-rule="evenodd" stroke="none"/>
    <path d="M-57.7 -7.15 L-57.7 8.9 -61.85 8.9 -61.85 -7.15 -57.7 -7.15 M-33.7 -11.45 L-33.7 11.05 -37.85 11.05 -37.85 -11.45 -33.7 -11.45 M-27.7 -11.45 L-27.7 11.05 -31.85 11.05 -31.85 -11.45 -27.7 -11.45" fill="none" stroke="#000000" stroke-linecap="round" stroke-linejoin="round" stroke-opacity="0.4" stroke-width="0.05"/>
  </g>
</svg>
