<?xml version="1.0" encoding="UTF-8" standalone="no"?>
<svg xmlns:xlink="http://www.w3.org/1999/xlink" height="112.05px" width="6.9px" xmlns="http://www.w3.org/2000/svg">
  <g transform="matrix(1.0, 0.0, 0.0, 1.0, 114.4, 31.15)">
    <path d="M-112.0 -28.7 Q-112.5 -26.75 -112.7 -26.75 -113.9 -26.75 -113.7 -28.2 L-113.2 -29.85 Q-112.6 -31.1 -111.65 -31.1 -111.55 -31.3 -111.55 -30.8 L-112.0 -28.7 M-111.85 -25.25 L-112.0 -24.0 Q-112.25 -22.8 -112.8 -22.5 L-113.05 -22.6 -113.2 -23.05 Q-112.9 -25.3 -112.15 -25.7 L-111.9 -25.6 -111.85 -25.25 M-111.45 -17.75 L-111.9 -14.65 -111.65 -13.85 -111.4 -13.05 -111.5 -12.7 -111.55 -12.6 -111.95 -12.5 Q-112.9 -12.5 -113.15 -13.6 L-113.2 -14.75 Q-113.2 -15.7 -112.3 -17.45 -111.45 -19.2 -111.45 -17.75 M-112.95 -4.0 Q-112.95 -5.3 -112.3 -5.25 L-111.35 -3.45 Q-111.2 -3.1 -111.2 -2.25 -111.2 -1.7 -111.55 -0.15 -112.05 1.95 -112.7 2.5 L-113.15 1.65 -113.45 0.7 -113.2 -1.25 Q-112.95 -2.45 -112.95 -4.0 M-111.4 12.9 Q-111.4 14.85 -111.95 15.4 -112.45 14.95 -112.5 14.0 L-112.5 13.2 Q-112.35 12.55 -111.5 12.45 L-111.4 12.9 M-112.15 19.35 L-111.65 20.7 Q-111.15 21.5 -111.15 21.8 L-111.2 22.25 -111.25 22.35 -111.65 22.45 Q-112.4 22.45 -112.9 20.65 L-112.65 19.7 -112.1 18.9 -112.15 19.35 M-113.2 29.25 L-113.1 28.95 Q-111.8 28.55 -111.8 30.25 -111.8 31.1 -112.4 31.25 L-112.85 30.3 -113.2 29.25 M-111.65 36.8 L-111.7 37.45 -111.75 37.55 -112.15 37.65 Q-112.5 37.65 -112.9 36.35 L-112.6 34.9 -112.5 34.9 -112.05 35.75 -111.65 36.8 M-112.7 41.25 L-112.65 40.8 -112.6 40.75 Q-111.2 41.75 -110.9 42.8 L-110.8 44.7 Q-110.8 46.5 -111.2 47.1 -111.9 46.6 -112.35 44.4 L-112.7 41.25 M-108.35 47.6 Q-107.65 48.05 -107.55 48.4 L-107.5 49.35 -107.5 50.1 Q-107.6 50.75 -108.05 50.75 -108.5 50.75 -108.6 49.05 L-108.35 47.6 M-107.95 57.15 Q-108.5 57.15 -108.35 55.9 -108.35 53.55 -107.95 53.4 -107.55 53.3 -107.55 55.85 -107.55 57.15 -107.95 57.15 M-112.7 60.05 Q-112.7 64.5 -112.95 67.5 L-113.2 73.4 -113.5 75.4 -113.95 77.15 Q-114.4 76.45 -114.4 74.35 L-114.05 66.3 -113.9 61.6 Q-113.75 58.45 -113.2 58.45 -112.85 58.45 -112.75 59.2 L-112.7 60.05 M-109.75 79.4 L-109.75 80.25 Q-109.85 80.9 -110.4 80.9 -110.8 80.9 -110.9 78.9 -110.9 78.0 -110.3 78.2 -109.75 78.4 -109.75 79.4 M-113.85 79.9 Q-114.45 79.9 -114.4 79.35 -114.4 78.9 -113.85 79.0 -113.35 79.1 -113.35 79.45 -113.35 79.9 -113.85 79.9" fill="#ffd633" fill-rule="evenodd" stroke="none"/>
  </g>
</svg>
