<?xml version="1.0" encoding="UTF-8" standalone="no"?>
<svg xmlns:xlink="http://www.w3.org/1999/xlink" height="39.05px" width="83.45px" xmlns="http://www.w3.org/2000/svg">
  <g transform="matrix(1.0, 0.0, 0.0, 1.0, 40.2, 21.15)">
    <path d="M0.8 -10.95 L1.1 -11.35 1.45 -10.9 Q3.45 -8.5 3.85 -7.45 5.75 -7.0 8.2 -4.55 11.25 -1.55 7.85 -1.55 7.4 -1.55 4.65 -3.25 L4.45 -3.35 3.55 -2.95 3.9 -2.8 Q4.25 -2.55 4.25 -1.9 4.25 -0.75 3.2 -0.7 L2.75 -0.7 3.5 -0.15 Q5.0 1.05 3.25 1.05 L1.75 0.35 2.0 0.5 1.55 1.0 0.8 1.05 Q2.5 1.8 2.8 2.65 L2.1 2.65 -0.25 2.5 -0.45 2.15 -0.8 1.9 -0.85 1.85 -1.9 0.75 -2.8 -0.3 -3.2 -0.6 -3.6 -0.85 Q-4.0 -1.45 -4.0 -2.75 -4.1 -4.55 -3.0 -5.25 L-5.25 -4.85 -5.35 -5.15 Q-4.4 -5.0 -3.4 -5.85 L-1.9 -7.2 Q-1.45 -7.45 -0.55 -9.1 L0.25 -10.15 0.45 -10.4 0.8 -10.95 M7.65 -0.85 L7.9 -1.0 8.0 -1.0 9.05 -1.25 9.25 -0.9 9.15 -0.55 8.7 -0.4 Q8.55 -0.4 7.65 -0.85 M36.2 16.2 L36.9 16.9 37.75 17.6 37.7 17.6 35.05 16.65 35.1 16.55 36.2 16.2 M11.1 -13.8 L12.15 -13.0 Q13.55 -11.7 13.55 -10.8 13.55 -9.95 12.9 -9.75 L12.5 -9.7 11.6 -9.85 10.9 -10.1 10.85 -10.0 11.0 -9.9 11.55 -9.55 Q12.1 -9.2 12.9 -8.85 L14.45 -8.15 Q16.55 -6.95 16.7 -4.9 17.35 -4.4 22.65 -2.65 26.2 -1.15 20.0 -1.15 16.6 -2.0 13.25 -3.15 6.6 -5.45 6.6 -6.85 L6.75 -7.2 8.9 -5.85 Q9.45 -4.7 16.25 -2.3 L16.85 -2.45 Q15.05 -3.2 14.0 -3.7 L13.75 -3.85 13.65 -3.9 11.6 -5.15 10.5 -6.05 9.3 -7.3 8.65 -8.1 7.7 -8.9 7.45 -8.9 7.35 -8.95 6.0 -9.5 5.75 -9.6 5.8 -10.2 4.75 -10.55 4.5 -10.65 4.65 -10.8 Q5.35 -10.9 6.35 -11.3 L6.6 -11.45 7.05 -11.65 7.5 -11.9 7.55 -11.95 8.2 -12.2 8.95 -12.55 9.05 -12.6 10.2 -13.1 11.1 -13.8 M3.95 -11.9 Q4.1 -12.35 4.8 -12.3 L5.85 -12.0 6.0 -12.1 5.7 -12.35 5.5 -12.9 7.7 -14.0 9.8 -14.35 10.35 -14.15 Q6.6 -13.1 6.0 -12.1 L5.9 -11.85 6.25 -11.95 5.4 -11.7 3.95 -11.9 M1.9 -5.95 L0.6 -6.15 0.3 -5.2 1.95 -5.15 1.85 -5.35 1.9 -5.95 M18.6 -0.45 Q19.95 0.55 18.35 0.55 L16.85 0.2 Q15.7 -0.2 15.7 -0.75 15.7 -1.5 16.45 -1.5 17.3 -1.5 18.6 -0.45 M15.75 4.3 L16.2 4.55 16.3 4.6 17.1 4.95 18.0 5.35 Q17.35 5.85 17.35 6.3 L17.45 6.85 16.9 5.8 15.75 4.3 M15.15 3.7 L15.2 3.65 15.2 3.7 15.85 4.0 15.15 3.7 15.85 4.0 15.2 3.7 15.35 3.9 14.9 3.55 15.15 3.7 M-1.0 -3.1 L1.7 -2.95 -1.0 -3.15 -1.0 -3.1" fill="#753c24" fill-rule="evenodd" stroke="none"/>
    <path d="M2.6 -12.5 Q6.35 -14.0 10.55 -14.45 13.0 -15.85 15.8 -16.45 L18.05 -16.7 Q20.9 -16.8 23.55 -15.4 29.7 -17.15 32.85 -14.1 L33.9 -13.05 Q35.75 -11.1 36.7 -9.05 37.3 -9.15 37.55 -8.75 L37.85 -5.5 Q37.85 -2.45 36.65 -1.9 L36.45 -1.6 36.05 -1.1 35.9 -0.85 Q34.75 -1.65 33.35 -1.65 32.25 -1.65 31.2 0.1 L30.0 1.8 27.05 1.45 26.75 1.45 25.2 0.45 Q23.75 -0.3 23.3 -0.3 22.85 -0.3 22.25 0.4 22.65 0.95 24.9 1.8 L24.45 2.15 Q23.95 1.75 23.1 1.75 20.45 1.7 20.0 2.45 L20.05 2.45 Q17.7 1.65 15.5 0.5 L14.55 0.0 13.95 -0.1 12.25 -1.1 11.5 -1.5 9.05 -1.25 8.0 -1.0 7.9 -1.0 7.65 -0.85 7.25 -0.35 7.0 0.0 Q6.45 0.9 5.9 1.05 L4.95 1.6 Q4.35 2.05 4.2 2.65 L4.0 2.65 2.1 2.65 2.8 2.65 Q2.5 1.8 0.8 1.05 L1.55 1.0 2.0 0.5 1.75 0.35 3.25 1.05 Q5.0 1.05 3.5 -0.15 L2.75 -0.7 3.2 -0.7 Q4.25 -0.75 4.25 -1.9 4.25 -2.55 3.9 -2.8 L3.55 -2.95 4.45 -3.35 4.65 -3.25 Q7.4 -1.55 7.85 -1.55 11.25 -1.55 8.2 -4.55 5.75 -7.0 3.85 -7.45 3.45 -8.5 1.45 -10.9 L1.1 -11.35 0.8 -10.95 1.2 -11.5 2.6 -12.5 M11.1 -13.8 L11.25 -13.95 11.2 -14.25 10.95 -14.35 10.35 -14.15 9.8 -14.35 7.7 -14.0 5.5 -12.9 5.7 -12.35 6.0 -12.1 5.85 -12.0 4.8 -12.3 Q4.1 -12.35 3.95 -11.9 L3.85 -11.9 Q2.35 -11.85 2.35 -10.55 2.35 -8.95 5.3 -7.8 L6.75 -7.2 6.6 -6.85 Q6.6 -5.45 13.25 -3.15 16.6 -2.0 20.0 -1.15 26.2 -1.15 22.65 -2.65 17.35 -4.4 16.7 -4.9 16.55 -6.95 14.45 -8.15 L12.9 -8.85 Q12.1 -9.2 11.55 -9.55 L11.0 -9.9 10.85 -10.0 10.9 -10.1 11.6 -9.85 12.5 -9.7 12.9 -9.75 Q13.55 -9.95 13.55 -10.8 13.55 -11.7 12.15 -13.0 L11.1 -13.8 M4.5 -10.65 L4.75 -10.55 5.8 -10.2 5.75 -9.6 4.45 -10.55 4.5 -10.65 M1.9 -5.95 L1.85 -5.35 1.95 -5.15 0.3 -5.2 0.6 -6.15 1.9 -5.95 M18.6 -0.45 Q17.3 -1.5 16.45 -1.5 15.7 -1.5 15.7 -0.75 15.7 -0.2 16.85 0.2 L18.35 0.55 Q19.95 0.55 18.6 -0.45 M38.5 -0.95 L38.5 -0.1 37.85 0.1 37.55 0.05 Q37.4 -0.05 37.4 -0.35 L38.05 -1.35 38.5 -0.95 M32.6 4.45 Q31.25 5.7 30.1 5.7 29.1 5.7 29.1 4.3 29.1 3.15 31.95 3.15 33.9 3.15 32.6 4.45 M16.5 9.8 L16.75 9.8 Q18.2 9.8 18.2 11.7 L17.6 11.85 16.15 11.7 15.6 11.6 14.2 11.75 Q11.8 11.75 8.75 10.6 3.95 8.75 3.95 5.15 3.95 3.8 5.0 3.55 4.2 4.05 4.2 4.4 4.2 4.95 5.15 5.55 L4.6 5.15 4.55 5.5 Q4.55 8.0 8.4 9.6 L9.85 10.15 12.35 10.7 13.0 10.65 15.35 10.5 15.6 10.4 15.6 10.35 16.3 9.95 16.5 9.8 M25.75 7.45 Q25.45 7.4 25.45 6.9 25.45 6.4 25.9 6.2 L26.35 6.1 Q27.15 6.1 27.0 6.85 26.8 7.55 26.3 7.55 L25.75 7.45 M16.1 1.0 L16.5 1.3 16.6 1.25 17.5 1.5 Q18.0 2.35 17.0 2.75 L16.4 2.25 15.8 1.3 16.1 1.0 M10.2 6.05 L10.25 6.1 10.1 6.1 10.2 6.05 M-1.0 -3.1 L-1.0 -3.15 1.7 -2.95 -1.0 -3.1" fill="#964d2e" fill-rule="evenodd" stroke="none"/>
    <path d="M29.0 2.4 L28.4 2.5 30.25 1.75 30.15 2.0 29.0 2.4" fill="#87462c" fill-rule="evenodd" stroke="none"/>
    <path d="M17.5 7.1 Q17.7 7.85 17.55 8.55 17.85 8.7 17.4 9.15 L16.5 9.8 16.3 9.95 15.6 10.35 15.6 10.4 15.35 10.5 13.0 10.65 13.5 10.55 13.5 10.35 Q11.75 10.35 9.75 9.45 7.6 8.4 6.8 6.9 L6.9 7.05 6.95 7.1 Q7.35 7.65 9.6 8.5 L10.8 8.95 9.6 8.5 Q7.35 7.65 6.95 7.1 L6.9 7.05 6.8 6.9 6.55 6.65 9.0 8.0 10.8 8.95 11.35 9.15 10.85 8.95 Q12.8 9.9 13.55 9.9 L14.25 9.75 Q13.75 9.0 10.55 7.6 L11.05 7.8 Q11.85 7.7 11.65 7.25 L11.8 7.35 Q14.2 8.55 14.45 8.55 L14.85 8.45 14.5 7.15 13.8 6.15 Q12.85 5.25 11.15 4.85 7.35 3.3 6.65 3.3 5.9 3.1 5.9 4.05 L6.7 4.65 6.3 4.45 Q6.0 4.55 6.0 4.95 L6.2 5.3 5.55 5.15 5.25 5.25 5.15 5.55 Q4.2 4.95 4.2 4.4 4.2 4.05 5.0 3.55 L5.9 2.95 6.2 2.8 Q7.7 1.95 8.65 1.95 10.85 1.95 13.9 3.15 L14.9 3.55 15.35 3.9 15.35 3.95 15.7 4.25 15.75 4.3 16.9 5.8 17.45 6.85 17.5 7.1 M14.25 9.75 L15.6 9.75 15.75 9.3 Q15.75 8.15 14.5 7.15 15.75 8.15 15.75 9.3 L15.6 9.75 14.25 9.75 M9.85 10.15 L8.4 9.6 Q4.55 8.0 4.55 5.5 L4.6 5.15 5.15 5.55 5.2 5.6 5.7 6.0 Q6.45 7.85 8.55 9.4 L9.4 10.0 9.85 10.15" fill="#d7b15b" fill-rule="evenodd" stroke="none"/>
    <path d="M10.25 6.1 L10.2 6.05 10.1 6.1 10.25 6.1 M9.0 4.65 L11.45 5.0 11.5 5.0 12.45 5.4 13.8 6.15 12.45 5.4 11.5 5.0 11.45 5.0 9.0 4.65 M5.15 5.55 L5.25 5.25 5.55 5.15 6.2 5.3 6.0 4.95 Q6.0 4.55 6.3 4.45 L6.7 4.65 5.9 4.05 Q5.9 3.1 6.65 3.3 7.35 3.3 11.15 4.85 12.85 5.25 13.8 6.15 L14.5 7.15 14.85 8.45 14.45 8.55 Q14.2 8.55 11.8 7.35 L11.65 7.25 Q11.85 7.7 11.05 7.8 L10.55 7.6 Q13.75 9.0 14.25 9.75 L13.55 9.9 Q12.8 9.9 10.85 8.95 L11.35 9.15 10.8 8.95 9.0 8.0 6.55 6.65 6.8 6.9 Q7.6 8.4 9.75 9.45 11.75 10.35 13.5 10.35 L13.5 10.55 13.0 10.65 12.35 10.7 9.85 10.15 9.4 10.0 8.55 9.4 Q6.45 7.85 5.7 6.0 L5.2 5.6 5.15 5.55 M11.35 9.15 L13.05 9.75 14.25 9.75 13.05 9.75 11.35 9.15 M6.55 6.65 L6.45 6.6 6.4 6.55 6.35 6.5 6.2 6.35 5.7 6.0 6.2 6.35 6.35 6.5 6.4 6.55 6.45 6.6 6.55 6.65" fill="#b98e4f" fill-rule="evenodd" stroke="none"/>
    <path d="M2.6 -12.5 L1.2 -11.5 0.8 -10.95 0.45 -10.4 0.25 -10.15 -0.55 -9.1 Q-1.45 -7.45 -1.9 -7.2 L-3.4 -5.85 Q-4.4 -5.0 -5.35 -5.15 L-5.25 -4.85 -3.0 -5.25 Q-4.1 -4.55 -4.0 -2.75 -4.0 -1.45 -3.6 -0.85 L-3.2 -0.6 -2.8 -0.3 -1.9 0.75 -0.85 1.85 -0.8 1.9 -0.45 2.15 -0.25 2.5 2.1 2.65 4.0 2.65 4.2 2.65 5.95 2.8 6.2 2.8 5.9 2.95 5.0 3.55 Q3.95 3.8 3.95 5.15 3.95 8.75 8.75 10.6 11.8 11.75 14.2 11.75 L15.6 11.6 16.15 11.7 17.6 11.85 18.2 11.7 Q18.2 9.8 16.75 9.8 L16.5 9.8 17.4 9.15 Q17.85 8.7 17.55 8.55 17.7 7.85 17.5 7.1 17.9 8.15 19.3 9.75 L19.9 10.4 Q20.6 10.4 20.6 9.55 L21.55 8.3 Q22.2 6.55 21.3 3.75 L21.15 3.35 Q21.05 3.05 19.05 2.15 L17.5 1.5 16.6 1.25 16.5 1.3 16.1 1.0 15.75 0.7 15.5 0.5 Q17.7 1.65 20.05 2.45 L20.0 2.45 Q20.45 1.7 23.1 1.75 23.95 1.75 24.45 2.15 L24.9 1.8 Q22.65 0.95 22.25 0.4 22.85 -0.3 23.3 -0.3 23.75 -0.3 25.2 0.45 L26.75 1.45 27.05 1.45 30.0 1.8 31.2 0.1 Q32.25 -1.65 33.35 -1.65 34.75 -1.65 35.9 -0.85 L36.05 -1.1 36.45 -1.6 36.65 -1.9 Q37.85 -2.45 37.85 -5.5 L37.55 -8.75 Q40.9 -3.9 40.0 2.9 L39.25 4.55 40.05 5.95 40.95 7.8 41.1 8.3 41.15 8.2 43.25 11.7 43.25 11.75 41.3 10.1 41.1 10.2 41.1 10.85 41.7 12.6 41.25 12.2 Q40.9 11.9 40.4 11.85 L39.1 13.9 39.05 13.95 39.15 14.0 39.9 15.0 38.4 14.6 37.95 15.0 36.2 16.2 35.1 16.55 34.9 16.6 34.2 16.5 Q32.9 16.2 30.6 15.1 L28.7 16.25 Q25.5 18.05 20.75 17.0 18.0 18.25 12.45 16.5 L12.05 16.4 Q11.5 16.45 11.1 16.75 L10.05 17.9 Q9.5 17.35 8.85 17.05 L7.65 16.95 7.65 15.75 Q8.0 15.4 6.9 14.3 L4.25 13.05 Q1.8 11.85 -0.4 9.55 L-17.6 4.25 -18.75 3.75 -18.9 3.75 -24.6 3.3 -29.75 2.7 -34.7 2.1 Q-38.95 2.2 -39.7 0.8 L-40.2 -0.85 Q-40.3 -2.2 -39.8 -2.5 L-39.3 -2.85 -39.3 -2.95 -35.7 -2.85 -25.45 -3.25 -18.9 -4.0 -17.6 -4.2 -10.7 -6.65 -3.3 -9.85 -2.6 -10.0 0.55 -11.55 2.6 -12.5 M10.35 -14.15 L10.95 -14.35 11.2 -14.25 11.25 -13.95 11.1 -13.8 10.2 -13.1 9.05 -12.6 8.95 -12.55 8.2 -12.2 7.55 -11.95 7.5 -11.9 7.05 -11.65 6.6 -11.45 6.35 -11.3 Q5.35 -10.9 4.65 -10.8 L4.5 -10.65 4.45 -10.55 5.75 -9.6 6.0 -9.5 7.35 -8.95 7.45 -8.9 7.7 -8.9 8.65 -8.1 9.3 -7.3 10.5 -6.05 11.6 -5.15 13.65 -3.9 13.75 -3.85 14.0 -3.7 Q15.05 -3.2 16.85 -2.45 L16.25 -2.3 Q9.45 -4.7 8.9 -5.85 L6.75 -7.2 5.3 -7.8 Q2.35 -8.95 2.35 -10.55 2.35 -11.85 3.85 -11.9 L3.95 -11.9 5.4 -11.7 6.25 -11.95 5.9 -11.85 6.0 -12.1 Q6.6 -13.1 10.35 -14.15 M38.5 -0.95 L38.05 -1.35 37.4 -0.35 Q37.4 -0.05 37.55 0.05 L37.85 0.1 38.5 -0.1 38.5 -0.95 M30.6 15.1 Q35.85 11.6 34.95 8.9 37.85 6.75 39.25 4.55 37.85 6.75 34.95 8.9 35.85 11.6 30.6 15.1 M32.6 4.45 Q33.9 3.15 31.95 3.15 29.1 3.15 29.1 4.3 29.1 5.7 30.1 5.7 31.25 5.7 32.6 4.45 M31.15 1.6 L31.75 0.9 31.15 1.6 M29.0 2.4 L30.15 2.0 30.25 1.75 28.4 2.5 29.0 2.4 M25.75 7.45 L26.3 7.55 Q26.8 7.55 27.0 6.85 27.15 6.1 26.35 6.1 L25.9 6.2 Q25.45 6.4 25.45 6.9 25.45 7.4 25.75 7.45 M6.9 14.3 L12.05 16.4 6.9 14.3" fill="#5a2f1d" fill-rule="evenodd" stroke="none"/>
    <path d="M4.2 2.65 Q4.35 2.05 4.95 1.6 L5.9 1.05 Q6.45 0.9 7.0 0.0 L7.25 -0.35 7.65 -0.85 Q8.55 -0.4 8.7 -0.4 L9.15 -0.55 9.25 -0.9 9.05 -1.25 11.5 -1.5 12.25 -1.1 13.95 -0.1 14.55 0.0 15.5 0.5 15.75 0.7 16.1 1.0 15.8 1.3 16.4 2.25 17.0 2.75 Q18.0 2.35 17.5 1.5 L19.05 2.15 Q21.05 3.05 21.15 3.35 L21.3 3.75 Q22.2 6.55 21.55 8.3 L20.6 9.55 Q20.6 10.4 19.9 10.4 L19.3 9.75 Q17.9 8.15 17.5 7.1 L17.45 6.85 17.35 6.3 Q17.35 5.85 18.0 5.35 L17.1 4.95 16.3 4.6 16.2 4.55 15.75 4.3 15.7 4.25 15.35 3.95 15.35 3.9 15.2 3.7 15.85 4.0 15.2 3.7 15.2 3.65 15.15 3.7 14.9 3.55 13.9 3.15 Q10.85 1.95 8.65 1.95 7.7 1.95 6.2 2.8 L5.95 2.8 4.2 2.65" fill="#80442b" fill-rule="evenodd" stroke="none"/>
    <path d="M37.55 -8.75 Q37.3 -9.15 36.7 -9.05 35.75 -11.1 33.9 -13.05 L32.85 -14.1 Q29.7 -17.15 23.55 -15.4 20.9 -16.8 18.05 -16.7 L15.8 -16.45 Q13.0 -15.85 10.55 -14.45 6.35 -14.0 2.6 -12.5 M37.55 -8.75 Q40.9 -3.9 40.0 2.9 L39.25 4.55 40.05 5.95 40.95 7.8 41.1 8.3 M40.4 11.85 L39.1 13.9 39.05 13.95 M38.4 14.6 L37.95 15.0 36.2 16.2 35.1 16.55 34.9 16.6 M34.2 16.5 Q32.9 16.2 30.6 15.1 L28.7 16.25 Q25.5 18.05 20.75 17.0 18.0 18.25 12.45 16.5 L12.05 16.4 Q11.5 16.45 11.1 16.75 L10.05 17.9 Q9.5 17.35 8.85 17.05 L7.65 16.95 7.65 15.75 Q8.0 15.4 6.9 14.3 L4.25 13.05 Q1.8 11.85 -0.4 9.55 L-17.6 4.25 -18.75 3.75 -18.9 3.75 -24.6 3.3 -29.75 2.7 -34.7 2.1 Q-38.95 2.2 -39.7 0.8 L-40.2 -0.85 Q-40.3 -2.2 -39.8 -2.5 L-39.3 -2.85 -39.3 -2.95 -35.7 -2.85 -25.45 -3.25 -18.9 -4.0 -17.6 -4.2 -10.7 -6.65 -3.3 -9.85 -2.6 -10.0 0.55 -11.55 2.6 -12.5 M39.25 4.55 Q37.85 6.75 34.95 8.9 35.85 11.6 30.6 15.1 M31.75 0.9 L31.15 1.6 M12.05 16.4 L6.9 14.3" fill="none" stroke="#000000" stroke-linecap="round" stroke-linejoin="round" stroke-opacity="0.4" stroke-width="0.05"/>
    <path d="M40.95 7.8 L41.15 8.2 43.25 11.7 43.25 11.75 41.3 10.1 41.1 10.2 41.1 10.85 41.7 12.6 41.25 12.2 Q40.9 11.9 40.4 11.85 M39.1 13.9 L39.15 14.0 39.9 15.0 38.4 14.6 M36.2 16.2 L36.9 16.9 37.75 17.6 37.8 17.6 37.7 17.6 35.05 16.65 34.9 16.6 34.2 16.5 M5.0 3.55 L5.9 2.95 6.2 2.8 M16.3 4.6 L17.1 4.95 M10.2 6.05 L10.25 6.1 M13.8 6.15 L12.45 5.4 11.5 5.0 11.45 5.0 9.0 4.65 M15.15 3.7 L15.85 4.0 M14.9 3.55 L13.9 3.15 Q10.85 1.95 8.65 1.95 7.7 1.95 6.2 2.8 M15.15 3.7 L14.9 3.55 M14.5 7.15 Q15.75 8.15 15.75 9.3 L15.6 9.75 14.25 9.75 13.05 9.75 11.35 9.15 10.8 8.95 9.6 8.5 Q7.35 7.65 6.95 7.1 L6.9 7.05 6.8 6.9 M5.15 5.55 Q4.2 4.95 4.2 4.4 4.2 4.05 5.0 3.55 M5.15 5.55 L5.2 5.6 5.7 6.0 6.2 6.35 6.35 6.5 6.4 6.55 6.45 6.6 6.55 6.65 6.8 6.9" fill="none" stroke="#000000" stroke-linecap="round" stroke-linejoin="round" stroke-opacity="0.2" stroke-width="0.05"/>
    <path d="M17.75 -18.7 L18.95 -19.15 18.95 -19.0 20.45 -19.1 23.85 -18.85 24.05 -18.75 23.8 -18.4 23.25 -17.6 23.05 -17.15 23.25 -17.6 24.6 -17.05 23.25 -17.15 23.05 -17.15 Q21.6 -17.1 21.3 -16.7 L21.35 -16.6 20.85 -16.75 20.35 -17.05 20.5 -17.3 20.25 -17.1 18.2 -18.3 Q17.55 -18.5 17.55 -17.5 17.55 -16.9 18.85 -16.0 L17.85 -15.25 17.5 -15.6 Q16.9 -16.6 16.9 -17.6 L17.05 -18.05 17.45 -18.5 17.75 -18.7 18.95 -19.0 17.75 -18.7 M25.05 -18.6 L26.35 -18.2 Q28.1 -17.65 29.85 -16.45 L29.65 -16.2 29.05 -15.1 31.35 -14.1 Q32.5 -14.1 31.4 -15.0 L31.35 -15.05 31.5 -15.35 32.45 -14.6 32.5 -14.55 33.0 -13.8 Q33.5 -12.8 33.05 -11.55 32.15 -10.25 31.0 -9.95 L30.9 -9.9 30.2 -10.0 30.3 -11.15 30.2 -10.0 28.2 -9.95 28.15 -9.95 27.85 -9.9 27.65 -9.9 27.95 -10.5 28.25 -11.05 28.35 -10.95 30.3 -11.15 30.85 -11.2 Q32.3 -11.5 32.15 -13.05 31.5 -12.2 30.05 -12.0 L30.0 -12.0 Q29.45 -12.15 28.85 -12.4 L26.6 -13.45 27.15 -13.4 28.25 -13.65 28.35 -13.7 28.35 -14.0 27.2 -14.35 26.4 -14.75 27.2 -14.35 26.35 -14.65 26.4 -14.75 26.7 -15.45 28.6 -14.2 30.0 -13.2 30.2 -13.2 Q28.8 -15.25 27.0 -16.25 L27.3 -17.05 27.3 -17.1 27.15 -17.1 27.3 -17.1 27.3 -17.05 27.15 -17.1 27.0 -16.85 26.65 -16.4 24.6 -17.05 24.95 -18.25 25.05 -18.6 M20.5 -17.3 L20.85 -17.6 20.85 -17.7 20.5 -17.3 20.85 -17.7 20.85 -17.6 20.5 -17.3 M18.95 -13.95 L19.3 -15.1 19.5 -15.55 20.9 -14.75 19.55 -13.5 18.95 -13.95 M22.6 -16.15 L22.15 -16.3 23.7 -16.25 25.8 -15.9 26.1 -15.75 25.55 -15.1 25.25 -15.25 22.6 -16.15 25.25 -15.25 25.55 -15.1 25.45 -15.0 24.1 -15.55 22.6 -16.15 M20.6 -12.9 L21.05 -14.65 22.45 -13.95 23.95 -13.25 23.0 -12.05 Q21.7 -12.35 20.6 -12.9 M28.85 -12.4 L28.85 -12.45 28.85 -12.4 M25.5 -12.55 L28.0 -11.75 25.95 -10.15 25.25 -10.65 24.9 -10.9 24.85 -10.9 25.5 -12.55" fill="#f8d687" fill-rule="evenodd" stroke="none"/>
    <path d="M23.85 -18.85 L24.1 -18.8 24.05 -18.75 23.85 -18.85 M33.0 -13.8 L33.65 -12.2 33.6 -11.55 33.3 -10.3 33.25 -10.15 33.2 -9.95 Q32.95 -8.85 33.35 -7.55 L33.4 -7.95 33.55 -9.8 Q33.7 -9.75 33.9 -9.65 L35.15 -8.75 35.05 -7.05 33.4 -5.3 31.75 -4.05 Q31.0 -3.55 30.25 -3.2 L30.5 -4.1 30.5 -4.5 30.5 -4.6 30.2 -5.5 29.85 -6.05 31.15 -8.3 Q31.85 -9.65 30.9 -9.9 L31.0 -9.95 Q32.15 -10.25 33.05 -11.55 33.5 -12.8 33.0 -13.8 M9.75 -12.8 L9.85 -12.75 9.8 -12.7 9.75 -12.8 M12.4 -14.7 L13.75 -15.55 12.7 -14.75 12.4 -14.7 M16.0 -17.0 L16.75 -17.6 16.85 -17.75 16.9 -17.95 17.5 -18.6 17.75 -18.7 17.45 -18.5 17.05 -18.05 16.9 -17.6 Q16.9 -16.6 17.5 -15.6 L17.3 -15.65 16.7 -16.35 16.65 -16.8 16.75 -17.6 16.65 -16.8 16.7 -16.35 16.0 -17.0 M12.0 -10.95 L12.0 -11.1 12.05 -11.65 12.4 -10.3 12.0 -10.95 M12.9 -6.3 L11.95 -7.55 13.4 -6.2 12.9 -6.3 M27.65 -9.9 L27.85 -9.9 27.6 -9.8 27.65 -9.9 M27.25 -7.25 L27.2 -7.15 27.2 -6.9 27.15 -6.45 27.1 -6.7 27.25 -7.25 M27.75 -5.5 L26.9 -4.55 26.45 -4.05 26.2 -3.8 Q25.0 -3.95 24.55 -4.5 25.2 -5.35 27.75 -5.5 M26.9 -7.9 Q27.15 -7.2 26.8 -7.0 L26.2 -6.95 25.05 -7.2 24.05 -7.5 24.0 -8.2 24.05 -8.25 24.35 -8.3 26.75 -8.0 26.85 -7.95 26.9 -7.9 M33.1 -5.45 L31.75 -4.05 33.1 -5.45" fill="#964d2e" fill-rule="evenodd" stroke="none"/>
    <path d="M33.25 -10.15 L33.45 -10.05 33.55 -9.8 33.4 -7.95 33.35 -7.55 Q32.95 -8.85 33.2 -9.95 L33.25 -10.15 M11.5 -6.45 L10.25 -6.9 9.7 -7.35 Q9.0 -8.35 8.6 -9.55 7.9 -11.6 8.2 -13.25 L9.75 -12.8 9.8 -12.7 9.6 -11.2 Q9.6 -10.35 10.6 -9.05 L11.7 -7.8 11.95 -7.55 12.9 -6.3 12.5 -6.4 11.95 -6.45 11.5 -6.45 M13.8 -15.6 L14.35 -16.0 15.8 -16.95 15.95 -17.0 16.0 -17.0 15.25 -16.5 15.15 -16.45 15.1 -16.4 13.8 -15.6 M19.25 -13.25 L19.0 -13.05 Q18.75 -12.85 18.6 -12.8 L18.8 -13.35 18.85 -13.55 19.25 -13.25 18.85 -13.55 18.95 -13.95 19.55 -13.5 19.25 -13.25 M20.6 -12.9 Q21.7 -12.35 23.0 -12.05 L22.55 -11.45 21.75 -11.85 Q21.05 -12.2 20.5 -12.5 L20.6 -12.9 M25.95 -10.15 L25.9 -10.15 25.75 -10.2 25.65 -10.25 24.7 -10.5 24.85 -10.9 24.9 -10.9 25.25 -10.65 25.95 -10.15 M30.5 -4.6 L29.95 -4.35 30.0 -4.5 30.5 -4.6" fill="#753c24" fill-rule="evenodd" stroke="none"/>
    <path d="M18.85 -16.0 Q17.55 -16.9 17.55 -17.5 17.55 -18.5 18.2 -18.3 L20.25 -17.1 18.85 -16.0 M20.35 -17.05 L20.85 -16.75 21.35 -16.6 21.3 -16.7 Q21.6 -17.1 23.05 -17.15 L23.25 -17.15 24.6 -17.05 26.65 -16.4 26.1 -15.75 25.8 -15.9 23.7 -16.25 22.15 -16.3 22.6 -16.15 21.65 -16.3 21.4 -16.3 20.7 -16.1 21.25 -15.55 20.7 -16.1 21.4 -16.3 21.65 -16.3 22.6 -16.15 24.1 -15.55 25.45 -15.0 24.55 -13.95 23.95 -13.25 22.45 -13.95 21.05 -14.65 21.15 -15.05 20.9 -14.75 19.5 -15.55 20.35 -17.05 M27.0 -16.25 Q28.8 -15.25 30.2 -13.2 L30.0 -13.2 28.6 -14.2 26.7 -15.45 26.9 -16.05 27.0 -16.25 M27.2 -14.35 L28.35 -14.0 28.35 -13.7 28.25 -13.65 27.15 -13.4 26.6 -13.45 28.85 -12.4 Q29.45 -12.15 30.0 -12.0 L30.05 -12.0 Q31.5 -12.2 32.15 -13.05 32.3 -11.5 30.85 -11.2 L30.3 -11.15 28.35 -10.95 28.25 -11.05 28.85 -12.4 28.0 -11.75 25.5 -12.55 26.35 -14.65 27.2 -14.35 28.05 -13.8 27.2 -14.35 M28.15 -13.75 L28.05 -13.8 28.0 -13.8 28.15 -13.75 28.25 -13.65 28.15 -13.75" fill="#d7b15b" fill-rule="evenodd" stroke="none"/>
    <path d="M15.5 -4.45 L14.55 -4.95 13.95 -5.05 12.25 -6.05 11.5 -6.45 11.95 -6.45 12.5 -6.4 12.9 -6.3 13.4 -6.2 15.5 -4.45 M28.05 -13.8 L28.15 -13.75 28.0 -13.8 28.05 -13.8 M27.85 -9.9 L28.15 -9.95 28.2 -9.95 30.2 -10.0 30.0 -9.85 28.2 -9.75 27.95 -9.75 27.9 -9.75 27.6 -9.8 27.85 -9.9" fill="#87462c" fill-rule="evenodd" stroke="none"/>
    <path d="M28.4 -2.45 Q24.5 -1.2 20.05 -2.5 17.7 -3.3 15.5 -4.45 L13.4 -6.2 11.95 -7.55 11.7 -7.8 10.6 -9.05 Q9.6 -10.35 9.6 -11.2 L9.8 -12.7 9.85 -12.75 Q10.2 -13.75 11.05 -14.25 L12.4 -14.7 12.7 -14.75 13.75 -15.55 13.8 -15.6 15.1 -16.4 15.15 -16.45 15.25 -16.5 16.0 -17.0 16.7 -16.35 17.0 -15.55 16.7 -16.35 17.3 -15.65 17.5 -15.6 17.85 -15.25 18.85 -16.0 20.25 -17.1 20.5 -17.3 20.35 -17.05 19.5 -15.55 19.3 -15.1 18.95 -13.95 18.85 -13.55 18.8 -13.35 18.6 -12.8 Q18.75 -12.85 19.0 -13.05 L19.25 -13.25 19.55 -13.5 20.9 -14.75 21.15 -15.05 21.05 -14.65 20.6 -12.9 20.5 -12.5 Q21.05 -12.2 21.75 -11.85 L22.55 -11.45 23.0 -12.05 23.95 -13.25 24.55 -13.95 25.45 -15.0 25.55 -15.1 26.1 -15.75 26.65 -16.4 27.0 -16.85 27.15 -17.1 27.3 -17.05 27.0 -16.25 26.9 -16.05 26.7 -15.45 26.4 -14.75 26.35 -14.65 25.5 -12.55 24.85 -10.9 24.7 -10.5 25.65 -10.25 25.75 -10.2 25.9 -10.15 25.95 -10.15 28.0 -11.75 28.85 -12.4 28.85 -12.45 28.85 -12.4 28.25 -11.05 27.95 -10.5 27.65 -9.9 27.6 -9.8 27.9 -9.75 27.95 -9.75 28.1 -9.7 28.0 -9.4 28.3 -8.95 28.0 -8.75 27.9 -8.6 Q28.35 -8.15 27.8 -8.0 L27.45 -7.55 27.45 -7.5 27.35 -7.45 27.3 -7.4 27.3 -7.35 27.25 -7.25 27.1 -6.7 27.15 -6.45 Q27.3 -6.0 28.1 -6.0 L27.75 -5.5 Q25.2 -5.35 24.55 -4.5 25.0 -3.95 26.2 -3.8 L25.95 -3.45 Q25.95 -2.6 26.65 -2.4 L27.6 -2.35 27.7 -2.35 27.75 -2.35 27.85 -2.35 27.9 -2.35 28.0 -2.35 28.05 -2.35 28.4 -2.45 M17.85 -15.25 L16.85 -14.5 17.85 -15.25 M12.05 -11.65 L12.0 -11.1 12.0 -10.95 12.4 -10.3 12.05 -11.65 11.7 -12.6 12.05 -11.65 M12.4 -9.75 Q12.05 -10.05 12.0 -10.95 12.05 -10.05 12.4 -9.75 M16.45 -5.65 Q15.75 -6.0 15.2 -6.7 15.75 -6.0 16.45 -5.65 M26.9 -7.9 L27.25 -9.1 27.6 -9.8 27.25 -9.1 26.9 -7.9 26.85 -7.95 26.75 -8.0 24.35 -8.3 24.05 -8.25 24.0 -8.2 24.05 -7.5 25.05 -7.2 26.2 -6.95 26.8 -7.0 Q27.15 -7.2 26.9 -7.9 M22.55 -11.45 L22.3 -11.15 22.55 -11.45 M24.45 -9.95 L24.65 -10.4 24.7 -10.5 24.65 -10.4 24.45 -9.95 M20.4 -12.05 L20.5 -12.5 20.4 -12.05" fill="#5a2f1d" fill-rule="evenodd" stroke="none"/>
    <path d="M24.1 -18.8 L25.6 -20.8 25.8 -21.05 25.85 -21.0 25.8 -20.85 25.05 -18.6 24.95 -18.25 24.6 -17.05 23.25 -17.6 23.8 -18.4 24.05 -18.75 24.1 -18.8 M29.85 -16.45 L32.6 -19.3 33.9 -20.55 33.1 -18.8 31.5 -15.35 31.35 -15.05 31.4 -15.0 Q32.5 -14.1 31.35 -14.1 L29.05 -15.1 29.65 -16.2 29.85 -16.45" fill="#673521" fill-rule="evenodd" stroke="none"/>
    <path d="M30.25 -3.2 Q29.35 -2.75 28.4 -2.45 L28.05 -2.35 28.0 -2.35 27.9 -2.35 27.85 -2.35 27.75 -2.35 27.7 -2.35 27.6 -2.35 26.65 -2.4 Q25.95 -2.6 25.95 -3.45 L26.2 -3.8 26.45 -4.05 26.9 -4.55 27.75 -5.5 28.1 -6.0 Q27.3 -6.0 27.15 -6.45 L27.2 -6.9 27.2 -7.15 27.25 -7.25 27.3 -7.35 27.3 -7.4 27.35 -7.45 27.45 -7.5 27.45 -7.55 27.8 -8.0 Q28.35 -8.15 27.9 -8.6 L28.0 -8.75 28.3 -8.95 28.0 -9.4 28.1 -9.7 27.95 -9.75 28.2 -9.75 30.0 -9.85 30.2 -10.0 30.9 -9.9 Q31.85 -9.65 31.15 -8.3 L29.85 -6.05 30.2 -5.5 30.5 -4.6 30.5 -4.5 30.5 -4.1 30.25 -3.2 M30.5 -4.6 L30.0 -4.5 29.95 -4.35 30.5 -4.6" fill="#80442b" fill-rule="evenodd" stroke="none"/>
    <path d="M18.95 -19.0 L20.45 -19.1 23.85 -18.85 24.1 -18.8 M25.05 -18.6 L26.35 -18.2 Q28.1 -17.65 29.85 -16.45 M31.5 -15.35 L32.45 -14.6 32.5 -14.55 M33.0 -13.8 L33.65 -12.2 33.6 -11.55 33.3 -10.3 33.25 -10.15 M12.4 -14.7 L13.75 -15.55 13.8 -15.6 M16.85 -17.75 L16.9 -17.95 17.5 -18.6 17.75 -18.7 18.95 -19.0 M15.1 -16.4 L13.8 -15.6 M33.35 -7.55 Q32.95 -8.85 33.2 -9.95 L33.25 -10.15 M31.75 -4.05 L33.1 -5.45" fill="none" stroke="#000000" stroke-linecap="round" stroke-linejoin="round" stroke-opacity="0.4" stroke-width="0.05"/>
    <path d="M24.1 -18.8 L25.6 -20.8 25.8 -21.05 25.85 -21.15 25.85 -21.0 25.8 -20.85 25.05 -18.6 M29.85 -16.45 L32.6 -19.3 33.9 -20.55 33.1 -18.8 31.5 -15.35 M16.0 -17.0 L16.75 -17.6 16.85 -17.75 M16.0 -17.0 L15.25 -16.5 15.15 -16.45 15.1 -16.4 M17.85 -15.25 L18.85 -16.0 20.25 -17.1 20.5 -17.3 20.85 -17.7 20.85 -17.6 20.5 -17.3 20.35 -17.05 M23.05 -17.15 L23.25 -17.6 23.8 -18.4 24.05 -18.75 M16.7 -16.35 L17.0 -15.55 M16.7 -16.35 L16.65 -16.8 16.75 -17.6 M18.85 -13.55 L18.8 -13.35 18.6 -12.8 Q18.75 -12.85 19.0 -13.05 L19.25 -13.25 18.85 -13.55 18.95 -13.95 19.3 -15.1 19.5 -15.55 20.35 -17.05 M19.25 -13.25 L19.55 -13.5 M16.85 -14.5 L17.85 -15.25 M12.05 -11.65 L12.0 -11.1 12.0 -10.95 Q12.05 -10.05 12.4 -9.75 M12.05 -11.65 L11.7 -12.6 M15.2 -6.7 Q15.75 -6.0 16.45 -5.65 M31.4 -15.0 L31.35 -15.05 31.5 -15.35 M24.1 -18.8 L24.05 -18.75 M24.6 -17.05 L24.95 -18.25 25.05 -18.6 M22.6 -16.15 L21.65 -16.3 21.4 -16.3 20.7 -16.1 21.25 -15.55 M22.6 -16.15 L25.25 -15.25 25.55 -15.1 26.1 -15.75 26.65 -16.4 27.0 -16.85 27.15 -17.1 M21.05 -14.65 L20.6 -12.9 20.5 -12.5 Q21.05 -12.2 21.75 -11.85 L22.55 -11.45 23.0 -12.05 23.95 -13.25 24.55 -13.95 25.45 -15.0 25.55 -15.1 M21.05 -14.65 L21.15 -15.05 20.9 -14.75 19.55 -13.5 M29.85 -16.45 L29.65 -16.2 29.05 -15.1 M27.3 -17.05 L27.3 -17.1 27.15 -17.1 M27.3 -17.05 L27.0 -16.25 26.9 -16.05 26.7 -15.45 26.4 -14.75 27.2 -14.35 28.05 -13.8 28.15 -13.75 28.25 -13.65 M28.35 -13.7 L28.25 -13.65 M28.85 -12.4 L28.85 -12.45 28.85 -12.4 28.25 -11.05 27.95 -10.5 27.65 -9.9 27.6 -9.8 27.25 -9.1 26.9 -7.9 M30.3 -11.15 L30.2 -10.0 30.0 -9.85 28.2 -9.75 27.95 -9.75 M26.35 -14.65 L25.5 -12.55 M28.0 -11.75 L28.85 -12.4 M26.4 -14.75 L26.35 -14.65 M24.85 -10.9 L24.7 -10.5 25.65 -10.25 25.75 -10.2 25.9 -10.15 25.95 -10.15 28.0 -11.75 M24.85 -10.9 L25.5 -12.55 M24.7 -10.5 L24.65 -10.4 24.45 -9.95 M22.3 -11.15 L22.55 -11.45 M20.5 -12.5 L20.4 -12.05" fill="none" stroke="#000000" stroke-linecap="round" stroke-linejoin="round" stroke-opacity="0.2" stroke-width="0.05"/>
    <path d="M16.3 4.2 L17.15 3.45 16.3 4.2 15.7 4.8 14.25 6.45 13.95 6.75 14.0 4.15 13.95 2.2 13.95 2.1 13.95 2.2 12.5 4.5 12.3 4.5 Q11.6 2.35 11.6 1.8 L11.6 1.75 11.55 1.65 11.4 1.8 Q9.15 3.7 8.7 4.5 L7.7 2.95 7.3 2.0 7.2 1.7 7.25 1.5 Q7.5 0.8 9.8 0.5 L12.4 0.35 Q14.25 0.35 16.4 2.6 L17.15 3.45 Q18.2 4.85 16.9 4.85 L16.3 4.2" fill="#753c24" fill-rule="evenodd" stroke="none"/>
    <path d="M17.15 3.45 L16.3 4.2 M7.25 1.5 L7.2 1.7 7.3 2.0 7.7 2.95 8.7 4.5 Q9.15 3.7 11.4 1.8 L11.55 1.65 11.6 1.75 M11.6 1.8 Q11.6 2.35 12.3 4.5 L12.5 4.5 13.95 2.2 13.95 2.1 13.95 2.2 14.0 4.15 13.95 6.75 14.25 6.45 15.7 4.8 16.3 4.2 M11.6 1.8 L11.6 1.75 M16.95 8.7 L16.55 12.45 16.55 12.6 Q15.65 10.3 15.65 9.95 L13.95 11.95 Q12.75 13.45 12.65 13.85 L12.5 13.85 12.9 9.6 M7.2 8.55 L5.7 10.65 5.55 9.95 5.8 8.5 6.05 7.1" fill="none" stroke="#000000" stroke-linecap="round" stroke-linejoin="round" stroke-opacity="0.2" stroke-width="0.05"/>
  </g>
</svg>
