<?xml version="1.0" encoding="UTF-8" standalone="no"?>
<svg xmlns:xlink="http://www.w3.org/1999/xlink" height="73.25px" width="30.25px" xmlns="http://www.w3.org/2000/svg">
  <g transform="matrix(1.0, 0.0, 0.0, 1.0, 68.9, 20.8)">
    <path d="M-40.2 -20.0 Q-39.5 -19.75 -39.5 -18.55 L-39.9 -17.15 Q-40.35 -15.95 -40.7 -15.95 -41.55 -15.95 -42.2 -17.9 L-42.25 -18.05 Q-42.25 -19.9 -40.85 -20.05 L-40.2 -20.0 M-44.65 -17.1 L-44.65 -17.15 Q-42.65 -17.35 -40.5 -12.9 -38.65 -9.05 -38.65 -6.95 -38.65 -6.15 -39.05 -5.25 L-39.5 -4.3 -39.2 -3.05 -38.9 -1.7 Q-38.9 0.7 -39.45 3.5 -40.2 7.15 -41.45 8.4 -42.0 8.95 -42.55 10.8 L-43.45 13.5 Q-43.95 14.5 -45.95 15.9 L-47.95 17.35 Q-47.55 17.35 -47.55 18.4 L-48.75 22.8 -50.65 28.35 -51.8 32.5 -52.0 33.3 -52.05 33.65 -52.3 34.85 -53.25 38.3 -53.45 38.35 -53.9 36.5 -53.6 34.95 -53.6 35.0 -53.45 34.6 -52.95 33.35 -52.05 31.4 -52.45 28.7 -51.8 26.5 -51.35 25.35 Q-50.25 22.8 -50.25 22.4 -50.25 19.45 -48.9 17.95 L-49.2 17.85 -49.3 17.45 -46.65 14.65 -44.05 11.35 Q-43.2 9.95 -42.75 8.55 L-42.7 8.5 -41.75 6.35 -40.9 4.8 -40.65 4.25 Q-39.85 2.4 -39.8 1.8 L-39.95 -0.05 Q-39.95 -1.15 -40.5 -2.15 -41.1 -3.15 -41.1 -4.35 L-40.7 -5.7 Q-40.35 -6.5 -40.35 -7.25 L-40.35 -7.35 -40.4 -7.75 -40.4 -7.8 -41.8 -11.5 -43.2 -14.55 -43.3 -14.75 -43.6 -15.2 -44.5 -16.45 -44.65 -16.55 -44.65 -16.45 -44.7 -16.75 -44.65 -17.1 M-53.3 39.6 Q-53.0 41.7 -53.0 42.95 L-53.25 44.1 -53.5 45.45 -53.55 45.7 -53.95 45.85 -54.35 45.8 -54.65 45.6 -54.7 45.0 Q-54.3 43.45 -54.3 42.0 L-54.15 40.8 -53.3 39.6 M-54.25 52.35 L-54.2 52.4 -54.55 52.45 Q-55.15 52.45 -55.1 51.3 -54.9 49.3 -54.15 48.85 -53.65 49.25 -53.65 49.7 L-54.25 52.35" fill="#ffd633" fill-rule="evenodd" stroke="none"/>
    <path d="M-63.95 -1.55 L-63.65 -1.15 -63.0 -1.95 -62.75 -1.6 -62.65 -1.1 -62.7 -0.9 -60.3 -4.4 -59.95 -3.5 Q-59.95 0.1 -64.9 3.7 L-65.35 3.25 Q-66.15 4.25 -66.5 4.25 L-66.85 4.0 Q-67.0 3.75 -67.25 3.75 L-67.6 4.05 -68.4 4.45 -68.75 4.35 -68.9 3.9 Q-68.9 3.3 -64.3 -1.75 L-63.95 -1.55 M-42.2 -17.9 Q-42.55 -17.75 -42.6 -17.75 -44.0 -17.75 -44.05 -19.15 -44.05 -21.1 -41.95 -20.75 -40.1 -20.45 -39.85 -19.8 L-40.2 -20.0 -40.85 -20.05 Q-42.25 -19.9 -42.25 -18.05 L-42.2 -17.9 M-51.8 32.5 L-51.85 33.35 -52.25 34.9 -52.55 35.9 -52.3 34.85 -52.05 33.65 -52.0 33.3 -51.8 32.5 M-53.6 34.95 L-53.65 34.55 -53.45 33.9 -53.25 33.25 Q-53.25 32.35 -53.55 31.35 L-53.85 29.15 -53.65 28.3 -53.45 27.4 -53.95 26.25 Q-54.5 25.2 -54.5 24.55 -54.5 23.55 -53.7 21.3 -52.9 19.0 -52.9 17.4 -53.15 16.6 -53.0 16.2 -52.7 15.55 -50.45 14.25 -49.65 13.8 -49.3 12.55 -48.9 11.2 -48.35 10.8 -46.5 9.4 -45.7 7.45 L-44.4 3.9 -44.3 2.0 Q-44.35 0.75 -43.8 0.4 L-42.45 0.3 -43.05 -1.7 -43.75 -4.25 -43.85 -5.95 Q-43.75 -6.8 -42.95 -7.55 -44.1 -8.9 -45.05 -13.4 -45.9 -17.1 -49.15 -19.25 -47.2 -19.35 -45.2 -17.6 L-44.65 -17.1 -44.7 -16.75 -44.65 -16.45 -44.65 -16.55 -44.5 -16.45 -43.6 -15.2 -43.3 -14.75 -43.3 -14.55 -43.2 -14.55 -41.8 -11.5 -40.4 -7.8 -40.5 -7.75 -40.4 -7.25 -40.35 -7.25 Q-40.35 -6.5 -40.7 -5.7 L-41.1 -4.35 Q-41.1 -3.15 -40.5 -2.15 -39.95 -1.15 -39.95 -0.05 L-39.8 1.8 Q-39.85 2.4 -40.65 4.25 L-40.9 4.8 -41.75 6.35 -42.7 8.5 -42.75 8.55 Q-43.2 9.95 -44.05 11.35 L-46.65 14.65 -49.3 17.45 -49.2 17.85 -48.9 17.95 Q-50.25 19.45 -50.25 22.4 -50.25 22.8 -51.35 25.35 L-51.8 26.5 -52.45 28.7 -52.05 31.4 -52.95 33.35 -53.45 34.6 -53.6 35.0 -53.6 34.95 M-47.05 6.05 Q-48.0 8.4 -48.95 9.4 L-48.05 10.1 Q-48.05 10.9 -49.45 10.9 -50.6 10.9 -51.45 9.15 L-52.1 7.35 Q-52.1 3.25 -49.1 0.6 -47.85 -0.45 -47.05 -0.15 -46.1 0.25 -46.1 2.35 -46.1 3.7 -47.05 6.05" fill="#ffd633" fill-opacity="0.4" fill-rule="evenodd" stroke="none"/>
  </g>
</svg>
