<?xml version="1.0" encoding="UTF-8" standalone="no"?>
<svg xmlns:xlink="http://www.w3.org/1999/xlink" height="33.0px" width="24.45px" xmlns="http://www.w3.org/2000/svg">
  <g transform="matrix(1.0, 0.0, 0.0, 1.0, -4.95, 20.4)">
    <path d="M19.35 -19.7 Q19.95 -20.3 20.45 -20.4 20.2 -17.7 19.25 -17.7 18.65 -17.7 18.65 -18.45 18.65 -19.05 19.35 -19.7 M28.15 -16.05 Q27.65 -16.05 27.65 -16.55 27.65 -17.55 28.4 -18.4 L29.4 -19.4 29.15 -18.7 28.85 -17.8 Q28.9 -16.05 28.15 -16.05 M10.25 7.5 L10.65 8.75 Q11.05 7.95 11.5 7.95 L12.05 8.15 12.3 8.05 Q12.9 8.05 12.8 9.0 12.7 9.95 12.25 10.2 L11.25 10.6 10.75 11.5 9.85 12.6 9.75 12.4 10.0 10.55 9.95 10.4 9.85 8.65 9.85 8.4 9.8 7.85 10.15 7.6 10.25 7.5 M9.0 6.25 Q9.7 6.25 9.6 7.5 9.55 8.3 8.9 8.6 L7.4 10.85 Q7.25 10.95 7.25 10.7 L7.85 8.4 7.85 8.45 Q7.7 8.15 7.7 7.5 7.7 6.0 8.05 6.0 8.5 6.0 8.55 6.65 L8.9 6.3 9.0 6.25 M5.3 8.2 Q4.95 8.2 4.95 7.85 4.95 7.55 5.5 6.7 L6.05 5.9 Q6.75 5.9 6.25 7.05 5.7 8.2 5.3 8.2" fill="#f8d687" fill-rule="evenodd" stroke="none"/>
  </g>
</svg>
