<?xml version="1.0" encoding="UTF-8" standalone="no"?>
<svg xmlns:xlink="http://www.w3.org/1999/xlink" height="87.5px" width="42.2px" xmlns="http://www.w3.org/2000/svg">
  <g transform="matrix(1.0, 0.0, 0.0, 1.0, 23.3, 38.6)">
    <path d="M3.05 9.8 L3.4 10.35 3.2 11.3 2.9 11.75 Q2.7 12.5 2.65 13.4 L2.5 14.85 2.55 14.85 Q2.95 12.7 3.8 10.75 4.55 8.9 6.65 5.1 L7.05 4.9 5.85 7.45 Q4.65 10.05 4.2 11.85 L3.45 16.2 3.4 16.55 3.05 19.25 3.5 48.35 1.3 48.35 Q1.9 42.8 1.7 37.4 L1.6 35.0 0.35 48.35 -0.15 48.35 -0.25 46.6 Q-0.25 43.85 0.3 39.7 L1.9 29.35 1.9 28.85 1.1 31.4 0.45 34.0 0.45 30.65 0.45 28.4 0.6 26.55 0.8 25.1 1.0 22.15 1.25 16.25 1.2 15.65 1.05 13.0 1.15 12.8 3.05 9.8 M1.65 20.2 Q1.25 20.9 1.25 23.75 L1.65 28.35 1.75 28.35 2.1 25.2 1.85 23.35 Q1.55 22.45 1.55 20.8 L1.65 20.2" fill="#964d2e" fill-rule="evenodd" stroke="none"/>
    <path d="M-0.15 48.35 L-3.4 48.9 -2.6 17.4 Q-3.2 14.55 -4.0 12.75 -5.3 9.75 -7.45 8.6 L-7.45 8.5 -6.65 8.1 Q-5.8 8.1 -3.85 10.55 L-2.6 12.35 -2.6 11.3 Q-3.65 8.4 -5.8 5.9 L-5.25 5.7 -4.85 5.5 Q-4.15 5.5 -2.6 7.85 L-2.6 -2.05 3.05 -2.05 3.05 6.1 3.45 5.4 Q3.7 4.8 3.95 4.8 L4.6 5.1 3.75 6.95 3.05 9.0 3.05 9.8 1.15 12.8 1.05 13.0 1.2 15.65 1.25 16.25 1.0 22.15 0.8 25.1 0.6 26.55 0.45 28.4 0.45 30.65 0.45 34.0 1.1 31.4 1.9 28.85 1.9 29.35 0.3 39.7 Q-0.25 43.85 -0.25 46.6 L-0.15 48.35 M3.2 11.3 L3.7 9.65 3.8 9.4 5.0 6.8 Q5.55 5.5 6.2 5.25 L6.65 5.1 Q4.55 8.9 3.8 10.75 2.95 12.7 2.55 14.85 L2.5 14.85 2.65 13.4 Q2.7 12.5 2.9 11.75 L3.2 11.3 M1.3 48.35 L0.35 48.35 1.6 35.0 1.7 37.4 Q1.9 42.8 1.3 48.35 M-2.6 7.85 L-1.85 9.0 Q-0.7 10.9 -0.05 12.55 L0.5 13.9 1.2 15.65 0.5 13.9 -0.05 12.55 Q-0.7 10.9 -1.85 9.0 L-2.6 7.85 M3.05 9.0 L3.05 6.1 3.05 9.0 M1.65 20.2 L1.55 20.8 Q1.55 22.45 1.85 23.35 L2.1 25.2 1.75 28.35 1.65 28.35 1.25 23.75 Q1.25 20.9 1.65 20.2 M-1.7 15.45 Q-1.9 13.25 -2.6 11.3 -1.9 13.25 -1.7 15.45 M-2.6 12.35 L-2.6 17.4 -2.6 12.35" fill="#62321e" fill-rule="evenodd" stroke="none"/>
    <path d="M-0.15 48.35 L-3.4 48.9 -2.6 17.4 Q-3.2 14.55 -4.0 12.75 -5.3 9.75 -7.45 8.6 L-7.45 8.5 -6.65 8.1 Q-5.8 8.1 -3.85 10.55 L-2.6 12.35 -2.6 11.3 Q-3.65 8.4 -5.8 5.9 L-5.25 5.7 -4.85 5.5 Q-4.15 5.5 -2.6 7.85 L-2.6 -2.05 3.05 -2.05 3.05 6.1 3.45 5.4 Q3.7 4.8 3.95 4.8 L4.6 5.1 3.75 6.95 3.05 9.0 3.05 9.8 3.4 10.35 3.2 11.3 3.7 9.65 3.8 9.4 5.0 6.8 Q5.55 5.5 6.2 5.25 L6.65 5.1 7.05 4.9 5.85 7.45 Q4.65 10.05 4.2 11.85 L3.45 16.2 3.4 16.55 3.05 19.25 3.5 48.35 1.3 48.35 0.35 48.35 -0.15 48.35 M1.2 15.65 L0.5 13.9 -0.05 12.55 Q-0.7 10.9 -1.85 9.0 L-2.6 7.85 M2.9 11.75 L3.2 11.3 M3.05 6.1 L3.05 9.0 M-2.6 17.4 L-2.6 12.35 M-2.6 11.3 Q-1.9 13.25 -1.7 15.45" fill="none" stroke="#000000" stroke-linecap="round" stroke-linejoin="round" stroke-opacity="0.4" stroke-width="0.05"/>
    <path d="M8.95 -25.1 L8.65 -25.4 Q6.35 -27.55 6.35 -28.35 6.35 -29.6 7.3 -28.75 L11.3 -33.95 11.55 -34.3 13.9 -34.45 Q15.45 -33.95 16.85 -32.5 L18.05 -30.95 17.7 -31.45 16.8 -30.7 12.65 -27.95 11.0 -26.5 9.05 -25.2 8.95 -25.1 M14.3 -23.8 L14.5 -23.4 Q14.5 -22.9 13.7 -22.9 L14.3 -23.8 M-11.7 -36.5 L-9.95 -37.6 Q-8.15 -38.5 -6.6 -38.6 -5.05 -38.65 -4.65 -37.85 L-4.65 -37.75 -2.6 -32.95 -1.95 -31.2 -2.0 -30.9 Q-2.1 -30.6 -2.3 -30.6 -2.55 -30.6 -2.4 -30.65 L-2.55 -31.05 -3.85 -29.6 Q-4.9 -28.95 -6.6 -28.65 L-7.0 -29.2 -9.1 -32.55 -11.7 -36.5 M-9.7 -28.55 L-9.75 -28.6 -9.9 -28.85 -9.8 -28.95 -9.7 -28.55 M-15.45 -10.2 L-14.75 -10.35 Q-14.85 -10.15 -15.2 -10.15 L-15.45 -10.2 M-16.25 -18.35 L-17.05 -18.3 -16.25 -18.35" fill="#6c7071" fill-rule="evenodd" stroke="none"/>
    <path d="M9.5 -24.65 L9.45 -24.65 8.9 -25.1 8.95 -25.1 9.5 -24.65 8.95 -25.1 9.05 -25.2 11.0 -26.5 12.65 -27.95 16.8 -30.7 17.7 -31.45 18.05 -30.95 18.2 -30.7 18.45 -30.25 18.45 -30.15 18.75 -29.4 Q19.2 -27.8 18.45 -27.1 L18.4 -27.05 18.25 -26.95 14.3 -23.8 13.7 -22.9 13.65 -22.9 Q11.65 -22.9 9.5 -24.65 M15.35 0.35 L15.0 0.7 14.85 0.8 Q13.35 2.1 11.9 2.6 10.65 3.05 10.05 2.6 L7.55 -0.9 7.05 -1.1 6.85 -1.55 6.6 -2.4 Q6.6 -3.6 7.8 -5.55 L8.65 -6.65 9.05 -7.05 10.85 -5.25 14.05 -1.4 15.35 0.35 M-6.6 -28.65 L-7.35 -28.55 -9.4 -28.45 -9.7 -28.5 -9.7 -28.55 -9.8 -28.95 -13.2 -33.15 -13.3 -33.25 -13.4 -33.45 Q-13.8 -34.2 -12.75 -35.45 L-12.25 -36.0 -11.7 -36.5 -9.1 -32.55 -7.0 -29.2 -6.6 -28.65 M-15.45 -10.2 L-20.25 -9.1 -20.4 -9.05 Q-21.25 -8.9 -22.1 -10.15 -22.85 -11.4 -23.2 -13.3 -23.5 -15.15 -23.0 -16.45 -22.5 -17.75 -22.05 -17.9 L-21.45 -18.0 -17.05 -18.3 -16.25 -18.35 -16.15 -18.35 -15.55 -17.75 Q-14.1 -16.2 -14.1 -14.5 L-14.65 -11.35 -14.55 -10.7 -14.6 -10.4 -14.75 -10.35 -15.45 -10.2" fill="#404040" fill-rule="evenodd" stroke="none"/>
    <path d="M9.05 -7.05 Q10.45 -8.3 12.4 -8.3 13.3 -8.3 13.35 -7.8 L13.35 -7.75 17.1 -4.3 17.4 -4.1 Q17.95 -3.45 17.2 -2.0 16.6 -0.8 15.35 0.35 L14.05 -1.4 10.85 -5.25 9.05 -7.05" fill="#585a5a" fill-rule="evenodd" stroke="none"/>
    <path d="M9.5 -24.65 L8.95 -25.1 8.65 -25.4 Q6.35 -27.55 6.35 -28.35 6.35 -29.6 7.3 -28.75 L11.3 -33.95 11.55 -34.3 13.9 -34.45 Q15.45 -33.95 16.85 -32.5 L18.05 -30.95 18.2 -30.7 18.45 -30.25 18.45 -30.15 18.75 -29.4 Q19.2 -27.8 18.45 -27.1 L18.4 -27.05 18.25 -26.95 14.3 -23.8 13.7 -22.9 13.65 -22.9 Q11.65 -22.9 9.5 -24.65 M15.35 0.35 L15.0 0.7 14.85 0.8 Q13.35 2.1 11.9 2.6 10.65 3.05 10.05 2.6 L7.55 -0.9 7.05 -1.1 6.85 -1.55 6.6 -2.4 Q6.6 -3.6 7.8 -5.55 L8.65 -6.65 9.05 -7.05 Q10.45 -8.3 12.4 -8.3 13.3 -8.3 13.35 -7.8 L13.35 -7.75 17.1 -4.3 17.4 -4.1 Q17.95 -3.45 17.2 -2.0 16.6 -0.8 15.35 0.35 M-11.7 -36.5 L-9.95 -37.6 Q-8.15 -38.5 -6.6 -38.6 -5.05 -38.65 -4.65 -37.85 L-4.65 -37.75 -2.6 -32.95 -1.95 -31.2 -2.0 -30.9 Q-2.1 -30.6 -2.3 -30.6 -2.55 -30.6 -2.4 -30.65 L-2.55 -31.05 -3.85 -29.6 Q-4.9 -28.95 -6.6 -28.65 L-7.35 -28.55 -9.4 -28.45 -9.7 -28.5 -9.7 -28.55 M-9.8 -28.95 L-13.2 -33.15 -13.3 -33.25 -13.4 -33.45 Q-13.8 -34.2 -12.75 -35.45 L-12.25 -36.0 -11.7 -36.5 M-9.8 -28.95 L-9.7 -28.55 M-17.05 -18.3 L-21.45 -18.0 -22.05 -17.9 Q-22.5 -17.75 -23.0 -16.45 -23.5 -15.15 -23.2 -13.3 -22.85 -11.4 -22.1 -10.15 -21.25 -8.9 -20.4 -9.05 L-20.25 -9.1 -15.45 -10.2 -14.75 -10.35 -14.6 -10.4 -14.55 -10.7 -14.65 -11.35 -14.1 -14.5 Q-14.1 -16.2 -15.55 -17.75 L-16.15 -18.35 -16.25 -18.35 -17.05 -18.3" fill="none" stroke="#000000" stroke-linecap="round" stroke-linejoin="round" stroke-opacity="0.4" stroke-width="0.05"/>
    <path d="M1.6 -34.7 L1.65 -34.7 Q8.2 -34.1 12.95 -29.35 17.5 -24.8 18.25 -18.6 L18.2 -18.15 Q17.9 -15.15 17.4 -14.3 16.25 -12.3 14.55 -10.75 11.75 -8.3 8.5 -8.3 0.3 -8.3 -2.95 -13.4 -5.2 -16.95 -5.2 -23.8 -5.2 -27.55 -4.25 -30.0 -3.75 -31.15 -2.05 -33.05 -1.05 -34.05 -0.1 -34.45 L1.6 -34.7 M18.3 -14.15 L18.2 -13.55 18.2 -13.6 18.3 -14.15" fill="#6c7071" fill-rule="evenodd" stroke="none"/>
    <path d="M15.7 -6.45 L15.1 -5.6 14.05 -4.2 12.95 -3.05 Q7.5 2.4 -0.2 2.4 -7.95 2.4 -13.35 -3.05 -18.8 -8.45 -18.8 -16.2 -18.8 -23.9 -13.35 -29.35 L-11.0 -31.4 -10.85 -31.5 -9.6 -32.3 -9.2 -32.5 Q-7.45 -33.5 -5.5 -34.05 L-6.45 -32.5 Q-8.85 -28.15 -8.85 -22.8 -8.85 -16.5 -4.45 -11.15 0.65 -4.95 8.75 -4.95 11.8 -4.95 14.8 -6.1 L15.7 -6.45" fill="#404040" fill-rule="evenodd" stroke="none"/>
    <path d="M-5.5 -34.05 L-2.0 -34.7 -0.2 -34.8 0.05 -34.8 1.6 -34.7 -0.1 -34.45 Q-1.05 -34.05 -2.05 -33.05 -3.75 -31.15 -4.25 -30.0 -5.2 -27.55 -5.2 -23.8 -5.2 -16.95 -2.95 -13.4 0.3 -8.3 8.5 -8.3 11.75 -8.3 14.55 -10.75 16.25 -12.3 17.4 -14.3 17.9 -15.15 18.2 -18.15 L18.25 -18.6 18.3 -18.1 18.4 -16.5 18.4 -16.2 18.3 -14.15 18.2 -13.6 18.2 -13.55 Q17.75 -9.7 15.7 -6.45 L14.8 -6.1 Q11.8 -4.95 8.75 -4.95 0.65 -4.95 -4.45 -11.15 -8.85 -16.5 -8.85 -22.8 -8.85 -28.15 -6.45 -32.5 L-5.5 -34.05" fill="#585a5a" fill-rule="evenodd" stroke="none"/>
    <path d="M-5.5 -34.05 L-2.0 -34.7 -0.2 -34.8 0.05 -34.8 1.6 -34.7 1.65 -34.7 Q8.2 -34.1 12.95 -29.35 17.5 -24.8 18.25 -18.6 L18.3 -18.1 18.4 -16.5 18.4 -16.2 18.3 -14.15 18.2 -13.55 Q17.75 -9.7 15.7 -6.45 L15.1 -5.6 14.05 -4.2 12.95 -3.05 Q7.5 2.4 -0.2 2.4 -7.95 2.4 -13.35 -3.05 -18.8 -8.45 -18.8 -16.2 -18.8 -23.9 -13.35 -29.35 L-11.0 -31.4 -10.85 -31.5 -9.6 -32.3 -9.2 -32.5 Q-7.45 -33.5 -5.5 -34.05 Z" fill="none" stroke="#000000" stroke-linecap="round" stroke-linejoin="round" stroke-opacity="0.4" stroke-width="0.05"/>
    <path d="M5.65 -24.45 L5.05 -23.45 4.85 -23.05 Q3.95 -20.85 4.65 -18.2 5.35 -15.65 7.2 -14.15 8.3 -13.35 9.35 -13.1 L10.25 -13.0 8.15 -12.4 8.1 -12.4 7.95 -12.35 7.85 -12.3 Q6.2 -11.95 4.55 -13.25 2.9 -14.5 2.3 -16.75 1.65 -19.05 2.45 -21.05 3.0 -22.25 3.85 -22.9 L5.65 -24.45 M-16.85 -21.85 Q-15.6 -20.95 -13.75 -21.55 L-13.6 -21.6 Q-11.65 -22.3 -10.3 -24.2 L-8.5 -22.6 -6.65 -20.9 -6.45 -20.65 -6.3 -20.75 Q-7.6 -19.0 -9.4 -18.35 -11.3 -17.65 -12.55 -18.55 L-12.7 -18.65 -16.85 -21.85 M-6.2 -20.95 L-6.15 -21.05 -6.1 -21.05 -6.2 -20.95 M-8.35 -11.7 L-8.8 -11.25 -10.75 -9.0 -12.3 -7.05 Q-13.75 -6.95 -14.6 -6.1 L-10.75 -10.75 Q-9.85 -11.7 -8.35 -11.7 M-6.95 -4.7 L-6.55 -5.2 -5.25 -7.1 Q-3.95 -8.65 -3.55 -9.6 -2.35 -8.5 -1.9 -7.05 -1.25 -5.1 -2.2 -3.85 L-5.4 0.9 Q-4.7 -0.35 -5.25 -2.1 L-5.55 -2.8 Q-6.0 -3.85 -6.95 -4.7" fill="#404040" fill-rule="evenodd" stroke="none"/>
    <path d="M-16.85 -21.85 Q-18.15 -22.8 -18.1 -24.9 -18.1 -26.95 -16.75 -28.85 -15.35 -30.8 -13.35 -31.45 -11.5 -32.05 -10.25 -31.2 L-10.2 -31.2 -9.55 -30.55 Q-8.8 -29.65 -8.85 -28.15 L-8.9 -27.8 Q-9.0 -26.3 -9.9 -24.8 L-10.3 -24.2 -9.9 -24.8 Q-9.0 -26.3 -8.9 -27.8 L-8.85 -28.15 Q-8.8 -29.65 -9.55 -30.55 L-6.2 -27.45 -6.0 -27.3 Q-4.9 -26.4 -4.85 -24.6 -4.95 -22.8 -6.1 -21.05 L-6.15 -21.05 -6.2 -20.95 -6.25 -20.85 -6.3 -20.8 -6.3 -20.75 -6.45 -20.65 -6.65 -20.9 -8.5 -22.6 -10.3 -24.2 Q-11.65 -22.3 -13.6 -21.6 L-13.75 -21.55 Q-15.6 -20.95 -16.85 -21.85" fill="#6c7071" fill-rule="evenodd" stroke="none"/>
    <path d="M-12.3 -7.05 L-10.75 -9.0 -8.8 -11.25 -8.35 -11.7 -8.2 -11.7 -8.0 -11.7 -7.7 -11.65 Q-5.9 -11.5 -4.25 -10.2 L-4.25 -10.15 -3.8 -9.8 -3.55 -9.6 Q-3.95 -8.65 -5.25 -7.1 L-6.55 -5.2 -6.95 -4.7 -7.75 -5.45 -8.05 -5.65 -8.6 -6.05 Q-9.8 -6.8 -11.1 -6.95 L-11.45 -7.0 -11.7 -7.05 -12.3 -7.05 -11.7 -7.05 -11.45 -7.0 -11.1 -6.95 Q-9.8 -6.8 -8.6 -6.05 L-8.05 -5.65 -7.75 -5.45 -6.95 -4.7 Q-6.0 -3.85 -5.55 -2.8 L-5.25 -2.1 Q-4.7 -0.35 -5.4 0.9 L-5.6 1.2 Q-6.55 2.5 -8.7 2.4 -10.7 2.35 -12.6 0.9 -14.5 -0.6 -15.15 -2.55 -15.75 -4.55 -14.8 -5.85 L-14.75 -5.9 -14.6 -6.1 Q-13.75 -6.95 -12.3 -7.05" fill="#585a5a" fill-rule="evenodd" stroke="none"/>
    <path d="M10.25 -13.0 L11.15 -13.15 12.05 -13.55 Q13.35 -14.3 14.0 -16.0 14.9 -18.2 14.2 -20.75 13.5 -23.4 11.65 -24.9 9.7 -26.35 7.75 -25.8 L7.05 -25.55 Q6.25 -25.2 5.65 -24.45 L5.05 -23.45 4.85 -23.05 Q3.95 -20.85 4.65 -18.2 5.35 -15.65 7.2 -14.15 8.3 -13.35 9.35 -13.1 L10.25 -13.0 8.15 -12.4 8.1 -12.4 7.95 -12.35 7.85 -12.3 Q6.2 -11.95 4.55 -13.25 2.9 -14.5 2.3 -16.75 1.65 -19.05 2.45 -21.05 3.0 -22.25 3.85 -22.9 L5.65 -24.45 M-9.55 -30.55 L-10.2 -31.2 -10.25 -31.2 Q-11.5 -32.05 -13.35 -31.45 -15.35 -30.8 -16.75 -28.85 -18.1 -26.95 -18.1 -24.9 -18.15 -22.8 -16.85 -21.85 -15.6 -20.95 -13.75 -21.55 L-13.6 -21.6 Q-11.65 -22.3 -10.3 -24.2 L-9.9 -24.8 Q-9.0 -26.3 -8.9 -27.8 L-8.85 -28.15 Q-8.8 -29.65 -9.55 -30.55 L-10.1 -31.15 -10.2 -31.2 M-6.1 -21.05 Q-4.95 -22.8 -4.85 -24.6 -4.9 -26.4 -6.0 -27.3 L-6.2 -27.45 -9.55 -30.55 M-6.0 -27.3 L-6.15 -27.45 -6.2 -27.45 M-6.2 -20.95 L-6.1 -21.05 M-6.2 -20.95 L-6.25 -20.85 -6.3 -20.8 -6.3 -20.75 Q-7.6 -19.0 -9.4 -18.35 -11.3 -17.65 -12.55 -18.55 L-12.7 -18.65 -16.85 -21.85 M-12.3 -7.05 L-11.7 -7.05 -11.45 -7.0 -11.1 -6.95 Q-9.8 -6.8 -8.6 -6.05 L-8.05 -5.65 -7.75 -5.45 -6.95 -4.7 M-3.55 -9.6 L-3.8 -9.8 M-4.25 -10.15 L-4.25 -10.2 Q-5.9 -11.5 -7.7 -11.65 L-8.0 -11.7 -8.2 -11.7 M-8.35 -11.7 Q-9.85 -11.7 -10.75 -10.75 L-14.6 -6.1 Q-13.75 -6.95 -12.3 -7.05 M-14.6 -6.1 L-14.75 -5.9 -14.8 -5.85 Q-15.75 -4.55 -15.15 -2.55 -14.5 -0.6 -12.6 0.9 -10.7 2.35 -8.7 2.4 -6.55 2.5 -5.6 1.2 L-5.4 0.9 Q-4.7 -0.35 -5.25 -2.1 L-5.55 -2.8 Q-6.0 -3.85 -6.95 -4.7 M-5.4 0.9 L-2.2 -3.85 Q-1.25 -5.1 -1.9 -7.05 -2.35 -8.5 -3.55 -9.6" fill="none" stroke="#000000" stroke-linecap="round" stroke-linejoin="round" stroke-opacity="0.4" stroke-width="0.05"/>
    <path d="M-0.05 -25.7 Q-0.2 -25.5 -0.55 -25.5 -0.8 -25.5 -1.0 -25.75 L-1.15 -26.2 Q-1.15 -26.8 -0.55 -26.75 0.05 -26.7 0.05 -26.2 L-0.05 -25.7 M4.85 -27.15 L4.4 -27.6 4.6 -27.9 5.3 -27.45 4.85 -27.15 M1.05 -26.65 L0.85 -27.4 Q0.85 -28.25 1.95 -28.4 3.1 -28.5 3.1 -27.45 L3.05 -26.9 Q2.8 -26.25 1.9 -26.25 1.35 -26.25 1.05 -26.65" fill="#ffffff" fill-rule="evenodd" stroke="none"/>
  </g>
</svg>
