<?xml version="1.0" encoding="UTF-8" standalone="no"?>
<svg xmlns:xlink="http://www.w3.org/1999/xlink" height="14.05px" width="20.15px" xmlns="http://www.w3.org/2000/svg">
  <g transform="matrix(1.0, 0.0, 0.0, 1.0, 16.65, 24.85)">
    <path d="M3.5 -20.0 Q3.25 -19.6 2.7 -19.65 L2.4 -19.8 2.4 -20.15 3.45 -20.1 3.5 -20.0 M1.85 -17.75 Q1.85 -18.25 2.85 -18.6 L3.05 -18.5 3.15 -18.25 Q3.15 -17.85 2.25 -17.4 L1.95 -17.5 Q1.85 -17.55 1.85 -17.75 M-0.15 -19.9 Q-0.15 -19.35 -1.05 -19.35 -1.8 -19.35 -1.8 -20.0 L-1.7 -20.3 -0.15 -20.1 -0.15 -19.9 M-9.0 -23.7 Q-10.05 -23.7 -10.05 -24.2 -10.05 -24.85 -9.0 -24.85 -8.0 -24.8 -8.0 -24.3 -8.0 -23.7 -9.0 -23.7 M-1.8 -14.55 L-1.35 -15.05 -0.45 -15.35 -0.45 -15.15 Q-0.45 -14.8 -1.25 -14.25 L-1.7 -14.4 -1.75 -14.3 -1.8 -14.55 M-15.9 -10.8 Q-16.7 -10.8 -16.65 -11.45 -16.65 -12.1 -15.8 -12.05 -15.0 -12.0 -15.0 -11.45 -15.0 -10.8 -15.9 -10.8 M-5.45 -11.65 L-6.0 -11.25 -6.45 -11.75 Q-6.45 -12.15 -5.25 -12.6 L-4.85 -12.3 -5.45 -11.65" fill="#ffffff" fill-rule="evenodd" stroke="none"/>
  </g>
</svg>
