<?xml version="1.0" encoding="UTF-8" standalone="no"?>
<svg xmlns:xlink="http://www.w3.org/1999/xlink" height="31.7px" width="62.5px" xmlns="http://www.w3.org/2000/svg">
  <g transform="matrix(1.0, 0.0, 0.0, 1.0, 31.4, 15.85)">
    <path d="M23.1 -10.15 Q26.2 -7.7 28.75 -4.35 32.65 0.8 30.1 6.5 27.45 12.55 21.25 14.8 15.15 17.1 9.15 14.25 3.75 11.7 -0.5 7.6 -4.05 3.95 -7.4 -1.15 -11.85 -5.25 -14.5 -6.2 L-17.15 -5.95 -19.5 -4.8 Q-22.95 -2.5 -26.15 3.0 -29.6 8.85 -28.1 11.1 -27.7 11.75 -28.05 12.4 L-28.55 12.95 -29.8 12.9 -30.65 12.25 Q-31.35 11.15 -29.75 6.95 -28.4 3.3 -27.0 1.15 L-23.9 -3.3 -20.2 -6.3 Q-15.7 -9.35 -10.25 -5.65 -7.7 -3.85 -0.4 3.85 L1.6 5.9 3.75 7.95 Q8.65 12.55 15.8 12.05 22.35 11.65 25.6 5.55 26.35 4.15 26.05 2.45 25.25 -3.95 19.1 -7.15 14.9 -9.6 9.05 -10.75 -1.0 -12.75 -7.0 -10.2 -8.5 -9.55 -13.0 -9.05 -17.35 -8.5 -18.9 -7.7 -21.4 -6.5 -25.2 -5.65 L-30.7 -5.85 Q-31.35 -6.85 -30.85 -7.85 L-30.15 -8.55 Q-29.45 -9.0 -26.8 -9.65 L-24.25 -10.2 -13.45 -12.0 -12.0 -12.2 -10.2 -12.75 Q-8.0 -13.35 -7.1 -13.75 L-4.7 -14.4 -1.95 -15.25 Q-1.15 -15.8 2.35 -15.85 L10.8 -15.05 Q18.3 -13.65 23.1 -10.15" fill="#545656" fill-rule="evenodd" stroke="none"/>
    <path d="M26.3 -2.8 L25.8 -3.2 25.15 -4.85 24.05 -6.6 24.1 -6.65 26.4 -4.65 Q28.2 -2.8 26.3 -2.8 M-29.65 -7.75 Q-30.05 -8.05 -30.05 -8.8 L-30.0 -9.65 -29.75 -9.75 Q-29.35 -9.75 -29.3 -9.1 -29.2 -8.4 -29.65 -7.75 M-9.6 -12.7 L-10.0 -13.15 Q-10.0 -14.0 -9.4 -13.8 -8.65 -13.8 -8.5 -13.1 -8.35 -12.4 -9.0 -12.4 -9.2 -12.4 -9.6 -12.7 M-2.75 -13.65 Q-3.45 -13.65 -3.6 -14.1 -3.4 -14.55 -2.75 -14.55 -1.75 -14.55 -1.75 -14.1 -1.75 -13.65 -2.75 -13.65 M-14.65 -11.55 L-16.4 -11.35 -16.75 -11.4 -16.8 -11.65 Q-16.8 -12.55 -14.15 -12.75 -13.25 -12.75 -13.6 -12.15 -13.95 -11.5 -14.65 -11.55 M-24.4 13.9 L-24.5 13.65 -23.9 12.95 -23.2 12.55 Q-22.55 12.55 -22.95 13.25 -23.35 13.95 -23.95 13.95 L-24.4 13.9 M27.05 1.05 Q26.75 0.6 26.75 0.25 26.75 -0.45 27.3 -0.3 27.95 -0.3 28.05 0.6 28.15 1.5 27.55 1.5 L27.05 1.05" fill="#cfcfda" fill-rule="evenodd" stroke="none"/>
    <path d="M7.35 -10.75 Q3.0 -11.6 -1.2 -10.05 L-2.2 -9.6 -2.95 -9.8 Q-4.5 -10.55 -6.05 -10.65 L-6.55 -10.1 Q-7.75 -8.3 -9.75 -8.75 L-10.3 -9.0 -11.5 -9.45 Q-12.05 -9.45 -12.35 -9.1 L-13.2 -8.4 -15.3 -7.85 -15.2 -7.85 Q-12.7 -7.85 -9.75 -5.5 -3.5 1.2 4.05 7.2 11.6 13.2 17.85 11.15 24.05 9.05 25.05 5.25 26.05 1.4 23.25 -3.1 21.3 -6.2 18.45 -7.75 13.05 -9.65 7.35 -10.75 M-24.3 10.25 Q-24.1 8.55 -22.5 8.55 -21.65 8.55 -21.45 9.4 L-21.45 10.65 Q-21.45 12.3 -22.3 13.35 -23.35 14.55 -25.3 14.55 -30.2 14.55 -30.2 8.45 -30.2 3.35 -25.7 -2.0 -22.65 -5.65 -19.3 -7.0 L-19.95 -6.9 -25.05 -5.2 Q-26.7 -4.65 -28.45 -5.2 -29.2 -3.9 -29.55 -3.9 -30.85 -3.9 -31.2 -5.1 -31.4 -5.75 -31.4 -7.7 L-31.35 -9.55 Q-31.25 -10.6 -30.75 -10.95 -30.1 -10.95 -29.65 -10.6 -29.25 -10.25 -28.85 -10.25 L-24.6 -11.0 -20.75 -11.85 -17.65 -12.85 -14.3 -13.7 Q-13.55 -13.7 -13.1 -13.35 -12.65 -13.05 -12.2 -13.05 -11.65 -13.05 -11.0 -14.05 -10.4 -14.9 -9.75 -15.0 L-9.2 -14.85 -8.75 -14.65 -7.85 -14.05 -7.3 -13.7 -6.5 -13.95 -5.65 -15.8 -1.2 -15.85 9.9 -15.0 18.45 -12.6 Q21.15 -11.35 23.4 -9.55 27.9 -6.0 29.4 -0.9 30.85 4.2 27.7 9.05 24.5 13.9 20.15 15.25 15.8 16.55 10.0 14.2 4.15 11.85 -0.75 6.65 L-9.75 -2.85 -9.9 -3.0 Q-13.65 -6.5 -15.45 -6.5 -17.3 -6.55 -19.9 -4.55 -22.55 -2.55 -24.0 -0.6 -25.5 1.3 -26.9 4.2 -28.35 7.2 -28.35 9.3 -28.35 12.65 -25.5 12.65 -24.6 12.65 -23.7 12.1 -22.65 11.5 -22.65 10.75 -22.65 10.1 -22.8 9.95 L-23.5 9.75 Q-23.9 9.75 -24.3 10.25 M-14.65 -11.55 Q-13.95 -11.5 -13.6 -12.15 -13.25 -12.75 -14.15 -12.75 -16.8 -12.55 -16.8 -11.65 L-16.75 -11.4 -16.4 -11.35 -14.65 -11.55 M-2.75 -13.65 Q-1.75 -13.65 -1.75 -14.1 -1.75 -14.55 -2.75 -14.55 -3.4 -14.55 -3.6 -14.1 -3.45 -13.65 -2.75 -13.65 M-9.6 -12.7 Q-9.2 -12.4 -9.0 -12.4 -8.35 -12.4 -8.5 -13.1 -8.65 -13.8 -9.4 -13.8 -10.0 -14.0 -10.0 -13.15 L-9.6 -12.7 M-29.65 -7.75 Q-29.2 -8.4 -29.3 -9.1 -29.35 -9.75 -29.75 -9.75 L-30.0 -9.65 -30.05 -8.8 Q-30.05 -8.05 -29.65 -7.75 M26.3 -2.8 Q28.2 -2.8 26.4 -4.65 L24.1 -6.65 24.05 -6.6 25.15 -4.85 25.8 -3.2 26.3 -2.8 M-15.3 -7.85 Q-17.35 -7.85 -19.3 -7.0 -17.35 -7.85 -15.3 -7.85 M27.05 1.05 L27.55 1.5 Q28.15 1.5 28.05 0.6 27.95 -0.3 27.3 -0.3 26.75 -0.45 26.75 0.25 26.75 0.6 27.05 1.05 M-24.4 13.9 L-23.95 13.95 Q-23.35 13.95 -22.95 13.25 -22.55 12.55 -23.2 12.55 L-23.9 12.95 -24.5 13.65 -24.4 13.9" fill="#3e3f4a" fill-rule="evenodd" stroke="none"/>
    <path d="M7.35 -10.75 Q3.0 -11.6 -1.2 -10.05 L-2.2 -9.6 -2.95 -9.8 Q-4.5 -10.55 -6.05 -10.65 L-6.55 -10.1 Q-7.75 -8.3 -9.75 -8.75 L-10.3 -9.0 -11.5 -9.45 Q-12.05 -9.45 -12.35 -9.1 L-13.2 -8.4 -15.3 -7.85 -15.2 -7.85 Q-12.7 -7.85 -9.75 -5.5 -3.5 1.2 4.05 7.2 11.6 13.2 17.85 11.15 24.05 9.05 25.05 5.25 26.05 1.4 23.25 -3.1 21.3 -6.2 18.45 -7.75 13.05 -9.65 7.35 -10.75 M-24.3 10.25 Q-24.1 8.55 -22.5 8.55 -21.65 8.55 -21.45 9.4 L-21.45 10.65 Q-21.45 12.3 -22.3 13.35 -23.35 14.55 -25.3 14.55 -30.2 14.55 -30.2 8.45 -30.2 3.35 -25.7 -2.0 -22.65 -5.65 -19.3 -7.0 L-19.95 -6.9 -25.05 -5.2 Q-26.7 -4.65 -28.45 -5.2 -29.2 -3.9 -29.55 -3.9 -30.85 -3.9 -31.2 -5.1 -31.4 -5.75 -31.4 -7.7 L-31.35 -9.55 Q-31.25 -10.6 -30.75 -10.95 -30.1 -10.95 -29.65 -10.6 -29.25 -10.25 -28.85 -10.25 L-24.6 -11.0 -20.75 -11.85 -17.65 -12.85 -14.3 -13.7 Q-13.55 -13.7 -13.1 -13.35 -12.65 -13.05 -12.2 -13.05 -11.65 -13.05 -11.0 -14.05 -10.4 -14.9 -9.75 -15.0 L-9.2 -14.85 -8.75 -14.65 -7.85 -14.05 -7.3 -13.7 -6.5 -13.95 -5.65 -15.8 -1.2 -15.85 9.9 -15.0 18.45 -12.6 Q21.15 -11.35 23.4 -9.55 27.9 -6.0 29.4 -0.9 30.85 4.2 27.7 9.05 24.5 13.9 20.15 15.25 15.8 16.55 10.0 14.2 4.15 11.85 -0.75 6.65 L-9.75 -2.85 -9.9 -3.0 Q-13.65 -6.5 -15.45 -6.5 -17.3 -6.55 -19.9 -4.55 -22.55 -2.55 -24.0 -0.6 -25.5 1.3 -26.9 4.2 -28.35 7.2 -28.35 9.3 -28.35 12.65 -25.5 12.65 -24.6 12.65 -23.7 12.1 -22.65 11.5 -22.65 10.75 -22.65 10.1 -22.8 9.95 L-23.5 9.75 Q-23.9 9.75 -24.3 10.25 L-24.35 10.4 -24.35 10.25 -24.3 10.25 M-19.3 -7.0 Q-17.35 -7.85 -15.3 -7.85" fill="none" stroke="#000000" stroke-linecap="round" stroke-linejoin="round" stroke-opacity="0.4" stroke-width="0.05"/>
  </g>
</svg>
