<?xml version="1.0" encoding="UTF-8" standalone="no"?>
<svg xmlns:xlink="http://www.w3.org/1999/xlink" height="61.95px" width="44.2px" xmlns="http://www.w3.org/2000/svg">
  <g transform="matrix(1.0, 0.0, 0.0, 1.0, 22.1, 30.95)">
    <path d="M-15.45 -28.8 L-15.2 -28.4 -14.45 -25.8 -14.0 -25.15 -13.8 -24.9 -10.7 -20.7 -6.05 -15.5 -1.2 -10.6 4.1 -5.3 9.15 0.1 13.55 5.05 17.75 10.35 Q20.0 13.15 21.65 16.3 L20.3 17.35 20.6 17.45 22.1 21.2 18.05 23.65 14.1 15.9 14.25 30.45 9.55 31.0 9.55 25.6 9.35 20.15 Q9.15 17.2 8.3 14.4 L8.95 19.25 Q9.35 23.3 9.1 27.5 L7.0 27.1 6.95 23.15 Q6.8 19.5 5.75 15.95 L4.25 26.35 1.35 25.55 1.25 21.9 -0.1 22.0 -0.25 17.4 -0.45 15.35 Q-1.2 11.45 -2.25 7.7 L-4.35 0.7 -5.9 -3.7 -8.2 -9.55 Q-9.6 -12.7 -11.35 -15.7 -12.95 -18.45 -15.35 -20.7 L-16.9 -21.9 -18.05 -22.75 -21.65 -25.2 -21.8 -25.5 -21.7 -26.0 -21.85 -26.05 Q-22.15 -26.15 -21.9 -26.5 L-22.1 -26.85 -22.05 -28.45 -21.55 -29.8 -20.7 -30.6 -19.25 -30.9 -17.9 -30.9 Q-16.75 -30.8 -16.2 -29.95 L-15.45 -28.8 -15.6 -28.2 -15.45 -28.8 M-16.25 -25.0 L-16.85 -25.2 -18.05 -26.25 -16.85 -25.2 -16.25 -25.0 M5.75 15.95 L4.3 11.15 5.75 15.95 M8.3 14.4 Q7.4 11.45 5.9 8.6 4.55 6.15 2.9 4.2 4.55 6.15 5.9 8.6 7.4 11.45 8.3 14.4 M14.1 15.9 L10.25 10.1 6.6 5.4 2.4 0.3 6.6 5.4 10.25 10.1 14.1 15.9 M20.3 17.35 L18.85 18.5 Q17.75 15.9 16.15 13.6 L11.8 7.85 9.1 4.5 6.3 1.05 3.15 -2.5 6.3 1.05 9.1 4.5 11.8 7.85 16.15 13.6 Q17.75 15.9 18.85 18.5 L20.3 17.35 M1.25 21.9 L1.9 21.85 1.95 20.15 Q1.9 17.05 1.3 14.0 L-0.35 7.15 Q-1.15 4.3 -2.6 1.6 -1.15 4.3 -0.35 7.15 L1.3 14.0 Q1.9 17.05 1.95 20.15 L1.9 21.85 1.25 21.9 M-19.5 -28.8 L-20.85 -29.9 -19.5 -28.8 M-19.4 -24.2 L-21.65 -25.2 -19.4 -24.2 M-16.7 -22.6 L-17.1 -22.85 -18.05 -22.75 -17.1 -22.85 -16.7 -22.6" fill="url(#gradient0)" fill-rule="evenodd" stroke="none"/>
    <path d="M-15.45 -28.8 L-15.2 -28.4 -14.45 -25.8 -14.0 -25.15 -13.8 -24.9 -10.7 -20.7 -6.05 -15.5 -1.2 -10.6 4.1 -5.3 9.15 0.1 13.55 5.05 17.75 10.35 Q20.0 13.15 21.65 16.3 L20.3 17.35 20.6 17.45 22.1 21.2 18.05 23.65 14.1 15.9 14.25 30.45 9.55 31.0 9.55 25.6 9.35 20.15 Q9.15 17.2 8.3 14.4 L8.95 19.25 Q9.35 23.3 9.1 27.5 L7.0 27.1 6.95 23.15 Q6.8 19.5 5.75 15.95 L4.25 26.35 1.35 25.55 1.25 21.9 -0.1 22.0 -0.25 17.4 -0.45 15.35 Q-1.2 11.45 -2.25 7.7 L-4.35 0.7 -5.9 -3.7 -8.2 -9.55 Q-9.6 -12.7 -11.35 -15.7 -12.95 -18.45 -15.35 -20.7 L-16.9 -21.9 -18.05 -22.75 -18.55 -22.5 -20.8 -23.4 M-18.05 -26.25 L-16.85 -25.2 -16.25 -25.0 M-15.45 -28.8 L-15.6 -28.2 M-15.45 -28.8 L-16.0 -30.6 M-18.05 -22.75 L-21.65 -25.2 -21.8 -25.5 -21.7 -26.0 -21.85 -26.05 Q-22.15 -26.15 -21.9 -26.5 L-22.1 -26.85 -22.05 -28.45 -21.55 -29.8 -20.7 -30.6 -19.25 -30.9 -17.9 -30.9 Q-16.75 -30.8 -16.2 -29.95 L-15.45 -28.8 M-18.05 -22.75 L-17.1 -22.85 -16.7 -22.6 M-21.65 -25.2 L-19.4 -24.2 M-20.85 -29.9 L-19.5 -28.8 M-2.6 1.6 Q-1.15 4.3 -0.35 7.15 L1.3 14.0 Q1.9 17.05 1.95 20.15 L1.9 21.85 1.25 21.9 M3.15 -2.5 L6.3 1.05 9.1 4.5 11.8 7.85 16.15 13.6 Q17.75 15.9 18.85 18.5 L20.3 17.35 M2.4 0.3 L6.6 5.4 10.25 10.1 14.1 15.9 M2.9 4.2 Q4.55 6.15 5.9 8.6 7.4 11.45 8.3 14.4 M4.3 11.15 L5.75 15.95" fill="none" stroke="#000000" stroke-linecap="round" stroke-linejoin="round" stroke-opacity="0.4" stroke-width="0.05"/>
    <path d="M-0.75 3.9 L-0.75 3.95 -0.75 4.1 -0.75 3.9" fill="#00ff00" fill-rule="evenodd" stroke="none"/>
    <path d="M-21.55 -29.75 Q-19.3 -25.0 -16.3 -22.75 -12.55 -19.95 -10.85 -18.15 -9.15 -16.3 -6.5 -10.85 L-5.0 -7.5 -2.25 -0.8 -0.75 3.9 -1.2 -0.15 -1.45 -2.3 -1.75 -4.6 -1.0 -3.2 1.2 0.5 3.35 2.2 7.6 5.65 11.5 9.0 15.5 13.0 14.25 10.2 12.9 7.55 12.65 7.1 12.95 7.5 17.7 14.3 19.7 18.15 20.3 17.35 20.6 17.45 22.1 21.2 18.05 23.65 14.1 15.9 14.25 30.45 Q13.15 21.95 12.65 20.05 12.15 18.25 9.05 11.75 L9.05 11.85 10.65 17.3 Q11.0 19.45 11.0 24.9 11.0 27.25 10.35 30.9 L9.55 31.0 9.55 25.6 9.35 20.15 9.0 17.3 8.9 16.6 8.3 14.4 8.95 19.25 Q9.35 23.3 9.1 27.5 L7.0 27.1 6.95 23.15 Q6.8 19.5 5.75 15.95 L4.25 26.35 1.35 25.55 1.25 21.9 -0.1 22.0 -0.25 17.4 -0.45 15.35 Q-1.2 11.45 -2.25 7.7 L-2.6 6.5 -3.85 2.3 -4.35 0.7 -5.9 -3.7 -8.05 -9.15 -8.2 -9.55 Q-9.6 -12.7 -11.35 -15.7 -12.95 -18.45 -15.35 -20.7 L-16.9 -21.9 -18.05 -22.75 -21.65 -25.2 -21.8 -25.5 -21.7 -26.0 -21.85 -26.05 Q-22.15 -26.15 -21.9 -26.5 L-22.1 -26.85 -22.05 -28.45 -21.55 -29.75 M-0.75 3.9 L-0.75 4.1 -0.75 3.95 -0.75 3.9" fill="#330000" fill-opacity="0.4" fill-rule="evenodd" stroke="none"/>
  </g>
  <defs>
    <radialGradient cx="0" cy="0" gradientTransform="matrix(0.0815, 0.047, -0.047, 0.0815, -18.75, -28.5)" gradientUnits="userSpaceOnUse" id="gradient0" r="819.2" spreadMethod="pad">
      <stop offset="0.18823529411764706" stop-color="#ffffcc"/>
      <stop offset="1.0" stop-color="#165823"/>
    </radialGradient>
  </defs>
</svg>
