<?xml version="1.0" encoding="UTF-8" standalone="no"?>
<svg xmlns:xlink="http://www.w3.org/1999/xlink" height="64.85px" width="19.65px" xmlns="http://www.w3.org/2000/svg">
  <g transform="matrix(1.0, 0.0, 0.0, 1.0, 80.8, 13.5)">
    <path d="M-75.05 -5.3 L-75.15 -5.2 -75.35 -4.65 Q-75.35 -4.35 -76.65 -1.75 L-77.15 -0.35 -77.4 0.15 -77.4 0.2 -77.6 1.75 -77.8 3.6 -77.6 5.3 -77.7 5.3 Q-78.05 5.15 -78.25 4.25 L-78.4 3.2 -78.4 2.95 -78.15 0.75 -78.3 0.8 Q-78.3 1.15 -79.0 1.15 L-79.2 1.25 -79.45 1.35 -79.35 1.35 -79.35 1.55 -79.5 2.65 -79.65 3.8 -79.65 3.9 -79.6 4.4 -79.7 3.95 -79.75 3.2 -79.5 1.35 -79.95 1.25 -80.15 1.1 -80.35 0.75 -80.1 -0.4 -80.2 -0.6 -80.3 -0.85 -80.25 -0.95 -80.25 -1.0 -80.2 -1.1 -79.45 -3.6 Q-78.8 -5.35 -78.15 -5.95 L-77.4 -6.35 Q-77.1 -6.35 -77.0 -6.15 L-76.9 -5.75 -76.55 -6.3 -75.1 -8.25 -75.05 -8.1 -75.2 -7.6 -76.25 -6.0 -75.9 -5.8 -75.5 -6.25 Q-75.0 -6.25 -75.0 -5.75 L-75.0 -5.65 -75.1 -5.25 -75.05 -5.3 M-64.05 25.15 L-63.8 24.9 Q-63.0 24.9 -63.0 25.8 -63.0 27.15 -63.6 27.25 -64.2 27.35 -64.2 26.5 L-64.05 25.15 M-63.9 28.8 L-63.5 28.05 -63.0 28.3 -62.2 33.35 -63.05 31.3 -63.45 29.8 Q-63.55 29.15 -63.9 28.8 M-62.05 46.95 L-62.7 49.65 -63.0 51.35 Q-63.0 46.3 -62.05 41.5 -61.6 38.95 -61.95 34.35 L-61.55 37.45 Q-60.5 42.3 -62.05 46.95" fill="#ffd633" fill-rule="evenodd" stroke="none"/>
    <path d="M-78.15 -5.95 Q-75.95 -10.15 -74.5 -11.15 L-72.8 -12.45 -72.0 -13.05 -72.15 -13.05 -72.1 -13.1 -72.0 -13.05 -71.5 -13.5 Q-71.7 -12.1 -72.4 -11.45 L-71.2 -12.35 -70.4 -12.3 -70.35 -12.0 -72.95 -8.2 -75.05 -5.3 -75.1 -5.25 -75.0 -5.65 -75.0 -5.75 Q-75.0 -6.25 -75.5 -6.25 L-75.9 -5.8 -76.25 -6.0 -75.2 -7.6 -75.05 -8.1 -75.1 -8.25 -76.55 -6.3 -76.9 -5.75 -77.0 -6.15 Q-77.1 -6.35 -77.4 -6.35 L-78.15 -5.95 M-77.7 5.3 L-75.65 12.4 -75.95 12.45 Q-76.3 12.45 -77.25 10.5 L-76.4 13.15 -76.5 13.45 -77.85 11.5 -78.6 9.4 -78.6 9.35 -78.85 9.35 -78.85 9.75 -79.1 9.9 Q-79.4 9.9 -79.55 9.2 L-79.95 8.1 Q-80.35 7.05 -80.35 6.2 L-80.8 3.2 -80.65 0.55 -80.5 -0.45 -80.35 -0.8 -80.35 -0.85 -80.3 -1.0 -80.2 -1.1 -80.25 -1.0 -80.25 -0.95 -80.3 -0.85 -80.2 -0.6 -80.1 -0.4 -80.35 0.75 -80.15 1.1 -79.95 1.25 -79.5 1.35 -79.75 3.2 -79.7 3.95 -79.6 4.4 -79.65 3.9 -79.65 3.8 -79.5 2.65 -79.35 1.55 -79.35 1.35 -79.45 1.35 -79.2 1.25 -79.0 1.15 Q-78.3 1.15 -78.3 0.8 L-78.15 0.75 -78.4 2.95 -78.4 3.2 -78.25 4.25 Q-78.05 5.15 -77.7 5.3 M-77.65 7.3 L-77.7 7.3 -77.3 8.75 -77.65 7.3 M-77.2 9.3 L-76.95 9.95 -76.95 9.9 Q-77.0 9.6 -77.2 9.3" fill="#ffd633" fill-opacity="0.4" fill-rule="evenodd" stroke="none"/>
  </g>
</svg>
