<?xml version="1.0" encoding="UTF-8" standalone="no"?>
<svg xmlns:xlink="http://www.w3.org/1999/xlink" height="11.2px" width="11.9px" xmlns="http://www.w3.org/2000/svg">
  <g transform="matrix(1.0, 0.0, 0.0, 1.0, 6.0, 5.6)">
    <path d="M4.6 -3.4 L4.85 -3.3 4.8 -3.0 5.0 -2.6 5.35 -2.15 5.25 -2.15 5.4 -1.6 5.4 -1.55 5.4 -1.45 5.7 -0.45 5.4 1.55 Q5.6 1.35 5.85 1.25 L5.9 1.3 5.15 2.25 5.4 2.2 5.5 2.2 5.6 2.25 4.85 3.15 5.25 3.2 4.0 3.95 3.05 4.65 Q0.6 6.25 -2.1 5.1 L-3.5 4.3 -4.4 3.4 -4.9 2.95 -5.15 2.75 -5.35 2.45 -5.1 2.4 -5.3 2.1 -5.6 1.85 -5.85 1.6 -6.0 1.0 -5.9 0.95 -5.55 1.1 -5.55 0.85 -5.8 0.5 -6.0 -0.05 -5.8 -0.05 Q-5.5 -0.85 -5.35 -1.6 L-5.2 -2.2 -5.15 -2.5 -5.15 -2.8 -4.9 -2.95 -4.45 -3.55 -4.8 -3.8 -4.7 -3.9 -4.05 -4.0 -3.8 -4.3 -3.75 -4.55 -3.7 -4.8 -3.6 -4.95 -3.45 -5.0 -3.35 -4.9 -3.2 -4.65 -1.65 -5.2 0.0 -5.6 1.15 -5.45 2.15 -5.2 3.1 -4.7 4.05 -3.85 4.2 -4.05 4.25 -4.1 4.25 -3.95 4.3 -3.8 4.6 -3.4 M3.95 -3.3 L2.7 -4.05 1.05 -4.85 0.0 -4.95 -1.0 -4.9 -2.8 -4.2 -3.65 -3.8 Q-3.65 -3.05 -4.35 -2.55 L-4.65 -2.05 -4.95 -1.3 -5.0 -0.3 Q-4.95 0.4 -5.1 0.1 -5.65 0.4 -5.1 0.9 L-4.85 1.25 -4.85 1.4 Q-5.1 0.9 -5.1 1.45 L-5.05 1.9 -4.65 2.25 -4.45 2.35 -4.75 2.3 -4.85 2.4 -4.15 3.15 -2.75 4.15 -1.95 4.65 -1.0 4.95 0.8 4.95 3.25 4.0 3.8 3.75 3.75 3.6 3.2 3.8 4.15 2.9 4.8 2.2 4.4 2.45 5.25 1.3 4.8 1.35 Q5.2 0.0 4.9 -1.45 L4.85 -1.95 4.8 -1.95 Q4.35 -1.55 4.6 -2.55 L4.65 -2.75 Q4.4 -2.8 4.3 -2.95 4.1 -3.15 4.05 -3.45 L3.95 -3.3" fill="#b94f4f" fill-rule="evenodd" stroke="none"/>
    <path d="M3.95 -3.3 L4.05 -3.45 Q4.1 -3.15 4.3 -2.95 4.4 -2.8 4.65 -2.75 L4.6 -2.55 Q4.35 -1.55 4.8 -1.95 L4.85 -1.95 4.9 -1.45 Q5.2 0.0 4.8 1.35 L5.25 1.3 4.4 2.45 4.8 2.2 4.15 2.9 3.2 3.8 3.75 3.6 3.8 3.75 3.25 4.0 0.8 4.95 -1.0 4.95 -1.95 4.65 -2.75 4.15 -4.15 3.15 -4.85 2.4 -4.75 2.3 -4.45 2.35 -4.65 2.25 -5.05 1.9 -5.1 1.45 Q-5.1 0.9 -4.85 1.4 L-4.85 1.25 -5.1 0.9 Q-5.65 0.4 -5.1 0.1 -4.95 0.4 -5.0 -0.3 L-4.95 -1.3 -4.65 -2.05 -4.35 -2.55 Q-3.65 -3.05 -3.65 -3.8 L-2.8 -4.2 -1.0 -4.9 0.0 -4.95 1.05 -4.85 2.7 -4.05 3.95 -3.3 M0.1 -4.65 L-1.15 -4.35 -2.3 -3.65 -3.05 -2.5 -3.3 -1.25 -3.05 0.1 -2.3 1.1 -1.15 1.95 0.1 2.15 1.45 1.95 2.55 1.2 3.25 0.1 3.5 -1.25 3.25 -2.5 2.6 -3.75 1.45 -4.35 0.1 -4.65" fill="#ffc1c1" fill-rule="evenodd" stroke="none"/>
    <path d="M0.1 -4.65 L1.45 -4.35 2.6 -3.75 3.25 -2.5 3.5 -1.25 3.25 0.1 2.55 1.2 1.45 1.95 0.1 2.15 -1.15 1.95 -2.3 1.1 -3.05 0.1 -3.3 -1.25 -3.05 -2.5 -2.3 -3.65 -1.15 -4.35 0.1 -4.65" fill="#ffe6e6" fill-rule="evenodd" stroke="none"/>
  </g>
</svg>
