<?xml version="1.0" encoding="UTF-8" standalone="no"?>
<svg xmlns:xlink="http://www.w3.org/1999/xlink" height="193.8px" width="23.1px" xmlns="http://www.w3.org/2000/svg">
  <g transform="matrix(1.0, 0.0, 0.0, 1.0, 94.05, 92.55)">
    <path d="M-76.2 -29.0 L-74.75 -28.8 -73.45 -28.9 -72.9 -29.0 Q-72.15 -29.0 -72.15 -28.75 L-72.95 -27.7 -74.05 -26.55 -74.85 -25.45 Q-75.4 -24.8 -76.55 -24.65 L-78.05 -24.6 Q-78.4 -24.75 -78.4 -25.1 -76.85 -29.0 -76.2 -29.0 M-72.7 -28.55 L-72.7 -28.6 -72.75 -28.6 -72.7 -28.55 M-76.7 -23.15 L-76.7 -23.95 -76.3 -23.95 -76.3 -23.75 -76.15 -21.45 -76.25 -20.3 Q-75.9 -6.15 -75.9 46.65 L-76.0 69.0 -76.0 69.5 -76.1 80.05 -76.2 87.55 -76.2 87.75 -76.15 92.85 Q-76.15 97.85 -76.3 100.45 L-76.7 100.65 -77.0 95.95 -77.05 92.8 -76.8 77.65 -76.8 78.45 -76.8 77.4 -76.9 67.05 -76.9 65.25 -76.9 46.7 -76.85 -5.9 -76.9 -14.7 -76.7 -20.0 -76.75 -19.4 -76.8 -21.45 -76.7 -23.15" fill="#ffd633" fill-rule="evenodd" stroke="none"/>
    <path d="M-82.2 -25.2 L-85.4 -22.85 -89.25 -19.95 Q-90.25 -18.95 -91.95 -15.9 L-91.8 -16.4 Q-91.25 -19.25 -90.9 -19.95 -89.95 -21.65 -87.05 -23.2 -83.7 -24.75 -82.5 -25.35 L-82.2 -25.2 M-92.75 -12.5 Q-92.75 -12.1 -93.1 -10.85 L-93.45 -9.2 -93.3 -8.7 -92.85 -8.1 -92.9 -7.95 Q-94.05 -8.35 -93.85 -9.35 L-93.45 -10.95 -94.05 -13.05 Q-94.05 -13.9 -93.1 -14.5 L-92.3 -15.25 -93.15 -13.65 -92.75 -12.5 M-71.1 -92.55 L-70.95 -91.95 -72.35 -84.0 -73.95 -73.95 -74.55 -65.1 -75.0 -56.1 -74.7 -52.55 Q-74.7 -50.3 -75.15 -46.2 -75.5 -42.65 -75.35 -39.05 L-75.8 -39.8 -75.8 -40.65 -75.55 -44.0 -75.3 -47.4 -76.25 -54.3 Q-76.55 -56.6 -76.35 -57.75 -76.15 -58.95 -77.7 -60.95 L-77.4 -61.5 -77.15 -62.15 -77.35 -63.05 -77.6 -63.95 -77.5 -64.5 Q-77.3 -64.75 -76.05 -65.0 -74.95 -70.5 -74.1 -78.8 L-72.95 -85.55 -71.4 -92.55 -71.1 -92.55 M-76.7 100.65 L-76.6 100.65 -76.65 101.25 -77.1 101.1 -78.25 100.8 -78.35 98.25 Q-77.8 94.3 -77.8 92.6 -77.95 75.95 -77.25 70.15 L-77.25 70.05 -77.4 66.1 -77.15 7.7 -77.15 -21.8 -76.85 -22.85 -76.7 -23.15 -76.8 -21.45 -76.75 -19.4 -76.7 -20.0 -76.9 -14.7 -76.85 -5.9 -76.9 46.7 -76.9 65.25 -76.9 67.05 -76.8 77.4 -76.8 78.45 -76.8 77.65 -77.05 92.8 -77.0 95.95 -76.7 100.65 M-76.3 -23.75 Q-75.95 -23.35 -76.0 -22.9 L-76.1 -22.45 -75.6 66.1 -75.7 71.5 -76.1 80.05 -76.0 69.5 -76.0 69.0 -75.9 46.65 Q-75.9 -6.15 -76.25 -20.3 L-76.15 -21.45 -76.3 -23.75" fill="#ffd633" fill-opacity="0.4" fill-rule="evenodd" stroke="none"/>
  </g>
</svg>
