<?xml version="1.0" encoding="UTF-8" standalone="no"?>
<svg xmlns:xlink="http://www.w3.org/1999/xlink" height="57.0px" width="26.3px" xmlns="http://www.w3.org/2000/svg">
  <g transform="matrix(1.0, 0.0, 0.0, 1.0, 10.9, 29.2)">
    <path d="M4.05 -25.75 L4.05 -25.8 3.75 -26.35 3.85 -26.55 3.95 -26.75 Q3.95 -26.95 3.4 -27.15 2.85 -27.35 2.85 -27.45 2.85 -28.1 1.3 -28.15 L0.05 -28.0 -0.3 -28.05 -5.5 -28.2 Q-9.75 -27.4 -9.75 -26.5 L-9.15 -25.8 -9.8 -25.15 Q-9.8 -24.75 -9.0 -24.75 L-8.35 -24.95 -8.65 -24.8 Q-8.35 -23.75 -5.15 -22.2 -1.8 -20.6 0.0 -20.6 L0.15 -20.6 0.65 -20.5 2.0 -20.2 2.0 -20.25 1.95 -20.45 1.65 -20.55 1.8 -20.75 2.25 -20.7 2.35 -20.7 2.55 -20.7 2.55 -20.65 2.45 -20.5 2.5 -20.3 2.95 -20.35 2.65 -20.3 5.15 -20.0 9.35 -20.7 Q11.65 -21.4 12.45 -22.05 13.3 -22.75 13.3 -23.25 L13.1 -24.5 12.95 -24.5 Q13.3 -24.5 13.55 -24.75 12.25 -26.0 11.9 -25.85 11.55 -25.4 10.9 -25.4 L9.8 -25.55 9.3 -25.7 8.15 -25.55 7.35 -25.2 7.2 -25.2 6.7 -25.05 6.4 -24.9 5.75 -25.55 5.4 -25.55 Q5.2 -25.5 5.05 -25.75 L4.55 -25.95 4.05 -25.75 M0.65 27.3 Q-0.15 27.8 -1.05 27.8 -3.65 27.85 -4.55 26.45 -5.3 25.25 -5.25 22.4 -5.2 19.5 -4.55 13.55 -3.95 7.6 -3.4 -2.5 -2.9 -12.65 -4.2 -19.95 L-4.25 -20.3 Q-5.6 -20.7 -6.7 -21.2 L-7.5 -21.6 Q-11.1 -23.5 -10.9 -25.55 -10.7 -27.55 -6.7 -28.5 L2.8 -29.0 Q8.25 -28.4 11.95 -26.45 15.6 -24.65 15.4 -22.65 15.2 -20.6 11.15 -19.55 L6.25 -18.9 4.7 -18.9 2.75 -19.0 1.7 -19.1 -1.15 -19.5 -1.25 -19.55 -3.2 -20.0 -3.25 -19.9 -1.6 -18.3 0.6 -16.1 Q0.0 -15.8 -0.15 -15.15 L-0.2 -14.15 0.1 -11.9 Q-0.8 -9.45 -0.8 -8.5 L-0.55 -7.25 -1.2 -3.8 -0.9 -2.1 -1.9 2.55 Q-1.85 3.3 -2.35 4.9 L-2.85 7.3 -2.7 8.15 -2.9 8.6 -3.15 9.65 Q-3.15 12.3 -4.05 15.7 L-4.0 18.1 -4.2 20.65 -3.85 24.15 Q-3.25 26.7 -1.9 27.35 -1.45 27.7 -0.9 27.7 L-0.6 27.55 -0.15 27.4 -0.1 27.4 0.65 27.3 M-0.55 4.4 L3.35 4.3 3.65 4.3 3.85 3.0 Q4.75 -1.5 6.1 -5.55 L6.75 -7.45 Q7.2 -8.7 7.95 -9.7 8.65 -10.7 9.4 -10.8 12.1 -11.1 14.05 -9.25 L14.7 -8.5 Q15.3 -7.2 15.15 -5.0 L14.75 -6.15 Q14.0 -7.5 13.25 -8.15 12.6 -9.0 11.45 -9.2 L11.15 -9.3 8.85 -9.15 8.45 -8.5 Q7.9 -7.65 7.7 -6.55 6.5 -2.5 5.5 -0.15 L4.8 2.55 Q4.5 3.65 4.5 4.55 4.75 4.75 4.8 5.2 L3.35 5.1 1.55 5.5 -0.45 5.4 -0.7 5.45 -0.55 4.4 M12.6 11.5 Q13.3 11.7 13.3 12.1 13.3 12.8 12.55 14.7 L11.95 14.7 11.2 14.7 Q11.9 14.7 12.45 13.95 12.85 13.4 12.85 13.05 12.85 11.85 11.35 12.3 L10.75 12.55 9.9 12.35 9.4 12.3 9.2 12.3 9.4 12.3 9.9 12.35 10.75 12.55 10.8 12.55 11.25 12.75 11.45 13.0 11.25 13.35 Q11.15 12.9 9.7 13.0 9.85 12.15 8.15 12.4 6.4 12.6 6.4 12.95 6.4 13.65 8.5 13.85 L7.65 13.85 5.85 13.85 5.8 14.5 5.1 14.5 Q5.4 14.2 5.45 13.15 5.55 11.6 4.75 11.6 3.15 11.6 3.15 13.0 3.15 14.5 3.8 14.5 L4.2 14.55 3.85 14.6 1.95 14.6 1.7 14.6 1.7 11.65 2.4 11.55 3.2 6.85 4.5 6.3 3.2 6.85 2.15 6.95 -0.95 6.9 -0.85 6.3 1.5 6.4 3.0 5.95 4.1 6.2 4.6 6.15 4.5 6.3 4.1 7.95 Q3.5 9.85 3.5 10.65 L3.5 11.45 4.55 11.35 5.1 11.3 5.2 11.3 5.8 11.35 5.95 12.1 7.65 12.15 9.2 12.3 9.2 11.3 10.1 11.35 10.1 11.3 10.3 10.25 11.4 4.25 12.6 -3.75 12.55 -6.55 12.3 -7.15 11.75 -8.3 12.5 -7.9 13.05 -7.25 13.05 -7.15 Q13.75 -5.15 13.75 -3.95 L13.05 0.9 Q12.3 4.5 12.3 5.15 12.3 7.55 11.95 8.9 11.55 10.25 11.55 11.4 L11.9 11.4 12.0 11.4 12.15 11.45 12.6 11.5 M11.95 14.85 L11.85 15.25 11.85 15.35 11.95 14.85 M9.25 18.75 L8.6 18.6 9.3 15.25 10.5 15.35 Q9.7 16.95 9.7 18.6 L9.75 18.8 9.75 18.85 9.25 18.75 M9.4 14.7 L8.75 14.7 9.1 13.8 9.6 13.8 10.2 13.8 9.8 13.8 Q9.8 14.15 10.15 14.25 L10.45 13.9 10.6 14.0 10.6 14.35 Q10.7 14.7 11.15 14.7 L9.4 14.7 M-4.25 -20.3 L-3.2 -20.0 -4.25 -20.3 M11.9 11.4 L10.4 11.3 10.1 11.3 10.4 11.3 11.9 11.4 M4.5 4.55 Q4.2 4.35 3.65 4.3 4.2 4.35 4.5 4.55 M3.5 11.45 L2.4 11.55 3.5 11.45 M-2.4 16.45 L1.75 16.1 1.75 16.05 1.85 15.35 2.6 15.2 2.55 15.4 2.5 16.2 2.6 16.3 2.25 16.05 2.0 16.05 1.75 16.1 2.0 16.05 1.75 16.05 2.0 16.05 2.25 16.05 2.6 16.3 2.7 16.4 2.8 16.5 1.05 16.6 -2.45 17.05 -2.4 16.45 M2.1 23.65 L2.1 23.7 1.9 24.05 2.1 23.65 M1.0 25.9 L0.9 25.95 0.25 26.35 0.45 26.45 -0.1 26.25 -1.1 25.8 -1.4 25.3 Q-0.15 25.1 0.45 23.15 L1.5 18.05 2.1 18.05 2.45 17.9 2.1 18.05 1.5 18.05 -2.55 18.05 -2.5 17.3 -2.5 17.65 -2.45 17.65 3.05 17.35 2.45 17.9 2.45 18.4 2.65 20.0 2.15 21.35 Q1.7 22.05 1.65 22.95 L1.0 25.9 M5.85 13.85 L5.95 12.1 5.85 13.85 M-0.9 -24.3 L-0.6 -24.35 -0.85 -24.2 -0.9 -24.3 M-1.25 -19.55 L-1.15 -19.5 -1.25 -19.55" fill="#fff7aa" fill-rule="evenodd" stroke="none"/>
    <path d="M4.05 -25.75 L4.55 -25.95 5.05 -25.75 Q5.2 -25.5 5.4 -25.55 L5.75 -25.55 6.4 -24.9 6.7 -25.05 7.2 -25.2 7.35 -25.2 7.2 -24.9 7.3 -24.65 5.85 -23.8 4.65 -23.2 Q3.35 -22.5 3.35 -21.45 L3.4 -21.2 3.15 -21.15 3.0 -21.2 3.25 -21.7 Q3.25 -22.25 2.85 -22.7 3.7 -23.1 3.7 -23.5 L3.8 -24.25 3.4 -24.8 3.45 -24.85 3.5 -24.85 4.05 -25.75 M2.55 -20.7 L2.35 -20.7 2.55 -20.75 2.55 -20.8 2.55 -20.7 M0.15 -20.6 L0.0 -20.6 Q-1.8 -20.6 -5.15 -22.2 -8.35 -23.75 -8.65 -24.8 L-8.35 -24.95 -7.9 -25.1 -7.6 -25.25 Q-7.0 -25.5 -6.45 -25.8 -7.25 -25.35 -7.25 -24.8 -7.25 -24.35 -6.65 -24.35 L-6.2 -24.55 -5.4 -25.05 -5.3 -24.95 Q-5.7 -24.3 -4.7 -24.3 L-3.7 -24.55 -3.0 -24.8 Q-3.25 -24.05 -2.3 -24.05 L-0.9 -24.3 -0.85 -24.2 -2.0 -23.55 Q-1.85 -22.95 -0.8 -23.05 -1.45 -22.85 -1.5 -22.35 -1.2 -22.05 -0.3 -22.05 L-0.3 -21.95 Q-0.5 -21.45 -0.2 -21.4 L0.15 -20.9 -0.1 -20.65 0.15 -20.6 M6.25 -18.9 Q5.2 -16.9 4.25 -14.35 L3.85 -13.35 Q2.55 -9.75 1.4 -5.1 0.25 -0.2 -0.55 4.35 L-0.55 4.4 -0.7 5.45 -0.85 6.3 -0.95 6.9 -1.9 12.7 -2.4 16.45 -2.45 17.05 -2.5 17.3 -2.55 18.05 -2.8 20.85 -2.8 23.7 -2.2 25.15 -2.15 25.2 -1.85 25.3 -1.7 25.3 -1.4 25.3 -1.1 25.8 -0.1 26.25 0.45 26.45 0.25 26.35 0.9 25.95 1.0 25.9 1.05 25.75 1.9 24.05 2.1 23.7 2.1 23.65 Q3.45 20.75 3.45 20.0 L3.25 18.25 3.7 15.4 4.75 15.3 Q3.9 21.85 2.9 24.3 L2.25 25.6 Q1.55 26.75 0.65 27.3 L-0.1 27.4 -0.15 27.4 1.05 26.8 1.0 26.75 0.55 26.6 0.25 26.55 -1.0 27.0 -1.25 27.0 -1.4 27.0 -2.3 26.5 -3.0 25.45 -3.0 25.3 -3.35 24.15 -3.55 21.0 -3.15 16.75 -2.5 12.7 -1.9 9.3 -1.85 8.35 -1.9 8.05 -2.1 6.6 -1.25 3.5 -0.75 0.5 -0.3 -2.05 -0.3 -2.15 0.0 -3.7 0.35 -5.8 0.4 -7.45 0.7 -8.2 1.05 -9.05 1.1 -10.7 1.4 -12.35 2.05 -14.0 2.6 -15.7 Q2.8 -16.65 3.85 -17.8 L4.7 -18.9 6.25 -18.9 M15.15 -5.0 L15.15 -4.7 14.95 -2.75 14.95 -2.7 14.1 3.45 13.0 9.6 12.6 11.5 12.15 11.45 12.5 9.65 12.3 8.35 12.7 5.65 Q13.15 3.1 13.5 2.2 L14.4 -3.95 14.35 -4.5 14.2 -5.15 14.2 -5.2 13.75 -6.45 13.6 -6.85 13.65 -6.9 13.7 -7.25 13.65 -7.45 13.35 -8.0 13.25 -8.15 Q14.0 -7.5 14.75 -6.15 L15.15 -5.0 M11.85 15.25 L11.3 19.05 10.4 18.95 10.25 20.75 10.15 20.7 9.6 20.65 10.15 20.7 10.25 20.8 Q10.95 21.1 11.15 21.9 L11.35 23.75 11.25 23.95 Q12.1 24.65 11.1 24.95 L8.95 24.45 9.2 24.1 9.05 23.35 9.5 23.5 9.05 23.35 8.95 23.35 8.95 22.25 8.75 20.55 8.8 20.5 9.4 20.6 9.6 20.65 9.65 20.5 Q10.15 19.7 9.65 19.4 L9.2 19.1 9.25 18.75 9.75 18.85 10.15 18.95 10.15 18.9 10.6 17.8 11.05 16.75 Q11.0 16.15 11.75 15.4 L11.85 15.35 11.85 15.25 M-0.6 27.55 L-0.9 27.7 Q-1.45 27.7 -1.9 27.35 L-1.45 27.5 -0.95 27.55 -0.9 27.55 -0.6 27.5 -0.6 27.55 M4.55 11.35 L4.5 10.05 5.25 7.65 5.3 3.95 Q5.4 3.0 6.65 -1.5 L8.1 -6.1 8.25 -6.55 8.6 -7.3 9.65 -9.1 10.6 -9.25 11.35 -8.6 10.2 -8.65 9.1 -6.55 8.1 -3.65 Q7.05 -0.3 6.35 4.25 L5.35 9.4 5.3 10.0 5.2 11.3 5.1 11.3 4.55 11.35 M9.5 23.5 L9.5 23.55 9.55 23.55 9.55 23.5 9.65 23.55 11.25 23.95 9.65 23.55 9.55 23.5 9.5 23.5 9.65 23.55 9.5 23.5 M10.4 18.95 L10.15 18.9 10.4 18.95" fill="#ffb444" fill-rule="evenodd" stroke="none"/>
    <path d="M7.35 -25.2 L8.15 -25.55 9.3 -25.7 9.8 -25.55 10.9 -25.4 Q11.55 -25.4 11.9 -25.85 12.25 -26.0 13.55 -24.75 13.3 -24.5 12.95 -24.5 L12.9 -24.5 11.95 -24.75 Q11.75 -24.45 11.45 -24.45 L10.25 -24.7 Q9.45 -24.7 6.9 -23.1 L4.4 -21.4 4.5 -21.2 4.4 -20.95 4.15 -20.65 4.15 -20.5 4.1 -20.3 3.15 -20.35 2.95 -20.35 2.5 -20.3 2.45 -20.5 2.55 -20.65 2.55 -20.6 3.15 -21.15 3.4 -21.2 3.35 -21.45 Q3.35 -22.5 4.65 -23.2 L5.85 -23.8 7.3 -24.65 7.2 -24.9 7.35 -25.2 M1.8 -20.75 L1.65 -20.55 1.95 -20.45 2.0 -20.25 2.0 -20.2 0.65 -20.5 0.15 -20.6 -0.1 -20.65 0.15 -20.9 -0.2 -21.4 Q-0.5 -21.45 -0.3 -21.95 L-0.3 -22.05 Q-1.2 -22.05 -1.5 -22.35 -1.45 -22.85 -0.8 -23.05 -1.85 -22.95 -2.0 -23.55 L-0.85 -24.2 -0.6 -24.35 -0.9 -24.3 -2.3 -24.05 Q-3.25 -24.05 -3.0 -24.8 L-3.7 -24.55 -4.7 -24.3 Q-5.7 -24.3 -5.3 -24.95 L-5.4 -25.05 -6.2 -24.55 -6.65 -24.35 Q-7.25 -24.35 -7.25 -24.8 -7.25 -25.35 -6.45 -25.8 -7.0 -25.5 -7.6 -25.25 L-7.9 -25.1 -8.35 -24.95 -9.0 -24.75 Q-9.8 -24.75 -9.8 -25.15 L-9.15 -25.8 -9.75 -26.5 Q-9.75 -27.4 -5.5 -28.2 L-0.3 -28.05 0.05 -28.0 1.55 -27.75 1.85 -27.3 1.75 -27.0 1.65 -26.9 Q2.5 -27.25 2.85 -26.55 L1.5 -25.7 2.5 -25.8 2.85 -25.8 3.0 -25.4 Q3.0 -25.1 2.65 -24.95 L1.65 -24.35 2.3 -24.3 2.4 -24.05 1.95 -23.3 1.85 -23.25 Q2.6 -23.2 2.6 -22.85 2.6 -22.3 2.0 -22.05 L2.3 -21.45 2.0 -21.0 1.8 -20.75 M11.95 14.7 L11.95 14.85 11.85 15.35 11.75 15.4 Q11.0 16.15 11.05 16.75 L10.6 17.8 10.15 18.9 10.15 18.95 9.75 18.85 9.75 18.8 9.7 18.6 Q9.7 16.95 10.5 15.35 L9.3 15.25 9.4 14.7 11.15 14.7 Q10.7 14.7 10.6 14.35 L10.6 14.0 10.45 13.9 10.15 14.25 Q9.8 14.15 9.8 13.8 L10.2 13.8 9.6 13.8 9.1 13.8 8.6 13.85 8.5 13.85 Q6.4 13.65 6.4 12.95 6.4 12.6 8.15 12.4 9.85 12.15 9.7 13.0 11.15 12.9 11.25 13.35 L10.5 13.75 10.2 13.8 10.5 13.75 11.25 13.35 11.45 13.0 11.25 12.75 10.8 12.55 10.75 12.55 11.35 12.3 Q12.85 11.85 12.85 13.05 12.85 13.4 12.45 13.95 11.9 14.7 11.2 14.7 L11.95 14.7 M5.1 14.5 L4.85 14.55 4.85 14.6 4.75 15.15 4.75 15.3 3.7 15.4 3.25 18.25 3.45 20.0 Q3.45 20.75 2.1 23.65 L1.9 24.05 1.05 25.75 1.0 25.9 1.65 22.95 Q1.7 22.05 2.15 21.35 L2.65 20.0 2.45 18.4 2.45 17.9 3.05 17.35 3.1 17.05 2.8 16.5 3.1 17.05 3.05 17.35 -2.45 17.65 -2.5 17.65 -2.5 17.3 -2.45 17.05 1.05 16.6 2.8 16.5 2.7 16.4 2.6 16.3 2.5 16.2 2.55 15.4 2.6 15.2 1.85 15.35 1.95 14.6 3.85 14.6 4.2 14.55 3.8 14.5 Q3.15 14.5 3.15 13.0 3.15 11.6 4.75 11.6 5.55 11.6 5.45 13.15 5.4 14.2 5.1 14.5 M-0.15 27.4 L-0.6 27.55 -0.6 27.5 -0.9 27.55 -0.95 27.55 -1.45 27.5 -1.9 27.35 Q-3.25 26.7 -3.85 24.15 L-4.2 20.65 -4.0 18.1 -4.05 15.7 Q-3.15 12.3 -3.15 9.65 L-2.9 8.6 -2.7 8.15 -2.85 7.3 -2.35 4.9 Q-1.85 3.3 -1.9 2.55 L-0.9 -2.1 -1.2 -3.8 -0.55 -7.25 -0.8 -8.5 Q-0.8 -9.45 0.1 -11.9 L-0.2 -14.15 -0.15 -15.15 Q0.0 -15.8 0.6 -16.1 L-1.6 -18.3 -3.25 -19.9 -3.2 -20.0 -1.25 -19.55 -1.15 -19.5 1.7 -19.1 2.75 -19.0 4.7 -18.9 3.85 -17.8 Q2.8 -16.65 2.6 -15.7 L2.05 -14.0 1.4 -12.35 1.1 -10.7 1.05 -9.05 0.7 -8.2 0.4 -7.45 0.35 -5.8 0.0 -3.7 -0.3 -2.15 -0.3 -2.05 -0.75 0.5 -1.25 3.5 -2.1 6.6 -1.9 8.05 -1.85 8.35 -1.9 9.3 -2.5 12.7 -3.15 16.75 -3.55 21.0 -3.35 24.15 -3.0 25.3 -3.0 25.45 -2.3 26.5 -1.4 27.0 -1.25 27.0 -1.0 27.0 0.25 26.55 0.55 26.6 1.0 26.75 1.05 26.8 -0.15 27.4 M11.35 -8.6 L10.6 -9.25 9.65 -9.1 8.6 -7.3 8.25 -6.55 8.1 -6.1 6.65 -1.5 Q5.4 3.0 5.3 3.95 L5.25 7.65 4.5 10.05 4.55 11.35 3.5 11.45 3.5 10.65 Q3.5 9.85 4.1 7.95 L4.5 6.3 4.6 6.15 4.8 5.45 4.8 5.2 4.8 5.45 4.6 6.15 4.1 6.2 3.0 5.95 1.5 6.4 -0.85 6.3 -0.7 5.45 -0.45 5.4 1.55 5.5 3.35 5.1 4.8 5.2 Q4.75 4.75 4.5 4.55 4.5 3.65 4.8 2.55 L5.5 -0.15 Q6.5 -2.5 7.7 -6.55 7.9 -7.65 8.45 -8.5 L8.85 -9.15 11.15 -9.3 11.45 -9.2 Q12.6 -9.0 13.25 -8.15 L13.35 -8.0 13.65 -7.45 13.7 -7.25 13.65 -6.9 13.6 -6.85 13.75 -6.45 14.2 -5.2 14.2 -5.15 14.35 -4.5 14.4 -3.95 13.5 2.2 Q13.15 3.1 12.7 5.65 L12.3 8.35 12.5 9.65 12.15 11.45 12.0 11.4 11.9 11.4 11.55 11.4 Q11.55 10.25 11.95 8.9 12.3 7.55 12.3 5.15 12.3 4.5 13.05 0.9 L13.75 -3.95 Q13.75 -5.15 13.05 -7.15 L13.05 -7.25 12.5 -7.9 11.75 -8.3 11.7 -8.4 11.35 -8.6 M11.75 -8.3 L11.7 -8.4 11.75 -8.3 M10.15 18.9 L9.75 18.85 10.15 18.9" fill="#af6a03" fill-rule="evenodd" stroke="none"/>
    <path d="M0.05 -28.0 L1.3 -28.15 Q2.85 -28.1 2.85 -27.45 2.85 -27.35 3.4 -27.15 3.95 -26.95 3.95 -26.75 L3.85 -26.55 3.75 -26.35 4.05 -25.8 4.05 -25.75 3.5 -24.85 3.45 -24.85 3.4 -24.8 3.8 -24.25 3.7 -23.5 Q3.7 -23.1 2.85 -22.7 3.25 -22.25 3.25 -21.7 L3.0 -21.2 3.15 -21.15 2.55 -20.6 2.55 -20.65 2.55 -20.7 2.55 -20.8 2.55 -20.75 2.35 -20.7 2.25 -20.7 1.8 -20.75 2.0 -21.0 2.3 -21.45 2.0 -22.05 Q2.6 -22.3 2.6 -22.85 2.6 -23.2 1.85 -23.25 L1.95 -23.3 2.4 -24.05 2.3 -24.3 1.65 -24.35 2.65 -24.95 Q3.0 -25.1 3.0 -25.4 L2.85 -25.8 2.5 -25.8 1.5 -25.7 2.85 -26.55 Q2.5 -27.25 1.65 -26.9 L1.75 -27.0 1.85 -27.3 1.55 -27.75 0.05 -28.0 M12.95 -24.5 L13.1 -24.5 13.3 -23.25 Q13.3 -22.75 12.45 -22.05 11.65 -21.4 9.35 -20.7 L5.15 -20.0 2.65 -20.3 2.95 -20.35 3.15 -20.35 4.1 -20.3 4.15 -20.5 4.15 -20.65 4.4 -20.95 4.5 -21.2 4.4 -21.4 6.9 -23.1 Q9.45 -24.7 10.25 -24.7 L11.45 -24.45 Q11.75 -24.45 11.95 -24.75 L12.9 -24.5 12.95 -24.5 M10.25 20.75 L10.25 20.8 10.15 20.7 10.25 20.75 M8.95 24.45 L6.95 24.1 6.0 23.95 Q5.8 23.1 6.7 23.15 L6.95 22.2 7.15 21.65 7.35 21.4 Q7.95 20.65 8.75 20.55 L8.95 22.25 8.95 23.35 9.05 23.35 9.2 24.1 8.95 24.45 M8.8 20.5 L9.1 19.4 9.2 19.1 9.65 19.4 Q10.15 19.7 9.65 20.5 L9.6 20.65 9.4 20.6 8.8 20.5 M9.55 23.5 L9.55 23.55 9.5 23.55 9.5 23.5 9.55 23.5 M6.7 23.15 L8.95 23.35 6.7 23.15" fill="#ffffff" fill-rule="evenodd" stroke="none"/>
    <path d="M0.65 27.3 Q-0.15 27.8 -1.05 27.8 -3.65 27.85 -4.55 26.45 -5.3 25.25 -5.25 22.4 -5.2 19.5 -4.55 13.55 -3.95 7.6 -3.4 -2.5 -2.9 -12.65 -4.2 -19.95 L-4.25 -20.3 Q-5.6 -20.7 -6.7 -21.2 L-7.5 -21.6 Q-11.1 -23.5 -10.9 -25.55 -10.7 -27.55 -6.7 -28.5 L2.8 -29.0 Q8.25 -28.4 11.95 -26.45 15.6 -24.65 15.4 -22.65 15.2 -20.6 11.15 -19.55 L6.25 -18.9 Q5.2 -16.9 4.25 -14.35 L3.85 -13.35 Q2.55 -9.75 1.4 -5.1 0.25 -0.2 -0.55 4.35 L-0.55 4.4 3.35 4.3 3.65 4.3 3.85 3.0 Q4.75 -1.5 6.1 -5.55 L6.75 -7.45 Q7.2 -8.7 7.95 -9.7 8.65 -10.7 9.4 -10.8 12.1 -11.1 14.05 -9.25 L14.7 -8.5 Q15.3 -7.2 15.15 -5.0 L15.15 -4.7 14.95 -2.75 14.95 -2.7 14.1 3.45 13.0 9.6 12.6 11.5 Q13.3 11.7 13.3 12.1 13.3 12.8 12.55 14.7 L11.95 14.7 11.95 14.85 11.85 15.25 11.3 19.05 10.4 18.95 10.25 20.75 10.25 20.8 Q10.95 21.1 11.15 21.9 L11.35 23.75 11.25 23.95 Q12.1 24.65 11.1 24.95 L8.95 24.45 6.95 24.1 6.0 23.95 Q5.8 23.1 6.7 23.15 L6.95 22.2 7.15 21.65 7.35 21.4 Q7.95 20.65 8.75 20.55 L8.8 20.5 9.1 19.4 9.2 19.1 9.25 18.75 8.6 18.6 9.3 15.25 M9.4 14.7 L8.75 14.7 9.1 13.8 8.6 13.85 8.5 13.85 7.65 13.85 5.85 13.85 5.8 14.5 5.1 14.5 4.85 14.55 4.85 14.6 4.75 15.15 M4.75 15.3 Q3.9 21.85 2.9 24.3 L2.25 25.6 Q1.55 26.75 0.65 27.3 M-3.2 -20.0 L-4.25 -20.3 M4.7 -18.9 L2.75 -19.0 1.7 -19.1 -1.15 -19.5 -1.25 -19.55 -3.2 -20.0 M4.7 -18.9 L6.25 -18.9 M4.55 11.35 L5.1 11.3 5.2 11.3 5.3 10.0 5.35 9.4 6.35 4.25 Q7.05 -0.3 8.1 -3.65 L9.1 -6.55 10.2 -8.65 11.35 -8.6 11.7 -8.4 11.75 -8.3 12.3 -7.15 12.55 -6.55 12.6 -3.75 11.4 4.25 10.3 10.25 10.1 11.3 10.4 11.3 11.9 11.4 12.0 11.4 12.15 11.45 12.6 11.5 M4.5 4.55 Q4.75 4.75 4.8 5.2 L4.8 5.45 4.6 6.15 4.5 6.3 3.2 6.85 2.4 11.55 3.5 11.45 4.55 11.35 M3.65 4.3 Q4.2 4.35 4.5 4.55 M2.4 11.55 L1.7 11.65 1.7 14.6 1.95 14.6 3.85 14.6 4.2 14.55 M3.2 6.85 L2.15 6.95 -0.95 6.9 -1.9 12.7 -2.4 16.45 1.75 16.1 1.75 16.05 1.85 15.35 1.95 14.6 M5.95 12.1 L5.8 11.35 5.2 11.3 M5.95 12.1 L7.65 12.15 9.2 12.3 9.2 11.3 10.1 11.35 10.1 11.3 M9.2 12.3 L9.4 12.3 9.9 12.35 10.75 12.55 10.8 12.55 11.25 12.75 11.45 13.0 11.25 13.35 M11.2 14.7 L11.95 14.7 M-0.85 6.3 L-0.95 6.9 M9.1 13.8 L9.6 13.8 10.2 13.8 10.5 13.75 11.25 13.35 M-1.4 25.3 L-1.7 25.3 -1.85 25.3 -2.15 25.2 -2.2 25.15 -2.8 23.7 -2.8 20.85 -2.55 18.05 -2.5 17.3 -2.45 17.05 -2.4 16.45 M2.45 17.9 L2.1 18.05 1.5 18.05 0.45 23.15 Q-0.15 25.1 -1.4 25.3 M1.75 16.1 L2.0 16.05 1.75 16.05 M2.0 16.05 L2.25 16.05 2.6 16.3 2.7 16.4 2.8 16.5 3.1 17.05 3.05 17.35 2.45 17.9 M9.75 18.85 L9.25 18.75 M8.8 20.5 L9.4 20.6 9.6 20.65 10.15 20.7 10.25 20.75 M9.5 23.5 L9.05 23.35 8.95 23.35 6.7 23.15 M11.25 23.95 L9.65 23.55 9.55 23.5 9.5 23.5 9.65 23.55 M10.15 18.9 L10.4 18.95 M11.15 14.7 L9.4 14.7 M9.75 18.85 L10.15 18.9 M5.95 12.1 L5.85 13.85 M-0.55 4.4 L-0.7 5.45 -0.85 6.3 M-2.55 18.05 L1.5 18.05" fill="none" stroke="#000000" stroke-linecap="round" stroke-linejoin="round" stroke-opacity="0.4" stroke-width="0.05"/>
    <path d="M4.4 -28.05 L5.4 -27.9 6.05 -27.65 5.95 -27.5 7.15 -27.5 7.3 -27.2 Q8.3 -27.2 8.2 -26.8 L9.9 -26.35 9.95 -26.25 9.75 -26.15 8.6 -26.3 Q7.75 -26.45 7.75 -26.8 L6.15 -27.1 Q5.4 -27.15 5.4 -27.4 L5.55 -27.6 4.15 -27.95 4.05 -28.0 4.4 -28.05 M7.8 -20.8 L8.3 -20.8 8.4 -20.7 7.7 -20.2 4.45 -20.05 0.35 -20.45 -3.75 -21.45 Q-4.5 -21.6 -5.85 -22.45 -7.25 -22.9 -7.9 -23.55 -6.1 -22.45 -1.95 -21.45 2.0 -20.5 4.45 -20.5 L7.2 -20.5 7.8 -20.8 M2.95 11.65 Q3.55 11.55 3.55 12.2 3.55 12.65 2.95 12.65 2.35 12.65 2.35 12.2 2.35 11.75 2.95 11.65 M10.8 12.25 Q10.3 12.25 10.3 11.85 10.3 11.45 10.85 11.55 11.4 11.65 11.4 11.9 11.4 12.25 10.8 12.25 M-3.15 7.95 L-3.95 13.15 -4.05 11.95 -3.75 9.85 -3.5 7.3 -3.15 3.15 -2.7 -1.0 -2.65 0.9 Q-2.65 3.95 -3.15 7.95 M-4.25 14.9 L-4.3 14.9 -4.3 14.55 -4.1 14.05 -4.25 14.9 M-4.4 19.65 L-4.3 20.5 Q-4.3 21.35 -4.55 21.35 -5.05 21.35 -5.15 20.05 L-4.9 19.55 Q-4.65 19.3 -4.4 19.65" fill="#ffffff" fill-rule="evenodd" stroke="none"/>
  </g>
</svg>
