<?xml version="1.0" encoding="UTF-8" standalone="no"?>
<svg xmlns:xlink="http://www.w3.org/1999/xlink" height="40.0px" width="69.3px" xmlns="http://www.w3.org/2000/svg">
  <g transform="matrix(1.0, 0.0, 0.0, 1.0, 33.5, 19.55)">
    <path d="M6.15 10.05 L7.4 7.2" fill="none" stroke="#000000" stroke-linecap="round" stroke-linejoin="round" stroke-opacity="0.4" stroke-width="0.05"/>
    <path d="M-9.05 -11.2 Q-16.8 -12.7 -23.15 -9.65 -29.4 -6.55 -30.65 -0.7 -31.9 5.2 -27.35 10.45 -22.75 15.6 -15.0 17.1 -7.3 18.6 -1.0 15.5 5.3 12.45 6.55 6.55 7.8 0.7 3.2 -4.5 -1.4 -9.65 -9.05 -11.2 M-8.65 -13.1 Q0.1 -11.4 5.3 -5.5 10.5 0.35 9.05 7.05 7.65 13.75 0.5 17.3 -6.65 20.75 -15.4 19.05 -24.2 17.3 -29.4 11.45 -34.6 5.5 -33.2 -1.2 -31.75 -7.9 -24.65 -11.35 -17.45 -14.85 -8.65 -13.1" fill="#3f4574" fill-rule="evenodd" stroke="none"/>
    <path d="M-9.05 -11.2 Q-1.4 -9.65 3.2 -4.5 7.8 0.7 6.55 6.55 5.3 12.45 -1.0 15.5 -7.3 18.6 -15.0 17.1 -22.75 15.6 -27.35 10.45 -31.9 5.2 -30.65 -0.7 -29.4 -6.55 -23.15 -9.65 -16.8 -12.7 -9.05 -11.2 M-8.65 -13.1 Q0.1 -11.4 5.3 -5.5 10.5 0.35 9.05 7.05 7.65 13.75 0.5 17.3 -6.65 20.75 -15.4 19.05 -24.2 17.3 -29.4 11.45 -34.6 5.5 -33.2 -1.2 -31.75 -7.9 -24.65 -11.35 -17.45 -14.85 -8.65 -13.1" fill="none" stroke="#000000" stroke-linecap="round" stroke-linejoin="round" stroke-opacity="0.4" stroke-width="0.05"/>
    <path d="M-13.65 4.15 L-13.65 3.9 -13.95 1.35 M-16.05 3.3 L-16.1 3.15 -16.65 2.45 -17.95 1.2" fill="none" stroke="#b3892b" stroke-linecap="round" stroke-linejoin="round" stroke-opacity="0.3019608" stroke-width="0.05"/>
    <path d="M0.05 1.65 Q-1.4 0.9 -3.95 0.6 -6.8 0.25 -10.25 0.6 L-11.55 0.7 M-0.45 -1.35 L-1.5 -1.6 -9.85 -3.25 Q-10.15 -3.25 -11.05 -3.75 L-12.35 -4.4 -15.9 -4.35 -16.1 -4.35 -16.8 -2.75 -17.05 -2.3 M-20.75 0.1 L-20.95 0.9 -21.4 3.15 Q-21.0 4.4 -20.9 5.85 M-19.75 6.25 L-18.9 6.0 M-23.35 0.0 L-23.15 0.3 Q-22.8 1.3 -23.85 4.5 M-16.85 -6.8 L-16.65 -6.6 -15.95 -5.45 Q-15.8 -5.1 -16.1 -4.35 L-18.15 -4.25 M-13.65 4.15 Q-13.4 5.1 -13.7 6.8 L-12.6 7.05 -7.7 7.2 -7.65 7.2 -8.55 6.15 -9.6 4.85 -9.45 3.5 -8.9 1.5 M-7.7 9.25 Q-7.25 8.1 -7.4 7.65 L-7.65 7.2 -4.75 6.45 -4.4 6.35 M-16.85 5.65 Q-15.85 4.25 -16.05 3.3 M-13.75 6.9 L-13.7 6.8 -13.95 6.75" fill="none" stroke="#1b6522" stroke-linecap="round" stroke-linejoin="round" stroke-opacity="0.3019608" stroke-width="0.05"/>
    <path d="M2.3 -9.85 L2.35 -9.6 2.9 -5.85 Q3.3 -2.25 2.5 -1.55 L2.0 -1.0 Q3.55 -0.85 4.8 -1.0 L5.35 -2.9 4.85 -6.1 Q4.4 -8.55 5.05 -10.15 5.65 -11.4 5.85 -14.0 6.15 -16.85 5.7 -18.2 L5.2 -19.55 M5.6 -1.1 L4.8 -1.0 4.55 0.0 Q3.95 2.0 4.1 3.55 L4.15 3.65 6.2 3.7 6.95 3.7 M0.1 2.85 Q-0.1 4.75 -0.8 6.2 L-0.8 6.25 1.5 8.15 1.9 8.45 Q2.45 5.85 2.2 5.1 L1.35 2.7 1.0 2.35 0.05 1.65 M-11.55 0.7 Q-15.8 0.85 -17.2 -0.7 L-17.5 -1.0 -17.5 0.15 -16.25 2.4 M1.9 8.45 L2.75 8.75 2.9 8.35 Q4.35 5.3 4.15 3.65 L3.85 3.75 Q2.7 3.8 2.0 3.3 L1.35 2.7 Q0.95 0.45 2.0 -1.0 L-0.45 -1.35 M-17.05 -2.3 L-17.5 -1.0 Q-18.1 -1.4 -18.8 -1.5 L-20.35 -1.5 -20.75 0.1 M-20.9 5.85 L-20.85 6.4 -20.9 6.45 -19.75 6.25 M2.75 8.75 L4.85 8.55 5.5 8.4 M3.95 11.2 L3.3 11.35 1.7 11.35 1.65 11.65 1.8 13.25 3.1 13.05 M1.9 8.45 L1.65 9.8 1.3 11.3 1.7 11.35 2.75 8.75 M0.7 14.35 L1.75 13.45 1.8 13.25 0.75 13.35 0.4 14.35 M1.3 11.3 L0.75 13.35 -2.85 13.55 -2.95 14.6 Q-3.35 16.45 -3.95 16.6 L-4.3 16.6 M-21.1 -6.95 L-21.25 -6.95 -23.9 -6.75 -24.3 -5.6 -24.8 -3.7 -20.4 -4.1 -20.3 -4.1 -20.35 -4.25 -21.1 -6.2 -21.1 -6.95 -21.05 -7.6 -20.95 -8.65 -21.6 -8.6 M-20.8 -9.15 L-20.95 -8.65 -17.05 -8.75 -16.8 -9.4 Q-16.2 -10.9 -16.45 -11.6 L-17.35 -13.15 M-23.75 -8.6 Q-23.55 -8.1 -23.9 -6.75 M-25.7 -8.35 Q-25.8 -5.85 -26.25 -0.65 L-26.25 -0.05 -26.05 -0.1 -23.9 -0.85 -24.0 -1.05 -24.8 -2.35 -24.8 -3.7 -25.3 -3.65 M-29.85 -0.1 L-29.1 -0.05 -29.0 -1.8 M-20.35 -1.5 L-23.8 -0.9 -23.9 -0.85 -23.35 0.0 M-23.85 4.5 L-24.2 5.45 -24.4 6.05 -20.9 6.45 Q-20.75 8.15 -21.05 8.95 L-21.3 9.55 -19.6 9.7 Q-19.35 8.5 -17.8 6.85 L-17.05 5.9 -17.4 5.85 M-4.9 -9.15 L-9.75 -9.05 -10.15 -7.4 -9.55 -7.3 -7.35 -6.35 Q-6.3 -5.75 -3.75 -5.9 L-3.6 -5.95 Q-3.6 -6.75 -3.75 -7.2 L-4.4 -8.45 -4.65 -9.85 Q-4.8 -10.4 -4.2 -11.55 L-3.7 -13.0 -4.65 -13.75 -5.5 -14.65 -5.3 -15.8 M-9.75 -9.05 L-17.05 -8.75 -17.3 -7.6 -17.1 -7.15 -12.05 -7.6 -10.55 -7.45 -10.4 -7.45 -10.15 -7.4 -10.2 -7.35 -10.4 -7.45 M-16.85 -6.8 L-17.1 -7.15 -19.1 -6.9 -21.1 -6.95 M-18.15 -4.25 L-20.3 -4.1 Q-20.0 -2.95 -20.1 -2.35 L-20.35 -1.5 M-9.75 -9.05 L-9.6 -10.0 Q-9.15 -12.5 -9.5 -13.8 M-0.4 -6.2 L-3.6 -5.95 -3.65 -5.3 -3.9 -3.95 M-4.4 6.35 L-0.8 6.2 Q-1.4 7.5 -2.3 8.45 -3.6 9.8 -3.6 11.0 L1.3 11.3 M-13.75 6.9 L-14.0 8.2 -14.45 10.1 -10.95 10.4 -8.35 10.65 -8.35 10.55 -7.7 9.25 M-3.6 11.0 L-8.35 10.65 Q-9.55 12.8 -9.5 13.6 L-2.85 13.55 -2.75 12.75 -3.1 12.2 -3.45 11.65 -3.6 11.0 M-17.05 5.9 L-16.85 5.65 M-21.3 9.55 L-22.35 11.95 -22.5 12.3 -18.45 12.9 Q-18.25 12.4 -18.4 11.95 L-18.95 11.35 -19.55 10.5 -19.6 9.7 -14.45 10.1 -14.7 11.05 -13.75 13.3 -13.1 13.4 -9.5 13.6 -9.5 13.65 -9.35 15.55 Q-9.4 16.65 -10.1 17.15 M-13.95 6.75 L-17.05 5.9 M-13.75 13.3 L-13.55 13.9 Q-13.35 14.55 -13.9 15.4 L-15.05 16.55 M-19.5 14.6 L-18.8 13.7 -18.45 12.9 -13.75 13.3 M-24.95 10.95 L-25.15 9.2 -24.4 6.05 -24.65 6.0 -26.65 5.3 -27.05 9.05 M-27.15 5.1 L-26.65 5.3 -26.25 -0.05 -27.7 0.0 -29.1 -0.05 Q-29.4 6.55 -29.15 7.25 M-21.3 9.55 L-25.15 9.2 M-25.7 11.45 L-22.5 12.3 -23.4 13.9" fill="none" stroke="#ffffff" stroke-linecap="round" stroke-linejoin="round" stroke-opacity="0.3019608" stroke-width="0.05"/>
    <path d="M18.9 10.45 L18.05 12.4 18.05 12.5 17.1 12.1 16.65 11.5 Q16.5 11.1 15.6 11.2 L9.75 12.3 4.6 13.65 Q1.75 14.5 1.75 14.9 L2.05 15.35 Q2.35 15.55 2.75 15.6 L-0.55 16.45 5.25 10.9 6.4 9.6 4.55 12.9 4.95 12.9 11.25 11.4 13.3 10.7 12.85 10.05 Q13.35 10.5 13.65 10.5 14.3 10.5 14.3 9.9 L13.05 8.05 11.5 6.15 9.6 3.55 Q8.55 2.35 8.55 3.65 L9.2 5.1 9.4 5.35 8.55 4.75 7.75 6.8 Q8.05 5.5 7.95 4.0 7.75 1.15 7.95 -1.7 L10.25 3.2 Q11.4 5.1 13.55 7.0 15.7 8.8 18.9 10.45 M33.25 17.3 L33.35 16.95 33.55 16.6 33.35 17.15 33.25 17.3 M5.85 14.8 L6.5 14.65 6.9 14.5 Q10.6 13.35 11.3 13.35 L11.45 13.35 5.85 14.8" fill="#5f66a9" fill-rule="evenodd" stroke="none"/>
    <path d="M33.55 16.6 L34.15 14.85 34.4 14.85 35.45 15.25 Q35.8 15.35 35.8 16.0 35.8 16.8 35.2 18.05 L34.2 16.9 33.35 17.15 33.55 16.6" fill="#f9e006" fill-rule="evenodd" stroke="none"/>
    <path d="M18.05 12.5 L17.55 13.45 17.55 13.5 11.85 13.25 11.45 13.35 11.3 13.35 Q10.6 13.35 6.9 14.5 L6.5 14.65 5.85 14.8 3.1 15.55 2.8 15.6 2.75 15.6 Q2.35 15.55 2.05 15.35 L1.75 14.9 Q1.75 14.5 4.6 13.65 L9.75 12.3 15.6 11.2 Q16.5 11.1 16.65 11.5 L17.1 12.1 18.05 12.5 M12.45 9.5 L11.85 8.7 10.8 7.3 9.45 5.4 9.4 5.35 9.2 5.1 8.55 3.65 Q8.55 2.35 9.6 3.55 L11.5 6.15 13.05 8.05 14.3 9.9 Q14.3 10.5 13.65 10.5 13.35 10.5 12.85 10.05 L12.8 10.0 12.45 9.5 12.85 10.05 12.45 9.5" fill="#3f4574" fill-rule="evenodd" stroke="none"/>
    <path d="M18.9 10.45 L19.05 10.05 19.65 10.25 20.35 10.5 21.55 10.25 Q22.45 10.25 23.15 10.95 L23.9 11.6 24.8 11.4 Q25.7 11.4 26.75 12.1 L27.85 12.75 29.2 12.55 Q29.95 12.55 30.8 13.0 L32.05 13.6 Q32.7 13.75 33.4 14.15 34.15 14.6 34.15 14.85 L33.55 16.6 33.35 16.95 33.25 17.3 32.7 18.45 Q32.15 19.6 31.6 19.6 31.15 19.6 30.2 18.75 29.25 17.85 28.25 18.0 27.25 18.15 26.15 17.3 25.05 16.45 23.95 16.45 L22.35 16.35 20.45 15.3 18.6 15.05 Q17.2 14.8 17.2 14.2 L17.55 13.5 17.55 13.45 18.05 12.5 18.05 12.4 18.9 10.45 M33.35 15.05 L33.3 14.85 Q32.75 14.7 32.2 15.25 31.65 15.8 31.65 16.1 L31.7 16.5 32.1 16.6 33.35 15.05 M22.65 13.6 L22.7 14.0 Q22.85 14.35 23.5 14.35 24.35 14.35 25.2 13.8 L25.95 13.05 Q25.95 11.6 24.3 12.1 22.65 12.55 22.65 13.6 M28.7 14.75 L29.35 13.9 Q29.35 12.75 27.55 13.2 25.7 13.7 25.7 14.6 L25.85 14.95 26.95 15.25 Q27.95 15.25 28.7 14.75 M30.3 14.1 Q28.65 14.7 28.65 15.45 28.65 16.3 30.25 16.3 30.9 16.3 31.45 15.6 L31.9 14.6 Q31.9 13.5 30.3 14.1 M22.6 11.4 Q22.6 10.5 21.25 11.2 19.9 11.9 19.9 12.7 L19.95 13.05 Q20.05 13.4 20.45 13.4 21.2 13.4 21.95 12.6 L22.6 11.4 M19.15 11.2 Q18.45 11.75 18.45 12.25 18.45 12.7 18.8 12.85 L19.85 11.4 Q19.85 10.6 19.15 11.2" fill="#574d4a" fill-rule="evenodd" stroke="none"/>
    <path d="M22.6 11.4 L21.95 12.6 Q21.2 13.4 20.45 13.4 20.05 13.4 19.95 13.05 L19.9 12.7 Q19.9 11.9 21.25 11.2 22.6 10.5 22.6 11.4 M30.3 14.1 Q31.9 13.5 31.9 14.6 L31.45 15.6 Q30.9 16.3 30.25 16.3 28.65 16.3 28.65 15.45 28.65 14.7 30.3 14.1 M28.7 14.75 Q27.95 15.25 26.95 15.25 L25.85 14.95 25.7 14.6 Q25.7 13.7 27.55 13.2 29.35 12.75 29.35 13.9 L28.7 14.75 M22.65 13.6 Q22.65 12.55 24.3 12.1 25.95 11.6 25.95 13.05 L25.2 13.8 Q24.35 14.35 23.5 14.35 22.85 14.35 22.7 14.0 L22.65 13.6 M33.35 15.05 L32.1 16.6 31.7 16.5 31.65 16.1 Q31.65 15.8 32.2 15.25 32.75 14.7 33.3 14.85 L33.35 15.05 M19.15 11.2 Q19.85 10.6 19.85 11.4 L18.8 12.85 Q18.45 12.7 18.45 12.25 18.45 11.75 19.15 11.2" fill="#8e7d79" fill-rule="evenodd" stroke="none"/>
    <path d="M31.6 19.6 Q32.15 19.6 32.7 18.45 L33.25 17.3 33.35 17.15 34.2 16.9 35.2 18.05 34.75 18.8 Q33.7 20.5 33.45 20.45 L32.45 20.05 31.6 19.6" fill="#dc8e1b" fill-rule="evenodd" stroke="none"/>
    <path d="M34.15 14.85 Q34.15 14.6 33.4 14.15 32.7 13.75 32.05 13.6 L30.8 13.0 Q29.95 12.55 29.2 12.55 L27.85 12.75 26.75 12.1 Q25.7 11.4 24.8 11.4 L23.9 11.6 23.15 10.95 Q22.45 10.25 21.55 10.25 L20.35 10.5 19.65 10.25 19.05 10.05 18.9 10.45 18.05 12.4 18.05 12.5 M17.55 13.45 L17.55 13.5 17.2 14.2 Q17.2 14.8 18.6 15.05 L20.45 15.3 22.35 16.35 23.95 16.45 Q25.05 16.45 26.15 17.3 27.25 18.15 28.25 18.0 29.25 17.85 30.2 18.75 31.15 19.6 31.6 19.6 32.15 19.6 32.7 18.45 L33.25 17.3 33.35 17.15 33.55 16.6 34.15 14.85 34.4 14.85 35.45 15.25 Q35.8 15.35 35.8 16.0 35.8 16.8 35.2 18.05 L34.75 18.8 Q33.7 20.5 33.45 20.45 L32.45 20.05 31.6 19.6 M9.4 5.35 L9.45 5.4 10.8 7.3 11.85 8.7 12.45 9.5 12.85 10.05 13.3 10.7 11.25 11.4 4.95 12.9 4.55 12.9 6.4 9.6 M9.4 5.35 L8.55 4.75 7.75 6.8 M7.95 -1.7 L10.25 3.2 Q11.4 5.1 13.55 7.0 15.7 8.8 18.9 10.45 M-0.55 16.45 L2.75 15.6 M11.45 13.35 L11.85 13.25 17.55 13.5 M3.1 15.55 L5.85 14.8 11.45 13.35" fill="none" stroke="#000000" stroke-linecap="round" stroke-linejoin="round" stroke-opacity="0.4" stroke-width="0.05"/>
    <path d="M-8.35 -14.15 Q0.35 -12.45 5.55 -6.55 10.8 -0.65 9.35 6.0 7.9 12.65 0.8 16.2 -6.35 19.65 -15.15 17.95 L-17.45 17.4 -18.15 17.25 Q-23.05 15.7 -24.95 14.2 L-26.85 12.55 -27.15 12.4 -27.4 12.1 -27.65 11.9 -29.15 10.35 Q-34.35 4.4 -32.95 -2.2 -31.55 -8.9 -24.4 -12.35 -17.2 -15.9 -8.35 -14.15 M-22.9 -10.65 Q-29.15 -7.6 -30.4 -1.75 -31.65 4.15 -27.05 9.35 L-26.25 10.2 Q-22.05 14.4 -15.45 15.9 L-14.75 16.05 Q-7.05 17.5 -0.75 14.45 5.5 11.35 6.8 5.5 8.05 -0.35 3.45 -5.6 -1.1 -10.75 -8.75 -12.25 -16.55 -13.75 -22.9 -10.65" fill="#5f66a9" fill-rule="evenodd" stroke="none"/>
    <path d="M-8.35 -14.15 Q0.35 -12.45 5.55 -6.55 10.8 -0.65 9.35 6.0 7.9 12.65 0.8 16.2 -6.35 19.65 -15.15 17.95 L-17.45 17.4 -18.15 17.25 Q-23.05 15.7 -24.95 14.2 L-26.85 12.55 -27.15 12.4 -27.4 12.1 -27.65 11.9 -29.15 10.35 Q-34.35 4.4 -32.95 -2.2 -31.55 -8.9 -24.4 -12.35 -17.2 -15.9 -8.35 -14.15 M-22.9 -10.65 Q-16.55 -13.75 -8.75 -12.25 -1.1 -10.75 3.45 -5.6 8.05 -0.35 6.8 5.5 5.5 11.35 -0.75 14.45 -7.05 17.5 -14.75 16.05 L-15.45 15.9 Q-22.05 14.4 -26.25 10.2 L-27.05 9.35 Q-31.65 4.15 -30.4 -1.75 -29.15 -7.6 -22.9 -10.65" fill="none" stroke="#000000" stroke-linecap="round" stroke-linejoin="round" stroke-opacity="0.4" stroke-width="0.05"/>
    <path d="M-30.4 -6.05 L-30.45 -6.05 Q-27.55 -10.1 -23.85 -11.75 -20.2 -13.45 -18.15 -13.65 L-15.25 -13.85 Q-21.15 -12.7 -24.9 -10.6 -27.5 -9.1 -30.4 -6.05 M6.4 9.6 L5.35 10.9 Q3.3 13.3 0.55 14.8 L6.4 9.6 M-3.7 16.4 L-6.05 16.65 -0.85 15.55 -3.7 16.4 M15.15 9.5 L14.85 9.6 Q13.9 9.6 10.9 5.6 L10.95 5.6 15.15 9.5" fill="#ffffff" fill-rule="evenodd" stroke="none"/>
  </g>
</svg>
