<?xml version="1.0" encoding="UTF-8" standalone="no"?>
<svg xmlns:xlink="http://www.w3.org/1999/xlink" height="16.25px" width="6.25px" xmlns="http://www.w3.org/2000/svg">
  <g transform="matrix(1.0, 0.0, 0.0, 1.0, -22.2, -31.8)">
    <path d="M28.45 32.9 Q28.45 33.55 28.05 33.55 27.7 33.55 27.2 32.7 26.7 31.8 27.6 31.8 27.85 31.8 28.15 32.2 L28.45 32.9 M26.55 35.5 Q26.0 35.5 26.35 34.7 26.65 33.85 26.9 33.85 27.25 33.85 27.25 34.5 27.25 35.3 26.55 35.5 M24.05 42.75 L24.2 43.15 Q24.2 44.5 23.65 44.5 23.35 44.5 23.35 44.05 L23.4 42.8 Q23.4 42.6 23.55 42.5 L23.7 42.45 Q23.85 42.45 24.05 42.75 M24.75 39.65 Q24.3 39.65 24.6 38.8 24.85 37.9 25.05 37.9 25.45 37.9 25.45 38.35 L25.2 39.2 24.75 39.65 M22.95 46.15 L23.15 46.95 Q23.15 47.65 22.75 48.05 22.45 48.0 22.25 46.85 22.1 45.7 22.6 45.7 L22.95 46.15" fill="#ffd633" fill-rule="evenodd" stroke="none"/>
  </g>
</svg>
