<?xml version="1.0" encoding="UTF-8" standalone="no"?>
<svg xmlns:xlink="http://www.w3.org/1999/xlink" height="27.0px" width="36.2px" xmlns="http://www.w3.org/2000/svg">
  <g transform="matrix(1.0, 0.0, 0.0, 1.0, 0.0, 0.0)">
    <path d="M27.2 2.65 L28.6 2.75 32.0 3.25 32.35 3.5 32.85 3.4 33.05 3.8 Q31.45 6.0 22.8 9.75 14.15 13.5 2.35 9.9 L3.6 9.25 5.2 8.45 6.6 7.75 7.15 7.5 8.9 6.65 10.0 6.15 10.1 6.15 11.8 5.35 13.05 4.9 Q15.15 4.1 17.3 3.65 L21.35 2.9 22.9 2.75 23.65 2.7 24.8 2.65 26.3 2.65 27.2 2.65" fill="#fdb713" fill-rule="evenodd" stroke="none"/>
    <path d="M22.9 2.75 L21.35 2.9 17.3 3.65 Q15.15 4.1 13.05 4.9 L11.8 5.35 10.1 6.15 10.0 6.15 8.9 6.65 7.15 7.5 6.6 7.75 5.2 8.45 3.6 9.25 2.35 9.9 Q14.15 13.5 22.8 9.75 31.45 6.0 33.05 3.8 L32.85 3.4 32.35 3.5 32.0 3.25 28.6 2.75 27.2 2.65 26.3 2.65 24.8 2.65 23.65 2.7 22.9 2.75 M35.25 4.05 L35.05 3.6 34.3 4.45 32.0 7.55 Q30.2 9.35 27.85 10.6 26.45 9.5 26.05 11.4 L26.05 11.5 23.85 12.6 Q23.45 13.0 22.95 15.6 22.3 14.15 21.55 13.4 19.1 10.95 19.1 15.95 19.05 18.05 19.35 19.6 L19.75 21.0 16.6 22.15 15.95 19.6 15.8 19.25 Q14.6 16.65 13.3 15.35 11.8 13.85 11.1 14.45 10.5 14.95 10.6 16.85 10.7 18.35 11.05 19.6 L12.15 22.4 9.45 22.0 9.1 20.9 8.1 18.25 Q6.35 13.7 5.85 13.2 4.75 12.1 4.3 12.75 3.8 13.35 4.1 15.05 4.55 18.6 6.5 21.05 L4.5 20.35 Q3.55 19.2 2.85 17.7 1.7 15.15 0.8 12.45 L0.8 12.35 0.0 9.35 3.9 6.45 5.45 5.5 6.05 5.2 Q8.65 3.7 11.45 2.8 L16.8 1.35 22.05 0.4 27.35 0.0 Q30.0 0.05 32.2 0.95 34.45 1.8 35.0 3.45 L35.1 3.55 35.25 4.05" fill="#faf4eb" fill-rule="evenodd" stroke="none"/>
    <path d="M4.5 20.35 L6.5 21.05 Q4.55 18.6 4.1 15.05 3.8 13.35 4.3 12.75 4.75 12.1 5.85 13.2 6.35 13.7 8.1 18.25 L9.1 20.9 9.45 22.0 12.15 22.4 11.05 19.6 Q10.7 18.35 10.6 16.85 10.5 14.95 11.1 14.45 11.8 13.85 13.3 15.35 14.6 16.65 15.8 19.25 L15.95 19.6 16.6 22.15 19.75 21.0 19.35 19.6 Q19.05 18.05 19.1 15.95 19.1 10.95 21.55 13.4 22.3 14.15 22.95 15.6 23.45 13.0 23.85 12.6 L26.05 11.5 26.05 11.4 Q26.45 9.5 27.85 10.6 30.2 9.35 32.0 7.55 L34.3 4.45 35.05 3.6 35.25 4.05 35.25 4.1 35.8 5.85 35.9 6.45 36.0 6.85 Q36.3 8.45 36.1 11.05 35.9 13.65 34.6 16.3 L32.45 19.6 30.15 21.4 Q31.75 22.2 30.0 23.45 28.2 24.7 23.85 25.9 19.45 27.1 17.65 27.0 15.85 26.9 16.1 26.35 L16.05 25.4 12.2 25.0 9.15 23.8 9.1 23.8 8.7 23.55 8.45 23.4 6.9 22.45 Q5.45 21.6 4.5 20.35 M30.15 21.4 Q27.8 23.0 25.05 23.85 20.65 25.1 17.2 25.35 L16.05 25.4 17.2 25.35 Q20.65 25.1 25.05 23.85 27.8 23.0 30.15 21.4" fill="#c1a668" fill-rule="evenodd" stroke="none"/>
    <path d="M22.9 2.75 L21.35 2.9 17.3 3.65 Q15.15 4.1 13.05 4.9 L11.8 5.35 10.1 6.15 10.0 6.15 8.9 6.65 7.15 7.5 6.6 7.75 5.2 8.45 3.6 9.25 2.35 9.9 Q14.15 13.5 22.8 9.75 31.45 6.0 33.05 3.8 L32.85 3.4 32.35 3.5 32.0 3.25 28.6 2.75 27.2 2.65 M26.3 2.65 L24.8 2.65 23.65 2.7 M4.5 20.35 Q5.45 21.6 6.9 22.45 L8.45 23.4 8.7 23.55 9.1 23.8 9.15 23.8 12.2 25.0 16.05 25.4 17.2 25.35 Q20.65 25.1 25.05 23.85 27.8 23.0 30.15 21.4 L32.45 19.6 34.6 16.3 Q35.9 13.65 36.1 11.05 36.3 8.45 36.0 6.85 L35.9 6.45 35.8 5.85 35.25 4.1 35.25 4.05 35.1 3.55 35.0 3.45 Q34.45 1.8 32.2 0.95 30.0 0.05 27.35 0.0 L22.05 0.4 16.8 1.35 11.45 2.8 Q8.65 3.7 6.05 5.2 L5.45 5.5 3.9 6.45 0.0 9.35 0.8 12.35 0.8 12.45 Q1.7 15.15 2.85 17.7 3.55 19.2 4.5 20.35 M16.05 25.4 L16.1 26.35 Q15.85 26.9 17.65 27.0 19.45 27.1 23.85 25.9 28.2 24.7 30.0 23.45 31.75 22.2 30.15 21.4" fill="none" stroke="#000000" stroke-linecap="round" stroke-linejoin="round" stroke-opacity="0.4" stroke-width="0.05"/>
    <path d="M19.2 5.85 L20.95 3.9 21.35 2.9 22.45 1.6 Q22.85 1.2 23.4 1.05 23.9 0.95 24.2 1.25 L24.65 2.4 24.8 2.65 25.1 3.45 25.25 3.7 25.55 4.1 Q26.05 4.6 26.75 4.4 L27.8 3.75 28.2 3.25 27.2 2.65 26.3 2.65 M9.1 10.35 Q6.5 9.75 5.2 8.45 L4.85 8.1 3.9 6.45 3.75 6.3 3.7 6.35 3.8 6.15 Q4.5 5.45 5.25 5.2 5.7 5.05 6.05 5.2 6.3 5.25 6.5 5.45 6.95 5.9 6.6 7.75 L6.5 8.35 Q7.6 8.95 8.7 7.75 L9.25 7.2 8.9 6.65 8.75 6.4 8.1 5.05 7.85 5.2 7.05 6.9 6.95 7.1 7.15 7.5 M9.2 10.55 L8.45 10.9 8.15 10.6 Q7.05 9.5 5.1 9.25 4.25 9.1 3.6 9.25 2.35 9.4 1.5 10.25 1.1 10.65 0.8 12.35 L0.45 14.8 M9.25 7.2 L10.35 8.6 Q10.95 9.2 11.9 9.25 12.95 9.3 13.45 8.8 L13.45 7.8 12.8 7.75 11.6 4.75 11.45 4.8 Q11.0 4.95 10.75 5.2 L10.1 6.15 9.25 7.2 M13.45 7.8 L15.2 7.05 18.15 4.9 17.8 4.05 17.3 3.65 Q16.45 3.1 15.45 3.2 14.15 3.3 13.2 4.25 13.05 4.4 13.05 4.9 L13.25 6.6 13.45 7.8 M13.2 11.05 L13.9 9.85 Q14.75 8.6 15.45 7.9 15.8 7.55 16.5 8.15 L18.1 9.55 Q20.55 11.4 22.65 9.3 L23.9 7.55 21.35 7.4 Q19.2 6.55 17.95 7.8 M18.4 4.65 L18.15 4.9 18.2 5.55 Q18.15 6.8 17.45 7.5 L16.9 7.85 M25.1 3.45 Q24.45 2.8 23.65 2.7 L22.9 2.75 22.5 2.85 Q21.7 3.15 20.95 3.9 M28.35 5.4 L27.2 5.65 27.65 5.6 28.35 5.4 28.9 4.95 29.25 4.4 28.85 3.9 28.2 3.25 28.6 2.75 29.95 1.1 Q30.75 0.3 31.95 2.5 M22.9 4.95 Q24.4 6.05 23.9 7.55 L24.7 6.95 Q25.45 6.2 25.7 5.35 L26.95 5.6 27.2 5.65 M28.35 5.4 L29.45 5.1 Q30.95 4.6 32.35 3.5 L32.85 3.0" fill="none" stroke="#ffffcc" stroke-linecap="round" stroke-linejoin="round" stroke-width="0.05"/>
    <path d="M22.85 8.3 L22.5 8.45 22.3 8.45 22.55 8.1 22.75 7.9 22.9 8.05 22.85 8.3 M11.35 8.1 Q10.95 8.5 9.6 8.65 L8.25 8.6 Q7.9 8.25 8.5 7.75 9.1 7.35 9.75 7.3 L9.75 7.4 9.35 7.8 9.05 7.9 8.8 8.15 9.8 8.05 10.85 7.7 10.9 7.65 10.1 7.55 10.25 7.3 Q10.5 7.05 10.85 7.1 L11.3 7.25 11.5 7.65 11.35 8.1" fill="#ffffcc" fill-rule="evenodd" stroke="none"/>
    <path d="M22.85 8.3 L22.9 8.05 22.75 7.9 22.55 8.1 22.3 8.45 22.5 8.45 22.85 8.3 M23.75 7.4 L24.6 7.35 24.75 7.8 24.55 8.3 22.65 9.2 20.85 9.4 Q20.35 8.9 21.4 7.95 22.45 7.0 23.05 7.6 L23.75 7.4 M11.35 8.1 L11.5 7.65 11.3 7.25 10.85 7.1 Q10.5 7.05 10.25 7.3 L10.1 7.55 10.9 7.65 10.85 7.7 9.8 8.05 8.8 8.15 9.05 7.9 9.35 7.8 9.75 7.4 9.75 7.3 Q9.1 7.35 8.5 7.75 7.9 8.25 8.25 8.6 L9.6 8.65 Q10.95 8.5 11.35 8.1 M12.8 8.15 Q11.55 9.4 9.7 9.75 7.8 10.15 6.95 9.3 5.8 8.15 8.9 6.65 11.95 5.2 13.2 6.45 13.85 7.1 12.8 8.15" fill="#e87575" fill-rule="evenodd" stroke="none"/>
  </g>
</svg>
