<?xml version="1.0" encoding="UTF-8" standalone="no"?>
<svg xmlns:xlink="http://www.w3.org/1999/xlink" height="14.65px" width="34.15px" xmlns="http://www.w3.org/2000/svg">
  <g transform="matrix(1.0, 0.0, 0.0, 1.0, -1.6, -4.05)">
    <path d="M35.3 4.3 L35.3 5.6 35.75 7.75 35.75 8.3 35.5 8.45 35.25 8.35 34.85 6.3 34.1 4.3 Q35.25 3.8 35.3 4.3 M34.85 9.1 L33.05 11.1 30.9 12.8 Q30.45 12.7 29.75 10.95 L29.1 9.1 29.15 8.9 Q29.85 9.35 30.3 10.4 L30.95 12.1 34.1 8.95 33.0 6.75 32.85 6.55 30.95 7.65 31.15 8.45 31.35 9.3 31.6 9.1 32.0 8.9 32.2 8.95 32.25 9.1 Q31.9 10.25 31.3 10.15 30.85 10.1 30.55 8.8 L30.3 7.45 Q30.3 7.1 31.75 6.35 33.25 5.55 33.45 6.15 L34.2 7.55 34.85 9.1 M27.1 10.25 L24.2 11.65 Q22.3 12.55 20.95 13.45 L21.45 15.8 21.2 16.3 20.65 14.9 20.25 13.35 Q20.25 12.65 23.45 11.1 26.4 9.65 27.1 9.6 27.5 9.55 28.15 11.2 28.75 12.75 28.75 13.5 L24.25 16.15 23.35 13.85 Q23.35 13.35 23.65 13.35 L23.8 13.45 Q23.95 13.2 24.55 12.85 L26.0 12.75 24.1 14.0 23.95 13.7 24.1 14.0 24.4 15.15 24.4 15.25 Q26.25 14.0 28.1 13.35 L27.25 10.4 27.1 10.25 M8.2 14.35 L7.2 14.05 7.2 14.0 7.15 14.1 7.4 15.45 7.6 16.7 7.45 17.4 Q7.15 17.05 6.8 15.45 L6.5 13.65 Q6.5 13.3 7.1 13.3 L8.35 13.6 10.0 13.5 Q10.9 13.35 11.15 14.05 L11.3 15.15 11.7 17.4 Q11.7 18.15 11.4 18.35 L9.2 18.7 Q8.4 18.7 8.4 16.95 L8.4 15.45 8.75 15.35 Q9.25 15.35 9.25 17.85 L9.25 17.9 9.35 17.95 10.95 17.7 10.55 14.75 Q10.45 14.15 9.45 14.2 L8.2 14.35 M5.8 17.5 Q2.95 17.5 2.5 16.4 2.25 14.3 1.6 12.25 2.0 12.45 2.25 13.15 L2.7 14.5 Q2.95 14.9 2.8 15.8 3.05 16.5 5.45 16.75 L5.2 15.45 Q4.95 14.7 4.05 14.35 L4.3 15.45 3.95 15.75 Q3.45 15.75 3.3 14.0 L3.3 13.7 Q3.35 13.5 3.7 13.5 5.0 13.5 5.7 15.15 L6.15 17.1 Q6.15 17.5 5.8 17.5 M19.15 16.3 Q19.15 17.65 13.35 18.55 12.55 18.55 12.4 17.65 L12.45 16.55 12.2 14.5 Q12.2 14.05 12.45 13.95 12.9 14.65 13.05 15.85 L13.3 17.85 Q18.05 16.65 18.45 16.3 L18.0 13.95 15.25 14.1 15.2 14.6 15.3 15.55 15.55 15.5 Q15.9 15.5 15.9 15.85 15.9 16.3 15.2 16.3 14.75 16.3 14.6 15.5 L14.5 14.65 14.6 13.75 Q15.2 13.2 18.2 13.2 19.05 13.2 19.15 16.3" fill="#cc0000" fill-rule="evenodd" stroke="none"/>
  </g>
</svg>
