<?xml version="1.0" encoding="UTF-8" standalone="no"?>
<svg xmlns:xlink="http://www.w3.org/1999/xlink" height="13.9px" width="34.15px" xmlns="http://www.w3.org/2000/svg">
  <g transform="matrix(1.0, 0.0, 0.0, 1.0, 16.95, 6.9)">
    <path d="M10.8 -2.6 L10.8 -2.35 4.8 -2.65 Q5.1 -3.05 5.55 -3.15 L11.3 -3.2 11.35 -3.25 11.5 -3.5 11.95 -3.4 11.9 -2.65 10.8 -2.6 M2.15 -3.2 L3.1 -3.95 Q2.9 -2.5 1.5 -2.25 L-2.15 -2.65 -2.1 -3.05 2.15 -3.2 M-6.0 -3.45 L-5.75 -3.8 -5.55 -3.75 -5.8 -2.3 Q-7.7 -1.6 -9.0 -3.0 L-8.85 -2.95 -6.2 -3.05 -6.0 -3.45 M-14.55 -3.35 L-14.1 -3.5 Q-13.65 -3.25 -13.85 -2.7 -14.4 -1.4 -15.75 -1.95 L-15.75 -2.2 -15.8 -2.55 -15.6 -2.65 -14.7 -2.55 -14.55 -3.35 M-8.3 6.1 L-8.15 4.15 4.1 4.45 3.75 6.55 -8.3 6.1 M7.75 6.7 L7.45 6.35 Q7.15 5.7 8.4 5.5 9.6 5.25 9.85 5.8 10.05 6.2 9.35 6.55 L8.9 6.75 8.85 6.75 7.75 6.7 M13.3 6.9 L12.0 6.55 Q11.9 6.25 12.05 6.0 L12.4 5.75 Q13.35 5.5 14.4 6.0 L14.65 6.35 14.45 6.75 13.75 6.95 13.3 6.9 M14.7 6.95 L14.9 3.8 15.25 -2.7 15.35 -4.35 15.35 -4.7 15.2 -4.65 14.95 -4.7 17.15 -5.65 16.5 7.0 14.7 6.95 M13.6 3.75 L13.2 3.75 13.05 2.65 12.1 2.5 12.0 3.2 11.55 3.05 11.5 2.4 Q10.85 2.45 11.0 2.0 L11.55 1.7 12.05 -0.15 12.1 1.95 12.15 1.75 13.05 1.95 13.5 0.55 13.65 0.7 Q14.0 1.4 13.75 2.05 L14.85 2.45 14.55 2.7 13.7 2.75 13.6 3.75 M-4.45 1.0 Q-3.95 1.6 -4.5 2.15 -5.15 3.0 -5.85 2.35 L-5.85 2.0 -5.2 1.95 -4.45 1.0" fill="#c7c68d" fill-rule="evenodd" stroke="none"/>
    <path d="M5.55 -3.15 Q5.1 -3.05 4.8 -2.65 L10.8 -2.35 10.8 -2.6 11.9 -2.65 11.95 -3.4 11.5 -3.5 11.35 -3.25 11.3 -3.2 5.55 -3.15 5.05 -3.15 4.9 -4.45 2.25 -4.45 2.15 -3.2 2.25 -4.45 4.9 -4.45 5.05 -3.15 5.55 -3.15 M-2.1 -3.05 L-2.15 -2.65 1.5 -2.25 Q2.9 -2.5 3.1 -3.95 L2.15 -3.2 -2.1 -3.05 -4.1 -3.1 -4.2 -4.35 -5.9 -4.3 -6.0 -4.1 Q-5.85 -4.2 -5.95 -3.7 L-6.0 -3.45 -5.95 -3.7 Q-5.85 -4.2 -6.0 -4.1 L-5.9 -4.3 -4.2 -4.35 -4.1 -3.1 -2.1 -3.05 M-8.85 -2.95 L-9.0 -3.0 Q-7.7 -1.6 -5.8 -2.3 L-5.55 -3.75 -5.75 -3.8 -6.0 -3.45 -6.2 -3.05 -8.85 -2.95 -13.0 -2.95 -12.95 -4.15 -14.6 -4.15 -14.55 -3.35 -14.6 -4.15 -12.95 -4.15 -13.0 -2.95 -8.85 -2.95 M-15.75 -1.95 Q-14.4 -1.4 -13.85 -2.7 -13.65 -3.25 -14.1 -3.5 L-14.55 -3.35 -14.7 -2.55 -15.6 -2.65 -15.8 -2.55 -15.75 -2.2 -15.75 -1.95 -15.55 5.8 -15.75 -1.95 M-8.3 6.1 L-15.55 5.8 -16.7 5.75 -16.95 -5.5 -16.55 -6.2 8.65 -6.9 17.2 -6.85 17.15 -5.65 14.95 -4.7 15.2 -4.65 15.35 -4.7 15.35 -4.35 15.25 -2.7 14.9 3.8 14.7 6.95 13.75 6.95 14.45 6.75 14.65 6.35 14.4 6.0 Q13.35 5.5 12.4 5.75 L12.05 6.0 Q11.9 6.25 12.0 6.55 L13.3 6.9 8.9 6.75 9.35 6.55 Q10.05 6.2 9.85 5.8 9.6 5.25 8.4 5.5 7.15 5.7 7.45 6.35 L7.75 6.7 3.75 6.55 4.1 4.45 -8.15 4.15 -8.3 6.1 M13.6 3.75 L14.9 3.8 13.6 3.75 13.7 2.75 14.55 2.7 14.85 2.45 13.75 2.05 Q14.0 1.4 13.65 0.7 L13.5 0.55 13.05 1.95 12.15 1.75 12.1 1.95 12.05 -0.15 11.55 1.7 11.0 2.0 Q10.85 2.45 11.5 2.4 L11.55 3.05 12.0 3.2 12.1 2.5 13.05 2.65 13.2 3.75 13.6 3.75 M10.8 -2.35 L10.75 3.65 13.2 3.75 10.75 3.65 10.8 -2.35 M11.35 -4.6 L11.35 -3.25 11.35 -4.6 4.9 -4.45 11.35 -4.6 15.2 -4.65 11.35 -4.6 M11.9 -2.65 L15.25 -2.7 11.9 -2.65 M-8.1 -1.65 Q-8.55 -1.0 -7.95 -0.55 L-6.9 -0.6 -6.6 -1.25 -6.9 -0.6 -7.95 -0.55 Q-8.55 -1.0 -8.1 -1.65 M-4.45 1.0 L-5.2 1.95 -5.85 2.0 -5.85 2.35 Q-5.15 3.0 -4.5 2.15 -3.95 1.6 -4.45 1.0 M2.25 -4.45 L-4.2 -4.35 2.25 -4.45 M6.8 -0.05 L6.7 0.5 6.95 3.2 9.25 3.2 Q9.75 1.6 9.25 -0.2 L6.8 -0.05 9.25 -0.2 Q9.75 1.6 9.25 3.2 L6.95 3.2 6.7 0.5 6.8 -0.05 M1.45 1.35 Q1.2 1.95 1.65 2.1 L2.65 1.95 1.65 2.1 Q1.2 1.95 1.45 1.35 M0.75 -1.7 L0.55 -1.2 2.1 -1.05 0.55 -1.2 0.75 -1.7 M-3.0 1.95 L-2.95 2.4 -2.7 2.4 Q-1.8 2.1 -1.15 1.35 -1.8 2.1 -2.7 2.4 L-2.95 2.4 -3.0 1.95 M5.2 4.0 L5.55 3.95 Q6.55 4.0 7.2 4.6 L6.85 6.25 7.2 4.6 Q6.55 4.0 5.55 3.95 L5.2 4.0 M-15.6 -2.65 L-15.75 -2.6 -15.8 -2.55 -15.75 -2.6 -15.85 -4.1 -14.6 -4.15 -15.85 -4.1 -15.75 -2.6 -15.6 -2.65 M-14.85 -0.5 L-14.7 -0.35 -13.3 -0.5 -13.15 -1.2 -13.3 -0.5 -14.7 -0.35 -14.85 -0.5 M-5.9 -4.3 L-12.95 -4.15 -5.9 -4.3 M-12.0 3.75 L-12.15 3.75 Q-13.35 3.6 -14.35 4.3 -13.35 3.6 -12.15 3.75 L-12.0 3.75 M-10.9 1.9 L-10.95 2.4 -10.4 2.55 -9.35 2.3 -10.4 2.55 -10.95 2.4 -10.9 1.9 M-9.7 4.45 L-10.55 4.3 Q-11.45 4.4 -11.3 5.25 -11.45 4.4 -10.55 4.3 L-9.7 4.45 M-11.35 -1.4 Q-11.7 -0.85 -11.45 -0.4 L-10.95 -0.2 Q-10.45 -0.2 -10.1 -0.55 -10.45 -0.2 -10.95 -0.2 L-11.45 -0.4 Q-11.7 -0.85 -11.35 -1.4" fill="#ffffcc" fill-rule="evenodd" stroke="none"/>
    <path d="M10.8 -2.6 L11.9 -2.65 M11.35 -3.25 L11.3 -3.2 5.55 -3.15 5.05 -3.15 4.9 -4.45 2.25 -4.45 2.15 -3.2 M-2.1 -3.05 L-4.1 -3.1 -4.2 -4.35 -5.9 -4.3 -6.0 -4.1 Q-5.85 -4.2 -5.95 -3.7 L-6.0 -3.45 M-8.85 -2.95 L-13.0 -2.95 -12.95 -4.15 -14.6 -4.15 -14.55 -3.35 M-15.75 -1.95 L-15.55 5.8 -8.3 6.1 -8.15 4.15 4.1 4.45 3.75 6.55 7.75 6.7 8.85 6.75 M8.9 6.75 L13.3 6.9 13.75 6.95 14.7 6.95 14.9 3.8 13.6 3.75 13.2 3.75 10.75 3.65 10.8 -2.35 M17.15 -5.65 L17.2 -6.85 8.65 -6.9 -16.55 -6.2 -16.95 -5.5 -16.7 5.75 -15.55 5.8 M15.35 -4.35 L15.25 -2.7 14.9 3.8 M15.2 -4.65 L15.35 -4.7 M4.9 -4.45 L11.35 -4.6 15.2 -4.65 M15.25 -2.7 L11.9 -2.65 M11.35 -3.25 L11.35 -4.6 M-8.85 -2.95 L-6.2 -3.05 -6.0 -3.45 M-6.6 -1.25 L-6.9 -0.6 -7.95 -0.55 Q-8.55 -1.0 -8.1 -1.65 M-1.15 1.35 Q-1.8 2.1 -2.7 2.4 L-2.95 2.4 -3.0 1.95 M2.1 -1.05 L0.55 -1.2 0.75 -1.7 M2.65 1.95 L1.65 2.1 Q1.2 1.95 1.45 1.35 M6.8 -0.05 L9.25 -0.2 Q9.75 1.6 9.25 3.2 L6.95 3.2 6.7 0.5 6.8 -0.05 M-4.2 -4.35 L2.25 -4.45 M-2.1 -3.05 L2.15 -3.2 M6.85 6.25 L7.2 4.6 Q6.55 4.0 5.55 3.95 L5.2 4.0 M17.15 -5.65 L16.5 7.0 14.7 6.95 M-15.8 -2.55 L-15.75 -2.6 -15.85 -4.1 -14.6 -4.15 M-13.15 -1.2 L-13.3 -0.5 -14.7 -0.35 -14.85 -0.5 M-15.75 -2.6 L-15.6 -2.65 -14.7 -2.55 M-15.8 -2.55 L-15.75 -2.2 M-10.1 -0.55 Q-10.45 -0.2 -10.95 -0.2 L-11.45 -0.4 Q-11.7 -0.85 -11.35 -1.4 M-11.3 5.25 Q-11.45 4.4 -10.55 4.3 L-9.7 4.45 M-9.35 2.3 L-10.4 2.55 -10.95 2.4 -10.9 1.9 M-14.35 4.3 Q-13.35 3.6 -12.15 3.75 L-12.0 3.75 M-12.95 -4.15 L-5.9 -4.3 M-8.3 6.1 L3.75 6.55" fill="none" stroke="#000000" stroke-linecap="round" stroke-linejoin="round" stroke-opacity="0.4" stroke-width="0.05"/>
  </g>
</svg>
