<?xml version="1.0" encoding="UTF-8" standalone="no"?>
<svg xmlns:xlink="http://www.w3.org/1999/xlink" height="83.1px" width="27.85px" xmlns="http://www.w3.org/2000/svg">
  <g transform="matrix(1.0, 0.0, 0.0, 1.0, -96.15, 59.85)">
    <path d="M109.6 -55.25 L109.35 -57.3 109.4 -59.85 109.55 -59.85 Q109.55 -58.1 110.0 -54.5 L110.45 -49.2 110.4 -40.95 110.15 -32.75 Q110.15 -19.4 110.5 -17.05 112.1 -6.9 118.95 -6.9 120.55 -6.9 122.3 -8.95 123.75 -10.6 123.9 -11.45 L124.0 -11.5 124.0 -11.45 Q123.95 -9.7 122.35 -7.5 120.75 -5.35 118.3 -5.45 L114.4 -5.8 111.4 -6.0 Q110.1 -6.0 110.1 -6.7 L110.85 -7.95 111.6 -9.15 110.35 -12.7 Q109.1 -16.05 109.2 -17.7 L108.8 -26.1 Q108.8 -30.75 108.95 -33.1 L109.2 -38.7 109.5 -45.75 109.75 -51.7 109.6 -55.25 M97.4 -5.7 L96.15 -6.6 97.7 -6.4 100.7 -6.8 102.8 -7.6 Q104.1 -7.95 104.1 -7.1 104.1 -6.4 102.65 -5.8 101.25 -5.25 99.65 -5.25 98.1 -5.25 97.4 -5.7 M110.75 -2.65 L111.0 -3.2 Q111.3 -3.6 111.9 -3.6 112.7 -3.6 112.7 -2.95 L112.4 -2.2 111.55 -1.65 Q111.3 -1.65 111.0 -2.15 L110.75 -2.65 M111.9 1.8 Q111.4 2.35 110.6 2.35 110.15 2.35 110.1 2.1 L110.1 1.8 Q110.1 1.0 111.2 0.55 112.3 0.05 112.3 0.95 L111.9 1.8 M110.65 4.25 Q111.45 4.25 111.45 4.85 L111.05 5.65 110.0 6.25 Q109.45 6.25 109.3 5.85 L109.25 5.45 Q109.25 4.25 110.65 4.25 M110.55 11.3 Q111.0 10.9 111.15 11.4 111.85 11.3 111.85 11.9 111.4 12.8 110.8 13.05 L110.35 13.45 109.65 13.2 109.75 12.75 109.75 12.7 Q109.75 12.15 110.15 11.8 L110.55 11.3 M110.35 8.15 Q111.25 7.85 111.25 9.2 L110.95 9.65 110.05 9.9 Q109.5 9.9 109.4 9.6 L109.4 9.25 Q109.4 8.4 110.35 8.15 M109.9 15.55 Q109.9 14.7 111.1 14.6 112.25 14.5 112.25 15.4 L111.8 16.0 Q111.3 16.4 110.85 16.4 L110.4 16.3 110.35 16.3 109.9 16.0 109.8 15.8 109.9 15.55 M111.3 19.8 Q112.95 19.95 112.95 21.5 L112.55 22.55 Q112.0 23.25 111.1 23.25 110.1 23.25 109.75 22.35 L109.6 21.4 Q109.6 19.6 111.3 19.8" fill="#ffd633" fill-opacity="0.4" fill-rule="evenodd" stroke="none"/>
  </g>
</svg>
