<?xml version="1.0" encoding="UTF-8" standalone="no"?>
<svg xmlns:xlink="http://www.w3.org/1999/xlink" height="13.35px" width="33.3px" xmlns="http://www.w3.org/2000/svg">
  <g transform="matrix(1.0, 0.0, 0.0, 1.0, 16.5, 25.65)">
    <path d="M15.2 -25.65 L16.8 -24.55 16.8 -12.3 16.0 -13.1 16.8 -12.3 -15.4 -12.3 -16.0 -13.1 16.0 -13.1 15.2 -25.65" fill="#d0bb8c" fill-rule="evenodd" stroke="none"/>
    <path d="M15.2 -25.65 L16.0 -13.1 -16.0 -13.1 -16.5 -25.65 15.2 -25.65 M1.0 -14.75 L1.0 -16.95 0.4 -17.65 -1.8 -17.65 -1.8 -17.05 -2.3 -17.65 -4.5 -17.65 -4.5 -17.0 -5.05 -17.65 -7.25 -17.65 -7.25 -17.05 -7.75 -17.65 -9.95 -17.65 -9.95 -15.45 -9.35 -14.75 -7.15 -14.75 -7.15 -15.3 -6.65 -14.75 -4.45 -14.75 -4.45 -15.4 -3.9 -14.75 -1.7 -14.75 -1.7 -15.3 -1.2 -14.75 1.0 -14.75" fill="url(#gradient0)" fill-rule="evenodd" stroke="none"/>
    <path d="M16.8 -12.3 L16.8 -24.55 15.2 -25.65 16.0 -13.1 16.8 -12.3 -15.4 -12.3 -16.0 -13.1 -16.5 -25.65 15.2 -25.65 M16.0 -13.1 L-16.0 -13.1" fill="none" stroke="#000000" stroke-linecap="round" stroke-linejoin="round" stroke-opacity="0.4" stroke-width="0.05"/>
  </g>
  <defs>
    <linearGradient gradientTransform="matrix(0.021, 0.0056, -0.002, 0.0074, -0.25, -19.4)" gradientUnits="userSpaceOnUse" id="gradient0" spreadMethod="pad" x1="-819.2" x2="819.2">
      <stop offset="0.0" stop-color="#ffffcc"/>
      <stop offset="1.0" stop-color="#eddebc"/>
    </linearGradient>
  </defs>
</svg>
