<?xml version="1.0" encoding="UTF-8" standalone="no"?>
<svg xmlns:xlink="http://www.w3.org/1999/xlink" height="2.9px" width="10.95px" xmlns="http://www.w3.org/2000/svg">
  <g transform="matrix(1.0, 0.0, 0.0, 1.0, 9.95, 17.65)">
    <path d="M-2.25 -15.45 L0.4 -15.45 0.4 -15.5 0.45 -15.45 1.0 -14.75 0.45 -15.45 0.4 -15.5 0.4 -17.65 1.0 -16.95 1.0 -14.75 -9.35 -14.75 -9.95 -15.45 -7.75 -15.45 -7.75 -15.5 -7.7 -15.45 -5.05 -15.45 -5.05 -15.5 -5.0 -15.45 -2.3 -15.45 -2.3 -15.5 -2.25 -15.45 M-5.05 -15.45 L-5.0 -15.45 -5.05 -15.45" fill="#d0bb8c" fill-rule="evenodd" stroke="none"/>
    <path d="M0.4 -15.5 L0.4 -15.45 -2.25 -15.45 -2.3 -15.5 -2.3 -15.45 -5.0 -15.45 -5.05 -15.5 -5.05 -15.45 -7.7 -15.45 -7.75 -15.5 -7.75 -15.45 -9.95 -15.45 -9.95 -17.65 0.4 -17.65 0.4 -15.5" fill="#ffffcc" fill-rule="evenodd" stroke="none"/>
    <path d="M0.4 -15.5 L0.4 -15.45 -2.25 -15.45 M-2.3 -15.45 L-5.0 -15.45 -5.05 -15.45 -7.7 -15.45 M-7.75 -15.45 L-9.95 -15.45 -9.35 -14.75 1.0 -14.75 0.45 -15.45 0.4 -15.5 0.4 -17.65 -9.95 -17.65 -9.95 -15.45 M1.0 -14.75 L1.0 -16.95 0.4 -17.65" fill="none" stroke="#000000" stroke-linecap="round" stroke-linejoin="round" stroke-opacity="0.2" stroke-width="0.05"/>
  </g>
</svg>
