<?xml version="1.0" encoding="UTF-8" standalone="no"?>
<svg xmlns:xlink="http://www.w3.org/1999/xlink" height="39.85px" width="55.35px" xmlns="http://www.w3.org/2000/svg">
  <g transform="matrix(1.0, 0.0, 0.0, 1.0, 0.5, -0.05)">
    <path d="M52.3 19.0 L52.25 19.05 51.3 20.05 Q55.05 22.7 54.6 28.6 54.0 34.65 49.0 37.65 L48.95 37.65 Q44.45 40.3 37.95 39.8 25.4 38.85 22.85 27.0 22.75 26.4 22.95 25.9 23.1 25.35 23.6 25.0 24.05 24.6 24.6 24.55 L31.3 23.9 31.5 16.85 25.65 16.05 Q25.1 15.95 24.65 15.6 L24.25 15.15 19.55 23.65 26.65 35.45 Q27.0 36.1 26.9 36.85 26.75 37.55 26.15 38.05 L24.8 38.45 15.1 37.8 14.1 37.5 13.45 36.75 11.65 33.35 10.25 36.2 9.45 37.05 8.3 37.3 2.05 36.85 Q1.4 36.8 0.9 36.35 0.35 35.85 0.25 35.2 0.1 34.55 0.45 33.95 L5.6 23.95 -0.2 14.15 Q-0.6 13.5 -0.45 12.8 -0.35 12.05 0.2 11.6 0.75 11.1 1.45 11.1 L10.5 10.85 11.55 11.15 12.35 11.95 13.15 13.5 13.95 11.8 14.7 11.0 Q15.15 10.65 15.7 10.65 L23.4 10.4 Q24.1 10.35 24.7 10.85 26.1 6.55 29.3 4.0 33.55 0.5 39.35 0.1 L39.4 0.1 Q46.4 -0.4 50.6 2.9 L50.65 2.95 Q55.35 6.4 54.8 12.7 54.45 16.25 52.3 19.0 M39.25 13.3 L38.5 13.15 38.4 13.15 Q37.3 13.3 36.8 14.5 L37.3 14.45 39.05 14.3 39.4 13.6 39.35 13.4 39.25 13.3 M39.1 26.65 L39.05 26.65 37.65 26.45 35.8 26.4 Q36.4 28.05 37.85 28.25 L39.1 27.9 39.45 27.25 39.4 27.05 39.3 26.9 39.1 26.65" fill="#733c2f" fill-rule="evenodd" stroke="none"/>
    <path d="M41.4 13.8 Q41.45 12.55 40.6 11.85 39.75 11.05 38.35 11.15 35.25 11.2 34.45 15.25 L25.9 14.05 Q26.95 8.5 30.55 5.55 34.35 2.45 39.5 2.1 45.7 1.65 49.4 4.5 53.25 7.35 52.8 12.5 52.5 15.45 50.7 17.75 48.85 19.9 46.7 20.2 53.15 21.7 52.6 28.4 52.1 33.45 47.95 35.9 43.9 38.25 38.1 37.8 27.05 37.0 24.8 26.55 L33.55 25.65 Q34.25 30.05 37.7 30.25 39.3 30.25 40.3 29.5 41.3 28.75 41.45 27.4 41.45 26.45 40.95 25.8 L39.85 24.8 37.7 24.45 33.25 24.35 33.5 16.55 37.35 16.45 Q39.85 16.4 40.55 15.65 41.3 14.7 41.4 13.8 M1.5 13.1 L10.55 12.85 12.9 17.35 13.25 17.9 13.35 17.6 13.7 16.9 15.75 12.65 23.45 12.4 17.25 23.7 24.9 36.45 15.2 35.8 11.6 28.9 8.45 35.3 2.2 34.85 7.9 23.85 1.5 13.1" fill="#cccc00" fill-rule="evenodd" stroke="none"/>
  </g>
</svg>
