<?xml version="1.0" encoding="UTF-8" standalone="no"?>
<svg xmlns:xlink="http://www.w3.org/1999/xlink" height="137.45px" width="196.25px" xmlns="http://www.w3.org/2000/svg">
  <g transform="matrix(1.0, 0.0, 0.0, 1.0, 118.05, 153.0)">
    <path d="M46.4 -67.7 L55.4 -62.95 Q59.0 -60.6 59.0 -58.0 59.0 -53.85 44.55 -46.9 L33.45 -41.65 Q27.7 -38.85 25.95 -37.2 14.65 -26.25 2.6 -21.7 -8.8 -17.4 -24.7 -17.4 -34.45 -17.4 -42.15 -20.8 -49.85 -24.2 -60.3 -24.2 -67.3 -24.2 -72.1 -23.2 -76.9 -22.25 -80.95 -22.25 -87.0 -22.25 -89.8 -23.75 -94.0 -26.05 -99.75 -34.35 L-104.75 -41.2 Q-106.95 -44.6 -106.95 -47.55 -106.95 -55.8 -70.85 -68.2 -52.75 -74.45 -34.35 -79.1 -19.3 -82.95 -13.4 -83.45 1.45 -84.7 9.95 -77.55 11.35 -76.35 15.0 -74.7 19.1 -72.8 20.25 -72.05 L24.6 -69.6 Q30.1 -67.1 32.55 -67.4 33.95 -67.55 35.2 -69.2 36.35 -70.75 38.0 -70.7 40.55 -70.7 46.4 -67.7" fill="#330000" fill-opacity="0.08235294" fill-rule="evenodd" stroke="none"/>
    <path d="M55.9 -125.35 L55.6 -125.25 55.35 -125.25 55.9 -125.35 M-26.0 -60.45 L-25.65 -60.4 -25.95 -60.4 -26.0 -60.45" fill="#d5dcdd" fill-rule="evenodd" stroke="none"/>
    <path d="M-30.55 -30.6 L-30.45 -30.75 Q-29.3 -32.35 -27.35 -32.85 -25.8 -32.55 -24.4 -30.8 L-24.2 -30.55 -24.45 -30.1 Q-25.45 -28.35 -26.6 -27.65 L-26.9 -27.45 Q-28.45 -26.4 -30.3 -23.55 L-30.3 -23.4 -30.5 -24.9 -30.7 -27.45 -30.75 -28.7 -30.55 -30.6 M-115.4 -40.45 L-116.25 -39.9 -116.25 -40.05 -115.0 -43.15 Q-112.55 -48.5 -108.8 -50.1 L-108.75 -50.1 -108.4 -50.3 -105.05 -50.15 -104.15 -49.2 Q-104.9 -48.5 -106.4 -47.45 -108.8 -45.8 -110.1 -45.2 -112.2 -44.25 -114.25 -41.85 L-114.4 -41.7 -115.4 -40.45 M-117.65 -49.95 L-118.05 -49.95 Q-117.35 -51.2 -114.0 -53.15 -110.15 -55.4 -107.4 -55.4 L-106.65 -55.35 -107.15 -54.7 Q-108.0 -53.45 -108.35 -52.25 L-117.65 -49.95 M6.85 -29.6 L5.7 -24.95 5.45 -23.4 4.35 -25.15 2.1 -29.9 5.85 -30.2 6.85 -29.6 M-65.4 -40.5 L-64.6 -41.05 Q-63.05 -42.05 -62.4 -42.2 -59.9 -43.25 -58.4 -43.25 -57.05 -43.25 -56.25 -42.65 L-53.75 -40.2 -53.75 -40.05 Q-57.75 -39.9 -60.15 -38.9 -62.4 -38.0 -63.25 -38.0 L-67.75 -38.5 -70.35 -39.15 -70.3 -39.65 -70.35 -39.65 -70.35 -39.85 -70.7 -41.35 -71.4 -43.25 Q-67.05 -40.05 -66.15 -40.05 L-65.4 -40.5 -64.3 -40.25 -65.4 -40.5 M-63.95 -44.0 L-65.8 -44.2 Q-67.05 -44.5 -67.05 -45.0 -67.05 -45.75 -64.45 -46.4 L-61.25 -46.95 Q-60.0 -46.95 -60.0 -46.2 -60.0 -45.7 -61.6 -44.85 -63.15 -44.0 -63.95 -44.0 M-78.4 -38.1 L-78.5 -38.6 Q-78.5 -39.4 -76.85 -39.4 -75.2 -39.45 -75.2 -38.55 -75.2 -37.65 -76.7 -37.65 -78.1 -37.65 -78.4 -38.1 M-13.2 -22.85 L-13.25 -23.25 -13.05 -26.9 -12.9 -29.25 -12.3 -29.45 -9.75 -29.9 Q-8.25 -29.9 -7.15 -28.85 L-7.1 -28.8 -7.25 -28.3 -7.85 -26.55 -8.45 -25.4 -11.85 -20.4 Q-12.4 -20.8 -13.05 -22.35 L-13.2 -22.85" fill="#ffffcc" fill-rule="evenodd" stroke="none"/>
    <path d="M-94.4 -33.9 L-95.25 -34.85 -95.45 -35.4 Q-95.45 -36.45 -93.9 -36.85 L-93.35 -36.95 Q-91.7 -37.25 -87.9 -37.05 L-78.9 -36.35 -72.8 -35.9 -65.05 -36.55 -58.25 -37.25 -54.0 -36.65 -49.7 -36.1 -48.5 -36.1 Q-47.9 -36.25 -47.9 -37.3 -47.9 -38.95 -52.1 -44.65 L-52.15 -44.75 -54.4 -47.5 Q-57.5 -50.9 -59.7 -50.9 -64.45 -50.9 -72.25 -46.7 L-73.75 -45.9 -73.85 -46.0 -73.9 -45.85 Q-80.95 -42.55 -88.3 -42.55 L-92.6 -42.6 -92.8 -42.6 -94.45 -42.75 -94.55 -42.75 -96.4 -43.3 Q-97.75 -43.9 -98.7 -44.95 L-98.85 -45.1 -99.4 -45.85 -98.95 -45.55 -98.65 -45.4 Q-95.95 -43.75 -92.65 -44.1 L-91.3 -44.3 -87.75 -44.15 Q-82.65 -44.15 -73.15 -48.75 L-71.0 -49.75 Q-64.4 -52.85 -61.6 -53.25 L-60.8 -53.35 Q-58.6 -53.35 -55.15 -50.85 -51.9 -48.55 -49.8 -45.75 -48.8 -44.45 -47.0 -40.6 -45.0 -36.45 -45.0 -35.15 -45.0 -33.95 -47.4 -33.95 L-52.25 -34.85 -58.2 -35.75 -66.35 -34.85 -75.3 -33.95 -84.55 -34.75 -91.95 -35.55 Q-93.45 -35.55 -93.95 -34.95 L-94.4 -33.9 M-60.0 -73.05 Q-57.45 -73.7 -55.25 -79.25 -51.7 -88.3 -50.2 -90.35 -49.05 -91.95 -46.4 -92.8 -43.8 -93.65 -41.3 -93.95 L-36.25 -94.9 Q-33.65 -95.6 -31.8 -96.75 L-31.6 -96.75 Q-33.0 -94.9 -33.9 -91.2 -34.7 -88.05 -35.0 -84.35 L-35.35 -77.85 Q-35.75 -74.4 -38.35 -71.55 L-42.9 -70.25 Q-41.5 -71.5 -40.65 -72.6 -39.4 -74.3 -39.0 -76.35 L-37.7 -81.65 Q-37.2 -83.65 -37.2 -86.45 -37.2 -92.15 -40.65 -91.9 -43.8 -91.75 -47.65 -85.7 L-48.6 -84.2 -50.05 -82.2 -50.65 -81.35 -49.35 -81.3 -48.45 -79.65 Q-48.2 -79.2 -48.2 -78.4 -48.2 -77.2 -48.85 -76.45 -49.5 -75.8 -50.4 -75.8 -51.1 -75.8 -51.8 -76.45 L-53.0 -77.95 -53.1 -78.15 -54.95 -75.75 -56.45 -73.95 -55.8 -73.95 Q-54.25 -73.55 -52.1 -71.95 L-48.65 -69.75 -50.9 -70.7 Q-53.9 -71.95 -54.8 -71.95 -56.95 -71.95 -58.75 -71.1 L-61.8 -69.15 -61.8 -69.35 Q-61.15 -70.4 -60.0 -73.05 M-50.65 -81.35 L-52.0 -79.5 -52.05 -79.5 -53.1 -78.15 -52.05 -79.5 -52.0 -79.5 -50.65 -81.35" fill="#5f4f4b" fill-rule="evenodd" stroke="none"/>
    <path d="M-54.95 -75.75 L-53.1 -78.15 -53.0 -77.95 -51.8 -76.45 Q-51.1 -75.8 -50.4 -75.8 -49.5 -75.8 -48.85 -76.45 -48.2 -77.2 -48.2 -78.4 -48.2 -79.2 -48.45 -79.65 L-49.35 -81.3 -50.65 -81.35 -50.05 -82.2 -48.6 -84.2 -47.65 -85.7 Q-43.5 -82.5 -43.5 -77.95 -43.5 -75.9 -44.65 -74.4 -45.05 -73.85 -46.35 -73.15 -47.65 -72.55 -48.25 -72.55 -50.65 -72.55 -52.2 -73.25 -53.75 -74.0 -54.95 -75.75" fill="#ffe099" fill-rule="evenodd" stroke="none"/>
    <path d="M71.75 -132.25 Q73.05 -132.5 75.25 -133.3 73.45 -129.85 67.3 -127.1 62.0 -124.7 59.4 -124.9 60.05 -124.2 63.1 -123.8 L66.85 -123.5 67.05 -123.5 Q61.3 -121.55 57.4 -121.55 L54.3 -121.85 54.0 -121.9 51.75 -122.15 53.15 -121.0 53.65 -120.6 55.4 -119.05 53.4 -119.65 51.4 -120.3 47.8 -124.4 49.2 -124.7 49.25 -124.65 49.45 -124.65 49.2 -124.7 53.65 -126.3 56.35 -127.6 60.35 -130.0 60.55 -130.0 57.85 -127.15 55.9 -125.35 Q58.1 -126.0 65.4 -129.25 L71.75 -132.25 M-95.55 -76.95 L-95.4 -78.45 -95.2 -80.6 -93.75 -81.9 Q-88.35 -86.65 -87.95 -88.05 -89.05 -82.9 -95.45 -77.05 L-95.55 -76.95 M-98.0 -87.4 Q-97.15 -91.15 -96.2 -93.45 -97.7 -93.55 -99.1 -94.15 -101.5 -95.25 -103.5 -97.8 -105.1 -99.9 -106.1 -102.15 L-105.5 -102.0 Q-103.9 -98.2 -97.4 -96.6 L-96.7 -96.45 -92.1 -95.7 Q-89.8 -95.45 -88.3 -95.75 L-87.05 -96.15 -88.25 -95.45 -91.7 -93.3 -95.85 -89.9 -98.0 -87.4 M55.9 -125.35 L55.35 -125.25 55.6 -125.25 55.9 -125.35 M51.75 -122.15 L51.55 -122.35 51.55 -122.15 51.75 -122.15 M-6.55 -112.25 L-6.6 -112.25 -6.6 -112.5 -6.55 -112.25 M-89.65 -95.15 L-91.75 -94.2 -93.75 -93.6 -95.65 -93.45 -96.2 -93.45 -95.65 -93.45 -93.75 -93.6 -91.75 -94.2 -89.65 -95.15" fill="#adb7b8" fill-rule="evenodd" stroke="none"/>
    <path d="M-47.65 -85.7 Q-43.8 -91.75 -40.65 -91.9 -37.2 -92.15 -37.2 -86.45 -37.2 -83.65 -37.7 -81.65 L-39.0 -76.35 Q-39.4 -74.3 -40.65 -72.6 -41.5 -71.5 -42.9 -70.25 L-47.0 -69.15 -46.8 -69.35 -44.15 -71.25 Q-45.15 -71.0 -47.7 -69.55 L-47.9 -69.45 -48.65 -69.75 -52.1 -71.95 Q-54.25 -73.55 -55.8 -73.95 L-56.45 -73.95 -54.95 -75.75 Q-53.75 -74.0 -52.2 -73.25 -50.65 -72.55 -48.25 -72.55 -47.65 -72.55 -46.35 -73.15 -45.05 -73.85 -44.65 -74.4 -43.5 -75.9 -43.5 -77.95 -43.5 -82.5 -47.65 -85.7" fill="#836d6b" fill-rule="evenodd" stroke="none"/>
    <path d="M-90.9 -50.0 L-91.15 -50.0 Q-94.5 -50.1 -96.65 -51.45 L-97.0 -51.7 -97.8 -52.35 Q-100.15 -54.65 -101.05 -58.1 -101.9 -61.6 -100.95 -65.55 L-95.2 -67.05 -91.45 -67.15 -86.55 -66.8 Q-84.25 -66.35 -80.95 -65.15 L-77.0 -63.6 -76.4 -63.3 Q-76.0 -63.0 -75.75 -62.4 L-75.45 -60.95 -75.4 -60.7 -75.4 -59.85 -75.45 -58.45 -75.6 -58.15 -77.0 -57.95 -77.95 -58.05 -80.15 -58.35 Q-81.45 -58.35 -82.4 -57.05 -83.05 -56.2 -83.95 -53.95 L-83.95 -53.55 -82.85 -53.9 -79.95 -55.15 Q-81.45 -53.45 -82.9 -52.35 L-84.5 -51.3 -86.1 -50.6 -90.9 -50.0" fill="url(#gradient0)" fill-rule="evenodd" stroke="none"/>
    <path d="M49.45 -51.95 Q46.8 -49.95 46.05 -49.2 L46.05 -49.4 46.65 -52.7 46.65 -52.75 Q47.4 -55.65 48.0 -56.1 L50.5 -56.25 Q51.75 -55.75 51.75 -54.8 51.75 -53.65 50.05 -52.4 L49.45 -51.95 M41.6 -53.55 L40.05 -52.45 36.65 -50.2 38.0 -54.15 Q39.5 -58.25 40.15 -58.25 41.35 -58.25 42.15 -57.65 43.1 -56.95 43.1 -55.65 43.1 -54.8 41.6 -53.55 M33.25 -56.75 L29.4 -53.9 29.4 -54.1 Q29.55 -54.85 30.85 -57.65 L31.85 -59.7 33.3 -62.15 34.7 -60.95 Q35.05 -60.65 35.05 -59.9 35.05 -57.95 33.55 -56.95 L33.25 -56.75 M6.6 -22.5 L6.25 -21.5 4.65 -17.05 Q3.65 -18.9 2.85 -21.7 L2.4 -23.35 2.0 -25.55 Q1.65 -27.9 1.9 -29.9 L2.1 -29.9 4.35 -25.15 5.45 -23.4 5.7 -24.95 6.85 -29.6 Q7.6 -28.8 7.6 -27.05 L7.2 -24.7 6.6 -22.5 M-7.3 -22.55 L-8.3 -21.3 Q-11.8 -17.45 -12.85 -15.55 L-13.05 -15.8 -13.2 -22.55 -13.2 -22.85 -13.05 -22.35 Q-12.4 -20.8 -11.85 -20.4 L-8.45 -25.4 -7.85 -26.55 -7.25 -28.3 -7.1 -28.8 Q-6.1 -27.75 -6.1 -26.4 -6.1 -24.4 -7.3 -22.55 M-26.2 -24.05 L-26.75 -23.6 -29.8 -19.95 -32.2 -17.05 -32.4 -21.15 Q-32.4 -25.1 -31.85 -27.4 L-31.65 -28.3 -30.55 -30.6 -30.75 -28.7 -30.7 -27.45 -30.5 -24.9 -30.3 -23.4 -30.3 -23.55 Q-28.45 -26.4 -26.9 -27.45 L-26.6 -27.65 Q-25.45 -28.35 -24.45 -30.1 L-24.2 -30.55 Q-23.35 -29.2 -23.35 -27.45 L-23.35 -27.35 Q-23.35 -26.25 -24.15 -25.65 L-26.2 -24.05 M-93.35 -36.95 L-93.8 -37.4 -94.05 -37.75 -93.15 -39.3 Q-94.85 -40.7 -94.85 -41.25 L-94.45 -42.75 -92.8 -42.6 -92.6 -42.6 -88.3 -42.55 Q-80.95 -42.55 -73.9 -45.85 L-73.75 -45.9 -72.25 -46.7 Q-64.45 -50.9 -59.7 -50.9 -57.5 -50.9 -54.4 -47.5 L-52.15 -44.75 -52.1 -44.65 Q-47.9 -38.95 -47.9 -37.3 -47.9 -36.25 -48.5 -36.1 L-49.7 -36.1 -54.0 -36.65 -58.25 -37.25 -65.05 -36.55 -72.8 -35.9 -78.9 -36.35 -87.9 -37.05 Q-91.7 -37.25 -93.35 -36.95 M-107.35 -43.95 L-107.75 -43.8 Q-111.5 -42.5 -113.95 -41.25 L-115.4 -40.45 -114.4 -41.7 -114.25 -41.85 Q-112.2 -44.25 -110.1 -45.2 -108.8 -45.8 -106.4 -47.45 -104.9 -48.5 -104.15 -49.2 -103.75 -48.5 -103.65 -47.5 L-103.65 -46.9 Q-103.65 -45.3 -107.35 -43.95 M-108.8 -50.1 L-117.65 -49.95 -108.35 -52.25 Q-108.75 -51.2 -108.75 -50.15 L-108.8 -50.1 M-90.75 -42.25 Q-90.05 -41.9 -87.55 -39.95 -90.05 -41.9 -90.75 -42.25 M-91.6 -39.25 L-92.85 -39.3 -91.6 -39.25 -92.05 -40.45 -92.45 -41.75 -92.6 -42.6 -92.45 -41.75 -92.05 -40.45 -91.6 -39.25 -91.1 -38.5 -91.6 -39.25 M-56.15 -44.9 L-59.4 -44.15 Q-62.85 -43.25 -66.05 -41.95 -62.85 -43.25 -59.4 -44.15 L-56.15 -44.9 -55.35 -46.25 -54.4 -47.5 -55.35 -46.25 -56.15 -44.9 -55.4 -45.1 -53.0 -44.9 -52.15 -44.75 -53.0 -44.9 -55.4 -45.1 -56.15 -44.9 M-65.4 -40.5 L-66.15 -40.05 Q-67.05 -40.05 -71.4 -43.25 L-70.7 -41.35 -70.35 -39.85 -70.35 -39.65 -70.3 -39.65 -70.35 -39.15 -67.75 -38.5 -63.25 -38.0 Q-62.4 -38.0 -60.15 -38.9 -57.75 -39.9 -53.75 -40.05 L-53.75 -40.2 -56.25 -42.65 Q-57.05 -43.25 -58.4 -43.25 -59.9 -43.25 -62.4 -42.2 -63.05 -42.05 -64.6 -41.05 L-65.4 -40.5 Q-68.05 -41.2 -70.05 -42.9 L-73.75 -45.9 -70.05 -42.9 Q-68.05 -41.2 -65.4 -40.5 M-71.65 -37.2 Q-73.25 -38.05 -74.2 -44.7 L-74.1 -45.3 -73.9 -45.85 -74.1 -45.3 -74.2 -44.7 Q-73.25 -38.05 -71.65 -37.2 M-63.95 -44.0 Q-63.15 -44.0 -61.6 -44.85 -60.0 -45.7 -60.0 -46.2 -60.0 -46.95 -61.25 -46.95 L-64.45 -46.4 Q-67.05 -45.75 -67.05 -45.0 -67.05 -44.5 -65.8 -44.2 L-63.95 -44.0 M-80.6 -40.05 L-77.9 -40.5 -77.1 -40.3 -76.0 -40.6 -75.0 -40.95 -76.0 -40.6 -77.1 -40.3 -77.9 -40.5 -80.6 -40.05 M-78.4 -38.1 Q-78.1 -37.65 -76.7 -37.65 -75.2 -37.65 -75.2 -38.55 -75.2 -39.45 -76.85 -39.4 -78.5 -39.4 -78.5 -38.6 L-78.4 -38.1" fill="#d6c998" fill-rule="evenodd" stroke="none"/>
    <path d="M52.5 -99.7 Q53.15 -97.95 56.65 -95.3 L61.65 -92.0 55.95 -93.45 53.5 -94.05 56.55 -89.85 Q57.45 -83.8 57.15 -78.9 L57.15 -78.6 57.45 -80.95 57.75 -83.4 58.1 -83.4 Q58.0 -82.5 60.5 -75.35 L62.05 -71.05 61.65 -68.6 Q61.65 -66.15 62.05 -63.1 L62.55 -59.75 62.55 -59.7 60.8 -63.75 60.95 -62.1 Q60.95 -60.35 60.2 -58.75 L58.85 -55.2 58.7 -55.05 59.1 -58.75 55.65 -53.9 Q54.0 -51.8 51.1 -51.8 L49.45 -51.95 50.05 -52.4 Q51.75 -53.65 51.75 -54.8 51.75 -55.75 50.5 -56.25 L48.0 -56.1 Q47.4 -55.65 46.65 -52.75 L46.65 -52.7 45.55 -53.5 42.65 -53.55 41.6 -53.55 Q43.1 -54.8 43.1 -55.65 43.1 -56.95 42.15 -57.65 41.35 -58.25 40.15 -58.25 39.5 -58.25 38.0 -54.15 L37.8 -54.3 Q37.6 -54.45 37.5 -54.95 34.65 -55.3 33.25 -56.75 L33.55 -56.95 Q35.05 -57.95 35.05 -59.9 35.05 -60.65 34.7 -60.95 L33.3 -62.15 31.85 -59.7 31.85 -60.05 Q31.85 -64.9 35.85 -67.1 L38.6 -68.55 Q39.7 -69.3 39.9 -70.35 L39.75 -70.55 39.65 -70.75 38.8 -71.95 Q36.25 -72.25 34.1 -73.55 32.05 -74.75 30.55 -76.7 L30.75 -75.4 31.15 -70.95 Q31.15 -68.9 29.9 -62.75 L28.5 -56.1 Q28.8 -60.25 28.45 -65.9 L28.2 -66.1 Q27.7 -61.4 26.15 -56.05 24.85 -51.5 24.85 -49.15 24.85 -48.05 25.25 -46.75 24.55 -47.4 24.2 -52.65 L24.2 -52.85 Q23.1 -49.9 20.25 -45.6 L17.2 -41.25 17.2 -41.05 17.15 -38.9 Q17.1 -33.0 16.85 -32.45 L16.85 -32.2 16.2 -36.65 Q13.6 -28.65 12.2 -26.15 11.5 -24.95 10.6 -24.1 8.95 -22.7 6.6 -22.5 L7.2 -24.7 7.6 -27.05 Q7.6 -28.8 6.85 -29.6 L5.85 -30.2 2.1 -29.9 1.9 -29.9 Q1.65 -27.9 2.0 -25.55 L2.4 -23.35 Q0.5 -24.1 -0.3 -24.7 L-1.4 -25.95 -1.45 -26.05 -1.5 -25.95 Q-1.95 -24.55 -2.75 -24.0 -3.1 -23.7 -5.75 -22.95 L-7.3 -22.55 Q-6.1 -24.4 -6.1 -26.4 -6.1 -27.75 -7.1 -28.8 L-7.15 -28.85 Q-8.25 -29.9 -9.75 -29.9 L-12.3 -29.45 -12.9 -29.25 -13.05 -26.9 -13.25 -23.25 -13.2 -22.85 -13.2 -22.55 Q-14.7 -23.1 -16.2 -24.2 L-17.0 -24.85 -17.05 -24.9 Q-17.7 -24.45 -19.3 -23.75 -21.3 -22.95 -22.1 -22.95 -24.3 -22.95 -26.2 -24.05 L-24.15 -25.65 Q-23.35 -26.25 -23.35 -27.35 L-23.35 -27.45 Q-23.35 -29.2 -24.2 -30.55 L-24.4 -30.8 Q-25.8 -32.55 -27.35 -32.85 -29.3 -32.35 -30.45 -30.75 L-30.5 -31.0 -30.5 -31.45 Q-30.5 -33.65 -28.8 -36.25 -25.75 -40.85 -25.05 -42.3 L-27.5 -41.7 Q-26.65 -41.95 -24.5 -44.0 L-25.0 -44.25 -29.0 -44.25 -28.4 -41.45 -28.4 -38.65 Q-28.45 -40.75 -33.0 -42.1 L-37.7 -43.05 -39.4 -42.85 -37.8 -41.4 -36.2 -40.05 -36.2 -39.85 -38.6 -40.15 -41.9 -40.45 -43.7 -40.1 -43.3 -39.25 Q-41.6 -35.65 -41.6 -33.75 -41.6 -32.5 -44.0 -31.75 L-48.5 -31.15 -54.25 -31.55 -59.2 -31.95 Q-62.85 -31.95 -66.8 -30.55 -72.4 -28.55 -72.4 -24.95 -72.4 -23.8 -71.4 -22.95 L-72.0 -22.95 Q-73.0 -22.95 -77.8 -24.95 L-74.4 -20.55 -74.6 -20.55 Q-76.5 -20.85 -78.6 -21.7 -81.2 -22.8 -82.9 -24.3 L-79.35 -19.95 -79.55 -19.95 Q-85.95 -22.7 -87.7 -23.95 -91.05 -26.35 -93.35 -31.35 L-93.35 -31.15 -94.15 -28.95 -94.15 -29.15 Q-94.55 -30.75 -94.55 -32.15 L-94.4 -33.9 -93.95 -34.95 Q-93.45 -35.55 -91.95 -35.55 L-84.55 -34.75 -75.3 -33.95 -66.35 -34.85 -58.2 -35.75 -52.25 -34.85 -47.4 -33.95 Q-45.0 -33.95 -45.0 -35.15 -45.0 -36.45 -47.0 -40.6 -48.8 -44.45 -49.8 -45.75 -51.9 -48.55 -55.15 -50.85 -58.6 -53.35 -60.8 -53.35 L-61.6 -53.25 Q-64.4 -52.85 -71.0 -49.75 L-73.15 -48.75 Q-82.65 -44.15 -87.75 -44.15 L-91.3 -44.3 -92.65 -44.1 -90.9 -50.0 -86.1 -50.6 -84.5 -51.3 -82.9 -52.35 Q-81.45 -53.45 -79.95 -55.15 L-82.85 -53.9 -83.95 -53.55 -83.95 -53.95 Q-83.05 -56.2 -82.4 -57.05 -81.45 -58.35 -80.15 -58.35 L-77.95 -58.05 -77.0 -57.95 -75.6 -58.15 -75.45 -58.45 -75.4 -59.85 -75.4 -60.7 -72.9 -61.3 -69.05 -61.8 -65.55 -61.3 -63.45 -61.3 -63.05 -61.3 -65.95 -64.35 Q-68.25 -66.55 -68.8 -66.8 L-69.6 -65.85 -72.85 -67.35 -72.95 -66.8 -73.0 -66.65 -73.15 -65.7 -73.15 -65.9 -73.5 -66.85 -73.9 -67.8 -74.7 -69.75 -73.9 -67.8 -74.5 -68.1 Q-79.2 -70.4 -81.45 -70.75 L-82.5 -71.1 Q-87.25 -72.55 -90.95 -72.55 L-91.75 -72.5 -87.85 -71.5 Q-82.65 -70.0 -78.8 -68.4 L-78.7 -67.8 -78.55 -67.15 -79.3 -67.4 -79.8 -67.7 Q-86.95 -69.95 -91.25 -69.95 L-94.25 -69.9 Q-96.3 -70.25 -96.3 -70.7 L-95.55 -71.4 Q-95.9 -71.45 -96.05 -71.65 L-99.2 -71.4 -100.15 -71.4 -100.95 -71.4 Q-94.5 -74.05 -88.45 -78.55 L-85.55 -80.85 Q-80.95 -84.75 -78.8 -88.6 L-78.85 -88.05 Q-78.85 -80.55 -76.35 -73.6 L-74.7 -69.75 Q-73.7 -80.8 -67.9 -88.75 -63.3 -95.1 -56.0 -98.9 L-55.7 -99.2 -58.7 -86.7 -58.7 -86.45 -49.35 -94.05 Q-43.65 -98.55 -42.7 -98.55 -40.3 -98.55 -37.45 -97.2 L-33.4 -97.2 Q-33.65 -98.85 -35.65 -101.3 L-39.2 -105.7 -36.35 -106.15 -32.75 -106.65 Q-29.25 -106.65 -27.1 -104.6 L-26.0 -103.25 -25.0 -101.25 Q-24.1 -99.5 -23.2 -98.3 L-23.2 -97.65 Q-23.7 -98.7 -26.3 -100.9 L-27.7 -102.05 -28.05 -102.3 Q-32.3 -105.55 -34.95 -105.8 L-36.1 -105.8 -34.95 -105.8 Q-32.3 -105.55 -28.05 -102.3 L-27.7 -102.05 -26.3 -100.9 Q-23.7 -98.7 -23.2 -97.65 L-23.2 -98.3 -23.5 -101.95 -24.4 -105.25 Q-24.75 -106.3 -25.25 -107.15 -25.7 -108.05 -26.3 -108.75 -23.65 -109.65 -21.25 -111.5 L-17.2 -114.35 -16.1 -114.95 Q-11.65 -116.5 -5.55 -117.8 L-1.65 -118.55 Q0.7 -119.0 2.7 -120.55 L1.35 -115.7 -0.1 -111.6 -0.6 -111.15 -0.3 -111.05 2.45 -111.15 2.85 -111.15 Q2.15 -111.15 -0.45 -109.0 L-1.25 -108.35 -2.8 -106.95 -2.8 -105.75 Q-2.7 -99.8 -0.7 -93.35 1.3 -86.95 4.3 -82.0 4.3 -84.45 4.65 -90.1 L7.05 -77.95 7.2 -77.3 Q9.1 -66.8 9.1 -64.1 10.0 -65.0 11.35 -69.3 12.65 -73.4 12.75 -75.25 L12.95 -75.3 13.1 -75.6 13.95 -72.85 14.8 -69.15 14.1 -64.15 13.1 -58.7 13.1 -58.35 17.65 -69.3 17.7 -69.45 Q20.05 -76.1 20.2 -80.65 L21.2 -80.3 Q22.4 -79.45 22.95 -76.8 23.5 -72.4 23.9 -70.85 27.05 -79.65 27.3 -90.25 L26.55 -91.85 25.65 -93.9 23.45 -98.25 22.85 -101.65 22.0 -106.5 22.0 -106.75 24.1 -102.75 24.35 -102.5 Q24.35 -102.95 25.3 -105.85 L26.25 -108.9 Q28.25 -104.6 34.05 -105.55 L32.05 -97.85 30.05 -91.1 30.05 -90.65 34.75 -95.4 Q34.3 -93.8 34.3 -91.4 34.3 -89.0 35.05 -85.8 35.5 -83.75 36.0 -82.35 L36.25 -82.35 Q36.15 -82.85 36.65 -85.1 L37.15 -87.55 37.85 -86.9 Q40.7 -84.55 45.45 -83.15 L45.9 -83.05 Q46.65 -84.15 47.7 -87.85 L49.25 -93.75 50.65 -92.0 Q51.1 -95.15 52.5 -99.7 M-96.4 -43.3 Q-97.15 -42.45 -98.15 -41.95 -99.65 -41.25 -101.7 -41.25 -105.6 -41.25 -107.35 -43.95 -103.65 -45.3 -103.65 -46.9 L-103.65 -47.5 -101.95 -48.4 -100.85 -47.15 -99.4 -45.85 -98.85 -45.1 -98.7 -44.95 Q-97.75 -43.9 -96.4 -43.3 M53.5 -94.05 L53.25 -94.35 53.25 -94.1 53.5 -94.05 M52.4 -85.5 L52.2 -87.9 52.35 -89.25 52.6 -90.55 52.35 -89.25 52.2 -87.9 52.4 -85.5 M48.95 -61.85 L46.55 -57.65 Q45.15 -55.05 45.15 -54.55 45.15 -54.0 45.55 -53.5 45.15 -54.0 45.15 -54.55 45.15 -55.05 46.55 -57.65 L48.95 -61.85 M48.3 -71.9 Q45.35 -71.85 41.5 -73.0 L38.25 -74.2 37.5 -74.7 38.25 -74.2 41.5 -73.0 Q45.35 -71.85 48.3 -71.9 M57.9 -65.25 Q57.9 -66.45 58.2 -67.95 57.9 -66.45 57.9 -65.25 M50.5 -88.0 Q50.3 -89.6 50.65 -92.0 50.3 -89.6 50.5 -88.0 M26.55 -91.85 L26.55 -92.4 26.65 -94.45 Q26.9 -98.45 28.35 -101.55 26.9 -98.45 26.65 -94.45 L26.55 -92.4 26.55 -91.85 M30.55 -76.7 L29.9 -79.6 29.9 -80.65 30.1 -80.65 31.65 -78.2 Q33.1 -76.1 33.5 -75.8 L33.25 -76.45 27.55 -89.65 27.3 -90.25 27.55 -89.65 33.25 -76.45 33.5 -75.8 Q33.1 -76.1 31.65 -78.2 L30.1 -80.65 29.9 -80.65 29.9 -79.6 30.55 -76.7 M9.7 -52.65 L4.3 -43.85 4.0 -43.85 4.0 -47.25 4.3 -49.85 4.65 -52.65 Q1.75 -51.1 -5.05 -46.2 L-5.35 -46.2 -3.9 -49.35 -2.0 -52.65 Q-4.0 -52.3 -8.9 -48.1 L-12.75 -44.7 -14.5 -43.2 -14.5 -42.85 Q-14.2 -42.85 -12.9 -43.4 L-11.45 -43.85 -11.1 -43.85 Q-12.1 -43.65 -14.0 -40.25 L-15.85 -36.75 -8.05 -37.1 -7.4 -35.05 Q-6.75 -35.05 -3.05 -37.5 L0.95 -40.15 0.95 -35.4 Q2.45 -35.65 7.7 -33.4 7.7 -34.4 8.15 -35.9 8.65 -37.5 9.45 -38.85 L9.85 -38.15 10.4 -36.75 9.9 -44.45 9.7 -52.3 9.7 -52.65 M37.5 -54.95 Q37.35 -55.7 37.35 -57.15 37.35 -59.9 38.2 -60.6 38.95 -61.25 42.75 -63.6 38.95 -61.25 38.2 -60.6 37.35 -59.9 37.35 -57.15 37.35 -55.7 37.5 -54.95 M20.4 -56.75 L22.45 -62.6 Q23.65 -66.45 23.75 -68.05 L23.75 -68.3 23.75 -68.05 Q23.65 -66.45 22.45 -62.6 L20.4 -56.75 M38.25 -74.2 L40.7 -71.9 40.25 -71.9 38.8 -71.95 40.25 -71.9 40.7 -71.9 38.25 -74.2 M41.15 -67.8 L39.9 -70.35 41.15 -67.8 M17.2 -41.25 L17.7 -52.2 17.2 -41.25 M-58.9 -93.45 Q-63.5 -90.95 -67.75 -82.65 -71.45 -75.25 -72.85 -67.35 -71.45 -75.25 -67.75 -82.65 -63.5 -90.95 -58.9 -93.45 M-6.55 -112.25 Q-6.1 -112.3 -5.15 -111.4 L-4.5 -110.75 -4.0 -110.3 -4.15 -110.85 -4.35 -111.5 -5.25 -114.8 -6.25 -115.3 -7.55 -116.0 -10.35 -109.1 -10.35 -109.15 -10.6 -109.95 -10.8 -110.75 -11.3 -112.25 -12.1 -107.7 -12.85 -104.45 -14.4 -97.5 Q-13.9 -98.0 -12.05 -101.0 -10.2 -104.05 -10.15 -104.75 L-10.15 -99.4 -7.95 -106.8 -7.05 -109.95 -6.55 -112.25 M-5.55 -117.8 L-4.8 -115.45 -4.5 -114.55 -3.6 -111.35 -3.6 -111.15 -4.35 -111.5 -3.6 -111.15 -3.6 -111.35 -4.5 -114.55 -4.8 -115.45 -5.55 -117.8 M-5.7 -103.75 L-2.8 -106.95 -5.7 -103.75 M-80.15 -72.95 L-82.2 -73.25 -82.55 -73.35 -89.2 -73.5 Q-86.7 -74.5 -83.75 -76.1 L-82.6 -76.75 -83.75 -76.1 Q-86.7 -74.5 -89.2 -73.5 L-82.55 -73.35 -82.2 -73.25 -80.15 -72.95 M-89.2 -73.5 L-92.0 -72.5 -92.3 -72.4 -96.05 -71.65 -92.3 -72.4 -92.0 -72.5 -89.2 -73.5 M-79.55 -55.35 L-79.95 -55.15 -79.55 -55.35 M-91.45 -31.0 L-90.85 -29.0 Q-90.6 -29.3 -90.25 -30.15 -89.85 -31.2 -90.0 -31.55 -89.35 -30.05 -86.4 -27.3 L-86.15 -27.3 Q-86.1 -29.25 -83.8 -29.85 L-79.55 -30.35 Q-82.65 -31.8 -85.95 -32.4 L-92.05 -33.65 -91.45 -31.0 M-83.55 -24.95 L-82.9 -24.3 -83.35 -24.95 -83.55 -24.95 M-2.0 -82.25 Q-5.3 -87.3 -5.6 -94.05 L-5.6 -97.25 -5.6 -94.05 Q-5.3 -87.3 -2.0 -82.25 M-12.9 -69.55 L-15.15 -72.05 -19.45 -76.3 -14.85 -75.25 Q-12.5 -74.55 -12.25 -74.3 -12.95 -75.7 -16.65 -77.15 L-17.5 -77.5 -22.5 -79.05 -22.5 -79.3 -15.8 -79.3 -10.35 -78.1 Q-11.6 -82.2 -16.1 -85.3 -17.7 -86.45 -19.25 -87.15 -20.95 -87.95 -22.5 -88.2 L-22.35 -88.15 -21.25 -87.55 -27.4 -87.1 -27.4 -86.85 -23.3 -85.85 -21.0 -85.2 -19.6 -84.75 -19.35 -84.75 -22.95 -83.0 -30.5 -78.8 -30.55 -78.65 Q-30.6 -78.55 -30.75 -78.55 L-29.45 -78.1 Q-29.05 -76.95 -27.0 -76.3 -23.05 -75.0 -22.25 -73.75 L-31.4 -71.1 Q-33.75 -70.35 -35.6 -69.4 L-36.2 -69.25 -39.35 -67.35 -39.35 -67.25 -32.9 -65.9 -29.5 -64.7 -28.3 -65.05 -26.5 -65.25 Q-23.3 -65.25 -19.85 -64.15 -17.35 -63.35 -13.5 -61.5 L-13.5 -61.75 Q-13.75 -62.65 -15.35 -65.9 -17.25 -69.8 -18.25 -70.8 L-18.0 -70.8 Q-13.3 -69.15 -11.6 -68.15 L-12.9 -69.55 -11.6 -68.65 -8.4 -65.35 -6.4 -62.85 -8.4 -65.35 -11.6 -68.65 -12.9 -69.55 M-6.2 -70.65 Q-6.75 -72.85 -8.1 -75.15 L-9.3 -76.95 -9.8 -77.65 -9.4 -77.85 -8.0 -77.85 -4.6 -77.0 -2.4 -76.65 -2.75 -77.0 Q-9.5 -83.7 -12.6 -85.25 -9.5 -83.7 -2.75 -77.0 L-2.4 -76.65 -4.6 -77.0 -8.0 -77.85 -9.4 -77.85 -9.8 -77.65 -9.3 -76.95 -8.1 -75.15 Q-6.75 -72.85 -6.2 -70.65 M-38.35 -71.55 Q-35.75 -74.4 -35.35 -77.85 L-35.0 -84.35 Q-34.7 -88.05 -33.9 -91.2 -33.0 -94.9 -31.6 -96.75 L-31.8 -96.75 Q-33.65 -95.6 -36.25 -94.9 L-41.3 -93.95 Q-43.8 -93.65 -46.4 -92.8 -49.05 -91.95 -50.2 -90.35 -51.7 -88.3 -55.25 -79.25 -57.45 -73.7 -60.0 -73.05 -61.15 -70.4 -61.8 -69.35 L-61.8 -69.15 -58.75 -71.1 Q-56.95 -71.95 -54.8 -71.95 -53.9 -71.95 -50.9 -70.7 L-48.65 -69.75 -47.9 -69.45 -47.7 -69.55 Q-45.15 -71.0 -44.15 -71.25 L-46.8 -69.35 -47.0 -69.15 -42.9 -70.25 -38.35 -71.55 -38.1 -71.65 Q-31.7 -73.45 -28.6 -72.75 -31.7 -73.45 -38.1 -71.65 L-38.35 -71.55 M-26.0 -60.45 L-25.95 -60.4 -25.65 -60.4 -26.0 -60.45 M-14.6 -52.25 Q-6.8 -55.25 -3.9 -55.25 L-2.4 -55.05 -3.9 -55.25 Q-6.8 -55.25 -14.6 -52.25 M-2.8 -61.45 L-4.1 -60.6 -4.8 -60.25 -4.1 -60.6 -2.8 -61.45 M-18.0 -58.25 L-19.0 -59.6 -20.6 -61.25 -19.0 -59.6 -18.0 -58.25 M-62.4 -67.55 L-65.3 -67.65 Q-63.3 -67.2 -59.65 -64.9 -56.05 -62.65 -53.25 -63.3 L-54.6 -64.2 -56.25 -65.3 -59.45 -66.65 -62.4 -67.55 M-70.7 -59.0 L-72.15 -57.5 -70.7 -59.0 M-64.5 -56.85 L-65.35 -56.4 -64.5 -56.85 M-63.45 -61.3 L-64.85 -60.85 -65.55 -60.5 -64.85 -60.85 -63.45 -61.3 M-72.35 -53.0 L-72.1 -53.05 -71.05 -53.2 -72.1 -53.05 -72.35 -53.0 M-47.4 -45.95 Q-45.3 -43.25 -43.7 -40.1 L-44.0 -40.05 -43.7 -40.1 Q-45.3 -43.25 -47.4 -45.95 M-47.9 -69.45 L-54.2 -65.75 -47.9 -69.45 M-60.0 -73.05 L-60.7 -72.95 Q-62.45 -72.95 -63.65 -73.85 L-66.0 -76.55 -63.65 -73.85 Q-62.45 -72.95 -60.7 -72.95 L-60.0 -73.05 M-21.1 -47.45 L-20.9 -47.45 -19.35 -47.3 -12.8 -46.85 Q-16.85 -53.05 -20.6 -54.85 -16.85 -53.05 -12.8 -46.85 L-19.35 -47.3 -20.9 -47.45 -21.1 -47.45 -24.7 -47.15 -27.8 -46.85 -28.0 -46.65 -25.85 -45.1 -24.4 -44.15 -24.5 -44.0 -24.2 -43.85 -24.2 -44.05 -24.4 -44.15 -23.85 -44.7 -21.1 -47.45 M-18.1 -34.95 Q-19.55 -31.45 -19.55 -30.4 -19.55 -28.7 -18.85 -27.2 L-17.05 -24.9 -18.85 -27.2 Q-19.55 -28.7 -19.55 -30.4 -19.55 -31.45 -18.1 -34.95 M-1.45 -26.05 L-1.4 -28.45 -1.3 -30.9 -0.95 -32.9 -0.6 -33.9 -0.95 -32.9 -1.3 -30.9 -1.4 -28.45 -1.45 -26.05" fill="url(#gradient1)" fill-rule="evenodd" stroke="none"/>
    <path d="M-74.1 -125.25 L-73.65 -125.6 -75.7 -122.75 -73.15 -123.65 -72.0 -128.1 Q-71.05 -132.45 -71.0 -133.95 L-71.0 -134.0 -71.4 -136.95 -69.7 -135.85 -69.8 -136.95 -70.0 -138.0 -70.25 -138.7 -67.25 -136.9 -64.25 -134.35 Q-61.95 -132.2 -60.05 -129.65 -57.7 -134.25 -49.45 -141.15 -38.1 -150.6 -30.05 -153.0 L-29.0 -153.0 Q-31.1 -151.95 -37.75 -145.75 L-44.85 -139.1 -44.85 -138.9 Q-35.1 -144.15 -25.3 -146.55 -15.5 -149.0 -2.3 -149.35 -13.9 -147.45 -24.0 -142.4 L-26.1 -140.2 -19.4 -141.2 Q-7.05 -142.95 -1.2 -142.95 L8.55 -142.65 1.45 -141.4 Q-4.75 -140.1 -6.7 -138.95 L-2.8 -139.85 5.8 -140.55 Q12.2 -140.85 17.65 -137.65 20.8 -135.75 24.3 -132.45 L24.85 -132.45 Q34.3 -131.5 39.35 -130.2 L41.35 -129.6 41.5 -129.6 46.45 -129.2 Q52.65 -129.2 59.05 -132.45 69.15 -137.6 73.9 -149.0 L72.6 -144.8 71.35 -140.75 Q72.05 -140.75 74.65 -142.85 77.15 -144.9 78.0 -146.05 L78.2 -146.05 Q77.95 -143.45 73.0 -138.0 L71.55 -136.4 Q68.2 -132.9 66.85 -132.35 L68.9 -132.15 71.35 -132.2 71.75 -132.25 65.4 -129.25 Q58.1 -126.0 55.9 -125.35 L57.85 -127.15 60.55 -130.0 60.35 -130.0 56.35 -127.6 53.65 -126.3 49.2 -124.7 Q48.75 -124.85 47.55 -125.35 L45.9 -126.05 47.8 -124.4 45.9 -126.05 47.55 -125.35 Q48.75 -124.85 49.2 -124.7 L47.8 -124.4 51.4 -120.3 52.6 -118.55 53.0 -117.9 Q56.8 -111.9 56.45 -106.9 L54.35 -111.9 Q54.8 -107.4 52.5 -99.75 L52.5 -99.7 Q51.1 -95.15 50.65 -92.0 L49.25 -93.75 47.7 -87.85 Q46.65 -84.15 45.9 -83.05 L45.45 -83.15 Q40.7 -84.55 37.85 -86.9 L37.15 -87.55 36.65 -85.1 Q36.15 -82.85 36.25 -82.35 L36.0 -82.35 Q35.5 -83.75 35.05 -85.8 34.3 -89.0 34.3 -91.4 34.3 -93.8 34.75 -95.4 L30.05 -90.65 30.05 -91.1 32.05 -97.85 34.05 -105.55 Q28.25 -104.6 26.25 -108.9 L25.3 -105.85 Q24.35 -102.95 24.35 -102.5 L24.1 -102.75 22.0 -106.75 22.0 -106.5 22.85 -101.65 23.45 -98.25 25.65 -93.9 26.55 -91.85 27.3 -90.25 Q27.05 -79.65 23.9 -70.85 23.5 -72.4 22.95 -76.8 22.4 -79.45 21.2 -80.3 L20.2 -80.65 Q20.05 -76.1 17.7 -69.45 L17.65 -69.3 13.1 -58.35 13.1 -58.7 14.1 -64.15 14.8 -69.15 13.95 -72.85 13.1 -75.6 12.95 -75.3 12.75 -75.25 Q12.65 -73.4 11.35 -69.3 10.0 -65.0 9.1 -64.1 9.1 -66.8 7.2 -77.3 L7.05 -77.95 4.65 -90.1 Q4.3 -84.45 4.3 -82.0 1.3 -86.95 -0.7 -93.35 -2.7 -99.8 -2.8 -105.75 L-2.8 -106.95 -1.25 -108.35 -0.45 -109.0 Q2.15 -111.15 2.85 -111.15 L2.45 -111.15 -0.3 -111.05 -0.6 -111.15 -0.1 -111.6 4.5 -116.45 7.3 -119.4 Q12.2 -124.55 14.25 -125.95 L8.15 -125.95 11.2 -127.85 10.15 -127.85 3.0 -127.45 -9.15 -128.3 -22.2 -129.2 -22.6 -129.2 -26.75 -129.0 -30.0 -128.6 -30.0 -128.8 Q-29.25 -128.8 -26.5 -130.4 -23.75 -132.0 -23.35 -132.8 L-28.7 -130.95 -33.45 -129.35 -28.7 -130.95 -23.35 -132.8 Q-23.75 -132.0 -26.5 -130.4 -29.25 -128.8 -30.0 -128.8 L-30.0 -128.6 -26.75 -129.0 -22.6 -129.2 -22.2 -129.2 -9.15 -128.3 3.0 -127.45 10.15 -127.85 11.2 -127.85 8.15 -125.95 14.25 -125.95 Q12.2 -124.55 7.3 -119.4 L4.5 -116.45 -0.1 -111.6 1.35 -115.7 2.7 -120.55 4.8 -122.5 5.7 -123.65 4.8 -122.5 2.7 -120.55 Q0.7 -119.0 -1.65 -118.55 L-5.55 -117.8 Q-11.65 -116.5 -16.1 -114.95 L-17.2 -114.35 -21.25 -111.5 Q-23.65 -109.65 -26.3 -108.75 -25.7 -108.05 -25.25 -107.15 -24.75 -106.3 -24.4 -105.25 L-23.5 -101.95 -23.2 -98.3 Q-24.1 -99.5 -25.0 -101.25 L-26.0 -103.25 -27.1 -104.6 Q-29.25 -106.65 -32.75 -106.65 L-36.35 -106.15 -39.2 -105.7 -35.65 -101.3 Q-33.65 -98.85 -33.4 -97.2 L-37.45 -97.2 Q-40.3 -98.55 -42.7 -98.55 -43.65 -98.55 -49.35 -94.05 L-58.7 -86.45 -58.7 -86.7 -55.7 -99.2 -56.0 -98.9 Q-63.3 -95.1 -67.9 -88.75 -73.7 -80.8 -74.7 -69.75 L-76.35 -73.6 Q-78.85 -80.55 -78.85 -88.05 L-78.8 -88.6 Q-80.95 -84.75 -85.55 -80.85 L-88.45 -78.55 Q-94.5 -74.05 -100.95 -71.4 L-104.45 -71.8 Q-101.55 -71.5 -95.55 -76.95 L-95.45 -77.05 Q-89.05 -82.9 -87.95 -88.05 -88.35 -86.65 -93.75 -81.9 L-95.2 -80.6 -100.1 -76.55 -100.1 -76.75 Q-99.75 -77.3 -98.55 -84.7 L-98.45 -85.4 -98.0 -87.4 -95.85 -89.9 -91.7 -93.3 -88.25 -95.45 -87.05 -96.15 -88.3 -95.75 Q-89.8 -95.45 -92.1 -95.7 L-96.7 -96.45 -97.4 -96.6 Q-103.9 -98.2 -105.5 -102.0 L-101.15 -101.45 Q-96.2 -101.45 -91.0 -105.55 L-90.6 -105.85 Q-88.3 -107.7 -86.5 -109.7 L-86.25 -110.0 -87.35 -110.05 -92.0 -110.35 Q-95.0 -110.35 -96.7 -109.6 L-100.65 -107.5 -100.25 -108.4 -99.8 -109.45 Q-97.85 -113.45 -93.8 -117.05 -88.55 -121.75 -83.95 -121.75 L-82.5 -121.45 -81.5 -121.2 -81.5 -121.4 -80.15 -129.55 -79.95 -129.35 Q-78.25 -122.55 -78.25 -121.95 L-75.65 -124.05 -74.6 -124.85 -74.1 -125.25 M56.55 -89.85 Q59.1 -86.55 60.65 -85.3 63.35 -83.0 66.35 -76.0 L66.35 -75.8 Q63.8 -78.65 63.15 -78.75 L62.95 -78.95 63.6 -73.7 Q63.6 -70.75 63.4 -70.1 63.0 -70.5 62.85 -71.05 L62.35 -72.25 62.1 -72.25 62.05 -71.3 62.05 -71.05 60.5 -75.35 Q58.0 -82.5 58.1 -83.4 L57.75 -83.4 57.45 -80.95 57.15 -78.6 57.15 -78.9 Q57.45 -83.8 56.55 -89.85 M-106.65 -55.35 L-104.75 -57.2 Q-104.75 -59.7 -102.75 -64.4 -101.0 -68.5 -100.0 -69.2 L-99.75 -69.35 Q-99.75 -70.1 -99.2 -71.4 L-96.05 -71.65 Q-95.9 -71.45 -95.55 -71.4 L-96.3 -70.7 Q-96.3 -70.25 -94.25 -69.9 L-95.65 -69.9 -100.0 -69.2 -95.65 -69.9 -94.25 -69.9 -91.25 -69.95 Q-86.95 -69.95 -79.8 -67.7 L-79.3 -67.4 -78.55 -67.15 -78.7 -67.8 -78.8 -68.4 Q-82.65 -70.0 -87.85 -71.5 L-91.75 -72.5 -90.95 -72.55 Q-87.25 -72.55 -82.5 -71.1 L-81.45 -70.75 Q-79.2 -70.4 -74.5 -68.1 L-73.9 -67.8 -73.5 -66.85 -73.15 -65.9 -73.15 -65.7 -73.0 -66.65 -72.95 -66.8 -72.85 -67.35 -69.6 -65.85 -68.8 -66.8 Q-68.25 -66.55 -65.95 -64.35 L-63.05 -61.3 -63.45 -61.3 -65.55 -61.3 -69.05 -61.8 -72.9 -61.3 -75.4 -60.7 -75.45 -60.95 -75.75 -62.4 Q-76.0 -63.0 -76.4 -63.3 L-77.0 -63.6 -80.95 -65.15 Q-84.25 -66.35 -86.55 -66.8 L-91.45 -67.15 -95.2 -67.05 -100.95 -65.55 Q-101.9 -61.6 -101.05 -58.1 -100.15 -54.65 -97.8 -52.35 L-97.0 -51.7 -96.65 -51.45 Q-94.5 -50.1 -91.15 -50.0 L-90.9 -50.0 -92.65 -44.1 Q-95.95 -43.75 -98.65 -45.4 L-98.95 -45.55 -99.4 -45.85 -100.85 -47.15 -101.95 -48.4 Q-104.75 -52.0 -104.75 -57.15 L-104.75 -57.2 -104.75 -57.15 Q-104.75 -52.0 -101.95 -48.4 L-103.65 -47.5 Q-103.75 -48.5 -104.15 -49.2 L-105.05 -50.15 -108.4 -50.3 -108.5 -50.25 -108.75 -50.15 Q-108.75 -51.2 -108.35 -52.25 -108.0 -53.45 -107.15 -54.7 L-106.65 -55.35 M29.4 -127.05 L24.3 -132.45 29.4 -127.05 M27.05 -123.2 Q25.55 -125.3 19.25 -128.35 12.65 -131.55 9.4 -131.15 12.65 -131.55 19.25 -128.35 25.55 -125.3 27.05 -123.2 M22.55 -99.4 L23.45 -98.25 22.55 -99.4 M38.25 -116.4 Q28.75 -117.2 23.05 -119.55 19.5 -121.05 16.5 -123.8 19.5 -121.05 23.05 -119.55 28.75 -117.2 38.25 -116.4 M41.35 -129.6 Q47.2 -127.75 49.2 -124.7 47.2 -127.75 41.35 -129.6 M45.9 -126.05 L45.45 -126.35 45.65 -126.15 45.9 -126.05 M54.35 -111.9 L54.3 -112.25 54.3 -112.0 54.35 -111.9 M19.85 -85.7 Q19.9 -86.75 19.35 -87.85 L18.65 -89.25 19.35 -87.85 Q19.9 -86.75 19.85 -85.7 M9.7 -52.65 L9.7 -52.3 9.9 -44.45 10.4 -36.75 9.85 -38.15 9.45 -38.85 Q8.65 -37.5 8.15 -35.9 7.7 -34.4 7.7 -33.4 2.45 -35.65 0.95 -35.4 L0.95 -40.15 -3.05 -37.5 Q-6.75 -35.05 -7.4 -35.05 L-8.05 -37.1 -15.85 -36.75 -14.0 -40.25 Q-12.1 -43.65 -11.1 -43.85 L-11.45 -43.85 -12.9 -43.4 Q-14.2 -42.85 -14.5 -42.85 L-14.5 -43.2 -12.75 -44.7 -8.9 -48.1 Q-4.0 -52.3 -2.0 -52.65 L-3.9 -49.35 -5.35 -46.2 -5.05 -46.2 Q1.75 -51.1 4.65 -52.65 L4.3 -49.85 4.0 -47.25 4.0 -43.85 4.3 -43.85 9.7 -52.65 M-60.5 -128.8 L-59.85 -129.4 -60.05 -129.65 -60.5 -128.8 Q-61.1 -127.35 -61.05 -126.15 -61.1 -127.35 -60.5 -128.8 L-61.8 -127.6 Q-65.25 -124.6 -66.65 -123.85 -65.9 -125.35 -64.95 -129.15 -66.1 -126.85 -70.6 -124.75 L-73.15 -123.65 -70.6 -124.75 Q-66.1 -126.85 -64.95 -129.15 -65.9 -125.35 -66.65 -123.85 -65.25 -124.6 -61.8 -127.6 L-60.5 -128.8 M-26.1 -140.2 L-33.0 -138.9 -26.1 -140.2 M-6.7 -138.95 Q-7.75 -138.7 -8.25 -138.3 -7.75 -138.7 -6.7 -138.95 M-47.65 -120.65 L-49.15 -120.25 -47.65 -120.65 M-51.85 -121.8 Q-53.95 -121.55 -56.0 -119.5 -53.95 -121.55 -51.85 -121.8 M-62.1 -117.2 L-65.9 -117.05 -62.1 -117.2 M-39.85 -130.3 Q-40.15 -130.1 -40.9 -129.8 L-41.75 -129.55 -40.9 -129.8 Q-40.15 -130.1 -39.85 -130.3 M-42.55 -131.05 L-44.8 -131.05 -49.8 -129.65 -46.0 -132.05 Q-42.2 -134.4 -41.8 -135.05 -43.15 -134.3 -52.4 -130.4 -58.55 -127.85 -60.05 -126.7 L-57.7 -131.85 -59.85 -129.4 -57.7 -131.85 -60.05 -126.7 Q-58.55 -127.85 -52.4 -130.4 -43.15 -134.3 -41.8 -135.05 -42.2 -134.4 -46.0 -132.05 L-49.8 -129.65 -44.8 -131.05 -42.55 -131.05 M-29.65 -111.15 Q-27.65 -110.4 -26.3 -108.75 -27.65 -110.4 -29.65 -111.15 M-6.55 -112.25 L-6.6 -112.5 -6.6 -112.25 -6.55 -112.25 -7.05 -109.95 -7.95 -106.8 -10.15 -99.4 -10.15 -104.75 Q-10.2 -104.05 -12.05 -101.0 -13.9 -98.0 -14.4 -97.5 L-12.85 -104.45 -12.1 -107.7 -11.3 -112.25 -10.8 -110.75 -10.6 -109.95 -10.35 -109.15 -10.35 -109.1 -7.55 -116.0 -6.25 -115.3 -5.25 -114.8 -4.35 -111.5 -4.15 -110.85 -4.0 -110.3 -4.5 -110.75 -5.15 -111.4 Q-6.1 -112.3 -6.55 -112.25 M-8.35 -109.8 Q-7.5 -112.45 -7.6 -113.05 L-5.5 -112.15 -4.35 -111.5 -5.5 -112.15 -7.6 -113.05 Q-7.5 -112.45 -8.35 -109.8 M-11.2 -103.9 Q-10.25 -107.2 -10.25 -107.8 L-10.35 -109.15 -10.25 -107.8 Q-10.25 -107.2 -11.2 -103.9 M-78.45 -93.05 L-78.8 -88.6 -78.45 -93.05 M-76.65 -66.6 L-77.75 -66.9 -77.85 -66.95 -78.55 -67.15 -77.85 -66.95 -77.75 -66.9 -76.65 -66.6 M-91.45 -31.0 L-92.05 -33.65 -85.95 -32.4 Q-82.65 -31.8 -79.55 -30.35 L-83.8 -29.85 Q-86.1 -29.25 -86.15 -27.3 L-86.4 -27.3 Q-89.35 -30.05 -90.0 -31.55 -89.85 -31.2 -90.25 -30.15 -90.6 -29.3 -90.85 -29.0 L-91.45 -31.0 M-12.9 -69.55 L-11.6 -68.15 Q-13.3 -69.15 -18.0 -70.8 L-18.25 -70.8 Q-17.25 -69.8 -15.35 -65.9 -13.75 -62.65 -13.5 -61.75 L-13.5 -61.5 Q-17.35 -63.35 -19.85 -64.15 -23.3 -65.25 -26.5 -65.25 L-28.3 -65.05 -29.5 -64.7 -32.9 -65.9 -39.35 -67.25 -39.35 -67.35 -36.2 -69.25 -35.6 -69.4 Q-33.75 -70.35 -31.4 -71.1 L-22.25 -73.75 Q-23.05 -75.0 -27.0 -76.3 -29.05 -76.95 -29.45 -78.1 L-30.75 -78.55 Q-30.6 -78.55 -30.55 -78.65 L-30.5 -78.8 -22.95 -83.0 -19.35 -84.75 -19.6 -84.75 -21.0 -85.2 -23.3 -85.85 -27.4 -86.85 -27.4 -87.1 -21.25 -87.55 -22.35 -88.15 -22.5 -88.2 Q-20.95 -87.95 -19.25 -87.15 -17.7 -86.45 -16.1 -85.3 -11.6 -82.2 -10.35 -78.1 L-15.8 -79.3 -22.5 -79.3 -22.5 -79.05 -17.5 -77.5 -16.65 -77.15 Q-12.95 -75.7 -12.25 -74.3 -12.5 -74.55 -14.85 -75.25 L-19.45 -76.3 -15.15 -72.05 -12.9 -69.55 -15.5 -71.1 Q-18.0 -72.55 -18.2 -72.85 -18.0 -72.55 -15.5 -71.1 L-12.9 -69.55 M-62.4 -67.55 L-59.45 -66.65 -56.25 -65.3 -54.6 -64.2 -53.25 -63.3 Q-56.05 -62.65 -59.65 -64.9 -63.3 -67.2 -65.3 -67.65 L-62.4 -67.55" fill="#d0d9d9" fill-rule="evenodd" stroke="none"/>
    <path d="M-74.1 -125.25 L-73.65 -125.6 -75.7 -122.75 -73.15 -123.65 -72.0 -128.1 Q-71.05 -132.45 -71.0 -133.95 L-71.0 -134.0 -71.4 -136.95 -69.7 -135.85 -69.8 -136.95 -70.0 -138.0 -70.25 -138.7 -67.25 -136.9 -64.25 -134.35 Q-61.95 -132.2 -60.05 -129.65 -57.7 -134.25 -49.45 -141.15 -38.1 -150.6 -30.05 -153.0 L-29.0 -153.0 Q-31.1 -151.95 -37.75 -145.75 L-44.85 -139.1 -44.85 -138.9 Q-35.1 -144.15 -25.3 -146.55 -15.5 -149.0 -2.3 -149.35 -13.9 -147.45 -24.0 -142.4 L-26.1 -140.2 -19.4 -141.2 Q-7.05 -142.95 -1.2 -142.95 L8.55 -142.65 1.45 -141.4 Q-4.75 -140.1 -6.7 -138.95 L-2.8 -139.85 5.8 -140.55 Q12.2 -140.85 17.65 -137.65 20.8 -135.75 24.3 -132.45 L24.85 -132.45 Q34.3 -131.5 39.35 -130.2 L41.35 -129.6 41.5 -129.6 46.45 -129.2 Q52.65 -129.2 59.05 -132.45 69.15 -137.6 73.9 -149.0 L72.6 -144.8 71.35 -140.75 Q72.05 -140.75 74.65 -142.85 77.15 -144.9 78.0 -146.05 L78.2 -146.05 Q77.95 -143.45 73.0 -138.0 L71.55 -136.4 Q68.2 -132.9 66.85 -132.35 L68.9 -132.15 71.35 -132.2 71.75 -132.25 Q73.05 -132.5 75.25 -133.3 73.45 -129.85 67.3 -127.1 62.0 -124.7 59.4 -124.9 60.05 -124.2 63.1 -123.8 L66.85 -123.5 67.05 -123.5 Q61.3 -121.55 57.4 -121.55 L54.3 -121.85 54.0 -121.9 51.75 -122.15 53.15 -121.0 53.65 -120.6 55.4 -119.05 55.65 -119.0 55.45 -119.0 55.4 -119.05 53.4 -119.65 51.4 -120.3 52.6 -118.55 53.0 -117.9 Q56.8 -111.9 56.45 -106.9 L56.6 -106.55 56.4 -106.55 56.45 -106.9 54.35 -111.9 Q54.8 -107.4 52.5 -99.75 L52.5 -99.7 Q53.15 -97.95 56.65 -95.3 L61.65 -92.0 62.1 -91.8 61.9 -91.8 61.65 -92.0 55.95 -93.45 53.5 -94.05 56.55 -89.85 Q59.1 -86.55 60.65 -85.3 63.35 -83.0 66.35 -76.0 L66.35 -75.8 Q63.8 -78.65 63.15 -78.75 L62.95 -78.95 63.6 -73.7 Q63.6 -70.75 63.4 -70.1 63.0 -70.5 62.85 -71.05 L62.35 -72.25 62.1 -72.25 62.05 -71.3 62.05 -71.05 61.65 -68.6 Q61.65 -66.15 62.05 -63.1 L62.55 -59.75 62.55 -59.7 60.8 -63.75 60.95 -62.1 Q60.95 -60.35 60.2 -58.75 L58.85 -55.2 58.7 -55.05 59.1 -58.75 55.65 -53.9 Q54.0 -51.8 51.1 -51.8 L49.45 -51.95 Q46.8 -49.95 46.05 -49.2 L46.05 -49.4 46.65 -52.7 45.55 -53.5 42.65 -53.55 41.6 -53.55 40.05 -52.45 36.65 -50.2 38.0 -54.15 37.8 -54.3 Q37.6 -54.45 37.5 -54.95 34.65 -55.3 33.25 -56.75 L29.4 -53.9 29.4 -54.1 Q29.55 -54.85 30.85 -57.65 L31.85 -59.7 31.85 -60.05 Q31.85 -64.9 35.85 -67.1 L38.6 -68.55 Q39.7 -69.3 39.9 -70.35 L39.75 -70.55 39.65 -70.75 38.8 -71.95 Q36.25 -72.25 34.1 -73.55 32.05 -74.75 30.55 -76.7 L30.75 -75.4 31.15 -70.95 Q31.15 -68.9 29.9 -62.75 L28.5 -56.1 28.45 -55.8 28.45 -56.0 28.5 -56.1 Q28.8 -60.25 28.45 -65.9 L28.2 -66.1 Q27.7 -61.4 26.15 -56.05 24.85 -51.5 24.85 -49.15 24.85 -48.05 25.25 -46.75 24.55 -47.4 24.2 -52.65 L24.2 -52.85 Q23.1 -49.9 20.25 -45.6 L17.2 -41.25 17.2 -41.05 17.15 -38.9 Q17.1 -33.0 16.85 -32.45 L16.85 -32.2 16.2 -36.65 Q13.6 -28.65 12.2 -26.15 11.5 -24.95 10.6 -24.1 8.95 -22.7 6.6 -22.5 L6.25 -21.5 4.65 -17.05 Q3.65 -18.9 2.85 -21.7 L2.4 -23.35 Q0.5 -24.1 -0.3 -24.7 L-1.4 -25.95 -1.45 -26.05 -1.5 -25.95 Q-1.95 -24.55 -2.75 -24.0 -3.1 -23.7 -5.75 -22.95 L-7.3 -22.55 -8.3 -21.3 Q-11.8 -17.45 -12.85 -15.55 L-13.05 -15.8 -13.2 -22.55 Q-14.7 -23.1 -16.2 -24.2 L-17.0 -24.85 -17.05 -24.9 Q-17.7 -24.45 -19.3 -23.75 -21.3 -22.95 -22.1 -22.95 -24.3 -22.95 -26.2 -24.05 L-26.75 -23.6 -29.8 -19.95 -32.2 -17.05 -32.4 -21.15 Q-32.4 -25.1 -31.85 -27.4 L-31.65 -28.3 -30.55 -30.6 -30.45 -30.75 -30.5 -31.0 -30.5 -31.45 Q-30.5 -33.65 -28.8 -36.25 -25.75 -40.85 -25.05 -42.3 L-27.5 -41.7 Q-26.65 -41.95 -24.5 -44.0 L-25.0 -44.25 -29.0 -44.25 -28.4 -41.45 -28.4 -38.65 Q-28.45 -40.75 -33.0 -42.1 L-37.7 -43.05 -39.4 -42.85 -37.8 -41.4 -36.2 -40.05 -36.2 -39.85 -38.6 -40.15 -41.9 -40.45 -43.7 -40.1 -43.3 -39.25 Q-41.6 -35.65 -41.6 -33.75 -41.6 -32.5 -44.0 -31.75 L-48.5 -31.15 -54.25 -31.55 -59.2 -31.95 Q-62.85 -31.95 -66.8 -30.55 -72.4 -28.55 -72.4 -24.95 -72.4 -23.8 -71.4 -22.95 L-72.0 -22.95 Q-73.0 -22.95 -77.8 -24.95 L-74.4 -20.55 -74.6 -20.55 Q-76.5 -20.85 -78.6 -21.7 -81.2 -22.8 -82.9 -24.3 L-79.35 -19.95 -79.55 -19.95 Q-85.95 -22.7 -87.7 -23.95 -91.05 -26.35 -93.35 -31.35 L-93.35 -31.15 -94.15 -28.95 -94.15 -29.15 Q-94.55 -30.75 -94.55 -32.15 L-94.4 -33.9 -95.25 -34.85 -95.45 -35.4 Q-95.45 -36.45 -93.9 -36.85 L-93.35 -36.95 -93.8 -37.4 -94.05 -37.75 -93.15 -39.3 Q-94.85 -40.7 -94.85 -41.25 L-94.45 -42.75 -94.55 -42.75 -96.4 -43.3 Q-97.15 -42.45 -98.15 -41.95 -99.65 -41.25 -101.7 -41.25 -105.6 -41.25 -107.35 -43.95 L-107.75 -43.8 Q-111.5 -42.5 -113.95 -41.25 L-115.4 -40.45 -116.25 -39.9 -116.25 -40.05 -115.0 -43.15 Q-112.55 -48.5 -108.8 -50.1 L-117.65 -49.95 -118.05 -49.95 Q-117.35 -51.2 -114.0 -53.15 -110.15 -55.4 -107.4 -55.4 L-106.65 -55.35 -104.75 -57.2 Q-104.75 -59.7 -102.75 -64.4 -101.0 -68.5 -100.0 -69.2 L-99.75 -69.35 Q-99.75 -70.1 -99.2 -71.4 L-100.15 -71.4 -100.95 -71.4 -104.45 -71.8 Q-101.55 -71.5 -95.55 -76.95 L-95.4 -78.45 -95.2 -80.6 -100.1 -76.55 -100.1 -76.75 Q-99.75 -77.3 -98.55 -84.7 L-98.45 -85.4 -98.0 -87.4 Q-97.15 -91.15 -96.2 -93.45 -97.7 -93.55 -99.1 -94.15 -101.5 -95.25 -103.5 -97.8 -105.1 -99.9 -106.1 -102.15 L-106.2 -102.2 -106.2 -102.4 -106.1 -102.15 -105.5 -102.0 -101.15 -101.45 Q-96.2 -101.45 -91.0 -105.55 L-90.6 -105.85 Q-88.3 -107.7 -86.5 -109.7 L-86.25 -110.0 -87.35 -110.05 -92.0 -110.35 Q-95.0 -110.35 -96.7 -109.6 L-100.65 -107.5 -100.25 -108.4 -99.8 -109.45 Q-97.85 -113.45 -93.8 -117.05 -88.55 -121.75 -83.95 -121.75 L-82.5 -121.45 -81.5 -121.2 -81.5 -121.4 -80.15 -129.55 -79.95 -129.35 Q-78.25 -122.55 -78.25 -121.95 L-75.65 -124.05 -74.6 -124.85 M24.3 -132.45 L29.4 -127.05 M-33.45 -129.35 L-28.7 -130.95 -23.35 -132.8 Q-23.75 -132.0 -26.5 -130.4 -29.25 -128.8 -30.0 -128.8 L-30.0 -128.6 -26.75 -129.0 -22.6 -129.2 -22.2 -129.2 -9.15 -128.3 3.0 -127.45 10.15 -127.85 11.2 -127.85 8.15 -125.95 14.25 -125.95 Q12.2 -124.55 7.3 -119.4 L4.5 -116.45 -0.1 -111.6 -0.6 -111.15 -0.3 -111.05 2.45 -111.15 2.85 -111.15 Q2.15 -111.15 -0.45 -109.0 L-1.25 -108.35 -2.8 -106.95 -5.7 -103.75 M27.3 -90.25 L26.55 -91.85 25.65 -93.9 23.45 -98.25 22.55 -99.4 M9.4 -131.15 Q12.65 -131.55 19.25 -128.35 25.55 -125.3 27.05 -123.2 M5.7 -123.65 L4.8 -122.5 2.7 -120.55 M50.65 -92.0 Q51.1 -95.15 52.5 -99.7 M16.5 -123.8 Q19.5 -121.05 23.05 -119.55 28.75 -117.2 38.25 -116.4 M49.2 -124.7 Q48.75 -124.85 47.55 -125.35 L45.9 -126.05 47.8 -124.4 51.4 -120.3 M49.2 -124.7 Q47.2 -127.75 41.35 -129.6 M49.2 -124.7 L49.45 -124.65 49.25 -124.65 49.2 -124.7 M45.9 -126.05 L45.65 -126.15 45.45 -126.35 45.9 -126.05 M51.75 -122.15 L51.55 -122.15 51.55 -122.35 51.75 -122.15 M54.35 -111.9 L54.3 -112.0 54.3 -112.25 54.35 -111.9 M53.5 -94.05 L53.25 -94.1 53.25 -94.35 53.5 -94.05 M52.6 -90.55 L52.35 -89.25 52.2 -87.9 52.4 -85.5 M50.65 -92.0 Q50.3 -89.6 50.5 -88.0 M58.2 -67.95 Q57.9 -66.45 57.9 -65.25 M37.5 -74.7 L38.25 -74.2 41.5 -73.0 Q45.35 -71.85 48.3 -71.9 M45.55 -53.5 Q45.15 -54.0 45.15 -54.55 45.15 -55.05 46.55 -57.65 L48.95 -61.85 M49.45 -51.95 L50.05 -52.4 Q51.75 -53.65 51.75 -54.8 51.75 -55.75 50.5 -56.25 L48.0 -56.1 Q47.4 -55.65 46.65 -52.75 L46.65 -52.7 M41.6 -53.55 Q43.1 -54.8 43.1 -55.65 43.1 -56.95 42.15 -57.65 41.35 -58.25 40.15 -58.25 39.5 -58.25 38.0 -54.15 M27.3 -90.25 L27.55 -89.65 33.25 -76.45 33.5 -75.8 Q33.1 -76.1 31.65 -78.2 L30.1 -80.65 29.9 -80.65 29.9 -79.6 30.55 -76.7 M28.35 -101.55 Q26.9 -98.45 26.65 -94.45 L26.55 -92.4 26.55 -91.85 M18.65 -89.25 L19.35 -87.85 Q19.9 -86.75 19.85 -85.7 M38.8 -71.95 L40.25 -71.9 40.7 -71.9 38.25 -74.2 M23.75 -68.3 L23.75 -68.05 Q23.65 -66.45 22.45 -62.6 L20.4 -56.75 M42.75 -63.6 Q38.95 -61.25 38.2 -60.6 37.35 -59.9 37.35 -57.15 37.35 -55.7 37.5 -54.95 M33.25 -56.75 L33.55 -56.95 Q35.05 -57.95 35.05 -59.9 35.05 -60.65 34.7 -60.95 L33.3 -62.15 31.85 -59.7 M2.1 -29.9 L1.9 -29.9 Q1.65 -27.9 2.0 -25.55 L2.4 -23.35 M6.85 -29.6 L5.85 -30.2 2.1 -29.9 M6.6 -22.5 L7.2 -24.7 7.6 -27.05 Q7.6 -28.8 6.85 -29.6 M17.7 -52.2 L17.2 -41.25 M39.9 -70.35 L41.15 -67.8 M-59.85 -129.4 L-60.5 -128.8 Q-61.1 -127.35 -61.05 -126.15 M-60.5 -128.8 L-60.05 -129.65 -59.85 -129.4 -57.7 -131.85 -60.05 -126.7 Q-58.55 -127.85 -52.4 -130.4 -43.15 -134.3 -41.8 -135.05 -42.2 -134.4 -46.0 -132.05 L-49.8 -129.65 -44.8 -131.05 -42.55 -131.05 M-41.75 -129.55 L-40.9 -129.8 Q-40.15 -130.1 -39.85 -130.3 M-73.15 -123.65 L-70.6 -124.75 Q-66.1 -126.85 -64.95 -129.15 -65.9 -125.35 -66.65 -123.85 -65.25 -124.6 -61.8 -127.6 L-60.5 -128.8 M-65.9 -117.05 L-62.1 -117.2 M-56.0 -119.5 Q-53.95 -121.55 -51.85 -121.8 M-49.15 -120.25 L-47.65 -120.65 M-8.25 -138.3 Q-7.75 -138.7 -6.7 -138.95 M-33.0 -138.9 L-26.1 -140.2 M-74.7 -69.75 L-73.9 -67.8 -73.5 -66.85 -73.15 -65.9 -73.15 -65.7 -73.0 -66.65 -72.95 -66.8 -72.85 -67.35 Q-71.45 -75.25 -67.75 -82.65 -63.5 -90.95 -58.9 -93.45 M-36.1 -105.8 L-34.95 -105.8 Q-32.3 -105.55 -28.05 -102.3 L-27.7 -102.05 -26.3 -100.9 Q-23.7 -98.7 -23.2 -97.65 L-23.2 -98.3 -23.5 -101.95 -24.4 -105.25 Q-24.75 -106.3 -25.25 -107.15 -25.7 -108.05 -26.3 -108.75 -27.65 -110.4 -29.65 -111.15 M-17.2 -114.35 L-16.1 -114.95 Q-11.65 -116.5 -5.55 -117.8 L-1.65 -118.55 Q0.7 -119.0 2.7 -120.55 M-4.35 -111.5 L-5.5 -112.15 -7.6 -113.05 Q-7.5 -112.45 -8.35 -109.8 M-4.35 -111.5 L-3.6 -111.15 -3.6 -111.35 -4.5 -114.55 -4.8 -115.45 -5.55 -117.8 M-10.6 -109.95 L-10.35 -109.15 -10.25 -107.8 Q-10.25 -107.2 -11.2 -103.9 M-96.2 -93.45 L-95.65 -93.45 -93.75 -93.6 -91.75 -94.2 -89.65 -95.15 M-95.55 -76.95 L-95.45 -77.05 Q-89.05 -82.9 -87.95 -88.05 -88.35 -86.65 -93.75 -81.9 L-95.2 -80.6 M-78.8 -88.6 L-78.45 -93.05 M-82.6 -76.75 L-83.75 -76.1 Q-86.7 -74.5 -89.2 -73.5 L-82.55 -73.35 -82.2 -73.25 -80.15 -72.95 M-104.75 -57.2 L-104.75 -57.15 Q-104.75 -52.0 -101.95 -48.4 L-100.85 -47.15 -99.4 -45.85 -98.95 -45.55 -98.65 -45.4 Q-95.95 -43.75 -92.65 -44.1 L-91.3 -44.3 -87.75 -44.15 Q-82.65 -44.15 -73.15 -48.75 L-71.0 -49.75 Q-64.4 -52.85 -61.6 -53.25 L-60.8 -53.35 Q-58.6 -53.35 -55.15 -50.85 -51.9 -48.55 -49.8 -45.75 -48.8 -44.45 -47.0 -40.6 -45.0 -36.45 -45.0 -35.15 -45.0 -33.95 -47.4 -33.95 L-52.25 -34.85 -58.2 -35.75 -66.35 -34.85 -75.3 -33.95 -84.55 -34.75 -91.95 -35.55 Q-93.45 -35.55 -93.95 -34.95 L-94.4 -33.9 M-90.9 -50.0 L-91.15 -50.0 Q-94.5 -50.1 -96.65 -51.45 L-97.0 -51.7 -97.8 -52.35 Q-100.15 -54.65 -101.05 -58.1 -101.9 -61.6 -100.95 -65.55 L-95.2 -67.05 -91.45 -67.15 -86.55 -66.8 Q-84.25 -66.35 -80.95 -65.15 L-77.0 -63.6 -76.4 -63.3 Q-76.0 -63.0 -75.75 -62.4 L-75.45 -60.95 -75.4 -60.7 -75.4 -59.85 -75.45 -58.45 -75.6 -58.15 -77.0 -57.95 -77.95 -58.05 -80.15 -58.35 Q-81.45 -58.35 -82.4 -57.05 -83.05 -56.2 -83.95 -53.95 L-83.95 -53.55 -82.85 -53.9 -79.95 -55.15 -79.55 -55.35 M-106.65 -55.35 L-107.15 -54.7 Q-108.0 -53.45 -108.35 -52.25 -108.75 -51.2 -108.75 -50.15 L-108.5 -50.25 -108.4 -50.3 -105.05 -50.15 -104.15 -49.2 Q-103.75 -48.5 -103.65 -47.5 L-103.65 -46.9 Q-103.65 -45.3 -107.35 -43.95 M-108.75 -50.15 L-108.8 -50.1 -108.75 -50.1 -108.75 -50.15 M-108.75 -50.1 L-108.4 -50.3 M-78.55 -67.15 L-77.85 -66.95 -77.75 -66.9 -76.65 -66.6 M-94.25 -69.9 L-91.25 -69.95 Q-86.95 -69.95 -79.8 -67.7 L-79.3 -67.4 -78.55 -67.15 M-96.05 -71.65 L-92.3 -72.4 -92.0 -72.5 -89.2 -73.5 M-96.05 -71.65 L-99.2 -71.4 M-100.0 -69.2 L-95.65 -69.9 -94.25 -69.9 M-79.95 -55.15 Q-81.45 -53.45 -82.9 -52.35 L-84.5 -51.3 -86.1 -50.6 -90.9 -50.0 M-87.55 -39.95 Q-90.05 -41.9 -90.75 -42.25 M-99.4 -45.85 L-98.85 -45.1 -98.7 -44.95 Q-97.75 -43.9 -96.4 -43.3 M-94.45 -42.75 L-92.8 -42.6 -92.6 -42.6 -88.3 -42.55 Q-80.95 -42.55 -73.9 -45.85 L-73.85 -46.0 -73.75 -45.9 -72.25 -46.7 Q-64.45 -50.9 -59.7 -50.9 -57.5 -50.9 -54.4 -47.5 L-52.15 -44.75 -52.1 -44.65 Q-47.9 -38.95 -47.9 -37.3 -47.9 -36.25 -48.5 -36.1 L-49.7 -36.1 -54.0 -36.65 -58.25 -37.25 -65.05 -36.55 -72.8 -35.9 -78.9 -36.35 -87.9 -37.05 Q-91.7 -37.25 -93.35 -36.95 M-92.6 -42.6 L-92.45 -41.75 -92.05 -40.45 -91.6 -39.25 -91.1 -38.5 M-92.85 -39.3 L-91.6 -39.25 M-83.55 -24.95 L-82.9 -24.3 -83.35 -24.95 -83.55 -24.95 M-5.6 -97.25 L-5.6 -94.05 Q-5.3 -87.3 -2.0 -82.25 M-12.9 -69.55 L-15.5 -71.1 Q-18.0 -72.55 -18.2 -72.85 M-12.6 -85.25 Q-9.5 -83.7 -2.75 -77.0 L-2.4 -76.65 -4.6 -77.0 -8.0 -77.85 -9.4 -77.85 -9.8 -77.65 -9.3 -76.95 -8.1 -75.15 Q-6.75 -72.85 -6.2 -70.65 M-60.0 -73.05 Q-57.45 -73.7 -55.25 -79.25 -51.7 -88.3 -50.2 -90.35 -49.05 -91.95 -46.4 -92.8 -43.8 -93.65 -41.3 -93.95 L-36.25 -94.9 Q-33.65 -95.6 -31.8 -96.75 L-31.6 -96.75 Q-33.0 -94.9 -33.9 -91.2 -34.7 -88.05 -35.0 -84.35 L-35.35 -77.85 Q-35.75 -74.4 -38.35 -71.55 L-38.1 -71.65 Q-31.7 -73.45 -28.6 -72.75 M-47.65 -85.7 Q-43.8 -91.75 -40.65 -91.9 -37.2 -92.15 -37.2 -86.45 -37.2 -83.65 -37.7 -81.65 L-39.0 -76.35 Q-39.4 -74.3 -40.65 -72.6 -41.5 -71.5 -42.9 -70.25 L-38.35 -71.55 M-12.9 -69.55 L-11.6 -68.65 -8.4 -65.35 -6.4 -62.85 M-20.6 -61.25 L-19.0 -59.6 -18.0 -58.25 M-4.8 -60.25 L-4.1 -60.6 -2.8 -61.45 M-2.4 -55.05 L-3.9 -55.25 Q-6.8 -55.25 -14.6 -52.25 M-47.65 -85.7 L-48.6 -84.2 -50.05 -82.2 -50.65 -81.35 -49.35 -81.3 -48.45 -79.65 Q-48.2 -79.2 -48.2 -78.4 -48.2 -77.2 -48.85 -76.45 -49.5 -75.8 -50.4 -75.8 -51.1 -75.8 -51.8 -76.45 L-53.0 -77.95 -53.1 -78.15 -54.95 -75.75 Q-53.75 -74.0 -52.2 -73.25 -50.65 -72.55 -48.25 -72.55 -47.65 -72.55 -46.35 -73.15 -45.05 -73.85 -44.65 -74.4 -43.5 -75.9 -43.5 -77.95 -43.5 -82.5 -47.65 -85.7 M-53.1 -78.15 L-52.05 -79.5 -52.0 -79.5 -50.65 -81.35 M-78.8 -88.6 L-78.85 -88.05 Q-78.85 -80.55 -76.35 -73.6 L-74.7 -69.75 M-60.0 -73.05 Q-61.15 -70.4 -61.8 -69.35 L-61.8 -69.15 -58.75 -71.1 Q-56.95 -71.95 -54.8 -71.95 -53.9 -71.95 -50.9 -70.7 L-48.65 -69.75 -52.1 -71.95 Q-54.25 -73.55 -55.8 -73.95 L-56.45 -73.95 -54.95 -75.75 M-71.05 -53.2 L-72.1 -53.05 -72.35 -53.0 M-65.55 -60.5 L-64.85 -60.85 -63.45 -61.3 M-65.35 -56.4 L-64.5 -56.85 M-72.15 -57.5 L-70.7 -59.0 M-48.65 -69.75 L-47.9 -69.45 -47.7 -69.55 Q-45.15 -71.0 -44.15 -71.25 L-46.8 -69.35 -47.0 -69.15 -42.9 -70.25 M-66.0 -76.55 L-63.65 -73.85 Q-62.45 -72.95 -60.7 -72.95 L-60.0 -73.05 M-54.2 -65.75 L-47.9 -69.45 M-44.0 -40.05 L-43.7 -40.1 Q-45.3 -43.25 -47.4 -45.95 M-54.4 -47.5 L-55.35 -46.25 -56.15 -44.9 -55.4 -45.1 -53.0 -44.9 -52.15 -44.75 M-66.05 -41.95 Q-62.85 -43.25 -59.4 -44.15 L-56.15 -44.9 M-65.4 -40.5 Q-68.05 -41.2 -70.05 -42.9 L-73.75 -45.9 -73.9 -45.85 -74.1 -45.3 -74.2 -44.7 Q-73.25 -38.05 -71.65 -37.2 M-65.4 -40.5 L-64.3 -40.25 M-75.0 -40.95 L-76.0 -40.6 -77.1 -40.3 -77.9 -40.5 -80.6 -40.05 M-20.6 -54.85 Q-16.85 -53.05 -12.8 -46.85 L-19.35 -47.3 -20.9 -47.45 -21.1 -47.45 -23.85 -44.7 -24.4 -44.15 -24.2 -44.05 -24.2 -43.85 -24.5 -44.0 -24.4 -44.15 -25.85 -45.1 -28.0 -46.65 -27.8 -46.85 -24.7 -47.15 -21.1 -47.45 M-17.05 -24.9 L-18.85 -27.2 Q-19.55 -28.7 -19.55 -30.4 -19.55 -31.45 -18.1 -34.95 M-7.1 -28.8 L-7.15 -28.85 Q-8.25 -29.9 -9.75 -29.9 L-12.3 -29.45 -12.9 -29.25 -13.05 -26.9 -13.25 -23.25 -13.2 -22.85 -13.2 -22.55 M-7.1 -28.8 Q-6.1 -27.75 -6.1 -26.4 -6.1 -24.4 -7.3 -22.55 M-0.6 -33.9 L-0.95 -32.9 -1.3 -30.9 -1.4 -28.45 -1.45 -26.05 M-26.2 -24.05 L-24.15 -25.65 Q-23.35 -26.25 -23.35 -27.35 L-23.35 -27.45 Q-23.35 -29.2 -24.2 -30.55 L-24.4 -30.8 Q-25.8 -32.55 -27.35 -32.85 -29.3 -32.35 -30.45 -30.75" fill="none" stroke="#000000" stroke-linecap="round" stroke-linejoin="round" stroke-opacity="0.3019608" stroke-width="0.05"/>
    <path d="M3.55 -106.2 L9.0 -87.45 9.05 -89.55 Q9.55 -89.75 10.05 -90.0 L11.45 -76.1 3.8 -103.05 3.65 -101.55 3.55 -106.2 M51.75 -104.1 L46.75 -88.25 46.05 -89.0 47.25 -94.0 43.9 -84.35 42.95 -84.25 42.95 -87.8 40.85 -87.45 39.9 -89.45 37.15 -83.05 Q33.4 -88.75 33.4 -95.4 33.4 -96.8 33.8 -98.3 L35.65 -105.65 35.0 -91.55 37.1 -98.6 37.35 -86.1 39.35 -94.75 42.15 -89.9 44.25 -93.4 44.7 -92.55 51.1 -104.9 51.75 -104.1 M22.6 -88.6 L26.8 -81.5 24.15 -82.55 23.6 -77.25 19.15 -79.45 18.75 -72.75 16.25 -74.4 16.95 -68.0 16.2 -67.65 13.6 -80.75 16.0 -80.65 17.1 -77.4 17.0 -83.65 18.0 -84.15 22.0 -79.05 21.45 -87.5 22.6 -88.6 M-68.1 -134.5 L-64.7 -129.95 -65.9 -130.0 -67.1 -131.75 Q-67.65 -130.85 -68.3 -131.3 L-68.1 -134.5 M-49.4 -106.85 L-39.3 -100.4 -41.45 -100.35 -41.85 -97.9 -45.8 -99.75 -46.1 -97.5 -51.3 -98.85 -51.15 -95.55 -53.7 -94.95 -54.65 -93.6 -55.5 -105.05 -54.9 -102.2 -48.45 -100.05 -49.4 -106.85 M-12.1 -125.85 L-15.9 -125.1 -13.5 -123.9 -16.25 -123.3 -16.4 -122.4 -26.35 -119.9 -26.55 -120.6 -22.8 -121.7 -23.9 -122.55 -20.5 -123.75 -27.8 -125.25 -27.25 -125.7 -12.2 -126.3 -12.1 -125.85 M-21.55 -116.7 L-24.5 -117.45 -13.05 -121.95 -12.9 -122.6 -12.65 -121.7 -8.4 -122.2 -8.55 -120.9 -14.7 -118.2 -7.2 -120.55 -6.7 -120.25 -6.45 -119.75 -24.3 -109.95 -25.05 -110.75 -20.9 -114.0 -21.8 -115.2 -20.8 -116.95 -21.55 -116.7 M-36.15 -112.25 L-29.55 -109.1 -35.0 -108.85 -35.0 -110.25 -36.25 -111.5 -36.15 -112.25 M-89.25 -114.15 L-86.1 -113.65 -85.9 -113.25 -92.0 -114.15 -91.85 -114.6 -90.0 -115.75 -92.6 -116.5 -83.85 -119.2 -89.15 -117.05 -85.25 -117.05 -89.25 -114.15 M-97.2 -100.75 Q-91.05 -101.95 -85.45 -106.7 L-83.8 -106.0 -83.8 -105.45 -88.2 -103.05 -86.6 -102.15 Q-88.9 -100.7 -91.25 -99.3 L-84.25 -98.9 -83.85 -97.9 -90.95 -96.0 -90.75 -97.2 -97.65 -98.15 -97.6 -99.6 -96.2 -99.95 -97.2 -100.75 M-81.45 -90.75 L-83.55 -86.55 -81.2 -88.2 -80.4 -87.3 -87.2 -80.0 -88.1 -80.35 -86.3 -85.35 -87.75 -85.3 -82.1 -93.95 -82.65 -92.0 -81.45 -90.75 M-67.55 -92.4 L-71.85 -82.55 -73.65 -83.05 -74.6 -78.25 -75.65 -78.15 -73.95 -93.75 -72.2 -84.6 -68.4 -93.45 -67.55 -92.4" fill="#ffffff" fill-rule="evenodd" stroke="none"/>
    <path d="M-85.5 -62.9 Q-83.95 -63.0 -83.55 -62.25 -84.15 -61.65 -85.5 -61.65 L-86.35 -61.9 Q-86.85 -62.1 -87.05 -62.25 -87.0 -62.8 -85.5 -62.9 M-89.4 -62.5 L-93.55 -62.15 -97.85 -62.5 Q-98.9 -62.85 -98.9 -63.7 -98.9 -64.95 -93.85 -64.6 -88.8 -64.3 -88.8 -63.65 -88.8 -62.75 -89.4 -62.5 M-47.55 -81.1 L-47.6 -81.6 Q-47.6 -83.15 -44.15 -84.5 -40.7 -85.85 -40.7 -83.3 -40.7 -82.45 -41.8 -81.65 -43.2 -80.65 -45.7 -80.65 -47.2 -80.65 -47.55 -81.1" fill="#ffffff" fill-rule="evenodd" stroke="none"/>
  </g>
  <defs>
    <radialGradient cx="0" cy="0" gradientTransform="matrix(0.0254, 0.0, 0.0, 0.0158, -93.8, -64.6)" gradientUnits="userSpaceOnUse" id="gradient0" r="819.2" spreadMethod="pad">
      <stop offset="0.34901960784313724" stop-color="#88716f"/>
      <stop offset="1.0" stop-color="#463a39"/>
    </radialGradient>
    <radialGradient cx="0" cy="0" gradientTransform="matrix(0.107, 0.0, 0.0, 0.0763, -27.0, -44.25)" gradientUnits="userSpaceOnUse" id="gradient1" r="819.2" spreadMethod="pad">
      <stop offset="0.0" stop-color="#7b8b8c"/>
      <stop offset="1.0" stop-color="#adb7b8"/>
    </radialGradient>
  </defs>
</svg>
