<?xml version="1.0" encoding="UTF-8" standalone="no"?>
<svg xmlns:xlink="http://www.w3.org/1999/xlink" height="25.4px" width="18.9px" xmlns="http://www.w3.org/2000/svg">
  <g transform="matrix(1.0, 0.0, 0.0, 1.0, -10.1, -6.15)">
    <path d="M22.55 8.8 Q22.95 8.8 23.2 11.15 L23.5 16.9 23.2 22.6 Q22.95 24.95 22.55 24.95 22.15 24.95 21.85 22.6 21.6 20.25 21.6 16.9 21.6 13.55 21.85 11.15 22.15 8.8 22.55 8.8 M29.0 23.5 L28.7 29.2 Q28.45 31.55 28.05 31.55 27.65 31.55 27.35 29.2 27.1 26.85 27.1 23.5 27.1 20.15 27.35 17.75 27.65 15.4 28.05 15.4 28.45 15.4 28.7 17.75 L29.0 23.5 M11.05 15.15 Q11.45 15.15 11.7 17.5 L12.0 23.25 11.7 28.95 Q11.45 31.3 11.05 31.3 10.65 31.3 10.35 28.95 10.1 26.6 10.1 23.25 10.1 19.9 10.35 17.5 10.65 15.15 11.05 15.15" fill="#fcf9e0" fill-rule="evenodd" stroke="none"/>
    <path d="M14.15 13.0 L15.3 12.85 Q15.95 13.05 16.25 13.6 16.6 14.15 16.4 14.8 L15.15 19.3 16.2 22.95 15.95 23.85 15.0 24.45 Q14.35 24.65 13.85 24.45 13.35 24.25 13.2 23.75 L12.45 21.2 11.95 20.65 Q11.6 20.15 11.8 19.55 L13.4 13.95 Q13.6 13.3 14.15 13.0" fill="#733c2f" fill-rule="evenodd" stroke="none"/>
    <path d="M15.85 6.25 Q17.7 6.3 19.05 7.35 19.95 8.2 19.85 9.2 L19.8 9.6 18.05 16.1 17.2 16.75 15.55 17.0 13.95 16.65 Q13.15 16.35 13.1 15.95 L11.7 9.25 Q11.5 7.95 12.65 7.0 13.6 6.1 15.45 6.25 15.5 6.15 15.6 6.15 L15.85 6.25" fill="#733c2f" fill-rule="evenodd" stroke="none"/>
  </g>
</svg>
