<?xml version="1.0" encoding="UTF-8" standalone="no"?>
<svg xmlns:xlink="http://www.w3.org/1999/xlink" height="7.8px" width="27.75px" xmlns="http://www.w3.org/2000/svg">
  <g transform="matrix(1.0, 0.0, 0.0, 1.0, -1.55, -3.1)">
    <path d="M18.55 9.75 Q17.4 10.9 15.8 10.9 14.15 10.9 13.0 9.75 11.9 8.65 11.9 7.05 11.9 5.4 13.0 4.25 14.15 3.1 15.8 3.1 17.4 3.1 18.55 4.25 19.7 5.4 19.7 7.05 19.7 8.65 18.55 9.75" fill="#733c2f" fill-rule="evenodd" stroke="none"/>
    <path d="M14.05 7.5 Q14.8 7.7 14.8 8.1 14.8 8.65 14.05 8.65 13.3 8.65 13.3 7.95 13.3 7.25 14.05 7.5 M17.9 8.6 Q17.5 8.9 17.1 8.8 16.65 8.7 16.65 8.25 16.65 7.6 17.55 7.6 18.1 7.6 18.2 7.95 L17.9 8.6" fill="#fcf9e0" fill-rule="evenodd" stroke="none"/>
    <path d="M5.45 9.6 Q4.8 10.3 3.8 10.3 2.85 10.3 2.2 9.6 1.55 8.95 1.55 8.0 1.55 7.05 2.2 6.35 2.85 5.7 3.8 5.7 4.8 5.7 5.45 6.35 6.15 7.05 6.15 8.0 6.15 8.95 5.45 9.6" fill="#733c2f" fill-rule="evenodd" stroke="none"/>
    <path d="M28.65 9.8 Q28.0 10.45 27.1 10.45 26.15 10.45 25.5 9.8 24.85 9.15 24.85 8.25 24.85 7.3 25.5 6.65 26.15 6.0 27.1 6.0 28.0 6.0 28.65 6.65 29.3 7.3 29.3 8.25 29.3 9.15 28.65 9.8" fill="#733c2f" fill-rule="evenodd" stroke="none"/>
  </g>
</svg>
