<?xml version="1.0" encoding="UTF-8" standalone="no"?>
<svg xmlns:xlink="http://www.w3.org/1999/xlink" height="15.9px" width="31.25px" xmlns="http://www.w3.org/2000/svg">
  <g transform="matrix(1.0, 0.0, 0.0, 1.0, 12.5, 3.85)">
    <path d="M12.2 -2.15 L12.05 -1.15 11.75 -0.6 11.6 1.35 11.4 3.85 11.5 6.2 Q11.5 8.1 10.95 8.3 L10.8 8.3 10.8 8.25 10.7 8.05 10.6 5.75 10.55 2.4 Q10.65 -0.55 11.1 -2.05 11.6 -3.75 12.2 -2.15 M18.25 6.95 Q16.65 10.95 11.6 11.85 4.3 13.1 0.6 6.9 L0.65 6.75 Q5.8 6.6 8.35 2.5 L9.25 0.55 Q9.7 -1.2 9.5 -2.9 L10.15 1.8 Q10.1 3.0 9.15 4.6 7.95 6.85 5.95 7.55 L4.7 7.95 Q5.05 8.15 5.85 8.7 L6.95 9.3 9.35 9.85 11.9 9.75 13.05 9.2 14.6 8.3 15.6 7.55 16.25 6.75 16.55 6.15 17.0 6.35 18.25 6.95" fill="#b8c9cf" fill-rule="evenodd" stroke="none"/>
    <path d="M12.2 -2.15 Q11.6 -3.75 11.1 -2.05 10.65 -0.55 10.55 2.4 L10.6 5.75 10.7 8.05 10.8 8.25 10.8 8.3 10.95 8.3 Q11.5 8.1 11.5 6.2 L11.4 3.85 11.6 1.35 11.75 -0.6 12.05 -1.15 12.2 -2.15 M9.5 -2.9 L9.4 -3.4 12.1 -3.8 12.95 -3.7 13.1 -3.55 Q12.15 1.7 16.6 4.4 L17.4 4.8 18.3 5.15 18.75 5.3 18.25 6.95 17.0 6.35 16.55 6.15 16.25 6.75 15.6 7.55 14.6 8.3 13.05 9.2 11.9 9.75 9.35 9.85 6.95 9.3 5.85 8.7 Q5.05 8.15 4.7 7.95 L5.95 7.55 Q7.95 6.85 9.15 4.6 10.1 3.0 10.15 1.8 L9.5 -2.9" fill="#e0e8eb" fill-rule="evenodd" stroke="none"/>
    <path d="M9.5 -2.9 L9.4 -3.4 12.1 -3.8 12.95 -3.7 13.1 -3.55 Q12.15 1.7 16.6 4.4 L17.4 4.8 18.3 5.15 18.75 5.3 18.25 6.95 Q16.65 10.95 11.6 11.85 4.3 13.1 0.6 6.9 L0.65 6.75 Q5.8 6.6 8.35 2.5 L9.25 0.55 Q9.7 -1.2 9.5 -2.9 Z" fill="none" stroke="#000000" stroke-linecap="round" stroke-linejoin="round" stroke-opacity="0.4" stroke-width="0.05"/>
    <path d="M-12.45 0.0 L-12.5 -1.05 14.6 -1.25 14.6 -0.15 -12.45 0.0" fill="#6b5a50" fill-rule="evenodd" stroke="none"/>
    <path d="M14.6 -0.15 L14.65 1.4 -12.45 1.55 -12.45 0.0 14.6 -0.15" fill="#000000" fill-rule="evenodd" stroke="none"/>
    <path d="M-12.45 0.0 L-12.5 -1.05 14.6 -1.25 14.6 -0.15 14.65 1.4 -12.45 1.55 -12.45 0.0 Z" fill="none" stroke="#000000" stroke-linecap="round" stroke-linejoin="round" stroke-opacity="0.4" stroke-width="0.05"/>
  </g>
</svg>
