<?xml version="1.0" encoding="UTF-8" standalone="no"?>
<svg xmlns:xlink="http://www.w3.org/1999/xlink" height="30.25px" width="20.35px" xmlns="http://www.w3.org/2000/svg">
  <g transform="matrix(1.0, 0.0, 0.0, 1.0, -2.6, -1.05)">
    <path d="M22.9 16.55 L22.9 16.7 22.95 17.5 22.95 18.05 22.45 20.25 21.55 21.45 20.7 22.5 19.4 25.55 17.8 29.2 20.8 29.5 21.05 30.0 20.9 30.55 18.6 30.85 16.05 30.75 15.65 30.15 Q15.35 29.9 15.35 29.45 16.6 26.75 17.95 24.55 L12.1 29.0 14.4 29.55 Q15.0 29.85 15.0 30.45 15.0 30.9 14.65 31.15 L14.1 31.3 Q12.65 31.3 10.8 30.6 8.85 29.8 8.85 29.0 8.85 28.45 15.2 24.5 18.95 22.2 20.5 20.25 21.35 19.15 21.5 18.25 L21.5 18.15 Q21.05 15.05 16.6 14.1 L13.2 13.35 12.6 13.05 12.25 13.1 Q11.4 13.9 9.4 13.9 L6.35 13.55 5.3 13.2 Q4.75 13.0 3.55 11.95 2.35 10.9 2.7 8.95 3.05 7.0 3.8 6.5 L4.6 6.0 Q5.45 5.65 6.35 5.45 L7.55 5.6 7.8 6.05 Q7.8 6.35 6.35 6.85 L5.95 7.2 5.85 7.35 4.7 7.6 4.3 8.4 Q4.0 9.0 4.2 9.8 L4.65 10.95 5.35 11.6 6.35 12.05 8.2 12.2 11.45 11.85 11.2 11.1 Q8.3 10.05 8.3 9.85 L10.55 9.65 10.75 9.7 Q10.85 9.45 11.15 9.5 L14.05 9.75 14.15 9.75 14.9 9.1 16.05 7.75 16.4 6.9 16.4 6.55 Q16.4 4.75 14.65 4.5 13.2 4.35 12.95 4.0 L10.95 3.65 Q10.95 2.55 14.3 2.9 17.6 3.3 17.6 6.35 L17.6 6.4 17.6 6.55 Q17.6 7.6 16.95 8.95 L16.3 9.95 Q19.35 10.55 21.25 12.95 22.9 15.1 22.9 16.55" fill="#733c2f" fill-rule="evenodd" stroke="none"/>
    <path d="M5.7 2.6 Q7.3 1.05 9.55 1.05 11.75 1.05 13.3 2.6 14.85 4.15 14.85 6.35 14.85 8.55 13.3 10.1 11.75 11.65 9.55 11.65 7.3 11.65 5.7 10.1 4.15 8.55 4.15 6.35 4.15 4.15 5.7 2.6" fill="#733c2f" fill-rule="evenodd" stroke="none"/>
    <path d="M9.15 6.3 L8.65 6.75 8.3 6.55 Q8.05 6.3 7.8 6.3 L7.25 6.8 6.75 7.25 6.45 7.0 6.4 6.75 Q6.4 6.55 6.75 6.1 7.2 5.55 7.4 5.5 8.05 5.15 8.65 5.65 9.15 6.0 9.15 6.3 M10.9 6.35 Q10.9 6.1 11.45 5.65 12.05 5.15 12.4 5.3 L12.95 5.95 13.4 6.75 13.35 7.0 13.05 7.05 12.5 6.55 12.05 5.95 11.1 6.7 10.9 6.35 M10.8 10.25 Q10.8 10.75 10.25 10.75 9.6 10.75 9.6 9.95 9.6 9.35 10.2 9.35 10.8 9.35 10.8 10.25" fill="#fcf9e0" fill-rule="evenodd" stroke="none"/>
  </g>
</svg>
