<?xml version="1.0" encoding="UTF-8" standalone="no"?>
<svg xmlns:xlink="http://www.w3.org/1999/xlink" height="34.0px" width="34.0px" xmlns="http://www.w3.org/2000/svg">
  <g transform="matrix(1.0, 0.0, 0.0, 1.0, 1.0, 1.0)">
    <path d="M30.55 7.75 L30.6 7.95 30.6 9.4 30.55 9.7 30.3 9.9 30.0 9.9 24.9 8.85 20.15 10.75 19.85 10.75 19.55 10.55 19.45 10.25 19.45 8.8 19.6 8.5 21.2 6.5 20.45 5.75 20.3 5.4 20.3 3.95 20.4 3.7 20.6 3.5 20.9 3.45 24.4 4.05 27.3 3.15 27.6 3.15 27.85 3.3 27.95 3.6 27.95 5.05 27.9 5.25 27.75 5.65 30.4 7.55 30.55 7.75 M4.05 17.1 L4.15 16.85 4.3 16.7 4.55 16.6 9.1 16.7 11.75 15.35 12.05 15.3 12.35 15.45 12.45 15.75 12.65 17.4 17.3 19.25 17.55 19.45 17.6 19.7 17.6 21.15 17.55 21.4 17.35 21.6 17.1 21.65 11.35 21.5 6.8 24.75 6.45 24.85 6.15 24.7 6.0 24.35 6.0 22.9 6.05 22.8 6.75 20.35 4.3 19.0 4.15 18.8 4.05 18.55 4.05 17.1" fill="#733c2f" fill-rule="evenodd" stroke="none"/>
    <path d="M25.5 6.0 L24.7 6.25 23.8 6.05 23.55 5.85 23.45 5.65 Q23.4 5.35 23.7 5.2 24.0 4.95 24.45 4.95 L25.25 5.1 25.7 5.5 25.7 5.6 25.5 6.0 M27.1 5.8 L26.6 5.45 26.7 5.3 27.45 3.6 27.45 5.05 27.1 5.8 M20.8 3.95 L22.5 5.7 21.85 6.5 20.8 5.4 20.8 3.95 M19.95 8.8 L21.75 8.1 24.85 6.85 27.25 7.35 30.1 7.95 30.1 9.4 24.85 8.3 19.95 10.25 19.95 8.8 M9.55 17.65 Q10.05 17.5 10.5 17.65 L10.95 17.8 11.25 18.0 11.35 18.5 10.6 18.95 9.5 18.95 8.85 18.65 8.75 18.55 Q8.6 18.3 8.8 18.0 9.05 17.75 9.55 17.65 M7.3 20.05 L4.55 18.55 4.55 17.1 7.3 18.6 7.65 18.8 7.3 20.05 M17.1 19.7 L17.1 21.15 11.2 21.0 6.5 24.35 6.5 22.9 7.0 22.55 11.2 19.55 13.2 19.6 17.1 19.7" fill="#733c2f" fill-rule="evenodd" stroke="none"/>
    <path d="M25.5 6.0 L25.7 5.6 25.7 5.5 25.25 5.1 24.45 4.95 Q24.0 4.95 23.7 5.2 23.4 5.35 23.45 5.65 L23.55 5.85 23.8 6.05 24.7 6.25 25.5 6.0 M27.45 3.6 L26.7 5.3 26.6 5.45 27.1 5.8 30.1 7.95 27.25 7.35 24.85 6.85 21.75 8.1 19.95 8.8 21.85 6.5 22.5 5.7 20.8 3.95 24.4 4.55 27.45 3.6 M9.55 17.65 Q9.05 17.75 8.8 18.0 8.6 18.3 8.75 18.55 L8.85 18.65 9.5 18.95 10.6 18.95 11.35 18.5 11.25 18.0 10.95 17.8 10.5 17.65 Q10.05 17.5 9.55 17.65 M7.3 20.05 L7.65 18.8 7.3 18.6 4.55 17.1 9.2 17.2 11.95 15.8 12.15 17.75 17.1 19.7 13.2 19.6 11.2 19.55 7.0 22.55 6.5 22.9 7.3 20.05" fill="#fcf9e0" fill-rule="evenodd" stroke="none"/>
    <path d="M0.0 0.0 L32.0 0.0 32.0 32.0 0.0 32.0 0.0 0.0 Z" fill="none" stroke="#733c2f" stroke-linecap="round" stroke-linejoin="round" stroke-width="2.0"/>
  </g>
</svg>
