<?xml version="1.0" encoding="UTF-8" standalone="no"?>
<svg xmlns:xlink="http://www.w3.org/1999/xlink" height="9.0px" width="50.05px" xmlns="http://www.w3.org/2000/svg">
  <g transform="matrix(1.0, 0.0, 0.0, 1.0, 26.0, 4.2)">
    <path d="M-12.35 -2.7 L17.65 -2.65 24.05 0.4 23.9 0.6 -12.3 0.35 -12.35 -2.7" fill="#e0e8eb" fill-rule="evenodd" stroke="none"/>
    <path d="M23.9 0.6 L21.7 3.6 -12.35 3.6 -12.3 0.35 23.9 0.6" fill="#b8c9cf" fill-rule="evenodd" stroke="none"/>
    <path d="M-26.0 0.15 L-26.0 -2.4 -15.2 -2.5 -15.2 -4.2 -12.3 -4.15 -12.35 -2.7 -12.3 0.35 -26.0 0.15" fill="#725327" fill-rule="evenodd" stroke="none"/>
    <path d="M-12.35 3.6 L-12.35 4.8 -15.1 4.8 -15.1 3.2 -25.9 2.9 -26.0 0.15 -12.3 0.35 -12.35 3.6" fill="#000000" fill-rule="evenodd" stroke="none"/>
    <path d="M23.9 0.6 L21.7 3.6 -12.35 3.6 -12.35 4.8 -15.1 4.8 -15.1 3.2 -25.9 2.9 -26.0 0.15 -26.0 -2.4 -15.2 -2.5 -15.2 -4.2 -12.3 -4.15 -12.35 -2.7 17.65 -2.65 24.05 0.4 23.9 0.6 M-12.3 0.35 L-12.35 3.6 M-12.3 0.35 L-12.35 -2.7 M-26.0 0.15 L-12.3 0.35" fill="none" stroke="#000000" stroke-linecap="round" stroke-linejoin="round" stroke-opacity="0.4" stroke-width="0.05"/>
  </g>
</svg>
