<?xml version="1.0" encoding="UTF-8" standalone="no"?>
<svg xmlns:xlink="http://www.w3.org/1999/xlink" height="33.9px" width="33.05px" xmlns="http://www.w3.org/2000/svg">
  <g transform="matrix(1.0, 0.0, 0.0, 1.0, 0.25, 0.55)">
    <path d="M21.05 -0.55 L32.8 15.5 -0.25 20.45 -0.25 10.85 32.8 15.5 4.6 -0.55 21.05 -0.55 M25.4 -0.55 L32.8 15.5 26.85 -0.55 29.6 -0.55 32.8 15.5 23.35 -0.55 25.4 -0.55 M32.8 15.55 L28.55 33.35 27.45 33.35 32.8 15.55 24.7 33.35 21.9 33.35 32.8 15.55 13.95 33.35 -0.25 33.35 -0.25 31.0 32.8 15.55" fill="#fcf9e0" fill-rule="evenodd" stroke="none"/>
    <path d="M7.45 14.15 L7.45 14.1 8.7 12.9 10.95 10.9 14.3 12.5 12.0 14.25 12.7 16.45 13.5 19.15 13.85 21.2 14.05 22.6 14.05 24.0 13.75 32.35 10.1 32.35 11.15 30.35 11.25 28.05 11.15 26.8 9.55 26.55 8.15 32.35 2.7 32.35 4.6 29.7 5.6 27.25 6.7 24.25 Q6.4 23.7 7.05 21.35 7.65 19.0 6.0 16.2 L5.9 16.05 6.35 15.55 7.45 14.15" fill="#733c2f" fill-rule="evenodd" stroke="none"/>
    <path d="M8.75 15.45 Q8.45 16.5 8.8 16.7 L9.2 17.0 11.05 19.95 3.75 19.6 Q2.9 18.35 4.8 15.9 5.5 13.85 7.35 13.8 9.2 13.8 8.75 15.45" fill="#733c2f" fill-rule="evenodd" stroke="none"/>
  </g>
</svg>
