<?xml version="1.0" encoding="UTF-8" standalone="no"?>
<svg xmlns:xlink="http://www.w3.org/1999/xlink" height="27.35px" width="74.05px" xmlns="http://www.w3.org/2000/svg">
  <g transform="matrix(1.0, 0.0, 0.0, 1.0, 36.95, 13.65)">
    <use height="27.35" transform="matrix(1.0, 0.0, 0.0, 1.0, -36.95, -13.65)" width="74.05" xlink:href="#shape0"/>
    <use height="37.85" transform="matrix(0.0, 1.0, -1.0, 0.0, 34.55, -5.4)" width="18.0" xlink:href="#sprite0"/>
  </g>
  <defs>
    <g id="shape0" transform="matrix(1.0, 0.0, 0.0, 1.0, 36.95, 13.65)">
      <path d="M-21.5 -0.05 L-16.05 0.15 -10.5 0.2 1.8 -1.1 Q10.35 -2.1 14.2 -3.7 14.75 -3.85 16.75 -5.15 L19.6 -8.6 Q21.95 -11.95 24.8 -13.1 27.5 -14.25 31.4 -13.0 34.1 -12.2 35.5 -10.7 L33.95 -7.9 33.15 -6.95 Q30.4 -4.9 27.25 -4.1 L22.6 -4.25 22.25 -4.3 22.65 -2.35 25.65 -0.35 26.6 0.05 27.4 0.75 Q27.85 1.35 27.85 2.7 27.85 3.1 26.9 4.0 25.7 5.05 24.35 5.05 22.75 5.05 20.7 3.4 L19.85 2.7 Q18.5 1.25 16.4 1.0 L13.45 0.8 5.6 1.6 0.6 2.15 -6.2 2.4 -16.05 1.9 -19.4 1.75 -23.75 1.95 -28.4 2.2 -36.95 1.1 -36.4 0.15 Q-35.15 -1.7 -33.05 -0.95 L-32.65 -0.8 -31.7 0.1 -31.45 0.2 -31.25 0.0 Q-29.7 -2.55 -32.3 -4.45 -31.75 -5.75 -31.0 -5.75 -29.1 -5.15 -28.15 -3.35 -27.55 -2.15 -27.7 -0.9 L-21.5 -0.1 -21.5 -0.05 M21.5 5.4 L21.35 5.1 21.5 5.35 21.5 5.4" fill="#ffffcc" fill-rule="evenodd" stroke="none"/>
      <path d="M-32.3 -4.45 Q-29.7 -2.55 -31.25 0.0 L-31.45 0.2 -31.7 0.1 -32.65 -0.8 -33.05 -0.95 -32.7 -3.25 -32.3 -4.45 M-36.95 1.1 L-28.4 2.2 -23.75 1.95 -19.4 1.75 -16.05 1.9 -6.2 2.4 0.6 2.15 5.6 1.6 13.45 0.8 16.4 1.0 Q18.5 1.25 19.85 2.7 L20.7 3.4 Q22.75 5.05 24.35 5.05 25.7 5.05 26.9 4.0 27.85 3.1 27.85 2.7 27.85 1.35 27.4 0.75 L26.6 0.05 25.65 -0.35 22.65 -2.35 22.25 -4.3 22.6 -4.25 27.25 -4.1 Q30.4 -4.9 33.15 -6.95 L33.95 -7.9 35.5 -10.7 Q37.7 -8.45 36.9 -5.25 L36.55 -4.2 Q35.7 -2.55 33.75 -1.75 L31.65 -0.5 31.1 -0.05 Q30.65 0.55 30.95 1.5 L31.4 3.2 31.75 5.5 Q32.0 7.05 31.45 8.45 30.85 10.05 29.6 11.2 L26.25 13.15 Q24.45 14.0 22.65 13.55 21.15 13.3 20.2 12.25 18.0 9.8 15.55 8.1 14.2 7.3 12.55 6.8 L10.0 6.55 3.5 5.75 -2.2 5.3 -8.4 4.95 -14.9 4.85 -16.05 4.8 -24.9 4.25 -28.75 4.6 -33.65 4.4 Q-35.55 3.7 -36.45 2.2 L-36.95 1.1 M21.5 5.4 L21.5 5.35 21.35 5.1 21.5 5.4" fill="#cbb492" fill-rule="evenodd" stroke="none"/>
      <path d="M35.5 -10.7 Q34.1 -12.2 31.4 -13.0 27.5 -14.25 24.8 -13.1 21.95 -11.95 19.6 -8.6 L16.75 -5.15 Q14.75 -3.85 14.2 -3.7 10.35 -2.1 1.8 -1.1 L-10.5 0.2 -16.05 0.15 -21.5 -0.05 M-21.5 -0.1 L-27.7 -0.9 Q-27.55 -2.15 -28.15 -3.35 -29.1 -5.15 -31.0 -5.75 -31.75 -5.75 -32.3 -4.45 M-33.05 -0.95 Q-35.15 -1.7 -36.4 0.15 L-36.95 1.1 M35.5 -10.7 Q37.7 -8.45 36.9 -5.25 L36.55 -4.2 Q35.7 -2.55 33.75 -1.75 L31.65 -0.5 31.1 -0.05 Q30.65 0.55 30.95 1.5 L31.4 3.2 31.75 5.5 Q32.0 7.05 31.45 8.45 30.85 10.05 29.6 11.2 L26.25 13.15 Q24.45 14.0 22.65 13.55 21.15 13.3 20.2 12.25 18.0 9.8 15.55 8.1 14.2 7.3 12.55 6.8 L10.0 6.55 3.5 5.75 -2.2 5.3 -8.4 4.95 -14.9 4.85 -16.05 4.8 -24.9 4.25 -28.75 4.6 -33.65 4.4 Q-35.55 3.7 -36.45 2.2 L-36.95 1.1 M-33.05 -0.95 L-32.7 -3.25 -32.3 -4.45" fill="none" stroke="#000000" stroke-linecap="round" stroke-linejoin="round" stroke-opacity="0.4" stroke-width="0.05"/>
    </g>
    <g id="sprite0" transform="matrix(1.0, 0.0, 0.0, 1.0, 88.8, 28.0)">
      <use height="37.85" transform="matrix(1.0, 0.0, 0.0, 1.0, -88.8, -28.0)" width="18.0" xlink:href="#shape1"/>
    </g>
    <g id="shape1" transform="matrix(1.0, 0.0, 0.0, 1.0, 88.8, 28.0)">
      <path d="M-73.2 -22.4 Q-70.8 -20.6 -70.8 -17.85 -70.8 -16.85 -71.65 -16.45 L-72.5 -16.25 -74.65 -16.6 Q-75.2 -16.95 -76.0 -18.35 -77.4 -20.9 -77.25 -22.35 -77.1 -23.65 -75.75 -23.65 -74.9 -23.65 -73.2 -22.4" fill="#ffd633" fill-opacity="0.5019608" fill-rule="evenodd" stroke="none"/>
      <path d="M-86.1 -27.0 Q-85.1 -25.85 -85.1 -24.4 -85.1 -23.5 -85.6 -23.15 -85.85 -23.0 -86.15 -23.0 -87.85 -23.0 -88.6 -25.5 -89.3 -28.0 -87.75 -28.0 -86.95 -28.0 -86.1 -27.0 M-77.65 -6.55 Q-77.3 -4.45 -78.15 -2.65 L-78.9 -1.3 -79.4 8.85 -79.6 9.85 Q-80.55 4.7 -80.2 -0.3 -80.0 -2.95 -80.2 -5.25 L-80.5 -7.25 -80.35 -7.5 -79.15 -7.75 -77.65 -6.55" fill="#ffd633" fill-opacity="0.2" fill-rule="evenodd" stroke="none"/>
    </g>
  </defs>
</svg>
