<?xml version="1.0" encoding="UTF-8" standalone="no"?>
<svg xmlns:xlink="http://www.w3.org/1999/xlink" height="18.8px" width="18.45px" xmlns="http://www.w3.org/2000/svg">
  <g transform="matrix(1.0, 0.0, 0.0, 1.0, 8.75, 6.35)">
    <use height="18.8" transform="matrix(1.0, 0.0, 0.0, 1.0, -8.75, -6.35)" width="18.45" xlink:href="#shape0"/>
  </g>
  <defs>
    <g id="shape0" transform="matrix(1.0, 0.0, 0.0, 1.0, 8.75, 6.35)">
      <path d="M8.2 -0.95 Q8.1 -4.6 3.8 -4.6 0.75 -4.6 -3.65 -1.85 -7.8 0.8 -8.75 3.5 L-8.65 1.4 -8.25 0.65 Q-6.15 -3.05 -1.7 -4.8 2.45 -6.55 6.95 -6.3 8.75 -5.5 8.75 -4.05 8.8 -2.8 8.2 -0.95" fill="#ffffff" fill-rule="evenodd" stroke="none"/>
      <path d="M7.55 0.85 L6.95 -0.5 Q6.5 -1.55 5.1 -2.35 3.65 -3.15 0.45 -1.8 -2.75 -0.45 -4.7 1.15 -6.65 2.75 -6.6 4.85 L-6.6 5.35 -6.2 6.2 -6.1 6.35 Q-7.3 6.45 -8.25 5.35 L-8.7 4.7 -8.75 3.5 Q-7.8 0.8 -3.65 -1.85 0.75 -4.6 3.8 -4.6 8.1 -4.6 8.2 -0.95 L7.55 0.85 M7.45 2.8 L7.95 3.8 8.25 5.15 7.05 5.2 6.2 2.4 Q6.8 2.1 7.45 2.8 M4.35 2.8 L5.35 5.95 4.15 6.2 2.7 2.6 4.35 2.8 M5.9 9.8 L6.5 12.05 5.45 12.45 4.45 9.45 5.8 9.45 5.9 9.8 M9.25 9.1 L9.7 11.55 8.8 11.55 8.15 9.1 9.25 9.1" fill="#d1b6b6" fill-rule="evenodd" stroke="none"/>
      <path d="M7.55 0.85 L8.2 -0.95 Q8.8 -2.8 8.75 -4.05 8.75 -5.5 6.95 -6.3 2.45 -6.55 -1.7 -4.8 -6.15 -3.05 -8.25 0.65 L-8.65 1.4 -8.75 3.5 -8.7 4.7 -8.25 5.35 Q-7.3 6.45 -6.1 6.35 L-6.2 6.2 M7.45 2.8 L7.95 3.8 8.25 5.15 7.05 5.2 6.2 2.4 Q6.8 2.1 7.45 2.8 M4.35 2.8 L5.35 5.95 4.15 6.2 2.7 2.6 4.35 2.8 M5.9 9.8 L6.5 12.05 5.45 12.45 4.45 9.45 5.8 9.45 5.9 9.8 M9.25 9.1 L9.7 11.55 8.8 11.55 8.15 9.1 9.25 9.1" fill="none" stroke="#000000" stroke-linecap="round" stroke-linejoin="round" stroke-opacity="0.3019608" stroke-width="0.05"/>
    </g>
  </defs>
</svg>
