<?xml version="1.0" encoding="UTF-8" standalone="no"?>
<svg xmlns:xlink="http://www.w3.org/1999/xlink" height="41.15px" width="47.4px" xmlns="http://www.w3.org/2000/svg">
  <g transform="matrix(1.0, 0.0, 0.0, 1.0, 23.7, 20.8)">
    <use height="41.15" transform="matrix(1.0, 0.0, 0.0, 1.0, -23.7, -20.8)" width="47.4" xlink:href="#shape0"/>
  </g>
  <defs>
    <g id="shape0" transform="matrix(1.0, 0.0, 0.0, 1.0, 23.7, 20.8)">
      <path d="M5.1 -19.3 L6.45 -18.8 Q7.65 -18.3 11.25 -14.35 L11.3 -14.3 Q16.55 -12.85 19.2 -4.1 21.95 5.1 17.8 12.15 L23.6 6.45 23.7 6.55 21.05 10.6 Q18.8 13.8 16.35 15.7 L16.55 15.7 19.3 14.75 Q22.0 13.7 22.55 13.15 L22.55 14.7 15.65 17.5 Q11.35 19.25 9.85 19.5 L9.2 19.75 5.7 20.3 5.6 20.35 1.3 20.35 -1.9 19.15 -5.85 17.05 -6.9 16.25 Q-9.0 15.0 -14.1 12.85 L-14.0 12.6 -13.5 12.6 Q-3.85 12.6 2.15 5.7 6.65 0.55 6.65 -3.7 6.65 -5.5 5.8 -9.0 L6.95 -8.2 7.55 -8.7 Q8.05 -9.05 8.05 -11.35 8.05 -14.0 6.3 -17.2 L5.1 -19.3 M11.3 -14.3 Q11.8 -14.15 13.65 -11.1 15.6 -7.95 15.6 -2.5 15.6 1.4 14.25 4.95 14.35 -2.0 8.4 -7.05 L6.95 -8.2 8.4 -7.05 Q14.35 -2.0 14.25 4.95 15.6 1.4 15.6 -2.5 15.6 -7.95 13.65 -11.1 11.8 -14.15 11.3 -14.3 M5.8 -9.0 L5.75 -9.1 5.8 -9.0 M2.85 -4.8 L1.5 -2.75 0.35 -1.6 3.1 -0.9 -0.2 -0.3 -2.0 0.2 Q-3.35 0.6 -3.75 1.0 L-3.35 0.2 Q-4.1 0.1 -5.25 -0.6 L-2.8 -1.25 -1.65 -1.7 Q1.15 -2.8 2.85 -4.8 M-3.75 -2.55 Q-4.3 -2.2 -5.5 -1.85 L-4.05 -3.6 -3.65 -4.2 Q-2.75 -5.6 -2.2 -6.9 L-1.65 -7.5 -2.6 -5.45 -3.6 -2.9 -3.65 -2.85 -3.75 -2.55 M14.25 4.95 Q13.6 7.25 8.4 12.2 3.2 17.05 -6.9 16.25 3.2 17.05 8.4 12.2 13.6 7.25 14.25 4.95 M9.85 19.5 Q11.9 18.7 13.6 17.15 16.2 14.8 17.8 12.15 16.2 14.8 13.6 17.15 11.9 18.7 9.85 19.5 M0.35 -1.6 Q-0.95 -0.65 -2.15 -0.15 L-2.95 0.15 -3.35 0.2 -2.95 0.15 -2.15 -0.15 Q-0.95 -0.65 0.35 -1.6" fill="#d6baba" fill-rule="evenodd" stroke="none"/>
      <path d="M-14.1 12.85 L-14.85 12.5 Q-16.7 11.45 -19.95 8.45 L-22.35 6.15 -23.7 4.45 Q-23.7 3.4 -23.25 3.65 L-22.6 4.0 Q-23.5 -1.4 -20.3 -5.95 -20.4 -11.1 -16.95 -14.55 L-14.0 -17.05 -14.85 -17.6 -16.45 -19.2 Q-16.25 -19.25 -15.8 -19.85 L-15.4 -20.6 Q-15.35 -20.1 -14.25 -19.4 -12.95 -18.65 -11.5 -18.65 -4.65 -22.3 3.65 -19.8 L5.1 -19.3 6.3 -17.2 Q8.05 -14.0 8.05 -11.35 8.05 -9.05 7.55 -8.7 L6.95 -8.2 5.8 -9.0 Q6.65 -5.5 6.65 -3.7 6.65 0.55 2.15 5.7 -3.85 12.6 -13.5 12.6 L-14.0 12.6 -14.1 12.85 M5.8 -9.0 L5.75 -9.1 5.8 -9.0 5.15 -9.4 Q0.2 -12.55 -5.25 -12.6 -12.5 -12.75 -14.2 -11.45 -15.95 -10.2 -20.3 -5.95 -15.95 -10.2 -14.2 -11.45 -12.5 -12.75 -5.25 -12.6 0.2 -12.55 5.15 -9.4 L5.8 -9.0 M0.35 -1.6 L1.5 -2.75 2.85 -4.8 Q1.15 -2.8 -1.65 -1.7 L-2.8 -1.25 -5.25 -0.6 Q-4.1 0.1 -3.35 0.2 L-3.75 1.0 Q-3.35 0.6 -2.0 0.2 L-0.2 -0.3 3.1 -0.9 0.35 -1.6 M-3.75 -2.55 L-3.8 -2.45 -3.5 -2.55 Q1.55 -4.15 2.85 -4.85 L2.85 -4.8 2.85 -4.85 Q1.55 -4.15 -3.5 -2.55 L-3.8 -2.45 -3.75 -2.55 -3.65 -2.85 -3.6 -2.9 -2.6 -5.45 -1.65 -7.5 -2.2 -6.9 Q-2.75 -5.6 -3.65 -4.2 L-4.05 -3.6 -5.5 -1.85 Q-4.3 -2.2 -3.75 -2.55 M-8.55 -1.4 Q-7.2 -2.25 -5.85 -3.4 L-3.95 -5.05 -2.2 -6.9 -3.95 -5.05 -5.85 -3.4 Q-7.2 -2.25 -8.55 -1.4 M-11.45 -16.65 Q-12.75 -16.4 -14.0 -17.05 -12.75 -16.4 -11.45 -16.65 M-11.5 -18.65 L-10.35 -18.65 -9.5 -19.0 -10.35 -18.65 -11.5 -18.65 M-1.35 -7.85 L-1.35 -8.0 -1.65 -7.5 -1.35 -7.85 M-22.6 4.0 L-22.35 6.15 -22.6 4.0" fill="#ffffff" fill-rule="evenodd" stroke="none"/>
      <path d="M5.1 -19.3 L6.45 -18.8 Q7.65 -18.3 11.25 -14.35 L11.3 -14.3 Q16.55 -12.85 19.2 -4.1 21.95 5.1 17.8 12.15 L23.6 6.45 23.7 6.35 23.7 6.55 21.05 10.6 Q18.8 13.8 16.35 15.7 L16.55 15.7 19.3 14.75 Q22.0 13.7 22.55 13.15 L22.55 14.7 15.65 17.5 Q11.35 19.25 9.85 19.5 L9.2 19.75 5.7 20.3 M-22.6 4.0 Q-23.5 -1.4 -20.3 -5.95 -20.4 -11.1 -16.95 -14.55 L-14.0 -17.05 -14.85 -17.6 -16.45 -19.2 Q-16.25 -19.25 -15.8 -19.85 L-15.4 -20.6 Q-15.35 -20.1 -14.25 -19.4 -12.95 -18.65 -11.5 -18.65 -4.65 -22.3 3.65 -19.8 L5.1 -19.3 M6.95 -8.2 L8.4 -7.05 Q14.35 -2.0 14.25 4.95 15.6 1.4 15.6 -2.5 15.6 -7.95 13.65 -11.1 11.8 -14.15 11.3 -14.3 M6.95 -8.2 L5.8 -9.0 5.15 -9.4 Q0.2 -12.55 -5.25 -12.6 -12.5 -12.75 -14.2 -11.45 -15.95 -10.2 -20.3 -5.95 M2.85 -4.8 L1.5 -2.75 0.35 -1.6 M2.85 -4.8 L2.85 -4.85 Q1.55 -4.15 -3.5 -2.55 L-3.8 -2.45 -3.75 -2.55 -3.65 -2.85 -3.6 -2.9 -2.6 -5.45 -1.65 -7.5 -2.2 -6.9 -3.95 -5.05 -5.85 -3.4 Q-7.2 -2.25 -8.55 -1.4 M17.8 12.15 Q16.2 14.8 13.6 17.15 11.9 18.7 9.85 19.5 M-6.9 16.25 Q3.2 17.05 8.4 12.2 13.6 7.25 14.25 4.95 M-9.5 -19.0 L-10.35 -18.65 -11.5 -18.65 M-14.0 -17.05 Q-12.75 -16.4 -11.45 -16.65 M-3.35 0.2 L-2.95 0.15 -2.15 -0.15 Q-0.95 -0.65 0.35 -1.6 M-22.35 6.15 L-22.6 4.0" fill="none" stroke="#000000" stroke-linecap="round" stroke-linejoin="round" stroke-opacity="0.3019608" stroke-width="0.05"/>
    </g>
  </defs>
</svg>
