<?xml version="1.0" encoding="UTF-8" standalone="no"?>
<svg xmlns:xlink="http://www.w3.org/1999/xlink" height="38.0px" width="61.3px" xmlns="http://www.w3.org/2000/svg">
  <g transform="matrix(1.0, 0.0, 0.0, 1.0, 33.4, 19.15)">
    <use height="38.0" transform="matrix(1.0, 0.0, 0.0, 1.0, -33.4, -19.15)" width="61.3" xlink:href="#shape0"/>
  </g>
  <defs>
    <g id="shape0" transform="matrix(1.0, 0.0, 0.0, 1.0, 33.4, 19.15)">
      <path d="M-10.1 -12.3 L-7.35 -12.5 Q-3.1 -13.05 1.85 -14.7 L6.1 -17.7 7.4 -16.75 11.2 -13.4 Q12.95 -11.6 14.2 -9.6 17.15 -5.45 18.85 -1.45 19.4 -0.05 25.35 9.5 L27.9 13.55 22.05 13.15 22.7 15.5 14.05 14.85 12.1 18.25 5.8 17.45 4.7 14.8 4.1 13.4 0.45 5.2 0.35 5.25 1.05 10.3 Q1.8 14.9 1.6 16.55 L1.55 16.85 1.5 16.8 -0.7 16.55 -4.8 18.85 -6.2 8.4 -6.25 8.0 -7.75 -0.45 -8.9 -5.7 -9.1 -6.75 -10.1 -12.3 M1.7 -5.75 Q4.65 2.25 6.95 7.35 L7.65 8.9 12.1 18.25 7.65 8.9 6.95 7.35 Q4.65 2.25 1.7 -5.75 M8.4 -8.15 L19.1 9.25 22.7 15.5 19.1 9.25 8.4 -8.15 M-30.75 10.2 L-29.4 7.6 -28.95 6.75 -28.25 5.25 Q-27.35 2.8 -26.85 -1.35 -26.45 -4.3 -26.4 -6.2 L-26.1 -2.95 Q-25.7 0.95 -26.05 3.55 L-26.55 6.6 -26.95 8.4 -27.25 9.8 -30.75 10.2 M-21.35 14.65 L-18.9 7.95 -18.0 3.1 Q-17.85 2.2 -17.85 -1.0 L-17.75 -5.3 -17.45 -7.3 Q-16.05 5.2 -15.65 11.05 L-15.45 15.1 -21.35 14.65 M-13.0 6.05 L-13.05 6.05 -13.05 6.0 -13.0 6.05" fill="#d6baba" fill-rule="evenodd" stroke="none"/>
      <path d="M-10.1 -12.3 L-9.1 -6.75 -8.9 -5.7 -7.75 -0.45 -6.25 8.0 -6.2 8.4 -4.8 18.85 -14.3 15.2 -15.45 15.1 -15.65 11.05 Q-16.05 5.2 -17.45 -7.3 L-17.75 -5.3 -17.85 -1.0 Q-17.85 2.2 -18.0 3.1 L-18.9 7.95 -21.35 14.65 -26.55 9.65 -27.25 9.8 -26.95 8.4 -26.55 6.6 -26.05 3.55 Q-25.7 0.95 -26.1 -2.95 L-26.4 -6.2 Q-26.45 -4.3 -26.85 -1.35 -27.35 2.8 -28.25 5.25 L-28.95 6.75 -29.4 7.6 -30.75 10.2 -32.7 8.75 Q-33.5 8.15 -33.4 7.45 L-33.35 7.4 -33.2 7.25 -33.0 7.05 -32.5 6.25 -31.9 5.25 -31.65 4.95 -31.4 4.45 -30.8 3.25 -30.7 2.95 -29.95 0.8 Q-29.75 0.1 -29.7 -1.1 L-29.65 -2.55 -29.55 -4.4 -29.5 -6.0 -29.6 -8.7 -29.75 -11.2 -29.7 -12.45 Q-29.5 -15.1 -28.2 -17.6 L-27.3 -19.15 Q-26.55 -17.55 -25.1 -16.45 -20.75 -13.25 -16.15 -12.9 L-12.7 -12.4 -10.1 -12.3 M1.55 16.85 L1.6 16.55 Q1.8 14.9 1.05 10.3 L0.35 5.25 0.45 5.2 4.1 13.4 4.7 14.8 5.8 17.45 1.55 16.85 M-26.65 -8.85 Q-26.45 -8.2 -26.4 -6.2 -26.45 -8.2 -26.65 -8.85 M-13.0 6.05 L-13.05 6.0 -13.05 6.05 -13.0 6.05" fill="#ffffff" fill-rule="evenodd" stroke="none"/>
      <path d="M-8.9 -5.7 L-7.75 -0.45 -6.25 8.0 -6.2 8.4 -4.8 18.85 -0.7 16.55 1.5 16.8 M5.8 17.45 L12.1 18.25 7.65 8.9 6.95 7.35 Q4.65 2.25 1.7 -5.75 M22.7 15.5 L22.05 13.15 27.9 13.55 25.35 9.5 Q19.4 -0.05 18.85 -1.45 17.15 -5.45 14.2 -9.6 12.95 -11.6 11.2 -13.4 L7.4 -16.75 6.1 -17.7 M1.55 16.85 L5.8 17.45 M12.1 18.25 L14.05 14.85 22.7 15.5 19.1 9.25 8.4 -8.15 M-27.3 -19.15 L-28.2 -17.6 Q-29.5 -15.1 -29.7 -12.45 L-29.75 -11.2 -29.6 -8.7 -29.5 -6.0 -29.55 -4.4 -29.65 -2.55 -29.7 -1.1 Q-29.75 0.1 -29.95 0.8 L-30.7 2.95 -30.8 3.25 -31.4 4.45 -31.65 4.95 -31.9 5.25 -32.5 6.25 -33.0 7.05 -33.2 7.25 -33.35 7.4 -33.4 7.45 Q-33.5 8.15 -32.7 8.75 L-30.75 10.2 -29.4 7.6 -28.95 6.75 -28.25 5.25 Q-27.35 2.8 -26.85 -1.35 -26.45 -4.3 -26.4 -6.2 -26.45 -8.2 -26.65 -8.85 M-27.25 9.8 L-26.55 9.65 -21.35 14.65 -18.9 7.95 -18.0 3.1 Q-17.85 2.2 -17.85 -1.0 L-17.75 -5.3 -17.45 -7.3 M-15.45 15.1 L-14.3 15.2 -4.8 18.85 M-30.75 10.2 L-27.25 9.8 M-21.35 14.65 L-15.45 15.1" fill="none" stroke="#000000" stroke-linecap="round" stroke-linejoin="round" stroke-opacity="0.3019608" stroke-width="0.05"/>
    </g>
  </defs>
</svg>
