<?xml version="1.0" encoding="UTF-8" standalone="no"?>
<svg xmlns:xlink="http://www.w3.org/1999/xlink" height="18.15px" width="36.3px" xmlns="http://www.w3.org/2000/svg">
  <g transform="matrix(1.0, 0.0, 0.0, 1.0, 17.85, 9.1)">
    <use height="18.15" transform="matrix(1.0, 0.0, 0.0, 1.0, -17.85, -9.1)" width="36.3" xlink:href="#shape0"/>
  </g>
  <defs>
    <g id="shape0" transform="matrix(1.0, 0.0, 0.0, 1.0, 17.85, 9.1)">
      <path d="M-16.7 0.65 Q-16.95 0.4 -17.0 -0.2 L-17.2 -1.45 Q-17.35 -3.0 -16.5 -3.95 L-17.7 -3.55 Q-18.0 -4.05 -17.7 -4.8 L-17.8 -5.05 -14.95 -5.5 -15.05 -5.6 -15.8 -5.95 -15.8 -6.05 -14.15 -6.3 -12.85 -6.05 -12.8 -6.05 -12.85 -6.1 Q-13.2 -6.2 -13.25 -6.85 L-12.35 -6.25 -11.55 -5.55 -11.65 -5.4 -11.7 -5.05 -11.75 -4.05 -11.6 -3.7 -11.7 -3.55 -11.65 -3.55 -11.75 -3.5 -12.1 -3.0 -11.45 -1.2 -11.55 -1.05 -11.45 -0.85 -11.4 -0.9 -10.65 -1.2 Q-10.8 -1.0 -10.15 0.15 -9.5 1.3 -9.1 1.35 L-8.75 1.0 -8.45 0.85 -8.1 1.7 -8.0 2.3 -7.9 2.25 -7.2 1.1 -6.5 -0.2 -6.5 -0.55 -6.6 -0.8 Q-5.9 -0.65 -4.8 0.6 L-4.8 0.55 -3.05 -1.05 Q-1.15 -2.3 -0.1 -2.55 L-0.05 -2.25 -0.05 -1.9 -0.05 -1.75 -0.25 -1.55 -0.15 -1.4 0.4 -2.0 1.65 -2.9 Q2.4 -3.55 3.55 -5.5 L3.65 -5.55 3.9 -3.95 4.0 -3.6 Q4.75 -4.7 5.85 -5.35 L5.65 -4.7 5.4 -3.05 4.75 -1.95 4.0 -0.8 3.85 -0.65 3.95 -2.05 3.95 -2.1 3.9 -2.15 3.85 -2.0 Q3.85 -1.6 2.0 -0.3 0.1 1.0 0.1 1.55 L-0.05 1.8 -0.05 1.9 -0.1 1.8 -0.05 1.8 0.0 1.3 0.15 0.55 0.25 0.4 0.2 0.25 -4.0 4.8 -4.0 4.45 -3.65 2.8 -3.55 2.7 -5.9 4.35 -7.3 4.9 -8.35 5.45 -8.4 5.35 -8.2 5.05 -8.25 5.0 Q-8.25 4.45 -7.7 4.15 L-7.75 4.05 -7.85 4.05 -7.8 4.15 -8.75 4.9 -9.95 6.05 -10.05 6.1 -10.55 4.75 -10.75 4.75 -10.7 4.85 -11.85 4.7 -14.55 3.15 -14.55 3.0 -13.65 3.3 -13.05 3.4 -12.95 3.4 -12.8 3.4 -15.65 0.9 -15.65 0.8 -15.85 0.3 -16.0 -0.2 -16.1 -0.15 -16.35 0.3 -16.65 0.7 -16.7 0.65" fill="#ffffff" fill-rule="evenodd" stroke="none"/>
      <path d="M5.85 -5.35 L6.55 -5.7 7.8 -6.1 8.15 -6.1 7.75 -5.45 7.75 -5.4 8.0 -5.4 Q11.75 -6.15 12.9 -7.35 L12.95 -7.15 12.8 -6.65 12.6 -6.1 12.7 -6.1 12.8 -6.3 13.7 -7.2 13.15 -8.5 14.0 -8.85 15.05 -9.1 15.25 -9.1 15.25 -9.05 15.0 -8.75 14.45 -8.2 15.2 -8.25 16.2 -8.65 16.3 -8.45 16.3 -7.3 16.15 -6.6 16.0 -6.55 15.95 -6.5 16.1 -6.45 16.6 -6.55 17.6 -6.5 18.45 -6.3 Q17.95 -6.05 17.3 -4.9 16.65 -3.8 16.7 -3.5 L16.55 -3.25 17.4 -2.9 18.1 -2.6 17.2 -2.7 Q16.55 -2.7 16.0 -1.95 L15.95 -1.9 14.55 0.05 Q13.9 -0.4 13.75 -0.85 L13.8 -0.7 12.5 0.65 10.35 1.95 10.3 1.85 10.4 1.55 10.25 0.85 10.2 0.7 6.3 2.3 6.15 2.05 6.25 1.85 6.0 1.15 4.35 2.65 4.1 2.85 2.25 5.1 2.0 4.1 1.95 3.9 1.95 3.85 1.95 3.9 1.9 4.1 Q1.95 4.45 0.05 5.5 L-2.0 6.55 -2.15 6.5 Q-1.55 5.95 -1.75 5.55 L-1.75 5.5 -2.95 6.75 -4.35 8.7 -4.4 8.2 -4.55 7.7 -4.6 6.65 -4.7 6.35 -5.95 7.45 -6.2 8.4 -6.3 8.3 -6.5 7.8 -7.85 9.05 -8.85 7.7 -8.95 8.15 -9.15 8.5 Q-9.65 8.4 -12.15 5.6 L-12.25 5.65 -12.5 6.1 -12.8 6.35 -15.15 2.85 Q-15.35 3.25 -16.6 3.25 -16.15 3.1 -15.8 2.2 L-15.65 0.9 -12.8 3.4 -12.95 3.4 -13.05 3.4 -13.65 3.3 -14.55 3.0 -14.55 3.15 -11.85 4.7 -10.7 4.85 -10.75 4.75 -10.55 4.75 -10.05 6.1 -9.95 6.05 -8.75 4.9 -7.8 4.15 -7.85 4.05 -7.75 4.05 -7.7 4.15 Q-8.25 4.45 -8.25 5.0 L-8.2 5.05 -8.4 5.35 -8.35 5.45 -7.3 4.9 -5.9 4.35 -3.55 2.7 -3.65 2.8 -4.0 4.45 -4.0 4.8 0.2 0.25 0.25 0.4 0.15 0.55 0.0 1.3 -0.05 1.8 -0.1 1.8 -0.05 1.9 -0.05 1.8 0.1 1.55 Q0.1 1.0 2.0 -0.3 3.85 -1.6 3.85 -2.0 L3.9 -2.15 3.95 -2.1 3.95 -2.05 3.85 -0.65 4.0 -0.8 4.75 -1.95 5.4 -3.05 5.65 -4.7 5.85 -5.35" fill="#d6baba" fill-rule="evenodd" stroke="none"/>
      <path d="M-16.7 0.65 Q-16.95 0.4 -17.0 -0.2 L-17.2 -1.45 Q-17.35 -3.0 -16.5 -3.95 L-17.7 -3.55 Q-18.0 -4.05 -17.7 -4.8 L-17.8 -5.05 -14.95 -5.5 -15.05 -5.6 -15.8 -5.95 -15.8 -6.05 -14.15 -6.3 -12.85 -6.05 -12.8 -6.05 -12.85 -6.1 Q-13.2 -6.2 -13.25 -6.85 L-12.35 -6.25 -11.55 -5.55 -11.65 -5.4 -11.7 -5.05 -11.75 -4.05 -11.6 -3.7 -11.7 -3.55 -11.65 -3.55 -11.75 -3.5 -12.1 -3.0 -11.45 -1.2 -11.55 -1.05 -11.45 -0.85 -11.4 -0.9 -10.65 -1.2 Q-10.8 -1.0 -10.15 0.15 -9.5 1.3 -9.1 1.35 L-8.75 1.0 -8.45 0.85 -8.1 1.7 -8.0 2.3 -7.9 2.25 -7.2 1.1 -6.5 -0.2 -6.5 -0.55 -6.6 -0.8 Q-5.9 -0.65 -4.8 0.6 L-4.8 0.55 -3.05 -1.05 Q-1.15 -2.3 -0.1 -2.55 L-0.05 -2.25 -0.05 -1.9 -0.05 -1.75 -0.25 -1.55 -0.15 -1.4 0.4 -2.0 1.65 -2.9 Q2.4 -3.55 3.55 -5.5 L3.65 -5.55 3.9 -3.95 4.0 -3.6 Q4.75 -4.7 5.85 -5.35 L6.55 -5.7 7.8 -6.1 8.15 -6.1 7.75 -5.45 7.75 -5.4 8.0 -5.4 Q11.75 -6.15 12.9 -7.35 L12.95 -7.15 12.8 -6.65 12.6 -6.1 12.7 -6.1 12.8 -6.3 13.7 -7.2 13.15 -8.5 14.0 -8.85 15.05 -9.1 15.25 -9.1 15.25 -9.05 15.0 -8.75 14.45 -8.2 15.2 -8.25 16.2 -8.65 16.3 -8.45 16.3 -7.3 16.15 -6.6 16.0 -6.55 15.95 -6.5 16.1 -6.45 16.6 -6.55 17.6 -6.5 18.45 -6.3 Q17.95 -6.05 17.3 -4.9 16.65 -3.8 16.7 -3.5 L16.55 -3.25 17.4 -2.9 18.1 -2.6 17.2 -2.7 Q16.55 -2.7 16.0 -1.95 L15.95 -1.9 14.55 0.05 Q13.9 -0.4 13.75 -0.85 L13.8 -0.7 12.5 0.65 10.35 1.95 10.3 1.85 10.4 1.55 10.25 0.85 10.2 0.7 6.3 2.3 6.15 2.05 6.25 1.85 6.0 1.15 4.35 2.65 4.1 2.85 2.25 5.1 2.0 4.1 1.95 3.9 1.95 3.85 1.95 3.9 1.9 4.1 Q1.95 4.45 0.05 5.5 L-2.0 6.55 -2.15 6.5 Q-1.55 5.95 -1.75 5.55 L-1.75 5.5 -2.95 6.75 -4.35 8.7 -4.4 8.2 -4.55 7.7 -4.6 6.65 -4.7 6.35 -5.95 7.45 -6.2 8.4 -6.3 8.3 -6.5 7.8 -7.85 9.05 -8.85 7.7 -8.95 8.15 -9.15 8.5 Q-9.65 8.4 -12.15 5.6 L-12.25 5.65 -12.5 6.1 -12.8 6.35 -15.15 2.85 Q-15.35 3.25 -16.6 3.25 -16.15 3.1 -15.8 2.2 L-15.65 0.9 -15.65 0.8 -15.85 0.3 -16.0 -0.2 -16.1 -0.15 -16.35 0.3 -16.65 0.7" fill="none" stroke="#000000" stroke-linecap="round" stroke-linejoin="round" stroke-opacity="0.3019608" stroke-width="0.05"/>
    </g>
  </defs>
</svg>
