<?xml version="1.0" encoding="UTF-8" standalone="no"?>
<svg xmlns:xlink="http://www.w3.org/1999/xlink" height="25.5px" width="20.35px" xmlns="http://www.w3.org/2000/svg">
  <g transform="matrix(1.0, 0.0, 0.0, 1.0, 11.55, 12.75)">
    <use height="7.9" id="_col3" transform="matrix(3.2307, 0.0, 0.0, 3.2307, -8.7882, -12.7613)" width="5.45" xlink:href="#sprite0"/>
  </g>
  <defs>
    <g id="sprite0" transform="matrix(1.0, 0.0, 0.0, 1.0, 3.2, 3.95)">
      <use height="7.9" transform="matrix(1.0, 0.0, 0.0, 1.0, -3.2, -3.95)" width="5.45" xlink:href="#shape0"/>
    </g>
    <g id="shape0" transform="matrix(1.0, 0.0, 0.0, 1.0, 3.2, 3.95)">
      <path d="M1.75 -3.95 L1.9 -3.95 Q2.5 -3.95 2.05 -2.65 L1.35 -1.15 0.95 -0.15 0.7 1.25 0.25 3.25 Q-0.05 3.95 -0.3 3.95 L-1.15 3.8 -2.0 3.6 -2.7 2.95 -2.8 2.85 Q-2.55 1.6 -2.25 1.85 L-2.25 1.7 -1.7 0.55 -1.25 -1.15 Q-0.8 -2.05 0.6 -3.05 L1.75 -3.95" fill="#d6baba" fill-rule="evenodd" stroke="none"/>
      <path d="M-3.05 2.55 L-3.2 2.4 -2.95 1.45 -2.6 0.5 -1.9 -1.6 -0.65 -2.85 Q0.6 -3.85 1.75 -3.95 L0.6 -3.05 Q-0.8 -2.05 -1.25 -1.15 L-1.7 0.55 -2.25 1.7 -2.25 1.85 Q-2.55 1.6 -2.8 2.85 L-3.0 2.6 -3.0 2.55 -3.05 2.55" fill="#ffffff" fill-rule="evenodd" stroke="none"/>
      <path d="M-3.05 2.55 L-3.2 2.4 -2.95 1.45 -2.6 0.5 -1.9 -1.6 -0.65 -2.85 Q0.6 -3.85 1.75 -3.95 L1.9 -3.95 Q2.5 -3.95 2.05 -2.65 L1.35 -1.15 0.95 -0.15 0.7 1.25 0.25 3.25 Q-0.05 3.95 -0.3 3.95 L-1.15 3.8 -2.0 3.6 -2.7 2.95 -2.8 2.85 -3.0 2.6" fill="none" stroke="#000000" stroke-linecap="round" stroke-linejoin="round" stroke-opacity="0.3019608" stroke-width="0.05"/>
    </g>
  </defs>
</svg>
