<?xml version="1.0" encoding="UTF-8" standalone="no"?>
<svg xmlns:xlink="http://www.w3.org/1999/xlink" height="75.45px" width="75.55px" xmlns="http://www.w3.org/2000/svg">
  <g transform="matrix(1.0, 0.0, 0.0, 1.0, 27.85, 36.05)">
    <use height="75.45" transform="matrix(1.0, 0.0, 0.0, 1.0, -27.85, -36.05)" width="75.55" xlink:href="#shape0"/>
  </g>
  <defs>
    <g id="shape0" transform="matrix(1.0, 0.0, 0.0, 1.0, 27.85, 36.05)">
      <path d="M-1.8 -4.85 Q-4.4 -6.35 -8.4 -6.75 L-24.35 -8.9 -27.85 -9.7 Q-28.4 -21.1 -16.6 -29.3 -4.85 -37.5 12.5 -35.75 L21.15 -34.35 22.6 -34.0 25.9 -32.95 Q32.15 -30.65 36.95 -26.2 L35.8 -23.65 Q31.5 -14.8 22.6 -11.05 L21.15 -10.45 Q15.7 -7.75 9.15 -6.05 3.65 -4.65 0.7 -4.65 L-1.8 -4.85" fill="#ffffff" fill-rule="evenodd" stroke="none"/>
      <path d="M-1.8 -4.85 L0.7 -4.65 Q3.65 -4.65 9.15 -6.05 15.7 -7.75 21.15 -10.45 L22.6 -11.05 Q31.5 -14.8 35.8 -23.65 L36.95 -26.2 38.65 -24.1 Q44.3 -16.7 44.95 -7.4 L45.0 -4.9 44.9 -1.95 Q44.2 3.95 39.6 12.65 34.2 22.85 34.2 27.7 34.2 29.25 35.45 30.6 36.45 30.2 38.0 28.8 L39.8 26.85 39.85 26.9 Q39.85 27.85 37.75 32.3 39.3 33.0 41.05 33.0 L46.5 32.15 47.7 31.75 Q46.85 33.95 43.5 36.0 39.5 38.5 35.75 38.5 L32.4 38.15 30.8 38.95 26.3 39.25 Q23.7 38.8 22.75 38.1 L20.65 36.45 Q19.5 35.5 18.3 27.45 14.05 31.65 12.35 32.5 10.35 33.45 9.25 33.45 L9.15 33.45 Q7.35 33.4 6.45 32.45 5.65 31.65 4.6 29.1 L5.4 29.65 Q6.3 30.15 7.35 30.15 10.55 30.15 13.1 25.5 15.4 21.4 16.5 15.15 13.85 9.35 11.6 6.95 L7.7 2.55 Q6.65 1.1 4.1 -0.55 1.1 -2.4 0.15 -3.35 L-1.8 -4.85 M37.55 32.15 L37.7 32.4 37.75 32.3 37.55 32.15 36.35 31.4 35.45 30.6 36.35 31.4 37.55 32.15 M28.5 35.35 Q28.5 36.7 30.85 37.65 L32.4 38.15 30.85 37.65 Q28.5 36.7 28.5 35.35" fill="#d6baba" fill-rule="evenodd" stroke="none"/>
      <path d="M36.95 -26.2 Q32.15 -30.65 25.9 -32.95 L22.6 -34.0 21.15 -34.35 12.5 -35.75 Q-4.85 -37.5 -16.6 -29.3 -28.4 -21.1 -27.85 -9.7 L-24.35 -8.9 -8.4 -6.75 Q-4.4 -6.35 -1.8 -4.85 M36.95 -26.2 L38.65 -24.1 Q44.3 -16.7 44.95 -7.4 L45.0 -4.9 44.9 -1.95 Q44.2 3.95 39.6 12.65 34.2 22.85 34.2 27.7 34.2 29.25 35.45 30.6 36.45 30.2 38.0 28.8 L39.8 26.85 39.85 26.7 39.85 26.9 Q39.85 27.85 37.75 32.3 39.3 33.0 41.05 33.0 L46.5 32.15 47.7 31.75 Q46.85 33.95 43.5 36.0 39.5 38.5 35.75 38.5 L32.4 38.15 30.8 38.95 26.3 39.25 Q23.7 38.8 22.75 38.1 L20.65 36.45 Q19.5 35.5 18.3 27.45 14.05 31.65 12.35 32.5 10.35 33.45 9.25 33.45 L9.15 33.45 Q7.35 33.4 6.45 32.45 5.65 31.65 4.6 29.1 L4.5 29.0 4.5 28.85 4.6 29.1 5.4 29.65 Q6.3 30.15 7.35 30.15 10.55 30.15 13.1 25.5 15.4 21.4 16.5 15.15 13.85 9.35 11.6 6.95 L7.7 2.55 Q6.65 1.1 4.1 -0.55 1.1 -2.4 0.15 -3.35 L-1.8 -4.85 M37.55 32.15 L37.7 32.4 37.75 32.3 37.55 32.15 36.35 31.4 35.45 30.6 M32.4 38.15 L30.85 37.65 Q28.5 36.7 28.5 35.35" fill="none" stroke="#000000" stroke-linecap="round" stroke-linejoin="round" stroke-opacity="0.3019608" stroke-width="0.05"/>
    </g>
  </defs>
</svg>
