<?xml version="1.0" encoding="UTF-8" standalone="no"?>
<svg xmlns:xlink="http://www.w3.org/1999/xlink" height="56.9px" width="54.3px" xmlns="http://www.w3.org/2000/svg">
  <g transform="matrix(1.0, 0.0, 0.0, 1.0, 31.25, 15.5)">
    <use height="56.9" transform="matrix(1.0, 0.0, 0.0, 1.0, -31.25, -15.5)" width="54.3" xlink:href="#shape0"/>
  </g>
  <defs>
    <g id="shape0" transform="matrix(1.0, 0.0, 0.0, 1.0, 31.25, 15.5)">
      <path d="M5.45 -9.55 L5.45 -9.5 6.25 -9.25 7.0 -8.95 6.7 -8.8 6.1 -8.5 5.5 -8.15 3.25 -7.25 -0.7 -4.3 -2.0 -2.25 -1.75 -4.35 -0.65 -11.2 Q2.4 -10.6 5.45 -9.55 M6.1 -8.5 L5.5 -8.15 6.1 -8.5 M10.0 -5.1 Q10.55 -6.95 11.55 -8.95 L13.2 -8.0 10.0 -5.1 M11.9 29.8 Q12.25 29.0 12.95 28.2 13.6 27.2 14.75 26.15 16.15 24.9 16.85 23.25 L17.25 23.05 Q17.6 22.8 17.9 22.8 L18.05 23.3 14.95 28.2 12.6 30.45 Q12.0 30.45 11.9 29.8 M16.15 12.9 Q15.85 10.8 15.9 8.95 16.15 4.55 17.75 1.95 L17.5 2.4 Q18.2 2.05 18.6 2.05 19.6 2.05 19.6 3.5 L19.1 5.85 18.35 8.2 17.8 11.1 Q17.25 13.0 16.3 13.0 L16.15 12.9 M-31.1 -3.75 Q-30.85 -5.5 -30.05 -7.25 -28.25 -11.5 -21.9 -15.1 L-21.2 -15.5 -19.9 -13.95 -20.05 -13.85 -19.9 -13.95 -19.85 -13.95 Q-19.3 -14.05 -15.95 -12.6 -21.05 -9.1 -21.7 -3.5 L-21.9 -1.15 -21.9 -0.25 -22.1 -0.3 -24.45 -0.95 -24.45 -1.65 Q-24.35 -7.35 -21.25 -12.05 L-20.05 -13.85 -21.9 -12.85 Q-26.45 -10.05 -27.9 -5.15 L-28.45 -2.4 -31.1 -3.75 M-20.05 -13.85 L-19.85 -13.95 -19.9 -13.95 -19.85 -13.95 -20.05 -13.85 M-10.5 -12.2 Q-12.7 -9.5 -13.65 -4.5 -14.2 -1.65 -14.25 1.35 L-17.3 0.8 -17.15 -2.5 Q-16.1 -11.05 -14.7 -12.6 -13.3 -14.2 -10.5 -12.2 M-2.4 -10.95 L-3.25 -10.35 -4.35 -9.35 -4.9 -8.7 -4.95 -8.7 -4.35 -9.35 -4.95 -8.7 -5.35 -8.45 -7.6 -6.55 -7.85 -6.0 Q-8.6 -2.15 -8.6 1.65 L-10.15 1.65 -10.55 1.65 Q-10.9 -1.7 -10.25 -6.15 -9.55 -11.3 -8.8 -12.0 -8.05 -12.75 -5.9 -10.5 L-5.85 -10.45 -4.8 -10.7 -4.75 -10.7 -3.7 -10.9 -2.55 -10.95 -2.4 -10.95" fill="#ffffff" fill-rule="evenodd" stroke="none"/>
      <path d="M6.25 -9.25 L5.45 -9.5 5.45 -9.55 6.25 -9.25 M-2.0 -2.25 L-0.7 -4.3 3.25 -7.25 5.5 -8.15 Q2.6 -6.35 1.5 -2.55 0.1 2.1 0.35 8.1 0.6 14.1 1.45 17.25 -2.5 13.3 -2.5 6.75 -2.5 2.45 -2.0 -2.25 M16.7 -5.9 Q13.3 -4.55 11.9 1.85 10.5 8.25 12.15 14.25 8.15 8.95 8.5 4.45 8.85 -0.05 9.45 -2.9 L10.0 -5.1 13.2 -8.0 16.7 -5.9 M17.75 1.95 L17.8 1.85 18.3 1.15 Q19.0 0.25 19.85 -0.2 L20.5 -0.5 20.55 -0.45 21.3 0.9 Q23.0 4.15 23.05 6.3 L22.15 6.35 Q21.4 6.6 20.8 7.6 19.55 9.55 19.35 13.35 19.25 16.15 20.1 19.6 L21.0 22.45 21.0 22.5 Q20.95 23.7 18.0 25.85 L17.4 26.35 15.4 28.75 15.25 29.0 14.9 29.7 14.85 29.7 14.55 30.55 Q14.35 30.9 14.3 31.25 L14.25 31.6 14.1 32.65 13.55 34.45 12.7 36.5 11.7 38.6 Q11.0 39.7 9.55 40.8 L4.7 41.0 7.8 40.45 Q9.05 40.0 9.75 38.45 L11.1 35.35 Q11.75 33.8 11.6 32.65 L11.5 31.25 11.6 30.65 11.65 30.55 11.9 29.8 Q12.0 30.45 12.6 30.45 L14.95 28.2 18.05 23.3 17.9 22.8 Q17.6 22.8 17.25 23.05 L16.85 23.25 17.1 22.45 17.2 22.2 17.5 20.15 16.65 15.75 16.3 14.0 16.15 12.9 16.3 13.0 Q17.25 13.0 17.8 11.1 L18.35 8.2 19.1 5.85 19.6 3.5 Q19.6 2.05 18.6 2.05 18.2 2.05 17.5 2.4 L17.75 1.95 M14.85 29.7 L15.25 29.0 14.85 29.7 M-31.1 -3.75 L-28.45 -2.4 Q-28.9 1.5 -27.4 5.4 L-25.55 8.9 Q-29.5 5.55 -30.75 1.4 -31.5 -1.15 -31.1 -3.75 M-24.45 -0.95 L-22.1 -0.3 -21.9 -0.25 -21.9 -0.05 Q-21.8 3.7 -20.5 7.25 -24.3 4.0 -24.45 -0.95 M-14.25 1.35 L-14.15 6.1 Q-13.7 11.7 -13.3 13.2 -17.25 7.45 -17.3 0.8 L-14.25 1.35 M-4.95 -8.7 L-6.0 -6.8 Q-7.6 -2.8 -7.4 1.45 L-7.4 1.5 Q-7.05 7.7 -5.4 13.5 L-5.8 13.25 -6.95 12.2 -7.3 11.65 -8.25 9.85 Q-9.9 6.25 -10.45 2.6 L-10.55 1.65 -10.15 1.65 -8.6 1.65 Q-8.6 -2.15 -7.85 -6.0 L-7.6 -6.55 -5.35 -8.45 -4.95 -8.7 M-4.8 -10.7 L-3.7 -10.9 -4.75 -10.7 -4.8 -10.7 M-7.3 11.65 L-6.95 12.2 -7.3 11.65" fill="#d6baba" fill-rule="evenodd" stroke="none"/>
      <path d="M-0.65 -11.2 L-1.75 -4.35 -2.0 -2.25 M5.5 -8.15 L6.1 -8.5 6.7 -8.8 7.0 -8.95 M16.7 -5.9 Q13.3 -4.55 11.9 1.85 10.5 8.25 12.15 14.25 8.15 8.95 8.5 4.45 8.85 -0.05 9.45 -2.9 L10.0 -5.1 Q10.55 -6.95 11.55 -8.95 M5.5 -8.15 Q2.6 -6.35 1.5 -2.55 0.1 2.1 0.35 8.1 0.6 14.1 1.45 17.25 -2.5 13.3 -2.5 6.75 -2.5 2.45 -2.0 -2.25 M17.75 1.95 L17.8 1.85 18.3 1.15 Q19.0 0.25 19.85 -0.2 L20.5 -0.5 20.55 -0.45 M23.05 6.3 L22.15 6.35 Q21.4 6.6 20.8 7.6 19.55 9.55 19.35 13.35 19.25 16.15 20.1 19.6 L21.0 22.45 21.0 22.5 Q20.95 23.7 18.0 25.85 L17.4 26.35 15.4 28.75 15.25 29.0 14.85 29.7 14.55 30.55 Q14.35 30.9 14.3 31.25 L14.25 31.6 14.1 32.65 13.55 34.45 12.7 36.5 11.7 38.6 Q11.0 39.7 9.55 40.8 L4.7 41.0 7.8 40.45 Q9.05 40.0 9.75 38.45 L11.1 35.35 Q11.75 33.8 11.6 32.65 L11.5 31.25 11.6 30.65 11.65 30.55 11.9 29.8 Q12.25 29.0 12.95 28.2 13.6 27.2 14.75 26.15 16.15 24.9 16.85 23.25 L17.1 22.45 17.2 22.2 17.5 20.15 16.65 15.75 16.3 14.0 16.15 12.9 Q15.85 10.8 15.9 8.95 16.15 4.55 17.75 1.95 M-21.2 -15.5 L-21.9 -15.1 Q-28.25 -11.5 -30.05 -7.25 -30.85 -5.5 -31.1 -3.75 -31.5 -1.15 -30.75 1.4 -29.5 5.55 -25.55 8.9 L-27.4 5.4 Q-28.9 1.5 -28.45 -2.4 L-27.9 -5.15 Q-26.45 -10.05 -21.9 -12.85 L-20.05 -13.85 -19.9 -13.95 -19.85 -13.95 -20.05 -13.85 -21.25 -12.05 Q-24.35 -7.35 -24.45 -1.65 L-24.45 -0.95 Q-24.3 4.0 -20.5 7.25 -21.8 3.7 -21.9 -0.05 L-21.9 -0.25 -21.9 -1.15 -21.7 -3.5 Q-21.05 -9.1 -15.95 -12.6 M-19.85 -13.95 L-19.9 -13.95 M-10.5 -12.2 Q-12.7 -9.5 -13.65 -4.5 -14.2 -1.65 -14.25 1.35 L-14.15 6.1 Q-13.7 11.7 -13.3 13.2 -17.25 7.45 -17.3 0.8 L-17.15 -2.5 Q-16.1 -11.05 -14.7 -12.6 M-2.4 -10.95 L-3.25 -10.35 -4.35 -9.35 -4.95 -8.7 -6.0 -6.8 Q-7.6 -2.8 -7.4 1.45 L-7.4 1.5 Q-7.05 7.7 -5.4 13.5 L-5.8 13.25 -6.95 12.2 -7.3 11.65 -8.25 9.85 Q-9.9 6.25 -10.45 2.6 L-10.55 1.65 Q-10.9 -1.7 -10.25 -6.15 -9.55 -11.3 -8.8 -12.0" fill="none" stroke="#000000" stroke-linecap="round" stroke-linejoin="round" stroke-opacity="0.3019608" stroke-width="0.05"/>
    </g>
  </defs>
</svg>
