<?xml version="1.0" encoding="UTF-8" standalone="no"?>
<svg xmlns:xlink="http://www.w3.org/1999/xlink" height="34.3px" width="32.9px" xmlns="http://www.w3.org/2000/svg">
  <g transform="matrix(1.0, 0.0, 0.0, 1.0, 16.45, 13.85)">
    <use height="11.45" id="_col2" transform="matrix(0.9616, -0.1221, 0.2365, 1.0099, -13.1389, -8.1699)" width="21.85" xlink:href="#sprite0"/>
    <use height="24.0" id="_col3" transform="matrix(0.9616, -0.1221, 0.2365, 1.0099, -16.4437, -10.3913)" width="28.3" xlink:href="#sprite1"/>
  </g>
  <defs>
    <g id="sprite0" transform="matrix(1.0, 0.0, 0.0, 1.0, 10.95, 5.75)">
      <use height="11.45" transform="matrix(1.0, 0.0, 0.0, 1.0, -10.95, -5.75)" width="21.85" xlink:href="#shape0"/>
    </g>
    <g id="shape0" transform="matrix(1.0, 0.0, 0.0, 1.0, 10.95, 5.75)">
      <path d="M3.6 -3.8 L6.15 -0.85 10.9 5.7 Q8.35 3.25 5.75 2.3 L3.75 1.75 1.45 1.55 -0.5 1.8 -1.05 1.9 Q-2.4 -1.35 -4.8 -5.2 L-1.6 -5.75 0.15 -5.45 Q2.85 -4.3 3.6 -3.8" fill="#ffffff" fill-rule="evenodd" stroke="none"/>
      <path d="M-1.05 1.9 Q-5.2 2.7 -8.95 5.05 -9.9 0.5 -10.75 -2.2 L-10.95 -2.7 -10.5 -3.0 Q-7.3 -4.65 -4.8 -5.2 -2.4 -1.35 -1.05 1.9" fill="#d6baba" fill-rule="evenodd" stroke="none"/>
      <path d="M3.6 -3.8 L6.15 -0.85 10.9 5.7 M-8.95 5.05 Q-9.9 0.5 -10.75 -2.2 L-10.95 -2.7 -10.5 -3.0" fill="none" stroke="#000000" stroke-linecap="round" stroke-linejoin="round" stroke-opacity="0.3019608" stroke-width="0.05"/>
    </g>
    <g id="sprite1" transform="matrix(1.0, 0.0, 0.0, 1.0, 14.15, 12.0)">
      <use height="24.0" transform="matrix(1.0, 0.0, 0.0, 1.0, -14.15, -12.0)" width="28.3" xlink:href="#shape1"/>
    </g>
    <g id="shape1" transform="matrix(1.0, 0.0, 0.0, 1.0, 14.15, 12.0)">
      <path d="M-7.85 -11.95 Q-3.95 -12.2 -1.15 -10.75 L0.75 -9.9 Q2.35 -9.15 4.35 -7.05 3.55 -7.5 0.55 -8.6 L-5.0 -8.4 -5.3 -8.75 -7.85 -11.95 M-1.15 -2.05 L-0.7 -2.15 1.5 -2.3 3.85 -2.15 6.05 -1.65 Q8.65 -0.75 10.95 1.2 12.75 3.8 14.15 8.65 10.15 5.95 9.1 5.85 L8.65 5.75 3.4 5.45 2.05 5.55 -1.15 -2.05" fill="#ffffff" fill-rule="evenodd" stroke="none"/>
      <path d="M-7.85 -11.95 L-5.3 -8.75 -5.0 -8.4 -11.05 -6.4 -11.55 -6.2 -11.9 -6.95 Q-12.75 -8.7 -14.15 -9.9 -10.4 -11.85 -8.1 -11.95 L-7.85 -11.95 M-1.15 -2.05 L2.05 5.55 Q-1.0 5.85 -3.95 7.55 -5.75 8.6 -7.0 9.65 L-7.05 9.65 -10.65 1.65 -9.3 0.4 Q-5.45 -1.45 -1.15 -2.05 M9.1 5.85 Q10.15 5.95 14.15 8.65 L13.45 12.0 Q10.85 6.45 9.1 5.85" fill="#d6baba" fill-rule="evenodd" stroke="none"/>
      <path d="M-5.0 -8.4 L0.55 -8.6 Q3.55 -7.5 4.35 -7.05 2.35 -9.15 0.75 -9.9 L-1.15 -10.75 Q-3.95 -12.2 -7.85 -11.95 M-5.0 -8.4 L-11.05 -6.4 -11.55 -6.2 -11.9 -6.95 Q-12.75 -8.7 -14.15 -9.9 -10.4 -11.85 -8.1 -11.95 L-7.85 -11.95 M14.15 8.65 Q12.75 3.8 10.95 1.2 8.65 -0.75 6.05 -1.65 L3.85 -2.15 1.5 -2.3 -0.7 -2.15 -1.15 -2.05 Q-5.45 -1.45 -9.3 0.4 L-10.65 1.65 -7.05 9.65 M2.05 5.55 L3.4 5.45 8.65 5.75 9.1 5.85 Q10.15 5.95 14.15 8.65 L13.45 12.0 Q10.85 6.45 9.1 5.85 M-7.0 9.65 Q-5.75 8.6 -3.95 7.55 -1.0 5.85 2.05 5.55" fill="none" stroke="#000000" stroke-linecap="round" stroke-linejoin="round" stroke-opacity="0.3019608" stroke-width="0.05"/>
    </g>
  </defs>
</svg>
