<?xml version="1.0" encoding="UTF-8" standalone="no"?>
<svg xmlns:xlink="http://www.w3.org/1999/xlink" height="34.55px" width="42.55px" xmlns="http://www.w3.org/2000/svg">
  <g transform="matrix(1.0, 0.0, 0.0, 1.0, 6.4, -1.1)">
    <use height="16.3" id="_col4b" transform="matrix(1.0, 0.0, 0.0, 1.0, -6.4, 19.35)" width="42.55" xlink:href="#sprite0"/>
    <use height="32.8" id="_col3" transform="matrix(1.0, 0.0, 0.0, 1.0, -6.05, 1.1)" width="40.25" xlink:href="#sprite1"/>
    <use height="20.15" id="_col4a" transform="matrix(1.0, 0.0, 0.0, 1.0, 11.95, 13.8)" width="23.0" xlink:href="#sprite2"/>
  </g>
  <defs>
    <g id="sprite0" transform="matrix(1.0, 0.0, 0.0, 1.0, 51.4, -4.85)">
      <use height="16.3" transform="matrix(1.0, 0.0, 0.0, 1.0, -51.4, 4.85)" width="42.55" xlink:href="#shape0"/>
    </g>
    <g id="shape0" transform="matrix(1.0, 0.0, 0.0, 1.0, 51.4, -4.85)">
      <path d="M-23.15 10.85 L-10.8 11.25 -10.6 11.2 -10.1 11.1 -9.85 11.0 Q-9.3 11.0 -9.0 12.45 -8.85 13.3 -8.85 14.15 -8.85 14.9 -10.0 16.85 -12.05 18.6 -16.05 20.05 -20.1 21.5 -25.5 21.05 -30.95 20.6 -33.35 18.1 L-36.65 14.25 -37.6 13.05 Q-38.2 12.6 -39.95 12.3 L-46.3 11.25 Q-51.4 10.85 -51.4 7.15 L-51.15 5.65 Q-50.65 4.85 -48.95 4.85 -41.7 4.85 -26.7 10.15 L-25.2 10.7 -23.15 10.85" fill="#d6baba" fill-rule="evenodd" stroke="none"/>
      <path d="M-23.15 10.85 L-10.8 11.25 -10.6 11.2 -10.1 11.1 -9.85 11.0 Q-9.3 11.0 -9.0 12.45 -8.85 13.3 -8.85 14.15 -8.85 14.9 -10.0 16.85 -12.05 18.6 -16.05 20.05 -20.1 21.5 -25.5 21.05 -30.95 20.6 -33.35 18.1 L-36.65 14.25 -37.6 13.05 Q-38.2 12.6 -39.95 12.3 L-46.3 11.25 Q-51.4 10.85 -51.4 7.15 L-51.15 5.65 Q-50.65 4.85 -48.95 4.85 -41.7 4.85 -26.7 10.15 L-25.2 10.7 -23.15 10.85 Z" fill="none" stroke="#000000" stroke-linecap="round" stroke-linejoin="round" stroke-opacity="0.3019608" stroke-width="0.05"/>
    </g>
    <g id="sprite1" transform="matrix(1.0, 0.0, 0.0, 1.0, 6.05, -1.1)">
      <use height="32.8" transform="matrix(1.0, 0.0, 0.0, 1.0, -6.05, 1.1)" width="40.25" xlink:href="#shape1"/>
    </g>
    <g id="shape1" transform="matrix(1.0, 0.0, 0.0, 1.0, 6.05, -1.1)">
      <path d="M32.1 31.3 L32.0 31.35 28.5 32.8 Q25.25 33.9 21.1 33.9 L17.0 33.8 Q14.7 32.95 13.25 31.0 11.2 28.2 8.8 26.8 6.4 25.35 0.25 24.2 -5.95 23.0 -6.05 20.0 -6.15 17.0 -5.6 14.75 L-4.75 11.55 -4.2 8.45 -3.9 6.85 -3.9 5.35 -2.2 3.2 Q0.5 0.7 4.65 1.15 L4.3 8.5 Q4.3 13.6 7.1 18.5 9.2 22.1 12.3 24.95 L14.9 27.15 Q17.1 28.95 18.8 29.6 L21.8 30.5 Q23.95 31.4 32.1 31.3" fill="#d6baba" fill-rule="evenodd" stroke="none"/>
      <path d="M11.85 4.0 Q16.8 12.65 21.0 16.35 L27.5 21.9 Q29.55 23.6 31.1 23.2 32.65 22.75 33.45 24.4 34.2 26.0 34.2 28.1 L34.15 28.95 Q33.5 30.4 32.1 31.3 23.95 31.4 21.8 30.5 L18.8 29.6 Q17.1 28.95 14.9 27.15 L12.3 24.95 Q9.2 22.1 7.1 18.5 4.3 13.6 4.3 8.5 L4.65 1.15 4.8 1.15 Q5.95 0.8 9.0 2.1 10.75 2.85 11.35 3.25 11.9 3.6 11.9 3.75 L11.85 4.0 11.35 3.25 11.85 4.0" fill="#ffffff" fill-rule="evenodd" stroke="none"/>
      <path d="M11.85 4.0 Q16.8 12.65 21.0 16.35 L27.5 21.9 Q29.55 23.6 31.1 23.2 32.65 22.75 33.45 24.4 34.2 26.0 34.2 28.1 L34.15 28.95 Q33.5 30.4 32.1 31.3 L32.0 31.35 28.5 32.8 Q25.25 33.9 21.1 33.9 L17.0 33.8 Q14.7 32.95 13.25 31.0 11.2 28.2 8.8 26.8 6.4 25.35 0.25 24.2 -5.95 23.0 -6.05 20.0 -6.15 17.0 -5.6 14.75 L-4.75 11.55 -4.2 8.45 -3.9 6.85 -3.9 5.35 M11.85 4.0 L11.35 3.25" fill="none" stroke="#000000" stroke-linecap="round" stroke-linejoin="round" stroke-opacity="0.3019608" stroke-width="0.05"/>
    </g>
    <g id="sprite2" transform="matrix(1.0, 0.0, 0.0, 1.0, 36.85, 1.15)">
      <use height="20.15" transform="matrix(1.0, 0.0, 0.0, 1.0, -36.85, -1.15)" width="23.0" xlink:href="#shape2"/>
    </g>
    <g id="shape2" transform="matrix(1.0, 0.0, 0.0, 1.0, 36.85, 1.15)">
      <path d="M-13.85 12.8 L-13.9 13.2 Q-16.2 17.8 -18.8 18.3 L-23.1 19.0 -23.8 16.7 -21.85 12.0 -22.0 12.4 -15.9 9.9 Q-15.15 9.9 -14.1 11.6 L-13.85 12.8 M-36.45 3.0 Q-35.55 3.55 -34.95 4.35 -34.05 5.65 -34.15 6.85 -33.6 8.45 -31.15 9.7 -33.5 8.9 -35.4 7.6 L-35.55 5.95 Q-35.55 4.55 -36.45 3.0" fill="#d6baba" fill-rule="evenodd" stroke="none"/>
      <path d="M-21.85 12.0 L-21.85 11.95 -21.55 11.2 -18.55 10.35 -15.2 8.75 -14.1 11.6 Q-15.15 9.9 -15.9 9.9 L-22.0 12.4 -21.85 12.0 M-36.45 3.0 L-36.85 2.3 -32.05 4.5 Q-31.0 5.3 -30.65 5.95 -30.45 6.35 -30.55 6.7 L-30.65 7.45 -31.0 8.6 -30.65 8.95 -30.4 9.1 -29.7 9.55 Q-27.7 10.5 -25.85 10.9 L-28.75 10.35 -30.65 9.85 -31.15 9.7 Q-33.6 8.45 -34.15 6.85 -34.05 5.65 -34.95 4.35 -35.55 3.55 -36.45 3.0 M-23.85 2.8 Q-23.05 3.25 -22.6 3.85 -20.55 6.85 -22.35 8.3 L-22.35 7.45 Q-22.45 6.6 -23.25 5.6 -25.05 3.45 -28.45 1.9 -30.05 0.0 -29.55 -1.15 L-28.35 0.05 -23.85 2.8" fill="#ffffff" fill-rule="evenodd" stroke="none"/>
      <path d="M-23.8 16.7 L-21.85 12.0 -21.85 11.95 -21.55 11.2 -18.55 10.35 -15.2 8.75 -14.1 11.6 -13.85 12.8 M-23.85 2.8 L-28.35 0.05 -29.55 -1.15 Q-30.05 0.0 -28.45 1.9 -25.05 3.45 -23.25 5.6 -22.45 6.6 -22.35 7.45 L-22.35 8.3 Q-20.55 6.85 -22.6 3.85 -23.05 3.25 -23.85 2.8 M-31.15 9.7 L-30.65 9.85 -28.75 10.35 -25.85 10.9 Q-27.7 10.5 -29.7 9.55 L-30.4 9.1 -30.65 8.95 -31.0 8.6 -30.65 7.45 -30.55 6.7 Q-30.45 6.35 -30.65 5.95 -31.0 5.3 -32.05 4.5 L-36.85 2.3 -36.45 3.0 M-31.15 9.7 Q-33.5 8.9 -35.4 7.6 L-35.55 5.95 Q-35.55 4.55 -36.45 3.0" fill="none" stroke="#000000" stroke-linecap="round" stroke-linejoin="round" stroke-opacity="0.3019608" stroke-width="0.05"/>
    </g>
  </defs>
</svg>
