<?xml version="1.0" encoding="UTF-8" standalone="no"?>
<svg xmlns:xlink="http://www.w3.org/1999/xlink" height="19.95px" width="16.6px" xmlns="http://www.w3.org/2000/svg">
  <g transform="matrix(1.0, 0.0, 0.0, 1.0, 8.35, 9.95)">
    <use height="19.95" transform="matrix(1.0, 0.0, 0.0, 1.0, -8.35, -9.95)" width="16.6" xlink:href="#shape0"/>
  </g>
  <defs>
    <g id="shape0" transform="matrix(1.0, 0.0, 0.0, 1.0, 8.35, 9.95)">
      <path d="M-6.4 6.2 L-7.05 3.3 Q-8.8 -3.55 -8.05 -9.95 L-7.7 -8.05 Q-7.55 -6.65 -5.3 -4.65 L-0.9 -0.25 3.3 3.8 3.45 3.85 3.1 3.9 Q-1.8 1.4 -1.8 0.95 L-3.0 0.0 -4.8 -1.15 -4.65 -0.85 -4.0 0.7 -5.55 3.7 -6.4 6.2" fill="#ffffff" fill-rule="evenodd" stroke="none"/>
      <path d="M-6.4 6.2 L-5.55 3.7 -4.0 0.7 -4.65 -0.85 -4.8 -1.15 -3.0 0.0 -1.8 0.95 Q-1.8 1.4 3.1 3.9 L3.45 3.85 Q5.35 5.4 8.25 7.1 L8.05 7.9 4.6 7.6 0.85 6.85 Q-3.5 6.55 -5.6 10.0 L-5.85 9.55 Q-6.05 7.9 -6.4 6.2" fill="#d6baba" fill-rule="evenodd" stroke="none"/>
      <path d="M3.45 3.85 L3.3 3.8 -0.9 -0.25 -5.3 -4.65 Q-7.55 -6.65 -7.7 -8.05 L-8.05 -9.95 Q-8.8 -3.55 -7.05 3.3 L-6.4 6.2 M3.45 3.85 Q5.35 5.4 8.25 7.1 L8.05 7.9 4.6 7.6 0.85 6.85 Q-3.5 6.55 -5.6 10.0 L-5.85 9.55 Q-6.05 7.9 -6.4 6.2" fill="none" stroke="#000000" stroke-linecap="round" stroke-linejoin="round" stroke-opacity="0.3019608" stroke-width="0.05"/>
    </g>
  </defs>
</svg>
