<?xml version="1.0" encoding="UTF-8" standalone="no"?>
<svg xmlns:xlink="http://www.w3.org/1999/xlink" height="18.5px" width="21.45px" xmlns="http://www.w3.org/2000/svg">
  <g transform="matrix(1.0, 0.0, 0.0, 1.0, 10.7, 9.25)">
    <use height="18.5" transform="matrix(1.0, 0.0, 0.0, 1.0, -10.7, -9.25)" width="21.45" xlink:href="#shape0"/>
  </g>
  <defs>
    <g id="shape0" transform="matrix(1.0, 0.0, 0.0, 1.0, 10.7, 9.25)">
      <path d="M-5.8 -7.85 Q-3.5 -9.25 0.2 -9.25 L0.9 -9.25 Q6.05 -9.05 8.55 -6.15 L9.8 -4.1 Q8.35 -0.65 4.45 -0.65 0.7 -0.65 -3.35 -3.5 -4.7 -4.5 -5.5 -6.85 L-5.8 -7.85" fill="#ffffff" fill-rule="evenodd" stroke="none"/>
      <path d="M-5.8 -7.85 L-5.5 -6.85 Q-4.7 -4.5 -3.35 -3.5 0.7 -0.65 4.45 -0.65 8.35 -0.65 9.8 -4.1 10.5 -2.5 10.7 -0.5 L10.75 2.9 Q10.75 5.5 8.2 7.15 5.6 8.8 1.35 9.2 -2.95 9.6 -6.15 7.65 -9.4 5.7 -10.05 4.3 L-10.25 3.8 -10.4 3.4 -10.7 2.8 Q-10.15 -3.8 -7.4 -6.65 L-6.4 -7.5 -5.8 -7.85" fill="#d6baba" fill-rule="evenodd" stroke="none"/>
      <path d="M9.8 -4.1 L8.55 -6.15 Q6.05 -9.05 0.9 -9.25 L0.2 -9.25 Q-3.5 -9.25 -5.8 -7.85 M9.8 -4.1 Q10.5 -2.5 10.7 -0.5 L10.75 2.9 Q10.75 5.5 8.2 7.15 5.6 8.8 1.35 9.2 -2.95 9.6 -6.15 7.65 -9.4 5.7 -10.05 4.3 L-10.25 3.8 -10.4 3.4 -10.7 2.8 Q-10.15 -3.8 -7.4 -6.65 L-6.4 -7.5 -5.8 -7.85" fill="none" stroke="#000000" stroke-linecap="round" stroke-linejoin="round" stroke-opacity="0.3019608" stroke-width="0.05"/>
    </g>
  </defs>
</svg>
