<?xml version="1.0" encoding="UTF-8" standalone="no"?>
<svg xmlns:xlink="http://www.w3.org/1999/xlink" height="44.35px" width="25.1px" xmlns="http://www.w3.org/2000/svg">
  <g transform="matrix(1.0, 0.0, 0.0, 1.0, 12.55, 22.2)">
    <use height="44.35" id="_col2" transform="matrix(1.0, 0.0, 0.0, 1.0, -12.55, -22.2)" width="25.1" xlink:href="#sprite0"/>
    <use height="20.7" transform="matrix(1.0, 0.0, 0.0, 1.0, -5.15, -0.35)" width="1.7" xlink:href="#shape1"/>
    <use height="21.7" id="_col3" transform="matrix(1.0, 0.0, 0.0, 1.0, -12.45, -1.35)" width="21.45" xlink:href="#sprite1"/>
  </g>
  <defs>
    <g id="sprite0" transform="matrix(1.0, 0.0, 0.0, 1.0, 12.55, 22.2)">
      <use height="44.35" transform="matrix(1.0, 0.0, 0.0, 1.0, -12.55, -22.2)" width="25.1" xlink:href="#shape0"/>
    </g>
    <g id="shape0" transform="matrix(1.0, 0.0, 0.0, 1.0, 12.55, 22.2)">
      <path d="M-3.6 22.15 Q-9.9 22.1 -10.4 17.95 L-11.55 10.0 -12.2 5.75 -12.55 1.15 -12.45 0.25 -12.45 0.2 Q-11.95 -3.85 -7.0 -7.7 L-1.6 -11.05 1.4 -12.8 4.0 -14.45 Q4.9 -14.15 4.25 -13.0 L3.2 -11.55 -2.1 -7.65 -8.85 -2.7 -9.75 -1.95 -7.15 -3.4 Q-6.2 -3.85 -3.9 -2.55 -0.55 -0.65 -1.85 5.75 -3.45 13.85 -3.6 22.15" fill="#ffffff" fill-rule="evenodd" stroke="none"/>
      <path d="M4.0 -14.45 Q6.4 -16.15 8.9 -18.55 L12.55 -22.2 7.05 -12.65 6.0 -9.7 Q5.3 -7.4 4.6 -1.25 4.0 3.75 3.55 10.9 3.95 22.0 -2.95 22.15 L-3.6 22.15 Q-3.45 13.85 -1.85 5.75 -0.55 -0.65 -3.9 -2.55 -6.2 -3.85 -7.15 -3.4 L-9.75 -1.95 -8.85 -2.7 -2.1 -7.65 3.2 -11.55 4.25 -13.0 Q4.9 -14.15 4.0 -14.45" fill="#d6baba" fill-rule="evenodd" stroke="none"/>
      <path d="M4.0 -14.45 Q6.4 -16.15 8.9 -18.55 L12.55 -22.2 7.05 -12.65 6.0 -9.7 Q5.3 -7.4 4.6 -1.25 4.0 3.75 3.55 10.9 3.95 22.0 -2.95 22.15 L-3.6 22.15 Q-9.9 22.1 -10.4 17.95 L-11.55 10.0 -12.2 5.75 -12.55 1.15 -12.45 0.25 -12.45 0.2 Q-11.95 -3.85 -7.0 -7.7 L-1.6 -11.05 1.4 -12.8 4.0 -14.45 Z" fill="none" stroke="#000000" stroke-linecap="round" stroke-linejoin="round" stroke-opacity="0.3019608" stroke-width="0.05"/>
    </g>
    <g id="shape1" transform="matrix(1.0, 0.0, 0.0, 1.0, 5.15, 0.35)">
      <path d="M-3.5 8.7 L-4.2 20.35 Q-5.45 12.3 -5.05 4.35 -4.95 1.95 -4.35 -0.35 -3.2 4.1 -3.5 8.7" fill="#ffffff" fill-rule="evenodd" stroke="none"/>
    </g>
    <g id="sprite1" transform="matrix(1.0, 0.0, 0.0, 1.0, 10.75, 10.85)">
      <use height="21.7" transform="matrix(1.0, 0.0, 0.0, 1.0, -10.75, -10.85)" width="21.45" xlink:href="#shape2"/>
    </g>
    <g id="shape2" transform="matrix(1.0, 0.0, 0.0, 1.0, 10.75, 10.85)">
      <path d="M4.0 -5.55 L3.85 -4.85 Q-5.6 -0.55 -6.85 2.25 -3.3 1.8 -4.2 8.95 L-4.7 8.25 -5.8 7.35 -10.35 4.8 -10.75 4.15 Q-10.5 3.3 -10.4 2.5 -10.15 0.35 -8.3 -1.05 L-5.9 -2.45 -3.1 -3.25 -0.85 -3.95 Q0.75 -4.2 2.25 -4.85 L4.0 -5.55" fill="#ffffff" fill-rule="evenodd" stroke="none"/>
      <path d="M-4.2 8.95 Q-3.3 1.8 -6.85 2.25 -5.6 -0.55 3.85 -4.85 L4.0 -5.55 4.3 -5.7 Q7.05 -6.45 8.75 -8.65 L10.7 -10.85 10.0 -9.45 8.8 -7.2 7.6 -4.7 Q6.35 -2.05 4.0 -0.15 L1.9 1.7 Q-0.1 3.6 -1.3 5.95 -2.5 8.3 -3.2 10.85 L-4.2 8.95" fill="#d6baba" fill-rule="evenodd" stroke="none"/>
      <path d="M-4.2 8.95 L-3.2 10.85 Q-2.5 8.3 -1.3 5.95 -0.1 3.6 1.9 1.7 L4.0 -0.15 Q6.35 -2.05 7.6 -4.7 L8.8 -7.2 10.0 -9.45 10.7 -10.85 8.75 -8.65 Q7.05 -6.45 4.3 -5.7 L4.0 -5.55 2.25 -4.85 Q0.75 -4.2 -0.85 -3.95 L-3.1 -3.25 -5.9 -2.45 -8.3 -1.05 Q-10.15 0.35 -10.4 2.5 -10.5 3.3 -10.75 4.15 L-10.35 4.8 -5.8 7.35 -4.7 8.25 -4.2 8.95 Z" fill="none" stroke="#000000" stroke-linecap="round" stroke-linejoin="round" stroke-opacity="0.3019608" stroke-width="0.05"/>
    </g>
  </defs>
</svg>
