<?xml version="1.0" encoding="UTF-8" standalone="no"?>
<svg xmlns:xlink="http://www.w3.org/1999/xlink" height="25.65px" width="16.35px" xmlns="http://www.w3.org/2000/svg">
  <g transform="matrix(1.0, 0.0, 0.0, 1.0, 0.0, 0.0)">
    <use height="25.65" id="_col3" transform="matrix(1.0, 0.0, 0.0, 1.0, 0.0, 0.0)" width="16.35" xlink:href="#sprite0"/>
    <use height="9.45" id="_col4a" transform="matrix(0.5977, 0.0, 0.0, 1.2273, 1.5534, 7.7682)" width="19.85" xlink:href="#sprite1"/>
  </g>
  <defs>
    <g id="sprite0" transform="matrix(1.0, 0.0, 0.0, 1.0, 0.0, 0.0)">
      <use height="25.65" transform="matrix(1.0, 0.0, 0.0, 1.0, 0.0, 0.0)" width="16.35" xlink:href="#shape0"/>
    </g>
    <g id="shape0" transform="matrix(1.0, 0.0, 0.0, 1.0, 0.0, 0.0)">
      <path d="M2.7 23.3 Q0.65 20.2 0.9 16.15 1.15 11.25 0.65 6.3 L0.0 0.0 Q4.8 3.7 7.0 7.85 8.7 5.05 11.45 3.85 L12.3 3.5 Q14.2 3.65 11.6 6.1 8.9 8.6 7.7 11.7 L6.95 20.05 7.1 22.35 6.75 25.65 4.4 25.05 Q3.4 24.5 3.4 24.1 L3.1 23.85 2.7 23.3 3.1 23.85 2.7 23.3 M4.4 23.1 L4.35 23.3 4.5 23.35 4.4 23.1" fill="#ffffff" fill-rule="evenodd" stroke="none"/>
      <path d="M12.3 3.5 L13.0 3.25 16.35 1.25 Q14.8 9.15 14.65 16.15 14.6 18.95 14.15 21.7 13.45 23.1 12.55 24.15 L11.7 25.0 11.05 25.25 7.75 25.65 7.0 25.65 6.75 25.65 7.1 22.35 6.95 20.05 7.7 11.7 Q8.9 8.6 11.6 6.1 14.2 3.65 12.3 3.5 L13.0 3.25 12.3 3.5" fill="#d6baba" fill-rule="evenodd" stroke="none"/>
      <path d="M2.7 23.3 Q0.65 20.2 0.9 16.15 1.15 11.25 0.65 6.3 L0.0 0.0 Q4.8 3.7 7.0 7.85 8.7 5.05 11.45 3.85 L12.3 3.5 13.0 3.25 16.35 1.25 Q14.8 9.15 14.65 16.15 14.6 18.95 14.15 21.7 13.45 23.1 12.55 24.15 L11.7 25.0 M2.7 23.3 L3.1 23.85" fill="none" stroke="#000000" stroke-linecap="round" stroke-linejoin="round" stroke-opacity="0.3019608" stroke-width="0.05"/>
    </g>
    <g id="sprite1" transform="matrix(1.0, 0.0, 0.0, 1.0, 1.5, -0.3)">
      <use height="9.45" transform="matrix(1.0, 0.0, 0.0, 1.0, -1.5, 0.3)" width="19.85" xlink:href="#shape1"/>
    </g>
    <g id="shape1" transform="matrix(1.0, 0.0, 0.0, 1.0, 1.5, -0.3)">
      <path d="M17.95 4.25 Q18.5 4.7 18.3 5.3 17.3 8.3 12.95 9.75 L14.05 8.9 Q15.05 8.05 15.15 7.05 15.45 4.9 12.75 3.35 12.95 1.65 14.65 0.6 L15.1 0.3 15.25 0.9 15.25 1.5 17.95 4.25" fill="#d6baba" fill-rule="evenodd" stroke="none"/>
      <path d="M3.4 8.85 L2.45 8.65 2.3 8.6 1.7 8.4 Q-1.0 7.6 -1.5 5.65 L0.45 4.0 Q2.65 2.3 3.85 0.35 L5.85 2.55 Q5.9 3.85 4.6 4.75 L1.6 6.65 1.6 7.15 1.75 7.6 2.5 8.3 3.3 8.75 3.4 8.8 3.4 8.85" fill="#ffffff" fill-rule="evenodd" stroke="none"/>
      <path d="M17.95 4.25 L15.25 1.5 15.25 0.9 15.1 0.3 14.65 0.6 Q12.95 1.65 12.75 3.35 15.45 4.9 15.15 7.05 15.05 8.05 14.05 8.9 L12.95 9.75 Q17.3 8.3 18.3 5.3 18.5 4.7 17.95 4.25 M3.3 8.75 L2.5 8.3 1.75 7.6 1.6 7.15 1.6 6.65 4.6 4.75 Q5.9 3.85 5.85 2.55 L3.85 0.35 Q2.65 2.3 0.45 4.0 L-1.5 5.65 Q-1.0 7.6 1.7 8.4 L2.3 8.6 2.45 8.65 3.4 8.85" fill="none" stroke="#000000" stroke-linecap="round" stroke-linejoin="round" stroke-opacity="0.3019608" stroke-width="0.05"/>
    </g>
  </defs>
</svg>
