<?xml version="1.0" encoding="UTF-8" standalone="no"?>
<svg xmlns:xlink="http://www.w3.org/1999/xlink" height="16.05px" width="5.55px" xmlns="http://www.w3.org/2000/svg">
  <g transform="matrix(1.0, 0.0, 0.0, 1.0, 0.0, 0.0)">
    <use height="16.05" transform="matrix(1.0, 0.0, 0.0, 1.0, 0.0, 0.0)" width="5.55" xlink:href="#shape0"/>
  </g>
  <defs>
    <g id="shape0" transform="matrix(1.0, 0.0, 0.0, 1.0, 0.0, 0.0)">
      <path d="M0.0 2.75 Q0.0 1.6 0.8 0.8 1.65 0.0 2.8 0.0 3.95 0.0 4.75 0.8 5.55 1.6 5.55 2.75 L5.55 13.3 Q5.55 14.45 4.75 15.25 3.95 16.05 2.8 16.05 1.65 16.05 0.8 15.25 0.0 14.45 0.0 13.3 L0.0 2.75" fill="#733c2f" fill-rule="evenodd" stroke="none"/>
    </g>
  </defs>
</svg>
