<?xml version="1.0" encoding="UTF-8" standalone="no"?>
<svg xmlns:xlink="http://www.w3.org/1999/xlink" height="37.85px" width="14.0px" xmlns="http://www.w3.org/2000/svg">
  <g transform="matrix(1.0, 0.0, 0.0, 1.0, 7.0, 18.95)">
    <use height="37.35" id="_col2" transform="matrix(1.0134, 0.0, 0.0, 1.0134, -6.9924, -18.9499)" width="13.8" xlink:href="#sprite0"/>
    <use height="20.9" transform="matrix(1.0, 0.0, 0.0, 1.0, -3.9, -11.9)" width="1.05" xlink:href="#shape1"/>
  </g>
  <defs>
    <g id="sprite0" transform="matrix(1.0, 0.0, 0.0, 1.0, 6.9, 18.65)">
      <use height="37.35" transform="matrix(1.0, 0.0, 0.0, 1.0, -6.9, -18.65)" width="13.8" xlink:href="#shape0"/>
    </g>
    <g id="shape0" transform="matrix(1.0, 0.0, 0.0, 1.0, 6.9, 18.65)">
      <path d="M0.05 -18.6 Q3.4 -18.45 5.5 -16.1 L5.95 -15.65 6.9 -13.35 6.75 12.25 Q6.45 14.0 5.75 15.25 4.05 18.45 0.3 18.7 -0.7 11.7 -0.55 11.15 L0.15 -5.25 0.05 -18.6" fill="#c6886a" fill-rule="evenodd" stroke="none"/>
      <path d="M0.05 -18.6 L0.15 -5.25 -0.55 11.15 Q-0.7 11.7 0.3 18.7 -3.55 17.8 -5.25 16.05 -6.8 14.5 -6.65 12.15 L-6.9 -13.5 -5.45 -16.15 -4.05 -17.4 Q-2.4 -18.9 0.05 -18.6" fill="#efcdaf" fill-rule="evenodd" stroke="none"/>
      <path d="M5.75 15.25 Q6.45 14.0 6.75 12.25 L6.9 -13.35 5.95 -15.65 M-5.45 -16.15 L-6.9 -13.5 -6.65 12.15 Q-6.8 14.5 -5.25 16.05" fill="none" stroke="#000000" stroke-linecap="round" stroke-linejoin="round" stroke-opacity="0.3019608" stroke-width="0.05"/>
    </g>
    <g id="shape1" transform="matrix(1.0, 0.0, 0.0, 1.0, 3.9, 11.9)">
      <path d="M-3.25 -11.8 L-3.35 -11.75 -3.15 -10.5 -3.25 -9.15 -3.0 -6.05 -2.85 -5.45 -3.05 -2.1 -2.9 -0.05 -3.2 4.4 -3.35 5.45 -3.4 5.75 -3.55 6.55 -3.65 7.0 -3.6 7.65 -3.5 8.05 -3.5 9.0 -3.55 9.0 -3.65 7.65 -3.75 7.2 -3.85 6.6 -3.75 6.35 -3.9 5.85 -3.7 3.8 -3.8 2.1 -3.7 -0.05 -3.85 -1.35 -3.45 -7.7 -3.55 -8.2 -3.5 -8.95 -3.3 -10.75 -3.4 -11.25 -3.3 -11.5 -3.4 -11.7 -3.35 -11.9 -3.3 -11.9 -3.25 -11.8" fill="#ffffff" fill-rule="evenodd" stroke="none"/>
    </g>
  </defs>
</svg>
