<?xml version="1.0" encoding="UTF-8" standalone="no"?>
<svg xmlns:xlink="http://www.w3.org/1999/xlink" height="31.6px" width="17.25px" xmlns="http://www.w3.org/2000/svg">
  <g transform="matrix(1.0, 0.0, 0.0, 1.0, 8.25, 18.65)">
    <use height="31.6" transform="matrix(1.0, 0.0, 0.0, 1.0, -8.25, -18.65)" width="17.25" xlink:href="#shape0"/>
  </g>
  <defs>
    <g id="shape0" transform="matrix(1.0, 0.0, 0.0, 1.0, 8.25, 18.65)">
      <path d="M-0.5 12.9 L-0.55 11.35 -0.3 5.8 Q0.0 0.55 0.15 -5.25 L0.05 -18.6 Q3.95 -18.45 6.35 -16.1 L6.9 -15.65 8.0 -13.35 9.0 7.6 Q8.55 9.9 6.25 11.55 3.9 13.15 -0.5 12.9" fill="#d6baba" fill-rule="evenodd" stroke="none"/>
      <path d="M0.05 -18.6 L0.15 -5.25 Q0.0 0.55 -0.3 5.8 L-0.55 11.35 -0.5 12.9 Q-3.0 12.55 -4.85 11.65 -6.75 10.75 -7.7 9.3 -8.65 7.85 -8.0 3.75 L-8.0 -13.5 Q-7.25 -15.05 -6.3 -16.15 L-4.7 -17.4 Q-2.8 -18.9 0.05 -18.6" fill="#ffffff" fill-rule="evenodd" stroke="none"/>
      <path d="M-0.5 12.9 Q3.9 13.15 6.25 11.55 8.55 9.9 9.0 7.6 L8.0 -13.35 M-8.0 -13.5 L-8.0 3.75 Q-8.65 7.85 -7.7 9.3 -6.75 10.75 -4.85 11.65 -3.0 12.55 -0.5 12.9 Z" fill="none" stroke="#000000" stroke-linecap="round" stroke-linejoin="round" stroke-opacity="0.3019608" stroke-width="0.05"/>
    </g>
  </defs>
</svg>
