<?xml version="1.0" encoding="UTF-8" standalone="no"?>
<svg xmlns:xlink="http://www.w3.org/1999/xlink" height="19.7px" width="12.4px" xmlns="http://www.w3.org/2000/svg">
  <g transform="matrix(1.0, 0.0, 0.0, 1.0, 6.2, -0.3)">
    <use height="19.7" transform="matrix(1.0, 0.0, 0.0, 1.0, -6.2, 0.3)" width="12.4" xlink:href="#shape0"/>
  </g>
  <defs>
    <g id="shape0" transform="matrix(1.0, 0.0, 0.0, 1.0, 6.2, -0.3)">
      <path d="M3.25 1.5 Q5.3 3.1 6.2 6.75 L5.9 14.7 Q3.75 18.8 2.4 18.8 L2.2 18.95 1.95 19.05 Q1.75 19.05 1.55 19.2 L1.2 19.35 0.1 19.85 0.15 13.0 -0.2 0.3 Q1.7 0.4 3.25 1.5" fill="#d6baba" fill-rule="evenodd" stroke="none"/>
      <path d="M-0.2 0.3 L0.15 13.0 0.1 19.85 -0.3 20.0 -1.85 19.8 Q-2.85 19.8 -4.35 18.3 L-5.4 17.15 -6.2 6.95 Q-6.25 4.65 -5.35 3.25 -3.85 0.8 -0.2 0.3" fill="#ffffff" fill-rule="evenodd" stroke="none"/>
      <path d="M0.1 19.85 L1.2 19.35 1.55 19.2 Q1.75 19.05 1.95 19.05 L2.2 18.95 2.4 18.8 Q3.75 18.8 5.9 14.7 L6.2 6.75 Q5.3 3.1 3.25 1.5 M0.1 19.85 L-0.3 20.0 -1.85 19.8 Q-2.85 19.8 -4.35 18.3 L-5.4 17.15 -6.2 6.95 Q-6.25 4.65 -5.35 3.25" fill="none" stroke="#000000" stroke-linecap="round" stroke-linejoin="round" stroke-opacity="0.3019608" stroke-width="0.05"/>
    </g>
  </defs>
</svg>
