<?xml version="1.0" encoding="UTF-8" standalone="no"?>
<svg xmlns:xlink="http://www.w3.org/1999/xlink" height="57.4px" width="55.15px" xmlns="http://www.w3.org/2000/svg">
  <g transform="matrix(1.0, 0.0, 0.0, 1.0, 25.25, 27.4)">
    <use height="57.4" transform="matrix(1.0, 0.0, 0.0, 1.0, -25.25, -27.4)" width="55.15" xlink:href="#shape0"/>
  </g>
  <defs>
    <g id="shape0" transform="matrix(1.0, 0.0, 0.0, 1.0, 25.25, 27.4)">
      <path d="M12.65 -2.75 Q12.65 -0.35 9.8 2.0 6.25 5.0 0.45 5.0 -2.4 5.0 -3.5 2.35 -4.05 1.0 -4.05 -0.45 -4.05 -3.75 -3.05 -5.7 -1.6 -8.65 2.45 -10.55 5.95 -12.15 9.55 -8.2 12.65 -4.8 12.65 -2.75 M15.3 -13.3 Q15.3 -18.8 19.35 -18.75 20.95 -18.7 22.15 -17.6 23.4 -16.45 23.4 -14.7 23.4 -13.2 22.7 -11.7 21.55 -9.05 18.85 -9.05 16.65 -9.05 15.75 -11.15 15.3 -12.2 15.3 -13.3 M25.2 7.2 Q25.2 8.85 23.4 11.0 21.2 13.65 18.0 13.65 14.5 13.65 13.5 11.45 L13.2 9.15 Q13.2 5.45 15.1 3.4 16.7 1.55 19.2 1.5 21.6 1.4 23.35 2.95 25.2 4.55 25.2 7.2 M9.4 17.1 Q13.35 15.75 13.35 19.75 13.35 20.85 12.5 21.65 11.3 22.7 8.75 22.7 6.65 22.7 5.85 21.6 5.4 21.0 5.4 20.25 5.4 18.45 9.4 17.1 M-11.6 -16.05 Q-12.3 -17.4 -12.3 -18.9 -12.3 -21.95 -10.35 -24.4 -8.55 -26.6 -6.05 -27.2 -3.5 -27.85 -1.8 -26.3 0.15 -24.55 0.15 -20.55 -3.25 -13.95 -7.9 -13.95 -10.45 -13.95 -11.6 -16.05 M-13.35 14.3 Q-15.35 15.6 -17.85 15.6 -21.2 15.6 -22.35 14.15 -22.9 13.45 -22.8 12.6 -22.8 10.05 -21.0 8.3 -19.4 6.7 -17.1 6.4 -14.75 6.1 -13.2 7.35 -11.4 8.7 -11.4 11.5 -11.4 13.05 -13.35 14.3" fill="#c88037" fill-rule="evenodd" stroke="none"/>
      <path d="M8.1 -21.9 Q6.75 -21.9 6.25 -23.1 L6.0 -24.3 Q6.0 -26.3 8.1 -26.3 10.2 -26.3 10.2 -24.3 10.2 -23.5 9.85 -22.85 9.25 -21.9 8.1 -21.9 M7.8 -15.3 Q10.35 -15.7 12.15 -14.5 14.15 -13.25 14.15 -10.6 14.15 -8.2 13.1 -6.0 11.3 -2.15 6.95 -2.15 2.8 -2.15 1.7 -5.0 L1.4 -7.95 Q1.4 -11.0 3.4 -13.05 5.15 -14.9 7.8 -15.3 M25.85 19.25 Q25.5 18.75 25.5 18.35 25.5 16.55 27.7 16.05 29.9 15.55 29.9 17.9 29.9 18.65 29.45 19.25 28.8 20.1 27.6 20.1 26.45 20.1 25.85 19.25 M1.95 15.45 Q-2.3 15.45 -3.7 12.55 -4.3 11.3 -4.3 9.25 -4.3 5.2 -1.75 2.75 0.5 0.6 3.9 0.35 7.15 0.1 9.5 1.8 12.05 3.7 12.05 7.0 12.05 9.45 9.65 12.15 6.65 15.45 1.95 15.45 M0.65 28.55 Q-0.55 30.0 -2.9 30.0 -4.55 30.0 -5.3 28.5 L-5.7 26.95 Q-5.7 24.3 -2.05 23.7 1.55 23.1 1.55 26.1 1.55 27.5 0.65 28.55 M-25.25 -8.55 Q-25.25 -12.2 -21.95 -12.75 -18.65 -13.35 -18.65 -8.2 -18.65 -7.15 -20.15 -6.0 -21.55 -4.85 -22.55 -4.85 -24.2 -4.85 -24.9 -6.65 -25.25 -7.55 -25.25 -8.55 M-7.25 -9.9 Q-4.4 -10.55 -2.55 -8.95 -0.4 -7.15 -0.4 -2.85 -0.4 -1.25 -3.1 1.05 -6.2 3.7 -9.45 3.7 -12.5 3.7 -13.6 0.55 L-14.15 -2.7 Q-14.15 -5.1 -12.0 -7.25 -9.95 -9.3 -7.25 -9.9" fill="#d8a46e" fill-rule="evenodd" stroke="none"/>
    </g>
  </defs>
</svg>
