<?xml version="1.0" encoding="UTF-8" standalone="no"?>
<svg xmlns:xlink="http://www.w3.org/1999/xlink" height="86.05px" width="107.8px" xmlns="http://www.w3.org/2000/svg">
  <g transform="matrix(1.0, 0.0, 0.0, 1.0, 28.6, 61.95)">
    <use height="55.2" transform="matrix(1.0, 0.0, 0.0, 1.0, -28.6, -31.1)" width="107.8" xlink:href="#shape0"/>
  </g>
  <defs>
    <g id="shape0" transform="matrix(1.0, 0.0, 0.0, 1.0, 28.6, 31.1)">
      <path d="M-28.6 21.85 L-26.4 19.75 -24.4 19.65 -25.35 23.3 -26.65 24.1 -27.55 23.9 -25.25 20.45 -28.6 21.85 M-2.4 14.95 L-2.2 15.75 -3.7 18.15 -4.6 18.45 -5.4 16.9 -2.4 14.95 M8.75 15.85 L9.8 16.45 10.2 16.25 13.35 16.4 14.15 18.8 13.5 20.2 14.25 21.6 14.2 22.55 13.65 22.7 13.25 21.65 8.75 15.85 M30.95 9.2 L31.55 8.65 31.05 7.8 31.45 6.8 30.4 4.95 42.65 9.3 30.95 9.2 M73.45 21.75 L79.2 22.65 78.8 23.35 73.45 21.75 M65.15 -29.4 L64.1 -28.45 62.1 -27.75 61.45 -27.2 61.1 -27.1 Q60.95 -27.1 60.9 -27.2 L60.8 -27.3 65.95 -31.1 65.15 -29.4" fill="#ff0000" fill-rule="evenodd" stroke="none"/>
    </g>
  </defs>
</svg>
