<?xml version="1.0" encoding="UTF-8" standalone="no"?>
<svg xmlns:xlink="http://www.w3.org/1999/xlink" height="16.55px" width="15.9px" xmlns="http://www.w3.org/2000/svg">
  <g transform="matrix(1.0, 0.0, 0.0, 1.0, 6.85, 9.2)">
    <use height="16.55" transform="matrix(1.0, 0.0, 0.0, 1.0, -6.85, -9.2)" width="15.9" xlink:href="#shape0"/>
  </g>
  <defs>
    <g id="shape0" transform="matrix(1.0, 0.0, 0.0, 1.0, 6.85, 9.2)">
      <path d="M1.75 -8.95 L4.0 -8.8 4.7 -8.45 4.75 -8.4 5.45 -7.4 5.85 -6.5 5.95 -6.25 6.8 -4.55 3.95 -5.3 1.7 -5.75 3.95 -5.3 6.8 -4.55 6.95 -4.0 7.6 -1.95 7.7 -1.7 7.85 -1.0 8.1 0.0 8.15 0.15 8.85 2.0 Q9.2 2.95 9.0 4.15 L8.75 5.0 8.4 5.4 5.95 6.75 5.8 6.8 4.6 7.35 3.95 6.6 3.9 6.55 3.6 5.85 2.85 4.75 2.55 4.1 2.55 3.75 2.75 3.5 3.75 2.1 4.2 0.9 4.25 0.6 4.05 0.3 3.85 0.1 3.45 0.0 3.35 0.1 3.95 -0.4 4.2 -0.55 3.95 -0.4 3.35 0.1 3.2 0.25 2.0 1.5 0.7 0.65 0.65 0.6 0.75 0.05 0.85 -0.9 0.7 -2.5 0.8 -2.85 0.75 -3.25 0.7 -3.4 1.35 -5.0 1.7 -5.75 1.95 -7.05 2.0 -7.75 1.75 -8.95 M7.7 -1.7 L6.35 -1.9 Q5.35 -1.9 4.8 -1.4 L4.7 -1.25 4.5 -0.85 4.2 -0.55 Q3.1 -2.1 1.3 -3.0 L0.75 -3.25 1.3 -3.0 Q3.1 -2.1 4.2 -0.55 L4.5 -0.85 4.7 -1.25 4.8 -1.4 Q5.35 -1.9 6.35 -1.9 L7.7 -1.7 M9.0 4.15 L8.15 3.05 6.5 1.65 Q5.1 0.95 4.2 0.9 5.1 0.95 6.5 1.65 L8.15 3.05 9.0 4.15 M2.55 4.1 L2.6 4.05 3.15 3.9 Q3.85 3.9 4.8 4.6 5.95 5.45 5.95 6.6 L5.95 6.75 5.95 6.6 Q5.95 5.45 4.8 4.6 3.85 3.9 3.15 3.9 L2.6 4.05 2.55 4.1" fill="#dbc7c6" fill-rule="evenodd" stroke="none"/>
      <path d="M1.75 -8.95 L2.0 -7.75 1.95 -7.05 1.7 -5.75 0.2 -5.9 Q-1.4 -5.9 -3.05 -5.15 L-4.95 -4.1 -5.0 -5.0 -4.9 -6.2 -5.0 -5.0 -4.95 -4.1 -3.05 -5.15 Q-1.4 -5.9 0.2 -5.9 L1.7 -5.75 1.35 -5.0 0.7 -3.4 0.75 -3.25 0.8 -2.85 0.7 -2.5 0.85 -0.9 0.75 0.05 0.65 0.6 Q-0.95 -0.35 -2.55 -0.15 L-3.6 0.15 -3.95 0.7 -4.0 0.05 -4.25 -1.0 -6.1 -0.8 -6.5 -2.05 -6.85 -4.15 -6.8 -5.7 -6.4 -8.0 -6.2 -8.6 -6.0 -9.2 1.75 -8.95 M-4.25 -1.0 L-4.75 -2.65 -4.8 -3.0 Q-3.25 -3.8 -2.05 -3.8 L0.75 -3.25 -2.05 -3.8 Q-3.25 -3.8 -4.8 -3.0 L-4.75 -2.65 -4.25 -1.0 M-4.95 -4.1 L-4.9 -3.6 -4.9 -3.45 -4.8 -3.0 -4.9 -3.45 -4.9 -3.6 -6.85 -4.15 -4.9 -3.6 -4.95 -4.1" fill="#ffffff" fill-rule="evenodd" stroke="none"/>
      <path d="M6.8 -4.55 L5.95 -6.25 5.85 -6.5 5.45 -7.4 4.75 -8.4 4.7 -8.45 4.0 -8.8 1.75 -8.95 M1.7 -5.75 L3.95 -5.3 6.8 -4.55 6.95 -4.0 7.6 -1.95 7.7 -1.7 7.85 -1.0 8.1 0.0 8.15 0.15 8.85 2.0 Q9.2 2.95 9.0 4.15 L8.75 5.0 8.4 5.4 5.95 6.75 5.8 6.8 4.6 7.35 3.95 6.6 3.9 6.55 3.6 5.85 2.85 4.75 2.55 4.1 2.55 3.75 2.75 3.5 3.75 2.1 4.2 0.9 4.25 0.6 4.05 0.3 3.85 0.1 3.45 0.0 3.2 0.25 2.0 1.5 0.7 0.65 0.65 0.6 Q-0.95 -0.35 -2.55 -0.15 L-3.6 0.15 -3.95 0.7 -4.0 0.05 -4.25 -1.0 -6.1 -0.8 -6.5 -2.05 -6.85 -4.15 -6.8 -5.7 -6.4 -8.0 -6.2 -8.6 -6.0 -9.2 1.75 -8.95 M-4.9 -6.2 L-5.0 -5.0 -4.95 -4.1 -3.05 -5.15 Q-1.4 -5.9 0.2 -5.9 L1.7 -5.75 M0.75 -3.25 L1.3 -3.0 Q3.1 -2.1 4.2 -0.55 L4.5 -0.85 4.7 -1.25 4.8 -1.4 Q5.35 -1.9 6.35 -1.9 L7.7 -1.7 M0.75 -3.25 L-2.05 -3.8 Q-3.25 -3.8 -4.8 -3.0 L-4.75 -2.65 -4.25 -1.0 M4.2 -0.55 L3.95 -0.4 3.35 0.1 3.2 0.25 M4.2 0.9 Q5.1 0.95 6.5 1.65 L8.15 3.05 9.0 4.15 M5.95 6.75 L5.95 6.6 Q5.95 5.45 4.8 4.6 3.85 3.9 3.15 3.9 L2.6 4.05 2.55 4.1 M-4.8 -3.0 L-4.9 -3.45 -4.9 -3.6 -6.85 -4.15 M-4.9 -3.6 L-4.95 -4.1" fill="none" stroke="#000000" stroke-linecap="round" stroke-linejoin="round" stroke-opacity="0.3019608" stroke-width="0.05"/>
    </g>
  </defs>
</svg>
