<?xml version="1.0" encoding="UTF-8" standalone="no"?>
<svg xmlns:xlink="http://www.w3.org/1999/xlink" height="20.15px" width="21.7px" xmlns="http://www.w3.org/2000/svg">
  <g transform="matrix(1.0, 0.0, 0.0, 1.0, 10.85, 10.05)">
    <use height="20.15" transform="matrix(1.0, 0.0, 0.0, 1.0, -10.85, -10.05)" width="21.7" xlink:href="#shape0"/>
  </g>
  <defs>
    <g id="shape0" transform="matrix(1.0, 0.0, 0.0, 1.0, 10.85, 10.05)">
      <path d="M-4.75 2.0 L-4.85 1.9 -6.05 0.95 -8.35 -1.35 Q-10.1 -3.25 -10.8 -6.05 L-10.8 -7.25 Q-9.95 -10.35 -6.65 -10.0 L-8.25 -9.35 Q-9.65 -6.65 -8.1 -4.45 -6.55 -2.3 -4.55 -0.8 L-2.8 0.5 -2.55 0.7 Q-2.45 1.65 -2.8 1.9 L-4.0 2.1 -4.75 2.0" fill="#ffffff" fill-rule="evenodd" stroke="none"/>
      <path d="M-4.75 2.0 L-4.0 2.1 -2.8 1.9 Q-2.45 1.65 -2.55 0.7 L-0.55 2.05 Q1.35 3.35 3.75 4.25 6.1 5.15 7.45 5.95 L10.85 8.0 8.2 10.1 Q6.45 8.1 4.15 6.85 L-0.4 4.55 Q-2.7 3.45 -4.75 2.0" fill="#d6baba" fill-rule="evenodd" stroke="none"/>
      <path d="M-2.55 0.7 L-2.8 0.5 -4.55 -0.8 Q-6.55 -2.3 -8.1 -4.45 -9.65 -6.65 -8.25 -9.35 L-6.65 -10.0 Q-9.95 -10.35 -10.8 -7.25 L-10.8 -6.05 Q-10.1 -3.25 -8.35 -1.35 L-6.05 0.95 -4.85 1.9 -4.75 2.0 M-2.55 0.7 L-0.55 2.05 Q1.35 3.35 3.75 4.25 6.1 5.15 7.45 5.95 L10.85 8.0 8.2 10.1 Q6.45 8.1 4.15 6.85 L-0.4 4.55 Q-2.7 3.45 -4.75 2.0" fill="none" stroke="#000000" stroke-linecap="round" stroke-linejoin="round" stroke-opacity="0.3019608" stroke-width="0.05"/>
    </g>
  </defs>
</svg>
