<?xml version="1.0" encoding="UTF-8" standalone="no"?>
<svg xmlns:xlink="http://www.w3.org/1999/xlink" height="19.65px" width="19.65px" xmlns="http://www.w3.org/2000/svg">
  <g transform="matrix(1.0, 0.0, 0.0, 1.0, 8.7, 9.45)">
    <use height="17.95" transform="matrix(1.0, 0.0, 0.0, 1.0, -8.7, -7.75)" width="18.05" xlink:href="#shape0"/>
  </g>
  <defs>
    <g id="shape0" transform="matrix(1.0, 0.0, 0.0, 1.0, 8.7, 7.75)">
      <path d="M-5.0 -0.5 L-4.45 -1.45 -4.05 -2.15 -3.65 -3.0 -2.75 -4.15 -0.6 -5.95 Q1.45 -7.35 3.45 -7.7 L6.1 -7.65 Q8.25 -7.35 9.0 -5.4 9.75 -3.4 8.85 -1.4 8.0 0.55 5.9 1.35 L2.05 2.0 -1.6 1.6 Q-3.65 1.65 -4.45 2.05 L-5.0 2.75 -5.3 3.55 Q-5.6 4.9 -5.0 6.95 -4.5 9.15 -3.65 9.3 L-3.25 9.6 -3.25 9.85 -3.6 10.15 -3.9 10.2 Q-4.35 10.1 -4.95 8.7 L-5.7 6.7 -5.95 4.9 -5.85 3.4 Q-5.5 1.6 -3.35 1.2 L1.2 1.1 2.2 1.1 3.15 1.1 Q5.4 1.05 6.95 -0.75 8.35 -2.4 7.7 -4.6 L7.05 -5.45 Q5.4 -6.7 3.2 -6.0 1.65 -5.65 0.0 -4.55 -2.8 -2.65 -3.65 -0.65 -3.85 -0.1 -4.75 1.05 L-5.85 2.75 -6.85 4.7 Q-7.7 6.05 -8.15 5.95 L-8.7 5.5 -8.65 5.15 -8.15 4.1 -7.7 3.4 -5.6 0.5 -5.3 0.05 -5.0 -0.5" fill="#545656" fill-rule="evenodd" stroke="none"/>
    </g>
  </defs>
</svg>
