<?xml version="1.0" encoding="UTF-8" standalone="no"?>
<svg xmlns:xlink="http://www.w3.org/1999/xlink" height="19.65px" width="19.65px" xmlns="http://www.w3.org/2000/svg">
  <g transform="matrix(1.0, 0.0, 0.0, 1.0, 8.7, 9.45)">
    <use height="14.1" transform="matrix(1.0, 0.0, 0.0, 1.0, -7.5, -7.0)" width="14.55" xlink:href="#shape0"/>
  </g>
  <defs>
    <g id="shape0" transform="matrix(1.0, 0.0, 0.0, 1.0, 7.5, 7.0)">
      <path d="M-2.0 -5.45 L-1.85 -5.65 -1.25 -6.1 -1.2 -6.15 -1.1 -6.2 -1.05 -6.2 -1.0 -6.25 -0.95 -6.3 -0.85 -6.35 -0.8 -6.25 -0.75 -5.65 -1.2 -5.1 -1.75 -5.05 -2.0 -5.45" fill="#ffffff" fill-rule="evenodd" stroke="none"/>
      <path d="M-0.85 -6.35 L-0.8 -6.35 -0.75 -6.4 -0.7 -6.45 -0.65 -6.45 -0.55 -6.45 -0.5 -6.5 -0.3 -6.55 -0.25 -6.6 -0.2 -6.65 -0.15 -6.65 -0.1 -6.65 -0.1 -6.7 0.05 -6.75 0.15 -6.7 0.15 -6.75 0.2 -6.75 0.3 -6.3 0.45 -5.8 Q-1.25 -5.25 -2.1 -3.7 L-2.5 -4.1 -2.8 -4.5 -2.75 -4.6 -2.0 -5.45 -1.75 -5.05 -1.2 -5.1 -0.75 -5.65 -0.8 -6.25 -0.85 -6.35" fill="#fe9f78" fill-rule="evenodd" stroke="none"/>
      <path d="M0.2 -6.75 Q2.3 -7.4 4.25 -6.35 6.2 -5.3 6.8 -3.15 7.45 -1.0 6.4 0.95 5.35 2.9 3.2 3.5 L-0.5 3.25 -1.4 2.75 -1.55 2.6 -2.1 2.1 -2.45 1.75 -2.75 1.35 -3.1 0.65 -3.3 0.25 -3.5 -0.3 Q-4.05 -2.3 -3.0 -4.15 L-2.8 -4.5 -2.5 -4.1 -2.1 -3.7 -2.2 -3.6 Q-2.95 -2.2 -2.7 -0.65 L-2.55 0.05 -2.4 0.45 -2.2 0.9 -1.95 1.3 -1.7 1.65 -1.4 2.0 -1.1 2.3 Q-0.85 2.45 -0.7 2.55 L-0.3 2.85 Q1.45 3.8 3.25 3.2 5.2 2.65 6.15 0.95 7.05 -0.8 6.5 -2.7 5.95 -4.55 4.2 -5.5 2.5 -6.45 0.6 -5.9 L0.45 -5.8 0.3 -6.3 0.2 -6.75" fill="#a93301" fill-rule="evenodd" stroke="none"/>
      <path d="M0.45 -5.8 L0.6 -5.9 Q2.5 -6.45 4.2 -5.5 5.95 -4.55 6.5 -2.7 7.05 -0.8 6.15 0.95 5.2 2.65 3.25 3.2 1.45 3.8 -0.3 2.85 L-0.7 2.55 Q-0.85 2.45 -1.1 2.3 L-1.4 2.0 -1.7 1.65 -1.95 1.3 -2.2 0.9 -2.4 0.45 -2.55 0.05 -2.7 -0.65 Q-2.95 -2.2 -2.2 -3.6 L-2.1 -3.7 Q-1.25 -5.25 0.45 -5.8 M1.2 -3.95 Q0.05 -3.6 -0.45 -2.65 -0.9 -1.85 -0.75 -0.95 L-0.65 -0.55 -0.55 -0.3 -0.45 -0.05 -0.3 0.2 -0.15 0.4 0.0 0.6 0.15 0.75 0.4 0.95 0.7 1.1 2.7 1.3 Q3.8 1.0 4.35 0.0 4.95 -1.0 4.6 -2.15 4.25 -3.25 3.25 -3.75 L1.2 -3.95" fill="#4e4843" fill-rule="evenodd" stroke="none"/>
      <path d="M2.2 -3.0 L2.35 -3.15 2.5 -3.1 2.5 -3.15 2.55 -3.3 2.5 -3.4 2.6 -3.55 2.55 -3.55 2.15 -3.1 Q2.05 -2.95 2.2 -2.95 L2.3 -2.8 2.3 -2.7 2.15 -2.65 2.2 -2.65 2.3 -2.65 Q2.35 -2.6 2.4 -2.7 L2.2 -3.0 M0.4 -1.6 L0.4 -1.75 0.3 -1.75 0.25 -1.75 0.2 -1.65 -0.25 -1.55 -0.3 -1.35 0.05 -1.55 0.2 -1.25 0.35 -1.45 0.4 -1.6 M0.05 -2.65 L0.05 -2.4 0.05 -2.35 0.3 -2.15 0.4 -1.95 0.6 -2.0 0.8 -2.2 0.75 -2.25 0.5 -2.2 0.4 -2.5 0.35 -2.65 0.05 -2.65 M1.25 -3.6 L1.15 -3.5 1.25 -3.2 1.4 -3.0 1.35 -2.95 1.25 -3.2 1.05 -3.3 0.75 -3.15 Q0.7 -2.95 0.9 -2.9 L1.0 -2.8 1.05 -2.8 1.1 -2.95 1.2 -2.7 1.25 -2.65 1.45 -2.75 1.6 -3.05 1.45 -3.25 1.3 -3.5 1.35 -3.6 1.25 -3.6 M2.5 -2.35 L1.65 -2.45 0.9 -1.9 0.8 -1.15 0.8 -1.0 0.9 -0.9 0.9 -0.75 1.0 -0.7 1.0 -0.55 1.1 -0.5 1.2 -0.4 1.3 -0.35 1.4 -0.3 2.3 -0.2 Q2.75 -0.3 3.0 -0.8 L3.1 -1.7 2.5 -2.35 M1.2 -3.95 L3.25 -3.75 Q4.25 -3.25 4.6 -2.15 4.95 -1.0 4.35 0.0 3.8 1.0 2.7 1.3 L0.7 1.1 0.4 0.95 0.15 0.75 0.0 0.6 -0.15 0.4 -0.3 0.2 -0.45 -0.05 -0.55 -0.3 -0.65 -0.55 -0.75 -0.95 Q-0.9 -1.85 -0.45 -2.65 0.05 -3.6 1.2 -3.95 M3.95 -0.25 L4.15 -0.5 4.1 -0.7 4.1 -0.9 4.35 -1.3 4.25 -1.3 4.05 -1.15 3.9 -1.0 3.95 -0.8 3.95 -0.7 3.85 -0.65 3.7 -0.6 3.65 -0.65 3.6 -0.65 3.7 -0.45 3.85 -0.25 3.95 -0.25 M3.2 0.3 L3.05 0.3 2.9 0.35 2.65 0.05 Q2.45 0.0 2.6 0.3 L2.85 0.55 3.0 0.5 3.15 0.5 3.25 0.55 3.3 0.65 3.55 0.4 3.5 0.0 3.3 -0.3 3.2 -0.2 3.4 0.0 3.4 0.35 3.4 0.4 3.2 0.3 M1.95 1.15 L2.0 1.05 2.05 0.95 2.2 1.0 2.3 1.05 2.5 1.0 2.8 0.8 2.75 0.75 2.35 0.9 2.15 0.8 Q2.0 0.75 1.8 1.1 L1.6 0.8 1.5 0.8 1.65 1.0 1.75 1.2 1.85 1.2 1.95 1.15" fill="#8f8881" fill-rule="evenodd" stroke="none"/>
      <path d="M-2.2 3.35 L-2.2 3.4 -2.4 3.45 -2.55 3.55 -3.8 4.35 -4.0 4.5 -4.2 4.6 -4.25 4.65 -4.3 4.7 -5.45 5.9 -6.65 7.1 -7.1 7.1 -7.3 7.0 -7.5 6.75 -7.35 6.4 -7.05 6.2 -5.15 4.45 -4.1 3.0 -3.9 2.65 -3.45 1.9 -3.25 2.15 -2.8 2.65 -2.35 3.05 -2.2 3.35 M1.25 -3.6 L1.35 -3.6 1.3 -3.5 1.45 -3.25 1.6 -3.05 1.45 -2.75 1.25 -2.65 1.2 -2.7 1.1 -2.95 1.05 -2.8 1.0 -2.8 0.9 -2.9 Q0.7 -2.95 0.75 -3.15 L1.05 -3.3 1.25 -3.2 1.35 -2.95 1.4 -3.0 1.25 -3.2 1.15 -3.5 1.25 -3.6 M0.05 -2.65 L0.35 -2.65 0.4 -2.5 0.5 -2.2 0.75 -2.25 0.8 -2.2 0.6 -2.0 0.4 -1.95 0.3 -2.15 0.05 -2.35 0.05 -2.4 0.05 -2.65 M0.4 -1.6 L0.35 -1.45 0.2 -1.25 0.05 -1.55 -0.3 -1.35 -0.25 -1.55 0.2 -1.65 0.25 -1.75 0.3 -1.75 0.4 -1.75 0.4 -1.6 M2.2 -3.0 L2.4 -2.7 Q2.35 -2.6 2.3 -2.65 L2.2 -2.65 2.15 -2.65 2.3 -2.7 2.3 -2.8 2.2 -2.95 Q2.05 -2.95 2.15 -3.1 L2.55 -3.55 2.6 -3.55 2.5 -3.4 2.55 -3.3 2.5 -3.15 2.5 -3.1 2.35 -3.15 2.2 -3.0 M1.95 1.15 L1.85 1.2 1.75 1.2 1.65 1.0 1.5 0.8 1.6 0.8 1.8 1.1 Q2.0 0.75 2.15 0.8 L2.35 0.9 2.75 0.75 2.8 0.8 2.5 1.0 2.3 1.05 2.2 1.0 2.05 0.95 2.0 1.05 1.95 1.15 M3.2 0.3 L3.4 0.4 3.4 0.35 3.4 0.0 3.2 -0.2 3.3 -0.3 3.5 0.0 3.55 0.4 3.3 0.65 3.25 0.55 3.15 0.5 3.0 0.5 2.85 0.55 2.6 0.3 Q2.45 0.0 2.65 0.05 L2.9 0.35 3.05 0.3 3.2 0.3 M3.95 -0.25 L3.85 -0.25 3.7 -0.45 3.6 -0.65 3.65 -0.65 3.7 -0.6 3.85 -0.65 3.95 -0.7 3.95 -0.8 3.9 -1.0 4.05 -1.15 4.25 -1.3 4.35 -1.3 4.1 -0.9 4.1 -0.7 4.15 -0.5 3.95 -0.25" fill="#605a53" fill-rule="evenodd" stroke="none"/>
      <path d="M2.5 -2.35 L3.1 -1.7 3.0 -0.8 Q2.75 -0.3 2.3 -0.2 L1.4 -0.3 1.3 -0.35 1.2 -0.4 1.1 -0.5 1.0 -0.55 1.0 -0.7 0.9 -0.75 0.9 -0.9 0.8 -1.0 0.8 -1.15 0.9 -1.9 1.65 -2.45 2.5 -2.35" fill="#9a7c76" fill-rule="evenodd" stroke="none"/>
      <path d="M-1.4 2.75 L-1.45 2.9 -2.05 3.3 -2.2 3.35 -2.35 3.05 -2.8 2.65 -3.25 2.15 -3.45 1.9 -3.45 1.85 -3.2 1.55 Q-3.05 1.35 -2.75 1.35 L-2.45 1.75 -2.1 2.1 -1.55 2.6 -1.4 2.75" fill="#999999" fill-rule="evenodd" stroke="none"/>
      <path d="M-2.0 -5.45 L-1.85 -5.65 -1.25 -6.1 -1.2 -6.15 -1.1 -6.2 -1.05 -6.2 -1.0 -6.25 -0.95 -6.3 -0.85 -6.35 -0.8 -6.35 -0.75 -6.4 -0.7 -6.45 -0.65 -6.45 -0.55 -6.45 -0.5 -6.5 -0.3 -6.55 -0.25 -6.6 -0.2 -6.65 -0.15 -6.65 -0.1 -6.65 -0.1 -6.7 0.05 -6.75 0.15 -6.7 0.15 -6.75 0.2 -6.75 Q2.3 -7.4 4.25 -6.35 6.2 -5.3 6.8 -3.15 7.45 -1.0 6.4 0.95 5.35 2.9 3.2 3.5 L-0.5 3.25 -1.4 2.75 -1.45 2.9 -2.05 3.3 -2.2 3.35 -2.2 3.4 -2.4 3.45 -2.55 3.55 -3.8 4.35 -4.0 4.5 -4.2 4.6 -4.25 4.65 -4.3 4.7 -5.45 5.9 -6.65 7.1 -7.1 7.1 -7.3 7.0 -7.5 6.75 -7.35 6.4 -7.05 6.2 -5.15 4.45 -4.1 3.0 -3.9 2.65 -3.45 1.9 -3.45 1.85 -3.2 1.55 Q-3.05 1.35 -2.75 1.35 L-3.1 0.65 -3.3 0.25 -3.5 -0.3 Q-4.05 -2.3 -3.0 -4.15 L-2.8 -4.5 -2.75 -4.6 -2.0 -5.45 M0.45 -5.8 L0.6 -5.9 Q2.5 -6.45 4.2 -5.5 5.95 -4.55 6.5 -2.7 7.05 -0.8 6.15 0.95 5.2 2.65 3.25 3.2 1.45 3.8 -0.3 2.85 L-0.7 2.55 Q-0.85 2.45 -1.1 2.3 L-1.4 2.0 -1.7 1.65 -1.95 1.3 -2.2 0.9 -2.4 0.45 -2.55 0.05 -2.7 -0.65 Q-2.95 -2.2 -2.2 -3.6 L-2.1 -3.7 Q-1.25 -5.25 0.45 -5.8 M-2.75 1.35 L-2.45 1.75 -2.1 2.1 -1.55 2.6 -1.4 2.75 M-2.2 3.35 L-2.35 3.05 -2.8 2.65 -3.25 2.15 -3.45 1.9" fill="none" stroke="#000000" stroke-linecap="round" stroke-linejoin="round" stroke-opacity="0.4" stroke-width="0.05"/>
    </g>
  </defs>
</svg>
