<?xml version="1.0" encoding="UTF-8" standalone="no"?>
<svg xmlns:xlink="http://www.w3.org/1999/xlink" height="19.65px" width="19.65px" xmlns="http://www.w3.org/2000/svg">
  <g transform="matrix(1.0, 0.0, 0.0, 1.0, 8.7, 9.45)">
    <use height="14.05" transform="matrix(1.0, 0.0, 0.0, 1.0, -7.25, -7.4)" width="14.75" xlink:href="#shape0"/>
  </g>
  <defs>
    <g id="shape0" transform="matrix(1.0, 0.0, 0.0, 1.0, 7.25, 7.4)">
      <path d="M5.15 -5.35 Q3.95 -6.25 2.45 -6.05 L2.2 -6.0 2.15 -5.95 Q0.7 -5.6 -0.35 -4.45 L-0.4 -4.4 -0.55 -4.35 Q-1.75 -2.85 -1.8 -1.1 -1.8 0.5 -0.85 1.45 L-0.8 1.5 Q0.35 2.55 2.0 2.3 3.65 2.05 4.9 0.6 6.15 -0.85 6.2 -2.6 6.2 -4.3 5.15 -5.35 M7.5 -2.5 Q7.45 -0.25 5.9 1.5 4.4 3.3 2.25 3.65 L-0.4 3.3 -0.65 3.25 -1.9 3.4 -3.4 4.1 -5.55 6.25 Q-6.2 6.8 -6.6 6.6 -7.0 6.5 -7.2 5.7 L-7.2 5.6 -7.15 5.45 -6.3 4.8 -4.65 3.45 Q-3.85 2.75 -3.45 1.85 L-3.4 1.8 -3.0 -0.2 -3.05 -1.25 Q-3.05 -3.45 -1.5 -5.2 0.05 -7.05 2.15 -7.35 4.35 -7.65 5.85 -6.25 L6.05 -6.05 6.1 -6.0 Q7.5 -4.7 7.5 -2.5 M-2.5 2.1 L-2.55 2.35 -2.2 2.3 -1.75 2.25 -2.3 1.5 -2.5 2.1" fill="#5f66a9" fill-rule="evenodd" stroke="none"/>
    </g>
  </defs>
</svg>
