<?xml version="1.0" encoding="UTF-8" standalone="no"?>
<svg xmlns:xlink="http://www.w3.org/1999/xlink" height="19.65px" width="19.65px" xmlns="http://www.w3.org/2000/svg">
  <g transform="matrix(1.0, 0.0, 0.0, 1.0, 8.7, 9.45)">
    <use height="11.9" transform="matrix(1.0, 0.0, 0.0, 1.0, -8.15, -5.9)" width="15.3" xlink:href="#shape0"/>
  </g>
  <defs>
    <g id="shape0" transform="matrix(1.0, 0.0, 0.0, 1.0, 8.15, 5.9)">
      <path d="M-0.7 -2.9 Q-1.25 -3.15 -1.75 -3.85 L0.15 -5.7 0.95 -4.5 -0.7 -2.9 M2.65 -3.35 Q3.8 -1.25 7.15 -1.15 5.65 4.95 0.25 3.5 1.45 0.95 0.3 -1.0 L2.65 -3.35" fill="#e0e8eb" fill-rule="evenodd" stroke="none"/>
      <path d="M0.95 -4.5 L2.3 -5.9 3.75 -4.45 2.65 -3.35 0.3 -1.0 -6.7 6.0 -8.15 4.55 -0.7 -2.9 0.95 -4.5" fill="#725327" fill-rule="evenodd" stroke="none"/>
    </g>
  </defs>
</svg>
