<?xml version="1.0" encoding="UTF-8" standalone="no"?>
<svg xmlns:xlink="http://www.w3.org/1999/xlink" height="45.0px" width="20.95px" xmlns="http://www.w3.org/2000/svg">
  <g transform="matrix(1.0, 0.0, 0.0, 1.0, 8.85, 32.0)">
    <use height="45.0" id="_p1" transform="matrix(1.0, 0.0, 0.0, 1.0, -8.85, -32.0)" width="18.35" xlink:href="#sprite0"/>
  </g>
  <defs>
    <g id="sprite0" transform="matrix(1.0, 0.0, 0.0, 1.0, 9.15, 20.4)">
      <use height="40.75" id="_col3" transform="matrix(1.0, 0.0, 0.0, 1.0, -9.15, -20.4)" width="18.35" xlink:href="#sprite1"/>
    </g>
    <g id="sprite1" transform="matrix(1.0, 0.0, 0.0, 1.0, 9.15, 21.65)">
      <use height="40.75" transform="matrix(1.0, 0.0, 0.0, 1.0, -9.15, -21.65)" width="18.35" xlink:href="#shape0"/>
    </g>
    <g id="shape0" transform="matrix(1.0, 0.0, 0.0, 1.0, 9.15, 21.65)">
      <path d="M-1.0 -21.5 Q-0.15 -21.5 0.15 -20.75 L0.25 -19.95 0.15 -18.65 0.15 -18.5 -0.05 -18.45 1.95 -18.0 1.45 -17.4 1.05 -17.1 Q0.8 -17.1 0.3 -16.5 -0.25 -15.9 -0.9 -15.9 L-0.8 -15.75 -1.25 -15.75 -1.35 -15.6 Q0.6 -13.85 0.6 -13.35 0.6 -13.15 0.75 -13.2 L0.9 -13.05 0.45 -10.2 Q0.0 -8.0 0.0 -6.6 L-0.35 -4.25 -0.1 -1.85 0.2 -0.75 0.65 0.3 1.1 1.3 1.25 1.45 1.35 1.65 2.55 3.6 3.2 4.45 3.4 4.85 3.6 5.25 1.75 15.2 1.05 18.65 1.0 18.65 0.05 18.9 -1.65 19.1 -3.15 18.8 -3.5 18.65 -3.55 18.6 -5.25 17.1 -5.15 16.75 -6.35 14.95 -7.15 13.7 -8.05 11.9 -8.25 11.3 -8.45 10.4 -8.7 5.6 -8.7 4.1 -9.0 0.5 -9.15 -1.7 -8.7 -6.5 -8.15 -11.85 -8.0 -14.0 -8.4 -14.8 Q-8.4 -15.95 -7.7 -17.35 -6.95 -18.95 -5.8 -19.55 L-1.9 -21.4 -1.05 -21.5 -1.0 -21.5 M-8.0 -14.0 L-7.95 -14.4 -6.45 -15.25 -5.85 -15.35 -1.25 -15.75 -5.85 -15.35 -6.45 -15.25 -7.95 -14.4 -8.0 -14.0 M-0.05 -18.45 L-1.2 -18.1 -2.4 -17.7 Q-5.65 -16.5 -7.15 -15.25 L-7.95 -14.4 -7.15 -15.25 Q-5.65 -16.5 -2.4 -17.7 L-1.2 -18.1 -0.05 -18.45" fill="#d6baba" fill-rule="evenodd" stroke="none"/>
      <path d="M3.45 -18.9 L1.6 -18.8 0.15 -18.5 1.6 -18.8 3.45 -18.9 M0.15 -18.5 L0.15 -18.65 0.25 -19.95 0.15 -20.75 Q-0.15 -21.5 -1.0 -21.5 L0.2 -21.65 Q2.9 -21.65 5.35 -20.35 7.75 -19.05 7.75 -17.7 L8.0 -16.8 8.2 -16.6 8.25 -15.15 7.85 -11.45 8.0 -10.55 8.1 -9.45 8.25 -7.35 8.85 -5.3 8.95 -4.5 9.2 -1.65 9.05 0.1 8.9 1.8 8.7 3.75 9.15 8.1 Q9.15 10.05 7.4 13.0 L4.95 16.4 4.0 17.55 3.75 17.65 2.8 18.0 Q1.8 18.35 1.05 18.65 L1.75 15.2 3.6 5.25 3.4 4.85 3.2 4.45 2.55 3.6 1.35 1.65 1.25 1.45 1.1 1.3 0.65 0.3 0.2 -0.75 -0.1 -1.85 -0.35 -4.25 0.0 -6.6 Q0.0 -8.0 0.45 -10.2 L0.9 -13.05 0.75 -13.2 Q0.6 -13.15 0.6 -13.35 0.6 -13.85 -1.35 -15.6 L-1.25 -15.75 -0.8 -15.75 -0.9 -15.9 Q-0.25 -15.9 0.3 -16.5 0.8 -17.1 1.05 -17.1 L1.45 -17.4 1.95 -18.0 -0.05 -18.45 0.15 -18.5 M2.7 -15.95 L-0.8 -15.75 2.7 -15.95" fill="#a78383" fill-rule="evenodd" stroke="none"/>
      <path d="M0.15 -18.5 L1.6 -18.8 3.45 -18.9 M0.15 -18.5 L-0.05 -18.45 M-0.8 -15.75 L2.7 -15.95 M-1.25 -15.75 L-5.85 -15.35 -6.45 -15.25 -7.95 -14.4 -8.0 -14.0 -8.15 -11.85 -8.7 -6.5 -9.15 -1.7 -9.0 0.5 -8.7 4.1 -8.7 5.6 -8.45 10.4 -8.25 11.3 -8.05 11.9 M-3.55 18.6 L-3.5 18.65 M7.4 13.0 Q9.15 10.05 9.15 8.1 L8.7 3.75 8.9 1.8 9.05 0.1 9.2 -1.65 8.95 -4.5 8.85 -5.3 8.25 -7.35 8.1 -9.45 8.0 -10.55 7.85 -11.45 8.25 -15.15 8.2 -16.6 M-7.95 -14.4 L-7.15 -15.25 Q-5.65 -16.5 -2.4 -17.7 L-1.2 -18.1 -0.05 -18.45 M-1.25 -15.75 L-0.8 -15.75" fill="none" stroke="#000000" stroke-linecap="round" stroke-linejoin="round" stroke-opacity="0.3019608" stroke-width="0.05"/>
    </g>
  </defs>
</svg>
