<?xml version="1.0" encoding="UTF-8" standalone="no"?>
<svg xmlns:xlink="http://www.w3.org/1999/xlink" height="44.75px" width="45.25px" xmlns="http://www.w3.org/2000/svg">
  <g transform="matrix(1.0, 0.0, 0.0, 1.0, 30.15, 20.3)">
    <use height="37.75" id="_p5" transform="matrix(1.0, 0.0, 0.0, 1.0, -25.45, -17.2)" width="38.15" xlink:href="#sprite0"/>
  </g>
  <defs>
    <g id="sprite0" transform="matrix(1.0, 0.0, 0.0, 1.0, 25.45, 17.2)">
      <use height="37.75" id="_p7" transform="matrix(1.0, 0.0, 0.0, 1.0, -25.45, -17.2)" width="38.15" xlink:href="#sprite1"/>
    </g>
    <g id="sprite1" transform="matrix(1.0, 0.0, 0.0, 1.0, 25.45, 17.2)">
      <use height="14.1" id="_col0" transform="matrix(1.0, 0.0, 0.0, 1.0, -7.0, -7.05)" width="14.0" xlink:href="#sprite2"/>
      <use height="22.3" id="_p1" transform="matrix(-0.7987, 0.5992, 0.5992, 0.7987, -0.6469, -17.1943)" width="24.6" xlink:href="#sprite3"/>
    </g>
    <g id="sprite2" transform="matrix(1.0, 0.0, 0.0, 1.0, 7.0, 7.05)">
      <use height="14.1" transform="matrix(1.0, 0.0, 0.0, 1.0, -7.0, -7.05)" width="14.0" xlink:href="#shape0"/>
    </g>
    <g id="shape0" transform="matrix(1.0, 0.0, 0.0, 1.0, 7.0, 7.05)">
      <path d="M1.05 7.0 Q2.3 5.95 3.0 3.85 L3.85 -1.05 Q3.75 -3.05 1.1 -6.05 L0.4 -6.9 Q0.6 -7.15 0.7 -6.9 L0.95 -6.9 Q4.1 -6.6 5.85 -4.25 7.35 -2.15 6.9 1.2 6.55 3.6 4.95 5.2 L4.35 5.75 Q3.2 6.65 1.95 6.9 L1.05 7.0" fill="#c6886a" fill-rule="evenodd" stroke="none"/>
      <path d="M0.4 -6.9 L1.1 -6.05 Q3.75 -3.05 3.85 -1.05 L3.0 3.85 Q2.3 5.95 1.05 7.0 L0.95 7.05 0.8 7.05 -1.15 6.95 -1.4 6.7 Q-4.05 6.25 -5.55 4.25 -6.85 2.5 -6.9 0.45 L-7.0 -1.2 Q-6.5 -3.55 -4.9 -5.15 -4.75 -5.55 -4.2 -5.75 -3.55 -6.4 -2.6 -6.55 -1.25 -7.25 0.4 -6.9" fill="#efcdaf" fill-rule="evenodd" stroke="none"/>
      <path d="M4.95 5.2 Q6.55 3.6 6.9 1.2 7.35 -2.15 5.85 -4.25 4.1 -6.6 0.95 -6.9 L0.7 -6.9 Q0.6 -7.15 0.4 -6.9 -1.25 -7.25 -2.6 -6.55" fill="none" stroke="#000000" stroke-linecap="round" stroke-linejoin="round" stroke-opacity="0.3019608" stroke-width="0.05"/>
    </g>
  </defs>
</svg>
