<?xml version="1.0" encoding="UTF-8" standalone="no"?>
<svg xmlns:xlink="http://www.w3.org/1999/xlink" height="10.05px" width="24.85px" xmlns="http://www.w3.org/2000/svg">
  <g transform="matrix(1.0, 0.0, 0.0, 1.0, 12.45, 5.0)">
    <use height="10.05" transform="matrix(1.0, 0.0, 0.0, 1.0, -12.45, -5.0)" width="24.85" xlink:href="#shape0"/>
  </g>
  <defs>
    <g id="shape0" transform="matrix(1.0, 0.0, 0.0, 1.0, 12.45, 5.0)">
      <path d="M-10.5 -3.95 L-10.55 -2.4 Q-10.55 -1.85 -11.15 -1.5 -11.8 -1.2 -12.25 -2.3 L-12.45 -3.35 Q-12.45 -5.05 -11.4 -5.0 -10.4 -4.95 -10.5 -3.95 M8.2 5.05 Q5.4 5.05 3.8 4.25 2.55 3.55 2.55 2.7 2.55 -0.05 7.5 0.3 12.4 0.65 12.4 2.85 12.4 3.5 11.75 4.1 10.65 5.05 8.2 5.05" fill="#f29595" fill-rule="evenodd" stroke="none"/>
    </g>
  </defs>
</svg>
