<?xml version="1.0" encoding="UTF-8" standalone="no"?>
<svg xmlns:xlink="http://www.w3.org/1999/xlink" height="11.35px" width="11.65px" xmlns="http://www.w3.org/2000/svg">
  <g transform="matrix(1.0, 0.0, 0.0, 1.0, 87.9, 16.65)">
    <use height="11.35" transform="matrix(1.0, 0.0, 0.0, 1.0, -87.9, -16.65)" width="11.65" xlink:href="#shape0"/>
  </g>
  <defs>
    <g id="shape0" transform="matrix(1.0, 0.0, 0.0, 1.0, 87.9, 16.65)">
      <path d="M-84.65 -14.15 L-84.9 -14.3 -84.75 -14.15 -84.65 -14.15 M-82.25 -10.7 Q-84.45 -10.7 -86.75 -13.65 -89.0 -16.65 -86.9 -16.65 -80.8 -14.2 -80.8 -12.3 -80.8 -11.3 -81.5 -10.9 L-82.25 -10.7 M-83.45 -6.75 Q-82.3 -8.25 -81.05 -8.25 L-79.85 -8.1 -79.35 -7.85 Q-79.05 -7.55 -79.05 -7.2 -79.05 -5.85 -80.15 -5.45 L-81.3 -5.3 Q-84.65 -5.3 -83.45 -6.75 M-76.8 -11.65 Q-76.25 -10.7 -76.25 -10.2 -76.25 -9.8 -76.7 -9.8 -79.05 -12.65 -77.7 -12.65 -77.35 -12.65 -76.8 -11.65" fill="#ffd633" fill-rule="evenodd" stroke="none"/>
    </g>
  </defs>
</svg>
