<?xml version="1.0" encoding="UTF-8" standalone="no"?>
<svg xmlns:xlink="http://www.w3.org/1999/xlink" height="23.8px" width="22.35px" xmlns="http://www.w3.org/2000/svg">
  <g transform="matrix(1.0, 0.0, 0.0, 1.0, 11.2, 11.9)">
    <use height="23.8" transform="matrix(1.0, 0.0, 0.0, 1.0, -11.2, -11.9)" width="22.35" xlink:href="#shape0"/>
  </g>
  <defs>
    <g id="shape0" transform="matrix(1.0, 0.0, 0.0, 1.0, 11.2, 11.9)">
      <path d="M2.45 7.9 L2.95 7.65 Q4.75 6.6 5.4 4.75 L6.7 1.15 7.2 -0.5 7.75 -2.0 8.35 -4.35 9.0 -8.25 9.1 -9.75 9.0 -11.25 Q11.1 -10.0 11.15 -8.25 L10.95 -4.75 10.2 -1.75 10.05 -1.35 8.65 2.9 7.45 6.95 Q6.85 9.05 4.65 10.15 L2.1 11.2 2.8 9.8 3.0 8.75 Q3.0 8.25 2.7 8.05 L2.45 7.9" fill="#d1b6b6" fill-rule="evenodd" stroke="none"/>
      <path d="M2.1 11.2 L0.9 11.55 -2.15 11.9 -4.25 11.65 -7.05 10.85 Q-8.4 10.2 -9.05 9.35 -10.5 7.7 -10.85 5.55 L-11.05 3.85 -11.15 -7.25 Q-10.35 -12.9 -8.65 -11.65 L-8.4 -5.05 -8.4 -1.6 Q-8.5 1.85 -7.9 4.65 L-7.3 7.0 -4.95 7.7 -0.95 8.35 -0.25 8.35 2.1 8.0 2.45 7.9 2.7 8.05 Q3.0 8.25 3.0 8.75 L2.8 9.8 2.1 11.2" fill="#ffffff" fill-rule="evenodd" stroke="none"/>
      <path d="M2.45 7.9 L2.95 7.65 Q4.75 6.6 5.4 4.75 L6.7 1.15 7.2 -0.5 7.75 -2.0 8.35 -4.35 9.0 -8.25 9.1 -9.75 9.0 -11.25 Q11.1 -10.0 11.15 -8.25 L10.95 -4.75 10.2 -1.75 10.05 -1.35 8.65 2.9 7.45 6.95 Q6.85 9.05 4.65 10.15 L2.1 11.2 0.9 11.55 -2.15 11.9 -4.25 11.65 -7.05 10.85 Q-8.4 10.2 -9.05 9.35 -10.5 7.7 -10.85 5.55 L-11.05 3.85 -11.15 -7.25 Q-10.35 -12.9 -8.65 -11.65 L-8.4 -5.05 -8.4 -1.6 Q-8.5 1.85 -7.9 4.65 L-7.3 7.0 -4.95 7.7 -0.95 8.35 -0.25 8.35 2.1 8.0 2.45 7.9 Z" fill="none" stroke="#000000" stroke-linecap="round" stroke-linejoin="round" stroke-opacity="0.3019608" stroke-width="0.05"/>
    </g>
  </defs>
</svg>
