<?xml version="1.0" encoding="UTF-8" standalone="no"?>
<svg xmlns:xlink="http://www.w3.org/1999/xlink" height="41.25px" width="61.3px" xmlns="http://www.w3.org/2000/svg">
  <g transform="matrix(1.0, 0.0, 0.0, 1.0, 30.65, 22.25)">
    <use height="38.0" id="_col2" transform="matrix(1.0, 0.0, 0.0, 1.0, -30.65, -19.0)" width="61.3" xlink:href="#sprite0"/>
    <use height="31.3" transform="matrix(1.0, 0.0, 0.0, 1.0, -26.6, -18.7)" width="31.85" xlink:href="#sprite1"/>
    <use height="10.65" transform="matrix(1.0, 0.0, 0.0, 1.0, -24.9, -22.25)" width="33.8" xlink:href="#sprite2"/>
    <use height="8.45" transform="matrix(1.0, 0.0, 0.0, 1.0, -21.6, -20.15)" width="11.55" xlink:href="#shape3"/>
  </g>
  <defs>
    <g id="sprite0" transform="matrix(1.0, 0.0, 0.0, 1.0, 33.4, 19.15)">
      <use height="38.0" transform="matrix(1.0, 0.0, 0.0, 1.0, -33.4, -19.15)" width="61.3" xlink:href="#shape0"/>
    </g>
    <g id="shape0" transform="matrix(1.0, 0.0, 0.0, 1.0, 33.4, 19.15)">
      <path d="M-10.1 -12.3 L-7.35 -12.5 Q-3.1 -13.05 1.85 -14.7 L6.1 -17.7 7.4 -16.75 11.2 -13.4 Q12.95 -11.6 14.2 -9.6 17.15 -5.45 18.85 -1.45 19.4 -0.05 25.35 9.5 L27.9 13.55 22.05 13.15 22.7 15.5 14.05 14.85 12.1 18.25 5.8 17.45 4.7 14.8 4.1 13.4 0.45 5.2 0.35 5.25 1.05 10.3 Q1.8 14.9 1.6 16.55 L1.55 16.85 1.5 16.8 -0.7 16.55 -4.8 18.85 -6.2 8.4 -6.25 8.0 -7.75 -0.45 -8.9 -5.7 -9.1 -6.75 -10.1 -12.3 M1.7 -5.75 Q4.65 2.25 6.95 7.35 L7.65 8.9 12.1 18.25 7.65 8.9 6.95 7.35 Q4.65 2.25 1.7 -5.75 M8.4 -8.15 L19.1 9.25 22.7 15.5 19.1 9.25 8.4 -8.15 M-30.75 10.2 L-29.4 7.6 -28.95 6.75 -28.25 5.25 Q-27.35 2.8 -26.85 -1.35 -26.45 -4.3 -26.4 -6.2 L-26.1 -2.95 Q-25.7 0.95 -26.05 3.55 L-26.55 6.6 -26.95 8.4 -27.25 9.8 -30.75 10.2 M-21.35 14.65 L-18.9 7.95 -18.0 3.1 Q-17.85 2.2 -17.85 -1.0 L-17.75 -5.3 -17.45 -7.3 Q-16.05 5.2 -15.65 11.05 L-15.45 15.1 -21.35 14.65 M-13.0 6.05 L-13.05 6.05 -13.05 6.0 -13.0 6.05" fill="#d6baba" fill-rule="evenodd" stroke="none"/>
      <path d="M-10.1 -12.3 L-9.1 -6.75 -8.9 -5.7 -7.75 -0.45 -6.25 8.0 -6.2 8.4 -4.8 18.85 -14.3 15.2 -15.45 15.1 -15.65 11.05 Q-16.05 5.2 -17.45 -7.3 L-17.75 -5.3 -17.85 -1.0 Q-17.85 2.2 -18.0 3.1 L-18.9 7.95 -21.35 14.65 -26.55 9.65 -27.25 9.8 -26.95 8.4 -26.55 6.6 -26.05 3.55 Q-25.7 0.95 -26.1 -2.95 L-26.4 -6.2 Q-26.45 -4.3 -26.85 -1.35 -27.35 2.8 -28.25 5.25 L-28.95 6.75 -29.4 7.6 -30.75 10.2 -32.7 8.75 Q-33.5 8.15 -33.4 7.45 L-33.35 7.4 -33.2 7.25 -33.0 7.05 -32.5 6.25 -31.9 5.25 -31.65 4.95 -31.4 4.45 -30.8 3.25 -30.7 2.95 -29.95 0.8 Q-29.75 0.1 -29.7 -1.1 L-29.65 -2.55 -29.55 -4.4 -29.5 -6.0 -29.6 -8.7 -29.75 -11.2 -29.7 -12.45 Q-29.5 -15.1 -28.2 -17.6 L-27.3 -19.15 Q-26.55 -17.55 -25.1 -16.45 -20.75 -13.25 -16.15 -12.9 L-12.7 -12.4 -10.1 -12.3 M1.55 16.85 L1.6 16.55 Q1.8 14.9 1.05 10.3 L0.35 5.25 0.45 5.2 4.1 13.4 4.7 14.8 5.8 17.45 1.55 16.85 M-26.65 -8.85 Q-26.45 -8.2 -26.4 -6.2 -26.45 -8.2 -26.65 -8.85 M-13.0 6.05 L-13.05 6.0 -13.05 6.05 -13.0 6.05" fill="#ffffff" fill-rule="evenodd" stroke="none"/>
      <path d="M-8.9 -5.7 L-7.75 -0.45 -6.25 8.0 -6.2 8.4 -4.8 18.85 -0.7 16.55 1.5 16.8 M5.8 17.45 L12.1 18.25 7.65 8.9 6.95 7.35 Q4.65 2.25 1.7 -5.75 M22.7 15.5 L22.05 13.15 27.9 13.55 25.35 9.5 Q19.4 -0.05 18.85 -1.45 17.15 -5.45 14.2 -9.6 12.95 -11.6 11.2 -13.4 L7.4 -16.75 6.1 -17.7 M1.55 16.85 L5.8 17.45 M12.1 18.25 L14.05 14.85 22.7 15.5 19.1 9.25 8.4 -8.15 M-27.3 -19.15 L-28.2 -17.6 Q-29.5 -15.1 -29.7 -12.45 L-29.75 -11.2 -29.6 -8.7 -29.5 -6.0 -29.55 -4.4 -29.65 -2.55 -29.7 -1.1 Q-29.75 0.1 -29.95 0.8 L-30.7 2.95 -30.8 3.25 -31.4 4.45 -31.65 4.95 -31.9 5.25 -32.5 6.25 -33.0 7.05 -33.2 7.25 -33.35 7.4 -33.4 7.45 Q-33.5 8.15 -32.7 8.75 L-30.75 10.2 -29.4 7.6 -28.95 6.75 -28.25 5.25 Q-27.35 2.8 -26.85 -1.35 -26.45 -4.3 -26.4 -6.2 -26.45 -8.2 -26.65 -8.85 M-27.25 9.8 L-26.55 9.65 -21.35 14.65 -18.9 7.95 -18.0 3.1 Q-17.85 2.2 -17.85 -1.0 L-17.75 -5.3 -17.45 -7.3 M-15.45 15.1 L-14.3 15.2 -4.8 18.85 M-30.75 10.2 L-27.25 9.8 M-21.35 14.65 L-15.45 15.1" fill="none" stroke="#000000" stroke-linecap="round" stroke-linejoin="round" stroke-opacity="0.3019608" stroke-width="0.05"/>
    </g>
    <g id="sprite1" transform="matrix(1.0, 0.0, 0.0, 1.0, 0.0, 0.0)">
      <use height="31.3" transform="matrix(1.0, 0.0, 0.0, 1.0, 0.0, 0.0)" width="31.85" xlink:href="#shape1"/>
    </g>
    <g id="shape1" transform="matrix(1.0, 0.0, 0.0, 1.0, 0.0, 0.0)">
      <path d="M2.45 0.15 L3.05 0.0 14.7 1.5 15.1 1.6 16.05 1.9 16.85 2.2 16.9 2.25 16.95 2.25 16.85 2.35 Q16.65 5.05 14.85 6.7 11.7 9.5 3.8 9.75 L3.7 9.8 6.65 10.15 9.55 10.3 12.85 10.15 17.15 9.35 17.2 9.4 17.2 9.35 17.45 9.25 18.5 8.25 17.6 9.8 15.4 12.5 12.05 16.25 Q10.45 17.85 7.55 19.85 4.7 21.8 2.6 22.5 L2.3 22.2 2.0 21.9 1.9 21.8 1.8 21.65 1.25 21.05 1.2 20.25 Q1.15 15.9 0.0 11.85 2.35 9.05 1.9 5.6 1.7 3.85 2.05 2.0 L2.25 0.95 2.3 0.65 2.45 0.15" fill="#ffffff" fill-rule="evenodd" stroke="none"/>
      <path d="M16.9 2.25 L17.9 2.6 20.85 3.7 Q22.05 3.7 23.6 4.55 L24.0 4.75 Q26.9 7.9 26.65 12.65 26.45 16.8 29.3 19.6 30.65 20.85 30.6 22.7 30.45 27.2 31.85 31.3 24.95 31.15 19.1 29.75 13.3 28.3 9.0 26.7 5.3 25.3 2.3 22.2 L2.6 22.5 Q4.7 21.8 7.55 19.85 10.45 17.85 12.05 16.25 L15.4 12.5 17.6 9.8 18.5 8.25 17.45 9.25 17.2 9.35 17.2 9.4 17.15 9.35 12.85 10.15 9.55 10.3 6.65 10.15 3.7 9.8 3.8 9.75 Q11.7 9.5 14.85 6.7 16.65 5.05 16.85 2.35 L16.95 2.25 16.9 2.25 M2.3 0.65 L2.1 0.25 2.45 0.15 2.3 0.65" fill="#d6baba" fill-rule="evenodd" stroke="none"/>
      <path d="M23.6 4.55 L24.0 4.75 Q26.9 7.9 26.65 12.65 26.45 16.8 29.3 19.6 30.65 20.85 30.6 22.7 30.45 27.2 31.85 31.3 24.95 31.15 19.1 29.75 13.3 28.3 9.0 26.7 5.3 25.3 2.3 22.2 L2.0 21.9 1.9 21.8 1.8 21.65 1.25 21.05 1.2 20.25 Q1.15 15.9 0.0 11.85 2.35 9.05 1.9 5.6 1.7 3.85 2.05 2.0 L2.25 0.95 2.3 0.65 M2.45 0.15 L2.3 0.65" fill="none" stroke="#000000" stroke-linecap="round" stroke-linejoin="round" stroke-opacity="0.3019608" stroke-width="0.05"/>
    </g>
    <g id="sprite2" transform="matrix(1.0, 0.0, 0.0, 1.0, -7.95, 10.2)">
      <use height="10.65" transform="matrix(1.0, 0.0, 0.0, 1.0, 7.95, -10.2)" width="33.8" xlink:href="#shape2"/>
    </g>
    <g id="shape2" transform="matrix(1.0, 0.0, 0.0, 1.0, -7.95, 10.2)">
      <path d="M27.4 0.3 L26.3 0.4 21.95 0.35 21.9 0.35 17.8 -0.2 Q14.75 -1.25 12.5 -2.7 L12.25 -2.85 Q10.8 -3.85 9.65 -5.0 L7.95 -7.1 8.7 -8.15 8.95 -8.45 10.45 -10.2 Q11.8 -9.0 13.25 -8.1 17.35 -5.4 21.9 -5.05 L26.5 -5.3 27.6 -5.5 30.6 -6.1 30.6 -5.85 Q30.6 -5.2 26.8 -3.95 L27.2 -0.6 27.4 0.3 M13.9 -4.75 L13.7 -3.85 Q13.7 -3.0 14.85 -2.2 16.05 -1.35 17.5 -1.35 18.3 -1.35 18.8 -1.7 L19.25 -2.4 Q19.25 -3.75 16.6 -4.6 L13.9 -4.75" fill="#a86b60" fill-rule="evenodd" stroke="none"/>
      <path d="M30.6 -6.1 Q36.15 -7.2 38.9 -8.35 L40.95 -6.1 41.75 -5.35 40.9 -3.85 Q34.45 -0.3 27.4 0.3 L27.2 -0.6 26.8 -3.95 Q30.6 -5.2 30.6 -5.85 L30.6 -6.1 M13.9 -4.75 L16.6 -4.6 Q19.25 -3.75 19.25 -2.4 L18.8 -1.7 Q18.3 -1.35 17.5 -1.35 16.05 -1.35 14.85 -2.2 13.7 -3.0 13.7 -3.85 L13.9 -4.75" fill="#7f261b" fill-rule="evenodd" stroke="none"/>
      <path d="M27.4 0.3 L26.3 0.4 21.95 0.35 21.9 0.35 17.8 -0.2 Q14.75 -1.25 12.5 -2.7 L12.25 -2.85 Q10.8 -3.85 9.65 -5.0 L7.95 -7.1 8.7 -8.15 8.95 -8.45 10.45 -10.2 Q11.8 -9.0 13.25 -8.1 17.35 -5.4 21.9 -5.05 L26.5 -5.3 27.6 -5.5 30.6 -6.1 Q36.15 -7.2 38.9 -8.35 L40.95 -6.1 41.75 -5.35 40.9 -3.85 Q34.45 -0.3 27.4 0.3 Z" fill="none" stroke="#000000" stroke-linecap="round" stroke-linejoin="round" stroke-opacity="0.3019608" stroke-width="0.05"/>
    </g>
    <g id="shape3" transform="matrix(1.0, 0.0, 0.0, 1.0, 21.6, 20.15)">
      <path d="M-21.05 -15.75 Q-21.6 -16.85 -21.6 -17.8 -21.6 -18.7 -20.85 -19.4 L-19.6 -20.15 -10.95 -17.1 -10.4 -15.6 Q-10.05 -14.65 -10.05 -14.1 L-10.5 -12.65 -10.9 -11.7 -10.95 -11.7 -15.05 -12.25 Q-18.1 -13.3 -20.35 -14.75 L-20.6 -14.9 -21.05 -15.75 M-16.4 -17.75 L-17.1 -18.45 Q-17.85 -19.05 -18.55 -19.05 -20.4 -19.05 -20.4 -18.45 L-19.25 -18.05 -17.4 -17.7 -16.6 -17.55 Q-16.45 -17.55 -16.4 -17.65 L-16.4 -17.75 M-17.75 -14.85 L-17.4 -14.65 Q-16.2 -14.0 -14.75 -14.0 L-14.5 -14.0 -14.4 -14.15 -14.05 -15.05 Q-14.05 -15.7 -16.2 -16.3 L-17.6 -16.65 -18.65 -16.85 -18.75 -16.5 Q-18.75 -15.55 -17.75 -14.85 M-12.8 -12.75 Q-11.95 -12.75 -11.95 -13.35 -11.95 -14.45 -13.7 -13.15 -13.7 -12.75 -12.8 -12.75" fill="#ffcc00" fill-rule="evenodd" stroke="none"/>
      <path d="M-17.6 -16.65 L-18.0 -16.1 -17.85 -15.45 -17.75 -14.85 Q-18.75 -15.55 -18.75 -16.5 L-18.65 -16.85 -17.6 -16.65" fill="#ce8517" fill-rule="evenodd" stroke="none"/>
      <path d="M-16.4 -17.75 L-16.4 -17.65 Q-16.45 -17.55 -16.6 -17.55 L-17.4 -17.7 -19.25 -18.05 -20.4 -18.45 Q-20.4 -19.05 -18.55 -19.05 -17.85 -19.05 -17.1 -18.45 L-16.4 -17.75 M-12.8 -12.75 Q-13.7 -12.75 -13.7 -13.15 -11.95 -14.45 -11.95 -13.35 -11.95 -12.75 -12.8 -12.75" fill="#ffffff" fill-rule="evenodd" stroke="none"/>
      <path d="M-21.05 -15.75 Q-21.6 -16.85 -21.6 -17.8 -21.6 -18.7 -20.85 -19.4 L-19.6 -20.15 -10.95 -17.1 -10.4 -15.6 Q-10.05 -14.65 -10.05 -14.1 L-10.5 -12.65 -10.9 -11.7 -10.95 -11.7 -15.05 -12.25 Q-18.1 -13.3 -20.35 -14.75 L-20.6 -14.9 -21.05 -15.75 M-17.75 -14.85 L-17.4 -14.65 Q-16.2 -14.0 -14.75 -14.0 L-14.5 -14.0 -14.4 -14.15 -14.05 -15.05 Q-14.05 -15.7 -16.2 -16.3 L-17.6 -16.65 -18.0 -16.1 -17.85 -15.45 -17.75 -14.85 Q-18.75 -15.55 -18.75 -16.5 L-18.65 -16.85 -17.6 -16.65" fill="none" stroke="#000000" stroke-linecap="round" stroke-linejoin="round" stroke-opacity="0.3019608" stroke-width="0.05"/>
    </g>
  </defs>
</svg>
