<?xml version="1.0" encoding="UTF-8" standalone="no"?>
<svg xmlns:xlink="http://www.w3.org/1999/xlink" height="38.65px" width="30.2px" xmlns="http://www.w3.org/2000/svg">
  <g transform="matrix(1.0, 0.0, 0.0, 1.0, 15.25, 19.35)">
    <use height="11.95" transform="matrix(1.0, 0.0, 0.0, 1.0, -13.25, -7.1)" width="26.45" xlink:href="#shape0"/>
  </g>
  <defs>
    <g id="shape0" transform="matrix(1.0, 0.0, 0.0, 1.0, 13.25, 7.1)">
      <path d="M-12.9 1.2 L-11.4 0.05 Q-8.8 -1.65 -6.65 -1.65 L-4.65 -1.85 Q1.0 -2.0 3.15 -1.7 5.25 -1.4 5.2 -1.95 L4.85 -3.9 Q4.5 -5.25 4.5 -6.2 L4.45 -6.6 6.5 -5.95 Q9.4 -4.9 10.55 -3.8 11.65 -2.8 12.65 -0.3 13.55 2.2 12.95 4.85 10.05 1.55 5.5 0.8 L-3.85 0.3 Q-7.0 0.3 -10.75 1.35 -11.4 1.35 -12.3 2.5 L-12.7 3.25 -13.25 4.25 Q-13.35 2.95 -12.9 1.2" fill="#af8061" fill-rule="evenodd" stroke="none"/>
      <path d="M4.45 -6.6 L4.5 -6.2 Q4.5 -5.25 4.85 -3.9 L5.2 -1.95 Q5.25 -1.4 3.15 -1.7 1.0 -2.0 -4.65 -1.85 L-6.65 -1.65 Q-8.8 -1.65 -11.4 0.05 L-12.9 1.2 Q-12.35 -1.15 -10.95 -4.3 -8.95 -6.3 -5.75 -6.7 L0.5 -7.1 4.45 -6.6" fill="#c9a894" fill-rule="evenodd" stroke="none"/>
      <path d="M-12.9 1.2 Q-13.35 2.95 -13.25 4.25 L-12.7 3.25 -12.3 2.5 Q-11.4 1.35 -10.75 1.35 -7.0 0.3 -3.85 0.3 L5.5 0.8 Q10.05 1.55 12.95 4.85 13.55 2.2 12.65 -0.3 11.65 -2.8 10.55 -3.8 9.4 -4.9 6.5 -5.95 L4.45 -6.6 0.5 -7.1 -5.75 -6.7 Q-8.95 -6.3 -10.95 -4.3 -12.35 -1.15 -12.9 1.2 Z" fill="none" stroke="#000000" stroke-linecap="round" stroke-linejoin="round" stroke-opacity="0.3019608" stroke-width="0.05"/>
    </g>
  </defs>
</svg>
