<?xml version="1.0" encoding="UTF-8" standalone="no"?>
<svg xmlns:xlink="http://www.w3.org/1999/xlink" height="49.65px" width="27.35px" xmlns="http://www.w3.org/2000/svg">
  <g transform="matrix(1.0, 0.0, 0.0, 1.0, 138.9, 23.4)">
    <use height="49.65" transform="matrix(1.0, 0.0, 0.0, 1.0, -138.9, -23.4)" width="27.35" xlink:href="#shape0"/>
  </g>
  <defs>
    <g id="shape0" transform="matrix(1.0, 0.0, 0.0, 1.0, 138.9, 23.4)">
      <path d="M-135.0 -23.4 Q-135.05 -22.65 -136.2 -19.25 -137.4 -15.7 -137.8 -12.85 L-138.3 -9.05 -138.15 -6.4 Q-137.95 -4.8 -137.1 -3.3 -136.3 -1.8 -137.75 0.85 -138.5 -0.85 -138.7 -3.15 -138.95 -5.5 -138.85 -7.95 L-138.8 -7.4 Q-138.95 -11.35 -137.55 -16.1 L-135.0 -23.4 M-111.8 -18.3 L-112.2 -16.85 -112.65 -15.45 Q-113.5 -12.85 -114.95 -10.5 -116.25 -8.4 -117.95 -6.25 -119.65 -4.15 -123.25 -0.9 L-126.2 1.65 -122.8 -2.05 -120.75 -4.4 -117.65 -8.2 Q-115.85 -10.45 -114.8 -12.75 L-112.85 -17.75 Q-111.9 -20.45 -112.1 -23.4 -111.15 -21.0 -111.8 -18.3 M-112.95 23.35 L-113.95 24.25 Q-116.25 26.15 -119.25 25.4 -122.25 24.65 -124.35 23.3 L-125.75 22.35 Q-122.85 23.95 -120.4 24.6 -118.0 25.2 -115.85 24.6 -113.7 23.95 -112.95 23.35 M-137.1 6.85 L-137.45 6.5 Q-137.45 5.9 -136.55 4.95 -135.7 4.05 -135.7 5.2 -135.7 6.85 -137.1 6.85 M-135.05 11.9 L-134.65 13.55 Q-133.85 15.45 -133.7 16.6 L-131.85 22.85 -132.0 23.45 Q-132.2 24.0 -132.55 24.0 L-132.85 23.75 -132.6 23.0 Q-132.6 22.35 -133.6 20.35 L-134.25 17.7 Q-134.35 15.85 -134.65 15.05 -134.65 14.15 -134.9 13.7 L-135.15 12.4 Q-135.15 11.2 -135.55 10.4 L-135.5 10.4 -135.05 11.9 M-131.2 25.55 L-131.5 26.0 -131.95 26.25 Q-132.7 26.25 -132.7 25.75 -132.7 25.05 -131.6 25.05 -131.2 25.05 -131.2 25.55" fill="#ffd633" fill-rule="evenodd" stroke="none"/>
    </g>
  </defs>
</svg>
