<?xml version="1.0" encoding="UTF-8" standalone="no"?>
<svg xmlns:xlink="http://www.w3.org/1999/xlink" height="20.2px" width="31.95px" xmlns="http://www.w3.org/2000/svg">
  <g transform="matrix(1.0, 0.0, 0.0, 1.0, 16.0, 10.1)">
    <use height="20.2" transform="matrix(1.0, 0.0, 0.0, 1.0, -16.0, -10.1)" width="31.95" xlink:href="#shape0"/>
  </g>
  <defs>
    <g id="shape0" transform="matrix(1.0, 0.0, 0.0, 1.0, 16.0, 10.1)">
      <path d="M1.3 6.25 Q5.0 4.15 6.7 1.2 8.3 -1.6 8.3 -5.55 L8.25 -6.2 8.3 -5.55 Q8.3 -1.6 6.7 1.2 5.0 4.15 1.3 6.25 M-4.45 6.85 Q-2.4 6.25 -0.55 4.75 L-0.05 4.3 0.25 4.0 3.2 1.05 Q4.4 -0.25 5.4 -2.7 6.4 -5.15 5.4 -9.1 6.15 -6.55 9.6 -6.75 12.95 -7.0 13.4 -9.4 13.8 -11.85 15.0 -5.55 16.2 0.8 15.85 3.05 15.5 5.25 8.45 7.1 L5.75 8.1 2.45 8.9 0.6 9.25 -0.65 9.4 -2.85 9.7 -4.45 9.95 -5.85 10.1 -7.4 10.05 Q-4.3 9.45 -4.3 7.3 L-4.45 6.85" fill="#d6baba" fill-rule="evenodd" stroke="none"/>
      <path d="M-7.4 10.05 L-8.75 9.9 -11.7 9.25 Q-15.7 8.05 -15.7 5.95 L-15.85 5.55 -16.0 4.3 Q-16.0 2.8 -15.65 1.65 -15.1 -0.1 -13.95 -0.1 L-13.55 -0.25 -13.0 -0.2 -13.35 0.6 -13.7 1.55 -13.75 1.75 -13.8 1.95 Q-13.9 4.75 -11.95 6.1 L-10.35 6.8 -7.85 7.2 -4.45 6.85 -4.3 7.3 Q-4.3 9.45 -7.4 10.05" fill="#ffffff" fill-rule="evenodd" stroke="none"/>
      <path d="M8.25 -6.2 L8.3 -5.55 Q8.3 -1.6 6.7 1.2 5.0 4.15 1.3 6.25 M-4.45 6.85 Q-2.4 6.25 -0.55 4.75 L-0.05 4.3 0.25 4.0 3.2 1.05 Q4.4 -0.25 5.4 -2.7 6.4 -5.15 5.4 -9.1 6.15 -6.55 9.6 -6.75 12.95 -7.0 13.4 -9.4 13.8 -11.85 15.0 -5.55 16.2 0.8 15.85 3.05 15.5 5.25 8.45 7.1 L5.75 8.1 2.45 8.9 0.6 9.25 -0.65 9.4 -2.85 9.7 -4.45 9.95 -5.85 10.1 -7.4 10.05 -8.75 9.9 -11.7 9.25 Q-15.7 8.05 -15.7 5.95 L-15.85 5.55 -16.0 4.3 Q-16.0 2.8 -15.65 1.65 -15.1 -0.1 -13.95 -0.1 L-13.55 -0.25 -13.0 -0.2 -13.35 0.6 -13.7 1.55 -13.75 1.75 -13.8 1.95 Q-13.9 4.75 -11.95 6.1 L-10.35 6.8 -7.85 7.2 -4.45 6.85" fill="none" stroke="#000000" stroke-linecap="round" stroke-linejoin="round" stroke-opacity="0.3019608" stroke-width="0.05"/>
    </g>
  </defs>
</svg>
