<?xml version="1.0" encoding="UTF-8" standalone="no"?>
<svg xmlns:xlink="http://www.w3.org/1999/xlink" height="16.3px" width="42.55px" xmlns="http://www.w3.org/2000/svg">
  <g transform="matrix(1.0, 0.0, 0.0, 1.0, 51.4, -4.85)">
    <use height="16.3" transform="matrix(1.0, 0.0, 0.0, 1.0, -51.4, 4.85)" width="42.55" xlink:href="#shape0"/>
  </g>
  <defs>
    <g id="shape0" transform="matrix(1.0, 0.0, 0.0, 1.0, 51.4, -4.85)">
      <path d="M-23.15 10.85 L-10.8 11.25 -10.6 11.2 -10.1 11.1 -9.85 11.0 Q-9.3 11.0 -9.0 12.45 -8.85 13.3 -8.85 14.15 -8.85 14.9 -10.0 16.85 -12.05 18.6 -16.05 20.05 -20.1 21.5 -25.5 21.05 -30.95 20.6 -33.35 18.1 L-36.65 14.25 -37.6 13.05 Q-38.2 12.6 -39.95 12.3 L-46.3 11.25 Q-51.4 10.85 -51.4 7.15 L-51.15 5.65 Q-50.65 4.85 -48.95 4.85 -41.7 4.85 -26.7 10.15 L-25.2 10.7 -23.15 10.85" fill="#d6baba" fill-rule="evenodd" stroke="none"/>
      <path d="M-23.15 10.85 L-10.8 11.25 -10.6 11.2 -10.1 11.1 -9.85 11.0 Q-9.3 11.0 -9.0 12.45 -8.85 13.3 -8.85 14.15 -8.85 14.9 -10.0 16.85 -12.05 18.6 -16.05 20.05 -20.1 21.5 -25.5 21.05 -30.95 20.6 -33.35 18.1 L-36.65 14.25 -37.6 13.05 Q-38.2 12.6 -39.95 12.3 L-46.3 11.25 Q-51.4 10.85 -51.4 7.15 L-51.15 5.65 Q-50.65 4.85 -48.95 4.85 -41.7 4.85 -26.7 10.15 L-25.2 10.7 -23.15 10.85 Z" fill="none" stroke="#000000" stroke-linecap="round" stroke-linejoin="round" stroke-opacity="0.3019608" stroke-width="0.05"/>
    </g>
  </defs>
</svg>
