<?xml version="1.0" encoding="UTF-8" standalone="no"?>
<svg xmlns:xlink="http://www.w3.org/1999/xlink" height="45.2px" width="22.95px" xmlns="http://www.w3.org/2000/svg">
  <g transform="matrix(1.0, 0.0, 0.0, 1.0, 11.95, 22.55)">
    <use height="45.2" transform="matrix(1.0, 0.0, 0.0, 1.0, -11.95, -22.55)" width="22.95" xlink:href="#shape0"/>
  </g>
  <defs>
    <g id="shape0" transform="matrix(1.0, 0.0, 0.0, 1.0, 11.95, 22.55)">
      <path d="M-7.0 -15.2 Q-5.6 -17.35 -3.1 -18.2 -2.15 -18.5 -1.35 -17.85 L-0.95 -17.4 Q-0.25 -16.65 0.3 -15.65 1.35 -13.6 1.35 -12.45 L2.1 -7.8 2.4 -6.15 2.85 0.65 2.4 9.05 2.25 10.7 1.85 12.3 0.95 11.7 Q0.95 11.25 -0.45 10.95 L-1.8 10.75 -2.2 10.85 -5.2 11.4 -6.45 11.75 -7.8 12.05 -10.6 13.05 -11.7 13.65 -11.9 13.8 -11.9 13.9 -11.95 13.55 -9.95 9.9 Q-7.95 6.1 -7.95 -0.45 L-7.95 -4.35 -7.9 -7.1 -7.8 -8.9 -7.7 -9.9 -7.65 -10.95 -7.25 -13.95 -7.0 -15.2 M-3.8 -6.7 Q-7.25 -11.65 -7.25 -13.95 -7.25 -11.65 -3.8 -6.7" fill="#d6baba" fill-rule="evenodd" stroke="none"/>
      <path d="M-11.9 13.9 L-11.9 13.8 -11.7 13.65 -10.6 13.05 -7.8 12.05 -6.45 11.75 -5.2 11.4 -2.2 10.85 -1.8 10.75 -0.45 10.95 Q0.95 11.25 0.95 11.7 L1.85 12.3 2.25 10.7 2.4 9.05 2.85 0.65 2.4 -6.15 2.1 -7.8 1.35 -12.45 Q1.35 -13.6 0.3 -15.65 -0.25 -16.65 -0.95 -17.4 L-1.35 -17.85 Q-2.15 -18.5 -3.1 -18.2 -5.6 -17.35 -7.0 -15.2 L-6.9 -15.7 Q-6.35 -18.2 -5.05 -20.35 L-4.25 -21.75 -3.3 -22.1 0.0 -22.55 2.1 -22.4 5.8 -21.3 7.5 -20.7 9.25 -20.0 Q11.2 -13.05 10.5 -5.6 L10.25 -3.3 9.85 -0.2 9.65 3.5 9.85 7.2 10.1 8.9 10.3 11.55 10.55 13.5 10.8 14.75 11.0 16.25 Q11.0 17.75 10.45 19.1 9.85 20.6 8.3 22.65 L1.5 16.4 Q-2.8 12.25 -9.65 17.6 L-9.7 17.7 Q-10.55 17.6 -10.9 16.8 -10.9 16.6 -11.05 16.5 L-11.2 16.2 -11.35 15.75 -11.5 15.3 -11.6 15.0 -11.7 14.7 -11.9 13.9 M3.8 9.8 L7.05 3.85 10.25 -3.3 7.05 3.85 3.8 9.8" fill="#a78383" fill-rule="evenodd" stroke="none"/>
      <path d="M-11.9 13.9 L-11.7 14.7 -11.6 15.0 -11.5 15.3 -11.35 15.75 -11.2 16.2 -11.05 16.5 Q-10.9 16.6 -10.9 16.8 -10.55 17.6 -9.7 17.7 L-9.65 17.6 Q-2.8 12.25 1.5 16.4 L8.3 22.65 Q9.85 20.6 10.45 19.1 11.0 17.75 11.0 16.25 L10.8 14.75 10.55 13.5 10.3 11.55 10.1 8.9 9.85 7.2 9.65 3.5 9.85 -0.2 10.25 -3.3 7.05 3.85 3.8 9.8 M9.25 -20.0 Q11.2 -13.05 10.5 -5.6 L10.25 -3.3 M-6.9 -15.7 Q-6.35 -18.2 -5.05 -20.35 L-4.25 -21.75 -3.3 -22.1 M-7.25 -13.95 L-6.9 -15.7 -7.0 -15.2 -7.25 -13.95 Q-7.25 -11.65 -3.8 -6.7 M-11.9 13.9 L-11.95 13.55 -9.95 9.9 Q-7.95 6.1 -7.95 -0.45 L-7.95 -4.35 -7.9 -7.1 -7.8 -8.9 -7.7 -9.9 -7.65 -10.95 -7.25 -13.95" fill="none" stroke="#000000" stroke-linecap="round" stroke-linejoin="round" stroke-opacity="0.3019608" stroke-width="0.05"/>
    </g>
  </defs>
</svg>
