<?xml version="1.0" encoding="UTF-8" standalone="no"?>
<svg xmlns:xlink="http://www.w3.org/1999/xlink" height="25.65px" width="16.35px" xmlns="http://www.w3.org/2000/svg">
  <g transform="matrix(1.0, 0.0, 0.0, 1.0, 0.0, 0.0)">
    <use height="25.65" transform="matrix(1.0, 0.0, 0.0, 1.0, 0.0, 0.0)" width="16.35" xlink:href="#shape0"/>
  </g>
  <defs>
    <g id="shape0" transform="matrix(1.0, 0.0, 0.0, 1.0, 0.0, 0.0)">
      <path d="M2.7 23.3 Q0.65 20.2 0.9 16.15 1.15 11.25 0.65 6.3 L0.0 0.0 Q4.8 3.7 7.0 7.85 8.7 5.05 11.45 3.85 L12.3 3.5 Q14.2 3.65 11.6 6.1 8.9 8.6 7.7 11.7 L6.95 20.05 7.1 22.35 6.75 25.65 4.4 25.05 Q3.4 24.5 3.4 24.1 L3.1 23.85 2.7 23.3 3.1 23.85 2.7 23.3 M4.4 23.1 L4.35 23.3 4.5 23.35 4.4 23.1" fill="#ffffff" fill-rule="evenodd" stroke="none"/>
      <path d="M12.3 3.5 L13.0 3.25 16.35 1.25 Q14.8 9.15 14.65 16.15 14.6 18.95 14.15 21.7 13.45 23.1 12.55 24.15 L11.7 25.0 11.05 25.25 7.75 25.65 7.0 25.65 6.75 25.65 7.1 22.35 6.95 20.05 7.7 11.7 Q8.9 8.6 11.6 6.1 14.2 3.65 12.3 3.5 L13.0 3.25 12.3 3.5" fill="#d6baba" fill-rule="evenodd" stroke="none"/>
      <path d="M2.7 23.3 Q0.65 20.2 0.9 16.15 1.15 11.25 0.65 6.3 L0.0 0.0 Q4.8 3.7 7.0 7.85 8.7 5.05 11.45 3.85 L12.3 3.5 13.0 3.25 16.35 1.25 Q14.8 9.15 14.65 16.15 14.6 18.95 14.15 21.7 13.45 23.1 12.55 24.15 L11.7 25.0 M2.7 23.3 L3.1 23.85" fill="none" stroke="#000000" stroke-linecap="round" stroke-linejoin="round" stroke-opacity="0.3019608" stroke-width="0.05"/>
    </g>
  </defs>
</svg>
