<?xml version="1.0" encoding="UTF-8" standalone="no"?>
<svg xmlns:xlink="http://www.w3.org/1999/xlink" height="30.9px" width="22.1px" xmlns="http://www.w3.org/2000/svg">
  <g transform="matrix(1.0, 0.0, 0.0, 1.0, 11.05, 15.45)">
    <use height="30.9" transform="matrix(1.0, 0.0, 0.0, 1.0, -11.05, -15.45)" width="22.1" xlink:href="#shape0"/>
  </g>
  <defs>
    <g id="shape0" transform="matrix(1.0, 0.0, 0.0, 1.0, 11.05, 15.45)">
      <path d="M-4.15 -3.85 L-1.2 -5.3 Q2.0 -6.65 3.45 -5.85 4.85 -5.05 5.3 -4.0 L5.9 -2.65 8.35 1.0 7.25 0.75 4.7 0.5 Q1.95 0.5 -0.4 1.35 L-0.85 1.55 -0.4 1.35 Q1.95 0.5 4.7 0.5 L7.25 0.75 8.4 2.6 9.7 5.6 10.1 7.25 9.0 7.05 Q10.25 10.05 11.05 13.8 7.35 12.55 2.55 13.7 L2.05 13.85 1.2 10.85 0.15 9.1 -0.4 8.25 0.6 7.75 1.3 7.5 -0.5 4.75 -2.3 2.25 -0.85 1.55 Q-1.15 0.7 -1.95 -0.15 L-2.9 -1.9 -4.15 -3.85 M-11.0 -4.05 Q-10.85 -6.05 -9.9 -7.85 -8.7 -10.15 -6.2 -12.15 -2.05 -15.45 1.9 -15.45 4.3 -15.45 5.0 -12.95 5.45 -11.55 5.3 -9.8 5.05 -10.8 4.05 -11.6 2.8 -12.6 1.5 -12.6 -2.35 -12.6 -5.25 -10.45 -6.6 -9.4 -8.9 -6.75 L-11.0 -4.05 M9.0 7.05 L7.3 6.75 4.45 6.8 Q2.9 6.85 1.3 7.5 2.9 6.85 4.45 6.8 L7.3 6.75 9.0 7.05" fill="#ffffff" fill-rule="evenodd" stroke="none"/>
      <path d="M-4.15 -3.85 L-2.9 -1.9 -1.95 -0.15 Q-1.15 0.7 -0.85 1.55 L-2.3 2.25 -0.5 4.75 1.3 7.5 0.6 7.75 -0.4 8.25 0.15 9.1 1.2 10.85 2.05 13.85 -0.85 14.6 Q-2.55 15.1 -2.9 15.45 L-3.15 14.6 -4.45 10.2 -5.1 8.0 -5.75 6.4 -6.05 5.7 -6.45 4.95 -7.65 2.9 -7.85 2.7 -8.25 1.85 -8.25 1.35 Q-8.3 -0.75 -6.35 -2.35 L-5.3 -3.1 -4.5 -3.65 -4.15 -3.85 M-11.0 -4.05 L-8.9 -6.75 Q-6.6 -9.4 -5.25 -10.45 -2.35 -12.6 1.5 -12.6 2.8 -12.6 4.05 -11.6 5.05 -10.8 5.3 -9.8 0.8 -10.05 -3.35 -8.3 -7.8 -6.55 -9.9 -2.85 L-10.3 -2.1 -10.75 -2.25 Q-11.05 -2.4 -11.05 -3.15 L-11.0 -4.05 M-6.45 4.95 L-2.3 2.25 -6.45 4.95 M-0.4 8.25 L-4.45 10.2 -0.4 8.25" fill="#d1b6b6" fill-rule="evenodd" stroke="none"/>
      <path d="M7.25 0.75 L8.35 1.0 5.9 -2.65 5.3 -4.0 Q4.85 -5.05 3.45 -5.85 2.0 -6.65 -1.2 -5.3 L-4.15 -3.85 M-0.85 1.55 L-0.4 1.35 Q1.95 0.5 4.7 0.5 L7.25 0.75 8.4 2.6 9.7 5.6 10.1 7.25 9.0 7.05 Q10.25 10.05 11.05 13.8 7.35 12.55 2.55 13.7 L2.05 13.85 -0.85 14.6 Q-2.55 15.1 -2.9 15.45 L-3.15 14.6 -4.45 10.2 -5.1 8.0 -5.75 6.4 -6.05 5.7 -6.45 4.95 -7.65 2.9 -7.85 2.7 -8.25 1.85 -8.25 1.35 Q-8.3 -0.75 -6.35 -2.35 L-5.3 -3.1 -4.5 -3.65 -4.15 -3.85 M5.3 -9.8 Q5.45 -11.55 5.0 -12.95 4.3 -15.45 1.9 -15.45 -2.05 -15.45 -6.2 -12.15 -8.7 -10.15 -9.9 -7.85 -10.85 -6.05 -11.0 -4.05 M-10.3 -2.1 L-10.75 -2.25 Q-11.05 -2.4 -11.05 -3.15 L-11.0 -4.05 M-2.3 2.25 L-0.85 1.55 M-2.3 2.25 L-6.45 4.95 M-4.45 10.2 L-0.4 8.25 0.6 7.75 1.3 7.5 Q2.9 6.85 4.45 6.8 L7.3 6.75 9.0 7.05" fill="none" stroke="#000000" stroke-linecap="round" stroke-linejoin="round" stroke-opacity="0.3019608" stroke-width="0.05"/>
    </g>
  </defs>
</svg>
