<?xml version="1.0" encoding="UTF-8" standalone="no"?>
<svg xmlns:xlink="http://www.w3.org/1999/xlink" height="27.4px" width="27.4px" xmlns="http://www.w3.org/2000/svg">
  <g transform="matrix(1.0, 0.0, 0.0, 1.0, 13.7, 13.7)">
    <use height="27.4" transform="matrix(1.0, 0.0, 0.0, 1.0, -13.7, -13.7)" width="27.4" xlink:href="#shape0"/>
  </g>
  <defs>
    <g id="shape0" transform="matrix(1.0, 0.0, 0.0, 1.0, 13.7, 13.7)">
      <path d="M1.5 -13.6 L2.4 -13.5 2.8 -13.4 3.9 -13.15 Q7.1 -12.25 9.65 -9.7 13.7 -5.65 13.7 0.0 13.7 5.65 9.65 9.65 5.65 13.7 0.0 13.7 -5.65 13.7 -9.7 9.65 -12.6 6.75 -13.4 3.0 L-13.65 0.8 -11.0 1.25 Q-3.55 1.25 -0.3 -6.15 1.3 -9.9 1.5 -13.6" fill="#d6baba" fill-rule="evenodd" stroke="none"/>
      <path d="M-13.65 0.8 L-13.7 0.0 Q-13.7 -5.65 -9.7 -9.7 -5.65 -13.7 0.0 -13.7 L1.5 -13.6 Q1.3 -9.9 -0.3 -6.15 -3.55 1.25 -11.0 1.25 L-13.65 0.8" fill="#ffffff" fill-rule="evenodd" stroke="none"/>
      <path d="M-13.65 0.8 L-13.7 0.0 Q-13.7 -5.65 -9.7 -9.7 -5.65 -13.7 0.0 -13.7 L1.5 -13.6 2.4 -13.5 2.8 -13.4 3.9 -13.15 Q7.1 -12.25 9.65 -9.7 13.7 -5.65 13.7 0.0 13.7 5.65 9.65 9.65 5.65 13.7 0.0 13.7 -5.65 13.7 -9.7 9.65 -12.6 6.75 -13.4 3.0 L-13.65 0.8 Z" fill="none" stroke="#000000" stroke-linecap="round" stroke-linejoin="round" stroke-opacity="0.3019608" stroke-width="0.05"/>
    </g>
  </defs>
</svg>
