<?xml version="1.0" encoding="UTF-8" standalone="no"?>
<svg xmlns:xlink="http://www.w3.org/1999/xlink" height="90.15px" width="52.5px" xmlns="http://www.w3.org/2000/svg">
  <g transform="matrix(1.0, 0.0, 0.0, 1.0, 26.25, 45.1)">
    <use height="90.15" transform="matrix(1.0, 0.0, 0.0, 1.0, -26.25, -45.1)" width="52.5" xlink:href="#shape0"/>
  </g>
  <defs>
    <g id="shape0" transform="matrix(1.0, 0.0, 0.0, 1.0, 26.25, 45.1)">
      <path d="M9.15 -42.55 L9.35 -42.45 9.95 -42.2 13.8 -40.3 14.5 -39.75 Q16.25 -38.2 17.8 -36.25 20.8 -32.8 22.85 -28.6 25.5 -22.8 26.0 -16.55 26.35 -13.55 26.2 -10.4 25.65 -6.95 24.6 -3.45 23.4 0.6 21.65 5.1 19.2 10.9 16.95 17.2 15.35 21.2 14.65 25.75 13.8 29.6 14.5 33.6 15.0 36.75 17.3 39.55 19.55 41.65 22.55 43.55 L24.45 43.2 20.6 44.4 12.75 44.75 Q9.1 44.05 5.4 42.0 L1.75 39.35 -2.1 35.35 -2.45 35.0 -2.8 34.45 -5.05 30.6 Q-6.3 27.5 -7.0 23.8 -8.2 16.5 -8.2 6.5 -8.2 -3.6 -11.7 -9.35 -15.2 -15.3 -20.8 -17.4 -22.7 -18.3 -23.95 -19.35 -25.5 -20.9 -26.05 -23.35 L-20.95 -23.0 Q-14.5 -22.8 -8.55 -21.05 -7.0 -20.55 -5.6 -19.85 L-5.4 -19.85 -5.05 -20.2 -4.7 -20.35 Q-2.3 -18.8 -1.05 -15.3 -0.7 -13.55 0.15 -12.15 L0.5 -11.3 0.5 -8.15 Q1.2 -17.25 -2.8 -25.95 2.25 -25.45 6.1 -20.7 8.9 -17.05 11.0 -13.2 12.05 -19.5 11.85 -25.8 11.7 -33.8 8.9 -41.15 8.55 -42.05 8.55 -42.75 L9.15 -42.55" fill="#d6baba" fill-rule="evenodd" stroke="none"/>
      <path d="M-26.05 -23.35 Q-26.4 -24.75 -26.2 -26.3 -26.05 -33.1 -23.75 -34.7 -18.35 -40.65 -9.6 -43.8 -3.85 -45.7 1.4 -44.85 5.35 -44.2 9.15 -42.55 L8.55 -42.75 Q8.55 -42.05 8.9 -41.15 11.7 -33.8 11.85 -25.8 12.05 -19.5 11.0 -13.2 8.9 -17.05 6.1 -20.7 2.25 -25.45 -2.8 -25.95 1.2 -17.25 0.5 -8.15 L0.5 -11.3 0.15 -12.15 Q-0.7 -13.55 -1.05 -15.3 -2.3 -18.8 -4.7 -20.35 L-5.05 -20.2 -5.4 -19.85 -5.6 -19.85 Q-7.0 -20.55 -8.55 -21.05 -14.5 -22.8 -20.95 -23.0 L-26.05 -23.35" fill="#ffffff" fill-rule="evenodd" stroke="none"/>
      <path d="M9.15 -42.55 L9.35 -42.45 9.95 -42.2 13.8 -40.3 14.5 -39.75 Q16.25 -38.2 17.8 -36.25 20.8 -32.8 22.85 -28.6 25.5 -22.8 26.0 -16.55 26.35 -13.55 26.2 -10.4 25.65 -6.95 24.6 -3.45 23.4 0.6 21.65 5.1 19.2 10.9 16.95 17.2 15.35 21.2 14.65 25.75 13.8 29.6 14.5 33.6 15.0 36.75 17.3 39.55 19.55 41.65 22.55 43.55 L24.45 43.2 20.6 44.4 12.75 44.75 Q9.1 44.05 5.4 42.0 L1.75 39.35 -2.1 35.35 -2.45 35.0 -2.8 34.45 -5.05 30.6 Q-6.3 27.5 -7.0 23.8 -8.2 16.5 -8.2 6.5 -8.2 -3.6 -11.7 -9.35 -15.2 -15.3 -20.8 -17.4 -22.7 -18.3 -23.95 -19.35 -25.5 -20.9 -26.05 -23.35 -26.4 -24.75 -26.2 -26.3 -26.05 -33.1 -23.75 -34.7 -18.35 -40.65 -9.6 -43.8 -3.85 -45.7 1.4 -44.85 5.35 -44.2 9.15 -42.55 Z" fill="none" stroke="#000000" stroke-linecap="round" stroke-linejoin="round" stroke-opacity="0.3019608" stroke-width="0.05"/>
    </g>
  </defs>
</svg>
