<?xml version="1.0" encoding="UTF-8" standalone="no"?>
<svg xmlns:xlink="http://www.w3.org/1999/xlink" height="44.25px" width="37.4px" xmlns="http://www.w3.org/2000/svg">
  <g transform="matrix(1.0, 0.0, 0.0, 1.0, 17.95, 28.0)">
    <use height="11.65" transform="matrix(1.0435, 0.0, 0.0, 1.237, -15.8499, -16.8366)" width="29.95" xlink:href="#sprite0"/>
    <use height="9.95" id="_col3" transform="matrix(1.0435, 0.0, 0.0, 1.237, -15.8238, -13.7733)" width="28.45" xlink:href="#sprite1"/>
    <use height="9.15" transform="matrix(1.0, 0.0, 0.0, 1.0, -12.4, -11.65)" width="7.25" xlink:href="#shape2"/>
  </g>
  <defs>
    <g id="sprite0" transform="matrix(1.0, 0.0, 0.0, 1.0, 14.95, 5.85)">
      <use height="11.65" transform="matrix(1.0, 0.0, 0.0, 1.0, -14.95, -5.85)" width="29.95" xlink:href="#shape0"/>
    </g>
    <g id="shape0" transform="matrix(1.0, 0.0, 0.0, 1.0, 14.95, 5.85)">
      <path d="M-1.55 1.05 L-1.15 1.0 Q1.75 1.05 4.35 0.15 L5.35 -0.25 5.65 -0.35 6.85 -0.85 8.25 -1.6 10.05 -2.4 10.85 -2.9 11.45 -3.2 11.9 -3.55 12.15 -3.9 12.25 -4.2 11.5 -5.7 12.95 -5.85 13.75 -5.0 14.8 -3.2 15.0 -2.2 14.85 -1.3 14.5 -0.5 13.2 0.8 11.6 2.0 10.8 2.45 9.15 3.2 7.6 3.95 6.0 4.4 5.5 4.55 0.35 5.65 0.15 5.7 -1.5 5.8 -1.55 1.05" fill="#5a1d00" fill-rule="evenodd" stroke="none"/>
      <path d="M-1.5 5.8 L-3.65 5.6 -7.9 4.45 Q-10.55 3.4 -13.1 1.95 L-13.95 1.15 -14.85 0.05 Q-15.05 -0.35 -14.9 -1.35 L-14.8 -1.9 Q-14.65 -2.9 -14.1 -3.75 L-13.3 -4.5 -13.25 -3.45 -13.1 -2.75 -11.7 -1.9 -11.55 -1.8 -11.1 -1.55 Q-8.95 -0.35 -6.75 0.35 -4.25 1.1 -1.55 1.05 L-1.5 5.8" fill="#895426" fill-rule="evenodd" stroke="none"/>
      <path d="M-1.5 5.8 L-3.65 5.6 -7.9 4.45 Q-10.55 3.4 -13.1 1.95 L-13.95 1.15 -14.85 0.05 Q-15.05 -0.35 -14.9 -1.35 L-14.8 -1.9 Q-14.65 -2.9 -14.1 -3.75 L-13.3 -4.5 -13.25 -3.45 -13.1 -2.75 -11.7 -1.9 -11.55 -1.8 -11.1 -1.55 Q-8.95 -0.35 -6.75 0.35 -4.25 1.1 -1.55 1.05 L-1.15 1.0 Q1.75 1.05 4.35 0.15 L5.35 -0.25 5.65 -0.35 6.85 -0.85 8.25 -1.6 10.05 -2.4 10.85 -2.9 11.45 -3.2 11.9 -3.55 12.15 -3.9 12.25 -4.2 11.5 -5.7 12.95 -5.85 13.75 -5.0 14.8 -3.2 15.0 -2.2 14.85 -1.3 14.5 -0.5 13.2 0.8 11.6 2.0 10.8 2.45 9.15 3.2 7.6 3.95 6.0 4.4 5.5 4.55 0.35 5.65 M0.15 5.7 L-1.5 5.8 Z" fill="none" stroke="#000000" stroke-linecap="round" stroke-linejoin="round" stroke-opacity="0.3019608" stroke-width="0.05"/>
    </g>
    <g id="sprite1" transform="matrix(1.0, 0.0, 0.0, 1.0, 14.35, 4.95)">
      <use height="9.95" transform="matrix(1.0, 0.0, 0.0, 1.0, -14.35, -4.95)" width="28.45" xlink:href="#shape1"/>
    </g>
    <g id="shape1" transform="matrix(1.0, 0.0, 0.0, 1.0, 14.35, 4.95)">
      <path d="M-0.75 2.15 L-0.85 1.85 Q-0.7 0.7 -0.95 -0.95 -0.9 -1.9 0.55 -1.5 L1.75 -1.5 Q1.65 -1.2 2.1 0.9 L0.6 1.55 -0.75 2.15 M-14.1 -2.05 L-14.0 -2.3 -13.95 -2.4 -12.6 -4.95 -11.2 -4.2 -10.7 -3.75 -11.95 -2.0 -12.0 -1.7 -11.95 -2.0 -11.9 -2.0 -12.0 -1.7 -12.05 -1.6 -12.45 -1.7 -12.75 -1.75 -14.1 -2.05" fill="#d6baba" fill-rule="evenodd" stroke="none"/>
      <path d="M-0.75 2.15 L0.6 1.55 2.1 0.9 2.75 4.55 -0.4 5.0 Q-0.4 3.85 -0.75 2.15 M9.25 -4.35 L10.3 -4.7 Q11.45 -4.7 12.75 -3.7 14.4 -2.35 14.0 0.0 13.9 0.65 13.2 0.9 L11.65 1.6 Q12.2 0.9 11.3 -1.65 10.45 -4.25 9.25 -4.35 M-14.1 -2.05 L-12.75 -1.75 -12.45 -1.7 -12.05 -1.6 -12.1 -0.65 -11.7 1.45 -14.0 0.6 -14.35 -0.25 -14.25 -1.7 -14.1 -2.05" fill="#a78383" fill-rule="evenodd" stroke="none"/>
      <path d="M2.1 0.9 Q1.65 -1.2 1.75 -1.5 L0.55 -1.5 Q-0.9 -1.9 -0.95 -0.95 -0.7 0.7 -0.85 1.85 L-0.75 2.15 M2.1 0.9 L2.75 4.55 -0.4 5.0 Q-0.4 3.85 -0.75 2.15 M9.25 -4.35 Q10.45 -4.25 11.3 -1.65 12.2 0.9 11.65 1.6 L13.2 0.9 Q13.9 0.65 14.0 0.0 14.4 -2.35 12.75 -3.7 11.45 -4.7 10.3 -4.7 L9.25 -4.35 M-11.95 -2.0 L-10.7 -3.75 -11.2 -4.2 -12.6 -4.95 -13.95 -2.4 -14.0 -2.3 -14.1 -2.05 -14.25 -1.7 -14.35 -0.25 -14.0 0.6 -11.7 1.45 -12.1 -0.65 -12.05 -1.6 M-12.0 -1.7 L-11.95 -2.0" fill="none" stroke="#000000" stroke-linecap="round" stroke-linejoin="round" stroke-opacity="0.3019608" stroke-width="0.05"/>
    </g>
    <g id="shape2" transform="matrix(1.0, 0.0, 0.0, 1.0, 12.4, 11.65)">
      <path d="M-11.05 -3.75 Q-12.4 -4.3 -12.4 -5.25 -12.4 -8.25 -11.45 -11.65 L-9.55 -11.2 Q-7.85 -10.4 -7.5 -10.35 -5.75 -9.65 -5.35 -8.9 -5.15 -8.55 -5.15 -6.7 -5.15 -5.25 -5.55 -3.9 -5.9 -2.5 -6.7 -2.5 L-8.6 -2.85 -11.05 -3.75 M-10.95 -7.15 L-10.95 -5.95 Q-9.25 -4.8 -7.45 -4.35 -7.0 -6.3 -7.0 -7.7 -7.9 -8.05 -8.6 -8.5 L-10.45 -9.05 -10.95 -7.15" fill="#ffcc00" fill-rule="evenodd" stroke="none"/>
      <path d="M-11.05 -3.75 L-8.6 -2.85 -6.7 -2.5 Q-5.9 -2.5 -5.55 -3.9 -5.15 -5.25 -5.15 -6.7 -5.15 -8.55 -5.35 -8.9 -5.75 -9.65 -7.5 -10.35 -7.85 -10.4 -9.55 -11.2 L-11.45 -11.65 Q-12.4 -8.25 -12.4 -5.25 -12.4 -4.3 -11.05 -3.75 M-10.95 -7.15 L-10.95 -5.95 Q-9.25 -4.8 -7.45 -4.35 -7.0 -6.3 -7.0 -7.7 -7.9 -8.05 -8.6 -8.5 L-10.45 -9.05 -10.95 -7.15" fill="none" stroke="#000000" stroke-linecap="round" stroke-linejoin="round" stroke-opacity="0.3019608" stroke-width="0.05"/>
    </g>
  </defs>
</svg>
