<?xml version="1.0" encoding="UTF-8" standalone="no"?>
<svg xmlns:xlink="http://www.w3.org/1999/xlink" height="44.25px" width="37.4px" xmlns="http://www.w3.org/2000/svg">
  <g transform="matrix(1.0, 0.0, 0.0, 1.0, 17.95, 28.0)">
    <use height="38.25" id="_p1" transform="matrix(1.0, 0.0, 0.0, 1.0, -17.15, -22.0)" width="36.6" xlink:href="#sprite0"/>
  </g>
  <defs>
    <g id="sprite0" transform="matrix(1.0, 0.0, 0.0, 1.0, 17.85, 19.1)">
      <use height="29.7" id="_col2" transform="matrix(0.991, 0.2449, -0.0366, 1.0, -15.9246, -19.084)" width="34.95" xlink:href="#sprite1"/>
      <use height="13.6" transform="matrix(1.0, 0.0, 0.0, 1.0, -17.85, 3.85)" width="36.6" xlink:href="#shape1"/>
      <use height="12.95" id="_p1a" transform="matrix(1.0, 0.134, 0.0, 1.0, -15.85, -15.1067)" width="29.45" xlink:href="#sprite2"/>
    </g>
    <g id="sprite1" transform="matrix(1.0, 0.0, 0.0, 1.0, 17.7, 14.1)">
      <use height="29.7" transform="matrix(1.0, 0.0, 0.0, 1.0, -17.7, -14.1)" width="34.95" xlink:href="#shape0"/>
    </g>
    <g id="shape0" transform="matrix(1.0, 0.0, 0.0, 1.0, 17.7, 14.1)">
      <path d="M-1.15 -14.05 L0.25 -14.05 Q2.05 -14.0 12.15 -11.55 14.35 -6.6 15.4 -1.35 L16.95 5.75 17.25 6.8 16.55 8.25 Q15.1 9.15 12.85 10.95 L10.75 12.6 8.55 13.2 1.9 14.1 2.7 13.05 3.1 10.25 Q3.1 9.35 2.55 7.65 L1.25 3.35 Q0.25 -0.3 -0.55 -6.6 L-1.2 -13.9 -1.15 -14.05" fill="#d6baba" fill-rule="evenodd" stroke="none"/>
      <path d="M1.9 14.1 Q0.9 15.85 -2.65 15.55 L-11.65 14.1 Q-17.05 12.95 -17.3 10.8 -17.6 8.65 -17.6 4.4 L-17.7 -2.6 Q-17.75 -5.35 -17.25 -8.25 L-17.2 -8.6 Q-16.6 -10.5 -16.15 -12.35 -16.05 -12.75 -15.15 -13.0 L-13.3 -13.45 -11.35 -13.8 -4.65 -14.1 -1.15 -14.05 -1.2 -13.9 -0.55 -6.6 Q0.25 -0.3 1.25 3.35 L2.55 7.65 Q3.1 9.35 3.1 10.25 L2.7 13.05 1.9 14.1" fill="#ffffff" fill-rule="evenodd" stroke="none"/>
      <path d="M-1.15 -14.05 L0.25 -14.05 Q2.05 -14.0 12.15 -11.55 14.35 -6.6 15.4 -1.35 L16.95 5.75 17.25 6.8 M-17.3 10.8 Q-17.6 8.65 -17.6 4.4 L-17.7 -2.6 Q-17.75 -5.35 -17.25 -8.25 L-17.2 -8.6 Q-16.6 -10.5 -16.15 -12.35 -16.05 -12.75 -15.15 -13.0 L-13.3 -13.45 -11.35 -13.8 -4.65 -14.1 -1.15 -14.05 Z" fill="none" stroke="#000000" stroke-linecap="round" stroke-linejoin="round" stroke-opacity="0.3019608" stroke-width="0.05"/>
    </g>
    <g id="shape1" transform="matrix(1.0, 0.0, 0.0, 1.0, 17.85, -3.85)">
      <path d="M2.55 17.45 L0.1 17.25 0.1 17.3 -3.25 16.35 Q-7.25 15.1 -11.4 13.1 -15.5 11.05 -17.15 8.1 -18.8 5.15 -16.65 3.85 -16.15 6.95 -11.25 9.65 -6.35 12.3 -1.65 13.25 L0.0 13.55 3.3 13.6 3.65 15.4 2.55 17.45" fill="#ffffff" fill-rule="evenodd" stroke="none"/>
      <path d="M3.3 13.6 L4.45 13.6 6.05 13.55 9.15 13.25 13.0 12.4 Q15.55 10.8 17.9 8.7 18.4 8.6 18.75 9.7 18.75 10.95 18.35 11.5 L17.55 12.35 16.45 13.2 14.9 14.55 13.1 15.7 13.1 15.75 9.5 16.45 5.2 17.25 3.65 17.45 2.9 17.45 2.8 17.45 2.55 17.45 3.65 15.4 3.3 13.6" fill="#d6c7ba" fill-rule="evenodd" stroke="none"/>
      <path d="M3.3 13.6 L4.45 13.6 6.05 13.55 9.15 13.25 13.0 12.4 Q15.55 10.8 17.9 8.7 18.4 8.6 18.75 9.7 18.75 10.95 18.35 11.5 L17.55 12.35 16.45 13.2 14.9 14.55 13.1 15.7 M13.1 15.75 L9.5 16.45 5.2 17.25 3.65 17.45 2.9 17.45 2.8 17.45 2.55 17.45 0.1 17.25 M0.1 17.3 L-3.25 16.35 Q-7.25 15.1 -11.4 13.1 -15.5 11.05 -17.15 8.1 -18.8 5.15 -16.65 3.85 -16.15 6.95 -11.25 9.65 -6.35 12.3 -1.65 13.25 L0.0 13.55 3.3 13.6 Z" fill="none" stroke="#000000" stroke-linecap="round" stroke-linejoin="round" stroke-opacity="0.3019608" stroke-width="0.05"/>
    </g>
    <g id="sprite2" transform="matrix(1.0, 0.0, 0.0, 1.0, 14.6, 6.5)">
      <use height="12.95" transform="matrix(1.0, 0.0, 0.0, 1.0, -14.6, -6.5)" width="29.45" xlink:href="#shape2"/>
    </g>
    <g id="shape2" transform="matrix(1.0, 0.0, 0.0, 1.0, 14.6, 6.5)">
      <path d="M-1.85 6.4 Q-5.2 6.1 -9.0 4.6 -13.55 2.8 -14.1 0.65 L-14.6 -1.95 -14.4 -3.4 -14.0 -5.0 -13.05 -6.45 -13.35 -4.85 Q-12.85 -2.9 -8.65 -1.6 -5.4 -0.6 -2.6 -0.35 L-1.1 -0.3 3.2 -0.75 Q3.4 0.6 2.9 1.05 L0.9 1.45 Q-1.95 1.85 -1.85 6.4" fill="#c9a894" fill-rule="evenodd" stroke="none"/>
      <path d="M3.2 -0.75 L6.4 -1.5 Q10.45 -2.65 12.75 -4.4 L11.9 -6.5 Q13.65 -5.65 14.55 -2.9 15.45 -0.2 13.7 1.6 11.95 3.35 7.55 4.95 3.15 6.5 -0.65 6.45 L-1.85 6.4 Q-1.95 1.85 0.9 1.45 L2.9 1.05 Q3.4 0.6 3.2 -0.75" fill="#af8061" fill-rule="evenodd" stroke="none"/>
      <path d="M3.2 -0.75 L6.4 -1.5 Q10.45 -2.65 12.75 -4.4 L11.9 -6.5 Q13.65 -5.65 14.55 -2.9 15.45 -0.2 13.7 1.6 11.95 3.35 7.55 4.95 3.15 6.5 -0.65 6.45 L-1.85 6.4 Q-5.2 6.1 -9.0 4.6 -13.55 2.8 -14.1 0.65 L-14.6 -1.95 -14.4 -3.4 -14.0 -5.0 -13.05 -6.45 -13.35 -4.85 Q-12.85 -2.9 -8.65 -1.6 -5.4 -0.6 -2.6 -0.35 L-1.1 -0.3 3.2 -0.75 Z" fill="none" stroke="#000000" stroke-linecap="round" stroke-linejoin="round" stroke-opacity="0.3019608" stroke-width="0.05"/>
      <path d="M-11.35 2.0 L-11.6 1.65 -12.0 0.75 -11.95 0.35 -11.8 -0.15 -6.2 0.05 -5.85 0.2 -5.75 0.85 Q-5.75 2.5 -9.0 2.5 L-10.35 2.35 -11.35 2.0" fill="#d6c7ba" fill-rule="evenodd" stroke="none"/>
      <path d="M-11.35 2.0 L-10.35 2.35 -9.0 2.5 Q-5.75 2.5 -5.75 0.85 L-5.85 0.2 Q-4.95 0.55 -4.15 1.15 L-3.6 1.75 -3.7 2.95 Q-6.5 4.8 -10.05 3.0 L-11.35 2.0" fill="#ffffff" fill-rule="evenodd" stroke="none"/>
      <path d="M-5.85 0.2 L-6.2 0.05 -11.8 -0.15 -11.95 0.35 -12.0 0.75 -11.6 1.65 -11.35 2.0 M-5.85 0.2 Q-4.95 0.55 -4.15 1.15 L-3.6 1.75 -3.7 2.95 Q-6.5 4.8 -10.05 3.0 L-11.35 2.0" fill="none" stroke="#000000" stroke-linecap="round" stroke-linejoin="round" stroke-opacity="0.3019608" stroke-width="0.05"/>
    </g>
  </defs>
</svg>
