<?xml version="1.0" encoding="UTF-8" standalone="no"?>
<svg xmlns:xlink="http://www.w3.org/1999/xlink" height="18.9px" width="19.5px" xmlns="http://www.w3.org/2000/svg">
  <g transform="matrix(1.0, 0.0, 0.0, 1.0, 0.0, 0.0)">
    <use height="18.9" transform="matrix(1.0, 0.0, 0.0, 1.0, 0.0, 0.0)" width="19.5" xlink:href="#shape0"/>
  </g>
  <defs>
    <g id="shape0" transform="matrix(1.0, 0.0, 0.0, 1.0, 0.0, 0.0)">
      <path d="M10.35 11.15 L10.35 11.2 10.15 12.05 10.35 11.15 M1.65 6.4 L1.7 6.45 1.65 6.5 1.65 6.4" fill="#cccccc" fill-rule="evenodd" stroke="none"/>
      <path d="M19.4 6.6 Q19.65 9.7 19.15 10.3 L18.95 10.5 18.35 10.9 17.75 11.3 16.45 12.05 16.2 8.65 19.4 6.6 16.2 8.65 0.05 2.6 Q0.15 2.15 2.1 0.0 L19.4 6.6" fill="#d1b6b6" fill-rule="evenodd" stroke="none"/>
      <path d="M16.2 8.65 L16.45 12.05 15.95 12.3 Q14.7 13.15 7.7 18.9 L4.05 17.8 1.7 16.75 Q1.4 16.4 1.35 15.0 1.3 11.3 0.0 2.65 L0.05 2.6 16.2 8.65 M1.75 9.1 Q1.75 12.0 3.1 13.9 4.15 15.4 5.0 15.4 7.2 15.4 8.4 13.5 9.3 12.1 9.3 10.55 9.3 8.1 7.45 6.45 5.85 4.95 4.05 4.95 L2.85 5.15 Q2.45 5.15 2.1 6.45 1.75 7.7 1.75 9.1" fill="#ffffff" fill-rule="evenodd" stroke="none"/>
      <path d="M16.45 12.05 L17.75 11.3 18.35 10.9 18.95 10.5 19.15 10.3 Q19.65 9.7 19.4 6.6 L16.2 8.65 16.45 12.05 15.95 12.3 Q14.7 13.15 7.7 18.9 L4.05 17.8 1.7 16.75 Q1.4 16.4 1.35 15.0 1.3 11.3 0.0 2.65 L0.05 2.6 Q0.15 2.15 2.1 0.0 L19.4 6.6 M1.75 9.1 Q1.75 12.0 3.1 13.9 4.15 15.4 5.0 15.4 7.2 15.4 8.4 13.5 9.3 12.1 9.3 10.55 9.3 8.1 7.45 6.45 5.85 4.95 4.05 4.95 L2.85 5.15 Q2.45 5.15 2.1 6.45 1.75 7.7 1.75 9.1 M6.45 10.9 Q7.0 10.9 7.2 10.15 L7.3 9.3 Q7.3 7.8 6.5 8.3 5.65 8.75 5.75 9.85 5.85 10.9 6.45 10.9 M0.05 2.6 L16.2 8.65" fill="none" stroke="#000000" stroke-linecap="round" stroke-linejoin="round" stroke-opacity="0.3019608" stroke-width="0.05"/>
    </g>
  </defs>
</svg>
