<?xml version="1.0" encoding="UTF-8" standalone="no"?>
<svg xmlns:xlink="http://www.w3.org/1999/xlink" height="73.5px" width="19.6px" xmlns="http://www.w3.org/2000/svg">
  <g transform="matrix(1.0, 0.0, 0.0, 1.0, 9.8, 36.75)">
    <use height="73.5" transform="matrix(1.0, 0.0, 0.0, 1.0, -9.8, -36.75)" width="19.6" xlink:href="#shape0"/>
  </g>
  <defs>
    <g id="shape0" transform="matrix(1.0, 0.0, 0.0, 1.0, 9.8, 36.75)">
      <path d="M-3.3 -36.75 Q-2.15 -35.4 -1.05 -32.85 L0.85 -28.85 3.5 -25.1 Q5.05 -22.7 5.05 -21.2 L4.4 -16.5 Q3.75 -12.4 3.75 -9.0 L4.05 -6.8 3.25 1.35 3.0 5.4 Q2.8 7.85 2.1 9.3 1.5 8.5 1.55 7.55 L1.75 5.65 Q1.75 3.95 2.45 -1.0 L3.1 -5.9 2.75 -8.4 Q2.4 -10.7 2.4 -12.45 L2.75 -15.8 3.1 -20.15 Q3.1 -20.65 0.55 -26.95 L-3.45 -36.0 -3.45 -36.75 -3.3 -36.75 M0.25 20.0 L0.4 19.65 0.8 21.0 1.05 22.05 0.85 23.1 Q0.5 24.0 -0.15 24.0 -0.75 24.0 -0.95 23.55 L-0.95 23.4 -1.05 23.05 -0.6 22.35 Q-0.15 21.9 -0.05 21.3 L0.1 20.35 0.25 20.0 M-1.15 26.85 L-0.8 25.95 -0.35 27.75 -0.05 29.35 -0.5 30.7 Q-1.05 31.85 -1.65 31.85 -1.95 31.85 -2.05 31.55 L-2.15 31.35 -2.15 31.25 -1.65 28.5 -1.55 28.2 -1.35 27.5 -1.15 26.9 -1.15 26.85 M-3.15 34.55 Q-2.7 33.85 -2.3 33.75 -2.0 34.35 -2.0 34.65 L-2.25 35.7 Q-2.6 36.45 -3.2 36.45 L-3.3 36.45 -3.65 36.3 -3.75 36.2 -3.75 35.9 -3.3 34.8 -3.15 34.55" fill="#ffd633" fill-rule="evenodd" stroke="none"/>
      <path d="M5.5 13.1 L5.4 12.75 Q9.8 7.45 9.8 10.9 8.75 14.15 7.75 14.15 L7.25 13.95 Q6.7 13.95 6.5 13.3 L6.2 13.45 Q5.7 13.45 5.5 13.1 M-0.95 23.4 L-1.55 23.45 Q-2.4 23.45 -2.4 22.7 -2.4 18.45 -0.95 18.55 0.05 18.6 0.35 19.75 L0.25 20.0 0.1 20.35 -0.05 21.3 Q-0.15 21.9 -0.6 22.35 L-1.05 23.05 -0.95 23.4 M-1.15 26.85 L-1.15 26.9 -1.35 27.5 -1.55 28.2 -1.65 28.5 -2.15 31.25 -2.15 31.35 -2.05 31.55 -2.85 31.8 Q-3.4 31.8 -3.5 31.3 L-3.5 30.8 Q-3.5 28.05 -2.25 26.6 -1.45 25.65 -1.15 26.85 M-3.3 36.45 L-4.2 36.75 Q-4.6 36.75 -4.85 35.65 L-5.1 34.55 Q-5.1 33.65 -3.95 34.05 -3.4 34.25 -3.15 34.55 L-3.3 34.8 -3.75 35.9 -3.75 36.2 -3.65 36.3 -3.3 36.45 M-9.75 14.45 Q-10.15 13.9 -6.25 13.85 L3.0 13.55 5.05 14.2 Q6.7 14.8 6.7 15.05 6.7 15.35 6.05 15.35 L-6.55 15.05 Q-9.35 15.0 -9.75 14.45" fill="#ffd633" fill-opacity="0.4" fill-rule="evenodd" stroke="none"/>
    </g>
  </defs>
</svg>
