<?xml version="1.0" encoding="UTF-8" standalone="no"?>
<svg xmlns:xlink="http://www.w3.org/1999/xlink" height="59.0px" width="101.75px" xmlns="http://www.w3.org/2000/svg">
  <g transform="matrix(1.0, 0.0, 0.0, 1.0, 50.9, 29.5)">
    <use height="59.0" transform="matrix(1.0, 0.0, 0.0, 1.0, -50.9, -29.5)" width="101.75" xlink:href="#shape0"/>
  </g>
  <defs>
    <g id="shape0" transform="matrix(1.0, 0.0, 0.0, 1.0, 50.9, 29.5)">
      <path d="M3.75 -26.65 Q6.05 -24.15 8.1 -20.5 L8.85 -20.75 8.25 -22.25 Q7.7 -23.6 5.3 -25.55 L3.75 -26.65 M7.4 -26.55 Q9.4 -25.1 9.7 -23.6 10.1 -21.7 10.95 -20.45 L12.65 -19.1 14.5 -17.65 24.0 -5.6 27.6 0.55 Q29.6 4.3 32.05 6.7 L38.45 12.85 Q43.45 16.5 50.85 17.75 50.75 18.25 50.25 18.25 L49.4 18.25 49.55 18.75 Q49.55 19.8 47.65 20.85 44.75 22.45 38.8 22.45 L35.95 22.15 Q35.7 23.8 31.35 25.3 27.05 26.75 23.2 26.75 L19.25 26.3 19.05 26.2 18.8 26.2 17.8 25.9 15.95 27.15 13.45 28.4 Q10.15 29.5 5.35 29.5 L-7.85 28.35 Q-15.5 27.0 -18.2 24.6 L-19.45 25.05 -21.15 25.3 Q-27.9 25.3 -31.5 22.85 -34.15 21.1 -34.7 18.45 L-36.0 18.7 -37.5 18.9 Q-41.25 18.9 -44.7 16.55 -47.55 14.6 -47.55 13.6 L-47.45 13.35 -50.45 14.35 -50.9 14.3 Q-42.55 10.95 -36.0 3.65 -32.5 -0.2 -27.15 -8.65 L-22.7 -14.7 -17.9 -20.9 Q-14.95 -25.0 -7.25 -27.7 -0.35 -30.15 1.85 -29.25 5.3 -28.1 7.4 -26.55 M13.1 -16.35 L11.45 -17.6 Q9.85 -18.75 9.5 -19.3 L9.25 -19.8 8.5 -19.8 10.85 -15.0 13.2 -9.9 13.3 -9.9 Q15.5 -9.9 16.0 -11.25 16.2 -11.8 16.0 -12.75 L15.35 -13.5 13.1 -16.35 M6.4 -21.55 Q4.1 -25.8 1.45 -26.45 2.75 -24.95 2.85 -21.2 L2.9 -21.25 3.4 -20.25 Q3.85 -19.55 4.8 -19.55 L5.55 -19.8 Q6.2 -20.2 6.25 -20.9 L6.7 -21.05 6.4 -21.55 M6.55 -19.25 Q6.35 -18.75 5.35 -18.75 L3.0 -19.15 Q3.2 -16.8 3.9 -13.95 L5.0 -9.75 5.3 -9.2 Q5.7 -8.4 8.3 -8.4 10.95 -8.4 11.65 -9.25 10.0 -12.4 9.15 -14.75 L7.25 -19.8 7.0 -19.8 6.55 -19.25 M1.5 -20.5 L0.1 -25.8 -0.45 -21.85 -0.35 -21.7 Q0.3 -20.5 1.0 -20.5 L1.5 -20.5 M1.75 -19.5 Q0.25 -20.0 -0.6 -20.6 L-1.45 -13.05 -2.05 -7.85 Q-1.65 -7.05 -0.3 -7.05 2.75 -7.05 3.8 -8.3 L4.0 -8.5 2.9 -13.9 1.75 -19.5 M7.05 -0.7 L7.95 3.3 8.75 4.25 Q10.35 5.85 13.45 5.85 16.9 5.85 18.0 4.2 L18.45 3.15 15.2 -2.5 11.9 -8.7 11.9 -8.75 11.5 -8.4 Q10.7 -7.75 10.05 -7.75 L5.45 -7.8 7.05 -0.7 M3.45 -7.5 Q2.15 -6.6 0.6 -6.6 -1.5 -6.6 -2.15 -7.35 -2.7 -3.25 -3.4 -0.3 L-3.7 1.1 -2.95 2.15 Q-0.75 4.55 3.5 4.55 5.7 4.55 6.6 3.4 L5.85 0.3 Q5.3 -1.95 4.1 -7.95 L3.45 -7.5 M16.5 -10.45 Q15.75 -9.1 13.95 -9.1 L13.55 -9.1 Q15.65 -4.8 17.15 -2.65 L19.2 0.7 20.45 0.9 Q21.9 0.9 23.0 -1.05 L23.55 -2.25 22.55 -4.4 20.7 -7.6 Q19.6 -9.5 18.4 -10.5 L16.9 -11.85 16.5 -10.45 M23.4 -0.05 Q21.85 1.85 19.85 1.95 L20.5 3.3 22.9 8.05 23.05 8.0 24.6 9.7 Q26.4 11.35 27.8 11.35 30.65 11.35 30.9 9.1 L31.0 8.7 29.75 7.25 Q26.45 3.2 24.15 -1.1 L23.4 -0.05 M47.05 20.0 L48.7 18.55 Q49.0 18.25 49.25 18.25 39.7 17.8 31.95 9.7 31.2 12.5 27.95 12.5 27.15 12.5 25.35 11.55 L24.95 11.35 Q29.0 17.05 36.15 21.25 L37.8 21.45 45.45 20.9 Q46.55 20.55 47.05 20.0 M22.25 8.75 L18.85 3.8 18.4 4.7 Q17.15 6.9 14.65 6.9 11.05 6.9 8.75 5.45 L8.45 5.25 Q9.45 9.3 10.3 11.65 13.15 13.45 15.45 13.45 22.25 13.45 22.25 8.9 L22.25 8.75 M23.45 10.45 L21.9 12.7 Q20.4 14.55 16.9 14.55 13.45 14.55 11.3 13.4 L10.85 13.15 Q13.6 19.9 18.9 25.35 L19.8 25.55 21.45 25.85 28.65 25.0 31.8 24.0 33.35 23.2 34.6 22.35 35.05 21.7 34.95 21.45 32.3 19.8 Q29.2 17.7 27.45 15.9 L24.95 12.65 23.65 10.6 23.45 10.45 M6.75 4.05 L6.05 4.6 Q5.05 5.3 4.25 5.3 -0.75 5.3 -3.1 3.15 L-3.95 2.2 Q-5.3 7.55 -6.7 10.85 L-4.85 12.75 Q-2.1 15.25 0.5 15.25 5.55 15.25 7.85 13.3 L9.1 11.85 Q8.25 9.7 7.5 6.9 L6.75 4.05 M3.1 16.45 Q-2.25 16.45 -5.5 13.6 L-7.15 11.85 -7.55 12.65 Q-11.0 19.15 -17.95 23.5 L-14.95 25.65 -10.45 26.65 -5.85 27.6 5.4 28.45 Q9.9 28.45 13.75 26.95 L17.2 25.45 Q15.75 24.25 13.85 21.15 11.65 17.6 9.7 13.35 L9.45 12.75 7.95 14.35 Q5.7 16.45 3.1 16.45 M-6.0 -26.25 Q-9.6 -25.1 -11.8 -24.15 L-13.7 -23.0 -13.7 -22.55 Q-13.55 -21.25 -12.35 -21.25 -10.05 -21.25 -8.85 -22.0 L-7.8 -22.95 -7.75 -22.9 Q-6.0 -25.35 -4.3 -26.75 L-6.0 -26.25 M-21.4 -13.6 Q-21.85 -13.45 -22.25 -12.1 L-22.6 -10.4 Q-21.85 -1.65 -19.6 -1.65 L-18.75 -1.85 -18.15 -2.25 -18.0 -2.25 -16.35 -6.15 -13.25 -13.5 -13.35 -13.4 -17.0 -13.0 Q-18.4 -13.0 -18.85 -14.4 L-19.05 -15.9 -19.0 -17.0 -21.55 -13.7 -21.4 -13.6 M-23.0 -11.75 L-26.25 -7.0 -28.1 -4.05 -28.15 -4.0 -28.2 -3.95 -30.35 -0.9 -30.6 -0.25 Q-31.5 2.05 -31.5 4.0 -31.5 8.45 -26.95 8.45 -25.75 8.45 -24.45 7.75 -21.05 3.5 -18.75 -0.8 -21.3 -0.7 -22.55 -4.4 -23.15 -6.3 -23.3 -8.3 L-23.0 -11.75 M-4.65 -19.6 L-7.9 -20.05 -10.5 -15.45 -11.75 -12.85 -11.8 -11.25 Q-11.95 -9.9 -11.55 -8.75 -10.7 -6.5 -7.8 -6.5 -5.65 -6.5 -4.15 -7.8 L-3.7 -8.2 -3.7 -8.25 -2.7 -14.85 Q-2.3 -16.5 -2.2 -20.7 -3.4 -19.6 -4.65 -19.6 M-2.2 -22.15 Q-1.9 -25.3 -0.65 -26.45 -3.95 -25.9 -6.7 -22.1 L-7.25 -21.2 Q-6.85 -20.5 -5.5 -20.5 -3.6 -20.5 -2.45 -21.7 L-2.2 -21.95 -2.2 -22.15 M-9.4 -20.9 L-11.0 -20.5 Q-13.15 -20.5 -13.95 -21.35 -14.3 -21.75 -14.3 -22.3 L-14.3 -22.55 -15.45 -21.4 -17.4 -18.9 -18.05 -17.0 -18.0 -15.4 Q-17.6 -14.05 -15.75 -14.05 -14.35 -14.05 -13.5 -14.5 L-12.6 -14.85 -9.05 -21.0 -9.4 -20.9 M-15.5 -4.1 Q-16.65 -1.7 -17.9 0.45 L-17.25 1.9 Q-15.75 4.35 -12.35 4.35 -10.8 4.35 -7.75 2.3 -6.15 1.2 -4.8 0.1 L-4.55 -1.65 -3.85 -7.1 Q-5.5 -5.7 -9.05 -5.7 -11.6 -5.7 -12.4 -9.4 L-12.65 -10.75 -13.0 -9.9 Q-14.5 -6.15 -15.5 -4.1 M-7.2 8.75 Q-5.8 5.2 -5.0 1.05 L-7.8 3.1 Q-11.0 5.1 -13.35 5.1 -17.6 5.1 -18.4 1.35 -20.3 4.5 -22.35 7.1 L-22.85 7.75 -22.35 10.65 Q-21.55 13.25 -16.75 13.25 -13.15 13.25 -10.95 12.25 L-8.6 10.85 -8.45 11.0 -10.85 12.9 Q-12.95 14.2 -16.75 14.2 -21.5 14.2 -22.85 11.65 -23.2 11.0 -23.35 8.4 -27.8 13.7 -33.8 18.15 L-33.55 18.75 Q-32.85 20.5 -31.65 21.55 L-29.95 22.6 -28.0 23.45 -21.7 24.3 -22.0 24.3 -19.3 23.85 -18.55 23.6 Q-11.9 18.25 -8.5 11.6 L-7.8 10.15 Q-7.8 8.85 -7.2 8.75 M-26.95 9.4 Q-30.05 9.4 -31.35 7.95 -32.45 6.7 -32.45 4.0 -32.45 2.8 -32.05 1.4 L-34.9 4.75 Q-40.35 10.5 -47.15 13.25 -46.45 14.6 -43.9 16.1 -40.85 17.95 -38.1 17.95 L-35.65 17.6 -34.25 17.25 -34.05 17.6 Q-29.2 13.35 -25.5 9.05 L-26.95 9.4" fill="#cccccc" fill-rule="evenodd" stroke="none"/>
    </g>
  </defs>
</svg>
