<?xml version="1.0" encoding="UTF-8" standalone="no"?>
<svg xmlns:xlink="http://www.w3.org/1999/xlink" height="179.55px" width="152.35px" xmlns="http://www.w3.org/2000/svg">
  <g transform="matrix(1.0, 0.0, 0.0, 1.0, 84.05, 84.5)">
    <use height="179.55" transform="matrix(1.0, 0.0, 0.0, 1.0, -84.05, -84.5)" width="152.35" xlink:href="#shape0"/>
  </g>
  <defs>
    <g id="shape0" transform="matrix(1.0, 0.0, 0.0, 1.0, 84.05, 84.5)">
      <path d="M17.3 89.1 Q2.35 86.05 0.35 86.0 -22.2 85.45 -31.1 82.75 -36.9 81.05 -36.9 78.25 -36.9 77.15 -36.25 76.8 L-33.3 76.25 -14.25 74.75 Q-10.05 74.45 -6.45 74.9 L-1.6 75.75 Q16.75 79.35 36.8 80.35 L45.9 81.0 Q48.85 81.5 48.85 82.9 L48.45 83.6 Q47.85 84.15 47.35 85.15 48.5 85.05 49.25 85.95 49.85 86.65 49.85 87.25 44.75 91.75 40.45 91.75 L37.7 91.95 32.25 92.15 17.3 89.1" fill="#330000" fill-opacity="0.043137256" fill-rule="evenodd" stroke="none"/>
      <path d="M22.15 -75.5 Q22.85 -75.6 23.1 -75.9 23.3 -76.2 23.3 -77.55 L23.25 -78.05 22.75 -78.9 21.75 -79.35 18.25 -79.9 16.6 -79.55 17.4 -81.4 16.6 -79.55 16.35 -79.5 12.45 -77.85 11.1 -78.1 10.7 -78.25 11.0 -78.55 Q11.35 -79.1 11.35 -79.7 L11.15 -80.75 10.85 -81.45 9.25 -82.05 6.25 -82.25 5.95 -82.25 Q7.5 -83.9 8.9 -84.2 L9.75 -84.35 11.45 -84.5 Q13.55 -84.5 15.65 -83.05 L17.15 -81.75 17.4 -81.4 17.8 -81.75 18.95 -82.55 Q20.5 -83.3 23.05 -83.3 26.1 -83.3 28.25 -82.05 30.5 -80.8 31.5 -78.2 30.2 -78.0 29.4 -76.95 L28.25 -75.0 29.4 -76.95 Q30.2 -78.0 31.5 -78.2 L32.4 -78.3 Q34.5 -78.3 36.55 -77.05 L36.95 -76.65 37.1 -76.45 38.0 -75.4 39.0 -73.95 38.0 -75.4 37.1 -76.45 36.95 -76.65 36.85 -77.15 36.85 -77.75 38.35 -76.1 39.55 -74.55 39.0 -73.95 37.7 -73.05 36.6 -72.4 Q35.0 -71.7 33.55 -71.7 L32.75 -71.75 33.25 -72.05 Q34.05 -72.6 34.05 -73.2 34.05 -74.05 33.6 -74.65 L33.0 -75.15 32.55 -75.35 31.75 -75.7 31.1 -75.9 30.65 -75.85 28.25 -75.0 Q27.5 -74.65 26.65 -74.1 L25.75 -73.55 25.35 -73.2 Q24.4 -73.65 23.5 -74.35 L23.2 -74.6 Q22.6 -75.05 22.15 -75.5 M4.95 -78.4 L6.65 -78.0 7.55 -77.75 7.2 -77.3 6.75 -76.4 Q6.35 -75.45 6.35 -74.15 L6.5 -72.8 6.45 -72.85 Q4.5 -74.45 4.95 -78.4 M12.85 -67.1 L13.25 -65.6 13.25 -65.5 12.65 -66.3 12.1 -67.1 12.1 -66.1 13.35 -61.1 Q14.3 -57.2 15.35 -56.1 17.95 -53.2 19.1 -50.1 L19.1 -50.0 17.8 -50.9 16.5 -51.85 16.35 -52.0 Q16.55 -51.65 17.9 -50.45 L20.1 -48.35 21.85 -45.8 23.1 -44.0 23.1 -43.85 21.55 -44.85 20.1 -45.6 20.1 -45.1 20.9 -42.9 21.5 -41.1 21.5 -41.0 Q20.8 -41.25 20.3 -41.6 L19.3 -43.75 18.9 -44.5 16.5 -48.45 16.65 -48.45 17.7 -48.05 17.7 -48.0 17.85 -48.0 17.7 -48.05 15.6 -51.7 Q14.1 -54.15 12.75 -55.4 L12.9 -55.4 Q14.3 -54.7 15.0 -54.65 L11.25 -59.15 7.85 -64.9 11.55 -62.7 11.55 -62.85 8.7 -67.05 5.9 -70.65 7.9 -69.85 Q8.75 -68.7 10.4 -67.85 L10.6 -67.75 Q11.9 -67.0 12.85 -67.1 M20.45 -41.15 L21.15 -39.05 19.6 -40.05 20.2 -38.0 15.3 -38.35 15.5 -38.5 18.2 -39.25 18.0 -39.25 13.8 -39.4 9.75 -39.8 10.1 -39.95 12.8 -40.3 12.6 -40.3 8.85 -40.6 8.45 -40.6 8.55 -40.65 5.3 -40.9 4.3 -41.0 0.5 -41.5 0.45 -41.55 -0.05 -41.6 -0.15 -41.7 -0.4 -42.05 -0.45 -42.1 Q-1.5 -43.25 -3.25 -44.05 -4.9 -44.85 -7.2 -45.25 L-4.6 -47.8 -1.7 -50.85 -2.9 -45.9 -2.9 -45.75 -2.5 -45.95 0.4 -47.5 Q3.55 -49.05 4.65 -48.65 L4.8 -48.65 Q3.7 -48.6 0.35 -46.65 L0.35 -46.5 4.5 -47.1 5.65 -47.3 6.55 -47.5 5.15 -46.5 5.65 -46.55 6.6 -46.55 9.05 -46.3 14.15 -45.2 10.1 -44.9 14.4 -44.65 17.25 -44.25 Q18.15 -44.05 18.6 -43.65 L15.35 -43.7 18.4 -42.2 20.0 -41.4 20.45 -41.15 M19.6 -40.05 L19.5 -40.25 19.5 -40.1 19.6 -40.05 M16.5 -42.0 L14.25 -42.0 16.5 -42.0 M5.15 -46.5 L4.95 -46.5 5.1 -46.5 5.15 -46.5 M10.65 -43.65 L5.9 -43.35 3.35 -42.6 3.35 -42.75 4.9 -44.0 1.65 -42.75 4.9 -44.0 5.65 -44.35 6.3 -44.6 5.65 -44.35 4.9 -44.0 3.35 -42.75 3.35 -42.6 5.9 -43.35 10.65 -43.65 M14.25 -32.0 L13.9 -32.45 14.25 -32.25 14.25 -32.0 M9.95 -10.95 L9.95 -11.15 10.1 -11.3 10.85 -9.75 9.95 -10.95 M-8.75 9.6 Q-7.0 5.4 -2.7 -1.05 L-2.55 -1.05 -2.55 0.3 -3.2 6.9 Q-2.65 6.6 -1.2 4.0 0.2 1.5 0.3 0.8 L0.95 3.55 1.7 7.05 Q3.85 5.85 4.8 0.1 5.45 -4.2 5.3 -8.25 6.25 -7.75 7.35 -3.45 L7.4 -3.3 7.75 -3.2 Q8.8 -3.2 9.8 -9.8 L11.6 -3.45 Q11.9 -2.55 12.0 -0.7 L12.2 2.0 12.2 4.5 12.2 7.95 11.35 5.85 Q10.5 4.25 10.5 3.6 L10.35 3.45 10.6 5.25 10.8 7.6 10.75 9.6 10.7 9.85 10.7 10.15 10.6 10.0 8.1 13.65 8.1 13.35 8.15 13.1 8.25 7.65 6.95 13.1 5.15 20.4 3.45 23.1 3.3 23.1 3.05 17.4 Q2.75 12.6 2.25 11.55 L2.25 11.3 -0.65 18.75 Q-2.8 24.85 -2.25 26.85 L-2.25 27.0 -5.6 17.85 -5.85 17.7 -6.6 21.25 -7.05 24.45 -7.05 24.6 Q-7.9 22.4 -11.1 16.65 L-13.4 12.6 -13.4 12.35 -13.55 15.8 Q-13.55 18.15 -12.0 24.75 L-12.0 24.95 Q-12.85 24.4 -13.3 23.0 -14.3 21.4 -15.1 18.25 L-15.5 16.7 -16.5 12.6 -17.3 13.4 Q-17.95 13.15 -18.05 12.6 L-18.1 9.75 Q-18.1 7.9 -17.45 4.4 L-17.05 2.6 -16.85 1.55 Q-15.2 -0.95 -12.35 -2.55 L-12.15 -2.9 -12.15 -2.7 -12.35 -2.55 -13.2 -0.55 -13.8 1.25 -14.1 2.25 -14.1 3.3 -12.3 1.6 -11.9 1.1 -9.95 -1.15 -9.95 -1.35 -9.95 -1.2 -9.95 -1.15 Q-10.35 0.95 -10.35 3.55 -10.35 6.0 -9.9 7.45 -9.45 8.85 -9.45 10.65 -9.3 10.65 -9.3 11.0 L-8.75 9.6 M38.0 39.85 L43.15 41.15 45.6 41.7 45.9 42.0 41.55 42.85 41.1 42.9 42.25 43.7 43.4 44.45 Q44.9 45.5 46.4 47.3 L46.8 47.75 48.45 49.9 48.95 51.9 49.3 53.35 Q48.6 55.4 47.55 55.95 L47.55 55.8 Q47.8 55.35 47.65 54.1 47.45 52.85 47.0 52.5 46.4 53.1 44.9 57.25 L43.05 61.8 42.75 61.25 40.25 58.45 36.3 54.75 36.3 55.4 37.7 59.55 37.7 60.2 37.35 60.2 32.55 55.35 Q30.0 52.6 29.55 50.5 L29.45 49.7 29.45 49.95 29.45 50.5 29.1 55.4 28.95 55.4 Q29.2 54.0 27.65 50.9 L26.85 49.4 Q24.35 44.95 21.75 43.2 27.5 42.25 28.8 41.25 L28.55 41.25 25.4 41.2 Q22.9 41.1 22.55 40.65 L22.7 40.65 27.6 39.15 33.6 37.5 33.45 37.5 30.45 36.8 35.9 36.45 37.4 36.45 43.25 39.75 43.05 39.75 39.65 39.9 38.0 39.85 35.9 39.0 38.0 39.85 M37.35 14.45 L38.1 15.9 38.3 16.35 36.35 20.65 36.35 12.1 37.35 14.45 M23.85 5.3 L24.3 3.65 24.5 3.65 Q25.15 4.75 26.1 7.6 27.1 10.5 27.1 11.4 L27.55 11.4 Q27.55 10.9 28.05 9.1 L28.8 6.65 28.8 6.9 30.65 14.8 Q31.2 17.65 31.2 19.0 L31.2 20.2 31.1 20.05 30.95 20.0 30.6 17.35 30.1 14.85 26.3 19.75 22.6 23.95 23.15 21.0 24.1 16.35 24.1 15.25 22.15 17.45 20.0 19.35 20.2 19.15 21.4 14.85 Q22.6 10.25 22.6 8.25 L22.45 6.6 22.15 4.95 Q23.0 5.45 23.0 6.65 L23.2 6.65 23.85 5.3 M35.8 79.75 L37.3 78.8 37.1 78.75 38.55 78.25 40.75 77.45 43.0 75.65 44.25 75.25 44.45 75.15 48.15 74.0 Q47.6 74.2 46.4 75.0 L44.7 76.1 49.15 75.35 53.7 74.8 54.7 74.8 55.05 74.65 55.1 74.6 56.9 73.95 55.7 74.8 Q55.1 75.35 55.0 75.8 L55.15 76.05 Q56.6 76.0 59.3 77.4 L57.65 77.9 Q56.5 78.2 56.2 78.45 56.6 78.45 56.6 78.6 57.4 78.7 58.9 79.35 L59.6 79.65 Q61.9 80.65 62.3 81.35 L62.05 81.35 60.7 81.1 59.3 81.0 Q58.15 81.0 57.5 81.85 L56.25 83.95 55.15 83.0 Q53.9 82.0 52.45 82.0 51.6 82.0 48.45 82.95 L45.45 83.85 Q44.9 83.85 43.3 82.0 L43.1 82.2 42.95 82.35 Q42.4 82.85 42.0 82.85 L41.0 82.6 39.15 82.35 Q39.15 82.2 38.95 82.2 L36.95 82.55 34.25 83.6 33.15 84.5 Q33.3 83.65 33.7 82.75 L34.3 81.6 34.6 81.2 Q35.15 80.3 35.8 79.75 M37.3 78.8 L38.55 78.25 37.3 78.8 M43.25 81.05 L43.15 81.8 43.1 82.2 43.15 81.8 43.25 81.05 M55.6 82.45 L56.25 83.95 55.6 82.45 M39.1 80.3 L36.8 80.85 39.1 80.3 M44.7 76.1 L44.6 76.15 44.7 76.15 44.7 76.1 M54.3 78.65 Q53.25 78.2 50.2 78.6 L46.6 78.9 50.2 78.6 Q53.25 78.2 54.3 78.65 M-79.1 -52.0 L-78.65 -52.2 -78.6 -52.2 -77.7 -52.55 Q-76.85 -51.75 -75.6 -51.4 L-76.6 -50.25 -77.4 -49.1 -78.0 -49.35 -78.3 -49.4 -80.15 -47.7 -80.2 -48.25 Q-80.2 -49.0 -79.6 -50.85 L-79.1 -52.0 M-79.3 -55.35 L-79.4 -56.5 Q-79.4 -58.15 -77.95 -59.35 L-76.45 -60.35 -73.15 -61.5 Q-72.75 -62.9 -71.05 -64.6 -68.4 -67.15 -65.8 -67.15 L-63.45 -66.7 Q-62.4 -66.3 -62.1 -66.0 L-60.15 -64.8 -60.15 -65.95 -60.65 -66.75 -59.05 -65.85 Q-57.0 -64.55 -56.75 -63.45 L-56.75 -65.9 Q-56.15 -64.9 -54.05 -63.1 L-51.95 -61.55 -49.6 -60.3 Q-47.85 -59.1 -46.2 -57.7 L-43.15 -55.5 Q-41.75 -54.5 -39.9 -53.9 L-36.0 -53.25 -38.7 -52.85 -40.15 -52.95 -41.2 -53.1 -40.2 -52.85 -35.8 -51.3 Q-31.1 -49.5 -29.1 -48.15 L-35.65 -49.75 Q-33.25 -49.15 -30.45 -47.7 -26.6 -45.7 -25.3 -43.3 L-27.5 -44.8 Q-29.35 -45.9 -30.3 -45.95 -29.45 -45.75 -27.15 -43.3 L-25.35 -41.4 Q-25.7 -40.15 -25.7 -36.65 -25.7 -35.3 -25.85 -34.75 L-26.25 -33.65 -26.45 -33.25 -26.65 -32.8 -26.9 -32.3 Q-27.2 -31.7 -28.0 -31.2 L-28.5 -31.6 -28.95 -32.0 -31.5 -34.95 -31.95 -32.9 -32.4 -30.75 -32.4 -30.95 Q-33.25 -34.1 -34.45 -36.7 -36.15 -40.55 -37.85 -41.45 L-37.15 -39.2 -36.65 -37.25 -36.65 -36.65 -37.05 -36.8 -41.4 -40.75 -42.2 -41.55 Q-45.05 -44.55 -45.45 -46.65 L-45.45 -46.5 Q-46.65 -43.45 -46.5 -42.5 L-46.65 -42.5 -48.3 -48.9 Q-49.55 -53.55 -50.45 -54.2 L-50.45 -53.4 -49.8 -50.4 Q-51.4 -53.85 -55.2 -57.8 L-55.6 -58.2 Q-59.4 -61.95 -61.55 -61.95 L-63.5 -61.8 Q-61.15 -62.55 -60.75 -62.85 L-61.25 -62.85 Q-62.75 -62.85 -65.85 -61.85 L-68.9 -60.9 -69.0 -61.0 Q-69.45 -61.5 -70.35 -61.8 -71.6 -61.35 -73.2 -59.45 L-74.6 -57.7 -75.95 -55.75 Q-76.25 -56.45 -77.4 -56.45 L-78.55 -55.9 -79.3 -55.35 M-73.2 -59.45 L-73.35 -60.65 -73.15 -61.5 -73.35 -60.65 -73.2 -59.45 M-6.5 14.0 Q-6.55 11.95 -6.05 10.1 L-5.65 8.3 -6.05 10.1 Q-6.55 11.95 -6.5 14.0 M-16.65 42.95 L-14.5 41.7 -11.2 39.7 -9.4 38.6 -13.5 43.95 -12.35 43.95 -9.45 43.0 -8.1 43.0 -11.75 45.45 -14.85 47.6 -14.85 47.8 -11.2 48.0 -8.1 47.85 -8.75 48.25 Q-11.8 50.35 -13.65 50.95 L-15.3 51.15 -15.3 51.3 -13.7 51.45 -13.1 51.45 -9.55 50.95 -5.45 50.45 -5.1 50.45 -5.3 50.45 -5.45 50.45 Q-6.85 50.6 -9.25 52.95 L-11.4 55.3 Q-15.55 60.25 -15.8 62.55 L-15.95 62.7 -15.65 57.65 -15.65 57.5 Q-16.05 59.2 -18.8 62.7 -21.5 66.25 -22.85 66.8 L-22.9 66.9 -23.1 66.95 Q-22.65 66.25 -22.35 64.55 L-21.9 62.7 -21.9 61.95 Q-22.85 63.05 -23.6 65.5 -24.35 67.95 -24.9 71.0 L-25.0 70.35 -24.9 69.25 -25.95 70.2 -26.4 70.95 -27.35 72.8 Q-27.5 73.2 -27.8 73.4 L-28.3 73.55 -29.75 73.85 -32.6 74.7 -34.4 75.1 Q-34.55 74.3 -34.95 73.85 L-37.5 74.0 Q-37.15 69.0 -32.8 69.0 L-30.95 69.25 -29.0 69.45 -27.75 69.2 -29.0 69.45 -30.95 69.25 -32.8 69.0 Q-37.15 69.0 -37.5 74.0 -38.75 74.3 -39.8 74.95 L-40.8 75.7 -40.95 74.6 -39.6 73.6 -39.25 73.25 Q-38.95 72.75 -39.1 72.25 L-39.15 72.1 Q-39.55 71.25 -40.25 71.15 -39.9 70.25 -38.75 69.55 -37.6 68.8 -35.75 68.45 L-31.35 68.6 -27.75 69.2 -27.7 69.15 Q-27.2 68.95 -27.05 68.45 L-27.05 68.05 -27.25 67.15 -27.45 65.35 -27.05 63.15 -27.25 63.15 -29.25 66.1 -29.25 65.9 -29.4 64.4 Q-29.4 61.9 -27.9 58.8 L-27.15 57.45 -31.4 61.75 -31.4 61.35 Q-30.6 58.3 -29.55 56.1 L-29.45 55.95 -29.05 54.65 -28.15 52.6 -27.1 51.05 -26.75 50.7 -32.15 53.15 Q-31.1 52.0 -27.85 49.7 -23.95 47.0 -21.95 46.45 -19.5 45.75 -17.1 43.4 L-16.65 42.95 M-25.65 50.35 L-26.75 50.7 -25.65 50.35 M-8.55 37.85 L-8.55 38.1 -8.8 38.25 -8.55 37.85 M-27.15 57.45 L-26.25 56.1 -25.5 55.0 -26.25 56.1 -27.15 57.45 M-27.05 68.45 Q-27.0 69.0 -27.25 69.6 L-28.35 71.4 -29.1 72.55 -29.1 72.65 Q-28.75 72.5 -26.85 70.95 L-25.95 70.2 -26.85 70.95 Q-28.75 72.5 -29.1 72.65 L-29.1 72.55 -28.35 71.4 -27.25 69.6 Q-27.0 69.0 -27.05 68.45 M-37.15 77.7 Q-36.7 79.1 -35.65 80.0 -38.0 79.8 -39.45 78.2 L-39.5 78.15 -37.8 77.7 -37.15 77.7 M4.75 -45.05 Q-0.1 -45.35 -2.0 -44.15 -0.1 -45.35 4.75 -45.05" fill="#a66859" fill-rule="evenodd" stroke="none"/>
      <path d="M25.35 -73.2 L25.75 -73.55 26.65 -74.1 Q27.5 -74.65 28.25 -75.0 L30.65 -75.85 30.9 -75.9 31.1 -75.9 31.75 -75.7 32.55 -75.35 Q32.55 -74.45 32.0 -74.25 L28.0 -73.4 23.9 -72.15 25.35 -73.2 M16.6 -79.55 L18.25 -79.9 21.75 -79.35 22.75 -78.9 22.2 -78.6 21.4 -78.1 20.4 -77.75 14.1 -77.75 11.7 -77.45 12.45 -77.85 16.35 -79.5 16.6 -79.55 M5.95 -82.25 L6.25 -82.25 9.25 -82.05 10.85 -81.45 11.15 -80.75 10.85 -80.5 Q9.95 -79.65 8.5 -79.65 L3.9 -80.0 Q1.35 -80.0 -1.05 -78.8 L-1.5 -78.55 0.6 -80.25 Q3.35 -82.15 5.95 -82.25 M-16.9 -39.1 Q-15.7 -38.5 -14.1 -38.0 L-14.1 -37.95 -14.1 -38.0 -15.65 -38.55 -15.1 -37.5 -13.9 -34.85 -13.8 -32.35 -14.1 -32.2 -14.75 -32.0 -14.85 -31.95 Q-16.05 -31.65 -16.5 -33.35 L-17.0 -34.85 -17.55 -37.3 -17.65 -38.35 -17.55 -37.3 -17.0 -34.85 -17.05 -34.95 -17.2 -34.2 -17.8 -32.15 -17.95 -31.5 -18.2 -31.5 Q-19.0 -31.5 -19.45 -31.9 L-19.55 -32.0 -20.0 -32.8 -20.3 -33.75 -20.5 -35.55 -20.55 -36.15 -20.55 -36.55 -20.7 -34.45 -20.9 -30.15 -20.85 -26.35 -20.9 -26.2 -20.35 -21.95 -20.0 -19.9 -22.4 -27.2 -22.65 -28.25 -23.25 -31.9 -23.4 -33.8 -22.65 -35.25 -21.7 -36.2 -20.55 -36.75 -20.45 -37.25 -20.45 -37.3 -19.45 -38.4 -19.15 -38.55 -17.65 -38.4 -17.65 -38.35 -16.9 -39.1 M1.65 -15.4 L1.55 -14.1 0.9 -12.95 0.8 -12.95 0.25 -12.9 Q0.15 -14.25 0.4 -14.8 0.65 -15.5 0.95 -15.5 L1.65 -15.4 M0.6 -11.7 L0.65 -11.7 0.75 -11.7 0.7 -11.65 0.6 -11.7 M36.0 88.75 Q36.05 85.15 38.15 85.55 39.35 85.7 39.9 86.55 L39.65 86.25 39.1 87.25 38.55 88.3 Q37.9 89.2 36.65 89.2 L36.0 88.75 M49.3 89.9 L48.8 88.1 48.75 86.6 Q50.75 85.05 51.05 85.1 52.15 85.05 52.9 85.9 L52.65 87.2 52.55 88.85 Q52.0 89.9 49.35 89.9 L49.3 89.9 M61.85 84.55 Q63.05 84.55 63.15 86.15 L62.95 86.8 Q62.65 87.3 62.05 87.3 61.4 87.3 61.1 86.4 L60.9 85.45 Q60.9 84.55 61.85 84.55 M-77.0 -53.6 L-76.9 -54.0 -76.5 -54.8 -76.45 -54.95 -80.5 -52.65 -82.45 -50.95 Q-80.95 -53.95 -79.3 -55.35 L-78.55 -55.9 -77.4 -56.45 Q-76.25 -56.45 -75.95 -55.75 L-74.6 -57.7 -73.2 -59.45 Q-71.6 -61.35 -70.35 -61.8 -69.45 -61.5 -69.0 -61.0 L-69.3 -61.25 -69.5 -60.9 Q-69.7 -60.3 -70.8 -59.45 L-72.45 -58.2 -76.95 -53.8 -77.0 -53.6 M-77.3 -49.05 L-77.55 -48.6 Q-78.4 -46.6 -79.7 -46.1 -80.75 -45.65 -82.6 -44.15 L-83.95 -42.95 -80.15 -47.7 -78.3 -49.4 -78.0 -49.35 -77.4 -49.1 -77.3 -49.05 M-76.45 -54.95 L-75.95 -55.75 -76.45 -54.95 M-12.95 -37.65 L-12.9 -37.3 -11.65 -37.05 Q-9.8 -36.9 -9.75 -35.9 L-9.7 -32.7 -9.55 -28.8 -9.2 -25.5 -8.7 -22.9 Q-8.3 -22.1 -8.1 -22.25 -8.4 -21.95 -9.3 -24.25 L-9.7 -25.25 -11.95 -31.65 -12.5 -35.2 -12.95 -37.65 M-20.55 -36.75 L-20.55 -36.15 -20.55 -36.75 M-3.6 -13.95 L-3.6 -14.65 -3.55 -18.75 -3.5 -18.95 -2.1 -15.85 -2.0 -14.1 -1.55 -11.7 -1.55 -11.2 -2.8 -12.9 -3.6 -13.95 M-14.4 -16.05 L-14.7 -18.05 -13.85 -16.65 -14.4 -16.05 M-46.7 76.5 Q-46.6 74.35 -44.6 72.7 -42.7 71.1 -40.7 71.1 L-40.25 71.15 Q-39.55 71.25 -39.15 72.1 L-39.1 72.25 Q-41.55 72.55 -43.65 73.7 -45.75 74.85 -46.6 75.85 L-46.7 76.5 M-42.75 80.0 L-42.75 79.25 Q-42.35 77.1 -40.8 75.7 L-39.8 74.95 Q-38.75 74.3 -37.5 74.0 L-34.95 73.85 Q-34.55 74.3 -34.4 75.1 L-34.4 75.6 -35.6 75.55 Q-39.75 75.8 -42.75 80.0" fill="#ffffcc" fill-rule="evenodd" stroke="none"/>
      <path d="M2.25 -31.6 Q5.8 -26.2 6.25 -19.75 5.05 -21.55 3.8 -24.85 2.5 -27.3 0.15 -27.55 L-0.25 -29.1 -0.65 -31.7 -0.6 -31.95 -0.25 -31.4 Q0.55 -30.3 1.0 -30.3 L1.75 -30.7 2.25 -31.6 M-24.8 -42.35 L-24.9 -43.6 -23.85 -45.6 Q-22.9 -47.05 -17.55 -48.55 -15.3 -48.55 -13.4 -47.6 -11.8 -46.8 -11.0 -45.65 L-13.85 -45.75 -18.15 -45.6 Q-23.2 -44.4 -24.8 -42.35 M-16.1 -47.25 Q-16.1 -48.0 -17.8 -47.8 -19.5 -47.6 -19.5 -46.95 -19.65 -46.45 -18.65 -46.45 -16.1 -46.45 -16.1 -47.25" fill="#660000" fill-rule="evenodd" stroke="none"/>
      <path d="M0.15 -27.55 L0.1 -27.55 Q-2.35 -27.8 -3.45 -26.9 L-4.1 -26.45 -5.15 -25.55 -5.65 -25.85 -5.9 -26.0 -7.5 -26.45 -8.2 -26.35 Q-8.45 -30.65 -7.55 -36.35 L-7.5 -35.85 Q-7.05 -33.7 -6.0 -33.7 -5.65 -33.7 -4.8 -34.55 -4.3 -35.05 -4.2 -35.65 L-3.75 -34.2 Q-3.0 -32.2 -1.9 -32.2 -1.25 -32.2 -1.1 -33.15 L-0.6 -31.95 -0.65 -31.7 -0.25 -29.1 0.15 -27.55 M-5.7 -33.35 L-5.75 -32.55 Q-5.75 -29.65 -4.2 -26.65 L-4.1 -26.45 -4.2 -26.65 Q-5.75 -29.65 -5.75 -32.55 L-5.7 -33.35 M-5.9 -26.0 Q-6.9 -28.45 -6.75 -31.05 -6.9 -28.45 -5.9 -26.0" fill="#7e0101" fill-rule="evenodd" stroke="none"/>
      <path d="M-16.5 -33.35 Q-16.05 -31.65 -14.85 -31.95 L-14.75 -32.0 -14.1 -32.2 -13.8 -32.35 -13.2 -32.95 -13.1 -33.05 -13.0 -33.45 -12.6 -34.9 -12.5 -35.2 -11.95 -31.65 -9.7 -25.25 -10.8 -23.3 -11.05 -22.65 -11.3 -22.0 -11.4 -21.65 -11.8 -20.65 -12.6 -18.85 -14.15 -20.95 -15.75 -23.05 -17.55 -25.15 -18.0 -25.75 -19.05 -27.4 -19.5 -28.6 -19.5 -28.65 -19.55 -31.9 -19.55 -32.0 -19.45 -31.9 Q-19.0 -31.5 -18.2 -31.5 L-17.95 -31.5 Q-16.9 -31.7 -16.5 -33.35 M-13.15 -23.45 Q-13.0 -22.4 -11.8 -20.65 -13.0 -22.4 -13.15 -23.45 M-14.2 -31.7 Q-14.15 -29.4 -13.35 -27.05 -12.3 -24.0 -11.4 -23.0 L-11.05 -22.65 -11.4 -23.0 Q-12.3 -24.0 -13.35 -27.05 -14.15 -29.4 -14.2 -31.7" fill="#8f0101" fill-rule="evenodd" stroke="none"/>
      <path d="M6.5 -72.8 L6.85 -72.55 Q8.1 -71.65 9.8 -71.35 L9.75 -70.55 Q9.75 -69.0 10.4 -67.85 8.75 -68.7 7.9 -69.85 7.2 -70.75 6.85 -71.6 L6.65 -72.1 6.5 -72.5 6.45 -72.85 6.5 -72.8 M0.6 -40.55 L0.6 -40.6 0.6 -40.55 M-0.45 -42.1 L-3.7 -43.3 -7.4 -43.65 -11.45 -43.35 -15.2 -42.65 -19.35 -42.3 Q-21.65 -42.15 -22.85 -41.6 L-23.85 -42.2 -23.85 -41.7 -23.4 -40.35 -23.35 -40.25 -23.5 -40.35 -23.95 -40.85 -23.5 -40.35 Q-24.05 -39.5 -24.1 -38.1 -24.2 -35.65 -24.45 -35.15 -24.9 -34.15 -26.35 -33.0 L-26.45 -32.95 -26.65 -32.8 -26.45 -33.25 -26.25 -33.65 -25.85 -34.75 Q-25.7 -35.3 -25.7 -36.65 -25.7 -40.15 -25.35 -41.4 L-24.8 -42.35 Q-23.2 -44.4 -18.15 -45.6 L-13.85 -45.75 -11.0 -45.65 -7.45 -45.3 -7.2 -45.25 Q-4.9 -44.85 -3.25 -44.05 -1.5 -43.25 -0.45 -42.1 M1.5 -9.55 Q1.25 -8.35 -0.85 -7.35 -2.35 -6.65 -3.65 -6.4 L-5.0 -6.3 Q-6.3 -6.3 -6.3 -7.2 L-6.1 -7.8 -4.6 -8.25 -0.65 -9.25 1.45 -9.5 1.5 -9.55 M-14.35 -10.1 L-13.5 -10.05 -12.25 -10.1 -11.85 -9.85 -11.75 -9.8 -11.75 -9.75 -11.55 -9.7 -11.5 -9.65 Q-13.15 -9.05 -14.65 -7.8 L-15.3 -7.25 -16.75 -6.0 -15.95 -7.5 -15.75 -7.9 -14.35 -10.1 M-19.5 -28.6 L-19.05 -27.4 -18.0 -25.75 -18.7 -26.1 -19.45 -26.35 -19.5 -28.6" fill="#d0b79d" fill-rule="evenodd" stroke="none"/>
      <path d="M-7.05 -23.45 Q-6.55 -23.75 -5.3 -24.05 L-4.35 -23.8 Q-4.0 -23.5 -4.0 -22.75 L-4.1 -22.2 Q-4.4 -21.2 -5.65 -19.05 L-7.55 -15.9 Q-9.15 -12.45 -13.4 -12.45 -14.15 -12.45 -15.65 -13.5 L-16.2 -13.9 -16.15 -13.9 -16.1 -14.15 -16.1 -14.25 -16.0 -14.55 -16.3 -15.0 -16.6 -15.2 -16.4 -15.2 Q-15.4 -15.15 -14.4 -16.05 L-13.85 -16.65 -13.5 -17.15 -12.6 -18.85 -11.8 -20.65 -11.4 -21.65 -11.3 -22.0 -10.75 -22.6 -10.05 -22.95 -9.75 -23.0 Q-9.3 -23.0 -8.8 -22.55 L-8.25 -21.75 -7.25 -23.2 -7.05 -23.45 M-18.4 -14.45 L-18.6 -14.4 Q-18.5 -15.15 -17.95 -15.25 L-17.8 -15.25 Q-18.35 -15.1 -18.35 -14.65 L-18.35 -14.5 -18.4 -14.5 -18.4 -14.45 M-10.35 -18.35 L-10.2 -18.6 -9.1 -20.5 -8.25 -21.75 -9.1 -20.5 -10.2 -18.6 -10.35 -18.35 M-9.2 -17.95 Q-9.25 -17.4 -8.55 -17.4 -8.05 -17.4 -8.05 -17.9 -8.05 -18.45 -8.6 -18.55 -9.2 -18.65 -9.2 -17.95 M-9.65 -16.55 Q-9.65 -16.9 -10.0 -16.9 L-10.35 -16.55 Q-10.45 -16.2 -9.95 -16.2 -9.65 -16.2 -9.65 -16.55 M-6.9 -18.25 L-6.95 -18.55 Q-7.8 -18.9 -7.7 -18.3 L-7.65 -18.0 -7.3 -17.95 -6.95 -18.05 -6.9 -18.25 M-6.4 -19.85 L-6.2 -20.2 Q-6.2 -20.65 -6.7 -20.65 -7.2 -20.65 -7.2 -20.1 -7.2 -19.65 -6.65 -19.65 L-6.4 -19.85 M-8.5 -19.0 Q-8.5 -18.65 -8.15 -18.65 -7.3 -18.65 -7.3 -19.25 -7.3 -20.3 -8.5 -19.0 M-9.9 -19.9 L-9.85 -20.2 Q-10.05 -20.5 -10.35 -20.45 L-10.65 -20.15 -10.6 -19.9 -10.3 -19.75 Q-10.0 -19.75 -9.9 -19.9 M-10.55 -19.3 Q-10.55 -19.85 -11.1 -19.85 -11.7 -19.85 -11.7 -19.3 -11.7 -18.85 -11.25 -18.75 L-11.45 -18.45 Q-11.55 -18.05 -11.15 -18.05 L-10.85 -18.15 -10.8 -18.45 -10.9 -18.75 Q-10.55 -18.8 -10.55 -19.3" fill="#c87374" fill-rule="evenodd" stroke="none"/>
      <path d="M45.15 -15.95 L45.3 -15.9 45.15 -15.9 45.15 -15.95 M54.85 17.85 L55.05 18.45 54.9 18.45 54.85 17.85 M54.6 49.9 L54.75 49.95 54.65 49.95 54.6 49.9 M43.4 44.45 L43.75 44.65 Q45.9 46.2 46.8 47.75 L46.4 47.3 Q44.9 45.5 43.4 44.45 M33.15 84.5 L34.25 83.6 36.95 82.55 38.95 82.2 Q39.15 82.2 39.15 82.35 L41.0 82.6 42.0 82.85 Q42.4 82.85 42.95 82.35 L43.1 82.2 43.1 83.8 43.1 83.85 Q43.05 87.5 44.3 89.6 43.05 87.5 43.1 83.85 L43.1 83.8 43.1 82.2 43.3 82.0 Q44.9 83.85 45.45 83.85 L48.45 82.95 Q51.6 82.0 52.45 82.0 53.9 82.0 55.15 83.0 L56.25 83.95 56.4 84.35 56.95 86.95 56.95 87.05 56.7 89.2 Q55.95 92.25 52.8 92.6 54.1 90.5 54.1 89.25 L53.85 87.65 53.6 87.0 53.5 86.75 53.1 86.15 52.9 85.85 52.9 85.9 Q52.15 85.05 51.05 85.1 50.75 85.05 48.75 86.6 L48.8 88.1 49.3 89.9 49.5 90.6 49.55 90.7 50.2 92.55 Q47.1 92.25 45.55 91.05 L44.3 89.6 Q42.3 91.25 41.35 91.5 L39.05 91.75 39.85 89.4 40.3 88.2 40.1 87.0 40.1 86.9 39.9 86.55 Q39.35 85.7 38.15 85.55 36.05 85.15 36.0 88.75 L36.0 88.9 36.05 89.8 36.2 90.55 36.45 91.3 34.9 90.15 Q32.95 88.3 33.0 85.6 L33.0 85.35 33.15 84.5" fill="#855347" fill-rule="evenodd" stroke="none"/>
      <path d="M9.8 -71.35 L12.1 -71.2 12.65 -71.25 13.15 -71.3 Q14.25 -70.3 14.4 -69.2 14.65 -68.2 13.8 -67.55 L12.85 -67.1 Q11.9 -67.0 10.6 -67.75 L10.4 -67.85 Q9.75 -69.0 9.75 -70.55 L9.8 -71.35 M17.95 -70.0 L20.85 -69.65 23.4 -70.0 24.15 -68.95 25.25 -67.3 Q25.5 -66.65 25.1 -66.05 24.4 -64.8 22.4 -65.5 L20.85 -66.1 Q19.3 -67.15 18.5 -68.5 18.0 -69.25 17.95 -70.0 M33.75 -48.3 L33.6 -48.3 31.3 -48.35 Q29.75 -48.65 28.3 -49.1 L25.3 -50.05 25.05 -50.15 23.4 -51.05 21.75 -52.05 20.0 -53.25 18.3 -54.6 15.75 -57.3 Q14.6 -58.7 13.65 -60.85 12.65 -63.0 13.05 -64.2 L14.4 -64.7 15.8 -64.85 17.85 -64.5 Q19.7 -64.1 21.15 -62.85 22.0 -62.1 23.1 -61.9 L27.1 -61.5 28.65 -61.15 30.25 -60.45 31.05 -60.0 32.8 -58.7 33.35 -58.25 34.05 -56.95 Q34.95 -55.1 34.95 -52.85 34.95 -50.55 33.75 -48.3 M32.85 -67.55 L34.0 -66.55 34.8 -65.5 35.1 -64.35 Q35.1 -63.1 33.25 -63.1 L32.55 -63.25 Q30.65 -63.8 29.8 -65.15 29.2 -66.25 29.15 -67.55 L29.35 -68.25 Q30.55 -67.7 32.45 -67.55 L32.85 -67.55 M0.6 -40.6 L0.6 -40.55 2.95 -35.2 6.05 -26.65 Q7.2 -21.65 7.2 -18.7 L7.05 -16.45 6.75 -15.1 5.3 -11.75 4.65 -10.5 Q3.2 -8.05 1.1 -5.55 -1.55 -3.7 -3.2 -3.15 L-5.45 -2.65 Q-6.25 -2.65 -9.55 -4.35 L-11.05 -5.1 -14.4 -5.5 -17.2 -4.85 -16.75 -6.0 -15.3 -7.25 -14.65 -7.8 Q-13.15 -9.05 -11.5 -9.65 L-11.3 -9.55 -9.4 -8.55 Q-8.05 -7.9 -6.9 -7.55 L-6.1 -7.8 -6.3 -7.2 Q-6.3 -6.3 -5.0 -6.3 L-3.65 -6.4 Q-2.35 -6.65 -0.85 -7.35 1.25 -8.35 1.5 -9.55 3.25 -11.05 4.55 -13.25 L4.9 -13.85 5.4 -14.9 6.0 -16.35 6.0 -16.4 6.15 -16.8 6.3 -17.85 6.3 -18.2 6.25 -19.75 Q5.8 -26.2 2.25 -31.6 L2.1 -31.8 0.75 -33.6 0.25 -34.2 -0.75 -35.3 -4.25 -35.75 -7.55 -36.35 -12.95 -37.65 -13.3 -37.75 -14.1 -38.0 Q-15.7 -38.5 -16.9 -39.1 L-20.0 -39.4 -21.05 -39.6 Q-22.5 -39.6 -23.35 -40.25 -22.5 -39.6 -21.05 -39.6 L-21.8 -38.6 -22.1 -38.15 -22.85 -37.0 Q-23.35 -36.3 -23.35 -35.4 L-23.4 -33.8 -23.25 -31.9 -22.65 -28.25 -22.4 -27.2 -25.0 -28.4 -25.8 -28.75 -28.8 -30.8 -28.0 -31.2 Q-27.2 -31.7 -26.9 -32.3 L-26.65 -32.8 -26.45 -32.95 -26.35 -33.0 Q-24.9 -34.15 -24.45 -35.15 -24.2 -35.65 -24.1 -38.1 -24.05 -39.5 -23.5 -40.35 L-23.35 -40.25 -23.4 -40.35 -23.85 -41.7 -23.85 -42.2 -22.85 -41.6 Q-21.65 -42.15 -19.35 -42.3 L-15.2 -42.65 -11.45 -43.35 -7.4 -43.65 -3.7 -43.3 -0.45 -42.1 -0.4 -42.05 -0.15 -41.7 -0.05 -41.6 0.05 -41.5 0.6 -40.6 M-9.85 -6.75 L-6.9 -7.55 -9.85 -6.75 M-71.9 -51.2 Q-70.6 -51.35 -69.75 -51.8 -69.1 -51.7 -67.65 -50.85 L-66.55 -50.05 -66.1 -49.3 Q-66.1 -48.45 -66.95 -47.65 -67.95 -46.7 -69.35 -46.7 -70.2 -46.7 -70.95 -47.4 L-71.1 -47.55 Q-72.0 -48.5 -72.0 -50.1 L-71.9 -51.2 M-66.95 -56.25 Q-65.8 -56.35 -64.65 -56.95 -63.25 -57.7 -62.85 -58.6 -61.5 -58.7 -60.25 -57.8 -59.1 -57.0 -59.1 -56.15 L-59.35 -55.15 -60.1 -54.35 Q-60.85 -53.6 -61.85 -53.3 L-63.2 -53.15 Q-64.4 -53.15 -65.45 -54.1 L-66.95 -56.25 M-57.1 -52.4 Q-55.85 -52.4 -54.3 -51.0 -52.8 -49.6 -52.8 -48.35 -52.8 -46.5 -55.25 -43.15 -57.85 -39.5 -59.8 -39.5 L-61.55 -39.75 -64.45 -40.05 -65.95 -40.25 Q-67.25 -40.75 -67.25 -42.3 L-66.7 -44.15 -64.65 -47.4 Q-63.35 -49.35 -62.2 -50.15 L-60.15 -51.35 Q-58.2 -52.4 -57.1 -52.4 M-73.65 -43.1 L-73.7 -43.6 -73.65 -43.8 -74.2 -43.65 -74.7 -43.55 -74.8 -43.65 -74.85 -44.2 -73.6 -46.25 -73.5 -46.4 -71.9 -46.4 Q-71.1 -46.45 -70.6 -45.9 -70.2 -45.4 -70.2 -44.65 -70.2 -43.85 -71.35 -43.4 L-73.65 -43.1 M-71.95 -44.4 L-73.15 -43.95 -73.65 -43.8 -73.15 -43.95 -71.95 -44.4" fill="#b08e6d" fill-rule="evenodd" stroke="none"/>
      <path d="M-5.15 -25.55 L-5.55 -25.15 -7.05 -23.45 -7.25 -23.2 -8.25 -21.75 -8.8 -22.55 Q-9.3 -23.0 -9.75 -23.0 L-10.05 -22.95 -10.75 -22.6 -11.3 -22.0 -11.05 -22.65 -10.8 -23.3 -9.7 -25.25 -9.3 -24.25 Q-8.4 -21.95 -8.1 -22.25 L-8.05 -22.35 Q-7.9 -22.8 -8.1 -24.75 L-8.2 -26.35 -7.5 -26.45 -5.9 -26.0 -5.65 -25.85 -5.15 -25.55 M-7.35 -12.05 L-6.55 -12.7 -6.6 -12.65 -6.9 -11.35 -7.35 -12.05" fill="#b04646" fill-rule="evenodd" stroke="none"/>
      <path d="M-21.05 -39.6 L-20.0 -39.4 -16.9 -39.1 -17.65 -38.35 -17.65 -38.4 -19.15 -38.55 -19.45 -38.4 -20.45 -37.3 -20.45 -37.25 -20.55 -36.75 -21.7 -36.2 -22.65 -35.25 -23.4 -33.8 -23.35 -35.4 Q-23.35 -36.3 -22.85 -37.0 L-22.1 -38.15 -21.8 -38.6 -21.05 -39.6 M4.9 -13.85 L4.55 -13.25 Q3.25 -11.05 1.5 -9.55 L1.45 -9.5 -0.65 -9.25 -4.6 -8.25 -6.1 -7.8 -6.9 -7.55 Q-8.05 -7.9 -9.4 -8.55 L-11.3 -9.55 -11.5 -9.65 -11.55 -9.7 -11.45 -9.7 -11.0 -9.6 Q-10.7 -9.55 -9.8 -10.0 L-9.85 -9.8 Q-8.85 -8.9 -8.25 -8.9 -7.5 -9.05 -7.0 -9.3 L-6.6 -8.6 -5.95 -8.45 -5.9 -8.45 -4.65 -8.55 Q-3.95 -8.7 -2.9 -9.6 L-2.2 -9.35 Q-1.1 -9.35 -0.2 -9.95 0.65 -10.5 0.6 -11.7 L0.7 -11.65 Q1.3 -11.4 1.8 -11.85 L2.35 -12.5 3.2 -12.5 Q3.6 -12.65 4.9 -13.85" fill="#d86b6b" fill-rule="evenodd" stroke="none"/>
      <path d="M22.75 -78.9 L23.25 -78.05 23.3 -77.55 Q23.3 -76.2 23.1 -75.9 22.85 -75.6 22.15 -75.5 L20.6 -75.55 17.4 -76.05 15.75 -76.5 13.7 -76.8 11.5 -76.8 11.45 -76.8 10.65 -76.8 11.35 -77.25 11.7 -77.45 14.1 -77.75 20.4 -77.75 21.4 -78.1 22.2 -78.6 22.75 -78.9 M32.55 -75.35 L33.0 -75.15 33.6 -74.65 Q34.05 -74.05 34.05 -73.2 34.05 -72.6 33.25 -72.05 L32.75 -71.75 31.05 -71.25 29.05 -71.8 27.6 -72.05 27.25 -72.05 26.3 -72.05 26.25 -72.05 24.25 -71.8 23.1 -71.55 22.95 -71.55 23.9 -72.15 28.0 -73.4 32.0 -74.25 Q32.55 -74.45 32.55 -75.35 M-1.5 -78.55 L-1.05 -78.8 Q1.35 -80.0 3.9 -80.0 L8.5 -79.65 Q9.95 -79.65 10.85 -80.5 L11.15 -80.75 11.35 -79.7 Q11.35 -79.1 11.0 -78.55 L10.7 -78.25 Q10.2 -77.8 9.45 -77.5 L8.85 -77.45 7.55 -77.75 6.65 -78.0 4.95 -78.4 3.25 -78.65 Q0.95 -78.65 -0.8 -78.05 L-1.05 -78.0 -2.1 -78.0 -2.1 -78.15 -1.5 -78.55 M-14.1 -38.0 L-13.3 -37.75 -12.95 -37.65 -7.55 -36.35 -4.25 -35.75 -0.75 -35.3 0.25 -34.2 0.75 -33.6 2.1 -31.8 2.25 -31.6 1.75 -30.7 1.0 -30.3 Q0.55 -30.3 -0.25 -31.4 L-0.6 -31.95 -1.1 -33.15 Q-1.25 -32.2 -1.9 -32.2 -3.0 -32.2 -3.75 -34.2 L-4.2 -35.65 -4.25 -35.75 -4.2 -35.65 Q-4.3 -35.05 -4.8 -34.55 -5.65 -33.7 -6.0 -33.7 -7.05 -33.7 -7.5 -35.85 L-7.55 -36.35 Q-8.45 -30.65 -8.2 -26.35 L-8.1 -24.75 Q-7.9 -22.8 -8.05 -22.35 L-8.1 -22.25 Q-8.3 -22.1 -8.7 -22.9 L-9.2 -25.5 -9.55 -28.8 -9.7 -32.7 -9.75 -35.9 Q-9.8 -36.9 -11.65 -37.05 L-12.9 -37.3 -12.95 -37.65 -12.5 -35.2 -12.6 -34.9 -13.0 -33.45 -13.1 -33.05 -13.2 -32.95 -13.8 -32.35 -13.9 -34.85 -15.1 -37.5 -15.65 -38.55 -14.1 -38.0 -14.1 -37.95 -14.1 -38.0 M6.3 -18.2 L6.3 -17.85 6.15 -16.8 6.0 -16.4 6.0 -16.35 5.4 -14.9 4.9 -13.85 Q3.6 -12.65 3.2 -12.5 L2.35 -12.5 1.8 -11.85 Q1.3 -11.4 0.7 -11.65 L0.75 -11.7 0.65 -11.7 0.6 -11.7 0.6 -11.9 0.35 -12.15 0.6 -11.9 0.6 -11.7 Q0.65 -10.5 -0.2 -9.95 -1.1 -9.35 -2.2 -9.35 L-2.9 -9.6 -3.2 -10.0 -3.35 -10.5 -3.2 -10.0 -2.9 -9.6 Q-3.95 -8.7 -4.65 -8.55 L-5.9 -8.45 -5.95 -8.45 -6.6 -8.6 -7.0 -9.3 -7.0 -9.95 -6.9 -11.35 -7.0 -9.95 -7.0 -9.3 Q-7.5 -9.05 -8.25 -8.9 -8.85 -8.9 -9.85 -9.8 L-9.8 -10.0 Q-10.7 -9.55 -11.0 -9.6 L-11.45 -9.7 -11.55 -9.7 -11.75 -9.8 -11.85 -9.85 -12.25 -10.1 Q-11.0 -10.3 -9.7 -10.8 L-9.6 -10.85 -8.9 -11.15 Q-8.05 -11.55 -7.35 -12.05 L-6.9 -11.35 -6.6 -12.65 -6.55 -12.7 -5.9 -13.4 Q-4.75 -11.25 -3.35 -10.5 L-3.6 -12.85 -3.6 -13.75 -3.6 -13.9 -3.6 -13.95 -2.8 -12.9 -1.55 -11.2 -1.55 -11.7 -2.0 -14.1 -2.1 -15.85 -1.85 -15.4 -0.9 -13.75 0.35 -12.15 0.25 -12.9 0.8 -12.95 0.9 -12.95 1.55 -14.1 1.65 -15.4 2.35 -14.65 Q2.4 -15.75 2.9 -16.75 3.4 -17.75 4.0 -17.75 L4.7 -16.9 4.9 -16.55 Q4.85 -17.0 5.15 -17.7 5.45 -18.5 5.9 -18.5 L6.3 -18.2 M2.35 -14.65 L2.35 -14.4 2.4 -12.9 2.35 -12.5 2.4 -12.9 2.35 -14.4 2.35 -14.65 M4.9 -16.55 L5.4 -14.9 4.9 -16.55 M36.45 91.3 L36.2 90.55 36.05 89.8 36.0 88.9 36.0 88.75 36.65 89.2 Q37.9 89.2 38.55 88.3 L39.1 87.25 39.65 86.25 39.9 86.55 40.1 86.9 40.1 87.0 40.3 88.2 39.85 89.4 39.05 91.75 38.15 94.3 36.95 92.25 36.45 91.3 M52.9 85.9 L52.9 85.85 53.1 86.15 53.5 86.75 53.6 87.0 53.85 87.65 54.1 89.25 Q54.1 90.5 52.8 92.6 L51.2 95.05 50.2 92.55 49.55 90.7 49.5 90.6 49.3 89.9 49.35 89.9 Q52.0 89.9 52.55 88.85 L52.65 87.2 52.9 85.9 53.1 86.15 52.9 85.9 M61.4 90.5 L60.95 89.0 60.05 86.05 59.85 85.5 Q61.4 84.05 61.85 84.05 62.4 84.05 63.0 84.75 L63.35 85.25 Q64.15 86.4 64.2 87.55 L63.75 89.85 63.4 90.8 62.1 93.3 61.95 93.05 61.4 90.5 M61.85 84.55 Q60.9 84.55 60.9 85.45 L61.1 86.4 Q61.4 87.3 62.05 87.3 62.65 87.3 62.95 86.8 L63.15 86.15 Q63.05 84.55 61.85 84.55 M-82.45 -50.9 L-82.45 -50.95 -80.5 -52.65 -76.45 -54.95 -76.5 -54.8 -76.9 -54.0 -77.0 -53.6 -77.0 -53.55 -76.6 -53.9 -75.35 -54.9 -76.6 -53.9 -77.0 -53.55 -77.0 -53.6 -76.95 -53.8 -72.45 -58.2 -70.8 -59.45 Q-69.7 -60.3 -69.5 -60.9 L-69.3 -61.25 -69.0 -61.0 -68.9 -60.9 Q-68.55 -60.4 -68.65 -59.8 L-68.7 -59.5 Q-68.95 -58.35 -69.75 -57.75 -70.3 -57.4 -71.35 -56.95 L-72.45 -56.6 -73.75 -55.95 -75.35 -54.9 -75.35 -54.75 -75.35 -54.7 Q-75.4 -53.6 -77.7 -52.55 L-78.6 -52.2 -78.65 -52.2 -79.1 -52.0 -80.2 -51.55 Q-82.6 -50.45 -83.25 -49.2 L-83.25 -49.25 -82.45 -50.9 M-83.95 -42.95 L-82.6 -44.15 Q-80.75 -45.65 -79.7 -46.1 -78.4 -46.6 -77.55 -48.6 L-77.3 -49.05 -76.6 -48.4 Q-76.2 -47.8 -76.2 -46.85 L-76.2 -46.7 Q-76.4 -45.75 -79.15 -45.0 L-79.45 -44.95 -80.0 -44.8 Q-82.9 -44.0 -84.05 -42.75 L-83.95 -42.9 -83.95 -42.95 M-17.0 -34.85 L-16.5 -33.35 Q-16.9 -31.7 -17.95 -31.5 L-17.8 -32.15 -17.2 -34.2 -17.05 -34.95 -17.0 -34.85 M-19.55 -32.0 L-19.55 -31.9 -19.5 -28.65 -19.5 -28.6 -19.45 -26.35 -19.45 -26.0 Q-19.3 -21.2 -19.5 -19.8 -19.6 -19.25 -19.75 -19.25 L-20.0 -19.9 -20.35 -21.95 -20.9 -26.2 -20.85 -26.35 -20.9 -30.15 -20.7 -34.45 -20.55 -36.55 -20.55 -36.15 -20.5 -35.55 -20.3 -33.75 -20.0 -32.8 -19.55 -32.0 M-1.1 -34.3 L-1.1 -33.15 -1.1 -34.3 M-9.7 -10.8 L-9.8 -10.0 -9.7 -10.8 M-39.5 78.15 Q-40.35 78.45 -41.05 78.9 L-41.2 79.0 -42.75 80.0 Q-39.75 75.8 -35.6 75.55 L-34.4 75.6 -34.4 75.65 -34.4 75.75 Q-34.45 77.1 -35.5 77.45 L-37.15 77.7 -37.8 77.7 -39.5 78.15 M-40.95 74.6 Q-42.9 74.5 -45.2 75.8 L-46.7 76.7 -46.7 76.6 -46.7 76.5 -46.6 75.85 Q-45.75 74.85 -43.65 73.7 -41.55 72.55 -39.1 72.25 -38.95 72.75 -39.25 73.25 L-39.6 73.6 -40.95 74.6" fill="#d6c998" fill-rule="evenodd" stroke="none"/>
      <path d="M-16.2 -13.9 Q-16.4 -13.4 -17.15 -13.4 -18.0 -13.4 -18.4 -14.35 L-18.4 -14.45 -18.4 -14.5 -18.35 -14.5 -18.35 -14.65 Q-18.35 -15.1 -17.8 -15.25 L-17.75 -15.25 -16.6 -15.2 -16.3 -15.0 -16.0 -14.55 -16.1 -14.25 -16.1 -14.15 -16.15 -13.9 -16.2 -13.9 M-9.9 -19.9 Q-10.0 -19.75 -10.3 -19.75 L-10.6 -19.9 -10.65 -20.15 -10.35 -20.45 Q-10.05 -20.5 -9.85 -20.2 L-9.9 -19.9 M-8.5 -19.0 Q-7.3 -20.3 -7.3 -19.25 -7.3 -18.65 -8.15 -18.65 -8.5 -18.65 -8.5 -19.0 M-6.4 -19.85 L-6.65 -19.65 Q-7.2 -19.65 -7.2 -20.1 -7.2 -20.65 -6.7 -20.65 -6.2 -20.65 -6.2 -20.2 L-6.4 -19.85 M-6.9 -18.25 L-6.95 -18.05 -7.3 -17.95 -7.65 -18.0 -7.7 -18.3 Q-7.8 -18.9 -6.95 -18.55 L-6.9 -18.25 M-9.65 -16.55 Q-9.65 -16.2 -9.95 -16.2 -10.45 -16.2 -10.35 -16.55 L-10.0 -16.9 Q-9.65 -16.9 -9.65 -16.55 M-9.2 -17.95 Q-9.2 -18.65 -8.6 -18.55 -8.05 -18.45 -8.05 -17.9 -8.05 -17.4 -8.55 -17.4 -9.25 -17.4 -9.2 -17.95 M-10.55 -19.3 Q-10.55 -18.8 -10.9 -18.75 L-10.8 -18.45 -10.85 -18.15 -11.15 -18.05 Q-11.55 -18.05 -11.45 -18.45 L-11.25 -18.75 Q-11.7 -18.85 -11.7 -19.3 -11.7 -19.85 -11.1 -19.85 -10.55 -19.85 -10.55 -19.3" fill="#e4bcbc" fill-rule="evenodd" stroke="none"/>
      <path d="M-16.1 -47.25 Q-16.1 -46.45 -18.65 -46.45 -19.65 -46.45 -19.5 -46.95 -19.5 -47.6 -17.8 -47.8 -16.1 -48.0 -16.1 -47.25" fill="#c7afaf" fill-rule="evenodd" stroke="none"/>
      <path d="M41.25 -71.25 L41.35 -70.9 42.3 -67.55 42.4 -70.6 42.5 -70.5 43.95 -65.6 Q44.5 -63.45 44.55 -61.7 L44.5 -59.8 45.55 -63.65 Q45.4 -63.05 45.5 -61.9 45.65 -60.25 46.25 -57.55 47.2 -53.35 47.7 -52.55 L50.7 -46.65 50.7 -46.5 48.55 -49.3 48.5 -49.45 48.5 -49.35 48.55 -49.3 51.3 -41.55 50.1 -42.85 49.4 -43.65 49.15 -44.05 49.4 -43.65 Q51.05 -40.7 53.85 -31.35 L53.85 -31.2 50.35 -37.4 Q52.15 -33.25 52.45 -26.3 L52.45 -26.15 49.25 -35.4 50.25 -30.05 50.25 -20.65 48.55 -28.1 Q49.4 -18.0 53.1 -11.7 L59.3 -0.75 55.85 -4.9 52.15 -9.4 57.2 -1.95 59.6 3.25 61.6 8.65 55.5 -0.1 Q57.0 2.2 58.8 8.65 60.2 13.6 60.8 17.25 L60.8 17.45 Q60.6 16.55 58.6 12.4 L56.8 8.5 Q58.1 13.45 58.15 15.0 L57.95 21.5 Q57.95 22.95 58.4 25.0 L58.3 24.75 56.8 21.05 Q56.75 25.4 54.5 31.9 L54.55 29.95 54.35 24.85 50.6 37.3 50.75 32.4 49.8 34.55 48.65 37.25 48.5 37.7 52.5 41.4 Q56.6 45.55 58.3 48.0 L56.3 46.55 53.6 44.75 53.4 44.75 Q55.7 45.6 57.35 50.25 L58.7 54.45 59.3 56.75 57.75 54.45 54.65 49.95 54.75 49.95 54.6 49.9 54.55 49.85 53.55 48.5 51.65 46.25 49.05 43.15 52.05 44.4 Q51.05 42.1 47.6 39.4 L42.65 35.75 42.8 35.75 44.4 36.05 45.45 36.3 45.8 35.05 47.4 29.3 47.25 35.3 Q50.9 21.2 50.55 18.3 L51.55 21.65 52.25 25.4 52.25 25.25 52.75 22.9 Q53.25 20.95 53.25 18.75 L52.95 15.7 52.7 13.9 54.0 16.2 54.85 17.85 54.8 17.25 54.95 15.95 Q54.9 13.75 54.1 10.1 53.05 5.2 52.1 4.4 L52.1 6.05 Q51.45 -1.5 50.7 -3.3 L50.85 -3.3 53.55 0.0 53.55 -0.15 52.7 -3.55 51.6 -8.1 Q50.85 -10.5 49.3 -13.65 L48.25 -15.9 Q49.4 -11.85 50.15 -7.55 L50.15 -6.55 48.05 -10.15 45.95 -13.75 45.75 -13.95 46.8 -10.8 47.95 -5.8 48.0 -3.55 47.95 -1.2 47.95 5.4 46.65 1.2 46.2 -0.05 45.5 -2.05 46.05 -1.25 46.05 -1.35 42.15 -11.1 42.15 -11.4 Q42.15 -11.25 42.45 -11.25 42.85 -10.45 43.95 -9.75 L41.7 -15.3 Q40.9 -17.3 39.25 -19.1 L37.65 -20.7 Q44.1 -16.5 45.15 -15.95 L43.2 -20.45 40.9 -25.1 43.95 -23.25 44.6 -23.25 42.0 -29.75 42.15 -29.75 44.4 -26.55 44.4 -27.5 Q44.05 -29.9 44.0 -32.9 L45.35 -30.65 46.15 -29.15 45.2 -38.9 45.3 -38.9 Q45.3 -38.6 46.1 -37.7 L47.0 -36.65 46.3 -40.25 45.8 -43.45 46.5 -42.1 47.0 -40.95 47.0 -41.1 45.8 -47.85 Q44.7 -52.85 42.8 -55.85 L44.0 -54.45 45.3 -52.65 45.3 -52.8 Q45.1 -54.35 43.75 -58.0 42.45 -61.6 41.55 -63.15 L39.65 -66.1 Q38.75 -67.45 38.7 -67.95 L38.85 -67.95 39.4 -67.65 40.05 -67.4 40.05 -68.1 39.35 -70.65 38.9 -72.45 40.35 -71.8 41.25 -71.25 M45.15 -15.95 L45.15 -15.9 45.3 -15.9 45.15 -15.95 M54.85 17.85 L54.9 18.45 55.05 18.45 54.85 17.85 M55.3 -0.4 L55.5 -0.1 55.3 -0.4 M48.05 -16.5 L47.15 -19.4 44.95 -25.55 47.15 -19.4 48.05 -16.5 M50.35 -37.4 L49.15 -39.6 50.35 -37.4 M52.15 -9.4 L50.9 -11.15 52.15 -9.4 M46.55 21.45 Q45.4 23.75 42.75 30.45 L42.6 30.45 Q43.8 26.7 44.05 25.15 L44.1 21.65 45.7 19.4 48.35 14.9 Q47.85 18.95 46.55 21.45 M56.35 69.2 L51.45 57.3 51.6 57.45 53.05 59.7 54.65 61.7 54.15 58.0 Q54.05 55.8 53.5 53.6 L53.3 52.85 53.5 53.15 51.45 47.9 51.6 47.9 Q53.95 49.6 54.55 49.9 L55.5 52.45 56.15 54.45 57.2 58.7 57.3 59.15 57.3 59.6 Q57.25 59.05 56.1 57.25 L54.2 54.5 55.55 58.0 55.6 58.4 55.8 61.1 55.85 62.25 Q55.85 62.5 59.15 65.85 L58.9 65.7 58.15 65.3 57.15 64.75 57.1 64.85 55.45 64.2 55.35 64.2 56.85 66.25 Q58.0 67.8 58.2 69.2 L58.3 69.65 58.35 71.05 58.4 73.3 57.8 73.15 56.65 69.2 56.35 69.2 M58.2 69.2 L58.3 69.65 58.2 69.2 M66.7 84.5 Q66.45 82.7 63.8 80.5 L59.85 77.55 59.95 77.55 62.0 78.1 64.3 78.6 65.3 78.5 65.3 78.4 60.8 75.25 Q62.6 75.6 64.85 77.6 67.15 79.6 68.3 81.55 L65.75 80.5 Q66.3 81.35 66.55 82.8 L66.7 84.5 M64.6 79.5 Q65.3 79.7 65.75 80.5 65.3 79.7 64.6 79.5" fill="#bb8b80" fill-rule="evenodd" stroke="none"/>
      <path d="M33.75 -48.3 Q34.95 -50.55 34.95 -52.85 34.95 -55.1 34.05 -56.95 L33.35 -58.25 35.55 -55.9 Q37.15 -53.85 37.3 -51.25 37.4 -50.15 36.4 -49.45 35.25 -48.55 33.75 -48.3" fill="#ccb7a2" fill-rule="evenodd" stroke="none"/>
      <path d="M41.25 -71.25 L40.35 -71.8 38.9 -72.45 39.35 -70.65 40.05 -68.1 40.05 -67.4 39.4 -67.65 38.85 -67.95 38.7 -67.95 Q38.75 -67.45 39.65 -66.1 L41.55 -63.15 Q42.45 -61.6 43.75 -58.0 45.1 -54.35 45.3 -52.8 L45.3 -52.65 44.0 -54.45 42.8 -55.85 Q44.7 -52.85 45.8 -47.85 L47.0 -41.1 47.0 -40.95 46.5 -42.1 45.8 -43.45 46.3 -40.25 47.0 -36.65 46.1 -37.7 Q45.3 -38.6 45.3 -38.9 L45.2 -38.9 46.15 -29.15 45.35 -30.65 44.0 -32.9 Q44.05 -29.9 44.4 -27.5 L44.4 -26.55 42.15 -29.75 42.0 -29.75 44.6 -23.25 43.95 -23.25 40.9 -25.1 43.2 -20.45 45.15 -15.95 Q44.1 -16.5 37.65 -20.7 L39.25 -19.1 Q40.9 -17.3 41.7 -15.3 L43.95 -9.75 Q42.85 -10.45 42.45 -11.25 42.15 -11.25 42.15 -11.4 L42.15 -11.1 46.05 -1.35 46.05 -1.25 45.5 -2.05 46.2 -0.05 46.65 1.2 47.95 5.4 47.95 -1.2 48.0 -3.55 47.95 -5.8 46.8 -10.8 45.75 -13.95 45.95 -13.75 48.05 -10.15 50.15 -6.55 50.15 -7.55 Q49.4 -11.85 48.25 -15.9 L49.3 -13.65 Q50.85 -10.5 51.6 -8.1 L52.7 -3.55 53.55 -0.15 53.55 0.0 50.85 -3.3 50.7 -3.3 Q51.45 -1.5 52.1 6.05 L52.1 4.4 Q53.05 5.2 54.1 10.1 54.9 13.75 54.95 15.95 L54.8 17.25 54.85 17.85 54.0 16.2 52.7 13.9 52.95 15.7 53.25 18.75 Q53.25 20.95 52.75 22.9 L52.25 25.25 52.25 25.4 51.55 21.65 50.55 18.3 Q50.9 21.2 47.25 35.3 L47.4 29.3 45.8 35.05 45.45 36.3 44.4 36.05 42.8 35.75 42.65 35.75 47.6 39.4 Q51.05 42.1 52.05 44.4 L49.05 43.15 51.65 46.25 53.55 48.5 54.55 49.85 54.55 49.9 Q53.95 49.6 51.6 47.9 L51.45 47.9 53.5 53.15 53.3 52.85 53.5 53.6 Q54.05 55.8 54.15 58.0 L54.65 61.7 53.05 59.7 51.6 57.45 51.45 57.3 56.35 69.2 32.9 68.8 28.25 62.0 Q24.8 59.05 17.75 59.0 L17.65 59.0 13.95 59.25 Q3.85 60.35 1.75 63.65 -0.35 66.9 0.05 68.2 0.45 69.5 0.75 69.8 -0.1 69.6 -1.05 68.25 -2.25 66.5 -2.05 64.95 -2.55 65.4 -3.0 67.9 L-3.35 70.9 -5.0 68.45 -3.85 71.6 Q-3.4 72.95 -3.4 74.45 -3.4 77.0 -4.75 78.2 L-5.95 78.9 -11.9 79.45 Q-14.65 79.45 -18.2 80.45 -21.7 81.45 -24.35 81.45 L-28.45 80.8 Q-28.85 80.8 -29.6 81.15 L-30.85 81.45 Q-34.0 81.45 -35.65 80.0 -36.7 79.1 -37.15 77.7 L-35.5 77.45 Q-34.45 77.1 -34.4 75.75 L-34.4 75.65 -34.4 75.6 -34.4 75.1 -32.6 74.7 -29.75 73.85 -28.3 73.55 -27.8 73.4 Q-27.5 73.2 -27.35 72.8 L-26.4 70.95 -25.95 70.2 -24.9 69.25 -25.0 70.35 -24.9 71.0 Q-24.35 67.95 -23.6 65.5 -22.85 63.05 -21.9 61.95 L-21.9 62.7 -22.35 64.55 Q-22.65 66.25 -23.1 66.95 L-22.9 66.9 -22.85 66.8 Q-21.5 66.25 -18.8 62.7 -16.05 59.2 -15.65 57.5 L-15.65 57.65 -15.95 62.7 -15.8 62.55 Q-15.55 60.25 -11.4 55.3 L-9.25 52.95 Q-6.85 50.6 -5.45 50.45 L-5.3 50.45 -5.1 50.45 -5.45 50.45 -9.55 50.95 -13.1 51.45 -13.7 51.45 -15.3 51.3 -15.3 51.15 -13.65 50.95 Q-11.8 50.35 -8.75 48.25 L-8.1 47.85 -11.2 48.0 -14.85 47.8 -14.85 47.6 -11.75 45.45 -8.1 43.0 -9.45 43.0 -12.35 43.95 -13.5 43.95 -9.4 38.6 -11.2 39.7 -14.5 41.7 -16.65 42.95 -16.25 42.55 -15.25 41.35 -15.05 41.05 -15.35 34.4 -16.45 38.35 -17.4 42.05 -17.4 41.9 -16.9 37.55 -16.7 36.0 -16.45 32.35 Q-16.45 29.45 -16.95 27.55 L-17.25 26.4 Q-17.8 28.1 -18.0 30.3 L-18.25 34.2 -18.3 35.15 -18.4 35.15 -18.5 34.2 Q-19.15 29.3 -20.8 21.55 L-20.85 21.2 Q-20.9 22.1 -21.3 24.0 -21.9 26.45 -22.2 26.75 L-22.2 26.7 Q-22.2 23.15 -24.15 15.3 L-26.1 7.55 -26.3 9.7 -26.75 12.9 Q-26.75 10.05 -28.85 4.4 L-28.9 4.2 -31.85 -3.65 -31.85 -3.55 Q-31.35 -1.05 -31.35 2.85 L-31.35 3.4 Q-31.4 5.3 -31.75 7.6 L-31.75 7.5 Q-31.75 6.5 -32.45 2.8 L-33.35 -1.45 -33.85 0.8 -34.1 1.65 Q-34.5 2.85 -35.0 3.1 L-35.2 0.65 -35.85 -8.05 -35.9 -8.0 Q-36.1 -7.1 -37.85 -4.7 L-38.55 -3.75 -39.85 -2.3 -39.85 -2.35 -39.0 -4.5 -38.6 -5.8 Q-37.8 -8.6 -37.8 -10.55 -37.8 -13.25 -38.3 -14.55 L-39.65 -9.1 -39.65 -9.2 Q-39.5 -12.15 -41.3 -17.4 L-42.9 -21.7 -43.2 -22.4 -43.2 -22.3 -43.45 -21.25 -43.65 -19.95 -43.75 -20.0 Q-43.95 -22.45 -48.35 -27.55 -52.7 -32.6 -54.95 -33.1 L-52.65 -33.3 -55.6 -34.15 -59.5 -35.1 -59.4 -35.1 -58.15 -35.35 -57.0 -35.15 -57.0 -35.25 -59.5 -36.85 Q-60.8 -37.75 -61.5 -37.9 L-66.65 -38.65 Q-68.65 -38.9 -69.1 -39.2 -69.55 -39.5 -70.0 -40.85 L-71.9 -41.15 -73.15 -41.55 Q-73.6 -42.15 -73.65 -43.1 L-71.35 -43.4 Q-70.2 -43.85 -70.2 -44.65 -70.2 -45.4 -70.6 -45.9 -71.1 -46.45 -71.9 -46.4 L-73.5 -46.4 -73.6 -46.25 -74.85 -44.2 -74.8 -43.65 -74.7 -43.55 -74.9 -43.55 Q-77.85 -43.55 -79.15 -45.0 -76.4 -45.75 -76.2 -46.7 L-76.2 -46.85 Q-76.2 -47.8 -76.6 -48.4 L-77.3 -49.05 -77.4 -49.1 -76.6 -50.25 -75.6 -51.4 -73.65 -51.15 -71.9 -51.2 -73.65 -51.15 -75.6 -51.4 Q-76.85 -51.75 -77.7 -52.55 -75.4 -53.6 -75.35 -54.7 L-75.35 -54.75 -75.35 -54.9 -73.75 -55.95 -72.45 -56.6 -71.35 -56.95 Q-70.3 -57.4 -69.75 -57.75 -68.95 -58.35 -68.7 -59.5 L-68.65 -59.8 Q-68.55 -60.4 -68.9 -60.9 L-65.85 -61.85 Q-62.75 -62.85 -61.25 -62.85 L-60.75 -62.85 Q-61.15 -62.55 -63.5 -61.8 L-61.55 -61.95 Q-59.4 -61.95 -55.6 -58.2 L-55.2 -57.8 Q-51.4 -53.85 -49.8 -50.4 L-50.45 -53.4 -50.45 -54.2 Q-49.55 -53.55 -48.3 -48.9 L-46.65 -42.5 -46.5 -42.5 Q-46.65 -43.45 -45.45 -46.5 L-45.45 -46.65 Q-45.05 -44.55 -42.2 -41.55 L-41.4 -40.75 -37.05 -36.8 -36.65 -36.65 -36.65 -37.25 -37.15 -39.2 -37.85 -41.45 Q-36.15 -40.55 -34.45 -36.7 -33.25 -34.1 -32.4 -30.95 L-32.4 -30.75 -31.95 -32.9 -31.5 -34.95 -28.95 -32.0 -28.5 -31.6 -28.0 -31.2 -28.8 -30.8 -25.8 -28.75 -25.0 -28.4 -22.4 -27.2 -20.0 -19.9 -19.75 -19.25 Q-19.6 -19.25 -19.5 -19.8 -19.3 -21.2 -19.45 -26.0 L-19.45 -26.35 -18.7 -26.1 -18.0 -25.75 -17.55 -25.15 -15.75 -23.05 -14.15 -20.95 -12.6 -18.85 -13.5 -17.15 -13.85 -16.65 -14.7 -18.05 -14.4 -16.05 Q-15.4 -15.15 -16.4 -15.2 L-16.6 -15.2 -17.75 -15.25 -17.8 -15.25 -17.95 -15.25 Q-18.5 -15.15 -18.6 -14.4 L-18.6 -14.15 Q-18.6 -12.25 -16.85 -11.1 -15.7 -10.3 -14.35 -10.1 L-15.75 -7.9 -15.95 -7.5 -16.75 -6.0 -17.2 -4.85 -14.4 -5.5 -11.05 -5.1 -9.55 -4.35 Q-6.25 -2.65 -5.45 -2.65 L-3.2 -3.15 Q-1.55 -3.7 1.1 -5.55 3.2 -8.05 4.65 -10.5 L5.3 -11.75 6.75 -15.1 7.05 -16.45 7.2 -18.7 Q7.2 -21.65 6.05 -26.65 L2.95 -35.2 0.6 -40.55 0.6 -40.6 0.05 -41.5 -0.05 -41.6 0.45 -41.55 0.5 -41.5 4.3 -41.0 5.3 -40.9 8.55 -40.65 8.45 -40.6 8.85 -40.6 12.6 -40.3 12.8 -40.3 10.1 -39.95 9.75 -39.8 13.8 -39.4 18.0 -39.25 18.2 -39.25 15.5 -38.5 15.3 -38.35 20.2 -38.0 19.6 -40.05 21.15 -39.05 20.45 -41.15 20.3 -41.6 Q20.8 -41.25 21.5 -41.0 L21.5 -41.1 20.9 -42.9 20.1 -45.1 20.1 -45.6 21.55 -44.85 23.1 -43.85 23.1 -44.0 21.85 -45.8 20.1 -48.35 17.9 -50.45 Q16.55 -51.65 16.35 -52.0 L16.5 -51.85 17.8 -50.9 19.1 -50.0 19.1 -50.1 Q17.95 -53.2 15.35 -56.1 14.3 -57.2 13.35 -61.1 L12.1 -66.1 12.1 -67.1 12.65 -66.3 13.25 -65.5 13.25 -65.6 12.85 -67.1 13.8 -67.55 Q14.65 -68.2 14.4 -69.2 14.25 -70.3 13.15 -71.3 L12.65 -71.25 12.1 -71.2 9.8 -71.35 Q8.1 -71.65 6.85 -72.55 L6.5 -72.8 6.35 -74.15 Q6.35 -75.45 6.75 -76.4 L7.2 -77.3 7.55 -77.75 8.85 -77.45 9.45 -77.5 Q10.2 -77.8 10.7 -78.25 L11.1 -78.1 12.45 -77.85 11.7 -77.45 11.35 -77.25 10.65 -76.8 11.45 -76.8 11.5 -76.8 13.7 -76.8 15.75 -76.5 17.4 -76.05 20.6 -75.55 22.15 -75.5 Q22.6 -75.05 23.2 -74.6 L23.5 -74.35 Q24.4 -73.65 25.35 -73.2 L23.9 -72.15 22.95 -71.55 23.1 -71.55 24.25 -71.8 26.25 -72.05 26.3 -72.05 27.25 -72.05 27.6 -72.05 29.05 -71.8 31.05 -71.25 32.75 -71.75 33.55 -71.7 Q35.0 -71.7 36.6 -72.4 L37.7 -73.05 39.0 -73.95 39.55 -74.55 39.6 -74.5 41.25 -71.25 M13.95 -71.4 L13.15 -71.3 13.95 -71.4 M17.95 -70.0 Q17.2 -70.25 16.7 -70.65 16.25 -71.05 15.95 -71.6 15.4 -72.65 15.35 -74.25 L15.75 -76.5 15.35 -74.25 Q15.4 -72.65 15.95 -71.6 16.25 -71.05 16.7 -70.65 17.2 -70.25 17.95 -70.0 18.0 -69.25 18.5 -68.5 19.3 -67.15 20.85 -66.1 L22.4 -65.5 Q24.4 -64.8 25.1 -66.05 25.5 -66.65 25.25 -67.3 L24.15 -68.95 23.4 -70.0 20.85 -69.65 17.95 -70.0 M24.15 -70.2 L23.4 -70.0 24.15 -70.2 M22.95 -29.7 L22.25 -31.35 Q21.45 -33.45 20.75 -36.05 L20.2 -38.0 20.75 -36.05 Q21.45 -33.45 22.25 -31.35 L22.95 -29.7 M33.35 -58.25 L32.8 -58.7 31.05 -60.0 30.25 -60.45 28.65 -61.15 27.1 -61.5 23.1 -61.9 Q22.0 -62.1 21.15 -62.85 19.7 -64.1 17.85 -64.5 L15.8 -64.85 14.4 -64.7 13.05 -64.2 Q12.65 -63.0 13.65 -60.85 14.6 -58.7 15.75 -57.3 L18.3 -54.6 20.0 -53.25 21.75 -52.05 23.4 -51.05 25.05 -50.15 25.3 -50.05 28.3 -49.1 Q29.75 -48.65 31.3 -48.35 L33.6 -48.3 33.75 -48.3 Q35.25 -48.55 36.4 -49.45 37.4 -50.15 37.3 -51.25 37.15 -53.85 35.55 -55.9 L33.35 -58.25 M29.35 -68.25 L29.15 -67.55 Q29.2 -66.25 29.8 -65.15 30.65 -63.8 32.55 -63.25 L33.25 -63.1 Q35.1 -63.1 35.1 -64.35 L34.8 -65.5 34.0 -66.55 32.85 -67.55 34.45 -67.55 32.85 -67.55 32.45 -67.55 Q30.55 -67.7 29.35 -68.25 L29.0 -68.45 Q28.1 -68.95 27.75 -69.65 27.45 -70.2 27.45 -70.8 L27.45 -70.85 27.6 -72.05 27.45 -70.85 27.45 -70.8 Q27.45 -70.2 27.75 -69.65 28.1 -68.95 29.0 -68.45 L29.35 -68.25 M32.6 -33.45 L32.4 -33.8 32.4 -33.65 32.6 -33.45 34.85 -28.6 32.55 -30.45 34.85 -28.6 32.6 -33.45 35.9 -29.2 38.6 -25.2 35.9 -29.2 32.6 -33.45 M33.15 -23.7 Q31.1 -26.35 30.3 -26.7 L30.45 -26.7 34.8 -25.05 30.45 -26.7 30.3 -26.7 Q31.1 -26.35 33.15 -23.7 M34.85 -28.6 L34.95 -28.35 35.1 -28.35 34.85 -28.6 M14.25 -32.0 L14.25 -32.25 13.9 -32.45 14.25 -32.0 M20.1 -27.9 L18.95 -29.9 17.75 -31.7 18.95 -29.9 20.1 -27.9 M9.95 -10.95 L9.05 -12.05 9.95 -10.95 10.85 -9.75 10.1 -11.3 9.95 -11.15 9.95 -10.95 M13.4 -7.2 Q13.0 -7.35 12.4 -7.95 L10.85 -9.75 12.4 -7.95 Q13.0 -7.35 13.4 -7.2 M2.85 -1.4 Q2.55 -1.7 1.75 -3.5 2.55 -1.7 2.85 -1.4 M4.25 -1.4 L3.95 -3.4 3.85 -3.75 3.65 -4.05 3.85 -3.75 3.95 -3.4 4.25 -1.4 M-13.3 23.0 Q-12.85 24.4 -12.0 24.95 L-12.0 24.75 Q-13.55 18.15 -13.55 15.8 L-13.4 12.35 -13.4 12.6 -11.1 16.65 Q-7.9 22.4 -7.05 24.6 L-7.05 24.45 -6.6 21.25 -5.85 17.7 -5.6 17.85 -2.25 27.0 -2.25 26.85 Q-2.8 24.85 -0.65 18.75 L2.25 11.3 2.25 11.55 Q2.75 12.6 3.05 17.4 L3.3 23.1 3.45 23.1 5.15 20.4 6.95 13.1 8.25 7.65 8.15 13.1 8.1 13.35 8.1 13.65 10.6 10.0 10.7 10.15 10.7 9.85 10.75 9.6 10.8 7.6 10.6 5.25 10.35 3.45 10.5 3.6 Q10.5 4.25 11.35 5.85 L12.2 7.95 12.2 4.5 12.2 2.0 12.0 -0.7 Q11.9 -2.55 11.6 -3.45 L9.8 -9.8 Q8.8 -3.2 7.75 -3.2 L7.4 -3.3 7.35 -3.45 Q6.25 -7.75 5.3 -8.25 5.45 -4.2 4.8 0.1 3.85 5.85 1.7 7.05 L0.95 3.55 0.3 0.8 Q0.2 1.5 -1.2 4.0 -2.65 6.6 -3.2 6.9 L-2.55 0.3 -2.55 -1.05 -2.7 -1.05 Q-7.0 5.4 -8.75 9.6 L-9.3 11.0 Q-9.3 10.65 -9.45 10.65 -9.45 8.85 -9.9 7.45 -10.35 6.0 -10.35 3.55 -10.35 0.95 -9.95 -1.15 L-9.95 -1.2 -9.95 -1.35 -9.95 -1.15 -11.9 1.1 -12.3 1.6 -14.1 3.3 -14.1 2.25 -13.8 1.25 -13.2 -0.55 -12.35 -2.55 -12.15 -2.7 -12.15 -2.9 -12.35 -2.55 Q-15.2 -0.95 -16.85 1.55 L-17.05 2.6 -17.45 4.4 Q-18.1 7.9 -18.1 9.75 L-18.05 12.6 Q-17.95 13.15 -17.3 13.4 L-16.5 12.6 -15.5 16.7 -15.1 18.25 Q-14.3 21.4 -13.3 23.0 M15.8 -4.95 Q13.95 -10.75 13.4 -11.15 13.95 -10.75 15.8 -4.95 M18.3 -8.4 L19.8 -12.1 Q20.85 -14.95 20.85 -16.35 20.85 -14.95 19.8 -12.1 L18.3 -8.4 M-16.5 0.4 L-16.85 1.55 -16.5 0.4 M22.95 -16.2 L22.85 -21.8 23.7 -18.55 22.85 -21.8 22.95 -16.2 M34.2 -16.85 L32.25 -18.65 34.35 -18.65 32.25 -18.65 34.2 -16.85 M23.7 -18.55 L23.7 -17.9 23.85 -17.9 23.7 -18.55 23.0 -25.55 23.7 -18.55 M19.55 -23.75 Q19.1 -24.6 17.95 -27.75 19.1 -24.6 19.55 -23.75 M44.55 1.6 L44.9 -2.95 44.9 -3.1 44.95 -4.0 44.95 -3.8 45.5 -2.05 44.95 -3.8 44.95 -4.0 44.9 -3.1 44.9 -2.95 44.55 1.6 M46.55 21.45 Q47.85 18.95 48.35 14.9 L45.7 19.4 44.1 21.65 44.05 25.15 Q43.8 26.7 42.6 30.45 L42.75 30.45 Q45.4 23.75 46.55 21.45 M43.4 44.45 L42.25 43.7 41.1 42.9 41.55 42.85 45.9 42.0 45.6 41.7 43.15 41.15 38.0 39.85 39.65 39.9 43.05 39.75 43.25 39.75 37.4 36.45 35.9 36.45 30.45 36.8 33.45 37.5 33.6 37.5 27.6 39.15 22.7 40.65 22.55 40.65 Q22.9 41.1 25.4 41.2 L28.55 41.25 28.8 41.25 Q27.5 42.25 21.75 43.2 24.35 44.95 26.85 49.4 L27.65 50.9 Q29.2 54.0 28.95 55.4 L29.1 55.4 29.45 50.5 29.45 49.95 29.45 49.7 29.55 50.5 Q30.0 52.6 32.55 55.35 L37.35 60.2 37.7 60.2 37.7 59.55 36.3 55.4 36.3 54.75 40.25 58.45 42.75 61.25 43.05 61.8 44.9 57.25 Q46.4 53.1 47.0 52.5 47.45 52.85 47.65 54.1 47.8 55.35 47.55 55.8 L47.55 55.95 Q48.6 55.4 49.3 53.35 L48.95 51.9 48.45 49.9 46.8 47.75 Q45.9 46.2 43.75 44.65 L43.4 44.45 M23.85 5.3 L23.2 6.65 23.0 6.65 Q23.0 5.45 22.15 4.95 L22.45 6.6 22.6 8.25 Q22.6 10.25 21.4 14.85 L20.2 19.15 20.0 19.35 22.15 17.45 24.1 15.25 24.1 16.35 23.15 21.0 22.6 23.95 26.3 19.75 30.1 14.85 30.6 17.35 30.95 20.0 31.1 20.05 31.2 20.2 31.2 19.0 Q31.2 17.65 30.65 14.8 L28.8 6.9 28.8 6.65 28.05 9.1 Q27.55 10.9 27.55 11.4 L27.1 11.4 Q27.1 10.5 26.1 7.6 25.15 4.75 24.5 3.65 L24.3 3.65 23.85 5.3 M37.35 14.45 L36.35 12.1 36.35 20.65 38.3 16.35 38.1 15.9 37.35 14.45 M2.35 36.15 L1.0 32.85 0.55 31.2 1.0 32.85 2.35 36.15 M8.45 23.35 L12.0 18.6 13.35 16.5 13.35 17.65 12.75 18.85 Q13.8 18.05 15.7 13.5 17.95 8.25 17.1 5.9 L17.3 5.9 18.05 8.05 19.05 10.2 19.05 10.0 Q18.7 9.35 17.9 3.5 17.1 -2.3 17.1 -4.15 17.1 -2.3 17.9 3.5 18.7 9.35 19.05 10.0 L19.05 10.2 18.05 8.05 17.3 5.9 17.1 5.9 Q17.95 8.25 15.7 13.5 13.8 18.05 12.75 18.85 L13.35 17.65 13.35 16.5 12.0 18.6 8.45 23.35 M-69.75 -51.8 Q-70.6 -51.35 -71.9 -51.2 L-72.0 -50.1 Q-72.0 -48.5 -71.1 -47.55 L-70.95 -47.4 Q-70.2 -46.7 -69.35 -46.7 -67.95 -46.7 -66.95 -47.65 -66.1 -48.45 -66.1 -49.3 L-66.55 -50.05 -67.65 -50.85 Q-69.1 -51.7 -69.75 -51.8 L-69.2 -52.15 -69.75 -51.8 M-62.85 -58.6 Q-63.25 -57.7 -64.65 -56.95 -65.8 -56.35 -66.95 -56.25 L-67.75 -56.15 Q-69.95 -56.15 -71.35 -56.95 -69.95 -56.15 -67.75 -56.15 L-66.95 -56.25 -65.45 -54.1 Q-64.4 -53.15 -63.2 -53.15 L-61.85 -53.3 Q-60.85 -53.6 -60.1 -54.35 L-59.35 -55.15 -59.1 -56.15 Q-59.1 -57.0 -60.25 -57.8 -61.5 -58.7 -62.85 -58.6 L-62.65 -59.4 -62.85 -58.6 M-57.1 -52.4 Q-58.2 -52.4 -60.15 -51.35 L-62.2 -50.15 Q-63.35 -49.35 -64.65 -47.4 L-66.7 -44.15 -67.25 -42.3 Q-67.25 -40.75 -65.95 -40.25 L-64.45 -40.05 -61.55 -39.75 -59.8 -39.5 Q-57.85 -39.5 -55.25 -43.15 -52.8 -46.5 -52.8 -48.35 -52.8 -49.6 -54.3 -51.0 -55.85 -52.4 -57.1 -52.4 M-68.25 -40.55 L-70.0 -40.85 -68.25 -40.55 M-5.85 0.6 Q-6.65 1.1 -7.4 2.8 -8.6 5.45 -8.75 9.6 -8.6 5.45 -7.4 2.8 -6.65 1.1 -5.85 0.6 M-15.05 41.05 L-13.55 39.05 -15.05 41.05 M-17.25 26.4 L-17.15 26.0 -17.25 26.4 M-2.55 37.75 Q-3.25 36.05 -4.8 34.15 L-6.9 31.45 -8.05 28.15 Q-8.8 25.7 -9.45 24.8 -9.45 25.15 -9.65 25.15 -9.65 28.1 -10.05 29.3 L-11.2 19.3 -10.05 29.3 Q-9.65 28.1 -9.65 25.15 -9.45 25.15 -9.45 24.8 -8.8 25.7 -8.05 28.15 L-6.9 31.45 -4.8 34.15 Q-3.25 36.05 -2.55 37.75 M-20.85 20.75 L-20.85 21.2 -20.85 20.75 M-26.1 7.55 L-26.15 7.35 -26.05 6.1 -26.15 7.35 -26.1 7.55 M-24.45 71.85 L-24.9 71.0 -24.45 71.85 M-8.55 37.85 L-8.8 38.25 -8.55 38.1 -8.55 37.85 M-14.7 72.9 L-15.95 72.65 -17.1 72.65 -16.75 73.25 Q-16.4 73.8 -16.4 74.0 L-18.7 72.4 Q-20.65 70.85 -20.85 70.05 -20.65 70.85 -18.7 72.4 L-16.4 74.0 Q-16.4 73.8 -16.75 73.25 L-17.1 72.65 -15.95 72.65 -14.7 72.9" fill="url(#gradient0)" fill-rule="evenodd" stroke="none"/>
      <path d="M56.35 69.2 L56.65 69.2 57.8 73.15 58.4 73.3 59.85 73.8 60.25 73.95 62.3 74.25 63.55 74.35 63.45 74.35 60.1 75.05 60.1 75.15 60.8 75.25 65.3 78.4 65.3 78.5 64.3 78.6 62.0 78.1 59.95 77.55 59.85 77.55 63.8 80.5 Q66.45 82.7 66.7 84.5 L66.7 84.55 Q66.75 88.45 63.75 89.85 L64.2 87.55 Q64.15 86.4 63.35 85.25 L63.0 84.75 Q62.4 84.05 61.85 84.05 61.4 84.05 59.85 85.5 L60.05 86.05 60.95 89.0 61.4 90.5 59.55 90.7 57.7 90.5 Q56.9 90.3 56.7 89.2 L56.95 87.05 56.95 86.95 56.4 84.35 56.25 83.95 57.5 81.85 Q58.15 81.0 59.3 81.0 L60.7 81.1 62.05 81.35 62.3 81.35 Q61.9 80.65 59.6 79.65 L58.9 79.35 Q57.4 78.7 56.6 78.6 56.6 78.45 56.2 78.45 56.5 78.2 57.65 77.9 L59.3 77.4 Q56.6 76.0 55.15 76.05 L55.0 75.8 Q55.1 75.35 55.7 74.8 L56.9 73.95 55.1 74.6 55.05 74.65 54.7 74.8 53.7 74.8 49.15 75.35 44.7 76.1 46.4 75.0 Q47.6 74.2 48.15 74.0 L44.45 75.15 44.25 75.25 43.0 75.65 40.75 77.45 38.55 78.25 37.1 78.75 37.3 78.8 35.8 79.75 37.1 76.85 37.1 74.15 36.9 74.15 35.45 77.35 Q34.15 79.7 33.6 79.9 L33.6 79.7 34.4 77.55 34.85 75.05 Q34.85 71.8 32.9 68.8 L56.35 69.2 M41.55 76.15 L43.0 75.65 41.55 76.15 M60.65 79.15 L58.9 79.35 60.65 79.15" fill="url(#gradient1)" fill-rule="evenodd" stroke="none"/>
      <path d="M6.25 -19.75 L6.3 -18.2 5.9 -18.5 Q5.45 -18.5 5.15 -17.7 4.85 -17.0 4.9 -16.55 L4.7 -16.9 4.0 -17.75 Q3.4 -17.75 2.9 -16.75 2.4 -15.75 2.35 -14.65 L1.65 -15.4 0.95 -15.5 Q0.65 -15.5 0.4 -14.8 0.15 -14.25 0.25 -12.9 L0.35 -12.15 -0.9 -13.75 -1.85 -15.4 -2.1 -15.85 -3.5 -18.95 -3.55 -18.75 -3.6 -14.65 -3.6 -13.95 -3.6 -13.9 -3.6 -13.75 -3.6 -12.85 -3.35 -10.5 Q-4.75 -11.25 -5.9 -13.4 L-6.55 -12.7 -7.35 -12.05 Q-8.05 -11.55 -8.9 -11.15 L-9.6 -10.85 -9.7 -10.8 Q-11.0 -10.3 -12.25 -10.1 L-13.5 -10.05 -14.35 -10.1 Q-15.7 -10.3 -16.85 -11.1 -18.6 -12.25 -18.6 -14.15 L-18.6 -14.4 -18.4 -14.45 -18.4 -14.35 Q-18.0 -13.4 -17.15 -13.4 -16.4 -13.4 -16.2 -13.9 L-15.65 -13.5 Q-14.15 -12.45 -13.4 -12.45 -9.15 -12.45 -7.55 -15.9 L-5.65 -19.05 Q-4.4 -21.2 -4.1 -22.2 L-4.0 -22.75 Q-4.0 -23.5 -4.35 -23.8 L-5.3 -24.05 Q-6.55 -23.75 -7.05 -23.45 L-5.55 -25.15 -5.15 -25.55 -4.1 -26.45 -3.45 -26.9 Q-2.35 -27.8 0.1 -27.55 L0.15 -27.55 Q2.5 -27.3 3.8 -24.85 5.05 -21.55 6.25 -19.75 M-4.55 -16.4 Q-4.9 -14.7 -5.9 -13.4 -4.9 -14.7 -4.55 -16.4" fill="url(#gradient2)" fill-rule="evenodd" stroke="none"/>
      <path d="M45.5 -2.05 L46.2 -0.05 46.65 1.2 47.95 5.4 47.95 -1.2 48.0 -3.55 47.95 -5.8 46.8 -10.8 45.75 -13.95 45.95 -13.75 48.05 -10.15 50.15 -6.55 50.15 -7.55 Q49.4 -11.85 48.25 -15.9 M53.55 48.5 L54.55 49.85 54.6 49.9 M54.65 49.95 L57.75 54.45 59.3 56.75 58.7 54.45 57.35 50.25 Q55.7 45.6 53.4 44.75 L53.6 44.75 56.3 46.55 58.3 48.0 Q56.6 45.55 52.5 41.4 L48.5 37.7 48.65 37.25 49.8 34.55 50.75 32.4 50.6 37.3 54.35 24.85 54.55 29.95 54.5 31.9 Q56.75 25.4 56.8 21.05 L58.3 24.75 58.4 25.0 Q57.95 22.95 57.95 21.5 L58.15 15.0 Q58.1 13.45 56.8 8.5 L58.6 12.4 Q60.6 16.55 60.8 17.45 L60.8 17.25 Q60.2 13.6 58.8 8.65 57.0 2.2 55.5 -0.1 L55.3 -0.4 M49.4 -43.65 L50.1 -42.85 51.3 -41.55 48.55 -49.3 48.5 -49.35 48.5 -49.45 48.55 -49.3 50.7 -46.5 50.7 -46.65 47.7 -52.55 Q47.2 -53.35 46.25 -57.55 45.65 -60.25 45.5 -61.9 45.4 -63.05 45.55 -63.65 L44.5 -59.8 44.55 -61.7 Q44.5 -63.45 43.95 -65.6 L42.5 -70.5 42.4 -70.6 42.3 -67.55 41.35 -70.9 M22.75 -78.9 L23.25 -78.05 23.3 -77.55 Q23.3 -76.2 23.1 -75.9 22.85 -75.6 22.15 -75.5 M25.35 -73.2 L25.75 -73.55 26.65 -74.1 Q27.5 -74.65 28.25 -75.0 L29.4 -76.95 Q30.2 -78.0 31.5 -78.2 30.5 -80.8 28.25 -82.05 26.1 -83.3 23.05 -83.3 20.5 -83.3 18.95 -82.55 L17.8 -81.75 17.4 -81.4 16.6 -79.55 18.25 -79.9 21.75 -79.35 22.75 -78.9 M11.7 -77.45 L11.35 -77.25 10.65 -76.8 11.45 -76.8 11.5 -76.8 13.7 -76.8 15.75 -76.5 17.4 -76.05 20.6 -75.55 22.15 -75.5 M32.55 -75.35 L33.0 -75.15 M33.6 -74.65 Q34.05 -74.05 34.05 -73.2 34.05 -72.6 33.25 -72.05 L32.75 -71.75 M39.0 -73.95 L38.0 -75.4 37.1 -76.45 36.95 -76.65 36.55 -77.05 Q34.5 -78.3 32.4 -78.3 L31.5 -78.2 M31.1 -75.9 L31.75 -75.7 32.55 -75.35 M23.9 -72.15 L22.95 -71.55 23.1 -71.55 24.25 -71.8 26.25 -72.05 M26.3 -72.05 L27.25 -72.05 27.6 -72.05 29.05 -71.8 31.05 -71.25 32.75 -71.75 M31.1 -75.9 L30.9 -75.9 30.65 -75.85 28.25 -75.0 M30.65 -75.85 L31.1 -75.9 M39.55 -74.55 L39.6 -74.5 41.25 -71.25 M36.95 -76.65 L36.85 -77.15 36.85 -77.75 38.35 -76.1 39.55 -74.55 M5.95 -82.25 Q7.5 -83.9 8.9 -84.2 L9.75 -84.35 11.45 -84.5 Q13.55 -84.5 15.65 -83.05 L17.15 -81.75 17.4 -81.4 M11.15 -80.75 L10.85 -81.45 9.25 -82.05 6.25 -82.25 5.95 -82.25 Q3.35 -82.15 0.6 -80.25 L-1.5 -78.55 -2.1 -78.15 -2.1 -78.0 -1.05 -78.0 -0.8 -78.05 Q0.95 -78.65 3.25 -78.65 L4.95 -78.4 6.65 -78.0 7.55 -77.75 8.85 -77.45 9.45 -77.5 Q10.2 -77.8 10.7 -78.25 M11.15 -80.75 L11.35 -79.7 Q11.35 -79.1 11.0 -78.55 L10.7 -78.25 M12.45 -77.85 L16.35 -79.5 16.6 -79.55 M6.5 -72.8 L6.85 -72.55 Q8.1 -71.65 9.8 -71.35 L12.1 -71.2 12.65 -71.25 13.15 -71.3 13.95 -71.4 M11.7 -77.45 L12.45 -77.85 M15.75 -76.5 L15.35 -74.25 Q15.4 -72.65 15.95 -71.6 16.25 -71.05 16.7 -70.65 17.2 -70.25 17.95 -70.0 L20.85 -69.65 23.4 -70.0 24.15 -70.2 M23.4 -70.0 L24.15 -68.95 25.25 -67.3 Q25.5 -66.65 25.1 -66.05 24.4 -64.8 22.4 -65.5 L20.85 -66.1 Q19.3 -67.15 18.5 -68.5 18.0 -69.25 17.95 -70.0 M13.15 -71.3 Q14.25 -70.3 14.4 -69.2 14.65 -68.2 13.8 -67.55 L12.85 -67.1 Q11.9 -67.0 10.6 -67.75 L10.4 -67.85 Q8.75 -68.7 7.9 -69.85 L5.9 -70.65 8.7 -67.05 11.55 -62.85 11.55 -62.7 7.85 -64.9 11.25 -59.15 15.0 -54.65 Q14.3 -54.7 12.9 -55.4 L12.75 -55.4 Q14.1 -54.15 15.6 -51.7 L17.7 -48.05 17.85 -48.0 17.7 -48.0 17.7 -48.05 16.65 -48.45 16.5 -48.45 18.9 -44.5 19.3 -43.75 20.3 -41.6 20.45 -41.15 21.15 -39.05 19.6 -40.05 20.2 -38.0 20.75 -36.05 Q21.45 -33.45 22.25 -31.35 L22.95 -29.7 M33.35 -58.25 L32.8 -58.7 31.05 -60.0 30.25 -60.45 28.65 -61.15 27.1 -61.5 23.1 -61.9 Q22.0 -62.1 21.15 -62.85 19.7 -64.1 17.85 -64.5 L15.8 -64.85 14.4 -64.7 13.05 -64.2 Q12.65 -63.0 13.65 -60.85 14.6 -58.7 15.75 -57.3 L18.3 -54.6 20.0 -53.25 21.75 -52.05 23.4 -51.05 25.05 -50.15 25.3 -50.05 28.3 -49.1 Q29.75 -48.65 31.3 -48.35 L33.6 -48.3 33.75 -48.3 M33.35 -58.25 L35.55 -55.9 Q37.15 -53.85 37.3 -51.25 37.4 -50.15 36.4 -49.45 35.25 -48.55 33.75 -48.3 M7.9 -69.85 Q7.2 -70.75 6.85 -71.6 L6.65 -72.1 6.5 -72.5 6.45 -72.85 Q4.5 -74.45 4.95 -78.4 M6.45 -72.85 L6.5 -72.8 M32.85 -67.55 L34.0 -66.55 34.8 -65.5 35.1 -64.35 Q35.1 -63.1 33.25 -63.1 L32.55 -63.25 Q30.65 -63.8 29.8 -65.15 29.2 -66.25 29.15 -67.55 L29.35 -68.25 29.0 -68.45 Q28.1 -68.95 27.75 -69.65 27.45 -70.2 27.45 -70.8 L27.45 -70.85 27.6 -72.05 M32.85 -67.55 L34.45 -67.55 M29.35 -68.25 Q30.55 -67.7 32.45 -67.55 L32.85 -67.55 M23.9 -72.15 L25.35 -73.2 M32.6 -33.45 L32.4 -33.65 32.4 -33.8 32.6 -33.45 35.9 -29.2 38.6 -25.2 M32.55 -30.45 L34.85 -28.6 32.6 -33.45 M34.8 -25.05 L30.45 -26.7 30.3 -26.7 Q31.1 -26.35 33.15 -23.7 M34.85 -28.6 L34.95 -28.35 35.1 -28.35 34.85 -28.6 M-7.2 -45.25 L-4.6 -47.8 -1.7 -50.85 -2.9 -45.9 -2.9 -45.75 -2.5 -45.95 0.4 -47.5 Q3.55 -49.05 4.65 -48.65 L4.8 -48.65 Q3.7 -48.6 0.35 -46.65 L0.35 -46.5 4.5 -47.1 5.65 -47.3 6.55 -47.5 5.15 -46.5 5.65 -46.55 6.6 -46.55 9.05 -46.3 14.15 -45.2 10.1 -44.9 14.4 -44.65 17.25 -44.25 Q18.15 -44.05 18.6 -43.65 L15.35 -43.7 18.4 -42.2 20.0 -41.4 20.45 -41.15 M19.6 -40.05 L19.5 -40.1 19.5 -40.25 19.6 -40.05 M14.25 -42.0 L16.5 -42.0 M5.15 -46.5 L5.1 -46.5 4.95 -46.5 5.15 -46.5 M1.65 -42.75 L4.9 -44.0 5.65 -44.35 6.3 -44.6 M4.9 -44.0 L3.35 -42.75 3.35 -42.6 5.9 -43.35 10.65 -43.65 M0.6 -40.6 L0.6 -40.55 2.95 -35.2 6.05 -26.65 Q7.2 -21.65 7.2 -18.7 L7.05 -16.45 6.75 -15.1 5.3 -11.75 4.65 -10.5 Q3.2 -8.05 1.1 -5.55 -1.55 -3.7 -3.2 -3.15 L-5.45 -2.65 Q-6.25 -2.65 -9.55 -4.35 L-11.05 -5.1 -14.4 -5.5 -17.2 -4.85 -16.75 -6.0 -15.95 -7.5 -15.75 -7.9 -14.35 -10.1 -13.5 -10.05 -12.25 -10.1 Q-11.0 -10.3 -9.7 -10.8 L-9.6 -10.85 -8.9 -11.15 Q-8.05 -11.55 -7.35 -12.05 L-6.55 -12.7 -5.9 -13.4 Q-4.9 -14.7 -4.55 -16.4 M0.6 -40.6 L0.05 -41.5 -0.05 -41.6 -0.15 -41.7 -0.4 -42.05 -0.45 -42.1 M-23.35 -40.25 Q-22.5 -39.6 -21.05 -39.6 L-20.0 -39.4 -16.9 -39.1 Q-15.7 -38.5 -14.1 -38.0 L-13.3 -37.75 -12.95 -37.65 -7.55 -36.35 -4.25 -35.75 -0.75 -35.3 0.25 -34.2 0.75 -33.6 2.1 -31.8 2.25 -31.6 Q5.8 -26.2 6.25 -19.75 L6.3 -18.2 6.3 -17.85 6.15 -16.8 6.0 -16.4 6.0 -16.35 5.4 -14.9 4.9 -13.85 4.55 -13.25 Q3.25 -11.05 1.5 -9.55 L1.45 -9.5 -0.65 -9.25 -4.6 -8.25 -6.1 -7.8 -6.9 -7.55 -9.85 -6.75 M6.25 -19.75 Q5.05 -21.55 3.8 -24.85 2.5 -27.3 0.15 -27.55 L0.1 -27.55 Q-2.35 -27.8 -3.45 -26.9 L-4.1 -26.45 -5.15 -25.55 -5.55 -25.15 -7.05 -23.45 -7.25 -23.2 -8.25 -21.75 -9.1 -20.5 -10.2 -18.6 -10.35 -18.35 M-18.6 -14.4 L-18.6 -14.15 Q-18.6 -12.25 -16.85 -11.1 -15.7 -10.3 -14.35 -10.1 M-0.6 -31.95 L-0.25 -31.4 Q0.55 -30.3 1.0 -30.3 L1.75 -30.7 2.25 -31.6 M17.75 -31.7 L18.95 -29.9 20.1 -27.9 M1.65 -15.4 L2.35 -14.65 Q2.4 -15.75 2.9 -16.75 3.4 -17.75 4.0 -17.75 L4.7 -16.9 4.9 -16.55 Q4.85 -17.0 5.15 -17.7 5.45 -18.5 5.9 -18.5 L6.3 -18.2 M2.35 -12.5 L2.4 -12.9 2.35 -14.4 2.35 -14.65 M1.65 -15.4 L0.95 -15.5 Q0.65 -15.5 0.4 -14.8 0.15 -14.25 0.25 -12.9 L0.35 -12.15 0.6 -11.9 0.6 -11.7 0.7 -11.65 Q1.3 -11.4 1.8 -11.85 L2.35 -12.5 3.2 -12.5 Q3.6 -12.65 4.9 -13.85 M5.4 -14.9 L4.9 -16.55 M9.05 -12.05 L9.95 -10.95 10.85 -9.75 12.4 -7.95 Q13.0 -7.35 13.4 -7.2 M3.65 -4.05 L3.85 -3.75 3.95 -3.4 4.25 -1.4 M1.75 -3.5 Q2.55 -1.7 2.85 -1.4 M-13.3 23.0 Q-14.3 21.4 -15.1 18.25 L-15.5 16.7 -16.5 12.6 -17.3 13.4 Q-17.95 13.15 -18.05 12.6 L-18.1 9.75 Q-18.1 7.9 -17.45 4.4 L-17.05 2.6 -16.85 1.55 -16.5 0.4 M20.85 -16.35 Q20.85 -14.95 19.8 -12.1 L18.3 -8.4 M13.4 -11.15 Q13.95 -10.75 15.8 -4.95 M34.35 -18.65 L32.25 -18.65 34.2 -16.85 M23.7 -18.55 L22.85 -21.8 22.95 -16.2 M23.7 -18.55 L23.85 -17.9 23.7 -17.9 23.7 -18.55 23.0 -25.55 M17.95 -27.75 Q19.1 -24.6 19.55 -23.75 M49.15 -44.05 L49.4 -43.65 Q51.05 -40.7 53.85 -31.35 L53.85 -31.2 50.35 -37.4 Q52.15 -33.25 52.45 -26.3 L52.45 -26.15 49.25 -35.4 50.25 -30.05 50.25 -20.65 48.55 -28.1 Q49.4 -18.0 53.1 -11.7 L59.3 -0.75 55.85 -4.9 52.15 -9.4 57.2 -1.95 59.6 3.25 61.6 8.65 55.5 -0.1 M49.15 -39.6 L50.35 -37.4 M44.95 -25.55 L47.15 -19.4 48.05 -16.5 M45.5 -2.05 L44.95 -3.8 44.95 -4.0 44.9 -3.1 44.9 -2.95 44.55 1.6 M50.9 -11.15 L52.15 -9.4 M50.6 37.3 L50.55 37.55 50.55 37.35 50.6 37.3 M38.0 39.85 L43.15 41.15 45.6 41.7 45.9 42.0 41.55 42.85 41.1 42.9 42.25 43.7 43.4 44.45 43.75 44.65 Q45.9 46.2 46.8 47.75 M38.0 39.85 L35.9 39.0 M57.8 73.15 L58.4 73.3 58.35 71.05 58.3 69.65 58.2 69.2 Q58.0 67.8 56.85 66.25 L55.35 64.2 55.45 64.2 57.1 64.85 M58.15 65.3 L58.9 65.7 M59.15 65.85 Q55.85 62.5 55.85 62.25 L55.8 61.1 55.6 58.4 55.55 58.0 54.2 54.5 56.1 57.25 Q57.25 59.05 57.3 59.6 L57.3 59.15 57.2 58.7 56.15 54.45 55.5 52.45 54.55 49.9 M58.3 48.0 L58.5 48.35 58.7 48.35 58.3 48.0 M17.1 -4.15 Q17.1 -2.3 17.9 3.5 18.7 9.35 19.05 10.0 L19.05 10.2 18.05 8.05 17.3 5.9 17.1 5.9 Q17.95 8.25 15.7 13.5 13.8 18.05 12.75 18.85 L13.35 17.65 13.35 16.5 12.0 18.6 8.45 23.35 M0.55 31.2 L1.0 32.85 2.35 36.15 M32.9 68.8 Q34.85 71.8 34.85 75.05 L34.4 77.55 33.6 79.7 33.6 79.9 Q34.15 79.7 35.45 77.35 L36.9 74.15 37.1 74.15 37.1 76.85 35.8 79.75 37.3 78.8 M43.0 75.65 L41.55 76.15 M-35.65 80.0 Q-34.0 81.45 -30.85 81.45 L-29.6 81.15 Q-28.85 80.8 -28.45 80.8 L-24.35 81.45 Q-21.7 81.45 -18.2 80.45 -14.65 79.45 -11.9 79.45 L-5.95 78.9 -4.75 78.2 Q-3.4 77.0 -3.4 74.45 -3.4 72.95 -3.85 71.6 L-5.0 68.45 -3.35 70.9 -3.0 67.9 Q-2.55 65.4 -2.05 64.95 -2.25 66.5 -1.05 68.25 -0.1 69.6 0.75 69.8 0.45 69.5 0.05 68.2 -0.35 66.9 1.75 63.65 3.85 60.35 13.95 59.25 L17.65 59.0 17.75 59.0 Q24.8 59.05 28.25 62.0 L32.9 68.8 M38.55 78.25 L37.3 78.8 M35.8 79.75 Q35.15 80.3 34.6 81.2 L34.3 81.6 33.7 82.75 Q33.3 83.65 33.15 84.5 L33.0 85.35 33.0 85.6 Q32.95 88.3 34.9 90.15 L36.45 91.3 36.2 90.55 36.05 89.8 36.0 88.9 M43.1 82.2 L43.15 81.8 43.25 81.05 M36.0 88.75 Q36.05 85.15 38.15 85.55 39.35 85.7 39.9 86.55 L40.1 86.9 40.1 87.0 40.3 88.2 39.85 89.4 39.05 91.75 41.35 91.5 Q42.3 91.25 44.3 89.6 43.05 87.5 43.1 83.85 L43.1 83.8 43.1 82.2 M56.25 83.95 L55.6 82.45 M36.8 80.85 L39.1 80.3 M36.45 91.3 L36.95 92.25 38.15 94.3 39.05 91.75 M54.65 49.95 L54.6 49.9 M58.15 65.3 Q57.75 65.1 57.1 64.85 M60.8 75.25 L60.1 75.15 60.1 75.05 63.45 74.35 63.55 74.35 62.3 74.25 60.25 73.95 59.85 73.8 58.4 73.3 M58.3 69.65 L58.2 69.2 M58.9 79.35 L60.65 79.15 M55.05 74.65 L54.7 74.8 53.7 74.8 49.15 75.35 44.7 76.1 44.7 76.15 44.6 76.15 44.7 76.1 46.4 75.0 Q47.6 74.2 48.15 74.0 L44.45 75.15 44.25 75.25 43.0 75.65 M66.7 84.5 L66.55 82.8 Q66.3 81.35 65.75 80.5 65.3 79.7 64.6 79.5 M53.1 86.15 L53.5 86.75 M53.6 87.0 L53.85 87.65 54.1 89.25 Q54.1 90.5 52.8 92.6 55.95 92.25 56.7 89.2 L56.95 87.05 56.95 86.95 56.4 84.35 56.25 83.95 M49.3 89.9 L48.8 88.1 48.75 86.6 Q50.75 85.05 51.05 85.1 52.15 85.05 52.9 85.9 L53.1 86.15 M63.75 89.85 L64.2 87.55 Q64.15 86.4 63.35 85.25 L63.0 84.75 Q62.4 84.05 61.85 84.05 61.4 84.05 59.85 85.5 L60.05 86.05 60.95 89.0 61.4 90.5 61.95 93.05 62.1 93.3 63.4 90.8 63.75 89.85 Q66.75 88.45 66.7 84.55 M46.6 78.9 L50.2 78.6 Q53.25 78.2 54.3 78.65 M44.3 89.6 L45.55 91.05 Q47.1 92.25 50.2 92.55 L49.55 90.7 49.5 90.6 49.3 89.9 M56.7 89.2 Q56.9 90.3 57.7 90.5 L59.55 90.7 61.4 90.5 M50.2 92.55 L51.2 95.05 52.8 92.6 M65.75 80.5 L68.3 81.55 Q67.15 79.6 64.85 77.6 62.6 75.6 60.8 75.25 M-82.45 -50.9 L-83.25 -49.25 -83.25 -49.2 Q-82.6 -50.45 -80.2 -51.55 L-79.1 -52.0 -78.65 -52.2 -78.6 -52.2 -77.7 -52.55 Q-75.4 -53.6 -75.35 -54.7 M-75.35 -54.75 L-75.35 -54.9 -76.6 -53.9 -77.0 -53.55 -77.0 -53.6 -76.9 -54.0 -76.5 -54.8 -76.45 -54.95 M-82.45 -50.95 Q-80.95 -53.95 -79.3 -55.35 L-79.4 -56.5 Q-79.4 -58.15 -77.95 -59.35 L-76.45 -60.35 -73.15 -61.5 Q-72.75 -62.9 -71.05 -64.6 -68.4 -67.15 -65.8 -67.15 L-63.45 -66.7 Q-62.4 -66.3 -62.1 -66.0 L-60.15 -64.8 -60.15 -65.95 -60.65 -66.75 -59.05 -65.85 Q-57.0 -64.55 -56.75 -63.45 L-56.75 -65.9 Q-56.15 -64.9 -54.05 -63.1 L-51.95 -61.55 -49.6 -60.3 Q-47.85 -59.1 -46.2 -57.7 L-43.15 -55.5 Q-41.75 -54.5 -39.9 -53.9 L-36.0 -53.25 -38.7 -52.85 -40.15 -52.95 -41.2 -53.1 -40.2 -52.85 -35.8 -51.3 Q-31.1 -49.5 -29.1 -48.15 L-35.65 -49.75 Q-33.25 -49.15 -30.45 -47.7 -26.6 -45.7 -25.3 -43.3 L-27.5 -44.8 Q-29.35 -45.9 -30.3 -45.95 -29.45 -45.75 -27.15 -43.3 L-25.35 -41.4 -24.8 -42.35 -24.9 -43.6 -23.85 -45.6 Q-22.9 -47.05 -17.55 -48.55 -15.3 -48.55 -13.4 -47.6 -11.8 -46.8 -11.0 -45.65 L-7.45 -45.3 -7.2 -45.25 Q-4.9 -44.85 -3.25 -44.05 -1.5 -43.25 -0.45 -42.1 M-83.95 -42.95 L-83.95 -42.9 M-84.05 -42.75 Q-82.9 -44.0 -80.0 -44.8 L-79.45 -44.95 -79.15 -45.0 Q-76.4 -45.75 -76.2 -46.7 L-76.2 -46.85 Q-76.2 -47.8 -76.6 -48.4 L-77.3 -49.05 -77.4 -49.1 -78.0 -49.35 -78.3 -49.4 -80.15 -47.7 -83.95 -42.95 M-75.35 -54.9 L-73.75 -55.95 -72.45 -56.6 -71.35 -56.95 Q-70.3 -57.4 -69.75 -57.75 -68.95 -58.35 -68.7 -59.5 L-68.65 -59.8 Q-68.55 -60.4 -68.9 -60.9 L-69.0 -61.0 M-73.15 -61.5 L-73.35 -60.65 -73.2 -59.45 Q-71.6 -61.35 -70.35 -61.8 -69.45 -61.5 -69.0 -61.0 M-73.2 -59.45 L-74.6 -57.7 -75.95 -55.75 -76.45 -54.95 M-75.95 -55.75 Q-76.25 -56.45 -77.4 -56.45 L-78.55 -55.9 -79.3 -55.35 M-80.15 -47.7 L-80.2 -48.25 Q-80.2 -49.0 -79.6 -50.85 L-79.1 -52.0 M-75.6 -51.4 L-73.65 -51.15 -71.9 -51.2 Q-70.6 -51.35 -69.75 -51.8 L-69.2 -52.15 M-71.9 -51.2 L-72.0 -50.1 Q-72.0 -48.5 -71.1 -47.55 L-70.95 -47.4 Q-70.2 -46.7 -69.35 -46.7 -67.95 -46.7 -66.95 -47.65 -66.1 -48.45 -66.1 -49.3 L-66.55 -50.05 -67.65 -50.85 Q-69.1 -51.7 -69.75 -51.8 M-77.7 -52.55 Q-76.85 -51.75 -75.6 -51.4 M-66.95 -56.25 Q-65.8 -56.35 -64.65 -56.95 -63.25 -57.7 -62.85 -58.6 L-62.65 -59.4 M-71.35 -56.95 Q-69.95 -56.15 -67.75 -56.15 L-66.95 -56.25 -65.45 -54.1 Q-64.4 -53.15 -63.2 -53.15 L-61.85 -53.3 Q-60.85 -53.6 -60.1 -54.35 L-59.35 -55.15 -59.1 -56.15 Q-59.1 -57.0 -60.25 -57.8 -61.5 -58.7 -62.85 -58.6 M-57.1 -52.4 Q-55.85 -52.4 -54.3 -51.0 -52.8 -49.6 -52.8 -48.35 -52.8 -46.5 -55.25 -43.15 -57.85 -39.5 -59.8 -39.5 L-61.55 -39.75 -64.45 -40.05 -65.95 -40.25 Q-67.25 -40.75 -67.25 -42.3 L-66.7 -44.15 -64.65 -47.4 Q-63.35 -49.35 -62.2 -50.15 L-60.15 -51.35 Q-58.2 -52.4 -57.1 -52.4 M-16.65 42.95 L-16.25 42.55 -15.25 41.35 -15.05 41.05 -15.35 34.4 -16.45 38.35 -17.4 42.05 -17.4 41.9 -16.9 37.55 -16.7 36.0 -16.45 32.35 Q-16.45 29.45 -16.95 27.55 L-17.25 26.4 Q-17.8 28.1 -18.0 30.3 L-18.25 34.2 -18.3 35.15 -18.4 35.15 -18.5 34.2 Q-19.15 29.3 -20.8 21.55 L-20.85 21.2 Q-20.9 22.1 -21.3 24.0 -21.9 26.45 -22.2 26.75 L-22.2 26.7 Q-22.2 23.15 -24.15 15.3 L-26.1 7.55 -26.3 9.7 -26.75 12.9 Q-26.75 10.05 -28.85 4.4 L-28.9 4.2 -31.85 -3.65 -31.85 -3.55 Q-31.35 -1.05 -31.35 2.85 L-31.35 3.4 Q-31.4 5.3 -31.75 7.6 L-31.75 7.5 Q-31.75 6.5 -32.45 2.8 L-33.35 -1.45 -33.85 0.8 -34.1 1.65 Q-34.5 2.85 -35.0 3.1 L-35.2 0.65 -35.85 -8.05 -35.9 -8.0 Q-36.1 -7.1 -37.85 -4.7 L-38.55 -3.75 -39.85 -2.3 -39.85 -2.35 -39.0 -4.5 -38.6 -5.8 Q-37.8 -8.6 -37.8 -10.55 -37.8 -13.25 -38.3 -14.55 L-39.65 -9.1 -39.65 -9.2 Q-39.5 -12.15 -41.3 -17.4 L-42.9 -21.7 -43.2 -22.4 -43.2 -22.3 -43.45 -21.25 -43.65 -19.95 -43.75 -20.0 Q-43.95 -22.45 -48.35 -27.55 -52.7 -32.6 -54.95 -33.1 L-52.65 -33.3 -55.6 -34.15 -59.5 -35.1 -59.4 -35.1 -58.15 -35.35 -57.0 -35.15 -57.0 -35.25 -59.5 -36.85 Q-60.8 -37.75 -61.5 -37.9 L-66.65 -38.65 Q-68.65 -38.9 -69.1 -39.2 -69.55 -39.5 -70.0 -40.85 L-71.9 -41.15 -73.15 -41.55 Q-73.6 -42.15 -73.65 -43.1 L-73.7 -43.6 -73.65 -43.8 -74.2 -43.65 -74.7 -43.55 -74.9 -43.55 Q-77.85 -43.55 -79.15 -45.0 M-74.7 -43.55 L-74.8 -43.65 -74.85 -44.2 -73.6 -46.25 -73.5 -46.4 -71.9 -46.4 Q-71.1 -46.45 -70.6 -45.9 -70.2 -45.4 -70.2 -44.65 -70.2 -43.85 -71.35 -43.4 L-73.65 -43.1 M-70.0 -40.85 L-68.25 -40.55 M-73.65 -43.8 L-73.15 -43.95 -71.95 -44.4 M-24.8 -42.35 Q-23.2 -44.4 -18.15 -45.6 L-13.85 -45.75 -11.0 -45.65 M-23.4 -33.8 L-22.65 -35.25 -21.7 -36.2 -20.55 -36.75 -20.45 -37.25 -20.45 -37.3 -19.45 -38.4 -19.15 -38.55 -17.65 -38.4 -17.65 -38.35 -16.9 -39.1 M-17.65 -38.35 L-17.55 -37.3 -17.0 -34.85 -16.5 -33.35 Q-16.05 -31.65 -14.85 -31.95 L-14.75 -32.0 -14.1 -32.2 -13.8 -32.35 M-8.1 -22.25 L-8.05 -22.35 Q-7.9 -22.8 -8.1 -24.75 L-8.2 -26.35 Q-8.45 -30.65 -7.55 -36.35 M-12.5 -35.2 L-12.6 -34.9 -13.0 -33.45 -13.1 -33.05 -13.2 -32.95 -13.8 -32.35 M-9.7 -25.25 L-11.95 -31.65 -12.5 -35.2 -12.95 -37.65 M-17.95 -31.5 Q-16.9 -31.7 -16.5 -33.35 M-17.95 -31.5 L-18.2 -31.5 Q-19.0 -31.5 -19.45 -31.9 L-19.55 -32.0 -19.55 -31.9 -19.5 -28.65 -19.5 -28.6 -19.05 -27.4 -18.0 -25.75 -17.55 -25.15 -15.75 -23.05 -14.15 -20.95 -12.6 -18.85 -11.8 -20.65 Q-13.0 -22.4 -13.15 -23.45 M-19.55 -32.0 L-20.0 -32.8 -20.3 -33.75 -20.5 -35.55 -20.55 -36.15 -20.55 -36.75 M-20.0 -19.9 L-19.75 -19.25 Q-19.6 -19.25 -19.5 -19.8 -19.3 -21.2 -19.45 -26.0 L-19.45 -26.35 -19.5 -28.6 M-18.0 -25.75 L-18.7 -26.1 -19.45 -26.35 M-11.05 -22.65 L-11.4 -23.0 Q-12.3 -24.0 -13.35 -27.05 -14.15 -29.4 -14.2 -31.7 M-4.2 -35.65 L-3.75 -34.2 Q-3.0 -32.2 -1.9 -32.2 -1.25 -32.2 -1.1 -33.15 L-1.1 -34.3 M-4.25 -35.75 L-4.2 -35.65 Q-4.3 -35.05 -4.8 -34.55 -5.65 -33.7 -6.0 -33.7 -7.05 -33.7 -7.5 -35.85 L-7.55 -36.35 M-0.6 -31.95 L-0.65 -31.7 -0.25 -29.1 0.15 -27.55 M-1.1 -33.15 L-0.6 -31.95 M-4.1 -26.45 L-4.2 -26.65 Q-5.75 -29.65 -5.75 -32.55 L-5.7 -33.35 M-5.15 -25.55 L-5.65 -25.85 -5.9 -26.0 -7.5 -26.45 -8.2 -26.35 M-6.75 -31.05 Q-6.9 -28.45 -5.9 -26.0 M-23.5 -40.35 L-23.35 -40.25 M-23.95 -40.85 L-23.5 -40.35 M-26.65 -32.8 L-26.9 -32.3 Q-27.2 -31.7 -28.0 -31.2 L-28.8 -30.8 -25.8 -28.75 -25.0 -28.4 -22.4 -27.2 -22.65 -28.25 -23.25 -31.9 -23.4 -33.8 -23.35 -35.4 Q-23.35 -36.3 -22.85 -37.0 L-22.1 -38.15 -21.8 -38.6 -21.05 -39.6 M-26.65 -32.8 L-26.45 -33.25 -26.25 -33.65 -25.85 -34.75 Q-25.7 -35.3 -25.7 -36.65 -25.7 -40.15 -25.35 -41.4 M-3.6 -13.95 L-3.6 -14.65 -3.55 -18.75 -3.5 -18.95 -2.1 -15.85 -1.85 -15.4 -0.9 -13.75 0.35 -12.15 M-8.1 -22.25 Q-8.4 -21.95 -9.3 -24.25 L-9.7 -25.25 -10.8 -23.3 -11.05 -22.65 -11.3 -22.0 -11.4 -21.65 -11.8 -20.65 M-7.35 -12.05 L-6.9 -11.35 -6.6 -12.65 -6.55 -12.7 M-3.6 -13.95 L-3.6 -13.9 -3.6 -13.75 -3.6 -12.85 -3.35 -10.5 -3.2 -10.0 -2.9 -9.6 -2.2 -9.35 Q-1.1 -9.35 -0.2 -9.95 0.65 -10.5 0.6 -11.7 M-17.75 -15.25 L-16.6 -15.2 -16.4 -15.2 Q-15.4 -15.15 -14.4 -16.05 L-14.7 -18.05 -13.85 -16.65 -13.5 -17.15 -12.6 -18.85 M-18.6 -14.4 Q-18.5 -15.15 -17.95 -15.25 L-17.8 -15.25 M-13.85 -16.65 L-14.4 -16.05 M-11.5 -9.65 L-11.55 -9.7 -11.75 -9.75 -11.75 -9.8 -11.85 -9.85 -12.25 -10.1 M-11.75 -9.8 L-11.55 -9.7 -11.45 -9.7 -11.0 -9.6 Q-10.7 -9.55 -9.8 -10.0 L-9.7 -10.8 M-6.9 -7.55 Q-8.05 -7.9 -9.4 -8.55 L-11.3 -9.55 -11.5 -9.65 M-8.75 9.6 Q-8.6 5.45 -7.4 2.8 -6.65 1.1 -5.85 0.6 M-7.0 -9.3 L-6.6 -8.6 -5.95 -8.45 -5.9 -8.45 -4.65 -8.55 Q-3.95 -8.7 -2.9 -9.6 M-6.9 -11.35 L-7.0 -9.95 -7.0 -9.3 Q-7.5 -9.05 -8.25 -8.9 -8.85 -8.9 -9.85 -9.8 L-9.8 -10.0 M-5.9 -13.4 Q-4.75 -11.25 -3.35 -10.5 M-20.0 -19.9 L-22.4 -27.2 M-5.65 8.3 L-6.05 10.1 Q-6.55 11.95 -6.5 14.0 M-26.05 6.1 L-26.15 7.35 -26.1 7.55 M-20.85 21.2 L-20.85 20.75 M-11.2 19.3 L-10.05 29.3 Q-9.65 28.1 -9.65 25.15 -9.45 25.15 -9.45 24.8 -8.8 25.7 -8.05 28.15 L-6.9 31.45 -4.8 34.15 Q-3.25 36.05 -2.55 37.75 M-17.15 26.0 L-17.25 26.4 M-13.55 39.05 L-15.05 41.05 M-24.9 71.0 L-24.45 71.85 M-16.65 42.95 L-17.1 43.4 Q-19.5 45.75 -21.95 46.45 -23.95 47.0 -27.85 49.7 -31.1 52.0 -32.15 53.15 L-26.75 50.7 -25.65 50.35 M-46.7 76.5 Q-46.6 74.35 -44.6 72.7 -42.7 71.1 -40.7 71.1 L-40.25 71.15 Q-39.9 70.25 -38.75 69.55 -37.6 68.8 -35.75 68.45 L-31.35 68.6 -27.75 69.2 -27.7 69.15 Q-27.2 68.95 -27.05 68.45 L-27.05 68.05 -27.25 67.15 -27.45 65.35 -27.05 63.15 -27.25 63.15 -29.25 66.1 -29.25 65.9 -29.4 64.4 Q-29.4 61.9 -27.9 58.8 L-27.15 57.45 -31.4 61.75 -31.4 61.35 Q-30.6 58.3 -29.55 56.1 M-29.45 55.95 L-29.05 54.65 -28.15 52.6 -27.1 51.05 -26.75 50.7 M-39.5 78.15 Q-40.35 78.45 -41.05 78.9 L-41.2 79.0 -42.75 80.0 -42.75 79.25 Q-42.35 77.1 -40.8 75.7 L-40.95 74.6 Q-42.9 74.5 -45.2 75.8 L-46.7 76.7 -46.7 76.6 -46.7 76.5 M-39.1 72.25 L-39.15 72.1 Q-39.55 71.25 -40.25 71.15 M-20.85 70.05 Q-20.65 70.85 -18.7 72.4 L-16.4 74.0 Q-16.4 73.8 -16.75 73.25 L-17.1 72.65 -15.95 72.65 -14.7 72.9 M-25.5 55.0 L-26.25 56.1 -27.15 57.45 M-39.25 73.25 L-39.6 73.6 -40.95 74.6 M-27.75 69.2 L-29.0 69.45 -30.95 69.25 -32.8 69.0 Q-37.15 69.0 -37.5 74.0 L-34.95 73.85 Q-34.55 74.3 -34.4 75.1 L-34.4 75.6 M-25.95 70.2 L-26.85 70.95 Q-28.75 72.5 -29.1 72.65 L-29.1 72.55 -28.35 71.4 -27.25 69.6 Q-27.0 69.0 -27.05 68.45 M-25.95 70.2 L-24.9 69.25 -25.0 70.35 -24.9 71.0 M-34.4 75.65 L-34.4 75.75 Q-34.45 77.1 -35.5 77.45 L-37.15 77.7 Q-36.7 79.1 -35.65 80.0 -38.0 79.8 -39.45 78.2 L-39.5 78.15 -37.8 77.7 -37.15 77.7 M-40.8 75.7 L-39.8 74.95 Q-38.75 74.3 -37.5 74.0" fill="none" stroke="#000000" stroke-linecap="round" stroke-linejoin="round" stroke-opacity="0.3019608" stroke-width="0.05"/>
      <path d="M-2.0 -44.15 Q-0.1 -45.35 4.75 -45.05" fill="none" stroke="#000000" stroke-linecap="round" stroke-linejoin="round" stroke-opacity="0.57254905" stroke-width="1.5"/>
    </g>
    <radialGradient cx="0" cy="0" gradientTransform="matrix(0.192, 0.0, 0.0, 0.192, 8.05, 79.35)" gradientUnits="userSpaceOnUse" id="gradient0" r="819.2" spreadMethod="pad">
      <stop offset="0.0" stop-color="#53342d"/>
      <stop offset="1.0" stop-color="#855347"/>
    </radialGradient>
    <radialGradient cx="0" cy="0" gradientTransform="matrix(0.192, 0.0, 0.0, 0.192, 11.25, 85.8)" gradientUnits="userSpaceOnUse" id="gradient1" r="819.2" spreadMethod="pad">
      <stop offset="0.0" stop-color="#53342d"/>
      <stop offset="1.0" stop-color="#855347"/>
    </radialGradient>
    <radialGradient cx="0" cy="0" fx="6.4" fy="0" gradientTransform="matrix(0.0208, 0.0, 0.0, 0.0208, 3.8, -13.8)" gradientUnits="userSpaceOnUse" id="gradient2" r="819.2" spreadMethod="pad">
      <stop offset="0.0" stop-color="#662b2b"/>
      <stop offset="1.0" stop-color="#b04646"/>
    </radialGradient>
  </defs>
</svg>
