<?xml version="1.0" encoding="UTF-8" standalone="no"?>
<svg xmlns:xlink="http://www.w3.org/1999/xlink" height="23.2px" width="29.15px" xmlns="http://www.w3.org/2000/svg">
  <g transform="matrix(1.0, 0.0, 0.0, 1.0, 14.6, 11.5)">
    <use height="19.85" id="_col2" transform="matrix(1.0, 0.0, 0.0, 1.0, -14.6, -11.5)" width="29.15" xlink:href="#sprite0"/>
    <use height="12.65" id="_col4" transform="matrix(1.0, 0.0, 0.0, 1.0, -13.3, -0.95)" width="24.65" xlink:href="#sprite1"/>
  </g>
  <defs>
    <g id="sprite0" transform="matrix(1.0, 0.0, 0.0, 1.0, 14.6, 11.5)">
      <use height="19.85" transform="matrix(1.0, 0.0, 0.0, 1.0, -14.6, -11.5)" width="29.15" xlink:href="#shape0"/>
    </g>
    <g id="shape0" transform="matrix(1.0, 0.0, 0.0, 1.0, 14.6, 11.5)">
      <path d="M-13.95 -3.15 Q-12.75 -3.3 -11.0 -4.05 L-9.0 -4.85 -6.9 -2.8 Q-5.1 -0.8 -4.0 -0.75 -0.75 -0.85 0.7 -1.7 L4.15 -4.0 5.65 -4.95 6.5 -3.75 Q9.15 0.6 9.95 1.5 11.95 3.6 14.55 4.25 L11.35 8.35 9.3 7.7 5.5 6.7 3.8 6.3 -0.6 5.15 Q-1.5 4.9 -5.6 1.95 L-9.9 -0.95 -13.3 -0.45 -13.85 -2.8 -13.95 -3.15" fill="#d6baba" fill-rule="evenodd" stroke="none"/>
      <path d="M5.65 -4.95 L4.15 -4.0 0.7 -1.7 Q-0.75 -0.85 -4.0 -0.75 -5.1 -0.8 -6.9 -2.8 L-9.0 -4.85 -11.0 -4.05 Q-12.75 -3.3 -13.95 -3.15 -14.6 -5.65 -14.6 -8.0 L-14.2 -9.75 -13.7 -10.6 -12.9 -11.3 -12.0 -11.5 Q-11.4 -11.7 -9.25 -10.15 L-7.05 -8.35 -5.55 -8.4 Q-4.05 -8.75 -0.1 -8.4 3.2 -8.15 5.65 -4.95" fill="#ffffff" fill-rule="evenodd" stroke="none"/>
      <path d="M-13.95 -3.15 L-13.85 -2.8 -13.3 -0.45 M11.35 8.35 L14.55 4.25 Q11.95 3.6 9.95 1.5 9.15 0.6 6.5 -3.75 L5.65 -4.95 Q3.2 -8.15 -0.1 -8.4 -4.05 -8.75 -5.55 -8.4 L-7.05 -8.35 -9.25 -10.15 Q-11.4 -11.7 -12.0 -11.5 L-12.9 -11.3 -13.7 -10.6 -14.2 -9.75 -14.6 -8.0 Q-14.6 -5.65 -13.95 -3.15" fill="none" stroke="#000000" stroke-linecap="round" stroke-linejoin="round" stroke-opacity="0.3019608" stroke-width="0.05"/>
      <path d="M-13.3 -0.45 L-9.9 -0.95 -5.6 1.95 Q-1.5 4.9 -0.6 5.15 L3.8 6.3 5.5 6.7 9.3 7.7 11.35 8.35" fill="none" stroke="#000000" stroke-linecap="round" stroke-linejoin="round" stroke-opacity="0.2" stroke-width="0.05"/>
    </g>
    <g id="sprite1" transform="matrix(1.0, 0.0, 0.0, 1.0, 13.3, 0.95)">
      <use height="12.65" transform="matrix(1.0, 0.0, 0.0, 1.0, -13.3, -0.95)" width="24.65" xlink:href="#shape1"/>
    </g>
    <g id="shape1" transform="matrix(1.0, 0.0, 0.0, 1.0, 13.3, 0.95)">
      <path d="M-13.3 -0.4 L-13.3 -0.45 -9.9 -0.95 -5.6 1.95 Q-1.5 4.9 -0.6 5.15 L3.8 6.3 5.5 6.7 7.7 7.25 11.35 8.35 Q9.45 10.5 7.75 11.55 -1.85 12.15 -7.4 9.9 -8.15 3.7 -10.25 1.85 L-13.3 -0.4" fill="#d6baba" fill-rule="evenodd" stroke="none"/>
      <path d="M-7.4 9.9 Q-9.4 9.05 -10.5 8.25 L-12.1 7.15 -13.0 6.05 Q-12.85 4.55 -13.15 1.25 L-13.3 -0.4 -10.25 1.85 Q-8.15 3.7 -7.4 9.9" fill="#ffffff" fill-rule="evenodd" stroke="none"/>
      <path d="M-13.3 -0.4 L-13.3 -0.45 M11.35 8.35 Q9.45 10.5 7.75 11.55 -1.85 12.15 -7.4 9.9 -9.4 9.05 -10.5 8.25 L-12.1 7.15 -13.0 6.05 Q-12.85 4.55 -13.15 1.25 L-13.3 -0.4" fill="none" stroke="#000000" stroke-linecap="round" stroke-linejoin="round" stroke-opacity="0.3019608" stroke-width="0.05"/>
      <path d="M-13.3 -0.45 L-9.9 -0.95 -5.6 1.95 Q-1.5 4.9 -0.6 5.15 L3.8 6.3 5.5 6.7 7.7 7.25 11.35 8.35" fill="none" stroke="#000000" stroke-linecap="round" stroke-linejoin="round" stroke-opacity="0.2" stroke-width="0.05"/>
    </g>
  </defs>
</svg>
