<?xml version="1.0" encoding="UTF-8" standalone="no"?>
<svg xmlns:xlink="http://www.w3.org/1999/xlink" height="22.8px" width="28.0px" xmlns="http://www.w3.org/2000/svg">
  <g transform="matrix(1.0, 0.0, 0.0, 1.0, 10.75, 20.8)">
    <use height="22.8" transform="matrix(1.0, 0.0, 0.0, 1.0, -10.75, -20.8)" width="28.0" xlink:href="#shape0"/>
  </g>
  <defs>
    <g id="shape0" transform="matrix(1.0, 0.0, 0.0, 1.0, 10.75, 20.8)">
      <path d="M3.65 -20.8 Q3.65 -18.95 4.65 -17.3 L4.85 -16.85 5.2 -14.75 4.65 -12.95 Q2.95 -10.1 3.15 -7.1 L3.1 -5.8 3.0 -5.8 3.15 -3.45 Q3.25 -1.2 2.25 1.6 L2.05 2.0 1.75 2.0 0.25 2.0 -0.75 1.85 Q-0.9 1.6 -1.1 1.6 L-4.45 0.55 Q-6.6 0.05 -8.25 -1.3 -10.25 -2.35 -10.75 -5.05 L-10.7 -5.15 -10.65 -5.15 -10.55 -6.1 -10.2 -8.45 Q-9.7 -11.75 -8.7 -14.75 -8.2 -16.45 -6.2 -17.95 -4.2 -19.6 -1.55 -20.45 L2.8 -20.8 3.65 -20.8" fill="#ffffff" fill-rule="evenodd" stroke="none"/>
      <path d="M12.5 -17.8 L13.8 -17.3 14.1 -16.8 Q14.65 -15.9 14.5 -14.75 14.4 -12.55 15.5 -10.1 L16.85 -6.4 17.1 -5.75 Q17.4 -4.85 17.0 -3.95 16.55 -2.9 15.1 -1.85 12.25 0.05 10.25 0.55 L5.75 2.0 2.05 2.0 2.25 1.6 Q3.25 -1.2 3.15 -3.45 L3.0 -5.8 3.1 -5.8 3.15 -7.1 Q2.95 -10.1 4.65 -12.95 L5.2 -14.75 4.85 -16.85 4.65 -17.3 Q3.65 -18.95 3.65 -20.8 L4.45 -20.65 8.8 -19.45 9.65 -18.95 Q10.9 -18.15 12.5 -17.8" fill="#d6baba" fill-rule="evenodd" stroke="none"/>
      <path d="M17.0 -3.95 Q17.4 -4.85 17.1 -5.75 L16.85 -6.4 15.5 -10.1 Q14.4 -12.55 14.5 -14.75 14.65 -15.9 14.1 -16.8 L13.8 -17.3 12.5 -17.8 M8.8 -19.45 L4.45 -20.65 3.65 -20.8 2.8 -20.8 -1.55 -20.45 Q-4.2 -19.6 -6.2 -17.95 -8.2 -16.45 -8.7 -14.75 -9.7 -11.75 -10.2 -8.45 L-10.55 -6.1 -10.65 -5.15 M-10.7 -5.15 L-10.75 -5.05" fill="none" stroke="#000000" stroke-linecap="round" stroke-linejoin="round" stroke-opacity="0.3019608" stroke-width="0.05"/>
    </g>
  </defs>
</svg>
