<?xml version="1.0" encoding="UTF-8" standalone="no"?>
<svg xmlns:xlink="http://www.w3.org/1999/xlink" height="34.55px" width="42.6px" xmlns="http://www.w3.org/2000/svg">
  <g transform="matrix(1.0, 0.0, 0.0, 1.0, 19.6, 18.3)">
    <use height="16.5" transform="matrix(1.0, 0.0, 0.0, 1.0, -4.45, -2.8)" width="17.25" xlink:href="#sprite0"/>
  </g>
  <defs>
    <g id="sprite0" transform="matrix(1.0, 0.0, 0.0, 1.0, 29.85, -0.6)">
      <use height="16.5" transform="matrix(1.0, 0.0, 0.0, 1.0, -29.85, 0.6)" width="17.25" xlink:href="#shape0"/>
    </g>
    <g id="shape0" transform="matrix(1.0, 0.0, 0.0, 1.0, 29.85, -0.6)">
      <path d="M-27.15 4.65 L-26.35 3.85 Q-22.15 1.6 -17.35 0.6 -16.0 0.5 -14.95 1.4 L-12.6 3.65 Q-17.0 4.05 -20.0 7.15 L-20.9 8.05 -27.15 4.65" fill="#c9a894" fill-rule="evenodd" stroke="none"/>
      <path d="M-20.9 8.05 L-21.65 8.95 Q-24.6 12.9 -24.2 17.1 L-27.9 14.75 Q-29.85 13.3 -29.85 12.25 -29.85 7.75 -27.15 4.65 L-20.9 8.05" fill="#af8061" fill-rule="evenodd" stroke="none"/>
      <path d="M-27.15 4.65 L-26.35 3.85 Q-22.15 1.6 -17.35 0.6 -16.0 0.5 -14.95 1.4 L-12.6 3.65 Q-17.0 4.05 -20.0 7.15 L-20.9 8.05 -21.65 8.95 Q-24.6 12.9 -24.2 17.1 L-27.9 14.75 Q-29.85 13.3 -29.85 12.25 -29.85 7.75 -27.15 4.65 Z" fill="none" stroke="#000000" stroke-linecap="round" stroke-linejoin="round" stroke-opacity="0.3019608" stroke-width="0.05"/>
    </g>
  </defs>
</svg>
