<?xml version="1.0" encoding="UTF-8" standalone="no"?>
<svg xmlns:xlink="http://www.w3.org/1999/xlink" height="84.9px" width="82.65px" xmlns="http://www.w3.org/2000/svg">
  <g transform="matrix(1.0, 0.0, 0.0, 1.0, 34.05, 39.8)">
    <use height="84.9" transform="matrix(1.0, 0.0, 0.0, 1.0, -34.05, -39.8)" width="82.65" xlink:href="#shape0"/>
  </g>
  <defs>
    <g id="shape0" transform="matrix(1.0, 0.0, 0.0, 1.0, 34.05, 39.8)">
      <path d="M-33.8 -12.65 Q-24.55 -27.95 -12.2 -27.95 L-9.55 -27.8 -6.8 -27.5 -7.95 -28.45 Q-9.2 -29.35 -11.2 -30.15 -13.35 -30.95 -15.9 -31.2 L-19.55 -31.0 -16.55 -32.7 Q-13.6 -34.1 -8.3 -34.1 -3.8 -34.1 0.5 -32.7 L4.85 -31.2 Q5.95 -35.95 10.55 -37.85 13.15 -38.9 18.05 -39.8 L18.7 -39.8 16.55 -36.95 15.45 -35.3 14.3 -33.4 15.45 -33.45 17.75 -33.5 Q26.65 -33.5 33.7 -28.1 25.75 -28.0 18.05 -26.15 21.75 -25.4 25.4 -24.25 31.55 -22.25 35.3 -17.15 L23.55 -18.9 24.65 -16.7 Q27.45 -10.45 26.85 -3.3 L25.45 -5.45 Q21.6 -11.35 15.45 -14.75 L14.1 -15.85 14.1 -15.4 14.85 -12.8 15.45 -9.7 15.5 -4.65 15.45 -4.7 13.75 -6.25 13.15 -6.7 11.25 -7.95 11.65 -6.0 12.0 -4.0 12.35 -1.9 Q11.95 1.25 11.9 2.75 L11.9 3.15 8.25 0.75 Q5.45 -1.1 -0.95 -2.05 L-12.05 -3.4 -19.95 -4.15 -28.6 -4.4 -28.05 -7.6 -27.05 -10.75 -25.55 -13.3 -25.05 -14.65 -27.25 -14.4 Q-31.4 -14.0 -33.8 -12.65" fill="#ffffff" fill-rule="evenodd" stroke="none"/>
      <path d="M33.7 -28.1 L41.2 -20.4 Q47.4 -13.35 48.6 -4.2 47.05 -6.35 44.7 -7.95 41.3 -10.4 37.15 -11.2 42.35 -7.85 44.8 -2.2 49.5 8.5 47.75 20.2 L46.85 24.75 44.45 31.2 44.2 31.2 Q42.9 22.35 42.9 21.35 42.8 26.8 38.2 34.4 33.25 42.65 27.5 44.8 L28.6 42.55 30.15 38.9 30.15 38.5 Q28.7 40.65 24.2 42.75 20.1 44.65 18.25 44.65 L17.8 44.65 Q18.4 44.05 19.2 40.15 L20.0 34.15 16.2 37.5 Q13.15 40.05 12.1 40.2 L11.95 40.15 Q13.2 37.55 14.1 34.45 L15.25 30.55 Q16.1 28.4 19.15 28.35 L19.1 28.15 20.55 20.2 20.9 18.7 19.45 15.0 17.15 9.9 Q15.95 6.7 14.3 5.0 L13.5 4.3 13.5 4.35 12.75 3.8 11.9 3.15 11.9 2.75 Q11.95 1.25 12.35 -1.9 L12.0 -4.0 11.65 -6.0 11.25 -7.95 13.15 -6.7 13.7 -6.25 13.75 -6.25 15.45 -4.7 15.5 -4.65 15.45 -9.7 14.85 -12.8 14.1 -15.4 14.1 -15.85 15.45 -14.75 Q21.6 -11.35 25.45 -5.45 L26.85 -3.3 Q27.45 -10.45 24.65 -16.7 L23.55 -18.9 35.3 -17.15 Q31.55 -22.25 25.4 -24.25 21.75 -25.4 18.05 -26.15 25.75 -28.0 33.7 -28.1 M19.15 28.35 Q20.0 31.5 20.0 32.85 L20.0 34.15 20.0 32.85 Q20.0 31.5 19.15 28.35 M12.75 3.8 L13.5 4.3 12.75 3.8" fill="#d6baba" fill-rule="evenodd" stroke="none"/>
      <path d="M-33.8 -12.65 Q-24.55 -27.95 -12.2 -27.95 L-9.55 -27.8 -6.8 -27.5 -7.95 -28.45 Q-9.2 -29.35 -11.2 -30.15 -13.35 -30.95 -15.9 -31.2 L-19.55 -31.0 -16.55 -32.7 Q-13.6 -34.1 -8.3 -34.1 -3.8 -34.1 0.5 -32.7 L4.85 -31.2 Q5.95 -35.95 10.55 -37.85 13.15 -38.9 18.05 -39.8 L18.7 -39.8 16.55 -36.95 15.45 -35.3 14.3 -33.4 15.45 -33.45 17.75 -33.5 Q26.65 -33.5 33.7 -28.1 L41.2 -20.4 Q47.4 -13.35 48.6 -4.2 47.05 -6.35 44.7 -7.95 41.3 -10.4 37.15 -11.2 42.35 -7.85 44.8 -2.2 49.5 8.5 47.75 20.2 L46.85 24.75 44.45 31.2 44.2 31.2 Q42.9 22.35 42.9 21.35 42.8 26.8 38.2 34.4 33.25 42.65 27.5 44.8 L27.3 45.1 27.3 44.85 27.5 44.8 28.6 42.55 30.15 38.9 30.15 38.5 Q28.7 40.65 24.2 42.75 20.1 44.65 18.25 44.65 L17.8 44.65 Q18.4 44.05 19.2 40.15 L20.0 34.15 16.2 37.5 Q13.15 40.05 12.1 40.2 L11.9 40.2 11.95 40.15 Q13.2 37.55 14.1 34.45 L15.25 30.55 Q16.1 28.4 19.15 28.35 L19.1 28.15 20.55 20.2 20.9 18.7 19.45 15.0 17.15 9.9 Q15.95 6.7 14.3 5.0 L13.5 4.3 12.75 3.8 11.9 3.15 8.25 0.75 Q5.45 -1.1 -0.95 -2.05 L-12.05 -3.4 -19.95 -4.15 -28.6 -4.4 -28.05 -7.6 -27.05 -10.75 -25.55 -13.3 -25.05 -14.65 -27.25 -14.4 Q-31.4 -14.0 -33.8 -12.65 L-34.05 -12.3 -34.05 -12.55 -33.8 -12.65 M15.5 -4.65 L15.45 -4.7 M20.0 34.15 L20.0 32.85 Q20.0 31.5 19.15 28.35" fill="none" stroke="#000000" stroke-linecap="round" stroke-linejoin="round" stroke-opacity="0.3019608" stroke-width="0.05"/>
    </g>
  </defs>
</svg>
