<?xml version="1.0" encoding="UTF-8" standalone="no"?>
<svg xmlns:xlink="http://www.w3.org/1999/xlink" height="13.25px" width="18.1px" xmlns="http://www.w3.org/2000/svg">
  <g transform="matrix(1.0, 0.0, 0.0, 1.0, 1.25, 0.25)">
    <use height="13.25" transform="matrix(1.0, 0.0, 0.0, 1.0, -1.25, -0.25)" width="18.1" xlink:href="#shape0"/>
  </g>
  <defs>
    <g id="shape0" transform="matrix(1.0, 0.0, 0.0, 1.0, 1.25, 0.25)">
      <path d="M16.4 2.6 L16.4 4.6 Q15.95 6.65 14.0 7.15 L12.15 7.25 11.5 6.8 10.95 6.4 Q10.7 5.95 10.35 6.05 L9.7 6.1 Q9.1 5.75 8.9 5.1 L8.7 3.85 Q8.3 2.35 9.75 1.35 11.2 0.3 13.35 0.2 14.95 0.1 15.7 1.1 L16.4 2.6" fill="#fcf9e0" fill-rule="evenodd" stroke="none"/>
      <path d="M16.85 2.55 L16.85 2.65 16.85 4.65 16.85 4.75 Q16.35 7.1 14.1 7.7 L12.0 7.8 11.75 7.65 11.2 7.3 11.15 7.25 10.6 6.85 10.5 6.7 10.45 6.6 9.55 6.65 9.4 6.6 9.3 6.55 Q8.55 5.8 8.2 5.05 L-1.25 5.05 -1.25 2.5 8.4 2.5 9.3 1.4 Q10.1 0.6 11.25 0.1 L11.5 0.05 13.3 -0.25 Q15.15 -0.35 16.05 0.85 16.5 1.3 16.85 2.55 M16.4 2.6 L15.7 1.1 Q14.95 0.1 13.35 0.2 11.2 0.3 9.75 1.35 8.3 2.35 8.7 3.85 L8.9 5.1 Q9.1 5.75 9.7 6.1 L10.35 6.05 Q10.7 5.95 10.95 6.4 L11.5 6.8 12.15 7.25 14.0 7.15 Q15.95 6.65 16.4 4.6 L16.4 2.6" fill="#733c2f" fill-rule="evenodd" stroke="none"/>
      <path d="M6.5 5.8 L10.2 5.6 Q11.8 5.95 12.3 7.05 L12.55 8.7 12.0 10.65 Q11.05 12.5 9.05 12.5 7.9 12.5 7.25 12.1 L6.7 11.55 6.3 10.95 Q6.15 10.5 5.8 10.5 L5.2 10.4 Q4.65 9.9 4.65 9.2 L4.75 7.95 Q4.75 6.45 6.5 5.8" fill="#fcf9e0" fill-rule="evenodd" stroke="none"/>
      <path d="M6.5 5.8 Q4.75 6.45 4.75 7.95 L4.65 9.2 Q4.65 9.9 5.2 10.4 L5.8 10.5 Q6.15 10.5 6.3 10.95 L6.7 11.55 7.25 12.1 Q7.9 12.5 9.05 12.5 11.05 12.5 12.0 10.65 L12.55 8.7 12.3 7.05 Q11.8 5.95 10.2 5.6 L6.5 5.8 M12.65 6.85 L12.65 6.9 Q13.0 7.45 13.0 8.7 L12.95 8.6 12.45 10.75 12.45 10.9 Q11.35 13.05 9.0 13.0 L8.5 13.0 7.65 12.8 7.05 12.55 6.95 12.5 6.25 11.85 5.85 11.25 5.8 11.15 5.75 11.1 Q5.0 11.1 4.75 10.75 L4.8 10.75 Q4.1 10.1 4.1 9.25 L4.1 9.1 4.15 8.95 1.0 8.95 1.0 6.4 4.7 6.4 Q5.2 5.75 6.3 5.3 L10.3 5.15 Q12.1 5.5 12.65 6.85" fill="#733c2f" fill-rule="evenodd" stroke="none"/>
    </g>
  </defs>
</svg>
