<?xml version="1.0" encoding="UTF-8" standalone="no"?>
<svg xmlns:xlink="http://www.w3.org/1999/xlink" height="3.65px" width="9.55px" xmlns="http://www.w3.org/2000/svg">
  <g transform="matrix(1.0, 0.0, 0.0, 1.0, 1.9, 2.85)">
    <use height="3.65" transform="matrix(1.0, 0.0, 0.0, 1.0, -1.9, -2.85)" width="9.55" xlink:href="#shape0"/>
  </g>
  <defs>
    <g id="shape0" transform="matrix(1.0, 0.0, 0.0, 1.0, 1.9, 2.85)">
      <path d="M4.35 -2.85 L5.4 -2.75 5.7 -2.65 5.75 -2.65 5.9 -2.4 5.85 -2.2 5.35 -1.65 4.55 -1.25 6.4 -0.8 7.45 -0.3 7.65 -0.1 7.65 0.15 7.4 0.35 6.3 0.65 3.3 0.7 Q1.8 0.45 0.75 -0.15 -0.3 -0.75 -1.05 -0.75 L-1.85 -0.8 -1.85 -0.9 -1.8 -0.95 -1.1 -1.3 -0.9 -1.45 Q-0.1 -2.05 1.45 -2.45 L4.35 -2.85" fill="#b94f4f" fill-rule="evenodd" stroke="none"/>
      <path d="M7.05 -0.1 L6.15 0.15 2.8 0.3 -0.45 -0.35 -1.35 -0.7 -0.45 -0.95 2.9 -1.05 6.2 -0.45 7.05 -0.1" fill="#ffc1c1" fill-rule="evenodd" stroke="none"/>
      <path d="M-0.05 -0.65 L-0.9 -0.7 -0.5 -1.1 Q0.25 -1.65 1.7 -2.0 L4.35 -2.4 5.15 -2.35 4.75 -1.9 2.5 -0.95 -0.05 -0.65" fill="#ffc1c1" fill-rule="evenodd" stroke="none"/>
    </g>
  </defs>
</svg>
