<?xml version="1.0" encoding="UTF-8" standalone="no"?>
<svg xmlns:xlink="http://www.w3.org/1999/xlink" height="65.95px" width="242.0px" xmlns="http://www.w3.org/2000/svg">
  <g transform="matrix(1.0, 0.0, 0.0, 1.0, 121.0, 32.95)">
    <use height="65.95" transform="matrix(1.0, 0.0, 0.0, 1.0, -121.0, -32.95)" width="242.0" xlink:href="#shape0"/>
  </g>
  <defs>
    <g id="shape0" transform="matrix(1.0, 0.0, 0.0, 1.0, 121.0, 32.95)">
      <path d="M121.0 -21.3 L121.0 -13.3 Q121.0 -11.65 119.85 -10.45 118.65 -9.3 117.0 -9.3 L-67.6 -9.3 Q-68.9 -9.1 -69.8 -8.15 -71.0 -7.0 -71.0 -5.4 L-71.0 29.05 Q-71.0 30.65 -72.15 31.85 -73.35 33.0 -75.0 33.0 L-117.0 33.0 Q-118.65 33.0 -119.8 31.85 -121.0 30.65 -121.0 29.0 L-121.0 -13.0 -121.0 -13.15 -121.0 -13.3 -121.0 -21.3 Q-121.0 -22.2 -120.65 -22.9 L-120.65 -32.95 59.65 -32.95 66.5 -25.3 117.0 -25.3 Q118.65 -25.3 119.85 -24.1 121.0 -22.95 121.0 -21.3" fill="#875f38" fill-rule="evenodd" stroke="none"/>
      <path d="M121.0 -21.3 L121.0 -13.3 Q121.0 -11.65 119.85 -10.45 118.65 -9.3 117.0 -9.3 L-67.6 -9.3 Q-68.9 -9.1 -69.8 -8.15 -71.0 -7.0 -71.0 -5.4 L-71.0 29.05 Q-71.0 30.65 -72.15 31.85 -73.35 33.0 -75.0 33.0 L-117.0 33.0 Q-118.65 33.0 -119.8 31.85 -121.0 30.65 -121.0 29.0 L-121.0 -13.0 -121.0 -13.15 -121.0 -13.3 -121.0 -21.3 Q-121.0 -22.2 -120.65 -22.9 L-120.65 -32.95 59.65 -32.95 66.5 -25.3 117.0 -25.3 Q118.65 -25.3 119.85 -24.1 121.0 -22.95 121.0 -21.3 Z" fill="none" stroke="#000000" stroke-linecap="round" stroke-linejoin="round" stroke-opacity="0.5019608" stroke-width="0.05"/>
    </g>
  </defs>
</svg>
