<?xml version="1.0" encoding="UTF-8" standalone="no"?>
<svg xmlns:xlink="http://www.w3.org/1999/xlink" height="47.7px" width="62.75px" xmlns="http://www.w3.org/2000/svg">
  <g transform="matrix(1.0, 0.0, 0.0, 1.0, 8.0, 6.35)">
    <use height="47.7" id="_p5" transform="matrix(1.0, 0.0, 0.0, 1.0, -8.0, -6.35)" width="62.75" xlink:href="#sprite0"/>
  </g>
  <defs>
    <g id="sprite0" transform="matrix(1.0, 0.0, 0.0, 1.0, 8.0, 6.35)">
      <use height="25.5" id="_p7b" transform="matrix(1.0, 0.0, 0.0, 1.0, -8.0, 0.5)" width="17.6" xlink:href="#sprite1"/>
      <use height="35.0" id="_col0" transform="matrix(0.9077, 0.0, 0.0, 0.9077, -2.1503, 0.0158)" width="41.35" xlink:href="#sprite2"/>
      <use height="47.7" id="_p7" transform="matrix(1.0, 0.0, 0.0, 1.0, -4.65, -6.35)" width="59.4" xlink:href="#sprite3"/>
    </g>
    <g id="sprite2" transform="matrix(1.0, 0.0, 0.0, 1.0, 22.2, 17.5)">
      <use height="35.0" transform="matrix(1.0, 0.0, 0.0, 1.0, -22.2, -17.5)" width="41.35" xlink:href="#shape0"/>
    </g>
    <g id="shape0" transform="matrix(1.0, 0.0, 0.0, 1.0, 22.2, 17.5)">
      <path d="M11.7 -16.6 L13.8 -16.15 14.7 -15.8 15.95 -15.1 17.45 -14.15 Q18.35 -13.35 18.7 -12.3 19.2 -10.95 19.15 -9.5 19.05 -7.7 18.55 -6.0 17.75 -3.2 16.25 -0.95 L14.1 2.45 Q12.7 4.5 10.9 6.2 L4.7 14.1 Q2.65 15.75 0.15 16.4 L-1.0 16.7 -2.3 17.0 -4.55 17.3 -6.75 17.5 -6.75 17.45 Q-5.75 14.95 -5.4 12.35 L-4.9 10.55 -4.45 9.4 Q-3.6 7.5 -5.3 6.3 L-5.45 5.95 -5.1 5.75 -4.2 5.55 -1.7 4.65 Q0.75 3.65 2.75 2.0 L4.85 0.35 7.4 -1.6 Q9.35 -3.15 11.15 -4.85 L12.65 -6.55 13.4 -8.0 Q13.6 -8.6 13.4 -9.15 12.4 -12.05 9.4 -12.4 L7.7 -12.15 5.65 -11.3 1.25 -9.2 Q-1.15 -8.1 -3.7 -7.55 L-5.95 -7.5 Q-7.45 -7.85 -8.5 -9.0 L-9.0 -9.95 Q-9.35 -11.15 -8.75 -12.35 L-7.15 -15.5 Q-5.7 -16.35 -3.45 -16.8 L-3.2 -16.85 1.5 -17.5 1.65 -17.5 10.9 -16.7 11.55 -16.6 11.7 -16.6" fill="#c6886a" fill-rule="evenodd" stroke="none"/>
      <path d="M-3.2 -16.85 L-3.45 -16.8 -3.5 -16.8 -3.2 -16.85 M-7.15 -15.5 L-8.75 -12.35 Q-9.35 -11.15 -9.0 -9.95 L-8.5 -9.0 Q-7.45 -7.85 -5.95 -7.5 L-3.7 -7.55 Q-1.15 -8.1 1.25 -9.2 L5.65 -11.3 7.7 -12.15 9.4 -12.4 Q12.4 -12.05 13.4 -9.15 13.6 -8.6 13.4 -8.0 L12.65 -6.55 11.15 -4.85 Q9.35 -3.15 7.4 -1.6 L4.85 0.35 2.75 2.0 Q0.75 3.65 -1.7 4.65 L-4.2 5.55 -5.1 5.75 -5.45 5.95 -5.3 6.3 Q-3.6 7.5 -4.45 9.4 L-4.9 10.55 -5.4 12.35 Q-5.75 14.95 -6.75 17.45 L-9.5 17.3 Q-12.35 17.0 -14.95 15.85 -18.15 14.45 -19.85 11.4 L-19.65 6.85 -18.4 0.1 -18.3 -0.25 -18.3 -0.3 -18.75 -1.7 -18.7 -2.95 -18.75 -1.7 -18.9 -2.15 -18.7 -2.95 -18.65 -3.2 -18.6 -3.4 -17.9 -5.55 -16.9 -7.45 Q-16.15 -8.7 -14.9 -9.55 L-14.1 -10.1 -14.85 -9.55 Q-16.75 -8.2 -17.55 -6.15 L-18.6 -3.4 -17.55 -6.15 Q-16.75 -8.2 -14.85 -9.55 L-14.1 -10.1 -13.65 -10.5 -12.0 -11.9 -10.95 -12.85 -8.25 -14.8 -8.0 -14.95 -7.15 -15.5 -7.75 -15.05 -8.25 -14.8 -7.75 -15.05 -7.15 -15.5 M-12.45 1.15 L-15.95 0.65 -18.3 -0.25 -15.95 0.65 -12.45 1.15 M-11.0 0.05 L-9.7 2.8 Q-9.0 4.4 -7.3 5.0 L-5.1 5.75 -7.3 5.0 Q-9.0 4.4 -9.7 2.8 L-11.0 0.05" fill="#efcdaf" fill-rule="evenodd" stroke="none"/>
      <path d="M4.7 14.1 L10.9 6.2 Q12.7 4.5 14.1 2.45 L16.25 -0.95 Q17.75 -3.2 18.55 -6.0 19.05 -7.7 19.15 -9.5 19.2 -10.95 18.7 -12.3 18.35 -13.35 17.45 -14.15 L15.95 -15.1 14.7 -15.8 13.8 -16.15 11.7 -16.6 M11.55 -16.6 L10.9 -16.7 1.65 -17.5 1.5 -17.5 -3.2 -16.85 -3.45 -16.8 Q-5.7 -16.35 -7.15 -15.5 M-4.2 5.55 L-5.1 5.75 -7.3 5.0 Q-9.0 4.4 -9.7 2.8 L-11.0 0.05 M-6.75 17.45 L-6.75 17.5 M-8.25 -14.8 L-7.75 -15.05 -7.15 -15.5 M-18.6 -3.4 L-17.55 -6.15 Q-16.75 -8.2 -14.85 -9.55 L-14.1 -10.1 -13.65 -10.5 -12.0 -11.9 -10.95 -12.85 -8.25 -14.8 M-18.6 -3.4 L-18.65 -3.2 -18.7 -2.95 -18.75 -1.7 -18.3 -0.3 -18.3 -0.25 -15.95 0.65 -12.45 1.15 M-19.85 11.4 L-19.65 6.85 -18.4 0.1 -18.3 -0.25" fill="none" stroke="#000000" stroke-linecap="round" stroke-linejoin="round" stroke-opacity="0.3019608" stroke-width="0.05"/>
      <path d="M4.65 -3.45 Q2.1 -2.25 -0.9 -1.0 -3.95 0.25 -5.2 0.45 L-10.25 0.65 -11.1 0.7 -11.95 0.25 -14.7 -0.95 -15.1 -1.1 -16.35 -1.5 -19.35 -2.4 Q-20.0 -2.65 -22.1 -4.4 -21.8 -6.35 -19.9 -7.85 -16.35 -10.65 -12.0 -11.8 L-11.45 -10.5 Q-11.0 -9.35 -9.95 -8.6 -6.85 -6.1 -3.45 -5.1 L0.25 -3.9 Q1.8 -3.5 5.2 -3.9 L4.05 -3.4 4.55 -3.45 4.65 -3.45 M-12.65 -0.1 L-12.2 0.1 -12.45 0.0 -12.65 -0.1" fill="#efcdaf" fill-rule="evenodd" stroke="none"/>
      <path d="M4.65 -3.45 L5.05 -3.45 5.2 -3.55 5.3 -3.5 5.1 -0.9 4.35 2.4 Q3.8 4.1 2.5 5.4 -2.2 9.95 -7.85 8.0 -12.2 6.55 -16.0 3.95 L-17.7 3.65 Q-21.95 1.75 -22.2 -2.95 L-22.2 -3.0 -22.2 -3.5 -22.1 -4.4 Q-20.0 -2.65 -19.35 -2.4 L-16.35 -1.5 -15.1 -1.1 -14.7 -0.95 -11.95 0.25 -11.1 0.7 -10.25 0.65 -5.2 0.45 Q-3.95 0.25 -0.9 -1.0 2.1 -2.25 4.65 -3.45 M-12.65 -0.1 L-12.45 0.0 -12.2 0.1 -12.65 -0.1" fill="#c6886a" fill-rule="evenodd" stroke="none"/>
      <path d="M-22.1 -4.4 L-22.2 -3.5 -22.2 -3.0 -22.2 -2.95 Q-21.95 1.75 -17.7 3.65 L-16.0 3.95 Q-12.2 6.55 -7.85 8.0 -2.2 9.95 2.5 5.4 3.8 4.1 4.35 2.4 L5.1 -0.9 5.3 -3.5 M-12.0 -11.8 Q-16.35 -10.65 -19.9 -7.85 -21.8 -6.35 -22.1 -4.4 M5.2 -3.9 L5.2 -3.55" fill="none" stroke="#000000" stroke-linecap="round" stroke-linejoin="round" stroke-opacity="0.3019608" stroke-width="0.05"/>
    </g>
    <g id="sprite3" transform="matrix(1.0, 0.0, 0.0, 1.0, 21.25, 21.5)">
      <use height="32.9" id="_p1" transform="matrix(1.0, 0.0, 0.0, 1.0, -21.25, -15.9)" width="35.4" xlink:href="#sprite4"/>
    </g>
    <g id="sprite4" transform="matrix(1.0, 0.0, 0.0, 1.0, 21.25, 15.9)">
      <use height="26.0" transform="matrix(1.0, 0.0, 0.0, 1.0, -21.25, -15.9)" width="24.3" xlink:href="#shape1"/>
      <use height="18.6" id="_col2" transform="matrix(1.0, 0.0, 0.0, 1.0, -18.45, -8.95)" width="18.1" xlink:href="#sprite5"/>
      <use height="32.35" transform="matrix(1.0, 0.0, 0.0, 1.0, -7.6, -15.35)" width="21.75" xlink:href="#shape3"/>
    </g>
    <g id="shape1" transform="matrix(1.0, 0.0, 0.0, 1.0, 21.25, 15.9)">
      <path d="M-8.25 -9.4 L-11.45 -10.3 -10.65 -10.8 -9.8 -11.25 -9.7 -11.3 -9.55 -11.4 Q-2.7 -15.3 3.05 -15.9 1.35 -14.5 -1.05 -13.55 -3.45 -12.6 -5.55 -11.15 L-6.8 -10.35 -8.25 -9.4 M-19.5 -1.2 L-17.7 -0.9 -16.95 -0.65 -17.05 -0.2 -17.1 2.9 -16.85 6.25 -16.45 10.1 Q-18.3 7.65 -18.85 4.55 L-19.45 0.3 -19.5 -0.3 -19.5 -1.2 M-7.95 -10.5 L-7.95 -10.65 -8.25 -10.55 -7.95 -10.5" fill="#764701" fill-rule="evenodd" stroke="none"/>
      <path d="M-10.65 -10.8 L-11.45 -10.3 -8.25 -9.4 -9.85 -8.35 -14.25 -5.25 Q-16.35 -3.6 -16.95 -0.75 L-17.05 -0.2 -16.95 -0.65 -17.7 -0.9 -19.5 -1.2 -19.15 -3.65 Q-18.8 -5.3 -17.25 -6.8 -16.75 -7.3 -10.65 -10.8 M-7.95 -10.5 L-8.25 -10.55 -7.95 -10.65 -7.95 -10.5" fill="#996600" fill-rule="evenodd" stroke="none"/>
      <path d="M-8.25 -9.4 L-6.8 -10.35 -5.55 -11.15 Q-3.45 -12.6 -1.05 -13.55 1.35 -14.5 3.05 -15.9 -2.7 -15.3 -9.55 -11.4 M-9.7 -11.3 L-9.8 -11.25 -10.65 -10.8 Q-16.75 -7.3 -17.25 -6.8 -18.8 -5.3 -19.15 -3.65 L-19.5 -1.2 -19.5 -0.3 -19.45 0.3 -18.85 4.55 Q-18.3 7.65 -16.45 10.1 L-16.85 6.25 -17.1 2.9 -17.05 -0.2 -16.95 -0.75 Q-16.35 -3.6 -14.25 -5.25 L-9.85 -8.35 -8.25 -9.4 Z" fill="none" stroke="#000000" stroke-linecap="round" stroke-linejoin="round" stroke-opacity="0.4" stroke-width="0.05"/>
      <path d="M-17.1 -8.7 L-16.75 -9.2 Q-15.95 -10.15 -15.1 -10.15 L-14.45 -9.95 -13.55 -9.45 Q-13.6 -9.05 -15.1 -8.15 L-15.45 -7.9 Q-16.55 -8.6 -17.1 -8.7 M-9.75 -13.95 Q-9.05 -14.75 -7.95 -14.75 L-6.95 -14.65 Q-6.6 -14.45 -6.25 -13.45 -7.1 -12.35 -9.65 -11.45 L-10.0 -11.7 -10.35 -12.3 Q-10.35 -13.2 -9.75 -13.95 M-21.15 2.05 L-21.25 0.8 Q-21.25 0.05 -20.6 -0.35 -20.15 -0.6 -19.4 -0.15 L-19.45 0.15 -19.15 2.65 -19.3 1.75 -19.7 1.75 -21.15 2.05" fill="#ffffcc" fill-rule="evenodd" stroke="none"/>
      <path d="M-17.1 -8.7 Q-16.55 -8.6 -15.45 -7.9 L-16.8 -7.1 -17.2 -7.2 -17.4 -7.9 -17.1 -8.7 M-21.15 2.05 L-19.7 1.75 -19.3 1.75 -19.15 2.65 -19.05 3.75 -19.1 4.25 -19.6 4.35 Q-20.1 4.35 -20.6 3.55 L-21.15 2.05" fill="#bfb695" fill-rule="evenodd" stroke="none"/>
      <path d="M-9.75 -13.95 Q-10.35 -13.2 -10.35 -12.3 L-10.0 -11.7 -9.65 -11.45 Q-7.1 -12.35 -6.25 -13.45 -6.6 -14.45 -6.95 -14.65 L-7.95 -14.75 Q-9.05 -14.75 -9.75 -13.95 M-15.45 -7.9 L-15.1 -8.15 Q-13.6 -9.05 -13.55 -9.45 L-14.45 -9.95 -15.1 -10.15 Q-15.95 -10.15 -16.75 -9.2 L-17.1 -8.7 M-15.45 -7.9 L-16.8 -7.1 -17.2 -7.2 -17.4 -7.9 -17.1 -8.7 M-19.15 2.65 L-19.45 0.15 -19.4 -0.15 Q-20.15 -0.6 -20.6 -0.35 -21.25 0.05 -21.25 0.8 L-21.15 2.05 M-19.15 2.65 L-19.05 3.75 -19.1 4.25 -19.6 4.35 Q-20.1 4.35 -20.6 3.55 L-21.15 2.05" fill="none" stroke="#000000" stroke-linecap="round" stroke-linejoin="round" stroke-opacity="0.4" stroke-width="0.05"/>
    </g>
    <g id="sprite5" transform="matrix(1.0, 0.0, 0.0, 1.0, 9.05, 9.25)">
      <use height="18.6" transform="matrix(1.0, 0.0, 0.0, 1.0, -9.05, -9.25)" width="18.1" xlink:href="#shape2"/>
    </g>
    <g id="shape2" transform="matrix(1.0, 0.0, 0.0, 1.0, 9.05, 9.25)">
      <path d="M-8.85 -3.05 Q-8.35 -5.6 -6.45 -6.95 L-3.4 -8.95 -2.25 -9.25 0.35 -8.95 3.7 -8.3 9.05 -7.5 Q6.0 -4.85 4.75 -3.0 3.5 -1.15 2.95 1.05 L0.95 -0.25 -2.8 -2.55 -3.8 -3.0 -7.5 -3.2 -8.85 -3.05" fill="#ffffff" fill-rule="evenodd" stroke="none"/>
      <path d="M2.95 1.05 L2.9 1.35 2.8 1.8 Q2.55 3.1 2.55 4.5 2.55 6.55 2.95 9.25 L2.9 9.3 -3.65 4.8 Q-5.25 3.7 -7.65 3.6 -9.05 2.15 -9.05 0.6 L-9.05 -1.4 -9.0 -2.05 -8.85 -3.05 -7.5 -3.2 -3.8 -3.0 -2.8 -2.55 0.95 -0.25 2.95 1.05" fill="#d6baba" fill-rule="evenodd" stroke="none"/>
      <path d="M-8.85 -3.05 Q-8.35 -5.6 -6.45 -6.95 L-3.4 -8.95 -2.25 -9.25 0.35 -8.95 3.7 -8.3 9.05 -7.5 Q6.0 -4.85 4.75 -3.0 3.5 -1.15 2.95 1.05 L2.9 1.35 2.8 1.8 Q2.55 3.1 2.55 4.5 2.55 6.55 2.95 9.25 L3.0 9.35 2.9 9.3 -3.65 4.8 Q-5.25 3.7 -7.65 3.6 -9.05 2.15 -9.05 0.6 L-9.05 -1.4 -9.0 -2.05 -8.85 -3.05 Z" fill="none" stroke="#000000" stroke-linecap="round" stroke-linejoin="round" stroke-opacity="0.4" stroke-width="0.05"/>
    </g>
    <g id="shape3" transform="matrix(1.0, 0.0, 0.0, 1.0, 7.6, 15.35)">
      <path d="M-0.55 -9.75 L0.95 -10.95 2.1 -11.85 Q3.9 -13.2 6.2 -14.15 8.85 -15.4 11.7 -15.35 L13.4 -14.65 14.15 -14.25 5.6 -6.65 4.55 -5.6 2.7 -7.3 -0.55 -9.75 M-6.8 2.05 Q-5.05 2.85 -3.25 4.7 L-2.35 5.7 -2.55 7.1 Q-2.7 8.85 -1.9 10.45 -0.3 13.55 1.6 16.2 0.0 17.1 -1.95 17.0 -3.55 15.05 -4.95 12.6 L-6.25 10.0 -6.9 7.65 -6.95 7.1 -6.8 2.05" fill="#764701" fill-rule="evenodd" stroke="none"/>
      <path d="M-0.55 -9.75 L2.7 -7.3 4.55 -5.6 2.9 -3.55 Q-0.5 0.5 -2.35 5.7 L-3.25 4.7 Q-5.05 2.85 -6.8 2.05 L-5.85 -0.1 Q-4.05 -5.45 -0.55 -9.75" fill="#996600" fill-rule="evenodd" stroke="none"/>
      <path d="M5.6 -6.65 L14.15 -14.25 13.4 -14.65 11.7 -15.35 Q8.85 -15.4 6.2 -14.15 3.9 -13.2 2.1 -11.85 L0.95 -10.95 -0.55 -9.75 Q-4.05 -5.45 -5.85 -0.1 L-6.8 2.05 M-2.35 5.7 Q-0.5 0.5 2.9 -3.55 L4.55 -5.6 M-2.35 5.7 L-2.55 7.1 Q-2.7 8.85 -1.9 10.45 -0.3 13.55 1.6 16.2 0.0 17.1 -1.95 17.0 -3.55 15.05 -4.95 12.6 L-6.25 10.0 -6.9 7.65 -6.95 7.1 -6.8 2.05" fill="none" stroke="#000000" stroke-linecap="round" stroke-linejoin="round" stroke-opacity="0.4" stroke-width="0.05"/>
      <path d="M3.1 -9.65 Q2.55 -10.4 2.55 -11.3 L2.8 -12.25 Q3.05 -13.0 3.3 -13.0 L3.75 -13.1 4.75 -13.35 4.8 -13.35 5.45 -11.7 Q5.45 -10.75 3.85 -10.0 L3.1 -9.65 M-2.4 -2.2 Q-3.1 -2.95 -3.1 -4.6 L-2.8 -5.3 -1.45 -6.0 Q-0.45 -6.35 0.7 -5.5 1.85 -4.7 1.7 -3.65 1.45 -5.1 -0.45 -3.3 L-2.4 -2.2 M-7.1 8.6 L-7.4 8.1 Q-8.0 6.45 -6.9 5.45 L-5.4 5.25 Q-3.6 4.8 -3.1 6.7 L-3.05 6.8 -4.75 6.65 Q-6.9 6.85 -7.1 8.6" fill="#ffffcc" fill-rule="evenodd" stroke="none"/>
      <path d="M4.8 -13.35 L5.25 -13.3 Q5.75 -13.05 6.2 -12.85 L6.35 -12.75 6.6 -12.6 Q7.55 -11.8 7.55 -10.95 7.55 -10.0 6.95 -9.3 6.25 -8.45 5.0 -8.45 4.55 -8.45 4.0 -8.85 L3.55 -9.2 3.1 -9.65 3.85 -10.0 Q5.45 -10.75 5.45 -11.7 L4.8 -13.35 M1.7 -3.65 L1.7 -3.45 Q1.5 -2.55 0.85 -2.1 0.2 -1.6 -0.8 -1.6 -1.85 -1.6 -2.4 -2.2 L-0.45 -3.3 Q1.45 -5.1 1.7 -3.65 M-3.05 6.8 Q-2.8 7.95 -3.25 9.15 L-3.7 9.65 Q-5.5 10.2 -6.8 8.95 L-7.1 8.6 Q-6.9 6.85 -4.75 6.65 L-3.05 6.8" fill="#bfb695" fill-rule="evenodd" stroke="none"/>
      <path d="M4.8 -13.35 L5.25 -13.3 Q5.75 -13.05 6.2 -12.85 M6.35 -12.75 L6.6 -12.6 Q7.55 -11.8 7.55 -10.95 7.55 -10.0 6.95 -9.3 6.25 -8.45 5.0 -8.45 4.55 -8.45 4.0 -8.85 L3.55 -9.2 3.1 -9.65 Q2.55 -10.4 2.55 -11.3 L2.8 -12.25 Q3.05 -13.0 3.3 -13.0 L3.75 -13.1 4.75 -13.35 4.8 -13.35 M-2.4 -2.2 Q-3.1 -2.95 -3.1 -4.6 L-2.8 -5.3 -1.45 -6.0 Q-0.45 -6.35 0.7 -5.5 1.85 -4.7 1.7 -3.65 L1.7 -3.45 Q1.5 -2.55 0.85 -2.1 0.2 -1.6 -0.8 -1.6 -1.85 -1.6 -2.4 -2.2 M-7.1 8.6 L-7.4 8.1 Q-8.0 6.45 -6.9 5.45 L-5.4 5.25 Q-3.6 4.8 -3.1 6.7 L-3.05 6.8 Q-2.8 7.95 -3.25 9.15 L-3.7 9.65 Q-5.5 10.2 -6.8 8.95 L-7.1 8.6" fill="none" stroke="#000000" stroke-linecap="round" stroke-linejoin="round" stroke-opacity="0.4" stroke-width="0.05"/>
    </g>
  </defs>
</svg>
