<?xml version="1.0" encoding="UTF-8" standalone="no"?>
<svg xmlns:xlink="http://www.w3.org/1999/xlink" height="42.75px" width="46.6px" xmlns="http://www.w3.org/2000/svg">
  <g transform="matrix(1.0, 0.0, 0.0, 1.0, 22.25, 11.8)">
    <use height="29.75" id="_col1" transform="matrix(1.0, 0.0, 0.0, 1.0, -22.25, 1.2)" width="21.0" xlink:href="#sprite0"/>
  </g>
  <defs>
    <g id="sprite0" transform="matrix(1.0, 0.0, 0.0, 1.0, 10.25, 11.15)">
      <use height="29.75" transform="matrix(1.0, 0.0, 0.0, 1.0, -10.25, -11.15)" width="21.0" xlink:href="#shape0"/>
    </g>
    <g id="shape0" transform="matrix(1.0, 0.0, 0.0, 1.0, 10.25, 11.15)">
      <path d="M9.2 -4.55 L9.15 -4.5 Q8.5 -3.95 7.75 -3.95 7.35 -3.95 3.8 -6.0 L-0.2 -8.45 1.7 -8.85 3.35 -8.45 Q7.55 -7.25 9.0 -4.9 L9.2 -4.55 M-10.1 9.6 L-10.2 8.8 Q-10.35 4.55 -10.0 0.1 -9.35 -8.65 -7.15 -10.85 L-5.65 -11.15 Q-4.95 -10.55 -4.95 -9.25 -4.95 -7.3 -5.9 -6.2 -7.3 -4.65 -7.85 -2.8 -8.75 0.3 -10.0 9.6 L-10.1 9.6" fill="#fefefe" fill-rule="evenodd" stroke="none"/>
      <path d="M-0.2 -8.45 L3.8 -6.0 Q7.35 -3.95 7.75 -3.95 8.5 -3.95 9.15 -4.5 L9.2 -4.55 Q10.9 -1.35 10.75 5.2 L10.45 13.5 9.9 18.6 9.8 18.6 Q7.5 1.4 6.35 -0.8 5.3 -2.75 3.35 -4.25 L1.6 -5.45 Q-1.2 -7.05 -1.2 -7.8 L-0.2 -8.45" fill="#d6baba" fill-rule="evenodd" stroke="none"/>
      <path d="M9.2 -4.55 L9.0 -4.9 Q7.55 -7.25 3.35 -8.45 L1.7 -8.85 -0.2 -8.45 -1.2 -7.8 Q-1.2 -7.05 1.6 -5.45 L3.35 -4.25 Q5.3 -2.75 6.35 -0.8 7.5 1.4 9.8 18.6 L9.9 18.6 10.45 13.5 10.75 5.2 Q10.9 -1.35 9.2 -4.55 M-10.0 9.6 Q-8.75 0.3 -7.85 -2.8 -7.3 -4.65 -5.9 -6.2 -4.95 -7.3 -4.95 -9.25 -4.95 -10.55 -5.65 -11.15 L-7.15 -10.85 Q-9.35 -8.65 -10.0 0.1 -10.35 4.55 -10.2 8.8 L-10.1 9.6 M-10.0 9.6 L-10.1 9.75 -10.1 9.6" fill="none" stroke="#000000" stroke-linecap="round" stroke-linejoin="round" stroke-opacity="0.3019608" stroke-width="0.05"/>
    </g>
  </defs>
</svg>
