<?xml version="1.0" encoding="UTF-8" standalone="no"?>
<svg xmlns:xlink="http://www.w3.org/1999/xlink" height="42.75px" width="46.6px" xmlns="http://www.w3.org/2000/svg">
  <g transform="matrix(1.0, 0.0, 0.0, 1.0, 22.25, 11.8)">
    <use height="27.1" id="_col1" transform="matrix(1.0, 0.0, 0.0, 1.0, -21.3, -11.8)" width="45.65" xlink:href="#sprite0"/>
  </g>
  <defs>
    <g id="sprite0" transform="matrix(1.0, 0.0, 0.0, 1.0, 9.3, 24.15)">
      <use height="27.1" transform="matrix(1.0, 0.0, 0.0, 1.0, -9.3, -24.15)" width="45.65" xlink:href="#shape0"/>
    </g>
    <g id="shape0" transform="matrix(1.0, 0.0, 0.0, 1.0, 9.3, 24.15)">
      <path d="M31.75 -3.95 L31.75 -3.85 31.75 -3.9 31.75 -3.95" fill="#fefefe" fill-rule="evenodd" stroke="none"/>
      <path d="M14.95 -2.95 Q17.65 -4.0 19.7 -5.15 22.6 -6.75 26.0 -9.75 L25.65 -9.75 Q25.35 -9.45 23.3 -9.0 L22.2 -9.0 22.2 -9.1 25.4 -12.3 29.05 -16.4 25.5 -14.15 26.1 -15.3 25.9 -15.3 23.8 -15.2 Q27.4 -16.4 29.2 -18.75 L31.55 -22.0 30.6 -20.6 30.55 -20.5 31.5 -20.45 31.45 -19.55 Q31.45 -19.05 32.35 -18.9 32.7 -18.85 33.85 -18.25 L34.35 -18.05 34.6 -18.5 34.35 -18.05 Q32.4 -14.2 31.8 -9.85 31.3 -6.25 31.75 -3.95 L31.75 -3.9 30.45 -6.3 Q31.0 -4.65 29.5 -1.95 L27.2 1.35 27.7 -3.35 Q27.4 -1.4 22.75 0.2 21.55 0.6 20.0 1.65 L18.2 2.95 18.1 2.9 19.7 -0.45 19.65 -0.6 12.75 1.45 12.7 1.4 Q13.75 1.0 15.8 -1.05 17.75 -3.2 17.55 -3.7 L14.95 -2.95 M30.35 -6.5 L30.45 -6.3 30.35 -6.6 30.35 -6.5 M-8.45 -10.65 L-8.35 -10.35 -7.9 -8.85 -9.15 -8.85 -9.3 -9.15 Q-9.05 -9.35 -8.75 -9.9 L-8.45 -10.65 M-7.55 -8.05 L-6.9 -7.05 -6.3 -6.2 -5.3 -5.3 -3.65 -4.0 -6.45 -3.4 -6.55 -3.4 -6.15 -5.1 Q-6.3 -5.0 -7.55 -4.65 L-9.15 -4.25 Q-8.45 -4.65 -7.9 -6.1 L-7.55 -7.1 -7.55 -8.05" fill="#d6baba" fill-rule="evenodd" stroke="none"/>
      <path d="M18.45 -7.7 L18.4 -7.75 Q20.25 -8.95 22.95 -11.55 L25.0 -13.6 25.5 -14.15 29.05 -16.4 25.4 -12.3 22.2 -9.1 22.2 -9.0 23.3 -9.0 Q25.35 -9.45 25.65 -9.75 L26.0 -9.75 Q22.6 -6.75 19.7 -5.15 17.65 -4.0 14.95 -2.95 L14.65 -2.9 Q13.1 -2.55 12.15 -1.75 L12.1 -1.8 Q13.15 -2.65 16.45 -4.75 19.35 -6.75 19.8 -8.1 L19.9 -8.15 19.75 -8.15 19.8 -8.1 18.45 -7.7" fill="#ffffff" fill-rule="evenodd" stroke="none"/>
      <path d="M32.75 -24.15 Q33.7 -24.1 34.8 -23.15 L36.35 -22.05 36.25 -21.15 36.2 -21.15 34.6 -18.5 34.35 -18.05 33.85 -18.25 Q32.7 -18.85 32.35 -18.9 31.45 -19.05 31.45 -19.55 L31.5 -20.45 30.55 -20.5 30.6 -20.6 31.55 -22.0 32.75 -24.15" fill="#d6baba" fill-opacity="0.5019608" fill-rule="evenodd" stroke="none"/>
      <path d="M18.4 -7.75 L18.3 -7.65 18.45 -7.7 19.8 -8.1 19.75 -8.15 19.9 -8.15 19.8 -8.1 Q19.35 -6.75 16.45 -4.75 13.15 -2.65 12.1 -1.8 M12.15 -1.75 Q13.1 -2.55 14.65 -2.9 L14.95 -2.95 M25.5 -14.15 L25.0 -13.6 22.95 -11.55 Q20.25 -8.95 18.4 -7.75 M12.15 -1.75 L12.05 -1.7 12.1 -1.8 M12.7 1.4 Q13.75 1.0 15.8 -1.05 17.75 -3.2 17.55 -3.7 L14.95 -2.95 M18.1 2.9 L19.7 -0.45 19.65 -0.6 12.75 1.45 12.6 1.45 12.7 1.4 M34.6 -18.5 L34.35 -18.05 Q32.4 -14.2 31.8 -9.85 31.3 -6.25 31.75 -3.95 L31.75 -3.85 31.75 -3.9 30.45 -6.3 Q31.0 -4.65 29.5 -1.95 L27.2 1.35 27.15 1.55 27.15 1.4 27.2 1.35 27.7 -3.35 Q27.4 -1.4 22.75 0.2 21.55 0.6 20.0 1.65 L18.2 2.95 18.05 2.95 18.1 2.9 M31.55 -22.0 L29.2 -18.75 Q27.4 -16.4 23.8 -15.2 L25.9 -15.3 26.1 -15.3 25.5 -14.15 M30.35 -6.5 L30.45 -6.3 30.35 -6.6 30.35 -6.5 M-8.45 -10.65 L-8.75 -9.9 Q-9.05 -9.35 -9.3 -9.15 L-9.15 -8.85 -7.9 -8.85 M-3.65 -4.0 L-6.45 -3.4 -6.55 -3.4 -6.15 -5.1 Q-6.3 -5.0 -7.55 -4.65 L-9.15 -4.25 Q-8.45 -4.65 -7.9 -6.1 L-7.55 -7.1 -7.55 -8.05" fill="none" stroke="#000000" stroke-linecap="round" stroke-linejoin="round" stroke-opacity="0.3019608" stroke-width="0.05"/>
      <path d="M36.2 -21.15 L34.6 -18.5 M31.55 -22.0 L32.75 -24.15" fill="none" stroke="#000000" stroke-linecap="round" stroke-linejoin="round" stroke-opacity="0.15294118" stroke-width="0.05"/>
    </g>
  </defs>
</svg>
