<?xml version="1.0" encoding="UTF-8" standalone="no"?>
<svg xmlns:xlink="http://www.w3.org/1999/xlink" height="67.6px" width="37.7px" xmlns="http://www.w3.org/2000/svg">
  <g transform="matrix(1.0, 0.0, 0.0, 1.0, -41.35, 35.25)">
    <use height="67.6" transform="matrix(1.0, 0.0, 0.0, 1.0, 41.35, -35.25)" width="37.7" xlink:href="#shape0"/>
  </g>
  <defs>
    <g id="shape0" transform="matrix(1.0, 0.0, 0.0, 1.0, -41.35, 35.25)">
      <path d="M77.35 -9.8 L77.6 -10.95 Q77.6 -14.6 77.1 -18.4 L76.55 -22.1 76.9 -25.85 77.25 -29.9 Q77.25 -31.75 77.95 -32.25 78.3 -31.8 78.7 -29.85 L78.7 -29.45 Q78.25 -28.65 78.5 -27.0 78.15 -25.15 78.15 -22.25 78.15 -20.3 78.6 -18.2 L79.05 -15.4 78.5 -10.4 78.4 -8.8 77.3 -8.55 77.25 -8.7 77.2 -8.8 77.35 -9.8 M60.65 -2.65 L60.35 1.25 59.85 1.5 59.4 0.35 59.25 -0.9 59.1 -3.35 Q59.2 -5.55 60.15 -5.95 L60.65 -2.65 M61.05 8.15 L60.4 8.05 60.3 7.6 Q60.3 7.2 60.75 6.95 L62.3 6.75 62.4 7.35 Q62.4 8.15 61.05 8.15 M62.6 10.3 L62.1 11.2 61.35 11.55 Q60.7 11.55 60.55 11.2 L60.5 10.85 Q60.5 9.65 61.55 9.5 62.6 9.35 62.6 10.3 M60.9 12.5 Q60.95 12.45 61.25 12.35 L61.65 12.75 61.85 13.2 61.55 13.65 Q60.8 13.15 60.8 12.9 L60.9 12.5 M61.8 16.15 L60.75 16.4 59.65 16.3 58.8 16.05 58.75 15.75 Q58.75 15.3 59.8 15.15 61.05 14.95 62.3 15.6 L61.8 16.15 M61.05 22.2 L60.45 22.6 60.0 22.5 Q59.85 22.7 59.85 22.2 59.85 21.65 60.9 21.9 L61.05 22.2 M61.6 18.65 L61.65 19.0 Q61.65 19.45 60.65 19.85 L60.15 19.6 60.1 19.35 60.65 18.9 61.5 18.6 61.6 18.65 M62.05 23.8 Q62.05 24.35 61.5 24.75 60.95 25.15 60.15 25.15 L59.45 25.05 Q59.35 25.1 59.35 24.6 59.35 24.4 60.35 23.85 61.35 23.25 61.9 23.3 L62.0 23.4 62.05 23.8 M60.3 2.95 L60.65 3.75 60.45 4.6 60.1 4.65 59.85 3.75 Q59.85 3.1 60.3 2.95 M59.9 29.85 L59.9 28.5 Q60.0 27.35 60.65 27.05 61.0 28.0 61.15 29.4 L61.4 32.1 Q61.55 32.35 61.05 32.35 60.4 32.35 60.1 31.15 L59.9 29.85" fill="#ffd633" fill-rule="evenodd" stroke="none"/>
      <path d="M77.35 -9.8 L77.2 -8.8 77.25 -8.7 77.0 -8.7 73.85 -8.6 72.25 -8.75 70.9 -8.85 62.95 -8.7 62.35 -8.85 61.2 -8.6 53.25 -8.4 49.45 -8.65 48.3 -8.95 47.8 -8.85 46.1 -8.75 42.2 -9.05 41.35 -9.0 41.35 -9.1 Q49.1 -11.2 49.85 -10.6 51.6 -9.15 58.0 -9.15 L60.2 -9.5 61.95 -9.9 63.5 -9.55 Q64.2 -9.2 64.9 -9.2 L67.6 -9.65 75.45 -10.1 77.35 -9.8 M59.95 -33.15 L59.65 -33.05 Q59.2 -33.05 59.1 -33.6 L59.1 -34.2 Q59.1 -35.15 59.75 -35.25 60.4 -35.3 60.4 -34.65 L59.95 -33.15" fill="#ffd633" fill-opacity="0.4" fill-rule="evenodd" stroke="none"/>
    </g>
  </defs>
</svg>
