<?xml version="1.0" encoding="UTF-8" standalone="no"?>
<svg xmlns:xlink="http://www.w3.org/1999/xlink" height="16.35px" width="13.6px" xmlns="http://www.w3.org/2000/svg">
  <g transform="matrix(1.0, 0.0, 0.0, 1.0, 8.25, 7.5)">
    <use height="16.35" transform="matrix(1.0, 0.0, 0.0, 1.0, -8.25, -7.5)" width="13.6" xlink:href="#shape0"/>
  </g>
  <defs>
    <g id="shape0" transform="matrix(1.0, 0.0, 0.0, 1.0, 8.25, 7.5)">
      <path d="M1.45 -4.8 L1.65 -4.75 1.95 -4.65 2.15 -4.6 5.35 -4.35 5.35 -4.25 4.25 -1.3 1.85 -1.75 1.2 -1.85 0.75 -1.9 0.45 -2.0 0.65 -2.7 1.1 -4.05 1.45 -4.8 M-7.0 8.75 L-7.4 8.5 -7.5 8.0 -7.2 7.15 Q-6.7 6.45 -5.8 6.45 -5.3 6.45 -5.05 6.8 L-5.05 6.85 -5.05 7.1 Q-5.05 7.55 -5.35 8.1 -5.75 8.85 -6.5 8.85 L-6.9 8.8 -7.0 8.75" fill="#d6baba" fill-rule="evenodd" stroke="none"/>
      <path d="M1.45 -4.8 L1.1 -4.05 0.65 -2.7 0.45 -2.0 0.75 -1.9 -0.35 -2.25 -2.75 -4.2 -2.0 -7.45 -2.0 -7.5 Q-0.9 -5.8 1.45 -4.8 M-7.0 8.75 L-7.45 8.5 Q-8.25 8.0 -8.25 7.25 L-8.05 6.55 -7.9 6.3 -7.7 6.15 -7.45 5.9 -7.0 5.55 -6.4 5.5 Q-5.2 5.5 -5.05 6.8 -5.3 6.45 -5.8 6.45 -6.7 6.45 -7.2 7.15 L-7.5 8.0 -7.4 8.5 -7.0 8.75" fill="#ffffff" fill-rule="evenodd" stroke="none"/>
      <path d="M0.75 -1.9 L1.2 -1.85 1.85 -1.75 4.25 -1.3 5.35 -4.25 5.35 -4.35 2.15 -4.6 1.95 -4.65 1.65 -4.75 1.45 -4.8 M0.75 -1.9 L-0.35 -2.25 -2.75 -4.2 -2.0 -7.45 -2.0 -7.5 Q-0.9 -5.8 1.45 -4.8 M-5.05 6.8 Q-5.2 5.5 -6.4 5.5 L-7.0 5.55 -7.45 5.9 -7.7 6.15 -7.9 6.3 -8.05 6.55 -8.25 7.25 Q-8.25 8.0 -7.45 8.5 L-7.0 8.75 M-5.05 6.85 L-5.05 7.1 Q-5.05 7.55 -5.35 8.1 -5.75 8.85 -6.5 8.85 L-6.9 8.8 -7.0 8.75" fill="none" stroke="#000000" stroke-linecap="round" stroke-linejoin="round" stroke-opacity="0.3019608" stroke-width="0.05"/>
    </g>
  </defs>
</svg>
