<?xml version="1.0" encoding="UTF-8" standalone="no"?>
<svg xmlns:xlink="http://www.w3.org/1999/xlink" height="40.1px" width="29.6px" xmlns="http://www.w3.org/2000/svg">
  <g transform="matrix(1.0, 0.0, 0.0, 1.0, 13.65, 37.2)">
    <use height="40.1" transform="matrix(1.0, 0.0, 0.0, 1.0, -13.65, -37.2)" width="29.6" xlink:href="#shape0"/>
  </g>
  <defs>
    <g id="shape0" transform="matrix(1.0, 0.0, 0.0, 1.0, 13.65, 37.2)">
      <path d="M-12.95 -9.85 Q-12.95 -11.95 -12.2 -14.6 -10.2 -22.35 -5.2 -31.0 -2.85 -32.3 -1.5 -32.6 L7.4 -31.75 10.45 -29.5 Q11.5 -28.4 12.85 -24.25 L14.6 -17.9 Q15.0 -15.7 15.3 -14.95 L15.55 -12.8 14.95 -9.35 Q13.05 -1.75 3.75 -1.95 L-4.05 -2.6 Q-7.75 -3.2 -10.05 -4.25 -13.0 -5.55 -12.95 -9.85 -13.0 -5.55 -10.05 -4.25 -7.75 -3.2 -4.05 -2.6 -4.4 -0.7 -4.4 1.75 L-4.4 2.3 Q-8.25 1.5 -10.6 0.4 -13.95 -1.25 -13.6 -6.2 L-12.95 -9.85" fill="#996600" fill-rule="evenodd" stroke="none"/>
      <path d="M-4.05 -2.6 L3.75 -1.95 Q13.05 -1.75 14.95 -9.35 L15.55 -12.8 Q15.85 -9.15 15.05 -3.45 14.2 2.25 6.55 2.75 L-4.4 2.3 -4.4 1.75 Q-4.4 -0.7 -4.05 -2.6" fill="#764701" fill-rule="evenodd" stroke="none"/>
      <path d="M15.55 -12.8 L15.3 -14.95 Q15.0 -15.7 14.6 -17.9 L12.85 -24.25 Q11.5 -28.4 10.45 -29.5 L7.4 -31.75 -1.5 -32.6 Q-2.85 -32.3 -5.2 -31.0 -10.2 -22.35 -12.2 -14.6 -12.95 -11.95 -12.95 -9.85 -13.0 -5.55 -10.05 -4.25 -7.75 -3.2 -4.05 -2.6 L3.75 -1.95 Q13.05 -1.75 14.95 -9.35 L15.55 -12.8 Q15.85 -9.15 15.05 -3.45 14.2 2.25 6.55 2.75 L-4.4 2.3 Q-8.25 1.5 -10.6 0.4 -13.95 -1.25 -13.6 -6.2 L-12.95 -9.85" fill="none" stroke="#000000" stroke-linecap="round" stroke-linejoin="round" stroke-opacity="0.3019608" stroke-width="0.05"/>
      <path d="M-12.65 -14.35 Q-12.65 -16.45 -11.9 -19.1 -9.9 -26.85 -4.9 -35.5 -2.55 -36.8 -1.2 -37.1 L7.7 -36.25 10.75 -34.0 Q11.8 -32.9 13.15 -28.75 L14.9 -22.4 Q15.3 -20.2 15.6 -19.45 L15.85 -17.3 15.25 -13.85 Q13.35 -6.25 4.05 -6.45 L-3.75 -7.1 Q-7.45 -7.7 -9.75 -8.75 -12.7 -10.05 -12.65 -14.35 -12.7 -10.05 -9.75 -8.75 -7.45 -7.7 -3.75 -7.1 -4.1 -5.2 -4.1 -2.75 L-4.1 -2.2 Q-7.95 -3.0 -10.3 -4.1 -13.65 -5.75 -13.3 -10.7 L-12.65 -14.35" fill="#996600" fill-rule="evenodd" stroke="none"/>
      <path d="M-3.75 -7.1 L4.05 -6.45 Q13.35 -6.25 15.25 -13.85 L15.85 -17.3 Q16.15 -13.65 15.35 -7.95 14.5 -2.25 6.85 -1.75 L-4.1 -2.2 -4.1 -2.75 Q-4.1 -5.2 -3.75 -7.1" fill="#764701" fill-rule="evenodd" stroke="none"/>
      <path d="M15.85 -17.3 L15.6 -19.45 Q15.3 -20.2 14.9 -22.4 L13.15 -28.75 Q11.8 -32.9 10.75 -34.0 L7.7 -36.25 -1.2 -37.1 Q-2.55 -36.8 -4.9 -35.5 -9.9 -26.85 -11.9 -19.1 -12.65 -16.45 -12.65 -14.35 -12.7 -10.05 -9.75 -8.75 -7.45 -7.7 -3.75 -7.1 L4.05 -6.45 Q13.35 -6.25 15.25 -13.85 L15.85 -17.3 Q16.15 -13.65 15.35 -7.95 14.5 -2.25 6.85 -1.75 L-4.1 -2.2 Q-7.95 -3.0 -10.3 -4.1 -13.65 -5.75 -13.3 -10.7 L-12.65 -14.35" fill="none" stroke="#000000" stroke-linecap="round" stroke-linejoin="round" stroke-opacity="0.3019608" stroke-width="0.05"/>
    </g>
  </defs>
</svg>
