<?xml version="1.0" encoding="UTF-8" standalone="no"?>
<svg xmlns:xlink="http://www.w3.org/1999/xlink" height="56.45px" width="59.2px" xmlns="http://www.w3.org/2000/svg">
  <g transform="matrix(1.0, 0.0, 0.0, 1.0, 27.4, 28.2)">
    <use height="56.45" transform="matrix(1.0, 0.0, 0.0, 1.0, -25.15, -28.2)" width="50.3" xlink:href="#shape0"/>
    <use height="86.6" transform="matrix(-0.1433, 0.5719, -0.5719, -0.1433, 31.7763, -10.7841)" width="67.2" xlink:href="#sprite0"/>
    <use height="14.05" transform="matrix(1.0, 0.0, 0.0, 1.0, -16.65, -24.85)" width="20.15" xlink:href="#shape2"/>
  </g>
  <defs>
    <g id="shape0" transform="matrix(1.0, 0.0, 0.0, 1.0, 25.15, 28.2)">
      <path d="M5.8 -21.05 L6.85 -17.6 5.1 -17.35 5.05 -17.25 Q2.4 -14.9 0.95 -14.95 L0.6 -14.5 Q-1.15 -12.65 -2.55 -12.35 L-3.15 -11.65 Q-5.6 -9.45 -8.4 -9.55 L-8.45 -9.5 Q-10.55 -7.45 -12.45 -7.55 L-12.95 -7.7 Q-13.5 -8.0 -13.4 -8.95 -13.35 -10.2 -11.4 -11.15 -10.0 -11.85 -9.0 -11.8 L-8.75 -11.8 Q-8.25 -12.65 -7.15 -13.3 -5.75 -14.1 -4.7 -14.05 L-3.85 -14.0 -2.1 -15.45 -0.2 -16.75 Q-0.05 -17.3 0.6 -17.8 L0.45 -17.85 0.3 -18.1 -1.85 -17.85 -3.05 -18.1 -4.05 -19.0 -5.45 -18.7 -5.9 -18.75 Q-6.4 -18.95 -6.35 -19.7 L-5.9 -20.35 -5.05 -20.65 Q-4.15 -20.55 -3.8 -20.25 L-2.9 -20.7 -1.3 -20.85 Q0.35 -20.75 0.95 -20.1 L1.65 -20.4 3.5 -20.75 Q4.1 -20.7 4.35 -20.35 L4.75 -20.55 5.8 -21.05" fill="#404040" fill-rule="evenodd" stroke="none"/>
      <path d="M22.65 27.85 Q22.6 24.4 19.9 16.25 L15.0 1.5 10.65 -11.7 8.3 -18.35 7.2 -21.65 7.15 -21.75 9.6 -22.55 25.15 27.05 22.65 27.85 M8.35 -12.8 L8.55 -12.3 8.55 -12.2 8.35 -12.8" fill="#964d2e" fill-rule="evenodd" stroke="none"/>
      <path d="M7.15 -21.75 L7.2 -21.65 8.3 -18.35 10.65 -11.7 15.0 1.5 19.9 16.25 Q22.6 24.4 22.65 27.85 L21.25 28.25 8.65 -11.85 8.55 -12.15 8.55 -12.2 8.55 -12.3 8.35 -12.8 6.85 -17.6 5.8 -21.05 5.7 -21.3 7.15 -21.75 M8.65 -11.85 L8.55 -12.2 8.65 -11.85" fill="#62321e" fill-rule="evenodd" stroke="none"/>
      <path d="M22.65 27.85 L25.15 27.05 9.6 -22.55 7.15 -21.75 5.7 -21.3 5.8 -21.05 6.85 -17.6 M8.55 -12.2 L8.65 -11.85 21.25 28.25 22.65 27.85 M8.35 -12.8 L8.55 -12.2" fill="none" stroke="#000000" stroke-linecap="round" stroke-linejoin="round" stroke-opacity="0.4" stroke-width="0.05"/>
      <path d="M-9.55 -1.95 L-9.5 -2.05 -9.55 -1.95" fill="#e0e8eb" fill-rule="evenodd" stroke="none"/>
      <path d="M-12.1 -11.8 L-11.6 -12.4 -11.2 -12.9 Q-11.15 -13.5 -11.9 -14.1 L-12.05 -14.2 -12.2 -14.35 -12.45 -14.5 -12.85 -13.75 -13.3 -12.7 -12.9 -12.4 -12.8 -12.35 -12.1 -11.8 -12.8 -12.35 -12.9 -12.4 -13.3 -12.7 -14.7 -13.35 -17.45 -13.55 -18.35 -12.4 Q-19.3 -10.9 -19.35 -9.65 L-19.4 -9.25 -19.8 -9.65 -20.4 -10.0 Q-21.1 -10.0 -21.7 -9.4 -22.35 -8.75 -22.4 -7.85 -22.45 -7.25 -21.95 -6.75 -21.6 -6.3 -21.15 -6.25 -20.5 -6.2 -19.85 -7.1 L-19.4 -7.95 -19.2 -8.6 -19.4 -9.25 -19.2 -8.6 -19.4 -7.95 -19.35 -7.5 Q-19.4 -6.75 -18.8 -5.45 L-17.9 -4.05 -18.25 -4.1 -19.3 -3.85 -19.9 -3.05 Q-19.9 -2.6 -19.25 -2.0 -18.5 -1.3 -17.55 -1.25 L-17.35 -1.25 -16.55 -1.45 -16.5 -1.5 -16.25 -1.85 -16.1 -2.4 -16.1 -2.5 -15.95 -2.35 -14.4 -1.3 -14.25 -1.25 -14.1 -1.2 -13.5 -1.05 -12.85 -1.05 -12.75 -1.1 -12.1 -1.6 -11.8 -1.9 -11.0 -2.9 -10.85 -3.1 -10.85 -3.15 -10.8 -3.15 -10.5 -2.9 -9.55 -1.95 -9.5 -2.05 -8.85 -3.45 -8.8 -3.95 -8.8 -4.2 -8.9 -4.45 -9.1 -4.45 -9.3 -4.5 -9.85 -4.75 -10.1 -4.85 Q-9.7 -6.3 -10.0 -7.85 -10.4 -10.3 -12.1 -11.8 M-13.55 -9.8 L-13.75 -9.8 -14.25 -9.75 Q-14.45 -9.65 -14.6 -9.5 -15.05 -9.15 -15.1 -8.45 -15.15 -7.65 -14.45 -6.8 L-13.4 -5.95 -12.95 -5.85 -12.9 -5.85 -13.2 -5.6 -13.75 -5.5 Q-14.6 -5.55 -15.35 -6.1 -16.65 -6.95 -16.5 -8.85 -16.45 -9.65 -15.7 -10.05 L-14.6 -10.25 Q-13.5 -10.05 -13.55 -9.8 -12.85 -9.65 -12.4 -8.85 -11.95 -8.1 -12.0 -7.35 -12.05 -6.0 -12.95 -5.85 -12.05 -6.0 -12.0 -7.35 -11.95 -8.1 -12.4 -8.85 -12.85 -9.65 -13.55 -9.8 M-10.1 -4.85 Q-10.35 -3.95 -10.85 -3.15 -10.35 -3.95 -10.1 -4.85 M-17.9 -4.05 Q-17.3 -3.9 -16.75 -3.45 -16.15 -3.0 -16.1 -2.5 -16.15 -3.0 -16.75 -3.45 -17.3 -3.9 -17.9 -4.05" fill="#8e9294" fill-rule="evenodd" stroke="none"/>
      <path d="M-13.3 -12.7 L-12.85 -13.75 -12.45 -14.5 -12.6 -14.6 -13.1 -14.85 -13.9 -15.0 -14.25 -14.95 -14.25 -14.9 -14.5 -14.1 -14.7 -13.35 -13.3 -12.7 M-17.45 -13.55 L-17.95 -13.5 -20.4 -12.65 -20.7 -13.35 Q-20.9 -13.95 -21.3 -13.95 L-22.55 -13.5 Q-23.45 -13.0 -23.7 -12.25 L-23.7 -11.7 Q-23.55 -11.35 -22.35 -10.75 L-22.4 -10.7 Q-24.05 -8.35 -23.6 -5.5 L-23.5 -5.15 -24.3 -4.9 -25.05 -4.6 -25.1 -4.55 -25.15 -4.45 Q-25.2 -3.9 -24.7 -2.9 -24.2 -1.75 -23.6 -1.7 L-23.35 -1.65 -23.3 -1.65 -22.8 -2.0 -22.25 -2.45 -20.75 -1.0 -19.65 -0.4 -19.4 0.2 Q-18.95 0.65 -18.15 0.7 L-17.05 0.6 Q-16.35 0.4 -16.25 0.2 L-15.55 0.1 Q-13.95 -0.2 -12.75 -1.1 L-12.85 -1.05 -13.5 -1.05 -14.1 -1.2 -14.25 -1.25 -14.4 -1.3 -15.95 -2.35 -16.1 -2.5 -16.1 -2.4 -16.25 -1.85 -16.5 -1.5 -16.55 -1.45 -17.35 -1.25 -17.55 -1.25 Q-18.5 -1.3 -19.25 -2.0 -19.9 -2.6 -19.9 -3.05 L-19.3 -3.85 -18.25 -4.1 -17.9 -4.05 -18.8 -5.45 Q-19.4 -6.75 -19.35 -7.5 L-19.4 -7.95 -19.85 -7.1 Q-20.5 -6.2 -21.15 -6.25 -21.6 -6.3 -21.95 -6.75 -22.45 -7.25 -22.4 -7.85 -22.35 -8.75 -21.7 -9.4 -21.1 -10.0 -20.4 -10.0 L-19.8 -9.65 -19.4 -9.25 -19.35 -9.65 Q-19.3 -10.9 -18.35 -12.4 L-17.45 -13.55 M-11.8 -1.9 L-10.75 -1.0 -10.6 -0.9 -9.55 -1.95 -10.5 -2.9 -10.8 -3.15 -10.85 -3.15 -10.85 -3.1 -11.0 -2.9 -11.8 -1.9 M-12.9 -5.85 L-12.95 -5.85 -13.4 -5.95 -14.45 -6.8 Q-15.15 -7.65 -15.1 -8.45 -15.05 -9.15 -14.6 -9.5 -14.45 -9.65 -14.25 -9.75 L-13.75 -9.8 -13.55 -9.8 Q-13.5 -10.05 -14.6 -10.25 L-15.7 -10.05 Q-16.45 -9.65 -16.5 -8.85 -16.65 -6.95 -15.35 -6.1 -14.6 -5.55 -13.75 -5.5 L-13.2 -5.6 -12.9 -5.85 M-22.35 -10.75 Q-21.55 -11.95 -20.4 -12.65 -21.55 -11.95 -22.35 -10.75 M-22.25 -2.45 Q-23.15 -3.65 -23.5 -5.15 -23.15 -3.65 -22.25 -2.45 M-16.25 0.2 Q-18.05 0.35 -19.65 -0.4 -18.05 0.35 -16.25 0.2" fill="#5c5f5f" fill-rule="evenodd" stroke="none"/>
      <path d="M-12.45 -14.5 L-12.2 -14.35 -12.05 -14.2 -11.9 -14.1 Q-11.15 -13.5 -11.2 -12.9 L-11.6 -12.4 -12.1 -11.8 -12.8 -12.35 -12.9 -12.4 -13.3 -12.7 -14.7 -13.35 -17.45 -13.55 -17.95 -13.5 -20.4 -12.65 -20.7 -13.35 Q-20.9 -13.95 -21.3 -13.95 L-22.55 -13.5 Q-23.45 -13.0 -23.7 -12.25 L-23.7 -11.7 Q-23.55 -11.35 -22.35 -10.75 L-22.4 -10.7 Q-24.05 -8.35 -23.6 -5.5 L-23.5 -5.15 -24.3 -4.9 -25.05 -4.6 -25.1 -4.55 -25.15 -4.45 Q-25.2 -3.9 -24.7 -2.9 -24.2 -1.75 -23.6 -1.7 L-23.35 -1.65 -23.3 -1.65 -22.8 -2.0 -22.25 -2.45 -20.75 -1.0 -19.65 -0.4 -19.4 0.2 Q-18.95 0.65 -18.15 0.7 L-17.05 0.6 Q-16.35 0.4 -16.25 0.2 L-15.55 0.1 Q-13.95 -0.2 -12.75 -1.1 L-12.1 -1.6 -11.8 -1.9 -10.75 -1.0 -10.6 -0.9 -9.55 -1.95 -9.5 -2.05 -8.85 -3.45 -8.8 -3.95 -8.8 -4.2 -8.9 -4.45 -9.1 -4.45 -9.3 -4.5 -9.85 -4.75 -10.1 -4.85 Q-9.7 -6.3 -10.0 -7.85 -10.4 -10.3 -12.1 -11.8 M-12.45 -14.5 L-12.6 -14.6 -13.1 -14.85 -13.9 -15.0 -14.25 -14.95 -14.25 -14.9 -14.5 -14.1 -14.7 -13.35 M-13.55 -9.8 L-13.75 -9.8 -14.25 -9.75 Q-14.45 -9.65 -14.6 -9.5 -15.05 -9.15 -15.1 -8.45 -15.15 -7.65 -14.45 -6.8 L-13.4 -5.95 -12.95 -5.85 -12.9 -5.85 M-13.55 -9.8 Q-12.85 -9.65 -12.4 -8.85 -11.95 -8.1 -12.0 -7.35 -12.05 -6.0 -12.95 -5.85 M-19.4 -7.95 L-19.85 -7.1 Q-20.5 -6.2 -21.15 -6.25 -21.6 -6.3 -21.95 -6.75 -22.45 -7.25 -22.4 -7.85 -22.35 -8.75 -21.7 -9.4 -21.1 -10.0 -20.4 -10.0 L-19.8 -9.65 -19.4 -9.25 -19.2 -8.6 -19.4 -7.95 M-17.9 -4.05 L-18.25 -4.1 -19.3 -3.85 -19.9 -3.05 Q-19.9 -2.6 -19.25 -2.0 -18.5 -1.3 -17.55 -1.25 L-17.35 -1.25 -16.55 -1.45 -16.5 -1.5 -16.25 -1.85 -16.1 -2.4 -16.1 -2.5 Q-16.15 -3.0 -16.75 -3.45 -17.3 -3.9 -17.9 -4.05 M-20.4 -12.65 Q-21.55 -11.95 -22.35 -10.75 M-9.5 -2.05 L-9.55 -1.95 M-10.85 -3.15 Q-10.35 -3.95 -10.1 -4.85 M-11.8 -1.9 L-11.0 -2.9 -10.85 -3.1 -10.85 -3.15 M-19.65 -0.4 Q-18.05 0.35 -16.25 0.2 M-23.5 -5.15 Q-23.15 -3.65 -22.25 -2.45" fill="none" stroke="#000000" stroke-linecap="round" stroke-linejoin="round" stroke-opacity="0.4" stroke-width="0.05"/>
      <path d="M-3.1 -15.15 L-3.05 -15.25 -3.1 -15.15" fill="#e0e8eb" fill-rule="evenodd" stroke="none"/>
      <path d="M-5.65 -25.0 L-5.15 -25.6 -4.75 -26.1 Q-4.7 -26.7 -5.45 -27.3 L-5.6 -27.4 -5.75 -27.55 -6.0 -27.7 -6.4 -26.95 -6.85 -25.9 -6.45 -25.6 -6.35 -25.55 -5.65 -25.0 -6.35 -25.55 -6.45 -25.6 -6.85 -25.9 -8.25 -26.55 -11.0 -26.75 -11.9 -25.6 Q-12.85 -24.1 -12.9 -22.85 L-12.95 -22.45 -13.35 -22.85 -13.95 -23.2 Q-14.65 -23.2 -15.25 -22.6 -15.9 -21.95 -15.95 -21.05 -16.0 -20.45 -15.5 -19.95 L-14.7 -19.45 Q-14.05 -19.4 -13.4 -20.3 L-12.95 -21.15 -12.75 -21.8 -12.95 -22.45 -12.75 -21.8 -12.95 -21.15 -12.9 -20.7 Q-12.95 -19.95 -12.35 -18.65 L-11.45 -17.25 -11.8 -17.3 -12.85 -17.05 -13.45 -16.25 -12.8 -15.2 Q-12.05 -14.5 -11.1 -14.45 L-10.9 -14.45 -10.1 -14.65 -10.05 -14.7 -9.8 -15.05 -9.65 -15.6 -9.65 -15.7 -9.5 -15.55 Q-8.3 -14.55 -7.95 -14.5 L-7.8 -14.45 -7.65 -14.4 -7.05 -14.25 -6.4 -14.25 -6.3 -14.3 -5.65 -14.8 -5.35 -15.1 -4.55 -16.1 -4.4 -16.3 -4.4 -16.35 -4.35 -16.35 -4.05 -16.1 -3.1 -15.15 -3.05 -15.25 -2.4 -16.65 -2.35 -17.15 -2.35 -17.4 -2.45 -17.65 -2.65 -17.65 -2.85 -17.7 -3.4 -17.95 -3.65 -18.05 Q-3.25 -19.5 -3.55 -21.05 -3.95 -23.5 -5.65 -25.0 M-6.45 -19.05 L-6.75 -18.8 -7.3 -18.7 Q-8.15 -18.75 -8.9 -19.3 -10.2 -20.15 -10.05 -22.05 -10.0 -22.85 -9.25 -23.25 L-8.15 -23.45 Q-7.05 -23.25 -7.1 -23.0 L-7.3 -23.0 -7.8 -22.95 -8.15 -22.7 Q-8.6 -22.35 -8.65 -21.65 -8.7 -20.85 -8.0 -20.0 L-6.95 -19.15 -6.5 -19.05 -6.45 -19.05 M-6.5 -19.05 Q-5.6 -19.2 -5.55 -20.55 -5.5 -21.3 -5.95 -22.05 -6.4 -22.85 -7.1 -23.0 -6.4 -22.85 -5.95 -22.05 -5.5 -21.3 -5.55 -20.55 -5.6 -19.2 -6.5 -19.05 M-3.65 -18.05 Q-3.9 -17.15 -4.4 -16.35 -3.9 -17.15 -3.65 -18.05 M-11.45 -17.25 L-10.3 -16.65 Q-9.7 -16.2 -9.65 -15.7 -9.7 -16.2 -10.3 -16.65 L-11.45 -17.25" fill="#8e9294" fill-rule="evenodd" stroke="none"/>
      <path d="M-6.85 -25.9 L-6.4 -26.95 -6.0 -27.7 -6.15 -27.8 -6.65 -28.05 -7.45 -28.2 -7.8 -28.15 -7.8 -28.1 -8.05 -27.3 -8.25 -26.55 -6.85 -25.9 M-11.0 -26.75 L-11.5 -26.7 -13.95 -25.85 -14.25 -26.55 Q-14.45 -27.15 -14.85 -27.15 L-16.1 -26.7 Q-17.0 -26.2 -17.25 -25.45 L-17.25 -24.9 -15.9 -23.95 -15.95 -23.9 Q-17.6 -21.55 -17.15 -18.7 L-17.05 -18.35 -17.85 -18.1 -18.6 -17.8 -18.65 -17.75 -18.7 -17.65 Q-18.75 -17.1 -18.25 -16.1 -17.75 -14.95 -17.15 -14.9 L-16.9 -14.85 -16.85 -14.85 -16.35 -15.2 -15.8 -15.65 Q-15.2 -14.85 -14.3 -14.2 L-13.2 -13.6 -12.95 -13.0 Q-12.5 -12.55 -11.7 -12.5 L-10.6 -12.6 Q-9.9 -12.8 -9.8 -13.0 L-9.1 -13.1 Q-7.5 -13.4 -6.3 -14.3 L-6.4 -14.25 -7.05 -14.25 -7.65 -14.4 -7.8 -14.45 -7.95 -14.5 Q-8.3 -14.55 -9.5 -15.55 L-9.65 -15.7 -9.65 -15.6 -9.8 -15.05 -10.05 -14.7 -10.1 -14.65 -10.9 -14.45 -11.1 -14.45 Q-12.05 -14.5 -12.8 -15.2 L-13.45 -16.25 -12.85 -17.05 -11.8 -17.3 -11.45 -17.25 -12.35 -18.65 Q-12.95 -19.95 -12.9 -20.7 L-12.95 -21.15 -13.4 -20.3 Q-14.05 -19.4 -14.7 -19.45 L-15.5 -19.95 Q-16.0 -20.45 -15.95 -21.05 -15.9 -21.95 -15.25 -22.6 -14.65 -23.2 -13.95 -23.2 L-13.35 -22.85 -12.95 -22.45 -12.9 -22.85 Q-12.85 -24.1 -11.9 -25.6 L-11.0 -26.75 M-5.35 -15.1 L-4.3 -14.2 -4.15 -14.1 -3.1 -15.15 -4.05 -16.1 -4.35 -16.35 -4.4 -16.35 -4.4 -16.3 -4.55 -16.1 -5.35 -15.1 M-7.1 -23.0 Q-7.05 -23.25 -8.15 -23.45 L-9.25 -23.25 Q-10.0 -22.85 -10.05 -22.05 -10.2 -20.15 -8.9 -19.3 -8.15 -18.75 -7.3 -18.7 L-6.75 -18.8 -6.45 -19.05 -6.5 -19.05 -6.95 -19.15 -8.0 -20.0 Q-8.7 -20.85 -8.65 -21.65 -8.6 -22.35 -8.15 -22.7 L-7.8 -22.95 -7.3 -23.0 -7.1 -23.0 M-15.9 -23.95 Q-15.1 -25.15 -13.95 -25.85 -15.1 -25.15 -15.9 -23.95 M-15.8 -15.65 Q-16.7 -16.85 -17.05 -18.35 -16.7 -16.85 -15.8 -15.65 M-9.8 -13.0 Q-11.6 -12.85 -13.2 -13.6 -11.6 -12.85 -9.8 -13.0" fill="#5c5f5f" fill-rule="evenodd" stroke="none"/>
      <path d="M-6.0 -27.7 L-5.75 -27.55 -5.6 -27.4 -5.45 -27.3 Q-4.7 -26.7 -4.75 -26.1 L-5.15 -25.6 -5.65 -25.0 -6.35 -25.55 -6.45 -25.6 -6.85 -25.9 -8.25 -26.55 -11.0 -26.75 -11.5 -26.7 -13.95 -25.85 -14.25 -26.55 Q-14.45 -27.15 -14.85 -27.15 L-16.1 -26.7 Q-17.0 -26.2 -17.25 -25.45 L-17.25 -24.9 -15.9 -23.95 -15.95 -23.9 Q-17.6 -21.55 -17.15 -18.7 L-17.05 -18.35 -17.85 -18.1 -18.6 -17.8 -18.65 -17.75 -18.7 -17.65 Q-18.75 -17.1 -18.25 -16.1 -17.75 -14.95 -17.15 -14.9 L-16.9 -14.85 -16.85 -14.85 -16.35 -15.2 -15.8 -15.65 Q-15.2 -14.85 -14.3 -14.2 L-13.2 -13.6 -12.95 -13.0 Q-12.5 -12.55 -11.7 -12.5 L-10.6 -12.6 Q-9.9 -12.8 -9.8 -13.0 L-9.1 -13.1 Q-7.5 -13.4 -6.3 -14.3 L-5.65 -14.8 -5.35 -15.1 -4.3 -14.2 -4.15 -14.1 -3.1 -15.15 -3.05 -15.25 -2.4 -16.65 -2.35 -17.15 -2.35 -17.4 -2.45 -17.65 -2.65 -17.65 -2.85 -17.7 -3.4 -17.95 -3.65 -18.05 Q-3.25 -19.5 -3.55 -21.05 -3.95 -23.5 -5.65 -25.0 M-6.0 -27.7 L-6.15 -27.8 -6.65 -28.05 -7.45 -28.2 -7.8 -28.15 -7.8 -28.1 -8.05 -27.3 -8.25 -26.55 M-7.1 -23.0 L-7.3 -23.0 -7.8 -22.95 -8.15 -22.7 Q-8.6 -22.35 -8.65 -21.65 -8.7 -20.85 -8.0 -20.0 L-6.95 -19.15 -6.5 -19.05 -6.45 -19.05 M-7.1 -23.0 Q-6.4 -22.85 -5.95 -22.05 -5.5 -21.3 -5.55 -20.55 -5.6 -19.2 -6.5 -19.05 M-13.95 -25.85 Q-15.1 -25.15 -15.9 -23.95 M-12.95 -21.15 L-13.4 -20.3 Q-14.05 -19.4 -14.7 -19.45 L-15.5 -19.95 Q-16.0 -20.45 -15.95 -21.05 -15.9 -21.95 -15.25 -22.6 -14.65 -23.2 -13.95 -23.2 L-13.35 -22.85 -12.95 -22.45 -12.75 -21.8 -12.95 -21.15 M-11.45 -17.25 L-11.8 -17.3 -12.85 -17.05 -13.45 -16.25 -12.8 -15.2 Q-12.05 -14.5 -11.1 -14.45 L-10.9 -14.45 -10.1 -14.65 -10.05 -14.7 -9.8 -15.05 -9.65 -15.6 -9.65 -15.7 Q-9.7 -16.2 -10.3 -16.65 L-11.45 -17.25 M-3.05 -15.25 L-3.1 -15.15 M-4.4 -16.35 Q-3.9 -17.15 -3.65 -18.05 M-5.35 -15.1 L-4.55 -16.1 -4.4 -16.3 -4.4 -16.35 M-13.2 -13.6 Q-11.6 -12.85 -9.8 -13.0 M-17.05 -18.35 Q-16.7 -16.85 -15.8 -15.65" fill="none" stroke="#000000" stroke-linecap="round" stroke-linejoin="round" stroke-opacity="0.4" stroke-width="0.05"/>
    </g>
    <g id="sprite0" transform="matrix(1.0, 0.0, 0.0, 1.0, -103.9, 150.75)">
      <use height="86.6" transform="matrix(1.0, 0.0, 0.0, 1.0, 103.9, -150.75)" width="67.2" xlink:href="#shape1"/>
    </g>
    <g id="shape1" transform="matrix(1.0, 0.0, 0.0, 1.0, -103.9, 150.75)">
      <path d="M106.6 -100.95 L106.95 -101.0 Q108.55 -101.0 108.55 -98.95 L108.4 -98.5 108.3 -98.3 107.85 -98.25 Q107.15 -98.25 106.8 -99.1 106.45 -99.95 106.75 -100.9 L106.6 -100.95 M104.9 -110.05 L117.55 -118.2 136.65 -130.45 156.4 -142.7 Q169.4 -150.75 170.5 -150.75 L171.0 -150.65 171.1 -150.4 Q157.85 -141.35 133.5 -126.5 L104.0 -108.6 103.9 -108.8 104.35 -109.65 Q104.55 -110.0 104.9 -110.05 M140.6 -76.1 L141.7 -73.65 141.9 -71.8 Q141.9 -69.9 140.75 -68.05 L139.55 -66.65 Q139.5 -65.3 137.7 -64.6 136.55 -64.15 135.55 -64.15 134.35 -64.15 134.65 -65.5 134.95 -66.8 135.8 -67.35 L137.25 -67.9 139.0 -68.35 139.05 -68.3 139.45 -69.75 Q140.75 -73.85 140.5 -75.5 L140.6 -76.1 M139.3 -72.4 Q139.3 -69.4 137.9 -69.4 136.05 -69.4 136.05 -72.5 136.05 -73.5 136.65 -74.1 137.1 -74.5 137.45 -74.5 138.2 -74.5 138.75 -73.8 139.3 -73.2 139.3 -72.4 M114.45 -93.3 L113.9 -93.15 Q113.5 -93.15 112.9 -93.8 112.2 -94.55 112.25 -95.5 L112.3 -95.6 112.75 -95.75 Q113.2 -95.75 113.85 -95.2 114.6 -94.55 114.65 -93.65 L114.45 -93.3 M119.0 -90.0 Q119.35 -90.0 120.2 -88.75 L121.05 -87.15 120.85 -86.25 120.25 -86.15 Q119.3 -86.15 118.7 -87.65 118.1 -89.05 118.35 -89.85 L119.0 -90.0 M116.3 -81.4 Q116.75 -81.15 116.75 -80.5 L117.15 -80.05 Q117.5 -79.55 117.5 -78.6 117.5 -74.25 115.95 -72.15 114.7 -70.55 111.0 -68.9 110.75 -69.3 113.1 -71.95 115.75 -75.0 115.75 -77.55 L116.05 -80.9 116.3 -81.4 M111.9 -76.55 Q111.9 -78.1 112.45 -79.05 113.0 -79.9 113.75 -79.9 115.0 -79.9 115.0 -77.55 115.0 -76.2 114.25 -75.4 113.7 -74.85 113.25 -74.85 111.9 -74.85 111.9 -76.55" fill="#ffd633" fill-opacity="0.4" fill-rule="evenodd" stroke="none"/>
    </g>
    <g id="shape2" transform="matrix(1.0, 0.0, 0.0, 1.0, 16.65, 24.85)">
      <path d="M3.5 -20.0 Q3.25 -19.6 2.7 -19.65 L2.4 -19.8 2.4 -20.15 3.45 -20.1 3.5 -20.0 M1.85 -17.75 Q1.85 -18.25 2.85 -18.6 L3.05 -18.5 3.15 -18.25 Q3.15 -17.85 2.25 -17.4 L1.95 -17.5 Q1.85 -17.55 1.85 -17.75 M-0.15 -19.9 Q-0.15 -19.35 -1.05 -19.35 -1.8 -19.35 -1.8 -20.0 L-1.7 -20.3 -0.15 -20.1 -0.15 -19.9 M-9.0 -23.7 Q-10.05 -23.7 -10.05 -24.2 -10.05 -24.85 -9.0 -24.85 -8.0 -24.8 -8.0 -24.3 -8.0 -23.7 -9.0 -23.7 M-1.8 -14.55 L-1.35 -15.05 -0.45 -15.35 -0.45 -15.15 Q-0.45 -14.8 -1.25 -14.25 L-1.7 -14.4 -1.75 -14.3 -1.8 -14.55 M-15.9 -10.8 Q-16.7 -10.8 -16.65 -11.45 -16.65 -12.1 -15.8 -12.05 -15.0 -12.0 -15.0 -11.45 -15.0 -10.8 -15.9 -10.8 M-5.45 -11.65 L-6.0 -11.25 -6.45 -11.75 Q-6.45 -12.15 -5.25 -12.6 L-4.85 -12.3 -5.45 -11.65" fill="#ffffff" fill-rule="evenodd" stroke="none"/>
    </g>
  </defs>
</svg>
