<?xml version="1.0" encoding="UTF-8" standalone="no"?>
<svg xmlns:xlink="http://www.w3.org/1999/xlink" height="114.55px" width="114.55px" xmlns="http://www.w3.org/2000/svg">
  <g transform="matrix(1.0, 0.0, 0.0, 1.0, 57.2, 57.2)">
    <use height="50.25" transform="matrix(1.1653, 0.0, 0.0, 1.1653, -29.2501, -29.2501)" width="50.25" xlink:href="#sprite0"/>
  </g>
  <defs>
    <g id="sprite0" transform="matrix(1.0, 0.0, 0.0, 1.0, 25.1, 25.1)">
      <use height="50.25" transform="matrix(1.0, 0.0, 0.0, 1.0, -25.1, -25.1)" width="50.25" xlink:href="#shape0"/>
    </g>
    <g id="shape0" transform="matrix(1.0, 0.0, 0.0, 1.0, 25.1, 25.1)">
      <path d="M25.15 -15.9 L9.2 0.05 25.1 15.95 15.95 25.1 0.05 9.2 -15.9 25.15 -25.1 15.95 -9.15 0.0 -25.05 -15.9 -15.9 -25.05 0.0 -9.15 15.95 -25.1 25.15 -15.9" fill="#ff0000" fill-rule="evenodd" stroke="none"/>
    </g>
  </defs>
</svg>
