<?xml version="1.0" encoding="UTF-8" standalone="no"?>
<svg xmlns:xlink="http://www.w3.org/1999/xlink" height="19.0px" width="20.65px" xmlns="http://www.w3.org/2000/svg">
  <g transform="matrix(1.0, 0.0, 0.0, 1.0, 78.2, -4.5)">
    <use height="19.0" transform="matrix(1.0, 0.0, 0.0, 1.0, -78.2, 4.5)" width="20.65" xlink:href="#shape0"/>
  </g>
  <defs>
    <g id="shape0" transform="matrix(1.0, 0.0, 0.0, 1.0, 78.2, -4.5)">
      <path d="M-59.2 11.2 L-59.4 10.7 Q-59.4 10.15 -58.95 10.15 -58.55 10.15 -58.1 10.6 -57.55 11.1 -57.55 11.75 L-57.6 13.1 Q-57.6 14.1 -58.1 14.1 L-59.25 12.95 -59.3 12.2 -59.2 11.2 M-65.35 10.1 Q-68.6 8.05 -68.7 8.05 L-69.25 7.8 -69.3 4.95 Q-69.1 4.5 -68.35 4.5 -59.8 7.65 -59.8 10.55 -59.8 12.15 -60.8 12.15 -62.15 12.15 -65.35 10.1 M-77.6 16.75 Q-76.95 16.75 -76.95 17.5 -76.95 18.15 -77.6 18.15 -78.2 18.15 -78.2 17.45 -78.2 16.75 -77.6 16.75 M-64.85 22.25 Q-64.55 22.45 -64.55 22.8 -64.55 23.45 -65.2 23.5 -65.8 23.5 -65.8 22.8 -65.8 22.1 -65.2 22.1 -65.05 22.1 -64.85 22.25" fill="#ffd633" fill-opacity="0.2" fill-rule="evenodd" stroke="none"/>
    </g>
  </defs>
</svg>
