<?xml version="1.0" encoding="UTF-8" standalone="no"?>
<svg xmlns:xlink="http://www.w3.org/1999/xlink" height="35.9px" width="39.5px" xmlns="http://www.w3.org/2000/svg">
  <g transform="matrix(1.0, 0.0, 0.0, 1.0, 14.45, 24.05)">
    <use height="23.5" transform="matrix(1.0, 0.0, 0.0, 1.0, -11.85, -11.8)" width="23.5" xlink:href="#shape0"/>
  </g>
  <defs>
    <g id="shape0" transform="matrix(1.0, 0.0, 0.0, 1.0, 11.85, 11.8)">
      <path d="M2.5 -2.2 L0.55 0.2 2.5 3.4 -0.55 2.9 -3.45 4.8 -2.95 1.0 -5.25 -0.75 -2.85 -1.65 -2.3 -3.95 0.0 -2.2 2.5 -2.2" fill="#ffffff" fill-rule="evenodd" stroke="none"/>
      <path d="M2.5 -2.2 L0.0 -2.2 -2.3 -3.95 -2.85 -1.65 -5.25 -0.75 -2.95 1.0 -3.45 4.8 -0.55 2.9 2.5 3.4 0.55 0.2 2.5 -2.2 M11.65 -8.65 L4.2 0.45 8.95 7.7 0.15 5.6 -7.95 11.7 -8.45 11.45 -5.85 3.25 -11.85 -3.25 -4.7 -3.25 -2.25 -11.8 -1.95 -11.55 0.3 -4.55 11.1 -9.0 11.65 -8.65" fill="#ffff00" fill-rule="evenodd" stroke="none"/>
    </g>
  </defs>
</svg>
