<?xml version="1.0" encoding="UTF-8" standalone="no"?>
<svg xmlns:xlink="http://www.w3.org/1999/xlink" height="35.9px" width="39.5px" xmlns="http://www.w3.org/2000/svg">
  <g transform="matrix(1.0, 0.0, 0.0, 1.0, 14.45, 24.05)">
    <use height="28.05" transform="matrix(1.0, 0.0, 0.0, 1.0, -11.55, -17.4)" width="30.65" xlink:href="#shape0"/>
  </g>
  <defs>
    <g id="shape0" transform="matrix(1.0, 0.0, 0.0, 1.0, 11.55, 17.4)">
      <path d="M0.5 -14.75 Q0.5 -13.55 -0.1 -12.75 -1.05 -11.55 -3.15 -11.55 -4.1 -11.55 -4.5 -12.6 L-4.7 -13.75 Q-4.7 -14.5 -4.15 -15.65 -3.35 -17.4 -1.9 -17.4 -0.7 -17.4 0.0 -16.2 L0.5 -14.75 M9.6 -11.5 Q9.6 -14.4 12.05 -14.25 14.45 -14.05 14.45 -11.9 14.45 -11.45 13.9 -10.85 L14.1 -9.65 14.85 -8.8 15.6 -7.65 Q15.6 -6.75 14.25 -6.65 11.95 -6.55 10.2 -5.7 L8.2 -4.5 Q7.15 -3.9 6.4 -3.9 L5.9 -3.9 5.85 -4.4 6.15 -4.95 6.9 -5.4 6.6 -5.45 Q8.6 -8.0 10.6 -9.8 L10.65 -9.8 Q9.85 -10.0 9.6 -10.6 9.45 -11.05 9.6 -11.5 M0.85 -8.0 Q0.6 -7.7 0.15 -7.7 -0.7 -7.7 -0.65 -8.6 -0.65 -9.5 0.25 -9.4 1.1 -9.3 1.1 -8.6 L0.85 -8.0 M1.95 -4.6 Q1.95 -6.4 3.85 -6.55 5.75 -6.7 5.75 -5.0 5.75 -4.4 5.25 -3.9 4.65 -3.3 3.8 -3.3 1.95 -3.3 1.95 -4.6 M15.3 -11.85 Q15.3 -14.0 17.2 -13.75 19.1 -13.55 19.1 -11.55 19.1 -10.95 18.7 -10.35 18.2 -9.6 17.25 -9.6 16.05 -9.6 15.55 -10.8 L15.3 -11.85 M-4.0 -7.15 Q-4.55 -6.6 -5.6 -6.6 -6.8 -6.6 -7.3 -7.4 L-7.5 -8.25 Q-7.5 -10.0 -5.55 -9.95 -3.6 -9.95 -3.6 -8.0 -3.6 -7.55 -4.0 -7.15 M-8.8 0.85 L-10.5 1.1 Q-11.7 1.1 -11.55 0.05 -11.55 -1.05 -10.0 -1.05 -8.45 -1.05 -8.45 0.15 -8.45 0.65 -8.8 0.85 M-4.95 8.95 Q-5.45 9.45 -5.9 9.45 -6.9 9.45 -6.9 8.55 -6.9 7.8 -5.7 7.35 -4.5 6.9 -4.5 8.15 -4.5 8.5 -4.95 8.95 M15.05 5.95 Q14.6 6.5 13.0 6.5 10.85 6.5 9.75 5.25 9.0 4.45 9.0 3.9 9.0 1.4 12.15 1.8 15.3 2.15 15.3 4.75 L15.05 5.95 M3.0 2.7 L2.85 2.1 Q2.85 0.9 3.95 1.0 5.0 1.1 5.0 2.55 L4.7 3.25 4.2 3.5 Q3.3 3.5 3.0 2.7 M8.7 7.75 Q10.2 7.5 10.2 9.65 10.2 10.65 9.15 10.65 7.75 10.65 7.35 9.95 7.2 9.7 7.2 9.05 7.2 8.0 8.7 7.75" fill="#ffff00" fill-rule="evenodd" stroke="none"/>
    </g>
  </defs>
</svg>
