<?xml version="1.0" encoding="UTF-8" standalone="no"?>
<svg xmlns:xlink="http://www.w3.org/1999/xlink" height="35.9px" width="39.5px" xmlns="http://www.w3.org/2000/svg">
  <g transform="matrix(1.0, 0.0, 0.0, 1.0, 14.45, 24.05)">
    <use height="32.25" transform="matrix(1.0, 0.0, 0.0, 1.0, -14.45, -20.55)" width="36.2" xlink:href="#shape0"/>
  </g>
  <defs>
    <g id="shape0" transform="matrix(1.0, 0.0, 0.0, 1.0, 14.45, 20.55)">
      <path d="M12.05 -14.4 Q12.05 -15.45 13.15 -15.35 14.25 -15.3 14.25 -14.45 L13.85 -13.65 Q13.4 -13.1 13.05 -13.1 12.4 -13.1 12.15 -13.7 L12.05 -14.4 M19.1 -13.8 Q19.1 -15.3 20.45 -15.2 21.75 -15.1 21.75 -13.55 21.75 -13.1 21.3 -12.75 L20.25 -12.45 Q19.65 -12.45 19.3 -13.15 L19.1 -13.8 M0.3 -19.4 Q1.5 -19.7 1.5 -17.9 L1.35 -17.2 Q1.0 -16.8 0.0 -16.8 -0.6 -16.8 -0.8 -17.3 L-1.25 -17.25 Q-2.45 -17.25 -2.75 -17.9 L-2.85 -18.75 Q-2.85 -20.35 -1.25 -20.55 0.0 -20.7 0.25 -19.35 L0.3 -19.4 M7.4 -6.95 L7.25 -5.95 Q7.0 -5.4 6.05 -5.4 4.9 -5.4 4.5 -6.3 L4.35 -7.05 Q4.35 -8.4 5.9 -8.35 7.4 -8.25 7.4 -6.95 M1.85 -10.55 Q1.85 -9.9 1.1 -9.9 0.6 -9.9 0.45 -10.35 L0.35 -10.65 Q0.35 -11.35 1.1 -11.35 1.85 -11.35 1.85 -10.55 M11.0 11.3 L10.4 11.7 Q9.95 11.7 9.8 11.35 L9.75 11.0 Q9.75 10.4 10.5 10.2 11.25 10.05 11.25 10.75 L11.0 11.3 M15.35 6.2 Q14.3 6.2 13.8 5.4 L13.55 4.55 Q13.55 3.0 15.5 2.85 17.4 2.7 17.4 4.5 17.4 6.2 15.35 6.2 M6.4 4.95 L5.55 5.45 Q4.65 5.45 4.65 4.5 4.65 3.5 5.7 3.35 6.75 3.2 6.75 4.15 L6.4 4.95 M-9.3 -8.55 Q-10.15 -8.55 -10.1 -9.5 -10.1 -10.4 -9.1 -10.5 -8.1 -10.6 -8.1 -9.6 -8.1 -8.55 -9.3 -8.55 M-7.65 11.55 Q-8.3 11.55 -8.3 10.9 -8.3 10.2 -7.55 10.25 -6.8 10.3 -6.8 10.85 -6.8 11.55 -7.65 11.55 M-13.65 1.05 Q-14.45 1.05 -14.45 0.4 -14.45 -0.25 -13.75 -0.2 -13.05 -0.1 -13.05 0.4 -13.05 1.05 -13.65 1.05" fill="#ff9900" fill-rule="evenodd" stroke="none"/>
    </g>
  </defs>
</svg>
