<?xml version="1.0" encoding="UTF-8" standalone="no"?>
<svg xmlns:xlink="http://www.w3.org/1999/xlink" height="35.9px" width="39.5px" xmlns="http://www.w3.org/2000/svg">
  <g transform="matrix(1.0, 0.0, 0.0, 1.0, 14.45, 24.05)">
    <use height="30.1" transform="matrix(1.0, 0.0, 0.0, 1.0, -2.7, -23.75)" width="27.75" xlink:href="#shape0"/>
  </g>
  <defs>
    <g id="shape0" transform="matrix(1.0, 0.0, 0.0, 1.0, 2.7, 23.75)">
      <path d="M1.6 -13.45 Q2.25 -13.45 2.25 -12.8 L2.05 -12.35 Q1.85 -12.2 1.65 -12.2 0.9 -12.2 0.95 -12.8 0.95 -13.45 1.6 -13.45 M8.55 -7.9 Q8.2 -7.55 7.8 -7.55 7.2 -7.55 6.9 -8.05 6.75 -8.35 6.75 -8.6 6.75 -9.55 7.8 -9.55 8.85 -9.55 8.85 -8.6 L8.55 -7.9 M24.9 -17.4 L25.05 -16.95 24.45 -16.35 23.85 -16.95 Q23.85 -17.75 24.9 -17.4 M19.3 6.0 Q19.05 6.35 18.6 6.35 17.55 6.35 17.55 5.5 17.55 4.6 18.55 4.7 19.55 4.8 19.55 5.45 L19.3 6.0 M-1.8 -21.9 Q-2.6 -21.9 -2.7 -22.8 -2.7 -23.65 -1.7 -23.75 -0.75 -23.85 -0.75 -22.95 -0.75 -21.9 -1.8 -21.9" fill="#ff9900" fill-rule="evenodd" stroke="none"/>
    </g>
  </defs>
</svg>
