<?xml version="1.0" encoding="UTF-8" standalone="no"?>
<svg xmlns:xlink="http://www.w3.org/1999/xlink" height="47.7px" width="59.4px" xmlns="http://www.w3.org/2000/svg">
  <g transform="matrix(1.0, 0.0, 0.0, 1.0, 21.25, 21.5)">
    <use height="42.1" id="_p1" transform="matrix(1.0, 0.0, 0.0, 1.0, -19.75, -21.5)" width="57.9" xlink:href="#sprite0"/>
  </g>
  <defs>
    <g id="sprite0" transform="matrix(1.0, 0.0, 0.0, 1.0, 19.6, 24.65)">
      <use height="38.35" id="_col4" transform="matrix(0.9077, 0.0, 0.0, 0.9077, -19.5987, -17.3812)" width="43.2" xlink:href="#sprite1"/>
      <use height="23.9" id="_col3" transform="matrix(1.0, 0.0, 0.0, 1.0, -19.05, -24.65)" width="57.35" xlink:href="#sprite2"/>
    </g>
    <g id="sprite1" transform="matrix(1.0, 0.0, 0.0, 1.0, 23.3, 16.45)">
      <use height="38.35" transform="matrix(1.0, 0.0, 0.0, 1.0, -23.3, -16.45)" width="43.2" xlink:href="#shape0"/>
    </g>
    <g id="shape0" transform="matrix(1.0, 0.0, 0.0, 1.0, 23.3, 16.45)">
      <path d="M-7.45 21.9 L-11.55 21.5 -15.5 20.7 Q-17.6 20.05 -20.7 16.5 -23.85 12.95 -23.15 12.2 L-21.7 10.8 -20.75 9.8 Q-20.45 9.5 -19.65 7.6 L-19.65 6.85 -18.9 3.0 -17.7 3.65 -16.0 3.95 -14.7 4.8 Q-11.5 6.8 -7.85 8.0 L-4.2 8.6 -4.45 9.4 -4.9 10.55 -5.4 12.35 -5.75 14.35 -7.0 15.25 -8.25 15.9 -8.3 15.95 -6.85 17.2 -6.65 17.25 -6.7 17.4 -6.75 17.45 -6.75 17.5 -6.7 17.5 -6.65 18.35 -7.45 21.9 M-22.1 -4.4 Q-21.9 -5.55 -21.15 -6.55 L-19.9 -7.85 Q-16.4 -10.6 -12.15 -11.75 L-12.0 -11.9 -10.95 -12.85 -9.45 -14.0 Q-13.75 -9.75 -14.0 -6.1 -14.25 -2.5 -10.4 -2.35 -6.55 -2.2 3.65 -9.5 L6.85 -11.85 7.7 -12.15 9.4 -12.4 Q12.4 -12.05 13.4 -9.15 13.6 -8.6 13.4 -8.0 L12.65 -6.55 11.15 -4.85 Q9.35 -3.15 7.4 -1.6 6.15 -0.55 4.9 0.35 L5.1 -0.9 5.3 -3.5 5.2 -3.55 5.05 -3.45 4.65 -3.45 Q2.1 -2.25 -0.9 -1.0 -3.95 0.25 -5.2 0.45 L-10.25 0.65 -10.7 0.65 -11.1 0.7 -11.95 0.25 Q-13.6 -0.6 -15.35 -1.15 L-16.35 -1.5 -18.8 -2.25 -18.85 -2.25 -19.35 -2.4 Q-20.0 -2.65 -22.1 -4.4 M5.2 -3.9 L5.2 -3.55 5.2 -3.9 M-19.85 11.4 L-19.65 7.6 -19.85 11.4" fill="#ffffff" fill-rule="evenodd" stroke="none"/>
      <path d="M6.85 -11.85 L12.55 -16.45 14.45 -16.3 Q15.85 -16.15 17.2 -15.25 L19.05 -13.85 19.75 -12.5 19.9 -10.65 Q19.85 -9.1 19.4 -7.6 18.55 -4.9 17.05 -2.35 L14.1 2.45 Q12.7 4.5 10.9 6.2 L4.7 14.1 4.05 15.0 4.35 15.3 Q5.0 16.0 4.95 16.85 L4.95 17.1 Q1.15 20.8 -1.25 21.25 L-7.45 21.9 -6.65 18.35 -6.7 17.5 -6.75 17.5 -6.75 17.45 -6.7 17.4 -6.65 17.25 -6.85 17.2 -8.3 15.95 -8.25 15.9 -7.0 15.25 -5.75 14.35 -5.4 12.35 -4.9 10.55 -4.45 9.4 -4.2 8.6 Q-0.65 8.45 2.5 5.4 3.8 4.1 4.35 2.4 L4.9 0.35 4.35 2.4 Q3.8 4.1 2.5 5.4 -0.65 8.45 -4.2 8.6 L-7.85 8.0 Q-11.5 6.8 -14.7 4.8 L-16.0 3.95 -17.7 3.65 -18.9 3.0 Q-22.0 1.0 -22.2 -2.95 L-22.2 -3.0 -22.2 -3.5 -22.1 -4.4 Q-20.0 -2.65 -19.35 -2.4 L-18.85 -2.25 -18.8 -2.25 -16.35 -1.5 -15.35 -1.15 Q-13.6 -0.6 -11.95 0.25 L-11.1 0.7 -10.7 0.65 -10.25 0.65 -5.2 0.45 Q-3.95 0.25 -0.9 -1.0 2.1 -2.25 4.65 -3.45 L5.05 -3.45 5.2 -3.55 5.3 -3.5 5.1 -0.9 4.9 0.35 Q6.15 -0.55 7.4 -1.6 9.35 -3.15 11.15 -4.85 L12.65 -6.55 13.4 -8.0 Q13.6 -8.6 13.4 -9.15 12.4 -12.05 9.4 -12.4 L7.7 -12.15 6.85 -11.85" fill="#d6baba" fill-rule="evenodd" stroke="none"/>
      <path d="M6.85 -11.85 L12.55 -16.45 14.45 -16.3 Q15.85 -16.15 17.2 -15.25 L19.05 -13.85 19.75 -12.5 19.9 -10.65 Q19.85 -9.1 19.4 -7.6 18.55 -4.9 17.05 -2.35 L14.1 2.45 Q12.7 4.5 10.9 6.2 L4.7 14.1 4.05 15.0 4.35 15.3 Q5.0 16.0 4.95 16.85 L4.95 17.1 Q1.15 20.8 -1.25 21.25 L-7.45 21.9 -11.55 21.5 -15.5 20.7 Q-17.6 20.05 -20.7 16.5 -23.85 12.95 -23.15 12.2 L-21.7 10.8 -20.75 9.8 Q-20.45 9.5 -19.65 7.6 L-19.65 6.85 -18.9 3.0 Q-22.0 1.0 -22.2 -2.95 L-22.2 -3.0 -22.2 -3.5 -22.1 -4.4 Q-21.9 -5.55 -21.15 -6.55 L-19.9 -7.85 Q-16.4 -10.6 -12.15 -11.75 L-12.0 -11.9 -10.95 -12.85 -9.45 -14.0 Q-13.75 -9.75 -14.0 -6.1 -14.25 -2.5 -10.4 -2.35 -6.55 -2.2 3.65 -9.5 L6.85 -11.85 M4.9 0.35 L4.35 2.4 Q3.8 4.1 2.5 5.4 -0.65 8.45 -4.2 8.6 L-7.85 8.0 Q-11.5 6.8 -14.7 4.8 L-16.0 3.95 -17.7 3.65 -18.9 3.0 M-6.75 17.45 L-6.75 17.5 M5.3 -3.5 L5.1 -0.9 4.9 0.35 M5.2 -3.55 L5.2 -3.9 M-19.65 7.6 L-19.85 11.4" fill="none" stroke="#000000" stroke-linecap="round" stroke-linejoin="round" stroke-opacity="0.3019608" stroke-width="0.05"/>
    </g>
    <g id="sprite2" transform="matrix(1.0, 0.0, 0.0, 1.0, 5.7, 16.5)">
      <use height="23.9" transform="matrix(1.0, 0.0, 0.0, 1.0, -5.7, -16.5)" width="57.35" xlink:href="#shape1"/>
    </g>
    <g id="shape1" transform="matrix(1.0, 0.0, 0.0, 1.0, 5.7, 16.5)">
      <path d="M3.5 -8.65 L5.85 -10.45 6.5 -10.8 Q9.25 -11.95 12.2 -12.25 L15.05 -12.55 17.35 -12.0 17.55 -12.85 Q17.55 -14.6 19.4 -15.6 20.75 -16.3 22.05 -16.3 24.5 -16.3 26.3 -14.9 L28.55 -15.65 32.35 -16.5 Q35.45 -16.5 37.4 -14.2 L38.55 -12.45 38.3 -11.7 37.65 -9.4 Q36.95 -7.45 36.95 -6.4 L36.9 -6.2 36.6 -4.8 36.45 -4.8 35.95 -6.15 35.1 -8.25 Q33.7 -10.45 30.0 -10.45 L28.95 -10.35 28.5 -12.05 27.1 -14.15 26.3 -14.9 27.1 -14.15 28.5 -12.05 28.95 -10.35 30.0 -10.45 Q33.7 -10.45 35.1 -8.25 L35.95 -6.15 36.45 -4.8 36.65 -4.3 37.0 -3.3 37.7 -1.5 37.0 -3.3 37.35 -2.95 Q38.0 -2.45 40.05 -1.75 L42.9 -0.5 Q43.9 0.05 44.9 0.05 45.35 0.05 49.3 -1.25 L50.6 -1.65 49.45 -0.75 Q46.95 1.35 45.3 2.1 43.75 2.85 42.1 3.05 L37.9 3.2 Q31.55 3.2 29.2 0.6 28.15 -0.55 27.2 -3.6 26.65 -5.25 26.2 -7.4 24.3 -6.6 22.95 -6.8 L22.75 -6.0 22.5 -5.4 Q21.25 -2.95 19.4 -0.7 L19.1 -0.25 18.4 0.7 Q17.65 1.65 16.25 2.4 14.85 3.65 13.45 4.25 10.95 5.5 8.3 6.4 L8.25 6.3 Q12.2 3.05 13.8 0.85 L14.35 0.05 17.25 -5.2 9.7 -2.05 8.15 -1.1 10.0 -3.0 11.6 -4.65 11.1 -4.5 8.05 -3.7 Q5.45 -2.9 2.65 -2.6 2.75 -4.9 3.15 -7.1 L3.5 -8.65 M17.35 -12.0 L17.9 -11.8 21.1 -10.5 22.85 -9.7 16.25 -6.5 13.7 -5.4 11.6 -4.65 13.7 -5.4 16.25 -6.5 22.85 -9.7 21.1 -10.5 17.9 -11.8 17.35 -12.0 M9.7 -2.05 L11.3 -3.1 Q12.5 -3.8 13.7 -4.6 L16.25 -6.5 13.7 -4.6 Q12.5 -3.8 11.3 -3.1 L9.7 -2.05 M22.85 -9.7 L23.55 -9.7 22.95 -6.8 23.55 -9.7 22.85 -9.7 M28.95 -10.35 L28.95 -9.85 Q28.95 -8.7 26.65 -7.6 L26.2 -7.4 26.65 -7.6 Q28.95 -8.7 28.95 -9.85 L28.95 -10.35 M21.1 -10.5 L23.9 -12.35 Q24.95 -12.9 26.05 -12.9 L26.95 -12.65 Q28.15 -12.1 28.5 -12.05 28.15 -12.1 26.95 -12.65 L26.05 -12.9 Q24.95 -12.9 23.9 -12.35 L21.1 -10.5" fill="#d6baba" fill-rule="evenodd" stroke="none"/>
      <path d="M38.55 -12.45 L40.05 -9.05 41.05 -6.8 Q41.95 -4.85 42.6 -3.95 44.4 -1.65 47.2 -1.65 49.6 -1.65 51.65 -2.35 L50.6 -1.65 49.3 -1.25 Q45.35 0.05 44.9 0.05 43.9 0.05 42.9 -0.5 L40.05 -1.75 Q38.0 -2.45 37.35 -2.95 L37.0 -3.3 36.65 -4.3 36.45 -4.8 36.6 -4.8 36.9 -6.2 36.95 -6.4 Q36.95 -7.45 37.65 -9.4 L38.3 -11.7 38.55 -12.45 M8.3 6.4 L7.9 6.55 7.65 6.65 5.75 7.2 Q2.45 7.8 -0.55 6.45 L-5.7 4.1 Q-2.8 0.35 -0.55 -3.8 0.15 -5.15 1.2 -6.3 L3.5 -8.65 3.15 -7.1 Q2.75 -4.9 2.65 -2.6 5.45 -2.9 8.05 -3.7 L11.1 -4.5 11.6 -4.65 10.0 -3.0 8.15 -1.1 9.7 -2.05 17.25 -5.2 14.35 0.05 13.8 0.85 Q12.2 3.05 8.25 6.3 L8.3 6.4 M0.3 -2.25 L2.65 -2.6 0.3 -2.25 M2.25 0.8 Q4.65 0.65 6.85 -0.4 L7.7 -0.85 8.15 -1.1 7.7 -0.85 6.85 -0.4 Q4.65 0.65 2.25 0.8" fill="#ffffff" fill-rule="evenodd" stroke="none"/>
      <path d="M3.5 -8.65 L5.85 -10.45 6.5 -10.8 Q9.25 -11.95 12.2 -12.25 L15.05 -12.55 17.35 -12.0 17.55 -12.85 Q17.55 -14.6 19.4 -15.6 20.75 -16.3 22.05 -16.3 24.5 -16.3 26.3 -14.9 L28.55 -15.65 32.35 -16.5 Q35.45 -16.5 37.4 -14.2 L38.55 -12.45 40.05 -9.05 41.05 -6.8 Q41.95 -4.85 42.6 -3.95 44.4 -1.65 47.2 -1.65 49.6 -1.65 51.65 -2.35 L50.6 -1.65 49.45 -0.75 Q46.95 1.35 45.3 2.1 43.75 2.85 42.1 3.05 L37.9 3.2 Q31.55 3.2 29.2 0.6 28.15 -0.55 27.2 -3.6 26.65 -5.25 26.2 -7.4 24.3 -6.6 22.95 -6.8 L22.75 -6.0 22.5 -5.4 Q21.25 -2.95 19.4 -0.7 L19.1 -0.25 18.4 0.7 Q17.65 1.65 16.25 2.4 14.85 3.65 13.45 4.25 10.95 5.5 8.3 6.4 L7.9 6.55 M7.65 6.65 L5.75 7.2 Q2.45 7.8 -0.55 6.45 L-5.7 4.1 Q-2.8 0.35 -0.55 -3.8 0.15 -5.15 1.2 -6.3 L3.5 -8.65 3.15 -7.1 Q2.75 -4.9 2.65 -2.6 5.45 -2.9 8.05 -3.7 L11.1 -4.5 11.6 -4.65 13.7 -5.4 16.25 -6.5 22.85 -9.7 21.1 -10.5 17.9 -11.8 17.35 -12.0 M2.65 -2.6 L0.3 -2.25 M9.7 -2.05 L8.15 -1.1 7.7 -0.85 6.85 -0.4 Q4.65 0.65 2.25 0.8 M16.25 -6.5 L13.7 -4.6 Q12.5 -3.8 11.3 -3.1 L9.7 -2.05 M26.3 -14.9 L27.1 -14.15 28.5 -12.05 28.95 -10.35 30.0 -10.45 Q33.7 -10.45 35.1 -8.25 L35.95 -6.15 36.45 -4.8 36.65 -4.3 37.0 -3.3 37.7 -1.5 M28.5 -12.05 Q28.15 -12.1 26.95 -12.65 L26.05 -12.9 Q24.95 -12.9 23.9 -12.35 L21.1 -10.5 M26.2 -7.4 L26.65 -7.6 Q28.95 -8.7 28.95 -9.85 L28.95 -10.35 M22.95 -6.8 L23.55 -9.7 22.85 -9.7" fill="none" stroke="#000000" stroke-linecap="round" stroke-linejoin="round" stroke-opacity="0.3019608" stroke-width="0.05"/>
    </g>
  </defs>
</svg>
