<?xml version="1.0" encoding="UTF-8" standalone="no"?>
<svg xmlns:xlink="http://www.w3.org/1999/xlink" height="47.7px" width="59.4px" xmlns="http://www.w3.org/2000/svg">
  <g transform="matrix(1.0, 0.0, 0.0, 1.0, 21.25, 21.5)">
    <use height="5.2" transform="matrix(1.0, 0.0, 0.0, 1.0, -13.55, -6.6)" width="11.2" xlink:href="#shape0"/>
    <use height="34.3" id="_p1" transform="matrix(1.0, 0.0, 0.0, 1.0, -21.0, -8.1)" width="30.65" xlink:href="#sprite0"/>
  </g>
  <defs>
    <g id="shape0" transform="matrix(1.0, 0.0, 0.0, 1.0, 13.55, 6.6)">
      <path d="M-2.35 -1.65 L-2.55 -1.4 -2.55 -1.5 -2.35 -1.65" fill="#ffffff" fill-rule="evenodd" stroke="none"/>
      <path d="M-11.25 -2.0 L-12.3 -1.85 Q-13.35 -1.85 -13.35 -2.45 L-12.9 -3.15 -13.25 -3.15 -13.55 -3.3 Q-12.6 -4.4 -10.05 -5.75 -7.25 -7.25 -7.25 -6.1 -7.25 -5.8 -8.45 -3.8 L-9.65 -1.85 -10.25 -2.45 -11.25 -2.0" fill="#631300" fill-opacity="0.3529412" fill-rule="evenodd" stroke="none"/>
    </g>
    <g id="sprite0" transform="matrix(1.0, 0.0, 0.0, 1.0, 16.1, 12.95)">
      <use height="23.2" id="_col2" transform="matrix(1.0, 0.0, 0.0, 1.0, -14.6, -11.5)" width="29.15" xlink:href="#sprite1"/>
    </g>
    <g id="sprite1" transform="matrix(1.0, 0.0, 0.0, 1.0, 14.6, 11.5)">
      <use height="23.2" transform="matrix(1.0, 0.0, 0.0, 1.0, -14.6, -11.5)" width="29.15" xlink:href="#shape1"/>
    </g>
    <g id="shape1" transform="matrix(1.0, 0.0, 0.0, 1.0, 14.6, 11.5)">
      <path d="M-13.95 -3.15 Q-12.75 -3.3 -11.0 -4.05 L-9.0 -4.85 -6.9 -2.8 Q-5.1 -0.8 -4.0 -0.75 -0.75 -0.85 0.7 -1.7 L4.15 -4.0 5.65 -4.95 6.5 -3.75 Q9.15 0.6 9.95 1.5 11.95 3.6 14.55 4.25 L11.35 8.35 9.3 7.7 10.25 6.5 10.3 6.4 Q9.25 5.0 8.35 6.3 L7.7 7.25 5.5 6.7 3.8 6.3 4.4 4.95 Q4.4 4.6 3.8 4.45 3.2 4.3 2.9 4.45 L2.25 5.9 -0.6 5.15 Q-1.5 4.9 -5.6 1.95 L-9.9 -0.95 -13.3 -0.45 -9.9 -0.95 -5.6 1.95 Q-1.5 4.9 -0.6 5.15 L2.25 5.9 2.9 4.45 Q3.2 4.3 3.8 4.45 4.4 4.6 4.4 4.95 L3.8 6.3 5.5 6.7 7.7 7.25 8.35 6.3 Q9.25 5.0 10.3 6.4 L10.25 6.5 9.3 7.7 11.35 8.35 Q9.45 10.5 7.75 11.55 -1.85 12.15 -7.4 9.9 -8.15 3.7 -10.25 1.85 L-13.3 -0.4 -13.3 -0.45 -13.85 -2.8 -13.95 -3.15 M7.7 7.25 L6.45 8.85 7.1 9.3 7.75 9.5 9.3 7.7 7.75 9.5 7.1 9.3 6.45 8.85 7.7 7.25 M2.25 5.9 L1.75 7.45 2.3 7.75 2.75 8.2 3.7 6.45 3.8 6.3 3.7 6.45 2.75 8.2 2.3 7.75 1.75 7.45 2.25 5.9" fill="#d6baba" fill-rule="evenodd" stroke="none"/>
      <path d="M5.65 -4.95 L4.15 -4.0 0.7 -1.7 Q-0.75 -0.85 -4.0 -0.75 -5.1 -0.8 -6.9 -2.8 L-9.0 -4.85 -11.0 -4.05 Q-12.75 -3.3 -13.95 -3.15 -14.6 -5.65 -14.6 -8.0 L-14.2 -9.75 -13.7 -10.6 -12.9 -11.3 -12.0 -11.5 Q-11.4 -11.7 -9.25 -10.15 L-7.05 -8.35 -5.55 -8.4 Q-4.05 -8.75 -0.1 -8.4 3.2 -8.15 5.65 -4.95 M-7.4 9.9 Q-9.4 9.05 -10.5 8.25 L-12.1 7.15 -13.0 6.05 Q-12.85 4.55 -13.15 1.25 L-13.3 -0.4 -10.25 1.85 Q-8.15 3.7 -7.4 9.9" fill="#ffffff" fill-rule="evenodd" stroke="none"/>
      <path d="M-13.95 -3.15 L-13.85 -2.8 -13.3 -0.45 M11.35 8.35 L14.55 4.25 Q11.95 3.6 9.95 1.5 9.15 0.6 6.5 -3.75 L5.65 -4.95 Q3.2 -8.15 -0.1 -8.4 -4.05 -8.75 -5.55 -8.4 L-7.05 -8.35 -9.25 -10.15 Q-11.4 -11.7 -12.0 -11.5 L-12.9 -11.3 -13.7 -10.6 -14.2 -9.75 -14.6 -8.0 Q-14.6 -5.65 -13.95 -3.15 M11.35 8.35 Q9.45 10.5 7.75 11.55 -1.85 12.15 -7.4 9.9 -9.4 9.05 -10.5 8.25 L-12.1 7.15 -13.0 6.05 Q-12.85 4.55 -13.15 1.25 L-13.3 -0.4 -13.3 -0.45" fill="none" stroke="#000000" stroke-linecap="round" stroke-linejoin="round" stroke-opacity="0.3019608" stroke-width="0.05"/>
      <path d="M-13.3 -0.45 L-9.9 -0.95 -5.6 1.95 Q-1.5 4.9 -0.6 5.15 L2.25 5.9 2.9 4.45 Q3.2 4.3 3.8 4.45 4.4 4.6 4.4 4.95 L3.8 6.3 5.5 6.7 7.7 7.25 8.35 6.3 Q9.25 5.0 10.3 6.4 L10.25 6.5 9.3 7.7 11.35 8.35 M3.8 6.3 L3.7 6.45 2.75 8.2 2.3 7.75 1.75 7.45 2.25 5.9 M9.3 7.7 L7.75 9.5 7.1 9.3 6.45 8.85 7.7 7.25" fill="none" stroke="#000000" stroke-linecap="round" stroke-linejoin="round" stroke-opacity="0.2" stroke-width="0.05"/>
    </g>
  </defs>
</svg>
