<?xml version="1.0" encoding="UTF-8" standalone="no"?>
<svg xmlns:xlink="http://www.w3.org/1999/xlink" height="47.7px" width="59.4px" xmlns="http://www.w3.org/2000/svg">
  <g transform="matrix(1.0, 0.0, 0.0, 1.0, 21.25, 21.5)">
    <use height="19.05" id="_col3" transform="matrix(1.0, 0.0, 0.0, 1.0, -17.0, -16.8)" width="36.75" xlink:href="#sprite0"/>
    <use height="4.75" transform="matrix(1.0, 0.0, 0.0, 1.0, -13.55, -6.6)" width="6.3" xlink:href="#shape1"/>
    <use height="23.2" id="_p1" transform="matrix(1.0, 0.0, 0.0, 1.0, -19.5, -6.65)" width="29.15" xlink:href="#sprite1"/>
  </g>
  <defs>
    <g id="sprite0" transform="matrix(1.0, 0.0, 0.0, 1.0, 18.35, 9.55)">
      <use height="19.05" transform="matrix(1.0, 0.0, 0.0, 1.0, -18.35, -9.55)" width="36.75" xlink:href="#shape0"/>
    </g>
    <g id="shape0" transform="matrix(1.0, 0.0, 0.0, 1.0, 18.35, 9.55)">
      <path d="M-5.9 6.4 L-3.45 3.1 -1.35 0.4 Q-1.5 2.05 -3.7 5.6 L-3.9 5.75 -3.9 5.85 -3.7 5.6 -3.2 4.95 4.05 -2.95 6.9 -5.65 3.85 -7.05 Q1.9 -7.8 -0.2 -8.0 0.65 -9.75 0.9 -9.5 L9.25 -8.5 Q12.2 -8.0 14.8 -6.9 16.7 -6.15 18.4 -5.1 14.55 -5.25 7.35 -0.75 2.0 2.55 -6.8 9.5 L-6.7 8.9 -6.3 7.45 -6.0 6.7 -5.9 6.4 M-7.8 -6.05 L-10.2 -3.7 -13.05 -0.35 -15.6 3.55 -16.05 3.8 -17.05 5.25 -17.3 5.25 -15.9 1.55 -13.2 -3.8 -12.15 -5.4 -7.9 -6.2 -7.8 -6.05" fill="#d6baba" fill-rule="evenodd" stroke="none"/>
      <path d="M-0.2 -8.0 Q1.9 -7.8 3.85 -7.05 L6.9 -5.65 4.05 -2.95 -3.2 4.95 -3.7 5.6 -3.9 5.85 -3.9 5.75 -3.7 5.6 Q-1.5 2.05 -1.35 0.4 L-3.45 3.1 -5.9 6.4 -2.7 -2.0 -1.95 -3.9 -0.2 -8.0 M-12.15 -5.4 L-13.2 -3.8 -15.9 1.55 -17.3 5.25 -17.65 5.25 -18.35 -3.35 -15.85 -4.3 -12.15 -5.4" fill="#ffffff" fill-rule="evenodd" stroke="none"/>
      <path d="M-6.0 6.7 L-6.3 7.45 -6.7 8.9 -6.8 9.5 Q2.0 2.55 7.35 -0.75 14.55 -5.25 18.4 -5.1 16.7 -6.15 14.8 -6.9 12.2 -8.0 9.25 -8.5 L0.9 -9.5 Q0.65 -9.75 -0.2 -8.0 L-1.95 -3.9 -2.7 -2.0 -5.9 6.4 M-17.3 5.25 L-17.05 5.25 -16.05 3.8 -15.6 3.55 -13.05 -0.35 -10.2 -3.7 -7.8 -6.05 M-7.9 -6.2 L-12.15 -5.4 M-17.3 5.25 L-17.65 5.25 -18.35 -3.35 -15.85 -4.3 -12.15 -5.4" fill="none" stroke="#000000" stroke-linecap="round" stroke-linejoin="round" stroke-opacity="0.3019608" stroke-width="0.05"/>
    </g>
    <g id="shape1" transform="matrix(1.0, 0.0, 0.0, 1.0, 13.55, 6.6)">
      <path d="M-11.25 -2.0 L-12.3 -1.85 Q-13.35 -1.85 -13.35 -2.45 L-12.9 -3.15 -13.25 -3.15 -13.55 -3.3 Q-12.6 -4.4 -10.05 -5.75 -7.25 -7.25 -7.25 -6.1 -7.25 -5.8 -8.45 -3.8 L-9.65 -1.85 -10.25 -2.45 -11.25 -2.0" fill="#631300" fill-opacity="0.3529412" fill-rule="evenodd" stroke="none"/>
    </g>
    <g id="sprite1" transform="matrix(1.0, 0.0, 0.0, 1.0, 14.6, 11.5)">
      <use height="19.85" id="_col2" transform="matrix(1.0, 0.0, 0.0, 1.0, -14.6, -11.5)" width="29.15" xlink:href="#sprite2"/>
      <use height="12.65" id="_col4" transform="matrix(1.0, 0.0, 0.0, 1.0, -13.3, -0.95)" width="24.65" xlink:href="#sprite3"/>
    </g>
    <g id="sprite2" transform="matrix(1.0, 0.0, 0.0, 1.0, 14.6, 11.5)">
      <use height="19.85" transform="matrix(1.0, 0.0, 0.0, 1.0, -14.6, -11.5)" width="29.15" xlink:href="#shape2"/>
    </g>
    <g id="shape2" transform="matrix(1.0, 0.0, 0.0, 1.0, 14.6, 11.5)">
      <path d="M-13.95 -3.15 Q-12.75 -3.3 -11.0 -4.05 L-9.0 -4.85 -6.9 -2.8 Q-5.1 -0.8 -4.0 -0.75 -0.75 -0.85 0.7 -1.7 L4.15 -4.0 5.65 -4.95 6.5 -3.75 Q9.15 0.6 9.95 1.5 11.95 3.6 14.55 4.25 L11.35 8.35 9.3 7.7 5.5 6.7 3.8 6.3 -0.6 5.15 Q-1.5 4.9 -5.6 1.95 L-9.9 -0.95 -13.3 -0.45 -13.85 -2.8 -13.95 -3.15" fill="#d6baba" fill-rule="evenodd" stroke="none"/>
      <path d="M5.65 -4.95 L4.15 -4.0 0.7 -1.7 Q-0.75 -0.85 -4.0 -0.75 -5.1 -0.8 -6.9 -2.8 L-9.0 -4.85 -11.0 -4.05 Q-12.75 -3.3 -13.95 -3.15 -14.6 -5.65 -14.6 -8.0 L-14.2 -9.75 -13.7 -10.6 -12.9 -11.3 -12.0 -11.5 Q-11.4 -11.7 -9.25 -10.15 L-7.05 -8.35 -5.55 -8.4 Q-4.05 -8.75 -0.1 -8.4 3.2 -8.15 5.65 -4.95" fill="#ffffff" fill-rule="evenodd" stroke="none"/>
      <path d="M-13.95 -3.15 L-13.85 -2.8 -13.3 -0.45 M11.35 8.35 L14.55 4.25 Q11.95 3.6 9.95 1.5 9.15 0.6 6.5 -3.75 L5.65 -4.95 Q3.2 -8.15 -0.1 -8.4 -4.05 -8.75 -5.55 -8.4 L-7.05 -8.35 -9.25 -10.15 Q-11.4 -11.7 -12.0 -11.5 L-12.9 -11.3 -13.7 -10.6 -14.2 -9.75 -14.6 -8.0 Q-14.6 -5.65 -13.95 -3.15" fill="none" stroke="#000000" stroke-linecap="round" stroke-linejoin="round" stroke-opacity="0.3019608" stroke-width="0.05"/>
      <path d="M-13.3 -0.45 L-9.9 -0.95 -5.6 1.95 Q-1.5 4.9 -0.6 5.15 L3.8 6.3 5.5 6.7 9.3 7.7 11.35 8.35" fill="none" stroke="#000000" stroke-linecap="round" stroke-linejoin="round" stroke-opacity="0.2" stroke-width="0.05"/>
    </g>
    <g id="sprite3" transform="matrix(1.0, 0.0, 0.0, 1.0, 13.3, 0.95)">
      <use height="12.65" transform="matrix(1.0, 0.0, 0.0, 1.0, -13.3, -0.95)" width="24.65" xlink:href="#shape3"/>
    </g>
    <g id="shape3" transform="matrix(1.0, 0.0, 0.0, 1.0, 13.3, 0.95)">
      <path d="M-13.3 -0.4 L-13.3 -0.45 -9.9 -0.95 -5.6 1.95 Q-1.5 4.9 -0.6 5.15 L3.8 6.3 5.5 6.7 7.7 7.25 11.35 8.35 Q9.45 10.5 7.75 11.55 -1.85 12.15 -7.4 9.9 -8.15 3.7 -10.25 1.85 L-13.3 -0.4" fill="#d6baba" fill-rule="evenodd" stroke="none"/>
      <path d="M-7.4 9.9 Q-9.4 9.05 -10.5 8.25 L-12.1 7.15 -13.0 6.05 Q-12.85 4.55 -13.15 1.25 L-13.3 -0.4 -10.25 1.85 Q-8.15 3.7 -7.4 9.9" fill="#ffffff" fill-rule="evenodd" stroke="none"/>
      <path d="M-13.3 -0.4 L-13.3 -0.45 M11.35 8.35 Q9.45 10.5 7.75 11.55 -1.85 12.15 -7.4 9.9 -9.4 9.05 -10.5 8.25 L-12.1 7.15 -13.0 6.05 Q-12.85 4.55 -13.15 1.25 L-13.3 -0.4" fill="none" stroke="#000000" stroke-linecap="round" stroke-linejoin="round" stroke-opacity="0.3019608" stroke-width="0.05"/>
      <path d="M-13.3 -0.45 L-9.9 -0.95 -5.6 1.95 Q-1.5 4.9 -0.6 5.15 L3.8 6.3 5.5 6.7 7.7 7.25 11.35 8.35" fill="none" stroke="#000000" stroke-linecap="round" stroke-linejoin="round" stroke-opacity="0.2" stroke-width="0.05"/>
    </g>
  </defs>
</svg>
