<?xml version="1.0" encoding="UTF-8" standalone="no"?>
<svg xmlns:xlink="http://www.w3.org/1999/xlink" height="18.4px" width="23.5px" xmlns="http://www.w3.org/2000/svg">
  <g transform="matrix(1.0, 0.0, 0.0, 1.0, 7.7, -0.8)">
    <use height="18.4" transform="matrix(1.0, 0.0, 0.0, 1.0, -7.7, 0.8)" width="23.5" xlink:href="#shape0"/>
  </g>
  <defs>
    <g id="shape0" transform="matrix(1.0, 0.0, 0.0, 1.0, 7.7, -0.8)">
      <path d="M-6.4 3.55 L-5.9 3.3 -4.0 8.1 -3.3 7.8 -5.0 3.0 -4.55 2.85 -2.1 8.15 Q-1.8 9.0 -3.35 9.8 L-0.2 18.6 -1.15 18.9 -4.3 10.1 Q-5.7 10.6 -6.3 9.65 L-7.7 4.0 -7.3 3.8 -5.6 8.6 -5.0 8.4 -6.4 3.55" fill="#733c2f" fill-rule="evenodd" stroke="none"/>
      <path d="M15.1 7.6 L13.95 11.8 12.35 12.65 10.6 19.2 9.65 18.9 14.45 0.8 Q16.8 2.25 15.1 7.6" fill="#733c2f" fill-rule="evenodd" stroke="none"/>
    </g>
  </defs>
</svg>
