<?xml version="1.0" encoding="UTF-8" standalone="no"?>
<svg xmlns:xlink="http://www.w3.org/1999/xlink" height="37.45px" width="17.4px" xmlns="http://www.w3.org/2000/svg">
  <g transform="matrix(1.0, 0.0, 0.0, 1.0, 8.7, 14.9)">
    <use height="37.35" id="_col2" transform="matrix(1.0206, 0.0, 0.0, 1.0027, -8.4228, -14.8998)" width="16.75" xlink:href="#sprite0"/>
    <use height="20.15" transform="matrix(1.0, 0.0, 0.0, 1.0, -5.4, -7.35)" width="1.0" xlink:href="#shape1"/>
  </g>
  <defs>
    <g id="sprite0" transform="matrix(1.0, 0.0, 0.0, 1.0, 8.4, 18.65)">
      <use height="37.35" transform="matrix(1.0, 0.0, 0.0, 1.0, -8.4, -18.65)" width="16.75" xlink:href="#shape0"/>
    </g>
    <g id="shape0" transform="matrix(1.0, 0.0, 0.0, 1.0, 8.4, 18.65)">
      <path d="M0.35 18.7 Q-0.8 11.7 -0.65 11.15 -0.1 3.65 0.15 -5.25 L0.05 -18.6 Q3.95 -18.45 6.35 -16.1 L6.9 -15.65 8.0 -13.35 Q8.95 -2.1 7.25 12.75 7.05 14.2 5.9 16.35 4.7 18.45 0.35 18.7" fill="#c6886a" fill-rule="evenodd" stroke="none"/>
      <path d="M0.05 -18.6 L0.15 -5.25 Q-0.1 3.65 -0.65 11.15 -0.8 11.7 0.35 18.7 -4.1 17.8 -5.65 16.3 -7.25 14.75 -7.3 12.05 -9.05 0.05 -8.0 -13.5 -7.25 -15.05 -6.3 -16.15 L-4.7 -17.4 Q-2.8 -18.9 0.05 -18.6" fill="#efcdaf" fill-rule="evenodd" stroke="none"/>
      <path d="M5.9 16.35 Q7.05 14.2 7.25 12.75 8.95 -2.1 8.0 -13.35 L6.9 -15.65 M-6.3 -16.15 Q-7.25 -15.05 -8.0 -13.5 -9.05 0.05 -7.3 12.05 -7.25 14.75 -5.65 16.3" fill="none" stroke="#000000" stroke-linecap="round" stroke-linejoin="round" stroke-opacity="0.3019608" stroke-width="0.05"/>
    </g>
    <g id="shape1" transform="matrix(1.0, 0.0, 0.0, 1.0, 5.4, 7.35)">
      <path d="M-4.8 -6.25 L-4.85 -5.15 -4.7 0.5 -4.6 6.85 -4.4 9.95 -4.55 11.45 -4.6 12.8 -4.7 12.8 Q-5.45 10.6 -5.4 7.9 L-5.2 3.15 -5.35 -7.2 -5.3 -7.35 -5.2 -7.35 Q-4.8 -6.95 -4.8 -6.25" fill="#ffffff" fill-rule="evenodd" stroke="none"/>
    </g>
  </defs>
</svg>
