<?xml version="1.0" encoding="UTF-8" standalone="no"?>
<svg xmlns:xlink="http://www.w3.org/1999/xlink" height="77.95px" width="243.45px" xmlns="http://www.w3.org/2000/svg">
  <g transform="matrix(1.0, 0.0, 0.0, 1.0, 1.45, 4.9)">
    <use height="65.95" id="32r()" transform="matrix(1.0, 0.0, 0.0, 1.0, 0.0, 7.1)" width="242.0" xlink:href="#sprite0"/>
    <use height="6.45" transform="matrix(1.0, 0.0, 0.0, 1.0, 7.15, 7.8)" width="173.95" xlink:href="#sprite1"/>
    <use height="12.0" transform="matrix(1.0, 0.0, 0.0, 1.0, 2.0, 16.75)" width="238.0" xlink:href="#shape2"/>
    <use height="4.0" id="[wH" transform="matrix(1.0, 0.0, 0.0, 1.0, 6.0, 20.75)" width="230.0" xlink:href="#sprite2"/>
    <use height="4.0" id="+(*" transform="matrix(1.0, 0.0, 0.0, 1.0, 6.0, 20.75)" width="230.0" xlink:href="#sprite3"/>
    <use height="39.85" transform="matrix(1.0, 0.0, 0.0, 1.0, 3.05, 30.85)" width="44.3" xlink:href="#shape5"/>
    <clipPath id="clipPath0" transform="matrix(1.0, 0.0, 0.0, 1.0, 1.45, 4.9)">
      <use height="39.85" transform="matrix(1.0, 0.0, 0.0, 1.0, 3.05, 30.85)" width="44.3" xlink:href="#shape6"/>
    </clipPath>
    <g clip-path="url(#clipPath0)">
      <use height="20.0" id="4,F" transform="matrix(1.0, 0.0, 0.0, 1.0, 2.8, 30.8)" width="20.0" xlink:href="#sprite4"/>
    </g>
    <use height="38.0" id="+Da3+" transform="matrix(1.5, 0.0, 0.0, 1.0, -1.45, -4.9)" width="143.05" xlink:href="#text0"/>
  </g>
  <defs>
    <g id="sprite0" transform="matrix(1.0, 0.0, 0.0, 1.0, 121.0, 32.95)">
      <use height="65.95" transform="matrix(1.0, 0.0, 0.0, 1.0, -121.0, -32.95)" width="242.0" xlink:href="#shape0"/>
    </g>
    <g id="shape0" transform="matrix(1.0, 0.0, 0.0, 1.0, 121.0, 32.95)">
      <path d="M121.0 -21.3 L121.0 -13.3 Q121.0 -11.65 119.85 -10.45 118.65 -9.3 117.0 -9.3 L-67.6 -9.3 Q-68.9 -9.1 -69.8 -8.15 -71.0 -7.0 -71.0 -5.4 L-71.0 29.05 Q-71.0 30.65 -72.15 31.85 -73.35 33.0 -75.0 33.0 L-117.0 33.0 Q-118.65 33.0 -119.8 31.85 -121.0 30.65 -121.0 29.0 L-121.0 -13.0 -121.0 -13.15 -121.0 -13.3 -121.0 -21.3 Q-121.0 -22.2 -120.65 -22.9 L-120.65 -32.95 59.65 -32.95 66.5 -25.3 117.0 -25.3 Q118.65 -25.3 119.85 -24.1 121.0 -22.95 121.0 -21.3" fill="#875f38" fill-rule="evenodd" stroke="none"/>
      <path d="M121.0 -21.3 L121.0 -13.3 Q121.0 -11.65 119.85 -10.45 118.65 -9.3 117.0 -9.3 L-67.6 -9.3 Q-68.9 -9.1 -69.8 -8.15 -71.0 -7.0 -71.0 -5.4 L-71.0 29.05 Q-71.0 30.65 -72.15 31.85 -73.35 33.0 -75.0 33.0 L-117.0 33.0 Q-118.65 33.0 -119.8 31.85 -121.0 30.65 -121.0 29.0 L-121.0 -13.0 -121.0 -13.15 -121.0 -13.3 -121.0 -21.3 Q-121.0 -22.2 -120.65 -22.9 L-120.65 -32.95 59.65 -32.95 66.5 -25.3 117.0 -25.3 Q118.65 -25.3 119.85 -24.1 121.0 -22.95 121.0 -21.3 Z" fill="none" stroke="#000000" stroke-linecap="round" stroke-linejoin="round" stroke-opacity="0.5019608" stroke-width="0.05"/>
    </g>
    <g id="sprite1" transform="matrix(1.0, 0.0, 0.0, 1.0, 0.0, 0.0)">
      <use height="6.45" transform="matrix(1.0, 0.0, 0.0, 1.0, 0.0, 0.0)" width="173.95" xlink:href="#shape1"/>
    </g>
    <g id="shape1" transform="matrix(1.0, 0.0, 0.0, 1.0, 0.0, 0.0)">
      <path d="M173.9 4.55 Q172.05 5.8 169.85 6.25 L169.4 6.0 170.3 4.55 165.05 3.7 Q164.85 3.75 164.75 3.9 163.7 5.05 162.05 5.35 L161.0 5.4 158.65 2.5 158.45 2.25 158.75 2.0 161.65 4.45 163.05 4.3 163.9 3.3 Q166.55 2.1 169.45 3.2 L170.85 4.15 170.2 5.85 173.05 4.15 172.3 3.05 173.95 4.55 173.9 4.55 M156.1 3.9 Q155.25 6.45 152.15 6.4 150.6 6.65 149.5 5.45 146.25 4.7 143.1 5.85 L141.8 5.9 141.75 5.65 Q145.85 3.5 150.0 5.2 153.25 6.6 155.35 3.9 L154.55 3.3 Q146.65 1.9 138.75 3.4 137.3 3.8 135.65 4.55 L134.4 5.0 Q131.0 5.45 130.55 2.45 132.15 4.8 135.25 4.2 136.4 3.9 137.2 3.2 138.9 1.75 141.1 1.1 L144.25 1.4 Q146.0 2.1 148.15 1.95 152.3 1.15 155.55 3.3 L156.1 3.9 M129.15 3.05 Q129.2 6.35 125.8 5.95 123.6 5.45 121.75 4.6 120.4 4.05 120.3 2.7 L121.25 2.4 Q123.6 5.1 127.1 4.6 127.6 4.75 128.0 4.3 128.65 3.6 128.4 2.85 L126.05 2.75 127.2 3.45 125.45 3.65 Q125.75 1.85 127.75 2.05 128.65 2.15 129.15 3.05 M116.75 2.8 Q110.4 2.1 104.9 5.25 104.05 5.8 103.05 5.65 L99.85 4.8 98.2 4.2 101.3 3.35 93.25 2.9 Q90.4 3.45 87.65 4.85 84.9 6.15 82.0 5.4 L81.65 1.85 82.45 4.55 Q86.3 5.5 90.0 3.25 91.15 2.6 92.5 2.3 97.5 1.5 102.5 2.25 L102.55 2.85 101.35 4.5 Q104.4 5.9 107.05 3.8 107.65 3.4 108.45 3.3 111.85 2.25 115.55 2.3 L116.75 2.8 M117.6 3.6 L117.35 3.05 118.15 3.35 Q116.75 5.7 114.1 5.0 L113.85 3.8 115.6 3.45 114.55 4.25 116.15 4.7 117.6 3.6 M76.25 1.05 Q79.0 0.15 79.15 3.0 L78.8 4.1 Q77.5 5.75 75.9 5.05 L78.35 2.8 76.25 1.05 M74.45 5.0 L71.3 5.1 73.25 3.6 72.35 2.15 74.5 2.25 74.45 5.0 M66.8 1.65 Q63.1 2.7 59.05 2.3 53.5 1.9 48.6 4.2 L47.1 4.55 Q44.1 4.3 43.3 2.1 L44.4 1.85 44.85 2.45 Q46.8 4.15 48.95 3.0 L49.95 2.25 Q56.7 0.05 63.75 1.4 L66.25 1.35 67.55 0.85 69.55 0.6 68.65 1.2 70.15 3.5 Q66.75 6.35 61.85 5.65 L61.55 5.25 56.65 5.4 56.65 4.65 54.9 4.55 57.2 3.75 57.0 4.5 Q61.9 4.85 66.7 4.65 68.95 4.5 69.5 3.0 L66.8 1.65 M35.9 4.5 L34.7 3.75 Q34.55 1.45 37.05 1.9 L37.25 2.05 35.55 3.2 Q38.0 4.3 40.7 2.55 37.7 0.2 33.55 0.8 29.45 1.65 25.5 3.2 23.5 4.05 21.3 4.2 19.3 4.4 17.3 4.15 16.0 3.8 15.5 2.7 14.35 5.65 10.25 5.8 6.15 6.05 2.65 3.8 L1.6 3.3 0.05 5.1 0.0 3.5 1.75 2.6 Q5.9 5.1 10.55 5.3 13.1 4.8 14.6 2.7 L12.05 2.3 12.95 3.1 10.8 3.35 Q11.2 0.55 14.1 0.5 L15.05 0.95 15.55 2.35 17.65 2.6 16.0 2.55 Q19.75 5.2 23.9 3.3 30.75 0.05 38.35 0.0 41.2 -0.05 41.45 2.8 39.15 4.7 35.9 4.5" fill="#d7ba4a" fill-rule="evenodd" stroke="none"/>
    </g>
    <g id="shape2" transform="matrix(1.0, 0.0, 0.0, 1.0, -2.0, -16.75)">
      <path d="M240.0 20.75 L240.0 24.75 Q240.0 26.4 238.85 27.6 237.65 28.75 236.0 28.75 L6.0 28.75 Q4.35 28.75 3.2 27.6 2.0 26.4 2.0 24.75 L2.0 20.75 Q2.0 19.1 3.2 17.95 4.35 16.75 6.0 16.75 L236.0 16.75 Q237.65 16.75 238.85 17.95 240.0 19.1 240.0 20.75" fill="#282313" fill-rule="evenodd" stroke="none"/>
    </g>
    <g id="sprite2" transform="matrix(1.0, 0.0, 0.0, 1.0, 0.0, 0.0)">
      <use height="4.0" transform="matrix(1.0, 0.0, 0.0, 1.0, 0.0, 0.0)" width="230.0" xlink:href="#shape3"/>
    </g>
    <g id="shape3" transform="matrix(1.0, 0.0, 0.0, 1.0, 0.0, 0.0)">
      <path d="M230.0 4.0 L0.0 4.0 0.0 0.0 230.0 0.0 230.0 4.0" fill="#ff0000" fill-rule="evenodd" stroke="none"/>
    </g>
    <g id="sprite3" transform="matrix(1.0, 0.0, 0.0, 1.0, 0.0, 0.0)">
      <use height="4.0" transform="matrix(1.0, 0.0, 0.0, 1.0, 0.0, 0.0)" width="230.0" xlink:href="#shape4"/>
    </g>
    <g id="shape4" transform="matrix(1.0, 0.0, 0.0, 1.0, 0.0, 0.0)">
      <path d="M230.0 4.0 L0.0 4.0 0.0 0.0 230.0 0.0 230.0 4.0" fill="url(#gradient0)" fill-rule="evenodd" stroke="none"/>
    </g>
    <linearGradient gradientTransform="matrix(0.0, 0.0024, -0.1404, 0.0, 115.0, 2.0)" gradientUnits="userSpaceOnUse" id="gradient0" spreadMethod="pad" x1="-819.2" x2="819.2">
      <stop offset="0.0" stop-color="#ffff00"/>
      <stop offset="1.0" stop-color="#ffcc00"/>
    </linearGradient>
    <g id="shape5" transform="matrix(1.0, 0.0, 0.0, 1.0, -3.05, -30.85)">
      <path d="M47.35 34.2 L47.35 67.4 Q47.35 68.75 46.4 69.75 45.4 70.7 44.0 70.7 L6.35 70.7 Q5.0 70.7 4.05 69.75 3.05 68.75 3.05 67.4 L3.05 34.2 Q3.05 32.8 4.05 31.85 5.0 30.85 6.35 30.85 L44.0 30.85 Q45.4 30.85 46.4 31.85 47.35 32.8 47.35 34.2" fill="url(#gradient1)" fill-rule="evenodd" stroke="none"/>
    </g>
    <linearGradient gradientTransform="matrix(0.0079, -0.0052, 0.0183, 0.0281, 24.9, 50.95)" gradientUnits="userSpaceOnUse" id="gradient1" spreadMethod="pad" x1="-819.2" x2="819.2">
      <stop offset="0.0" stop-color="#bf5000"/>
      <stop offset="1.0" stop-color="#ff9900"/>
    </linearGradient>
    <g id="shape6" transform="matrix(1.0, 0.0, 0.0, 1.0, -3.05, -30.85)">
      <path d="M46.4 31.85 Q47.35 32.8 47.35 34.2 L47.35 67.4 Q47.35 68.75 46.4 69.75 45.4 70.7 44.0 70.7 L6.35 70.7 Q5.0 70.7 4.05 69.75 3.05 68.75 3.05 67.4 L3.05 34.2 Q3.05 32.8 4.05 31.85 5.0 30.85 6.35 30.85 L44.0 30.85 Q45.4 30.85 46.4 31.85" fill="#000000" fill-rule="evenodd" stroke="none"/>
    </g>
    <g id="sprite4" transform="matrix(1.0, 0.0, 0.0, 1.0, 0.0, -0.05)">
      <use height="4.0" transform="matrix(0.087, 0.0, 0.0, 4.9998, 0.0, 0.05)" width="230.0" xlink:href="#shape3"/>
    </g>
  </defs>
</svg>
