<?xml version="1.0" encoding="UTF-8" standalone="no"?>
<svg xmlns:xlink="http://www.w3.org/1999/xlink" height="73.85px" width="299.75px" xmlns="http://www.w3.org/2000/svg">
  <g transform="matrix(1.0, 0.0, 0.0, 1.0, 0.0, 0.0)">
    <path d="M299.75 30.4 L299.75 44.25 285.35 44.25 285.35 30.4 285.25 30.4 285.25 30.25 299.7 30.25 299.7 30.4 299.75 30.4 M285.25 45.15 L285.25 45.0 299.7 45.0 299.7 45.15 299.75 45.15 299.75 59.0 285.35 59.0 285.35 45.15 285.25 45.15 M299.7 60.0 L299.75 60.0 299.75 73.85 285.35 73.85 285.35 60.0 285.25 60.0 285.25 59.85 299.7 59.85 299.7 60.0" fill="#7bad30" fill-rule="evenodd" stroke="none"/>
    <path d="M284.75 30.4 L284.75 44.25 270.35 44.25 270.35 30.4 270.25 30.4 270.25 30.25 284.7 30.25 284.7 30.4 284.75 30.4 M284.75 45.15 L284.75 59.0 270.35 59.0 270.35 45.15 270.25 45.15 270.25 45.0 284.7 45.0 284.7 45.15 284.75 45.15 M270.35 60.0 L270.25 60.0 270.25 59.85 284.7 59.85 284.7 60.0 284.75 60.0 284.75 73.85 270.35 73.85 270.35 60.0" fill="#b78104" fill-rule="evenodd" stroke="none"/>
    <path d="M255.25 30.25 L269.7 30.25 269.7 30.4 269.75 30.4 269.75 44.25 255.35 44.25 255.35 30.4 255.25 30.4 255.25 30.25 M255.25 45.0 L269.7 45.0 269.7 45.15 269.75 45.15 269.75 59.0 255.35 59.0 255.35 45.15 255.25 45.15 255.25 45.0 M269.7 60.0 L269.75 60.0 269.75 73.85 255.35 73.85 255.35 60.0 255.25 60.0 255.25 59.85 269.7 59.85 269.7 60.0" fill="#bb1111" fill-rule="evenodd" stroke="none"/>
    <path d="M254.7 30.4 L254.75 30.4 254.75 44.25 240.35 44.25 240.35 30.4 240.25 30.4 240.25 30.25 254.7 30.25 254.7 30.4 M254.75 45.15 L254.75 59.0 240.35 59.0 240.35 45.15 240.25 45.15 240.25 45.0 254.7 45.0 254.7 45.15 254.75 45.15 M254.75 73.85 L240.35 73.85 240.35 60.0 240.25 60.0 240.25 59.85 254.7 59.85 254.7 60.0 254.75 60.0 254.75 73.85" fill="#559399" fill-rule="evenodd" stroke="none"/>
    <path d="M210.25 30.4 L210.25 30.25 224.7 30.25 224.7 30.4 224.75 30.4 224.75 44.25 210.35 44.25 210.35 30.4 210.25 30.4 M210.25 45.0 L224.7 45.0 224.7 45.15 224.75 45.15 224.75 59.0 210.35 59.0 210.35 45.15 210.25 45.15 210.25 45.0 M224.75 60.0 L224.75 73.85 210.35 73.85 210.35 60.0 210.25 60.0 210.25 59.85 224.7 59.85 224.7 60.0 224.75 60.0" fill="#fae31f" fill-rule="evenodd" stroke="none"/>
    <path d="M209.75 30.4 L209.75 44.25 195.35 44.25 195.35 30.4 195.25 30.4 195.25 30.25 209.7 30.25 209.7 30.4 209.75 30.4 M209.75 45.15 L209.75 59.0 195.35 59.0 195.35 45.15 195.25 45.15 195.25 45.0 209.7 45.0 209.7 45.15 209.75 45.15 M195.25 59.85 L209.7 59.85 209.7 60.0 209.75 60.0 209.75 73.85 195.35 73.85 195.35 60.0 195.25 60.0 195.25 59.85 M149.5 15.6 L149.5 29.45 135.1 29.45 135.1 15.6 135.0 15.6 135.0 15.45 149.45 15.45 149.45 15.6 149.5 15.6" fill="#784129" fill-rule="evenodd" stroke="none"/>
    <path d="M225.25 44.25 L225.25 30.25 239.75 30.25 239.75 44.25 225.25 44.25 M239.75 45.0 L239.75 59.0 225.25 59.0 225.25 45.0 239.75 45.0 M225.25 59.85 L239.75 59.85 239.75 73.85 225.25 73.85 225.25 59.85" fill="#7a73c8" fill-rule="evenodd" stroke="none"/>
    <path d="M195.1 0.15 L195.0 0.15 195.0 0.0 195.1 0.0 195.1 0.15 M164.45 30.15 L164.5 30.15 164.5 44.0 150.1 44.0 150.1 30.15 150.0 30.15 150.0 30.0 164.45 30.0 164.45 30.15 M164.5 45.15 L164.5 59.0 150.1 59.0 150.1 45.15 150.0 45.15 150.0 45.0 164.45 45.0 164.45 45.15 164.5 45.15 M164.5 60.0 L164.5 73.85 150.1 73.85 150.1 60.0 150.0 60.0 150.0 59.85 164.45 59.85 164.45 60.0 164.5 60.0 M29.45 15.15 L29.5 15.15 29.5 29.5 15.1 29.5 15.1 15.15 15.1 15.0 29.45 15.0 29.45 15.15" fill="#fff9ae" fill-rule="evenodd" stroke="none"/>
    <path d="M179.45 30.15 L179.5 30.15 179.5 44.0 165.1 44.0 165.1 30.15 165.0 30.15 165.0 30.0 179.45 30.0 179.45 30.15 M165.0 45.15 L165.0 45.0 179.45 45.0 179.45 45.15 179.5 45.15 179.5 59.0 165.1 59.0 165.1 45.15 165.0 45.15 M179.5 60.0 L179.5 73.85 165.1 73.85 165.1 60.0 165.0 60.0 165.0 59.85 179.45 59.85 179.45 60.0 179.5 60.0" fill="#f0dc99" fill-rule="evenodd" stroke="none"/>
    <path d="M180.25 30.25 L194.65 30.25 194.65 30.4 194.75 30.4 194.75 44.25 180.25 44.25 180.25 30.25 M194.75 45.15 L194.75 59.0 180.25 59.0 180.25 45.0 194.65 45.0 194.65 45.15 194.75 45.15 M194.75 73.85 L180.25 73.85 180.25 59.85 194.65 59.85 194.65 60.0 194.75 60.0 194.75 73.85" fill="#b6e7a9" fill-rule="evenodd" stroke="none"/>
    <path d="M135.0 30.0 L149.45 30.0 149.45 30.15 149.5 30.15 149.5 44.0 135.1 44.0 135.1 30.15 135.0 30.15 135.0 30.0 M135.0 45.0 L149.45 45.0 149.45 45.15 149.5 45.15 149.5 59.0 135.1 59.0 135.1 45.15 135.0 45.15 135.0 45.0 M149.5 73.85 L135.1 73.85 135.1 60.0 135.0 60.0 135.0 59.85 149.45 59.85 149.45 60.0 149.5 60.0 149.5 73.85" fill="#d31818" fill-rule="evenodd" stroke="none"/>
    <path d="M134.5 30.15 L134.5 44.0 120.1 44.0 120.1 30.15 120.0 30.15 120.0 30.0 134.45 30.0 134.45 30.15 134.5 30.15 M134.5 45.15 L134.5 59.0 120.1 59.0 120.1 45.15 120.0 45.15 120.0 45.0 134.45 45.0 134.45 45.15 134.5 45.15 M134.7 29.65 L120.2 29.65 120.2 15.15 134.7 15.15 134.7 29.65 M120.0 60.0 L120.0 59.85 134.45 59.85 134.45 60.0 134.5 60.0 134.5 73.85 120.1 73.85 120.1 60.0 120.0 60.0" fill="#b85f1d" fill-rule="evenodd" stroke="none"/>
    <path d="M104.5 15.15 L104.55 15.15 104.55 15.3 104.6 15.3 104.6 29.65 90.2 29.65 90.2 29.5 90.2 15.15 104.5 15.15" fill="#4f677d" fill-rule="evenodd" stroke="none"/>
    <path d="M90.2 29.5 L90.1 29.5 90.1 15.15 90.0 15.15 90.0 15.0 104.45 15.0 104.45 15.15 104.5 15.15 90.2 15.15 90.2 29.5 M89.65 30.15 L89.65 30.3 89.7 30.3 89.7 44.65 75.3 44.65 75.3 44.0 75.1 44.0 75.1 30.15 75.0 30.15 75.0 30.0 89.45 30.0 89.45 30.15 89.65 30.15 M89.45 45.15 L89.5 45.15 89.5 59.0 75.1 59.0 75.1 45.15 75.0 45.15 75.0 45.0 89.45 45.0 89.45 45.15 M89.7 59.5 L75.3 59.5 75.3 59.4 89.7 59.4 89.7 59.5 M89.5 73.85 L75.1 73.85 75.1 60.0 75.0 60.0 75.0 59.85 89.45 59.85 89.45 60.0 89.5 60.0 89.5 73.85" fill="#97cbff" fill-rule="evenodd" stroke="none"/>
    <path d="M105.2 29.5 L105.1 29.5 105.1 15.15 105.0 15.15 105.0 15.0 119.45 15.0 119.45 15.15 119.5 15.15 105.2 15.15 105.2 29.5 M90.0 30.0 L104.45 30.0 104.45 30.15 104.8 30.15 104.8 44.65 90.3 44.65 90.3 44.0 90.1 44.0 90.1 30.15 90.0 30.15 90.0 30.0 M90.0 45.0 L104.45 45.0 104.45 45.15 104.5 45.15 104.5 59.0 90.1 59.0 90.1 45.15 90.0 45.15 90.0 45.0 M104.8 59.5 L90.3 59.5 90.3 59.4 104.8 59.4 104.8 59.5 M104.5 60.0 L104.5 73.85 90.1 73.85 90.1 60.0 90.0 60.0 90.0 59.85 104.45 59.85 104.45 60.0 104.5 60.0" fill="#8ba3d7" fill-rule="evenodd" stroke="none"/>
    <path d="M119.5 15.15 L119.7 15.15 119.7 29.65 105.2 29.65 105.2 29.5 105.2 15.15 119.5 15.15 M119.8 30.15 L119.8 44.65 105.3 44.65 105.3 44.0 105.1 44.0 105.1 30.15 105.0 30.15 105.0 30.0 119.45 30.0 119.45 30.15 119.8 30.15 M105.0 45.0 L119.45 45.0 119.45 45.15 119.5 45.15 119.5 59.0 105.1 59.0 105.1 45.15 105.0 45.15 105.0 45.0 M119.5 60.0 L119.5 73.85 105.1 73.85 105.1 60.0 105.0 60.0 105.0 59.85 119.45 59.85 119.45 60.0 119.5 60.0 M119.8 59.5 L105.3 59.5 105.3 59.4 119.8 59.4 119.8 59.5" fill="#df7e37" fill-rule="evenodd" stroke="none"/>
    <path d="M75.1 0.0 L89.45 0.0 89.45 0.15 89.5 0.15 89.5 14.5 75.1 14.5 75.1 0.15 75.1 0.0" fill="#996600" fill-rule="evenodd" stroke="none"/>
    <path d="M75.1 0.15 L75.0 0.15 75.0 0.0 75.1 0.0 75.1 0.15 M75.1 15.15 L75.0 15.15 75.0 15.0 89.45 15.0 89.45 15.15 89.5 15.15 75.1 15.15 M60.0 30.0 L74.45 30.0 74.45 30.15 74.6 30.15 74.6 30.3 74.7 30.3 74.7 44.65 60.3 44.65 60.3 44.55 60.2 44.55 60.2 44.0 60.1 44.0 60.1 30.15 60.0 30.15 60.0 30.0 M60.0 45.0 L74.45 45.0 74.45 45.15 74.5 45.15 74.5 59.0 60.1 59.0 60.1 45.15 60.0 45.15 60.0 45.0 M74.7 59.5 L60.3 59.5 60.3 59.4 74.7 59.4 74.7 59.5 M74.5 73.85 L60.1 73.85 60.1 60.0 60.0 60.0 60.0 59.85 74.45 59.85 74.45 60.0 74.5 60.0 74.5 73.85" fill="#d5eaff" fill-rule="evenodd" stroke="none"/>
    <path d="M89.5 15.15 L89.5 15.3 89.6 15.3 89.6 29.65 75.2 29.65 75.2 29.55 75.1 29.55 75.1 15.15 89.5 15.15" fill="#fbcd15" fill-rule="evenodd" stroke="none"/>
    <path d="M74.5 14.5 L60.0 14.5 60.0 0.0 74.5 0.0 74.5 14.5" fill="#eccd57" fill-rule="evenodd" stroke="none"/>
    <path d="M44.5 0.15 L44.5 14.5 30.1 14.5 30.1 0.15 30.0 0.15 30.0 0.0 44.45 0.0 44.45 0.15 44.5 0.15" fill="#cb841b" fill-rule="evenodd" stroke="none"/>
    <path d="M44.45 15.15 L44.5 15.15 44.5 29.5 30.1 29.5 30.1 15.15 30.0 15.15 30.0 15.0 44.45 15.0 44.45 15.15 M44.6 30.15 L44.6 44.5 30.2 44.5 30.2 44.0 30.1 44.0 30.1 30.15 30.0 30.15 30.0 30.0 44.55 30.0 44.55 30.15 44.6 30.15 M44.5 45.15 L44.5 59.0 30.1 59.0 30.1 45.15 30.0 45.15 30.0 45.0 44.45 45.0 44.45 45.15 44.5 45.15 M30.1 60.0 L30.0 60.0 30.0 59.85 44.45 59.85 44.45 60.0 44.5 60.0 44.5 73.85 30.1 73.85 30.1 60.0" fill="#ffaa1e" fill-rule="evenodd" stroke="none"/>
    <path d="M45.0 14.5 L45.0 0.0 59.5 0.0 59.5 14.5 45.0 14.5" fill="#d79b75" fill-rule="evenodd" stroke="none"/>
    <path d="M59.5 15.0 L59.5 29.5 45.0 29.5 45.0 15.0 59.5 15.0" fill="#952f04" fill-rule="evenodd" stroke="none"/>
    <path d="M45.0 44.0 L45.0 30.0 59.6 30.0 59.6 44.5 45.1 44.5 45.1 44.0 45.0 44.0 M59.5 45.0 L59.5 59.0 45.0 59.0 45.0 45.0 59.5 45.0 M59.5 73.85 L45.0 73.85 45.0 59.85 59.5 59.85 59.5 73.85" fill="#cbff97" fill-rule="evenodd" stroke="none"/>
    <path d="M74.5 15.0 L74.5 29.5 60.0 29.5 60.0 15.0 74.5 15.0" fill="#a2886f" fill-rule="evenodd" stroke="none"/>
    <path d="M29.5 0.15 L29.5 14.5 15.1 14.5 15.1 0.15 15.0 0.15 15.0 0.0 29.45 0.0 29.45 0.15 29.5 0.15" fill="#fbe6c8" fill-rule="evenodd" stroke="none"/>
    <path d="M29.5 15.15 L29.45 15.15 29.5 15.15 M15.1 15.0 L15.1 15.15 15.0 15.15 15.0 15.0 15.1 15.0 M15.0 30.0 L29.55 30.0 29.55 30.15 29.6 30.15 29.6 44.5 15.2 44.5 15.2 44.0 15.1 44.0 15.1 30.15 15.0 30.15 15.0 30.0 M15.0 45.15 L15.0 45.0 29.45 45.0 29.45 45.15 29.5 45.15 29.5 59.0 15.1 59.0 15.1 45.15 15.0 45.15 M29.45 60.0 L29.5 60.0 29.5 73.85 15.1 73.85 15.1 60.0 15.0 60.0 15.0 59.85 29.45 59.85 29.45 60.0" fill="#ffcc79" fill-rule="evenodd" stroke="none"/>
    <path d="M14.4 0.15 L14.5 0.15 14.5 14.5 0.1 14.5 0.1 14.4 0.0 14.4 0.0 0.0 14.4 0.0 14.4 0.15" fill="#f8d198" fill-rule="evenodd" stroke="none"/>
    <path d="M14.4 15.15 L14.5 15.15 14.5 29.5 0.1 29.5 0.1 29.4 0.0 29.4 0.0 15.0 14.4 15.0 14.4 15.15 M14.5 30.15 L14.6 30.15 14.6 44.5 0.1 44.5 0.1 44.4 0.0 44.4 0.0 30.0 14.5 30.0 14.5 30.15 M14.4 45.15 L14.5 45.15 14.5 59.0 0.0 59.0 0.0 45.0 14.4 45.0 14.4 45.15 M14.5 60.0 L14.5 73.85 0.0 73.85 0.0 59.85 14.4 59.85 14.4 60.0 14.5 60.0" fill="#fff2df" fill-rule="evenodd" stroke="none"/>
  </g>
</svg>
