<?xml version="1.0" encoding="UTF-8" standalone="no"?>
<svg xmlns:xlink="http://www.w3.org/1999/xlink" height="16.4px" width="14.15px" xmlns="http://www.w3.org/2000/svg">
  <g transform="matrix(1.0, 0.0, 0.0, 1.0, -3.05, 3.5)">
    <path d="M16.6 6.9 Q15.55 8.55 14.95 8.35 14.3 8.1 14.3 6.35 L14.5 4.5 14.7 2.3 Q14.7 1.4 14.95 0.7 15.2 0.0 15.7 0.15 16.2 0.3 16.9 2.8 17.6 5.25 16.6 6.9 M3.1 11.9 Q3.7 10.1 4.85 7.85 6.4 4.7 7.35 4.7 7.65 4.7 8.0 5.6 8.45 6.7 8.45 8.2 L8.45 10.4 8.25 11.9 8.0 12.3 Q6.25 12.9 4.85 12.9 3.95 12.9 3.05 12.05 L3.1 11.9" fill="#ffffcc" fill-rule="evenodd" stroke="none"/>
    <path d="M16.6 6.9 Q15.55 8.55 14.95 8.35 14.3 8.1 14.3 6.35 L14.5 4.5 14.7 2.3 Q14.7 1.4 14.95 0.7 15.2 0.0 15.7 0.15 16.2 0.3 16.9 2.8 17.6 5.25 16.6 6.9 M3.1 11.9 L3.05 12.05 Q3.95 12.9 4.85 12.9 6.25 12.9 8.0 12.3 L8.25 11.9 8.45 10.4 8.45 8.2 Q8.45 6.7 8.0 5.6 7.65 4.7 7.35 4.7 6.4 4.7 4.85 7.85 3.7 10.1 3.1 11.9" fill="none" stroke="#000000" stroke-linecap="round" stroke-linejoin="round" stroke-opacity="0.3019608" stroke-width="0.05"/>
    <path d="M6.85 -2.35 Q6.85 -3.45 8.5 -3.5 10.1 -3.5 10.1 -2.1 10.1 -1.2 8.8 -1.2 7.9 -1.2 7.3 -1.65 6.85 -2.0 6.85 -2.35" fill="#ffffff" fill-opacity="0.8" fill-rule="evenodd" stroke="none"/>
  </g>
</svg>
