<?xml version="1.0" encoding="UTF-8" standalone="no"?>
<svg xmlns:xlink="http://www.w3.org/1999/xlink" height="28.0px" width="27.35px" xmlns="http://www.w3.org/2000/svg">
  <g transform="matrix(1.0, 0.0, 0.0, 1.0, 13.7, 14.0)">
    <path d="M12.25 -2.65 Q10.45 -1.7 7.05 -0.35 3.8 0.95 2.2 1.95 0.0 -1.2 -2.15 -5.3 -4.9 -10.55 -5.9 -11.7 -0.6 -14.0 0.1 -14.0 L6.6 -8.15 11.45 -3.5 12.25 -2.65" fill="#ffffff" fill-rule="evenodd" stroke="none"/>
    <path d="M2.2 1.95 Q3.8 0.95 7.05 -0.35 10.45 -1.7 12.25 -2.65 L12.75 -1.7 13.65 0.95 12.25 0.0 11.15 -0.85 6.1 1.3 Q3.75 2.55 3.35 3.5 L2.25 8.45 Q1.65 11.25 1.55 13.15 L-1.1 14.0 Q1.15 8.05 2.2 1.95 1.15 8.05 -1.1 14.0 L-7.9 9.65 -13.7 6.25 Q-12.25 1.85 -10.4 -2.35 -8.55 -6.6 -5.9 -11.7 -4.9 -10.55 -2.15 -5.3 0.0 -1.2 2.2 1.95" fill="#d6baba" fill-rule="evenodd" stroke="none"/>
    <path d="M12.25 -2.65 Q10.45 -1.7 7.05 -0.35 3.8 0.95 2.2 1.95 1.15 8.05 -1.1 14.0 L1.55 13.15 Q1.65 11.25 2.25 8.45 L3.35 3.5 Q3.75 2.55 6.1 1.3 L11.15 -0.85 12.25 0.0 13.65 0.95 12.75 -1.7 12.25 -2.65 11.45 -3.5 6.6 -8.15 0.1 -14.0 Q-0.6 -14.0 -5.9 -11.7 -4.9 -10.55 -2.15 -5.3 0.0 -1.2 2.2 1.95 M-1.1 14.0 L-7.9 9.65 -13.7 6.25 Q-12.25 1.85 -10.4 -2.35 -8.55 -6.6 -5.9 -11.7" fill="none" stroke="#000000" stroke-linecap="round" stroke-linejoin="round" stroke-opacity="0.3019608" stroke-width="0.05"/>
  </g>
</svg>
