<?xml version="1.0" encoding="UTF-8" standalone="no"?>
<svg xmlns:xlink="http://www.w3.org/1999/xlink" height="41.8px" width="23.05px" xmlns="http://www.w3.org/2000/svg">
  <g transform="matrix(1.0, 0.0, 0.0, 1.0, 11.55, 20.9)">
    <path d="M2.6 -20.85 L2.15 -19.0 1.0 -14.3 -0.65 -6.25 -0.35 -3.75 0.5 -0.35 1.95 2.6 Q3.4 5.55 3.4 6.15 3.4 6.95 1.4 7.05 L-1.75 6.9 Q-2.45 7.2 -2.45 7.7 L-2.15 8.65 -1.85 9.5 -1.7 9.9 -1.55 10.25 -1.8 10.7 -2.25 10.95 Q-3.0 10.95 -5.05 10.0 -7.1 9.0 -7.6 9.0 -8.3 9.0 -10.05 10.4 L-11.35 11.35 -11.55 10.3 -11.05 9.35 Q-6.6 0.5 -6.9 -9.65 -6.95 -12.05 -6.6 -14.4 L-6.6 -14.45 -6.4 -16.15 Q-3.3 -21.05 1.75 -20.9 L2.6 -20.85" fill="#d6baba" fill-rule="evenodd" stroke="none"/>
    <path d="M-11.35 11.35 L-10.05 10.4 Q-8.3 9.0 -7.6 9.0 -7.1 9.0 -5.05 10.0 -3.0 10.95 -2.25 10.95 L-1.8 10.7 -1.55 10.25 -1.7 9.9 -1.85 9.5 -2.15 8.65 -2.45 7.7 Q-2.45 7.2 -1.75 6.9 L1.4 7.05 Q3.4 6.95 3.4 6.15 3.4 5.55 1.95 2.6 L0.5 -0.35 -0.35 -3.75 -0.65 -6.25 1.0 -14.3 2.15 -19.0 2.6 -20.85 5.65 -20.15 Q8.9 -18.95 10.1 -15.45 10.5 -9.15 9.5 -2.4 9.1 0.35 9.2 3.15 9.25 4.5 8.35 7.7 8.1 8.45 8.3 9.2 L8.55 9.85 Q12.35 17.9 11.25 18.95 10.15 19.95 9.6 20.7 -0.05 21.1 -4.8 14.3 -6.0 12.55 -7.9 11.75 L-10.15 13.25 -10.9 13.35 -11.35 11.65 -11.35 11.35 M4.9 -0.95 Q6.1 3.3 8.3 9.2 6.1 3.3 4.9 -0.95" fill="#a78383" fill-rule="evenodd" stroke="none"/>
    <path d="M-11.35 11.35 L-11.35 11.65 -10.9 13.35 -10.15 13.25 -7.9 11.75 Q-6.0 12.55 -4.8 14.3 -0.05 21.1 9.6 20.7 10.15 19.95 11.25 18.95 12.35 17.9 8.55 9.85 L8.3 9.2 Q6.1 3.3 4.9 -0.95 M10.1 -15.45 Q10.5 -9.15 9.5 -2.4 9.1 0.35 9.2 3.15 9.25 4.5 8.35 7.7 8.1 8.45 8.3 9.2 M-11.35 11.35 L-11.55 10.3 -11.05 9.35 Q-6.6 0.5 -6.9 -9.65 -6.95 -12.05 -6.6 -14.4 L-6.6 -14.45 -6.4 -16.15 M9.6 20.7 L9.65 20.7 9.3 20.9 9.6 20.7" fill="none" stroke="#000000" stroke-linecap="round" stroke-linejoin="round" stroke-opacity="0.3019608" stroke-width="0.05"/>
  </g>
</svg>
