<?xml version="1.0" encoding="UTF-8" standalone="no"?>
<svg xmlns:xlink="http://www.w3.org/1999/xlink" height="23.2px" width="19.7px" xmlns="http://www.w3.org/2000/svg">
  <g transform="matrix(1.0, 0.0, 0.0, 1.0, 9.85, 11.6)">
    <path d="M-2.95 -6.0 L0.3 -9.8 Q0.75 -10.5 2.15 -11.3 3.55 -12.1 6.2 -10.6 L7.15 -9.5 Q8.6 -7.35 9.25 -5.05 L9.3 -4.95 9.25 -4.95 Q8.75 -1.7 6.35 -0.6 L6.1 -0.05 6.05 -0.5 5.65 -4.05 Q5.35 -6.3 4.0 -7.55 2.65 -8.8 1.0 -8.65 -0.7 -8.55 -2.95 -6.0 -0.7 -8.55 1.0 -8.65 2.65 -8.8 4.0 -7.55 5.35 -6.3 5.65 -4.05 L6.05 -0.5 6.1 -0.05 6.1 0.1 6.05 0.1 5.65 0.8 Q4.4 2.95 2.65 2.95 L1.95 3.05 0.3 6.2 Q-0.05 6.85 -1.1 7.35 -2.6 10.45 -3.9 11.6 L-6.4 11.2 Q-7.35 10.95 -8.0 10.5 -9.95 9.15 -9.85 6.35 L-9.8 6.15 -9.75 5.95 -9.4 5.0 -9.05 4.2 -7.35 0.65 -6.05 -1.6 -2.95 -6.0 M-8.0 10.5 Q-6.25 8.85 -4.9 6.55 -3.55 4.25 -3.4 2.85 -3.3 1.45 -3.9 0.85 -4.55 0.2 -5.0 0.65 L-7.15 2.75 -9.4 5.0 -7.15 2.75 -5.0 0.65 Q-4.55 0.2 -3.9 0.85 -3.3 1.45 -3.4 2.85 -3.55 4.25 -4.9 6.55 -6.25 8.85 -8.0 10.5 M-6.05 -1.6 L-4.7 -2.75 Q-3.85 -3.55 -2.05 -4.0 L0.2 -4.15 Q0.65 -3.9 0.9 -0.75 1.05 1.1 0.5 3.2 L-0.6 6.35 -1.1 7.35 -0.6 6.35 0.5 3.2 Q1.05 1.1 0.9 -0.75 0.65 -3.9 0.2 -4.15 L-2.05 -4.0 Q-3.85 -3.55 -4.7 -2.75 L-6.05 -1.6" fill="#ffffff" fill-rule="evenodd" stroke="none"/>
    <path d="M6.1 -0.05 L6.35 -0.6 Q8.75 -1.7 9.25 -4.95 L9.3 -4.95 9.35 -4.7 Q10.35 -0.75 9.35 1.7 8.35 4.15 7.15 5.45 L4.2 8.4 3.9 8.7 3.4 9.15 Q1.55 10.65 -0.5 11.25 L-3.9 11.6 Q-2.6 10.45 -1.1 7.35 -0.05 6.85 0.3 6.2 L1.95 3.05 2.65 2.95 Q4.4 2.95 5.65 0.8 L6.05 0.1 6.1 0.1 6.1 -0.05 M3.9 8.7 Q4.9 7.2 5.55 4.75 6.1 2.35 6.1 0.1 6.1 2.35 5.55 4.75 4.9 7.2 3.9 8.7" fill="#d6baba" fill-rule="evenodd" stroke="none"/>
    <path d="M9.3 -4.95 L9.25 -5.05 Q8.6 -7.35 7.15 -9.5 L6.2 -10.6 Q3.55 -12.1 2.15 -11.3 0.75 -10.5 0.3 -9.8 L-2.95 -6.0 Q-0.7 -8.55 1.0 -8.65 2.65 -8.8 4.0 -7.55 5.35 -6.3 5.65 -4.05 L6.05 -0.5 6.1 -0.05 6.1 0.1 Q6.1 2.35 5.55 4.75 4.9 7.2 3.9 8.7 M9.3 -4.95 L9.35 -4.7 M-9.05 4.2 L-7.35 0.65 -6.05 -1.6 -2.95 -6.0 M-1.1 7.35 L-0.6 6.35 0.5 3.2 Q1.05 1.1 0.9 -0.75 0.65 -3.9 0.2 -4.15 L-2.05 -4.0 Q-3.85 -3.55 -4.7 -2.75 L-6.05 -1.6 M-9.4 5.0 L-7.15 2.75 -5.0 0.65 Q-4.55 0.2 -3.9 0.85 -3.3 1.45 -3.4 2.85 -3.55 4.25 -4.9 6.55 -6.25 8.85 -8.0 10.5 M-1.1 7.35 Q-2.6 10.45 -3.9 11.6" fill="none" stroke="#000000" stroke-linecap="round" stroke-linejoin="round" stroke-opacity="0.3019608" stroke-width="0.05"/>
  </g>
</svg>
