<?xml version="1.0" encoding="UTF-8" standalone="no"?>
<svg xmlns:xlink="http://www.w3.org/1999/xlink" height="37.0px" width="16.95px" xmlns="http://www.w3.org/2000/svg">
  <g transform="matrix(1.0, 0.0, 0.0, 1.0, 8.7, 18.65)">
    <path d="M0.05 -18.6 Q3.95 -18.45 6.35 -16.1 L6.9 -15.65 8.0 -13.35 8.0 11.45 Q8.85 15.0 6.8 16.75 4.7 18.45 -0.9 18.35 L-0.65 11.15 Q-0.1 3.65 0.15 -5.25 L0.05 -18.6" fill="#d6baba" fill-rule="evenodd" stroke="none"/>
    <path d="M-6.3 -16.15 L-4.7 -17.4 Q-2.8 -18.9 0.05 -18.6 L0.15 -5.25 Q-0.1 3.65 -0.65 11.15 L-0.9 18.35 Q-4.35 17.75 -7.05 16.05 -9.75 14.35 -8.0 11.05 L-8.0 -13.5 Q-7.25 -15.05 -6.3 -16.15" fill="#ffffff" fill-rule="evenodd" stroke="none"/>
    <path d="M6.9 -15.65 L8.0 -13.35 8.0 11.45 Q8.85 15.0 6.8 16.75 4.7 18.45 -0.9 18.35 -4.35 17.75 -7.05 16.05 -9.75 14.35 -8.0 11.05 L-8.0 -13.5 Q-7.25 -15.05 -6.3 -16.15" fill="none" stroke="#000000" stroke-linecap="round" stroke-linejoin="round" stroke-opacity="0.3019608" stroke-width="0.05"/>
  </g>
</svg>
