<?xml version="1.0" encoding="UTF-8" standalone="no"?>
<svg xmlns:xlink="http://www.w3.org/1999/xlink" height="22.5px" width="13.0px" xmlns="http://www.w3.org/2000/svg">
  <g transform="matrix(1.0, 0.0, 0.0, 1.0, 6.5, 10.95)">
    <path d="M0.8 -6.8 L1.1 -6.7 1.7 -6.15 1.65 -5.7 2.25 -2.8 Q2.85 0.15 2.85 2.05 L2.65 4.5 Q2.65 6.6 1.8 8.25 L1.05 9.6 0.75 9.45 0.35 9.25 0.15 8.2 0.35 9.25 -0.4 8.9 -0.45 8.7 -1.3 8.2 -2.95 6.7 -1.3 8.2 Q-1.65 7.95 -1.95 7.8 L-2.95 6.7 -3.5 6.0 -4.1 5.1 -4.4 4.45 -4.45 4.35 -4.7 3.7 -4.8 3.4 -5.05 2.65 -5.7 0.5 -6.15 -1.2 -6.35 -2.35 -6.4 -4.05 -6.35 -2.35 -6.5 -3.05 -6.4 -4.05 -6.45 -5.8 -6.25 -10.1 -6.2 -10.6 -6.1 -10.6 -5.65 -10.6 -4.65 -10.4 -3.5 -9.9 -3.5 -9.8 -3.5 -9.7 -3.15 -9.6 -1.25 -8.5 -1.3 -8.3 -1.25 -8.3 0.5 -7.05 0.8 -6.8 0.45 -7.0 0.4 -6.4 0.45 -7.0 0.8 -6.8 M0.45 -7.0 L0.5 -7.05 0.45 -7.0 M-3.9 3.9 L-3.6 4.6 -3.5 6.0 -3.6 4.6 -3.9 3.9 M-3.6 -9.0 L-3.5 -9.7 -3.6 -9.0 M-1.25 -7.6 L-1.3 -8.3 -1.25 -7.6 M-0.95 6.15 L-0.45 8.7 -0.95 6.15" fill="#ffffff" fill-rule="evenodd" stroke="none"/>
    <path d="M1.05 9.6 L1.8 8.25 Q2.65 6.6 2.65 4.5 L2.85 2.05 Q2.85 0.15 2.25 -2.8 L1.65 -5.7 1.7 -6.15 2.5 -5.4 3.65 -4.05 3.9 -3.4 4.85 -0.75 4.5 -0.85 3.25 -1.4 4.5 -0.85 4.85 -0.75 5.2 0.85 5.35 1.9 5.5 4.2 5.1 3.5 5.2 0.85 5.1 3.5 5.5 4.2 5.5 5.95 5.45 6.7 5.3 8.85 5.15 9.7 4.1 10.4 4.2 10.55 2.75 10.35 1.05 9.6 M3.65 -4.05 L4.0 -3.1 4.5 -0.85 4.0 -3.1 3.65 -4.05 M3.6 4.45 L4.2 5.05 Q4.9 5.7 5.5 5.95 4.9 5.7 4.2 5.05 L3.6 4.45 M3.7 9.65 L4.1 10.4 3.7 9.65" fill="#d6baba" fill-rule="evenodd" stroke="none"/>
    <path d="M1.7 -6.15 L1.1 -6.7 0.8 -6.8 0.45 -7.0 0.4 -6.4 M0.5 -7.05 L0.45 -7.0 M0.5 -7.05 L0.65 -8.5 M1.7 -6.15 L2.5 -5.4 M4.85 -0.75 L6.5 0.35 M4.85 -0.75 L4.5 -0.85 3.25 -1.4 M4.5 -0.85 L4.0 -3.1 3.65 -4.05 M5.45 6.7 L5.3 8.85 M5.15 9.7 L4.1 10.4 4.2 10.55 4.85 11.55 M5.2 0.85 L5.1 3.5 5.5 4.2 M5.5 5.95 L6.5 6.55 M5.5 5.95 Q4.9 5.7 4.2 5.05 L3.6 4.45 M0.75 9.45 L1.05 9.6 2.75 10.35 M0.35 9.25 L0.15 8.2 M4.1 10.4 L3.7 9.65 M0.6 10.9 L0.35 9.25 M-0.4 8.9 L0.1 11.25 M-4.65 -10.4 L-5.65 -10.6 M-6.1 -10.6 L-6.2 -10.6 M-6.25 -10.1 L-6.45 -5.8 -6.4 -4.05 -6.35 -2.35 -6.15 -1.2 -5.7 0.5 -5.05 2.65 -4.8 3.4 -4.7 3.7 -4.45 4.35 -4.4 4.45 -4.1 5.1 M-3.5 6.0 L-3.6 4.6 -3.9 3.9 M-3.5 -9.8 L-3.15 -9.6 -1.25 -8.5 -1.05 -10.05 M-3.5 -9.9 L-3.5 -9.8 -3.5 -9.7 -3.6 -9.0 M-3.45 -10.95 L-3.5 -9.9 M-1.3 -8.3 L-1.25 -7.6 M-1.3 -8.3 L-1.25 -8.5 M-2.95 6.7 L-1.3 8.2 M-0.45 8.7 L-0.95 6.15 M-0.45 8.7 L-0.4 8.9 M-3.5 6.0 L-3.5 7.4" fill="none" stroke="#000000" stroke-linecap="round" stroke-linejoin="round" stroke-opacity="0.3019608" stroke-width="0.05"/>
  </g>
</svg>
