<?xml version="1.0" encoding="UTF-8" standalone="no"?>
<svg xmlns:xlink="http://www.w3.org/1999/xlink" height="11.8px" width="2.8px" xmlns="http://www.w3.org/2000/svg">
  <g transform="matrix(1.0, 0.0, 0.0, 1.0, 1.4, 5.9)">
    <path d="M1.15 -2.3 L1.1 -0.75 0.95 5.8 0.55 5.9 -0.15 5.75 -0.9 5.85 -1.4 5.8 -1.2 4.35 -1.15 3.3 -1.25 1.7 -1.1 -0.7 -0.95 -3.8 -0.75 -5.85 -0.75 -5.9 1.25 -5.7 1.35 -5.35 1.4 -4.8 1.3 -4.4 1.15 -2.3" fill="#a78383" fill-rule="evenodd" stroke="none"/>
    <path d="M1.15 -2.3 L1.3 -4.4 1.4 -4.8 1.35 -5.35 1.25 -5.7 -0.75 -5.9 -0.75 -5.85 -0.95 -3.8 -1.1 -0.7 -1.25 1.7 -1.15 3.3 -1.2 4.35 -1.4 5.8 -0.9 5.85 -0.15 5.75 0.55 5.9 0.95 5.8 1.1 -0.75 1.15 -2.3 Z" fill="none" stroke="#000000" stroke-linecap="round" stroke-linejoin="round" stroke-opacity="0.3019608" stroke-width="0.05"/>
  </g>
</svg>
