<?xml version="1.0" encoding="UTF-8" standalone="no"?>
<svg xmlns:xlink="http://www.w3.org/1999/xlink" height="106.4px" width="77.7px" xmlns="http://www.w3.org/2000/svg">
  <g transform="matrix(1.0, 0.0, 0.0, 1.0, 38.85, 53.2)">
    <path d="M20.95 -53.2 Q28.05 -38.75 30.7 -27.95 L31.15 -26.6 Q33.95 -15.9 35.35 -4.95 36.9 6.95 38.05 19.25 39.3 31.8 38.55 44.35 32.3 49.85 27.95 53.2 L27.95 52.95 28.6 48.25 29.45 39.65 29.65 36.7 30.1 30.65 30.5 21.9 30.75 15.2 30.75 9.2 Q31.75 -13.5 25.5 -37.95 L20.95 -53.2" fill="#dfcaca" fill-rule="evenodd" stroke="none"/>
    <path d="M20.95 -53.2 L25.5 -37.95 Q31.75 -13.5 30.75 9.2 L30.75 15.2 30.5 21.9 30.1 30.65 29.65 36.7 29.45 39.65 26.35 38.95 6.0 30.5 Q-3.85 26.45 -11.0 25.2 -18.15 24.05 -25.9 25.2 -31.75 26.0 -38.85 29.0 L-38.85 28.5 Q-33.45 20.3 -30.6 8.0 -26.35 -10.3 -21.55 -22.95 -15.75 -38.1 -9.3 -51.65 L-9.3 -46.35 20.95 -53.2" fill="url(#gradient0)" fill-rule="evenodd" stroke="none"/>
    <path d="M29.45 39.65 L28.6 48.25 27.95 52.95 27.95 53.2 Q32.3 49.85 38.55 44.35 39.3 31.8 38.05 19.25 36.9 6.95 35.35 -4.95 33.95 -15.9 31.15 -26.6 L30.7 -27.95 Q28.05 -38.75 20.95 -53.2 L25.5 -37.95 Q31.75 -13.5 30.75 9.2 L30.75 15.2 30.5 21.9 30.1 30.65 29.65 36.7 29.45 39.65 26.35 38.95 6.0 30.5 Q-3.85 26.45 -11.0 25.2 -18.15 24.05 -25.9 25.2 -31.75 26.0 -38.85 29.0 L-38.85 28.5 Q-33.45 20.3 -30.6 8.0 -26.35 -10.3 -21.55 -22.95 -15.75 -38.1 -9.3 -51.65" fill="none" stroke="#000000" stroke-linecap="round" stroke-linejoin="round" stroke-opacity="0.3019608" stroke-width="0.05"/>
  </g>
  <defs>
    <radialGradient cx="0" cy="0" gradientTransform="matrix(0.1055, 0.0062, 0.0, 0.1458, 10.3, -56.05)" gradientUnits="userSpaceOnUse" id="gradient0" r="819.2" spreadMethod="pad">
      <stop offset="0.34509803921568627" stop-color="#d6baba"/>
      <stop offset="1.0" stop-color="#9c7474"/>
    </radialGradient>
  </defs>
</svg>
