<?xml version="1.0" encoding="UTF-8" standalone="no"?>
<svg xmlns:xlink="http://www.w3.org/1999/xlink" height="18.1px" width="13.95px" xmlns="http://www.w3.org/2000/svg">
  <g transform="matrix(1.0, 0.0, 0.0, 1.0, 7.0, 9.05)">
    <path d="M-3.55 -0.95 Q-4.15 -2.5 -5.1 -4.15 L-7.0 -7.2 -6.05 -7.75 -4.2 -6.75 Q-2.15 -5.55 -1.95 -5.6 L-0.45 -4.1 1.05 -2.45 2.35 0.2 2.6 0.65 3.25 2.1 Q2.5 0.7 0.9 -1.2 2.5 0.7 3.25 2.1 L2.6 0.65 2.35 0.2 2.2 -0.25 2.4 -0.45 4.1 -1.7 4.9 -2.45 5.1 -1.5 5.15 -1.35 Q5.6 0.0 6.2 1.35 L6.95 3.4 Q5.95 4.65 4.45 4.85 3.85 6.35 2.55 7.3 L1.85 8.0 1.25 6.5 1.25 7.9 1.3 8.5 1.25 9.05 -0.05 9.05 -0.95 8.85 -1.1 8.85 -1.2 8.8 -1.45 8.8 -1.45 8.55 -1.45 8.5 -0.3 3.65 0.7 -0.65 0.9 -1.2 -1.05 -3.1 Q-2.5 -4.3 -4.3 -4.75 L-3.55 -0.95 M4.45 4.85 L4.2 4.25 3.85 3.5 3.55 2.7 3.25 2.1 3.55 2.7 3.85 3.5 4.2 4.25 4.45 4.85" fill="#d1b5b5" fill-rule="evenodd" stroke="none"/>
    <path d="M-3.55 -0.95 L-4.3 -4.75 Q-2.5 -4.3 -1.05 -3.1 L0.9 -1.2 0.7 -0.65 -0.3 3.65 -1.45 8.5 -1.65 7.55 -3.3 0.15 -3.55 -0.95 M2.35 0.2 L1.05 -2.45 -0.45 -4.1 -1.95 -5.6 Q-2.15 -5.55 -4.2 -6.75 L-6.05 -7.75 -2.9 -9.05 -1.05 -7.9 Q1.15 -6.8 4.2 -7.25 4.2 -5.0 4.9 -2.45 L4.1 -1.7 2.4 -0.45 2.2 -0.25 2.35 0.2" fill="#ffffff" fill-rule="evenodd" stroke="none"/>
    <path d="M-6.05 -7.75 L-7.0 -7.2 -5.1 -4.15 Q-4.15 -2.5 -3.55 -0.95 L-4.3 -4.75 Q-2.5 -4.3 -1.05 -3.1 L0.9 -1.2 Q2.5 0.7 3.25 2.1 L2.6 0.65 2.35 0.2 1.05 -2.45 -0.45 -4.1 -1.95 -5.6 Q-2.15 -5.55 -4.2 -6.75 L-6.05 -7.75 -2.9 -9.05 -1.05 -7.9 Q1.15 -6.8 4.2 -7.25 4.2 -5.0 4.9 -2.45 L5.1 -1.5 5.15 -1.35 Q5.6 0.0 6.2 1.35 L6.95 3.4 Q5.95 4.65 4.45 4.85 3.85 6.35 2.55 7.3 L1.85 8.0 1.3 8.5 1.25 9.05 -0.05 9.05 -0.95 8.85 -1.1 8.85 M-1.2 8.8 L-1.45 8.8 -1.45 8.55 -1.45 8.5 -1.65 7.55 -3.3 0.15 -3.55 -0.95 M3.25 2.1 L3.55 2.7 3.85 3.5 4.2 4.25 4.45 4.85 M1.3 8.5 L1.25 7.9 1.25 6.5 1.85 8.0" fill="none" stroke="#000000" stroke-linecap="round" stroke-linejoin="round" stroke-opacity="0.3019608" stroke-width="0.05"/>
  </g>
</svg>
