<?xml version="1.0" encoding="UTF-8" standalone="no"?>
<svg xmlns:xlink="http://www.w3.org/1999/xlink" height="14.6px" width="5.4px" xmlns="http://www.w3.org/2000/svg">
  <g transform="matrix(1.0, 0.0, 0.0, 1.0, -2.5, -20.55)">
    <path d="M2.5 20.65 L2.65 20.55 Q3.4 21.3 3.8 21.3 4.1 21.3 4.65 21.9 L5.15 22.55 4.95 22.75 4.6 22.6 4.25 22.4 4.45 22.75 4.15 23.05 3.6 22.55 3.15 22.0 2.5 20.65 M3.55 24.0 L4.5 24.2 6.45 24.95 6.55 25.2 6.5 25.4 7.35 25.95 Q8.15 26.5 7.8 26.5 L7.8 26.6 7.75 26.9 7.1 26.85 4.8 25.7 Q4.35 25.4 3.6 25.2 3.25 25.1 3.25 24.55 3.25 23.95 3.55 24.0 M4.45 28.8 L5.2 29.65 5.45 30.05 5.9 30.1 Q6.9 32.25 6.3 34.5 L5.95 34.75 5.6 35.05 5.45 35.15 4.6 31.8 4.15 31.5 4.15 30.65 4.45 28.8" fill="#ffffff" fill-opacity="0.7019608" fill-rule="evenodd" stroke="none"/>
  </g>
</svg>
