<?xml version="1.0" encoding="UTF-8" standalone="no"?>
<svg xmlns:xlink="http://www.w3.org/1999/xlink" height="19.9px" width="26.25px" xmlns="http://www.w3.org/2000/svg">
  <g transform="matrix(1.0, 0.0, 0.0, 1.0, 13.15, 9.95)">
    <path d="M5.25 -8.6 L7.0 -7.7 Q9.8 -6.05 11.45 -3.35 L11.6 -3.1 Q13.65 0.35 12.9 3.95 L11.75 7.1 Q11.1 8.45 8.3 9.2 L5.5 9.7 4.15 9.85 Q-0.6 10.15 -5.5 9.6 L-7.25 9.05 Q-9.95 7.95 -11.5 6.6 -13.0 5.35 -13.15 3.85 L-13.15 3.55 -13.15 3.5 Q-13.2 2.05 -12.85 0.5 -11.75 1.55 -9.7 2.15 L-4.2 2.85 -3.0 2.55 Q-0.15 2.55 2.8 0.0 6.1 -2.85 6.1 -6.6 6.1 -7.4 5.25 -8.6" fill="#d6baba" fill-rule="evenodd" stroke="none"/>
    <path d="M5.25 -8.6 Q6.1 -7.4 6.1 -6.6 6.1 -2.85 2.8 0.0 -0.15 2.55 -3.0 2.55 L-4.2 2.85 -9.7 2.15 Q-11.75 1.55 -12.85 0.5 -12.35 -1.95 -10.8 -4.7 L-10.55 -5.2 Q-8.0 -9.35 -2.65 -9.85 1.25 -10.25 4.85 -8.75 L5.25 -8.6" fill="#ffffff" fill-rule="evenodd" stroke="none"/>
    <path d="M-12.85 0.5 Q-13.2 2.05 -13.15 3.5 L-13.15 3.55 -13.15 3.85 Q-13.0 5.35 -11.5 6.6 -9.95 7.95 -7.25 9.05 L-5.5 9.6 Q-0.6 10.15 4.15 9.85 L5.5 9.7 8.3 9.2 Q11.1 8.45 11.75 7.1 L12.9 3.95 Q13.65 0.35 11.6 -3.1 L11.45 -3.35 Q9.8 -6.05 7.0 -7.7 L5.25 -8.6 M-12.85 0.5 Q-12.35 -1.95 -10.8 -4.7 L-10.55 -5.2 Q-8.0 -9.35 -2.65 -9.85 1.25 -10.25 4.85 -8.75 L5.25 -8.6" fill="none" stroke="#000000" stroke-linecap="round" stroke-linejoin="round" stroke-opacity="0.3019608" stroke-width="0.05"/>
  </g>
</svg>
