<?xml version="1.0" encoding="UTF-8" standalone="no"?>
<svg xmlns:xlink="http://www.w3.org/1999/xlink" height="16.5px" width="21.7px" xmlns="http://www.w3.org/2000/svg">
  <g transform="matrix(1.0, 0.0, 0.0, 1.0, 12.7, 1.9)">
    <path d="M4.45 14.6 Q3.6 12.6 4.25 9.65 4.95 6.65 6.0 6.85 7.1 7.1 8.05 10.45 L9.0 13.9 5.9 14.45 4.45 14.6 M-12.7 11.2 Q-12.7 9.55 -11.45 7.5 -10.25 5.55 -9.6 5.6 -9.0 5.65 -8.95 6.1 L-9.0 6.95 -8.8 9.15 -8.6 11.25 -8.3 12.7 -8.05 13.75 Q-11.0 12.6 -12.6 11.3 L-12.7 11.2" fill="#ffffcc" fill-rule="evenodd" stroke="none"/>
    <path d="M4.45 14.6 Q3.6 12.6 4.25 9.65 4.95 6.65 6.0 6.85 7.1 7.1 8.05 10.45 L9.0 13.9 M-12.7 11.2 Q-12.7 9.55 -11.45 7.5 -10.25 5.55 -9.6 5.6 -9.0 5.65 -8.95 6.1 L-9.0 6.95 -8.8 9.15 -8.6 11.25 -8.3 12.7 -8.05 13.75" fill="none" stroke="#000000" stroke-linecap="round" stroke-linejoin="round" stroke-opacity="0.3019608" stroke-width="0.05"/>
    <path d="M-4.9 -1.9 Q-3.2 -2.0 -3.2 -1.0 -3.2 -0.6 -3.7 -0.25 -4.3 0.2 -5.2 0.2 -5.85 0.2 -6.7 -0.85 -6.7 -1.85 -4.9 -1.9" fill="#ffffff" fill-rule="evenodd" stroke="none"/>
  </g>
</svg>
