<?xml version="1.0" encoding="UTF-8" standalone="no"?>
<svg xmlns:xlink="http://www.w3.org/1999/xlink" height="23.55px" width="29.45px" xmlns="http://www.w3.org/2000/svg">
  <g transform="matrix(1.0, 0.0, 0.0, 1.0, 14.7, 9.75)">
    <path d="M10.4 4.8 L9.85 0.9 Q9.4 -1.2 8.55 -3.1 L6.8 -6.7 5.45 -9.15 8.85 -4.45 12.55 1.5 13.1 2.55 14.75 5.25 13.45 9.9 10.4 4.8 13.45 9.9 12.7 13.8 12.5 12.95 11.1 9.2 10.05 7.4 Q8.15 6.5 6.15 6.1 L4.45 5.75 1.0 5.15 Q-2.75 4.75 -8.5 5.15 L-9.4 5.35 -9.6 5.35 Q-10.75 6.85 -11.65 8.7 L-12.05 9.4 -13.6 12.05 -14.7 10.25 -14.15 9.1 Q-13.25 7.05 -11.9 5.25 L-10.7 3.2 -6.65 2.75 -2.45 2.35 Q0.05 2.15 2.5 2.45 4.15 2.65 5.7 3.3 L10.4 4.8" fill="#d6baba" fill-rule="evenodd" stroke="none"/>
    <path d="M5.45 -9.15 L6.8 -6.7 8.55 -3.1 Q9.4 -1.2 9.85 0.9 L10.4 4.8 5.7 3.3 Q4.15 2.65 2.5 2.45 0.05 2.15 -2.45 2.35 L-6.65 2.75 -10.7 3.2 Q-9.95 0.55 -8.85 -1.85 L-7.8 -4.2 -6.8 -6.2 Q-6.15 -7.75 -4.8 -8.8 L-3.65 -9.75 5.45 -9.15" fill="#ffffff" fill-rule="evenodd" stroke="none"/>
    <path d="M5.45 -9.15 L6.8 -6.7 8.55 -3.1 Q9.4 -1.2 9.85 0.9 L10.4 4.8 13.45 9.9 14.75 5.25 13.1 2.55 12.55 1.5 8.85 -4.45 5.45 -9.15 -3.65 -9.75 -4.8 -8.8 Q-6.15 -7.75 -6.8 -6.2 L-7.8 -4.2 -8.85 -1.85 Q-9.95 0.55 -10.7 3.2 L-6.65 2.75 -2.45 2.35 Q0.05 2.15 2.5 2.45 4.15 2.65 5.7 3.3 L10.4 4.8 M-10.7 3.2 L-11.9 5.25 Q-13.25 7.05 -14.15 9.1 L-14.7 10.25 -13.6 12.05 -12.05 9.4 -11.65 8.7 Q-10.75 6.85 -9.6 5.35 L-9.4 5.35 -8.5 5.15 Q-2.75 4.75 1.0 5.15 L4.45 5.75 6.15 6.1 Q8.15 6.5 10.05 7.4 L11.1 9.2 12.5 12.95 12.7 13.8 13.45 9.9" fill="none" stroke="#000000" stroke-linecap="round" stroke-linejoin="round" stroke-opacity="0.3019608" stroke-width="0.05"/>
  </g>
</svg>
