<?xml version="1.0" encoding="UTF-8" standalone="no"?>
<svg xmlns:xlink="http://www.w3.org/1999/xlink" height="25.0px" width="14.3px" xmlns="http://www.w3.org/2000/svg">
  <g transform="matrix(1.0, 0.0, 0.0, 1.0, 13.4, 10.55)">
    <path d="M0.45 -7.8 L0.15 -7.2 Q-0.25 -7.7 -0.25 -8.85 -0.25 -9.45 0.35 -10.25 0.9 -11.05 0.9 -9.6 L0.75 -8.25 0.45 -7.8 M-7.45 -4.85 L-7.6 -4.2 -8.05 -4.2 -8.0 -4.7 -8.3 -6.0 Q-8.3 -7.3 -7.6 -8.0 -6.95 -8.75 -6.95 -7.55 L-7.2 -6.4 -7.45 -4.85 M-5.35 9.05 L-3.05 9.65 Q-1.3 10.3 -1.3 10.7 L-0.75 11.45 Q-0.2 12.2 -0.2 12.65 -0.2 13.15 -1.0 13.15 L-5.6 12.4 Q-7.0 12.4 -9.55 13.45 -12.05 14.45 -12.6 14.45 -13.4 14.45 -13.4 13.55 -13.4 12.85 -10.75 11.1 -8.0 9.25 -6.7 9.25 L-5.35 9.05" fill="#ffffff" fill-opacity="0.8" fill-rule="evenodd" stroke="none"/>
  </g>
</svg>
