<?xml version="1.0" encoding="UTF-8" standalone="no"?>
<svg xmlns:xlink="http://www.w3.org/1999/xlink" height="26.2px" width="17.75px" xmlns="http://www.w3.org/2000/svg">
  <g transform="matrix(1.0, 0.0, 0.0, 1.0, 8.9, 13.1)">
    <path d="M-8.9 -6.9 L-8.6 -7.35 Q-6.95 -9.7 -5.1 -10.9 -1.7 -13.1 0.35 -13.1 L3.25 -12.75 3.5 -12.65 3.8 -11.55 3.6 -10.45 3.15 -9.2 2.95 -8.85 2.9 -8.85 Q2.65 -8.55 3.0 -8.65 L3.3 -6.7 Q3.3 -5.65 2.4 -3.95 L1.95 -3.05 1.8 -2.85 1.95 -2.7 2.3 0.55 2.1 5.1 1.6 9.1 1.15 12.0 1.0 12.9 -0.5 13.1 -1.2 13.1 -5.2 12.45 -7.55 11.75 -7.95 10.35 -8.15 9.4 Q-8.75 6.6 -8.65 3.15 L-8.65 -0.3 Q-8.7 -3.6 -8.9 -6.9 M-7.95 10.35 L-7.95 9.5 Q-7.7 5.15 -5.4 1.0 -2.9 -3.5 -0.2 -3.5 0.95 -3.5 1.8 -2.85 0.95 -3.5 -0.2 -3.5 -2.9 -3.5 -5.4 1.0 -7.7 5.15 -7.95 9.5 L-7.95 10.35 M-0.5 13.1 L-0.1 11.6 -0.05 11.4 Q0.5 9.35 0.2 7.3 L-0.1 6.5 Q-0.6 5.25 -1.4 5.25 -1.95 5.25 -2.55 5.9 -3.25 6.6 -3.8 8.0 L-4.55 10.4 -5.2 12.45 -4.55 10.4 -3.8 8.0 Q-3.25 6.6 -2.55 5.9 -1.95 5.25 -1.4 5.25 -0.6 5.25 -0.1 6.5 L0.2 7.3 Q0.5 9.35 -0.05 11.4 L-0.1 11.6 -0.5 13.1 M-8.65 -0.3 Q-7.5 -4.25 -5.25 -6.65 -2.65 -9.45 0.55 -9.45 2.0 -9.45 2.9 -8.85 2.0 -9.45 0.55 -9.45 -2.65 -9.45 -5.25 -6.65 -7.5 -4.25 -8.65 -0.3" fill="#ffffff" fill-rule="evenodd" stroke="none"/>
    <path d="M3.5 -12.65 Q4.95 -12.15 5.65 -10.9 L7.35 -8.65 8.75 -6.5 8.85 -5.0 8.75 -3.5 8.1 0.4 7.5 2.75 6.95 4.25 6.45 5.9 5.15 9.5 Q4.5 11.35 2.7 12.4 L1.85 12.75 1.0 12.9 1.15 12.0 1.6 9.1 2.1 5.1 2.3 0.55 1.95 -2.7 1.8 -2.85 1.95 -3.05 2.4 -3.95 Q3.3 -5.65 3.3 -6.7 L3.0 -8.65 Q2.65 -8.55 2.9 -8.85 L2.95 -8.85 3.15 -9.2 3.6 -10.45 3.8 -11.55 3.5 -12.65 M6.95 4.25 L7.05 2.6 7.15 0.8 7.2 -0.7 6.7 -3.1 Q6.2 -5.15 4.95 -6.65 L3.25 -8.55 2.95 -8.8 2.9 -8.85 2.95 -8.8 3.25 -8.55 4.95 -6.65 Q6.2 -5.15 6.7 -3.1 L7.2 -0.7 7.15 0.8 7.05 2.6 6.95 4.25 M1.85 12.75 L2.05 12.2 Q2.85 10.3 3.2 8.4 L3.6 5.55 3.65 1.7 Q3.5 -0.2 2.85 -1.5 L1.95 -2.7 2.85 -1.5 Q3.5 -0.2 3.65 1.7 L3.6 5.55 3.2 8.4 Q2.85 10.3 2.05 12.2 L1.85 12.75" fill="#d1b6b6" fill-rule="evenodd" stroke="none"/>
    <path d="M-8.9 -6.9 L-8.6 -7.35 Q-6.95 -9.7 -5.1 -10.9 -1.7 -13.1 0.35 -13.1 L3.25 -12.75 3.5 -12.65 Q4.95 -12.15 5.65 -10.9 L7.35 -8.65 8.75 -6.5 M2.9 -8.85 L2.95 -8.8 3.25 -8.55 4.95 -6.65 Q6.2 -5.15 6.7 -3.1 L7.2 -0.7 7.15 0.8 7.05 2.6 6.95 4.25 M1.8 -2.85 L1.95 -2.7 2.85 -1.5 Q3.5 -0.2 3.65 1.7 L3.6 5.55 3.2 8.4 Q2.85 10.3 2.05 12.2 L1.85 12.75 M2.9 -8.85 Q2.0 -9.45 0.55 -9.45 -2.65 -9.45 -5.25 -6.65 -7.5 -4.25 -8.65 -0.3 M-5.2 12.45 L-4.55 10.4 -3.8 8.0 Q-3.25 6.6 -2.55 5.9 -1.95 5.25 -1.4 5.25 -0.6 5.25 -0.1 6.5 L0.2 7.3 Q0.5 9.35 -0.05 11.4 L-0.1 11.6 -0.5 13.1 M1.8 -2.85 Q0.95 -3.5 -0.2 -3.5 -2.9 -3.5 -5.4 1.0 -7.7 5.15 -7.95 9.5 L-7.95 10.35" fill="none" stroke="#000000" stroke-linecap="round" stroke-linejoin="round" stroke-opacity="0.3019608" stroke-width="0.05"/>
  </g>
</svg>
