<?xml version="1.0" encoding="UTF-8" standalone="no"?>
<svg xmlns:xlink="http://www.w3.org/1999/xlink" height="13.4px" width="3.95px" xmlns="http://www.w3.org/2000/svg">
  <g transform="matrix(1.0, 0.0, 0.0, 1.0, 4.3, 11.55)">
    <path d="M-0.7 -11.35 L-0.65 -11.35 -0.65 -11.3 -0.7 -11.35 Q-0.1 -9.55 -0.55 -7.6 L-1.0 -5.5 Q-1.15 -4.0 -2.0 -3.0 L-3.0 -2.95 Q-3.9 -3.55 -4.15 -4.7 -4.5 -6.3 -4.0 -8.05 -3.4 -10.4 -1.1 -11.55 L-0.7 -11.35 M-2.3 -0.25 L-2.1 0.65 -2.15 0.95 -2.15 1.0 -2.3 1.5 -2.35 1.55 -2.65 1.85 -3.3 1.3 -3.3 1.35 -3.55 0.5 Q-3.55 -0.25 -2.75 -0.4 L-2.7 -0.4 -2.3 -0.25" fill="#ffffff" fill-rule="evenodd" stroke="none"/>
  </g>
</svg>
