<?xml version="1.0" encoding="UTF-8" standalone="no"?>
<svg xmlns:xlink="http://www.w3.org/1999/xlink" height="27.3px" width="21.6px" xmlns="http://www.w3.org/2000/svg">
  <g transform="matrix(1.0, 0.0, 0.0, 1.0, 10.75, 13.65)">
    <path d="M7.9 -1.15 L8.75 -3.6 9.9 -7.55 9.8 -7.9 9.4 -8.45 8.55 -9.75 6.6 -12.2 6.6 -13.65 10.85 -8.2 10.65 -7.3 9.6 -2.7 8.55 1.25 7.25 5.65 6.65 5.5 7.5 1.7 7.85 0.0 7.9 -0.6 7.85 0.0 7.5 1.7 6.65 5.5 5.7 9.0 4.45 13.55 3.6 13.65 2.45 13.1 1.9 12.7 1.95 11.9 2.05 0.7 Q2.1 -5.65 1.75 -10.95 L4.75 -2.3 4.65 -1.6 7.95 -2.15 7.9 -1.15 7.9 -1.1 7.9 -1.15 M7.9 -0.6 L8.0 -1.0 7.9 -1.1 7.9 -0.6 M1.95 11.9 Q2.7 5.8 3.65 2.3 L4.65 -1.6 3.65 2.3 Q2.7 5.8 1.95 11.9 M-10.75 -2.75 L-10.25 -2.7 -7.55 -2.6 -7.6 -2.8 -4.85 -10.65 -4.6 -11.35 -4.75 11.3 -4.75 11.5 -4.8 11.5 -4.75 12.2 -5.05 12.5 -5.3 12.6 -6.45 13.15 -7.3 13.05 -8.55 8.5 -10.35 1.2 Q-10.85 -0.9 -10.75 -2.75 M-7.55 -2.6 L-6.5 1.8 Q-5.6 5.3 -4.75 11.3 -5.6 5.3 -6.5 1.8 L-7.55 -2.6" fill="#d1b6b6" fill-rule="evenodd" stroke="none"/>
    <path d="M1.75 -10.95 L4.35 -12.25 Q6.5 -8.05 7.45 -5.1 L7.9 -3.1 7.95 -2.15 4.65 -1.6 4.75 -2.3 1.75 -10.95 M-7.55 -2.6 L-10.25 -2.7 -10.75 -2.75 -10.6 -4.4 -10.3 -5.6 Q-9.35 -8.55 -7.2 -12.75 L-4.6 -11.45 -4.6 -11.35 -4.85 -10.65 -7.6 -2.8 -7.55 -2.6" fill="#ffffff" fill-rule="evenodd" stroke="none"/>
    <path d="M6.65 5.5 L7.25 5.65 8.55 1.25 9.6 -2.7 10.65 -7.3 10.85 -8.2 6.6 -13.65 6.6 -12.2 8.55 -9.75 9.4 -8.45 9.8 -7.9 9.9 -7.55 8.75 -3.6 7.9 -1.15 7.9 -1.1 8.0 -1.0 7.9 -0.6 7.85 0.0 7.5 1.7 6.65 5.5 5.7 9.0 4.45 13.55 3.6 13.65 2.45 13.1 1.9 12.7 1.95 11.9 2.05 0.7 Q2.1 -5.65 1.75 -10.95 L4.35 -12.25 Q6.5 -8.05 7.45 -5.1 L7.9 -3.1 7.95 -2.15 7.9 -1.15 M4.65 -1.6 L4.75 -2.3 1.75 -10.95 M7.9 -1.1 L7.9 -0.6 M4.65 -1.6 L3.65 2.3 Q2.7 5.8 1.95 11.9 M-7.55 -2.6 L-7.6 -2.8 -4.85 -10.65 -4.6 -11.35 -4.6 -11.45 -7.2 -12.75 Q-9.35 -8.55 -10.3 -5.6 L-10.6 -4.4 -10.75 -2.75 Q-10.85 -0.9 -10.35 1.2 L-8.55 8.5 -7.3 13.05 -6.45 13.15 -5.3 12.6 -5.05 12.5 -4.75 12.2 -4.8 11.5 M-4.75 11.5 L-4.75 11.3 Q-5.6 5.3 -6.5 1.8 L-7.55 -2.6 M-4.75 11.3 L-4.6 -11.35 -4.85 -10.65 M-4.75 11.5 L-4.75 12.2" fill="none" stroke="#000000" stroke-linecap="round" stroke-linejoin="round" stroke-opacity="0.3019608" stroke-width="0.05"/>
  </g>
</svg>
