<?xml version="1.0" encoding="UTF-8" standalone="no"?>
<svg xmlns:xlink="http://www.w3.org/1999/xlink" height="24.75px" width="17.6px" xmlns="http://www.w3.org/2000/svg">
  <g transform="matrix(1.0, 0.0, 0.0, 1.0, 8.9, 16.25)">
    <path d="M2.1 -16.0 L3.55 -15.8 5.85 -15.3 Q7.15 -15.0 7.55 -14.35 L8.2 -13.25 Q8.85 -9.9 8.65 -6.2 L8.45 0.3 Q8.5 2.7 8.0 5.1 L7.6 6.0 Q5.7 8.05 3.1 8.25 L-2.0 8.4 -2.55 8.35 -1.55 7.05 -1.25 5.75 -3.4 5.55 -0.8 -1.3 Q1.0 -6.4 2.0 -10.55 L0.5 -11.2 -2.8 -11.65 -6.5 -11.45 -6.45 -12.75 1.05 -13.05 1.2 -13.05 1.6 -13.65 Q2.35 -14.55 2.35 -15.1 L2.1 -16.0 M1.2 -13.05 L2.85 -12.9 4.1 -12.75 4.9 -12.5 6.3 -11.7 6.45 -9.65 6.5 -2.45 6.15 3.8 6.0 4.2 5.75 4.8 Q4.8 5.45 3.7 5.5 L-0.7 5.75 -1.25 5.75 -0.7 5.75 3.7 5.5 Q4.8 5.45 5.75 4.8 L6.0 4.2 6.15 3.8 6.5 -2.45 6.45 -9.65 6.3 -11.7 4.9 -12.5 4.1 -12.75 2.85 -12.9 1.2 -13.05" fill="#d1b6b6" fill-rule="evenodd" stroke="none"/>
    <path d="M-2.55 8.35 L-5.5 7.75 Q-8.15 6.95 -8.3 3.4 L-8.6 -2.95 -8.85 -9.15 Q-9.0 -12.15 -8.7 -13.55 -8.35 -15.0 -5.65 -15.65 L-0.2 -16.2 2.1 -16.0 2.35 -15.1 Q2.35 -14.55 1.6 -13.65 L1.2 -13.05 1.05 -13.05 -6.45 -12.75 -6.5 -11.45 -2.8 -11.65 0.5 -11.2 2.0 -10.55 Q1.0 -6.4 -0.8 -1.3 L-3.4 5.55 -1.25 5.75 -1.55 7.05 -2.55 8.35 M-6.5 -11.45 L-6.45 -10.6 -6.45 -9.8 -6.6 -5.2 -6.55 -2.5 -6.5 3.4 -6.35 4.45 -5.25 5.0 -4.2 5.45 -3.4 5.55 -4.2 5.45 -5.25 5.0 -6.35 4.45 -6.5 3.4 -6.55 -2.5 -6.6 -5.2 -6.45 -9.8 -6.45 -10.6 -6.5 -11.45" fill="#ffffff" fill-rule="evenodd" stroke="none"/>
    <path d="M-2.55 8.35 L-5.5 7.75 Q-8.15 6.95 -8.3 3.4 L-8.6 -2.95 -8.85 -9.15 Q-9.0 -12.15 -8.7 -13.55 -8.35 -15.0 -5.65 -15.65 L-0.2 -16.2 2.1 -16.0 3.55 -15.8 5.85 -15.3 Q7.15 -15.0 7.55 -14.35 L8.2 -13.25 Q8.85 -9.9 8.65 -6.2 L8.45 0.3 Q8.5 2.7 8.0 5.1 L7.6 6.0 Q5.7 8.05 3.1 8.25 L-2.0 8.4 -2.55 8.35 M-1.25 5.75 L-3.4 5.55 -4.2 5.45 -5.25 5.0 -6.35 4.45 -6.5 3.4 -6.55 -2.5 -6.6 -5.2 -6.45 -9.8 -6.45 -10.6 -6.5 -11.45 -6.45 -12.75 1.05 -13.05 1.2 -13.05 M-1.25 5.75 L-0.7 5.75 3.7 5.5 Q4.8 5.45 5.75 4.8 L6.0 4.2 6.15 3.8 6.5 -2.45 6.45 -9.65 6.3 -11.7 4.9 -12.5 4.1 -12.75 2.85 -12.9 1.2 -13.05" fill="none" stroke="#000000" stroke-linecap="round" stroke-linejoin="round" stroke-opacity="0.3019608" stroke-width="0.05"/>
  </g>
</svg>
