<?xml version="1.0" encoding="UTF-8" standalone="no"?>
<svg xmlns:xlink="http://www.w3.org/1999/xlink" height="10.55px" width="6.55px" xmlns="http://www.w3.org/2000/svg">
  <g transform="matrix(1.0, 0.0, 0.0, 1.0, -5.45, -21.7)">
    <path d="M9.75 22.05 Q10.5 23.85 10.5 24.45 L10.55 24.8 10.7 25.1 10.85 25.6 Q10.85 26.0 11.15 26.25 L11.6 26.95 11.8 27.7 11.85 28.25 12.0 28.65 11.75 29.4 11.55 30.15 11.65 30.5 11.6 30.9 11.25 30.3 11.25 29.8 10.75 27.5 10.5 26.3 10.35 25.75 10.15 25.15 10.0 23.75 9.6 22.75 9.7 22.35 9.55 22.15 9.6 21.7 9.75 21.7 9.75 22.05 M8.05 27.6 L8.15 27.85 8.4 29.45 8.5 30.05 8.75 30.75 8.9 31.0 8.45 31.75 7.75 32.25 7.35 32.1 7.2 31.9 7.3 31.4 7.15 30.85 7.55 29.2 7.35 27.75 7.55 27.35 7.85 26.9 7.9 27.3 8.05 27.6 M6.45 27.6 L6.3 29.25 6.45 30.25 6.35 30.65 6.45 30.85 6.3 31.5 5.9 31.95 5.6 31.8 5.55 31.75 5.45 31.45 5.5 30.9 5.7 30.4 5.6 30.25 5.85 29.1 Q5.85 28.8 6.4 27.4 L6.45 27.6" fill="#ffffff" fill-opacity="0.7019608" fill-rule="evenodd" stroke="none"/>
  </g>
</svg>
