<?xml version="1.0" encoding="UTF-8" standalone="no"?>
<svg xmlns:xlink="http://www.w3.org/1999/xlink" height="28.6px" width="34.05px" xmlns="http://www.w3.org/2000/svg">
  <g transform="matrix(1.0, 0.0, 0.0, 1.0, 17.0, 14.3)">
    <path d="M-16.95 -1.9 Q-17.35 -6.7 -15.45 -11.4 L-14.45 -11.85 -13.85 -11.7 Q-16.05 -8.4 -15.85 -3.25 -15.7 1.85 -13.8 7.5 -14.5 7.15 -15.5 5.0 -16.55 2.85 -16.95 -1.9 M-11.8 -11.25 L-12.6 -3.1 Q-13.25 2.75 -11.05 10.2 L-11.5 10.2 Q-13.6 6.0 -13.9 0.75 -14.3 -5.6 -11.8 -11.25 M-8.35 -9.9 L-7.8 -9.35 Q-8.5 -2.95 -7.55 3.5 -6.65 9.95 -7.75 12.5 L-9.1 1.15 Q-9.9 -4.7 -8.35 -9.9 M-3.85 -7.5 L-3.3 -8.25 -2.55 -4.55 -1.2 3.75 Q-0.45 9.05 -1.6 14.1 -2.2 10.0 -2.35 4.5 -2.55 -1.0 -3.85 -7.5 M12.4 -8.3 Q13.1 -6.5 13.75 -1.55 14.4 3.35 13.6 8.75 L13.15 8.75 13.05 6.4 12.6 -2.2 Q12.25 -7.15 10.1 -11.85 L11.1 -11.9 12.4 -8.3 M2.1 -8.5 L3.05 -5.65 Q4.5 -0.65 4.85 4.6 5.2 9.6 4.1 14.3 L3.55 13.85 3.45 9.35 Q3.45 0.75 1.5 -7.5 L1.5 -8.25 2.1 -8.5 M7.4 -10.05 Q8.6 -6.5 9.4 -2.9 11.35 4.75 9.3 12.0 L8.75 12.05 Q9.15 7.3 8.7 2.45 8.05 -3.7 6.9 -10.0 L7.4 -10.05 M11.7 -14.3 L12.2 -14.2 Q13.1 -13.4 14.55 -10.6 L15.9 -7.05 16.75 -2.85 16.95 -1.25 Q17.2 1.05 16.9 3.35 16.65 5.2 16.3 5.4 L15.25 7.1 15.95 2.2 16.0 -1.95 Q15.85 -3.95 14.9 -7.05 14.15 -9.8 11.7 -14.3" fill="#7e4b01" fill-rule="evenodd" stroke="none"/>
    <path d="M11.7 -14.3 Q14.15 -9.8 14.9 -7.05 15.85 -3.95 16.0 -1.95 L15.95 2.2 15.25 7.1 16.3 5.4 Q16.65 5.2 16.9 3.35 17.2 1.05 16.95 -1.25 L16.75 -2.85 15.9 -7.05 14.55 -10.6 Q13.1 -13.4 12.2 -14.2 L11.7 -14.3 M7.4 -10.05 L6.9 -10.0 Q8.05 -3.7 8.7 2.45 9.15 7.3 8.75 12.05 L9.3 12.0 Q11.35 4.75 9.4 -2.9 8.6 -6.5 7.4 -10.05 M2.1 -8.5 L1.5 -8.25 1.5 -7.5 Q3.45 0.75 3.45 9.35 L3.55 13.85 4.1 14.3 Q5.2 9.6 4.85 4.6 4.5 -0.65 3.05 -5.65 L2.1 -8.5 M12.4 -8.3 L11.1 -11.9 10.1 -11.85 Q12.25 -7.15 12.6 -2.2 L13.05 6.4 13.15 8.75 13.6 8.75 Q14.4 3.35 13.75 -1.55 13.1 -6.5 12.4 -8.3 M-3.85 -7.5 Q-2.55 -1.0 -2.35 4.5 -2.2 10.0 -1.6 14.1 -0.45 9.05 -1.2 3.75 L-2.55 -4.55 -3.3 -8.25 -3.85 -7.5 M-8.35 -9.9 Q-9.9 -4.7 -9.1 1.15 L-7.75 12.5 Q-6.65 9.95 -7.55 3.5 -8.5 -2.95 -7.8 -9.35 L-8.35 -9.9 M-11.8 -11.25 Q-14.3 -5.6 -13.9 0.75 -13.6 6.0 -11.5 10.2 L-11.05 10.2 Q-13.25 2.75 -12.6 -3.1 L-11.8 -11.25 M-16.95 -1.9 Q-16.55 2.85 -15.5 5.0 -14.5 7.15 -13.8 7.5 -15.7 1.85 -15.85 -3.25 -16.05 -8.4 -13.85 -11.7 L-14.45 -11.85 -15.45 -11.4 Q-17.35 -6.7 -16.95 -1.9" fill="none" stroke="#000000" stroke-linecap="round" stroke-linejoin="round" stroke-opacity="0.3019608" stroke-width="0.05"/>
  </g>
</svg>
