<?xml version="1.0" encoding="UTF-8" standalone="no"?>
<svg xmlns:xlink="http://www.w3.org/1999/xlink" height="9.15px" width="7.25px" xmlns="http://www.w3.org/2000/svg">
  <g transform="matrix(1.0, 0.0, 0.0, 1.0, 12.4, 11.65)">
    <path d="M-11.05 -3.75 Q-12.4 -4.3 -12.4 -5.25 -12.4 -8.25 -11.45 -11.65 L-9.55 -11.2 Q-7.85 -10.4 -7.5 -10.35 -5.75 -9.65 -5.35 -8.9 -5.15 -8.55 -5.15 -6.7 -5.15 -5.25 -5.55 -3.9 -5.9 -2.5 -6.7 -2.5 L-8.6 -2.85 -11.05 -3.75 M-10.95 -7.15 L-10.95 -5.95 Q-9.25 -4.8 -7.45 -4.35 -7.0 -6.3 -7.0 -7.7 -7.9 -8.05 -8.6 -8.5 L-10.45 -9.05 -10.95 -7.15" fill="#ffcc00" fill-rule="evenodd" stroke="none"/>
    <path d="M-11.05 -3.75 L-8.6 -2.85 -6.7 -2.5 Q-5.9 -2.5 -5.55 -3.9 -5.15 -5.25 -5.15 -6.7 -5.15 -8.55 -5.35 -8.9 -5.75 -9.65 -7.5 -10.35 -7.85 -10.4 -9.55 -11.2 L-11.45 -11.65 Q-12.4 -8.25 -12.4 -5.25 -12.4 -4.3 -11.05 -3.75 M-10.95 -7.15 L-10.95 -5.95 Q-9.25 -4.8 -7.45 -4.35 -7.0 -6.3 -7.0 -7.7 -7.9 -8.05 -8.6 -8.5 L-10.45 -9.05 -10.95 -7.15" fill="none" stroke="#000000" stroke-linecap="round" stroke-linejoin="round" stroke-opacity="0.3019608" stroke-width="0.05"/>
  </g>
</svg>
