<?xml version="1.0" encoding="UTF-8" standalone="no"?>
<svg xmlns:xlink="http://www.w3.org/1999/xlink" height="29.7px" width="34.95px" xmlns="http://www.w3.org/2000/svg">
  <g transform="matrix(1.0, 0.0, 0.0, 1.0, 17.7, 14.1)">
    <path d="M-1.15 -14.05 L0.25 -14.05 Q2.05 -14.0 12.15 -11.55 14.35 -6.6 15.4 -1.35 L16.95 5.75 17.25 6.8 16.55 8.25 Q15.1 9.15 12.85 10.95 L10.75 12.6 8.55 13.2 1.9 14.1 2.7 13.05 3.1 10.25 Q3.1 9.35 2.55 7.65 L1.25 3.35 Q0.25 -0.3 -0.55 -6.6 L-1.2 -13.9 -1.15 -14.05" fill="#d6baba" fill-rule="evenodd" stroke="none"/>
    <path d="M1.9 14.1 Q0.9 15.85 -2.65 15.55 L-11.65 14.1 Q-17.05 12.95 -17.3 10.8 -17.6 8.65 -17.6 4.4 L-17.7 -2.6 Q-17.75 -5.35 -17.25 -8.25 L-17.2 -8.6 Q-16.6 -10.5 -16.15 -12.35 -16.05 -12.75 -15.15 -13.0 L-13.3 -13.45 -11.35 -13.8 -4.65 -14.1 -1.15 -14.05 -1.2 -13.9 -0.55 -6.6 Q0.25 -0.3 1.25 3.35 L2.55 7.65 Q3.1 9.35 3.1 10.25 L2.7 13.05 1.9 14.1" fill="#ffffff" fill-rule="evenodd" stroke="none"/>
    <path d="M-1.15 -14.05 L0.25 -14.05 Q2.05 -14.0 12.15 -11.55 14.35 -6.6 15.4 -1.35 L16.95 5.75 17.25 6.8 M-17.3 10.8 Q-17.6 8.65 -17.6 4.4 L-17.7 -2.6 Q-17.75 -5.35 -17.25 -8.25 L-17.2 -8.6 Q-16.6 -10.5 -16.15 -12.35 -16.05 -12.75 -15.15 -13.0 L-13.3 -13.45 -11.35 -13.8 -4.65 -14.1 -1.15 -14.05 Z" fill="none" stroke="#000000" stroke-linecap="round" stroke-linejoin="round" stroke-opacity="0.3019608" stroke-width="0.05"/>
  </g>
</svg>
