<?xml version="1.0" encoding="UTF-8" standalone="no"?>
<svg xmlns:xlink="http://www.w3.org/1999/xlink" height="13.6px" width="36.6px" xmlns="http://www.w3.org/2000/svg">
  <g transform="matrix(1.0, 0.0, 0.0, 1.0, 17.85, -3.85)">
    <path d="M2.55 17.45 L0.1 17.25 0.1 17.3 -3.25 16.35 Q-7.25 15.1 -11.4 13.1 -15.5 11.05 -17.15 8.1 -18.8 5.15 -16.65 3.85 -16.15 6.95 -11.25 9.65 -6.35 12.3 -1.65 13.25 L0.0 13.55 3.3 13.6 3.65 15.4 2.55 17.45" fill="#ffffff" fill-rule="evenodd" stroke="none"/>
    <path d="M3.3 13.6 L4.45 13.6 6.05 13.55 9.15 13.25 13.0 12.4 Q15.55 10.8 17.9 8.7 18.4 8.6 18.75 9.7 18.75 10.95 18.35 11.5 L17.55 12.35 16.45 13.2 14.9 14.55 13.1 15.7 13.1 15.75 9.5 16.45 5.2 17.25 3.65 17.45 2.9 17.45 2.8 17.45 2.55 17.45 3.65 15.4 3.3 13.6" fill="#d6c7ba" fill-rule="evenodd" stroke="none"/>
    <path d="M3.3 13.6 L4.45 13.6 6.05 13.55 9.15 13.25 13.0 12.4 Q15.55 10.8 17.9 8.7 18.4 8.6 18.75 9.7 18.75 10.95 18.35 11.5 L17.55 12.35 16.45 13.2 14.9 14.55 13.1 15.7 M13.1 15.75 L9.5 16.45 5.2 17.25 3.65 17.45 2.9 17.45 2.8 17.45 2.55 17.45 0.1 17.25 M0.1 17.3 L-3.25 16.35 Q-7.25 15.1 -11.4 13.1 -15.5 11.05 -17.15 8.1 -18.8 5.15 -16.65 3.85 -16.15 6.95 -11.25 9.65 -6.35 12.3 -1.65 13.25 L0.0 13.55 3.3 13.6 Z" fill="none" stroke="#000000" stroke-linecap="round" stroke-linejoin="round" stroke-opacity="0.3019608" stroke-width="0.05"/>
  </g>
</svg>
