<?xml version="1.0" encoding="UTF-8" standalone="no"?>
<svg xmlns:xlink="http://www.w3.org/1999/xlink" height="12.95px" width="29.45px" xmlns="http://www.w3.org/2000/svg">
  <g transform="matrix(1.0, 0.0, 0.0, 1.0, 14.6, 6.5)">
    <path d="M-1.85 6.4 Q-5.2 6.1 -9.0 4.6 -13.55 2.8 -14.1 0.65 L-14.6 -1.95 -14.4 -3.4 -14.0 -5.0 -13.05 -6.45 -13.35 -4.85 Q-12.85 -2.9 -8.65 -1.6 -5.4 -0.6 -2.6 -0.35 L-1.1 -0.3 3.2 -0.75 Q3.4 0.6 2.9 1.05 L0.9 1.45 Q-1.95 1.85 -1.85 6.4" fill="#c9a894" fill-rule="evenodd" stroke="none"/>
    <path d="M3.2 -0.75 L6.4 -1.5 Q10.45 -2.65 12.75 -4.4 L11.9 -6.5 Q13.65 -5.65 14.55 -2.9 15.45 -0.2 13.7 1.6 11.95 3.35 7.55 4.95 3.15 6.5 -0.65 6.45 L-1.85 6.4 Q-1.95 1.85 0.9 1.45 L2.9 1.05 Q3.4 0.6 3.2 -0.75" fill="#af8061" fill-rule="evenodd" stroke="none"/>
    <path d="M3.2 -0.75 L6.4 -1.5 Q10.45 -2.65 12.75 -4.4 L11.9 -6.5 Q13.65 -5.65 14.55 -2.9 15.45 -0.2 13.7 1.6 11.95 3.35 7.55 4.95 3.15 6.5 -0.65 6.45 L-1.85 6.4 Q-5.2 6.1 -9.0 4.6 -13.55 2.8 -14.1 0.65 L-14.6 -1.95 -14.4 -3.4 -14.0 -5.0 -13.05 -6.45 -13.35 -4.85 Q-12.85 -2.9 -8.65 -1.6 -5.4 -0.6 -2.6 -0.35 L-1.1 -0.3 3.2 -0.75 Z" fill="none" stroke="#000000" stroke-linecap="round" stroke-linejoin="round" stroke-opacity="0.3019608" stroke-width="0.05"/>
    <path d="M-11.35 2.0 L-11.6 1.65 -12.0 0.75 -11.95 0.35 -11.8 -0.15 -6.2 0.05 -5.85 0.2 -5.75 0.85 Q-5.75 2.5 -9.0 2.5 L-10.35 2.35 -11.35 2.0" fill="#d6c7ba" fill-rule="evenodd" stroke="none"/>
    <path d="M-11.35 2.0 L-10.35 2.35 -9.0 2.5 Q-5.75 2.5 -5.75 0.85 L-5.85 0.2 Q-4.95 0.55 -4.15 1.15 L-3.6 1.75 -3.7 2.95 Q-6.5 4.8 -10.05 3.0 L-11.35 2.0" fill="#ffffff" fill-rule="evenodd" stroke="none"/>
    <path d="M-5.85 0.2 L-6.2 0.05 -11.8 -0.15 -11.95 0.35 -12.0 0.75 -11.6 1.65 -11.35 2.0 M-5.85 0.2 Q-4.95 0.55 -4.15 1.15 L-3.6 1.75 -3.7 2.95 Q-6.5 4.8 -10.05 3.0 L-11.35 2.0" fill="none" stroke="#000000" stroke-linecap="round" stroke-linejoin="round" stroke-opacity="0.3019608" stroke-width="0.05"/>
  </g>
</svg>
