<?xml version="1.0" encoding="UTF-8" standalone="no"?>
<svg xmlns:xlink="http://www.w3.org/1999/xlink" height="10.35px" width="22.35px" xmlns="http://www.w3.org/2000/svg">
  <g transform="matrix(1.0, 0.0, 0.0, 1.0, 15.45, 10.2)">
    <path d="M-15.15 -4.05 L-14.55 -8.0 Q-14.55 -9.5 -13.7 -10.0 -12.9 -10.5 -11.85 -9.75 L-10.75 -9.4 -15.15 -4.05" fill="#ffffff" fill-opacity="0.8" fill-rule="evenodd" stroke="none"/>
    <path d="M6.9 -9.45 L4.95 -7.65 Q3.0 -5.75 3.0 -4.2 L2.85 -3.9 2.8 -3.9 3.0 -2.15 2.85 -0.9 2.55 -0.65 Q1.75 -1.85 1.2 -3.55 0.6 -5.3 0.6 -6.55 0.6 -8.15 1.6 -8.7 2.2 -9.05 4.05 -9.2 L4.7 -9.2 4.8 -9.15 Q5.75 -9.7 6.75 -9.65 L6.9 -9.45 M-10.75 -9.4 L-8.45 -8.7 Q-6.6 -8.15 -6.6 -7.3 -6.6 -6.45 -7.9 -5.4 L-10.4 -3.6 -14.85 0.15 -15.15 0.1 -15.3 0.0 -15.45 -1.15 -15.15 -4.05 -10.75 -9.4" fill="#ffffff" fill-opacity="0.4" fill-rule="evenodd" stroke="none"/>
  </g>
</svg>
