<?xml version="1.0" encoding="UTF-8" standalone="no"?>
<svg xmlns:xlink="http://www.w3.org/1999/xlink" height="8.0px" width="16.95px" xmlns="http://www.w3.org/2000/svg">
  <g transform="matrix(1.0, 0.0, 0.0, 1.0, 13.65, -0.75)">
    <path d="M-11.6 0.75 Q-10.7 0.7 -10.7 1.4 L-10.95 3.2 -11.4 5.75 -12.05 5.5 Q-12.35 5.3 -13.15 5.0 L-13.65 4.7 -13.4 3.0 -13.0 0.8 -11.6 0.75" fill="#eae4e1" fill-rule="evenodd" stroke="none"/>
    <path d="M-11.6 0.75 L-13.0 0.8 -13.4 3.0 -13.65 4.7 -13.15 5.0 Q-12.35 5.3 -12.05 5.5 L-11.4 5.75 -10.95 3.2 -10.7 1.4 Q-10.7 0.7 -11.6 0.75 Z" fill="none" stroke="#000000" stroke-linecap="round" stroke-linejoin="round" stroke-opacity="0.3019608" stroke-width="0.05"/>
    <path d="M2.4 3.75 Q3.3 3.7 3.3 4.4 L3.05 6.2 Q2.75 7.3 2.6 8.75 L1.95 8.5 0.85 8.0 0.35 7.7 Q0.3 7.45 0.6 6.0 L1.0 3.8 2.4 3.75" fill="#eae4e1" fill-rule="evenodd" stroke="none"/>
    <path d="M2.4 3.75 L1.0 3.8 0.6 6.0 Q0.3 7.45 0.35 7.7 L0.85 8.0 1.95 8.5 2.6 8.75 Q2.75 7.3 3.05 6.2 L3.3 4.4 Q3.3 3.7 2.4 3.75 Z" fill="none" stroke="#000000" stroke-linecap="round" stroke-linejoin="round" stroke-opacity="0.3019608" stroke-width="0.05"/>
  </g>
</svg>
