<?xml version="1.0" encoding="UTF-8" standalone="no"?>
<svg xmlns:xlink="http://www.w3.org/1999/xlink" height="37.95px" width="22.4px" xmlns="http://www.w3.org/2000/svg">
  <g transform="matrix(1.0, 0.0, 0.0, 1.0, 11.2, 19.0)">
    <path d="M-0.5 -18.45 L1.05 -17.9 3.55 -16.1 6.3 -13.25 7.75 -11.65 8.95 -9.8 9.95 -8.0 11.2 -4.6 8.85 -5.9 7.9 -6.45 6.35 -7.0 Q5.7 -7.0 5.3 -6.0 4.95 -5.05 4.95 -3.7 4.95 -3.2 6.55 1.9 L8.1 7.25 8.25 8.15 7.75 10.35 7.8 10.7 7.8 12.4 7.5 14.05 6.5 10.95 3.5 0.9 3.0 -0.45 2.25 -2.15 1.65 -3.9 1.5 -4.5 0.5 -4.8 -0.5 -4.95 -2.15 -5.15 Q-3.2 -5.15 -3.95 -5.75 L-4.5 -6.2 -4.7 -6.45 -5.2 -6.95 -4.7 -6.45 -4.5 -6.2 -3.95 -5.75 Q-3.2 -5.15 -2.15 -5.15 L-0.5 -4.95 0.5 -4.8 1.5 -4.5 1.65 -3.9 2.25 -2.15 0.85 -0.6 -1.25 1.7 -1.7 0.95 -1.7 0.9 -1.75 0.85 -1.75 0.8 -1.75 0.75 -2.0 0.45 -2.05 0.45 -2.95 -0.45 -4.6 -1.5 Q-5.75 -2.2 -6.55 -3.15 L-6.6 -3.1 -6.9 -3.55 -7.0 -3.7 -7.1 -3.8 -7.5 -4.55 -8.3 -5.95 -7.15 -6.2 Q-6.6 -6.3 -5.65 -7.55 L-5.2 -6.95 -5.75 -7.7 Q-6.95 -9.6 -7.25 -11.7 L-7.35 -12.9 -7.1 -14.7 Q-6.3 -17.35 -3.15 -18.15 L-0.5 -18.45 M-6.55 -3.15 L-6.9 -3.55 -6.55 -3.15" fill="#d6baba" fill-rule="evenodd" stroke="none"/>
    <path d="M-0.5 -18.45 L-3.15 -18.15 Q-6.3 -17.35 -7.1 -14.7 L-7.35 -12.9 -7.25 -11.7 Q-6.95 -9.6 -5.75 -7.7 L-5.2 -6.95 -5.65 -7.55 Q-6.6 -6.3 -7.15 -6.2 L-8.3 -5.95 -9.0 -7.4 -11.2 -12.55 -10.55 -14.0 -9.1 -16.35 -8.35 -17.15 Q-7.7 -17.9 -6.9 -18.25 L-6.1 -18.5 -2.95 -18.95 Q-1.6 -19.1 -0.5 -18.45 M2.25 -2.15 L3.0 -0.45 3.5 0.9 6.5 10.95 7.5 14.05 6.05 17.3 5.85 18.9 5.55 18.95 0.95 6.75 -0.3 3.85 -1.25 1.7 0.85 -0.6 2.25 -2.15 M-1.75 0.75 L-2.05 0.45 -2.0 0.45 -1.75 0.75" fill="#ffffff" fill-rule="evenodd" stroke="none"/>
    <path d="M7.5 14.05 L7.8 12.4 7.8 10.7 7.75 10.35 8.25 8.15 8.1 7.25 6.55 1.9 Q4.95 -3.2 4.95 -3.7 4.95 -5.05 5.3 -6.0 5.7 -7.0 6.35 -7.0 L7.9 -6.45 8.85 -5.9 11.2 -4.6 9.95 -8.0 8.95 -9.8 7.75 -11.65 6.3 -13.25 3.55 -16.1 1.05 -17.9 -0.5 -18.45 -3.15 -18.15 Q-6.3 -17.35 -7.1 -14.7 L-7.35 -12.9 -7.25 -11.7 Q-6.95 -9.6 -5.75 -7.7 L-5.2 -6.95 -4.7 -6.45 -4.5 -6.2 -3.95 -5.75 Q-3.2 -5.15 -2.15 -5.15 L-0.5 -4.95 0.5 -4.8 1.5 -4.5 1.65 -3.9 2.25 -2.15 3.0 -0.45 3.5 0.9 6.5 10.95 7.5 14.05 6.05 17.3 5.85 18.9 5.55 18.95 0.95 6.75 -0.3 3.85 -1.25 1.7 -1.7 0.95 -1.7 0.9 -1.75 0.85 -1.75 0.8 -1.75 0.75 -2.05 0.45 -2.95 -0.45 -4.6 -1.5 Q-5.75 -2.2 -6.55 -3.15 M-6.9 -3.55 L-7.0 -3.7 -7.1 -3.8 -7.5 -4.55 -8.3 -5.95 -9.0 -7.4 -11.2 -12.55 -10.55 -14.0 -9.1 -16.35 -8.35 -17.15 Q-7.7 -17.9 -6.9 -18.25 L-6.1 -18.5 -2.95 -18.95 Q-1.6 -19.1 -0.5 -18.45 M-6.9 -3.55 L-6.55 -3.15" fill="none" stroke="#000000" stroke-linecap="round" stroke-linejoin="round" stroke-opacity="0.3019608" stroke-width="0.05"/>
  </g>
</svg>
