<?xml version="1.0" encoding="UTF-8" standalone="no"?>
<svg xmlns:xlink="http://www.w3.org/1999/xlink" height="23.6px" width="22.55px" xmlns="http://www.w3.org/2000/svg">
  <g transform="matrix(1.0, 0.0, 0.0, 1.0, 11.3, 11.8)">
    <path d="M10.0 -6.8 L8.2 -0.65 Q6.65 4.95 6.65 5.75 L6.1 9.3 5.9 11.7 6.1 9.3 6.65 5.75 Q6.65 4.95 8.2 -0.65 L10.0 -6.8 11.25 -6.35 Q7.95 3.4 7.45 11.8 L5.9 11.7 Q-0.2 11.25 -5.8 9.55 L-6.7 7.3 0.35 0.85 8.05 -7.4 10.0 -6.8" fill="#d1b6b6" fill-rule="evenodd" stroke="none"/>
    <path d="M8.05 -7.4 L0.35 0.85 -6.7 7.3 Q-10.05 -1.5 -11.3 -11.8 -1.15 -10.25 8.05 -7.4" fill="#ffffff" fill-rule="evenodd" stroke="none"/>
    <path d="M5.9 11.7 L6.1 9.3 6.65 5.75 Q6.65 4.95 8.2 -0.65 L10.0 -6.8 8.05 -7.4 M-6.7 7.3 L-5.8 9.55 Q-0.2 11.25 5.9 11.7 L7.45 11.8 Q7.95 3.4 11.25 -6.35 L10.0 -6.8 M-6.7 7.3 Q-10.05 -1.5 -11.3 -11.8 -1.15 -10.25 8.05 -7.4" fill="none" stroke="#000000" stroke-linecap="round" stroke-linejoin="round" stroke-opacity="0.3019608" stroke-width="0.05"/>
  </g>
</svg>
