<?xml version="1.0" encoding="UTF-8" standalone="no"?>
<svg xmlns:xlink="http://www.w3.org/1999/xlink" height="7.9px" width="6.3px" xmlns="http://www.w3.org/2000/svg">
  <g transform="matrix(1.0, 0.0, 0.0, 1.0, 4.05, 3.95)">
    <path d="M1.75 -3.95 L1.9 -3.95 Q2.5 -3.95 2.05 -2.65 L1.35 -1.15 0.95 -0.15 0.7 1.25 0.25 3.25 Q-0.05 3.95 -0.3 3.95 L-1.15 3.8 -1.95 3.65 -2.0 3.6 -2.0 3.65 -2.7 3.75 -3.1 3.75 -3.1 3.7 -2.7 3.3 -3.45 3.55 -3.5 3.45 -2.9 2.7 -2.8 2.85 Q-2.55 1.6 -2.25 1.85 L-2.25 1.7 -1.7 0.55 -1.25 -1.15 Q-0.8 -2.05 0.6 -3.05 L1.75 -3.95" fill="#d6baba" fill-rule="evenodd" stroke="none"/>
    <path d="M-3.9 2.6 L-2.85 1.2 -2.7 0.8 -2.6 0.5 -1.9 -1.6 -0.65 -2.85 Q0.6 -3.85 1.75 -3.95 L0.6 -3.05 Q-0.8 -2.05 -1.25 -1.15 L-1.7 0.55 -2.25 1.7 -2.25 1.85 Q-2.55 1.6 -2.8 2.85 L-2.9 2.7 Q-3.9 3.2 -4.05 3.15 L-3.35 2.3 -3.4 2.3 -3.85 2.65 -3.9 2.6" fill="#ffffff" fill-rule="evenodd" stroke="none"/>
    <path d="M-3.9 2.6 L-2.85 1.2 -2.7 0.8 -2.6 0.5 -1.9 -1.6 -0.65 -2.85 Q0.6 -3.85 1.75 -3.95 L1.9 -3.95 Q2.5 -3.95 2.05 -2.65 L1.35 -1.15 0.95 -0.15 0.7 1.25 0.25 3.25 Q-0.05 3.95 -0.3 3.95 L-1.15 3.8 -1.95 3.65 -2.0 3.65 -2.7 3.75 -3.1 3.75 -3.1 3.7 -2.7 3.3 -3.45 3.55 -3.5 3.45 -2.9 2.7 Q-3.9 3.2 -4.05 3.15 L-3.35 2.3 -3.4 2.3 -3.85 2.65 -3.9 2.65 -3.9 2.6 M-1.95 3.65 L-2.0 3.6" fill="none" stroke="#000000" stroke-linecap="round" stroke-linejoin="round" stroke-opacity="0.3019608" stroke-width="0.05"/>
  </g>
</svg>
