<?xml version="1.0" encoding="UTF-8" standalone="no"?>
<svg xmlns:xlink="http://www.w3.org/1999/xlink" height="35.0px" width="39.75px" xmlns="http://www.w3.org/2000/svg">
  <g transform="matrix(1.0, 0.0, 0.0, 1.0, 19.85, 17.5)">
    <path d="M11.7 -16.6 L13.8 -16.15 17.95 -14.65 19.05 -13.85 19.75 -12.5 19.9 -10.65 Q19.85 -9.1 19.4 -7.6 18.55 -4.9 17.05 -2.35 L14.1 2.45 Q12.7 4.5 10.9 6.2 L4.95 13.8 4.7 14.1 Q2.65 15.75 0.15 16.4 L-1.0 16.7 -2.3 17.0 -4.55 17.3 -6.75 17.5 -6.75 17.45 Q-5.75 14.95 -5.4 12.35 L-4.9 10.55 -4.45 9.4 Q-3.6 7.5 -5.3 6.3 L-5.45 5.95 -5.1 5.75 -4.2 5.55 -1.7 4.65 Q0.75 3.65 2.75 2.0 L4.85 0.35 7.4 -1.6 Q9.35 -3.15 11.15 -4.85 L12.65 -6.55 13.4 -8.0 Q13.6 -8.6 13.4 -9.15 12.4 -12.05 9.4 -12.4 L7.7 -12.15 5.65 -11.3 1.25 -9.2 Q-1.15 -8.1 -3.7 -7.55 L-5.95 -7.5 Q-7.45 -7.85 -8.5 -9.0 L-9.0 -9.95 Q-9.35 -11.15 -8.75 -12.35 L-7.15 -15.5 Q-5.7 -16.35 -3.45 -16.8 L-3.2 -16.85 1.5 -17.5 1.65 -17.5 10.9 -16.7 11.55 -16.6 11.7 -16.6" fill="#d6baba" fill-rule="evenodd" stroke="none"/>
    <path d="M-3.2 -16.85 L-3.45 -16.8 -3.5 -16.8 -3.2 -16.85 M-7.15 -15.5 L-8.75 -12.35 Q-9.35 -11.15 -9.0 -9.95 L-8.5 -9.0 Q-7.45 -7.85 -5.95 -7.5 L-3.7 -7.55 Q-1.15 -8.1 1.25 -9.2 L5.65 -11.3 7.7 -12.15 9.4 -12.4 Q12.4 -12.05 13.4 -9.15 13.6 -8.6 13.4 -8.0 L12.65 -6.55 11.15 -4.85 Q9.35 -3.15 7.4 -1.6 L4.85 0.35 2.75 2.0 Q0.75 3.65 -1.7 4.65 L-4.2 5.55 -5.1 5.75 -5.45 5.95 -5.3 6.3 Q-3.6 7.5 -4.45 9.4 L-4.9 10.55 -5.4 12.35 Q-5.75 14.95 -6.75 17.45 L-9.5 17.3 Q-12.35 17.0 -14.95 15.85 -18.15 14.45 -19.85 11.4 L-19.8 10.5 -19.65 6.85 -18.4 0.1 -18.3 -0.25 -18.3 -0.3 -18.4 -0.6 -18.45 -0.75 -18.75 -1.7 -18.7 -2.95 -18.75 -1.7 -18.9 -2.15 -18.7 -2.95 -18.65 -3.2 -18.6 -3.4 -17.55 -6.15 Q-16.75 -8.2 -14.85 -9.55 L-14.1 -10.1 -14.85 -9.55 Q-16.75 -8.2 -17.55 -6.15 L-18.6 -3.4 -17.9 -5.55 -16.9 -7.45 Q-16.15 -8.7 -14.9 -9.55 L-14.1 -10.1 -13.65 -10.5 -12.0 -11.9 -10.95 -12.85 -8.25 -14.8 -7.75 -15.05 -7.15 -15.5 -7.75 -15.05 -8.25 -14.8 -8.0 -14.95 -7.15 -15.5 M-12.45 1.15 L-15.95 0.65 -18.3 -0.25 -15.95 0.65 -12.45 1.15 M-5.1 5.75 L-7.3 5.0 Q-9.0 4.4 -9.7 2.8 L-11.0 0.05 -9.7 2.8 Q-9.0 4.4 -7.3 5.0 L-5.1 5.75" fill="#ffffff" fill-rule="evenodd" stroke="none"/>
    <path d="M4.95 13.8 L10.9 6.2 Q12.7 4.5 14.1 2.45 L17.05 -2.35 Q18.55 -4.9 19.4 -7.6 19.85 -9.1 19.9 -10.65 L19.75 -12.5 19.05 -13.85 17.95 -14.65 13.8 -16.15 11.7 -16.6 M11.55 -16.6 L10.9 -16.7 1.65 -17.5 1.5 -17.5 -3.2 -16.85 -3.45 -16.8 Q-5.7 -16.35 -7.15 -15.5 M-4.2 5.55 L-5.1 5.75 M-8.25 -14.8 L-7.75 -15.05 -7.15 -15.5 M-8.25 -14.8 L-10.95 -12.85 -12.0 -11.9 -13.65 -10.5 -14.1 -10.1 -14.85 -9.55 Q-16.75 -8.2 -17.55 -6.15 L-18.6 -3.4 -18.65 -3.2 -18.7 -2.95 -18.75 -1.7 -18.45 -0.75 -18.4 -0.6 -18.3 -0.3 -18.3 -0.25 -15.95 0.65 -12.45 1.15 M-11.0 0.05 L-9.7 2.8 Q-9.0 4.4 -7.3 5.0 L-5.1 5.75 M-18.3 -0.25 L-18.4 0.1 -19.65 6.85 -19.8 10.5" fill="none" stroke="#000000" stroke-linecap="round" stroke-linejoin="round" stroke-opacity="0.3019608" stroke-width="0.05"/>
  </g>
</svg>
