<?xml version="1.0" encoding="UTF-8" standalone="no"?>
<svg xmlns:xlink="http://www.w3.org/1999/xlink" height="10.8px" width="10.5px" xmlns="http://www.w3.org/2000/svg">
  <g transform="matrix(1.0, 0.0, 0.0, 1.0, 7.25, 17.0)">
    <path d="M2.5 -13.05 Q3.85 -10.75 2.75 -8.35 1.75 -6.25 -0.6 -6.2 L-2.3 -6.4 Q-4.65 -7.25 -6.05 -9.2 -6.85 -10.4 -7.15 -11.75 -7.7 -14.4 -5.7 -16.1 -3.75 -17.65 -1.5 -16.6 0.7 -15.5 2.15 -13.55 L2.5 -13.05" fill="#999999" fill-rule="evenodd" stroke="none"/>
    <path d="M2.5 -13.05 Q3.85 -10.75 2.75 -8.35 1.75 -6.25 -0.6 -6.2 L-2.3 -6.4 Q-4.65 -7.25 -6.05 -9.2 -6.85 -10.4 -7.15 -11.75 -7.7 -14.4 -5.7 -16.1 -3.75 -17.65 -1.5 -16.6 0.7 -15.5 2.15 -13.55 L2.5 -13.05 Z" fill="none" stroke="#000000" stroke-linecap="round" stroke-linejoin="round" stroke-opacity="0.3019608" stroke-width="0.05"/>
  </g>
</svg>
