<?xml version="1.0" encoding="UTF-8" standalone="no"?>
<svg xmlns:xlink="http://www.w3.org/1999/xlink" height="10.6px" width="12.05px" xmlns="http://www.w3.org/2000/svg">
  <g transform="matrix(1.0, 0.0, 0.0, 1.0, 4.9, 5.35)">
    <path d="M3.35 -4.95 L5.55 -5.35 5.7 -5.35 4.75 -4.75 4.7 -4.75 5.05 -4.65 5.9 -4.55 6.7 -4.65 6.95 -4.65 Q5.55 -3.7 5.2 -3.9 5.35 -3.7 6.05 -3.5 L7.15 -3.4 6.5 -2.6 5.95 -2.15 6.7 -0.8 6.2 -1.05 5.9 -1.0 6.15 -0.95 Q5.85 -0.3 4.55 -0.05 L3.35 0.3 2.95 0.5 2.7 0.9 2.3 1.85 2.25 2.0 2.25 2.05 2.4 3.5 1.85 4.0 2.15 4.25 2.1 4.3 1.3 4.4 1.3 4.45 Q1.55 4.45 1.75 4.7 L1.7 4.75 0.3 4.95 -1.45 5.25 -0.8 4.95 -0.85 4.95 -1.75 5.05 -2.85 5.2 -2.45 4.9 -2.3 4.8 -2.0 4.75 -1.8 4.6 -2.05 2.15 -1.45 2.1 -1.05 2.15 -0.75 2.05 -0.7 1.95 -1.6 1.55 -1.2 0.4 -0.8 -0.2 -0.5 -0.9 Q-0.25 -1.85 0.4 -2.35 L0.5 -2.4 Q0.9 -2.8 0.9 -3.5 L0.3 -4.0 -0.7 -4.2 Q0.3 -5.1 1.5 -4.85 L1.8 -4.9 2.75 -4.95 2.9 -4.95 3.35 -4.95 M4.45 -3.55 L2.85 -3.4 3.35 -3.55 4.0 -4.1 3.35 -3.85 3.2 -3.85 2.1 -3.6 3.2 -3.85 3.35 -3.85 4.0 -4.1 3.35 -3.55 2.85 -3.4 4.45 -3.55 M0.35 2.8 L2.25 2.0 0.35 2.8 M2.3 1.85 L-0.75 2.05 2.3 1.85" fill="#d6baba" fill-rule="evenodd" stroke="none"/>
    <path d="M-2.85 5.2 L-3.35 5.15 -3.0 4.95 -3.35 4.95 -4.55 4.85 -4.25 4.5 -4.3 4.5 -4.6 4.6 -4.9 4.55 -4.9 4.45 -4.3 3.55 -3.95 2.75 -4.0 2.75 -4.6 3.15 -4.65 3.15 -4.65 3.1 Q-4.25 2.8 -3.75 1.7 L-3.2 0.3 -3.25 0.3 -4.35 1.15 -3.5 -0.05 -2.8 -0.85 -2.5 -1.6 -2.5 -1.7 -2.5 -1.65 -2.5 -1.6 -2.45 -1.15 -2.45 -1.65 -2.45 -1.7 -1.85 -2.7 -1.05 -3.85 -0.7 -4.2 0.3 -4.0 0.9 -3.5 Q0.9 -2.8 0.5 -2.4 L0.4 -2.35 Q-0.25 -1.85 -0.5 -0.9 L-0.8 -0.2 -1.2 0.4 -1.6 1.55 -0.7 1.95 -0.75 2.05 -1.05 2.15 -1.45 2.1 -2.05 2.15 -1.8 4.6 -2.0 4.75 -2.3 4.8 -2.45 4.9 -2.85 5.2 M-1.75 -0.85 L-1.0 -3.25 -2.45 -1.65 -1.0 -3.25 -1.75 -0.85 M0.5 -2.4 Q-0.6 -2.0 -0.8 -0.2 -0.6 -2.0 0.5 -2.4" fill="#ffffff" fill-rule="evenodd" stroke="none"/>
    <path d="M3.35 -4.95 L5.55 -5.35 5.7 -5.35 4.75 -4.75 4.7 -4.75 5.05 -4.65 5.9 -4.55 6.7 -4.65 6.95 -4.65 Q5.55 -3.7 5.2 -3.9 5.35 -3.7 6.05 -3.5 L7.15 -3.4 6.5 -2.6 5.95 -2.15 6.7 -0.8 6.2 -1.05 5.9 -1.0 6.15 -0.95 Q5.85 -0.3 4.55 -0.05 L3.35 0.3 2.95 0.5 2.7 0.9 2.3 1.85 2.25 2.0 2.25 2.05 2.4 3.5 1.85 4.0 2.15 4.25 2.1 4.3 1.3 4.4 1.3 4.45 Q1.55 4.45 1.75 4.7 L1.75 4.75 1.7 4.75 0.3 4.95 -1.45 5.25 -0.8 4.95 -0.85 4.95 -1.75 5.05 -2.85 5.2 -3.35 5.15 -3.0 4.95 -3.35 4.95 -4.55 4.85 -4.25 4.5 -4.3 4.5 -4.6 4.6 -4.9 4.55 -4.9 4.45 -4.3 3.55 -3.95 2.75 -4.0 2.75 -4.6 3.15 -4.65 3.15 -4.7 3.1 -4.65 3.1 Q-4.25 2.8 -3.75 1.7 L-3.2 0.3 -3.25 0.3 -4.35 1.15 -3.5 -0.05 -2.8 -0.85 -2.5 -1.6 -2.5 -1.7 M-2.5 -1.65 L-2.5 -1.6 M-2.45 -1.7 L-1.85 -2.7 -1.05 -3.85 -0.7 -4.2 Q0.3 -5.1 1.5 -4.85 L1.8 -4.9 2.75 -4.95 2.9 -4.95 3.35 -4.95 M2.1 -3.6 L3.2 -3.85 3.35 -3.85 4.0 -4.1 3.35 -3.55 2.85 -3.4 4.45 -3.55 M-0.75 2.05 L2.3 1.85 M2.25 2.0 L0.35 2.8 M-2.45 -1.65 L-1.0 -3.25 -1.75 -0.85 M-0.8 -0.2 Q-0.6 -2.0 0.5 -2.4" fill="none" stroke="#000000" stroke-linecap="round" stroke-linejoin="round" stroke-opacity="0.3019608" stroke-width="0.05"/>
  </g>
</svg>
