<?xml version="1.0" encoding="UTF-8" standalone="no"?>
<svg xmlns:xlink="http://www.w3.org/1999/xlink" height="38.65px" width="34.2px" xmlns="http://www.w3.org/2000/svg">
  <g transform="matrix(1.0, 0.0, 0.0, 1.0, 17.1, 19.25)">
    <path d="M5.15 -11.55 L5.95 -12.65 9.05 -15.95 Q11.05 -17.95 13.0 -19.25 L14.75 -19.1 17.1 -18.4 Q14.0 -15.75 12.55 -14.0 L10.6 -11.2 10.4 -10.7 9.95 -9.7 9.2 -7.8 Q8.3 -5.45 6.6 -2.55 L6.6 -3.8 Q6.35 -5.0 5.35 -5.8 L4.35 -6.25 3.35 -6.2 2.0 -5.25 2.7 -7.1 4.05 -9.75 4.9 -11.2 5.15 -11.55 M11.3 -5.75 L11.4 -6.05 Q11.5 -3.25 13.25 -2.05 14.55 -1.15 16.95 -1.15 L13.2 4.45 12.4 5.75 11.7 7.1 Q11.0 9.75 11.4 11.45 L11.8 13.65 Q11.85 14.05 11.1 14.95 9.75 16.5 8.7 16.95 L8.65 17.0 2.5 19.0 -2.35 19.3 -5.6 18.5 -5.85 18.1 -6.35 16.8 -4.2 13.5 -3.6 8.3 -3.6 8.1 -3.45 7.25 -3.05 5.75 Q-2.6 4.4 -2.0 3.75 L-0.55 1.75 0.55 0.85 0.6 0.7 1.6 -0.65 2.85 0.3 4.05 0.65 6.8 0.2 Q7.9 -0.2 8.9 -1.4 10.0 -2.75 11.0 -5.05 L11.15 -5.4 11.2 -5.45 11.3 -5.75" fill="#64544f" fill-rule="evenodd" stroke="none"/>
    <path d="M5.15 -11.55 L4.9 -11.2 4.05 -9.75 2.7 -7.1 2.0 -5.25 3.35 -6.2 4.35 -6.25 5.35 -5.8 Q6.35 -5.0 6.6 -3.8 L6.6 -2.55 Q8.3 -5.45 9.2 -7.8 L9.95 -9.7 10.4 -10.7 10.35 -10.5 Q10.35 -9.5 10.65 -7.7 10.75 -6.9 11.1 -6.2 L11.3 -5.75 11.2 -5.45 11.15 -5.4 11.0 -5.05 Q10.0 -2.75 8.9 -1.4 7.9 -0.2 6.8 0.2 L4.05 0.65 2.85 0.3 1.6 -0.65 0.6 0.7 0.55 0.85 -0.55 1.75 -2.0 3.75 Q-2.6 4.4 -3.05 5.75 L-3.45 7.25 -3.6 8.1 -3.6 8.3 -4.2 13.5 -6.35 16.8 -5.85 18.1 -5.6 18.5 -7.55 17.9 Q-9.55 17.25 -11.7 15.95 L-15.4 13.5 Q-16.9 12.35 -17.1 11.55 L-15.8 9.85 -15.25 9.0 Q-14.55 7.75 -14.5 6.25 L-14.5 5.45 -14.5 3.9 -14.25 3.2 -13.95 2.5 -13.65 1.6 -13.6 1.15 Q-13.6 0.1 -14.2 -2.35 L-14.15 -2.7 -14.2 -2.75 -13.85 -4.35 -13.75 -4.3 -14.1 -5.8 -14.65 -6.3 -14.7 -7.15 Q-14.7 -8.25 -14.05 -9.25 -13.3 -10.3 -12.25 -10.5 L-11.65 -10.45 -11.75 -10.3 Q-10.65 -10.75 -10.1 -11.15 L-8.8 -12.1 -8.5 -12.25 -7.75 -13.15 -7.85 -12.65 Q-8.0 -11.35 -6.9 -10.45 -5.85 -9.6 -3.1 -9.4 -0.55 -9.25 1.8 -10.45 L3.35 -11.1 5.15 -11.55 M2.4 -10.4 L2.35 -10.35 2.4 -10.35 2.4 -10.4 M-9.65 -10.85 L-9.6 -10.8 -9.6 -10.85 -9.65 -10.85" fill="#938175" fill-rule="evenodd" stroke="none"/>
    <path d="M10.4 -10.7 L10.6 -11.2 12.55 -14.0 Q14.0 -15.75 17.1 -18.4 L14.75 -19.1 13.0 -19.25 Q11.05 -17.95 9.05 -15.95 L5.95 -12.65 5.15 -11.55 4.9 -11.2 4.05 -9.75 2.7 -7.1 2.0 -5.25 3.35 -6.2 4.35 -6.25 5.35 -5.8 Q6.35 -5.0 6.6 -3.8 L6.6 -2.55 Q8.3 -5.45 9.2 -7.8 L9.95 -9.7 10.4 -10.7 10.35 -10.5 Q10.35 -9.5 10.65 -7.7 10.75 -6.9 11.1 -6.2 L11.3 -5.75 11.4 -6.05 Q11.5 -3.25 13.25 -2.05 14.55 -1.15 16.95 -1.15 L13.2 4.45 12.4 5.75 11.7 7.1 Q11.0 9.75 11.4 11.45 L11.8 13.65 Q11.85 14.05 11.1 14.95 9.75 16.5 8.7 16.95 L8.65 17.0 2.5 19.0 -2.35 19.3 -5.6 18.5 -7.55 17.9 Q-9.55 17.25 -11.7 15.95 L-15.4 13.5 Q-16.9 12.35 -17.1 11.55 L-15.8 9.85 -15.25 9.0 Q-14.55 7.75 -14.5 6.25 L-14.5 5.45 -14.5 3.9 -14.25 3.2 -13.95 2.5 -13.65 1.6 -13.6 1.15 Q-13.6 0.1 -14.2 -2.35 L-14.15 -2.7 -14.2 -2.75 -13.85 -4.35 -13.75 -4.3 -14.1 -5.8 -14.65 -6.3 -14.7 -7.15 Q-14.7 -8.25 -14.05 -9.25 -13.3 -10.3 -12.25 -10.5 L-11.65 -10.45 -11.75 -10.3 Q-10.65 -10.75 -10.1 -11.15 L-8.8 -12.1 -8.5 -12.25 -7.75 -13.15 -7.85 -12.65 Q-8.0 -11.35 -6.9 -10.45 -5.85 -9.6 -3.1 -9.4 -0.55 -9.25 1.8 -10.45 L3.35 -11.1 5.15 -11.55" fill="none" stroke="#000000" stroke-linecap="round" stroke-linejoin="round" stroke-opacity="0.3019608" stroke-width="0.05"/>
  </g>
</svg>
