<?xml version="1.0" encoding="UTF-8" standalone="no"?>
<svg xmlns:xlink="http://www.w3.org/1999/xlink" height="21.5px" width="17.55px" xmlns="http://www.w3.org/2000/svg">
  <g transform="matrix(1.0, 0.0, 0.0, 1.0, 8.8, 10.75)">
    <path d="M0.35 -5.8 L-2.25 -3.1 -3.65 -2.05 -4.45 -7.2 Q-4.15 -7.0 -2.9 -6.6 L-2.85 -6.6 0.35 -5.8 M-2.9 -6.6 L-3.0 -6.4 Q-3.55 -4.5 -3.65 -2.05 -3.55 -4.5 -3.0 -6.4 L-2.9 -6.6 M5.1 1.65 L5.7 1.1 Q6.35 0.6 6.35 -0.5 L6.2 -1.25 6.3 -1.45 6.7 -1.1 Q8.75 0.7 8.75 1.65 L8.45 3.45 Q8.15 4.3 7.35 4.8 L5.55 5.25 Q4.6 5.25 3.9 4.75 5.2 4.4 5.2 2.75 L5.05 1.7 5.1 1.65 5.35 1.8 6.0 2.3 5.35 1.8 5.1 1.65 M3.55 5.6 L3.6 5.7 Q4.4 7.3 4.4 8.0 4.4 9.05 3.25 9.85 L2.1 10.45 2.05 10.4 3.15 8.9 Q3.6 8.1 3.6 6.8 L3.5 5.6 3.55 5.6" fill="#bcbecb" fill-rule="evenodd" stroke="none"/>
    <path d="M-4.45 -7.2 L-4.45 -7.25 -2.15 -9.8 -0.9 -10.75 Q-0.5 -10.75 -0.15 -8.35 L0.35 -5.8 -2.85 -6.6 -2.9 -6.6 Q-4.15 -7.0 -4.45 -7.2 M-0.9 -10.75 Q-2.1 -8.85 -2.9 -6.6 -2.1 -8.85 -0.9 -10.75 M-8.75 -1.25 L-8.5 -0.7 -8.3 0.4 -8.25 0.75 -8.3 0.4 -8.5 -0.7 -8.75 -1.25 -8.35 -5.15 Q-7.6 -5.2 -6.2 -3.95 -4.85 -2.75 -5.35 -1.05 L-6.7 2.55 Q-7.6 4.45 -7.55 5.5 -7.55 6.55 -7.2 7.2 L-6.6 8.0 -6.15 7.95 -5.95 7.35 Q-5.95 8.35 -6.1 8.65 L-7.1 8.7 Q-7.95 8.2 -8.45 6.95 L-8.7 6.35 -8.7 6.15 -8.75 3.6 -8.7 3.25 -8.6 2.85 Q-8.25 1.5 -8.25 0.75 L-8.7 1.7 -8.8 1.85 -8.8 -0.1 -8.75 -1.25 M6.3 -1.45 L6.2 -1.25 6.35 -0.5 Q6.35 0.6 5.7 1.1 L5.1 1.65 4.8 1.5 4.55 1.45 Q3.8 1.45 3.3 1.95 2.9 2.35 2.85 3.0 L2.8 3.3 2.8 3.35 2.8 3.3 2.85 3.0 Q2.9 2.35 3.3 1.95 3.8 1.45 4.55 1.45 L4.8 1.5 5.1 1.65 5.05 1.7 5.2 2.75 Q5.2 4.4 3.9 4.75 L3.8 4.65 3.75 4.6 2.8 3.35 Q2.8 4.1 3.5 5.5 L3.55 5.6 3.5 5.6 3.6 6.8 Q3.6 8.1 3.15 8.9 L2.05 10.4 1.95 10.5 0.1 10.75 Q-1.6 10.75 -2.15 10.1 -2.5 9.7 -2.5 8.65 L-2.1 9.45 -1.1 9.75 Q-0.3 9.75 0.35 9.35 1.15 8.85 1.15 8.15 1.15 7.2 0.25 4.45 L-0.7 1.2 Q-0.7 -0.25 0.45 -1.4 1.8 -2.75 3.85 -2.75 4.75 -2.75 6.3 -1.45" fill="#ffffff" fill-rule="evenodd" stroke="none"/>
    <path d="M-4.45 -7.2 L-4.45 -7.25 -2.15 -9.8 -0.9 -10.75 Q-0.5 -10.75 -0.15 -8.35 L0.35 -5.8 -2.25 -3.1 -3.65 -2.05 -4.45 -7.2 Q-4.15 -7.0 -2.9 -6.6 -2.1 -8.85 -0.9 -10.75 M-2.9 -6.6 L-2.85 -6.6 0.35 -5.8 M-3.65 -2.05 Q-3.55 -4.5 -3.0 -6.4 L-2.9 -6.6 M-8.25 0.75 L-8.3 0.4 -8.5 -0.7 -8.75 -1.25 M-8.8 1.85 L-8.7 1.7 -8.25 0.75 Q-8.25 1.5 -8.6 2.85 L-8.7 3.25 M-5.95 7.35 L-6.15 7.95 -6.6 8.0 -7.2 7.2 Q-7.55 6.55 -7.55 5.5 -7.6 4.45 -6.7 2.55 L-5.35 -1.05 Q-4.85 -2.75 -6.2 -3.95 -7.6 -5.2 -8.35 -5.15 M5.1 1.65 L5.35 1.8 6.0 2.3 M6.3 -1.45 L6.7 -1.1 Q8.75 0.7 8.75 1.65 L8.45 3.45 Q8.15 4.3 7.35 4.8 L5.55 5.25 Q4.6 5.25 3.9 4.75 L3.8 4.65 3.75 4.6 2.8 3.35 Q2.8 4.1 3.5 5.5 L3.55 5.6 3.6 5.7 Q4.4 7.3 4.4 8.0 4.4 9.05 3.25 9.85 L2.1 10.45 M1.95 10.5 L0.1 10.75 Q-1.6 10.75 -2.15 10.1 -2.5 9.7 -2.5 8.65 L-2.1 9.45 -1.1 9.75 Q-0.3 9.75 0.35 9.35 1.15 8.85 1.15 8.15 1.15 7.2 0.25 4.45 L-0.7 1.2 Q-0.7 -0.25 0.45 -1.4 1.8 -2.75 3.85 -2.75 4.75 -2.75 6.3 -1.45 M2.8 3.35 L2.8 3.3 2.85 3.0 Q2.9 2.35 3.3 1.95 3.8 1.45 4.55 1.45 L4.8 1.5 5.1 1.65" fill="none" stroke="#000000" stroke-linecap="round" stroke-linejoin="round" stroke-opacity="0.3019608" stroke-width="0.05"/>
  </g>
</svg>
