<?xml version="1.0" encoding="UTF-8" standalone="no"?>
<svg xmlns:xlink="http://www.w3.org/1999/xlink" height="20.35px" width="16.05px" xmlns="http://www.w3.org/2000/svg">
  <g transform="matrix(1.0, 0.0, 0.0, 1.0, 15.6, 7.15)">
    <path d="M-10.7 -4.35 L-11.05 -4.6 Q-11.05 -5.0 -8.85 -6.9 L-8.8 -6.8 -9.05 -6.2 -9.5 -5.45 -9.75 -4.7 Q-10.0 -4.1 -10.15 -4.1 -10.3 -4.1 -10.7 -4.35 M-7.55 -6.2 Q-7.05 -4.85 -7.05 -3.6 L-7.1 -3.45 Q-7.15 -3.3 -7.35 -3.3 L-8.25 -3.5 -9.25 -3.9 -9.6 -4.35 -8.8 -5.7 -8.35 -6.95 Q-8.05 -7.6 -7.55 -6.2 M-1.0 2.5 L-1.0 2.65 -0.85 2.6 -1.0 2.5 M-0.75 1.85 Q0.45 2.55 0.45 3.75 0.45 4.55 -0.2 4.55 -1.15 4.35 -1.8 3.95 L-2.25 3.6 -3.6 3.45 -4.05 3.5 -4.55 3.75 Q-5.4 4.15 -5.65 4.45 L-5.9 5.1 -6.15 5.8 -6.55 4.8 -6.75 3.9 -6.55 3.1 -6.6 2.95 Q-6.6 2.4 -5.8 1.65 -4.9 0.7 -3.7 0.75 L-3.1 0.75 Q-2.1 1.1 -1.55 1.5 -1.25 1.55 -0.75 1.85 M-3.6 5.35 Q-3.6 4.65 -2.9 4.7 -2.2 4.75 -2.2 5.3 L-2.4 5.75 -2.9 6.0 Q-3.4 6.0 -3.6 5.35 M-4.65 11.5 L-5.05 12.55 Q-5.55 13.2 -6.5 13.2 L-7.0 13.1 -7.05 13.0 -5.4 11.65 Q-5.2 10.7 -4.9 10.75 -4.65 10.8 -4.65 11.5 M-14.75 10.15 L-15.5 9.1 Q-15.5 6.3 -14.7 10.05 L-14.75 10.15 M-14.5 4.95 L-14.65 4.95 Q-14.55 4.25 -14.9 2.75 L-15.6 0.85 Q-15.6 -2.35 -14.1 -1.1 -12.65 0.1 -13.2 1.5 L-14.5 4.95" fill="#ffffff" fill-opacity="0.8" fill-rule="evenodd" stroke="none"/>
  </g>
</svg>
