<?xml version="1.0" encoding="UTF-8" standalone="no"?>
<svg xmlns:xlink="http://www.w3.org/1999/xlink" height="3.35px" width="5.5px" xmlns="http://www.w3.org/2000/svg">
  <g transform="matrix(1.0, 0.0, 0.0, 1.0, 1.25, 7.0)">
    <path d="M0.9 -7.0 L1.15 -6.55 Q0.2 -4.45 -0.9 -4.45 L-1.25 -4.55 -1.25 -5.35 Q-0.6 -6.75 0.3 -6.95 L0.35 -7.0 0.9 -7.0 M4.25 -5.95 Q3.3 -3.65 2.2 -3.65 2.1 -3.65 1.95 -3.75 L1.7 -4.05 Q1.7 -4.8 2.4 -5.65 L3.4 -6.5 3.95 -6.15 4.25 -5.95" fill="#ffffff" fill-rule="evenodd" stroke="none"/>
    <path d="M0.9 -7.0 L0.35 -7.0 0.3 -6.95 Q-0.6 -6.75 -1.25 -5.35 L-1.25 -4.55 -0.9 -4.45 Q0.2 -4.45 1.15 -6.55 L0.9 -7.0 M4.25 -5.95 Q3.3 -3.65 2.2 -3.65 2.1 -3.65 1.95 -3.75 L1.7 -4.05 Q1.7 -4.8 2.4 -5.65 L3.4 -6.5 3.95 -6.15 4.25 -5.95" fill="none" stroke="#000000" stroke-linecap="round" stroke-linejoin="round" stroke-opacity="0.3019608" stroke-width="0.05"/>
  </g>
</svg>
