<?xml version="1.0" encoding="UTF-8" standalone="no"?>
<svg xmlns:xlink="http://www.w3.org/1999/xlink" height="5.15px" width="5.0px" xmlns="http://www.w3.org/2000/svg">
  <g transform="matrix(1.0, 0.0, 0.0, 1.0, 15.1, -4.5)">
    <path d="M-12.6 4.5 Q-11.35 4.5 -10.65 5.15 -10.15 5.6 -10.15 5.9 -10.15 6.4 -11.0 6.7 L-12.7 6.95 -14.55 6.5 -15.1 5.75 Q-15.1 5.3 -14.5 4.95 L-14.05 4.75 -13.65 4.6 -13.4 4.5 -12.6 4.5 M-11.15 9.65 Q-11.6 9.65 -11.9 9.3 L-12.15 8.8 Q-12.15 8.15 -11.1 8.25 -10.1 8.35 -10.1 8.85 L-10.4 9.4 -11.15 9.65" fill="#ffffff" fill-rule="evenodd" stroke="none"/>
  </g>
</svg>
