<?xml version="1.0" encoding="UTF-8" standalone="no"?>
<svg xmlns:xlink="http://www.w3.org/1999/xlink" height="7.5px" width="17.3px" xmlns="http://www.w3.org/2000/svg">
  <g transform="matrix(1.0, 0.0, 0.0, 1.0, 17.9, 2.65)">
    <path d="M-3.35 4.85 Q-3.95 4.8 -4.45 4.25 -4.95 3.6 -4.85 2.95 -4.7 2.3 -4.1 1.8 -3.4 1.35 -2.85 1.45 L-1.35 1.65 Q-0.45 2.05 -0.65 3.1 -0.75 3.65 -1.65 4.25 -2.5 4.95 -3.35 4.85 M-16.95 -2.65 L-16.55 -2.6 Q-15.4 -2.2 -15.6 -1.1 -15.8 0.1 -17.05 -0.05 -17.45 -0.05 -17.7 -0.5 -17.95 -0.85 -17.85 -1.4 L-17.45 -2.25 Q-17.15 -2.65 -16.95 -2.65" fill="#ffffff" fill-rule="evenodd" stroke="none"/>
    <path d="M-16.95 -2.65 Q-17.15 -2.65 -17.45 -2.25 L-17.85 -1.4 Q-17.95 -0.85 -17.7 -0.5 -17.45 -0.05 -17.05 -0.05 -15.8 0.1 -15.6 -1.1 -15.4 -2.2 -16.55 -2.6 L-16.95 -2.65 M-3.35 4.85 Q-2.5 4.95 -1.65 4.25 -0.75 3.65 -0.65 3.1 -0.45 2.05 -1.35 1.65 L-2.85 1.45 Q-3.4 1.35 -4.1 1.8 -4.7 2.3 -4.85 2.95 -4.95 3.6 -4.45 4.25 -3.95 4.8 -3.35 4.85" fill="none" stroke="#000000" stroke-linecap="round" stroke-linejoin="round" stroke-opacity="0.3019608" stroke-width="0.05"/>
  </g>
</svg>
