<?xml version="1.0" encoding="UTF-8" standalone="no"?>
<svg xmlns:xlink="http://www.w3.org/1999/xlink" height="11.75px" width="9.5px" xmlns="http://www.w3.org/2000/svg">
  <g transform="matrix(1.0, 0.0, 0.0, 1.0, 18.15, -5.1)">
    <path d="M-18.1 8.8 L-17.95 8.6 -17.85 8.5 -17.6 8.0 -17.45 7.05 -17.4 7.0 -17.45 6.95 Q-17.25 5.1 -16.2 5.1 L-11.9 5.4 -9.75 7.2 Q-8.65 8.65 -8.65 10.3 L-8.75 11.75 -8.75 11.7 -8.95 12.6 -9.05 12.85 -10.2 10.6 Q-11.5 8.05 -14.35 8.05 L-17.05 8.45 -17.8 8.8 -18.1 8.8" fill="#a2a2a2" fill-rule="evenodd" stroke="none"/>
    <path d="M-18.1 8.8 L-17.8 8.8 -17.05 8.45 -14.35 8.05 Q-11.5 8.05 -10.2 10.6 L-9.05 12.85 Q-9.4 13.95 -10.15 14.9 -11.65 16.85 -13.65 16.85 -16.05 16.85 -16.85 15.15 L-17.3 13.0 -18.15 8.95 -18.1 8.8" fill="#cccccc" fill-rule="evenodd" stroke="none"/>
  </g>
</svg>
