<?xml version="1.0" encoding="UTF-8" standalone="no"?>
<svg xmlns:xlink="http://www.w3.org/1999/xlink" height="7.95px" width="27.35px" xmlns="http://www.w3.org/2000/svg">
  <g transform="matrix(1.0, 0.0, 0.0, 1.0, 14.2, 8.45)">
    <path d="M3.1 -4.25 L3.15 -4.25 5.15 -4.6 5.25 -4.65 7.25 -5.2 7.45 -5.25 7.5 -5.3 9.2 -5.9 9.65 -6.05 10.55 -6.55 11.3 -7.3 11.45 -7.5 12.1 -8.4 12.9 -7.8 13.05 -6.25 13.15 -5.3 12.65 -5.0 12.05 -4.5 11.75 -4.2 9.8 -2.85 8.15 -2.05 6.05 -1.35 5.4 -1.2 3.3 -0.75 1.45 -0.55 Q1.55 -1.2 2.35 -1.95 3.35 -2.85 3.35 -3.4 L3.1 -4.25 M-6.2 -0.95 L-7.8 -1.25 -10.35 -1.85 -10.45 -1.9 Q-11.7 -2.25 -12.6 -2.75 L-14.2 -4.0 -14.15 -5.2 -12.65 -3.95 -11.45 -3.3 -10.45 -2.9 -10.45 -1.9 -10.45 -2.9 -7.9 -2.15 -7.8 -1.25 -7.9 -2.15 -6.85 -1.95 -5.15 -1.7 -5.25 -1.2 -6.2 -0.95 M3.3 -0.75 L3.65 -2.55 3.45 -3.55 3.15 -4.25 3.45 -3.55 3.65 -2.55 3.3 -0.75 M11.45 -7.5 L12.3 -6.9 12.5 -6.45 12.55 -6.25 12.65 -5.0 12.55 -6.25 12.5 -6.45 12.3 -6.9 11.45 -7.5 M11.75 -4.2 L11.5 -5.85 11.3 -6.15 11.05 -6.35 10.55 -6.55 11.05 -6.35 11.3 -6.15 11.5 -5.85 11.75 -4.2 M7.45 -5.25 L8.05 -4.6 8.2 -2.9 8.15 -2.05 8.2 -2.9 8.05 -4.6 7.45 -5.25 M5.25 -4.65 L5.8 -3.9 6.1 -2.6 6.05 -1.35 6.1 -2.6 5.8 -3.9 5.25 -4.65 M9.8 -2.85 L9.85 -3.15 9.9 -4.4 Q9.9 -5.5 9.2 -5.9 9.9 -5.5 9.9 -4.4 L9.85 -3.15 9.8 -2.85 M-12.6 -2.75 L-12.55 -3.1 -12.65 -3.95 -12.55 -3.1 -12.6 -2.75 M-5.25 -1.2 L-5.15 -1.7 -3.15 -1.7 -5.25 -1.2" fill="#d6baba" fill-rule="evenodd" stroke="none"/>
    <path d="M1.45 -0.55 L0.0 -0.5 -2.5 -0.65 -2.6 -0.65 -5.25 -0.85 -6.2 -0.95 -5.25 -1.2 -3.15 -1.7 -5.15 -1.7 -6.85 -1.95 -7.9 -2.15 -10.45 -2.9 -11.45 -3.3 -12.65 -3.95 -12.85 -4.5 -13.15 -5.8 -13.1 -6.35 -12.6 -6.8 -12.2 -6.8 -12.6 -6.8 -13.1 -6.35 -13.15 -5.8 -12.85 -4.5 -12.65 -3.95 -14.15 -5.2 -14.15 -6.5 Q-14.15 -7.25 -13.65 -7.65 L-12.7 -8.45 -12.6 -7.5 -12.65 -7.1 -12.2 -6.8 Q-11.2 -6.2 -9.85 -5.7 L-7.65 -5.0 -7.4 -4.9 -4.8 -4.35 -2.45 -4.05 -0.65 -4.0 -0.1 -4.0 3.1 -4.25 3.35 -3.4 Q3.35 -2.85 2.35 -1.95 1.55 -1.2 1.45 -0.55 M0.0 -0.5 L0.3 -2.5 0.15 -3.25 -0.1 -4.0 0.15 -3.25 0.3 -2.5 0.0 -0.5 M-9.85 -5.7 L-10.3 -5.05 -10.55 -3.7 -10.45 -2.9 -10.55 -3.7 -10.3 -5.05 -9.85 -5.7 M-7.4 -4.9 L-7.8 -4.3 -8.1 -3.3 -7.95 -2.2 -7.9 -2.15 -7.95 -2.2 -8.1 -3.3 -7.8 -4.3 -7.4 -4.9 M-4.8 -4.35 L-5.0 -3.1 -5.15 -1.7 -5.0 -3.1 -4.8 -4.35 M-2.45 -4.05 L-2.4 -2.65 -2.6 -0.65 -2.4 -2.65 -2.45 -4.05 M-5.25 -0.85 L-5.25 -1.15 -5.25 -1.2 -5.25 -1.15 -5.25 -0.85" fill="#ffffff" fill-rule="evenodd" stroke="none"/>
    <path d="M3.1 -4.25 L3.15 -4.25 5.15 -4.6 M5.25 -4.65 L7.25 -5.2 M7.45 -5.25 L7.5 -5.3 9.2 -5.9 9.65 -6.05 10.55 -6.55 11.3 -7.3 M11.45 -7.5 L12.1 -8.4 12.9 -7.8 13.05 -6.25 13.15 -5.3 M-14.2 -4.0 L-14.15 -5.2 -14.15 -6.5 Q-14.15 -7.25 -13.65 -7.65 L-12.7 -8.45 -12.6 -7.5 -12.65 -7.1 -12.2 -6.8 Q-11.2 -6.2 -9.85 -5.7 L-7.65 -5.0 -7.4 -4.9 -4.8 -4.35 -2.45 -4.05 -0.65 -4.0 -0.1 -4.0 3.1 -4.25" fill="none" stroke="#000000" stroke-linecap="round" stroke-linejoin="round" stroke-opacity="0.3019608" stroke-width="0.05"/>
    <path d="M5.15 -4.6 L5.25 -4.65 M7.25 -5.2 L7.45 -5.25 M11.3 -7.3 L11.45 -7.5 M3.15 -4.25 L3.45 -3.55 3.65 -2.55 3.3 -0.75 M-0.1 -4.0 L0.15 -3.25 0.3 -2.5 0.0 -0.5 M9.2 -5.9 Q9.9 -5.5 9.9 -4.4 L9.85 -3.15 9.8 -2.85 M6.05 -1.35 L6.1 -2.6 5.8 -3.9 5.25 -4.65 M8.15 -2.05 L8.2 -2.9 8.05 -4.6 7.45 -5.25 M10.55 -6.55 L11.05 -6.35 11.3 -6.15 11.5 -5.85 11.75 -4.2 M12.65 -5.0 L12.55 -6.25 12.5 -6.45 12.3 -6.9 11.45 -7.5 M-12.2 -6.8 L-12.6 -6.8 -13.1 -6.35 -13.15 -5.8 -12.85 -4.5 -12.65 -3.95 -12.55 -3.1 -12.6 -2.75 M-10.45 -2.9 L-10.55 -3.7 -10.3 -5.05 -9.85 -5.7 M-10.45 -1.9 L-10.45 -2.9 M-7.9 -2.15 L-7.95 -2.2 -8.1 -3.3 -7.8 -4.3 -7.4 -4.9 M-7.8 -1.25 L-7.9 -2.15 M-5.15 -1.7 L-5.0 -3.1 -4.8 -4.35 M-5.15 -1.7 L-5.25 -1.2 -5.25 -1.15 -5.25 -0.85 M-2.6 -0.65 L-2.4 -2.65 -2.45 -4.05" fill="none" stroke="#000000" stroke-linecap="round" stroke-linejoin="round" stroke-opacity="0.15294118" stroke-width="0.05"/>
  </g>
</svg>
