<?xml version="1.0" encoding="UTF-8" standalone="no"?>
<svg xmlns:xlink="http://www.w3.org/1999/xlink" height="24.7px" width="29.3px" xmlns="http://www.w3.org/2000/svg">
  <g transform="matrix(1.0, 0.0, 0.0, 1.0, 14.65, 12.35)">
    <path d="M4.7 -10.55 L5.6 -11.3 6.45 -12.0 7.0 -11.7 8.65 -10.1 9.2 -9.55 9.55 -9.15 9.95 -7.05 10.05 -6.3 Q10.05 -5.45 9.15 -5.5 L8.0 -5.5 5.7 -9.5 5.7 -9.55 4.95 -10.35 4.7 -10.55 M-9.05 -12.05 L-9.4 -11.65 -9.5 -10.85 -9.95 -10.6 -11.25 -9.55 -13.55 -7.6 -14.65 -6.6 -13.95 -8.55 -13.4 -9.55 -12.8 -10.15 -12.55 -10.3 -9.4 -11.9 -9.05 -12.05" fill="#ffffff" fill-rule="evenodd" stroke="none"/>
    <path d="M9.55 -9.15 L10.2 -8.45 10.45 -8.15 11.3 -7.0 11.7 -6.4 11.75 -6.3 12.05 -5.8 Q10.3 -1.8 9.45 -1.25 9.4 -2.6 8.35 -4.85 L8.0 -5.5 9.15 -5.5 Q10.05 -5.45 10.05 -6.3 L9.95 -7.05 9.55 -9.15 M8.4 3.35 L14.35 3.65 14.55 3.65 14.65 3.8 14.35 4.1 Q13.2 5.3 9.95 9.75 8.2 12.1 6.1 12.35 L5.65 11.05 5.95 10.0 8.15 4.05 8.4 3.4 8.4 3.35 M-9.5 -10.85 L-9.4 -11.65 -9.05 -12.05 -8.15 -12.35 -7.95 -12.2 -7.8 -11.85 -7.7 -11.45 -9.5 -10.85" fill="#d1b6b6" fill-rule="evenodd" stroke="none"/>
    <path d="M4.7 -10.55 L5.6 -11.3 6.45 -12.0 7.0 -11.7 8.65 -10.1 9.2 -9.55 9.55 -9.15 10.2 -8.45 10.45 -8.15 11.3 -7.0 11.7 -6.4 11.75 -6.3 12.05 -5.8 Q10.3 -1.8 9.45 -1.25 9.4 -2.6 8.35 -4.85 L8.0 -5.5 5.7 -9.5 5.7 -9.55 4.95 -10.35 M8.4 3.35 L14.35 3.65 14.55 3.65 14.65 3.8 14.35 4.1 Q13.2 5.3 9.95 9.75 8.2 12.1 6.1 12.35 M-9.05 -12.05 L-9.4 -11.9 -12.55 -10.3 -12.8 -10.15 -13.4 -9.55 -13.95 -8.55 -14.65 -6.6 -13.55 -7.6 -11.25 -9.55 -9.95 -10.6 -9.5 -10.85 -7.7 -11.45 -7.8 -11.85 -7.95 -12.2 -8.15 -12.35 -9.05 -12.05" fill="none" stroke="#000000" stroke-linecap="round" stroke-linejoin="round" stroke-opacity="0.3019608" stroke-width="0.05"/>
  </g>
</svg>
