<?xml version="1.0" encoding="UTF-8" standalone="no"?>
<svg xmlns:xlink="http://www.w3.org/1999/xlink" height="12.1px" width="37.65px" xmlns="http://www.w3.org/2000/svg">
  <g transform="matrix(1.0, 0.0, 0.0, 1.0, 21.05, -0.4)">
    <path d="M16.6 2.65 Q12.95 2.65 12.45 3.85 L12.25 6.45 Q13.65 6.8 13.65 8.9 L12.25 10.25 Q11.4 8.55 12.25 6.65 L12.25 6.45 M12.45 0.55 L16.6 0.9 M3.6 6.65 L4.8 8.2 3.4 10.8 M7.95 5.25 Q8.3 5.95 9.85 6.1 M8.3 9.75 L6.2 12.5 M-2.15 5.6 Q-1.95 6.3 -0.75 7.5 M-7.85 5.4 L-7.15 7.5 M-2.5 9.25 L-3.35 12.35 M-5.25 7.65 Q-5.25 8.7 -4.55 9.6 M-10.45 6.45 Q-10.45 8.0 -12.55 9.9 -13.4 9.9 -13.25 12.0 L-8.2 10.8 M-15.5 3.7 L-16.7 5.75 -18.45 6.95 M-13.95 5.6 L-13.25 7.65 -17.4 8.7 M-11.15 4.2 Q-11.15 4.55 -11.85 5.05 M-18.8 2.65 L-20.5 6.1 M-19.85 0.4 Q-20.5 0.4 -21.05 0.9 M0.65 8.7 L-0.4 11.3" fill="none" stroke="#000000" stroke-linecap="round" stroke-linejoin="round" stroke-opacity="0.3019608" stroke-width="0.05"/>
  </g>
</svg>
