<?xml version="1.0" encoding="UTF-8" standalone="no"?>
<svg xmlns:xlink="http://www.w3.org/1999/xlink" height="15.6px" width="22.65px" xmlns="http://www.w3.org/2000/svg">
  <g transform="matrix(1.0, 0.0, 0.0, 1.0, 8.5, 3.95)">
    <path d="M4.1 -0.35 Q5.9 0.55 7.9 0.6 L12.05 0.45 13.65 0.65 14.15 0.4 13.8 0.75 12.65 1.25 9.65 3.15 Q7.7 4.65 6.1 6.6 L6.05 6.55 7.6 3.45 7.6 3.25 Q4.65 4.9 2.95 6.5 L0.05 9.7 -1.55 11.65 -1.55 11.1 -0.15 6.9 -0.25 6.9 -8.05 10.7 -8.3 10.7 -5.45 8.4 -1.1 4.25 0.0 3.15 4.1 -0.35 M13.65 0.65 L12.65 1.25 13.65 0.65 M4.35 3.15 L4.9 2.0 4.8 1.9 Q4.65 1.9 4.6 2.0 L2.6 3.15 -0.1 5.95 -0.05 6.0 4.35 3.15" fill="#d6baba" fill-rule="evenodd" stroke="none"/>
    <path d="M-3.05 -3.95 Q-1.65 -2.95 -0.05 -2.1 1.9 -1.15 4.1 -0.35 L0.0 3.15 -1.1 4.25 -5.45 8.4 -8.3 10.7 -8.5 10.65 -8.5 10.4 Q-7.5 10.1 -5.75 7.1 L-5.4 6.5 -4.1 3.65 -5.3 4.7 -6.55 5.5 -5.25 3.15 -3.6 -1.2 Q-3.1 -2.6 -3.05 -3.95 M4.35 3.15 L-0.05 6.0 -0.1 5.95 2.6 3.15 4.6 2.0 Q4.65 1.9 4.8 1.9 L4.9 2.0 4.35 3.15" fill="#ffffff" fill-rule="evenodd" stroke="none"/>
    <path d="M13.65 0.65 L14.15 0.4 M12.65 1.25 L9.65 3.15 Q7.7 4.65 6.1 6.6 L6.05 6.65 6.05 6.55 7.6 3.45 7.6 3.25 Q4.65 4.9 2.95 6.5 L0.05 9.7 -1.55 11.65 -1.55 11.1 -0.15 6.9 -0.25 6.9 -8.05 10.7 -8.3 10.7 -8.5 10.65 -8.5 10.4 Q-7.5 10.1 -5.75 7.1 L-5.4 6.5 -4.1 3.65 -5.3 4.7 -6.55 5.5 -5.25 3.15 -3.6 -1.2 Q-3.1 -2.6 -3.05 -3.95 M12.65 1.25 L13.65 0.65 Z" fill="none" stroke="#000000" stroke-linecap="round" stroke-linejoin="round" stroke-opacity="0.3019608" stroke-width="0.05"/>
  </g>
</svg>
