<?xml version="1.0" encoding="UTF-8" standalone="no"?>
<svg xmlns:xlink="http://www.w3.org/1999/xlink" height="73.85px" width="47.3px" xmlns="http://www.w3.org/2000/svg">
  <g transform="matrix(1.0, 0.0, 0.0, 1.0, 23.65, 36.9)">
    <path d="M19.9 -24.9 Q11.45 -24.75 3.2 -27.0 -1.55 -28.35 -3.6 -31.45 -4.3 -32.75 -3.2 -33.45 L0.95 -36.2 3.0 -35.5 10.0 -30.2 Q11.95 -28.75 14.35 -28.1 18.9 -27.05 23.65 -26.55 L19.9 -24.9 M-11.1 -35.95 L-12.0 -35.7 -11.9 -35.75 -11.1 -35.95 M8.85 -20.65 L8.9 -20.65 9.0 -20.45 8.85 -20.65 M22.25 0.7 L23.05 1.2 22.25 1.2 22.25 0.7 M-1.1 2.8 L-0.2 1.5 Q2.05 -0.45 5.75 -0.85 L5.8 -0.8 Q2.05 -0.4 -0.2 1.55 L-1.1 2.8 M5.8 -0.8 L5.9 -0.8 6.6 -0.1 5.8 -0.8 M-6.0 15.45 Q-10.85 14.65 -15.5 16.3 L-18.05 17.35 Q-16.85 16.7 -15.5 16.2 -10.85 14.55 -6.0 15.45" fill="#ffffff" fill-rule="evenodd" stroke="none"/>
    <path d="M0.95 -36.2 L-3.2 -33.45 Q-4.3 -32.75 -3.6 -31.45 -1.55 -28.35 3.2 -27.0 11.45 -24.75 19.9 -24.9 L8.9 -20.65 8.85 -20.65 9.0 -20.45 Q11.35 -18.45 12.75 -16.0 14.85 -12.5 15.75 -8.5 16.65 -4.55 19.5 -1.15 20.6 -0.05 22.25 0.7 L22.25 1.2 10.7 1.0 13.7 5.35 18.05 8.2 18.05 8.25 7.95 7.45 9.35 17.8 Q9.65 20.5 7.9 22.7 L3.2 17.9 Q0.05 15.0 -1.7 11.35 -3.75 7.0 -1.1 2.8 L-0.2 1.55 Q2.05 -0.4 5.8 -0.8 L6.6 -0.1 5.9 -0.8 5.75 -0.85 Q2.7 -4.35 1.05 -8.55 -0.2 -11.65 -0.35 -14.6 L-0.6 -19.8 -6.5 -21.0 Q-11.3 -21.95 -14.55 -25.2 -18.2 -28.85 -16.2 -33.55 L-12.0 -35.7 -11.1 -35.95 -9.85 -36.25 -3.35 -36.9 0.95 -36.2 M8.85 -20.65 L-0.6 -19.8 8.85 -20.65 M6.6 -0.1 L10.7 1.0 6.6 -0.1 M-18.05 17.35 L-15.5 16.3 Q-10.85 14.65 -6.0 15.45 -1.25 16.9 -0.95 21.45 -0.65 25.55 2.65 28.55 L7.7 32.45 7.7 32.5 -4.3 27.45 -5.0 29.35 Q-6.0 33.75 -2.2 36.85 L-2.25 36.9 -6.55 34.95 -12.05 32.2 Q-14.55 30.85 -15.75 28.45 L-21.6 32.35 -21.95 27.75 -23.65 26.3 -22.9 23.2 Q-21.85 19.4 -18.05 17.35" fill="#d6baba" fill-rule="evenodd" stroke="none"/>
    <path d="M18.05 8.2 L18.2 8.25 18.05 8.25 18.05 8.2 M5.9 -0.8 L5.8 -0.8 5.75 -0.85 5.9 -0.8 M-2.25 36.9 L-2.2 36.85 -2.05 36.95 -2.25 36.9 M7.7 32.5 L7.7 32.45 7.9 32.55 7.7 32.5" fill="#660000" fill-opacity="0.2784314" fill-rule="evenodd" stroke="none"/>
    <path d="M19.9 -24.9 L23.65 -26.55 Q18.9 -27.05 14.35 -28.1 11.95 -28.75 10.0 -30.2 L3.0 -35.5 0.95 -36.2 -3.35 -36.9 -9.85 -36.25 -11.1 -35.95 -12.0 -35.7 -16.2 -33.55 Q-18.2 -28.85 -14.55 -25.2 -11.3 -21.95 -6.5 -21.0 L-0.6 -19.8 8.85 -20.65 8.9 -20.65 19.9 -24.9 M-12.0 -35.7 L-11.9 -35.75 -11.1 -35.95 M9.0 -20.45 L8.85 -20.65 M9.0 -20.45 Q11.35 -18.45 12.75 -16.0 14.85 -12.5 15.75 -8.5 16.65 -4.55 19.5 -1.15 20.6 -0.05 22.25 0.7 L23.05 1.2 22.25 1.2 10.7 1.0 13.7 5.35 18.05 8.2 18.2 8.25 18.05 8.25 7.95 7.45 9.35 17.8 Q9.65 20.5 7.9 22.7 L3.2 17.9 Q0.05 15.0 -1.7 11.35 -3.75 7.0 -1.1 2.8 M5.75 -0.85 Q2.7 -4.35 1.05 -8.55 -0.2 -11.65 -0.35 -14.6 L-0.6 -19.8 M5.9 -0.8 L5.8 -0.8 6.6 -0.1 5.9 -0.8 M5.75 -0.85 L5.8 -0.8 Q2.05 -0.4 -0.2 1.55 L-1.1 2.8 M10.7 1.0 L6.6 -0.1 M-18.05 17.35 L-15.5 16.3 Q-10.85 14.65 -6.0 15.45 M-18.05 17.35 Q-21.85 19.4 -22.9 23.2 L-23.65 26.3 -21.95 27.75 -21.6 32.35 -15.75 28.45 Q-14.55 30.85 -12.05 32.2 L-6.55 34.95 -2.25 36.9 -2.05 36.95 -2.2 36.85 Q-6.0 33.75 -5.0 29.35 L-4.3 27.45 7.7 32.5 M7.7 32.45 L2.65 28.55 Q-0.65 25.55 -0.95 21.45 -1.25 16.9 -6.0 15.45 M7.7 32.45 L7.9 32.55 7.7 32.5" fill="none" stroke="#000000" stroke-linecap="round" stroke-linejoin="round" stroke-opacity="0.3019608" stroke-width="0.05"/>
  </g>
</svg>
