<?xml version="1.0" encoding="UTF-8" standalone="no"?>
<svg xmlns:xlink="http://www.w3.org/1999/xlink" height="33.05px" width="37.85px" xmlns="http://www.w3.org/2000/svg">
  <g transform="matrix(1.0, 0.0, 0.0, 1.0, 25.5, 14.45)">
    <path d="M1.3 -12.65 L1.4 -12.6 2.9 -12.35 6.5 -8.0 8.7 -14.45 12.35 -12.35 Q11.7 -7.7 8.1 -5.05 L7.05 -4.25 6.5 -5.05 6.65 -5.9 3.05 -8.75 2.55 -8.5 2.15 -5.2 -1.95 -6.3 -3.45 -0.35 -4.85 -0.6 -5.6 -3.5 -6.95 3.05 -9.75 0.65 Q-8.15 6.1 -12.6 9.35 -18.0 13.25 -21.85 18.6 L-24.1 18.6 -25.5 13.95 Q-21.3 12.75 -17.75 10.2 -13.55 7.25 -13.3 2.3 -13.05 -1.0 -15.45 -3.4 -10.8 -4.9 -7.3 -1.3 L-7.35 -3.6 Q-7.4 -5.9 -9.25 -7.15 L-4.55 -5.4 -4.4 -5.2 -4.35 -5.25 Q-4.35 -7.25 -4.95 -8.65 -5.65 -10.05 -6.6 -10.05 L1.3 -12.65" fill="#631300" fill-opacity="0.3529412" fill-rule="evenodd" stroke="none"/>
  </g>
</svg>
