<?xml version="1.0" encoding="UTF-8" standalone="no"?>
<svg xmlns:xlink="http://www.w3.org/1999/xlink" height="17.85px" width="17.65px" xmlns="http://www.w3.org/2000/svg">
  <g transform="matrix(1.0, 0.0, 0.0, 1.0, 8.65, 8.7)">
    <path d="M-4.8 -6.05 Q-4.95 -4.15 -4.35 -2.2 L-3.95 -0.85 -6.0 -0.45 -6.0 -0.7 -6.0 -0.45 -3.95 -0.85 -4.35 -2.2 Q-4.95 -4.15 -4.8 -6.05 M-7.15 4.7 L-8.65 4.3 -8.35 1.95 Q-8.5 -0.85 -6.0 -0.7 -6.45 -2.2 -6.6 -4.4 -6.7 -6.05 -6.15 -7.7 L-6.1 -7.85 -5.7 -8.7 1.65 -8.35 2.0 -5.9 Q2.05 -4.35 1.55 -2.8 L0.8 -0.45 Q0.35 0.75 0.35 2.05 0.2 3.85 -1.3 4.85 L-1.7 5.15 Q-2.45 5.45 -3.2 5.15 -3.8 4.7 -4.1 4.7 -4.65 4.55 -5.1 4.7 -5.45 5.0 -5.45 5.6 L-5.25 6.2 Q-5.7 6.2 -6.0 5.8 L-7.15 4.7 -7.15 4.55 Q-7.45 1.95 -6.0 -0.45 -7.45 1.95 -7.15 4.55 L-7.15 4.7 M-3.95 -0.85 Q-3.5 2.05 -5.1 4.7 -3.5 2.05 -3.95 -0.85" fill="#ffffff" fill-rule="evenodd" stroke="none"/>
    <path d="M4.6 -8.25 L5.3 -7.2 5.65 -6.75 7.0 -3.25 8.9 2.35 Q9.2 3.35 8.75 5.15 6.7 6.2 4.6 7.35 2.1 8.85 -0.25 9.15 L-0.8 8.15 -1.6 6.65 -3.8 7.05 -1.6 6.65 -0.8 8.15 -2.75 8.0 -3.8 7.05 -5.25 6.2 -5.45 5.6 Q-5.45 5.0 -5.1 4.7 -4.65 4.55 -4.1 4.7 -3.8 4.7 -3.2 5.15 -2.45 5.45 -1.7 5.15 L-1.3 4.85 Q0.2 3.85 0.35 2.05 0.35 0.75 0.8 -0.45 L1.55 -2.8 Q2.05 -4.35 2.0 -5.9 L1.65 -8.35 1.65 -8.4 1.85 -8.35 4.6 -8.25 M4.75 -0.85 L3.3 0.3 2.55 1.0 1.4 3.35 0.9 5.15 Q0.8 5.8 0.5 6.05 -0.25 6.5 -1.3 6.5 L-1.85 6.05 -2.0 6.05 -3.5 5.6 -4.1 4.7 -3.5 5.6 -2.0 6.05 -1.85 6.05 -1.3 6.5 Q-0.25 6.5 0.5 6.05 0.8 5.8 0.9 5.15 L1.4 3.35 2.55 1.0 3.3 0.3 4.75 -0.85 M2.7 4.3 L2.7 3.7 1.4 3.35 2.7 3.7 Q4.05 2.95 4.2 1.65 4.5 -0.15 3.3 0.3 4.5 -0.15 4.2 1.65 4.05 2.95 2.7 3.7 L2.7 4.3 4.35 4.45 4.6 4.7 Q5.35 5.0 5.35 5.6 5.35 5.0 4.6 4.7 L4.35 4.45 2.7 4.3 3.0 5.8 2.85 6.05 1.4 7.8 2.85 6.05 3.0 5.8 2.7 4.3 M-1.3 6.5 L-1.6 6.65 -1.3 6.5" fill="#d6baba" fill-rule="evenodd" stroke="none"/>
    <path d="M-6.0 -0.7 L-6.0 -0.45 -3.95 -0.85 -4.35 -2.2 Q-4.95 -4.15 -4.8 -6.05 M-5.7 -8.7 L-6.1 -7.85 -6.15 -7.7 Q-6.7 -6.05 -6.6 -4.4 -6.45 -2.2 -6.0 -0.7 -8.5 -0.85 -8.35 1.95 L-8.65 4.3 -7.15 4.7 -7.15 4.55 Q-7.45 1.95 -6.0 -0.45 M-0.8 8.15 L-0.25 9.15 Q2.1 8.85 4.6 7.35 6.7 6.2 8.75 5.15 9.2 3.35 8.9 2.35 L7.0 -3.25 5.65 -6.75 5.3 -7.2 4.6 -8.25 M-4.1 4.7 L-3.5 5.6 -2.0 6.05 -1.85 6.05 -1.3 6.5 Q-0.25 6.5 0.5 6.05 0.8 5.8 0.9 5.15 L1.4 3.35 2.55 1.0 3.3 0.3 4.75 -0.85 M1.4 3.35 L2.7 3.7 Q4.05 2.95 4.2 1.65 4.5 -0.15 3.3 0.3 M5.35 5.6 Q5.35 5.0 4.6 4.7 L4.35 4.45 2.7 4.3 3.0 5.8 2.85 6.05 1.4 7.8 M2.7 3.7 L2.7 4.3 M-7.15 4.7 L-6.0 5.8 Q-5.7 6.2 -5.25 6.2 L-5.45 5.6 Q-5.45 5.0 -5.1 4.7 -3.5 2.05 -3.95 -0.85 M-0.8 8.15 L-1.6 6.65 -3.8 7.05 -2.75 8.0 -0.8 8.15 M-1.6 6.65 L-1.3 6.5 M-5.25 6.2 L-3.8 7.05" fill="none" stroke="#000000" stroke-linecap="round" stroke-linejoin="round" stroke-opacity="0.4" stroke-width="0.05"/>
  </g>
</svg>
