<?xml version="1.0" encoding="UTF-8" standalone="no"?>
<svg xmlns:xlink="http://www.w3.org/1999/xlink" height="6.0px" width="19.4px" xmlns="http://www.w3.org/2000/svg">
  <g transform="matrix(1.0, 0.0, 0.0, 1.0, 9.7, 3.85)">
    <path d="M5.95 0.75 L5.85 0.85 5.85 0.8 5.95 0.75 M-6.65 -3.65 L-5.3 -3.35 Q-4.35 -2.95 -4.35 -2.2 -4.35 -1.6 -4.85 -0.9 -5.6 0.15 -7.05 0.4 L-7.8 0.4 -7.8 0.3 -6.9 -0.8 -6.9 -1.1 -7.8 -0.4 -8.65 -0.35 -9.3 -0.45 Q-8.9 -0.75 -8.65 -1.25 L-8.3 -2.05 -9.0 -1.8 -9.7 -1.6 -9.7 -1.7 -8.0 -3.55 -7.3 -3.5 -6.65 -3.65" fill="#ffffff" fill-rule="evenodd" stroke="none"/>
    <path d="M5.85 0.8 L5.35 1.2 5.4 0.8 5.05 -0.6 4.35 -0.3 3.65 0.1 3.55 0.1 2.9 -1.75 2.35 -1.4 0.95 -1.8 0.1 -2.05 3.1 -3.2 5.3 -3.75 5.3 -3.8 5.5 -3.8 6.15 -3.8 5.95 -3.8 Q7.45 -3.75 9.0 -3.15 L9.35 -3.0 9.65 -2.35 9.65 -2.3 9.7 -2.2 9.7 -1.65 Q9.7 -0.35 8.85 1.05 L8.65 -0.35 8.55 -0.45 Q8.5 0.25 7.65 0.95 L6.05 2.15 Q6.05 1.8 6.2 1.7 L6.2 0.65 6.05 0.55 5.95 0.75 5.85 0.8" fill="#d6baba" fill-rule="evenodd" stroke="none"/>
    <path d="M5.85 0.8 L5.35 1.2 5.4 0.8 5.05 -0.6 4.35 -0.3 3.65 0.1 3.55 0.1 2.9 -1.75 2.35 -1.4 0.95 -1.8 0.1 -2.05 M9.35 -3.0 L9.65 -2.35 9.65 -2.3 9.7 -2.2 9.7 -1.65 Q9.7 -0.35 8.85 1.05 L8.65 -0.35 8.55 -0.45 Q8.5 0.25 7.65 0.95 L6.05 2.15 Q6.05 1.8 6.2 1.7 L6.2 0.65 6.05 0.55 5.95 0.75 5.85 0.85 M5.85 0.8 L5.95 0.75 M-6.65 -3.65 L-7.3 -3.5 -8.0 -3.55 -9.7 -1.7 -9.7 -1.6 -9.0 -1.8 -8.3 -2.05 -8.65 -1.25 Q-8.9 -0.75 -9.3 -0.45 L-8.65 -0.35 -7.8 -0.4 -6.9 -1.1 -6.9 -0.8 -7.8 0.3 -7.8 0.4 -7.05 0.4 Q-5.6 0.15 -4.85 -0.9 -4.35 -1.6 -4.35 -2.2 -4.35 -2.95 -5.3 -3.35 L-6.65 -3.65" fill="none" stroke="#000000" stroke-linecap="round" stroke-linejoin="round" stroke-opacity="0.3019608" stroke-width="0.05"/>
  </g>
</svg>
