<?xml version="1.0" encoding="UTF-8" standalone="no"?>
<svg xmlns:xlink="http://www.w3.org/1999/xlink" height="20.1px" width="38.15px" xmlns="http://www.w3.org/2000/svg">
  <g transform="matrix(1.0, 0.0, 0.0, 1.0, 28.4, 8.7)">
    <path d="M-23.85 -1.95 L-22.55 -3.5 Q-21.9 -4.1 -18.45 -6.05 -16.5 -7.1 -13.45 -7.7 L-6.9 -8.7 Q2.85 -8.95 7.0 -5.3 9.75 -2.9 9.75 0.6 9.75 2.65 8.0 5.8 5.5 10.2 1.5 10.2 L-1.1 11.25 Q-2.15 11.25 -2.0 10.8 L0.2 8.45 0.3 8.35 -3.15 9.8 -6.2 11.0 -6.55 10.95 -6.6 10.65 -6.1 9.6 Q-5.55 8.4 -5.3 7.3 L-5.25 0.95 Q-7.25 3.2 -9.2 6.75 -10.75 9.55 -11.05 9.55 -11.3 9.55 -12.45 4.7 -12.75 3.1 -12.55 -0.05 L-12.6 -0.2 Q-13.7 1.4 -15.9 3.45 -19.2 6.45 -21.45 6.45 -22.15 6.45 -22.0 5.9 -21.3 1.4 -21.15 -0.8 -21.95 0.35 -22.55 2.2 L-23.55 5.35 -24.05 8.9 Q-24.35 11.4 -24.6 11.4 -25.4 11.4 -26.35 9.1 L-27.45 5.85 -27.8 3.0 Q-27.8 1.85 -28.1 1.15 L-28.4 0.35 -28.15 -0.55 Q-27.7 -1.25 -26.75 -1.25 L-25.95 -1.0 -25.6 -0.8 Q-24.9 -0.8 -23.85 -1.95" fill="#631300" fill-opacity="0.3529412" fill-rule="evenodd" stroke="none"/>
  </g>
</svg>
