<?xml version="1.0" encoding="UTF-8" standalone="no"?>
<svg xmlns:xlink="http://www.w3.org/1999/xlink" height="32.9px" width="36.9px" xmlns="http://www.w3.org/2000/svg">
  <g transform="matrix(1.0, 0.0, 0.0, 1.0, 28.85, 13.65)">
    <path d="M6.8 -0.35 Q5.55 4.35 4.6 5.7 L2.2 8.9 Q0.45 10.9 -1.75 12.2 -2.55 12.7 -4.4 13.4 L-7.05 14.5 -9.6 16.2 Q-11.4 17.4 -12.05 17.4 -12.95 17.4 -12.75 16.6 L-11.55 14.15 -10.15 11.65 Q-9.2 9.9 -8.2 6.7 -8.8 6.35 -8.8 5.9 L-7.65 4.3 Q-6.4 2.65 -6.0 1.2 -5.3 -1.3 -3.55 -3.5 0.15 -7.85 4.0 -9.3 8.05 -10.75 8.05 -7.3 8.05 -5.05 6.8 -0.35 M-6.25 -7.55 L-7.1 -4.6 -7.9 -3.35 -7.6 -2.8 -14.55 8.5 -18.35 14.75 Q-21.4 19.25 -23.0 19.25 -23.95 19.25 -24.15 18.75 L-24.1 18.1 -25.25 16.15 Q-26.45 14.25 -26.8 14.25 L-27.55 14.7 -28.3 15.15 Q-28.95 15.15 -28.8 14.5 -28.8 14.0 -28.4 13.65 -28.05 13.3 -28.1 12.65 L-27.95 11.75 -27.6 10.8 Q-26.45 9.2 -25.8 7.05 -25.35 5.5 -23.85 3.25 L-21.15 -0.5 -14.65 -8.05 Q-12.3 -10.45 -10.0 -12.1 -5.4 -15.4 -5.4 -11.7 -5.4 -10.0 -6.25 -7.55" fill="#631300" fill-opacity="0.3529412" fill-rule="evenodd" stroke="none"/>
  </g>
</svg>
