<?xml version="1.0" encoding="UTF-8" standalone="no"?>
<svg xmlns:xlink="http://www.w3.org/1999/xlink" height="62.05px" width="87.05px" xmlns="http://www.w3.org/2000/svg">
  <g transform="matrix(1.0, 0.0, 0.0, 1.0, 43.55, 31.0)">
    <path d="M0.5 6.7 Q-1.3 9.65 -2.7 12.55 -5.5 18.25 -8.05 21.25 -5.15 16.5 -1.8 0.35 -0.15 -7.5 1.45 -12.3 -1.3 -8.5 -6.65 -2.3 L-22.15 15.55 Q-29.45 24.75 -35.3 28.85 -37.9 30.65 -39.4 31.05 L-35.9 25.55 Q-30.6 16.6 -29.2 12.1 L-36.25 19.85 Q-41.85 25.95 -43.55 27.45 L-39.4 20.5 Q-35.8 14.15 -35.1 10.85 -33.25 2.05 -25.45 -10.45 -21.3 -17.05 -18.25 -20.55 -21.55 -22.0 -23.15 -24.9 L-24.7 -31.0 Q-23.8 -29.4 -20.2 -27.65 -16.8 -25.95 -13.55 -25.4 -6.05 -27.75 -1.2 -28.7 L10.25 -29.8 Q14.55 -29.8 20.8 -27.2 L20.95 -27.15 22.7 -26.35 22.75 -26.35 Q26.75 -24.3 27.8 -22.55 L28.7 -24.95 29.85 -27.5 Q30.2 -27.3 31.4 -24.7 32.5 -22.35 33.35 -22.25 34.9 -22.1 38.7 -20.4 L41.75 -18.95 39.95 -19.05 Q37.35 -19.05 36.5 -18.5 35.6 -17.95 33.05 -19.2 30.5 -20.5 30.15 -23.0 L30.15 -17.3 30.95 -17.65 30.65 -13.8 Q29.35 -14.65 28.25 -16.05 L26.45 -18.3 26.4 -18.15 Q26.85 -17.25 26.85 -13.85 L26.75 -11.85 25.25 -9.9 Q23.4 -7.25 22.4 -4.25 19.65 3.7 14.25 12.55 8.75 21.55 3.95 24.65 L4.05 24.85 -1.75 28.05 0.8 26.1 2.1 25.05 Q5.9 21.95 6.9 18.9 7.8 16.15 12.4 -4.15 L12.7 -5.6 13.3 -8.1 13.35 -8.5 13.05 -8.15 13.6 -11.5 13.6 -15.75 13.05 -15.75 Q3.1 1.8 0.5 6.7 M-20.55 -0.75 L-20.4 -0.65 -10.7 -8.4 -0.3 -16.35 -0.5 -16.55 Q-6.8 -13.5 -12.15 -8.9 L-20.55 -0.75 M-29.1 12.0 L-29.1 11.75 -29.2 12.1 -29.1 12.0" fill="#ffffff" fill-rule="evenodd" stroke="none"/>
    <path d="M41.75 -18.95 L42.75 -18.35 40.0 -18.15 Q38.65 -17.75 37.75 -17.05 38.3 -16.95 39.05 -15.95 40.2 -14.35 41.8 -10.5 44.4 -4.25 43.0 3.05 41.55 10.35 33.55 17.1 25.5 23.8 22.05 23.2 20.4 25.2 19.3 25.65 L20.4 20.75 21.8 13.8 19.95 16.15 18.25 18.15 20.95 9.0 22.05 4.15 18.45 10.4 Q12.7 19.25 4.05 24.85 L3.95 24.65 Q8.75 21.55 14.25 12.55 19.65 3.7 22.4 -4.25 23.4 -7.25 25.25 -9.9 L26.75 -11.85 26.85 -13.85 Q26.85 -17.25 26.4 -18.15 L26.45 -18.3 28.25 -16.05 Q29.35 -14.65 30.65 -13.8 L30.95 -17.65 30.15 -17.3 30.15 -23.0 Q30.5 -20.5 33.05 -19.2 35.6 -17.95 36.5 -18.5 37.35 -19.05 39.95 -19.05 L41.75 -18.95 M12.7 -5.6 L12.5 -5.65 13.05 -8.15 10.95 -6.75 Q8.4 -5.3 4.25 0.75 L0.5 6.7 Q3.1 1.8 13.05 -15.75 L13.6 -15.75 13.6 -11.5 13.05 -8.15 13.3 -8.1 12.7 -5.6 M-20.55 -0.75 L-12.15 -8.9 Q-6.8 -13.5 -0.5 -16.55 L-0.3 -16.35 -10.7 -8.4 -20.4 -0.65 -20.55 -0.75 M25.6 18.2 L23.25 21.65 22.05 23.2 23.25 21.65 25.6 18.2 M21.8 13.8 L21.85 13.7 21.85 13.4 21.8 13.8" fill="#d6baba" fill-rule="evenodd" stroke="none"/>
    <path d="M0.5 6.7 Q-1.3 9.65 -2.7 12.55 -5.5 18.25 -8.05 21.25 -5.15 16.5 -1.8 0.35 -0.15 -7.5 1.45 -12.3 -1.3 -8.5 -6.65 -2.3 L-22.15 15.55 Q-29.45 24.75 -35.3 28.85 -37.9 30.65 -39.4 31.05 L-35.9 25.55 Q-30.6 16.6 -29.2 12.1 L-36.25 19.85 Q-41.85 25.95 -43.55 27.45 L-39.4 20.5 Q-35.8 14.15 -35.1 10.85 -33.25 2.05 -25.45 -10.45 -21.3 -17.05 -18.25 -20.55 -21.55 -22.0 -23.15 -24.9 L-24.7 -31.0 Q-23.8 -29.4 -20.2 -27.65 -16.8 -25.95 -13.55 -25.4 -6.05 -27.75 -1.2 -28.7 L10.25 -29.8 Q14.55 -29.8 20.8 -27.2 L20.95 -27.15 22.7 -26.35 22.75 -26.35 Q26.75 -24.3 27.8 -22.55 L28.7 -24.95 29.85 -27.5 Q30.2 -27.3 31.4 -24.7 32.5 -22.35 33.35 -22.25 34.9 -22.1 38.7 -20.4 L41.75 -18.95 42.75 -18.35 40.0 -18.15 Q38.65 -17.75 37.75 -17.05 38.3 -16.95 39.05 -15.95 40.2 -14.35 41.8 -10.5 44.4 -4.25 43.0 3.05 41.55 10.35 33.55 17.1 25.5 23.8 22.05 23.2 20.4 25.2 19.3 25.65 L20.4 20.75 21.8 13.8 19.95 16.15 18.25 18.15 20.95 9.0 22.05 4.15 18.45 10.4 Q12.7 19.25 4.05 24.85 L-1.75 28.05 0.8 26.1 2.1 25.05 Q5.9 21.95 6.9 18.9 7.8 16.15 12.4 -4.15 L12.7 -5.6 M13.05 -8.15 L10.95 -6.75 Q8.4 -5.3 4.25 0.75 L0.5 6.7 M13.05 -8.15 L13.35 -8.5 13.3 -8.1 12.7 -5.6 M22.05 23.2 L23.25 21.65 25.6 18.2 M21.8 13.8 L21.85 13.4 21.85 13.7 21.8 13.8 M-29.1 12.0 L-29.1 11.75 -29.2 12.1 -29.1 12.0" fill="none" stroke="#000000" stroke-linecap="round" stroke-linejoin="round" stroke-opacity="0.3019608" stroke-width="0.05"/>
  </g>
</svg>
