<?xml version="1.0" encoding="UTF-8" standalone="no"?>
<svg xmlns:xlink="http://www.w3.org/1999/xlink" height="24.25px" width="19.3px" xmlns="http://www.w3.org/2000/svg">
  <g transform="matrix(1.0, 0.0, 0.0, 1.0, 9.65, 10.0)">
    <path d="M-5.5 14.15 L-6.15 13.9 -6.7 13.65 Q-5.6 10.55 -5.25 8.4 -4.75 5.1 -4.7 -2.1 L-4.6 -4.95 -4.25 -6.2 -3.6 -9.9 -2.0 -10.0 -1.85 -10.0 -0.3 -9.9 -0.5 -8.75 -0.8 -7.0 -1.15 -4.9 -1.25 -4.35 -1.8 -1.55 -1.95 -0.25 -2.55 4.85 Q-3.05 7.75 -3.75 9.9 -4.15 11.2 -5.5 14.15 M-7.6 13.15 L-7.65 13.1 -8.0 12.9 -9.05 12.05 Q-9.55 11.4 -9.65 9.7 L-9.2 0.85 -9.1 -2.5 -9.05 -8.35 Q-8.2 -8.95 -6.05 -9.45 L-5.25 -9.6 -4.5 -9.75 -4.9 -7.05 -5.25 -4.55 -5.5 -2.65 -5.9 4.8 Q-5.95 6.65 -6.9 10.35 L-7.6 13.15 M-6.05 -9.45 L-6.05 -3.2 -6.1 -2.5 Q-6.25 2.1 -6.95 6.8 L-8.0 12.9 -6.95 6.8 Q-6.25 2.1 -6.1 -2.5 L-6.05 -3.2 -6.05 -9.45" fill="#d6baba" fill-rule="evenodd" stroke="none"/>
    <path d="M5.75 -4.8 L8.05 -5.1 9.65 -7.1 9.65 -6.3 Q8.35 -1.0 8.5 -0.95 7.85 0.3 6.6 0.5 L4.9 0.85 3.55 4.8 5.65 4.7 Q6.5 4.45 7.4 3.3 L5.55 7.65 Q4.55 9.2 1.4 9.7 L1.35 9.85 -0.2 12.65 Q-1.3 13.8 -3.0 14.15 L-4.4 14.25 -4.6 14.25 -5.5 14.15 Q-4.15 11.2 -3.75 9.9 -3.05 7.75 -2.55 4.85 L-1.95 -0.25 -1.8 -1.55 -1.25 -4.35 -1.15 -4.9 -0.8 -7.0 -0.5 -8.75 -0.3 -9.9 1.7 -9.55 3.15 -9.1 3.3 -9.05 Q5.5 -8.15 6.1 -6.8 L6.05 -6.5 5.8 -5.0 5.8 -4.95 5.8 -4.9 5.7 -4.8 5.75 -4.8 5.7 -4.55 5.3 -1.0 4.9 0.85 5.3 -1.0 5.7 -4.55 5.75 -4.8 M-6.7 13.65 L-7.6 13.15 -6.9 10.35 Q-5.95 6.65 -5.9 4.8 L-5.5 -2.65 -5.25 -4.55 -4.9 -7.05 -4.5 -9.75 -3.6 -9.9 -4.25 -6.2 -4.6 -4.95 -4.7 -2.1 Q-4.75 5.1 -5.25 8.4 -5.6 10.55 -6.7 13.65 M3.55 4.8 L2.5 7.3 1.4 9.7 2.5 7.3 3.55 4.8 M1.7 -9.55 L0.65 -1.8 -0.55 3.35 Q-1.55 6.85 -2.9 10.25 L-3.3 11.35 -4.6 14.25 -3.3 11.35 -2.9 10.25 Q-1.55 6.85 -0.55 3.35 L0.65 -1.8 1.7 -9.55 M-3.0 14.15 Q-1.3 10.8 0.8 3.7 L2.2 -2.5 3.15 -9.1 2.2 -2.5 0.8 3.7 Q-1.3 10.8 -3.0 14.15" fill="#a78383" fill-rule="evenodd" stroke="none"/>
    <path d="M5.75 -4.8 L8.05 -5.1 9.65 -7.1 9.65 -6.3 Q8.35 -1.0 8.5 -0.95 7.85 0.3 6.6 0.5 L4.9 0.85 3.55 4.8 5.65 4.7 Q6.5 4.45 7.4 3.3 L7.55 3.0 7.55 3.1 7.4 3.3 5.55 7.65 Q4.55 9.2 1.4 9.7 L1.35 9.85 -0.2 12.65 Q-1.3 13.8 -3.0 14.15 L-4.4 14.25 -4.6 14.25 -5.5 14.15 -6.15 13.9 -6.7 13.65 -7.6 13.15 -7.65 13.1 -8.0 12.9 -9.05 12.05 Q-9.55 11.4 -9.65 9.7 L-9.2 0.85 -9.1 -2.5 -9.05 -8.35 Q-8.2 -8.95 -6.05 -9.45 L-5.25 -9.6 -4.5 -9.75 -3.6 -9.9 -2.0 -10.0 -1.85 -10.0 -0.3 -9.9 1.7 -9.55 3.15 -9.1 3.3 -9.05 Q5.5 -8.15 6.1 -6.8 L6.05 -6.5 5.8 -5.0 5.8 -4.95 5.8 -4.9 5.75 -4.8 5.7 -4.55 5.3 -1.0 4.9 0.85 M5.75 -4.8 L5.7 -4.8 M3.15 -9.1 L2.2 -2.5 0.8 3.7 Q-1.3 10.8 -3.0 14.15 M-4.6 14.25 L-3.3 11.35 -2.9 10.25 Q-1.55 6.85 -0.55 3.35 L0.65 -1.8 1.7 -9.55 M1.4 9.7 L2.5 7.3 3.55 4.8 M-8.0 12.9 L-6.95 6.8 Q-6.25 2.1 -6.1 -2.5 L-6.05 -3.2 -6.05 -9.45 M-6.7 13.65 Q-5.6 10.55 -5.25 8.4 -4.75 5.1 -4.7 -2.1 L-4.6 -4.95" fill="none" stroke="#000000" stroke-linecap="round" stroke-linejoin="round" stroke-opacity="0.3019608" stroke-width="0.05"/>
  </g>
</svg>
