<?xml version="1.0" encoding="UTF-8" standalone="no"?>
<svg xmlns:xlink="http://www.w3.org/1999/xlink" height="12.8px" width="4.65px" xmlns="http://www.w3.org/2000/svg">
  <g transform="matrix(1.0, 0.0, 0.0, 1.0, 4.95, 5.3)">
    <path d="M-0.35 -4.2 L-0.3 -2.95 Q-0.3 -0.95 -1.3 2.85 -2.3 6.55 -3.0 7.5 -2.0 4.0 -2.0 2.1 L-1.85 -0.15 -1.75 -0.6 -1.9 -2.35 -1.6 -4.0 -1.65 -4.2 Q-1.65 -5.1 -1.05 -5.3 -0.45 -5.0 -0.35 -4.2 M-3.4 -1.85 Q-3.4 -0.9 -3.9 1.35 L-4.55 4.05 -4.75 4.2 -4.95 3.7 -4.55 -0.8 -3.95 -4.5 Q-3.4 -3.5 -3.4 -1.85" fill="#ffffff" fill-opacity="0.5019608" fill-rule="evenodd" stroke="none"/>
  </g>
</svg>
