<?xml version="1.0" encoding="UTF-8" standalone="no"?>
<svg xmlns:xlink="http://www.w3.org/1999/xlink" height="20.75px" width="14.0px" xmlns="http://www.w3.org/2000/svg">
  <g transform="matrix(1.0, 0.0, 0.0, 1.0, 10.15, 8.15)">
    <path d="M3.85 -5.9 L1.65 -4.9 0.0 -3.95 -0.3 -3.55 -0.35 -3.35 Q-0.7 -2.4 -2.75 1.0 L-3.85 2.85 Q-4.45 4.45 -6.4 8.2 -7.7 10.5 -8.25 12.6 L-8.95 11.6 -10.15 9.15 -8.65 3.55 -7.05 -0.7 -6.85 -1.2 -6.75 -1.5 -5.95 -4.05 Q-5.4 -5.7 -4.25 -6.35 L-1.9 -7.45 -0.8 -7.9 0.35 -8.15 0.65 -7.6 Q1.65 -6.35 3.0 -6.05 L3.85 -5.9" fill="#666666" fill-rule="evenodd" stroke="none"/>
  </g>
</svg>
