<?xml version="1.0" encoding="UTF-8" standalone="no"?>
<svg xmlns:xlink="http://www.w3.org/1999/xlink" height="15.1px" width="15.35px" xmlns="http://www.w3.org/2000/svg">
  <g transform="matrix(1.0, 0.0, 0.0, 1.0, 0.3, 20.85)">
    <path d="M1.9 -15.95 Q2.95 -16.7 4.55 -17.2 L7.2 -17.8 Q9.05 -18.55 9.55 -17.6 L9.75 -17.5 10.7 -16.1 Q12.0 -13.25 12.0 -12.0 L11.8 -9.4 11.35 -8.9 10.45 -8.05 10.3 -7.9 Q7.75 -5.8 4.95 -5.75 L3.85 -5.85 3.0 -6.0 Q1.65 -6.3 0.65 -7.55 L0.35 -8.1 Q-0.5 -9.5 -0.25 -11.95 -0.1 -13.7 1.9 -15.95 M5.65 -12.85 Q6.5 -13.75 6.0 -14.65 L4.9 -14.6 4.8 -14.6 4.85 -14.65 4.9 -14.6 4.85 -14.65 4.8 -14.6 4.9 -14.6 6.0 -14.65 Q6.5 -13.75 5.65 -12.85 L5.55 -12.95 Q5.0 -12.95 4.45 -13.6 L4.1 -14.1 3.9 -13.4 4.0 -12.75 5.65 -12.85 M4.8 -14.6 L4.1 -14.1 4.8 -14.6 M9.55 -17.6 Q10.0 -16.8 9.5 -14.85 8.8 -11.8 6.7 -10.4 4.75 -9.1 2.5 -9.65 1.7 -9.8 1.4 -10.05 0.95 -10.55 1.15 -11.6 2.0 -15.1 6.35 -17.4 L7.2 -17.8 6.35 -17.4 Q2.0 -15.1 1.15 -11.6 0.95 -10.55 1.4 -10.05 1.7 -9.8 2.5 -9.65 4.75 -9.1 6.7 -10.4 8.8 -11.8 9.5 -14.85 10.0 -16.8 9.55 -17.6" fill="#cccccc" fill-rule="evenodd" stroke="none"/>
    <path d="M1.9 -15.95 L3.75 -17.8 Q5.25 -19.15 6.45 -19.9 8.35 -21.05 9.6 -20.8 L10.4 -20.65 Q12.9 -20.55 14.2 -19.5 15.5 -18.55 14.85 -15.9 13.95 -12.0 11.8 -9.4 L12.0 -12.0 Q12.0 -13.25 10.7 -16.1 L9.75 -17.5 9.55 -17.6 Q9.05 -18.55 7.2 -17.8 L4.55 -17.2 Q2.95 -16.7 1.9 -15.95 M5.65 -12.85 L4.0 -12.75 3.9 -13.4 4.1 -14.1 4.45 -13.6 Q5.0 -12.95 5.55 -12.95 L5.65 -12.85" fill="#a2a2a2" fill-rule="evenodd" stroke="none"/>
    <path d="M11.8 -9.4 Q13.95 -12.0 14.85 -15.9 15.5 -18.55 14.2 -19.5 12.9 -20.55 10.4 -20.65 L9.6 -20.8 Q8.35 -21.05 6.45 -19.9 5.25 -19.15 3.75 -17.8 L1.9 -15.95 M7.2 -17.8 Q9.05 -18.55 9.55 -17.6 M11.8 -9.4 L11.35 -8.9 10.45 -8.05 10.3 -7.9 Q7.75 -5.8 4.95 -5.75 L3.85 -5.85 3.0 -6.0 Q1.65 -6.3 0.65 -7.55 L0.35 -8.1 Q-0.5 -9.5 -0.25 -11.95 -0.1 -13.7 1.9 -15.95 M4.9 -14.6 L4.85 -14.65 4.8 -14.6 4.9 -14.6 6.0 -14.65 Q6.5 -13.75 5.65 -12.85 L4.0 -12.75 3.9 -13.4 4.1 -14.1 4.8 -14.6 M7.2 -17.8 L6.35 -17.4 Q2.0 -15.1 1.15 -11.6 0.95 -10.55 1.4 -10.05 1.7 -9.8 2.5 -9.65 4.75 -9.1 6.7 -10.4 8.8 -11.8 9.5 -14.85 10.0 -16.8 9.55 -17.6" fill="none" stroke="#000000" stroke-linecap="round" stroke-linejoin="round" stroke-opacity="0.3019608" stroke-width="0.05"/>
  </g>
</svg>
