<?xml version="1.0" encoding="UTF-8" standalone="no"?>
<svg xmlns:xlink="http://www.w3.org/1999/xlink" height="14.8px" width="25.55px" xmlns="http://www.w3.org/2000/svg">
  <g transform="matrix(1.0, 0.0, 0.0, 1.0, 12.8, 7.4)">
    <path d="M-0.95 -2.8 Q1.25 -4.25 2.85 -4.85 L7.7 -5.2 2.85 -4.85 Q1.25 -4.25 -0.95 -2.8 L-3.6 -3.55 -7.6 -4.6 Q-4.2 -7.45 -0.55 -7.4 L5.4 -6.75 Q7.4 -6.15 7.7 -5.2 L9.05 -4.3 11.7 -1.65 10.5 -1.65 9.05 -1.65 8.75 -1.55 8.35 -1.45 7.45 -1.2 Q6.4 -0.85 5.6 -0.25 3.1 -0.35 1.2 -1.3 L-1.55 -2.4 -1.3 -2.55 -0.95 -2.8 M3.35 1.25 L3.8 0.95 5.05 1.8 Q7.2 3.1 8.35 3.15 L6.55 4.7 3.65 3.35 1.95 2.4 3.0 1.5 3.35 1.25" fill="#dcd2c5" fill-rule="evenodd" stroke="none"/>
    <path d="M5.6 -0.25 Q6.4 -0.85 7.45 -1.2 L8.35 -1.45 8.75 -1.55 9.05 -1.65 10.5 -1.65 12.75 1.7 Q10.95 1.75 8.75 2.95 L8.35 3.15 Q7.2 3.1 5.05 1.8 L3.8 0.95 5.6 -0.25 M-2.05 -2.0 L-3.1 -0.95 Q-4.4 0.3 -4.75 1.1 L-6.6 5.25 -4.75 1.1 Q-4.4 0.3 -3.1 -0.95 L0.3 0.5 Q1.95 1.3 3.35 1.25 L3.0 1.5 1.95 2.4 Q0.7 3.55 -0.05 4.95 L-0.25 5.35 -0.05 4.95 Q0.7 3.55 1.95 2.4 L3.65 3.35 6.55 4.7 3.75 7.25 2.1 6.35 2.0 6.3 Q0.5 5.45 -0.25 5.35 L-0.85 6.35 -1.5 7.4 -6.6 5.25 -7.0 6.35 -7.05 6.45 -7.25 6.35 -8.95 5.7 -12.8 4.4 Q-11.75 -0.45 -8.7 -3.55 -6.95 -2.75 -2.9 -2.15 L-2.05 -2.0 M-3.8 5.35 Q-2.45 6.15 -1.1 5.0 L-1.0 4.05 -1.1 3.2 -1.15 3.05 Q-1.45 2.35 -2.35 2.3 L-3.8 2.15 Q-4.85 3.25 -4.35 4.6 L-4.1 5.15 -3.8 5.35 M-8.95 4.25 Q-8.35 4.0 -7.9 3.3 L-7.4 2.25 -7.3 1.15 Q-7.3 0.15 -8.65 0.15 L-9.95 0.5 -10.3 0.7 -10.6 0.85 -10.7 0.95 -11.0 1.15 Q-11.4 1.65 -11.4 2.55 -11.4 3.5 -10.75 4.0 -10.25 4.35 -9.6 4.35 L-8.95 4.25" fill="#a59b8d" fill-rule="evenodd" stroke="none"/>
    <path d="M-0.95 -2.8 L-1.3 -2.55 -1.55 -2.4 1.2 -1.3 Q3.1 -0.35 5.6 -0.25 L3.8 0.95 3.35 1.25 Q1.95 1.3 0.3 0.5 L-3.1 -0.95 -2.05 -2.0 -2.9 -2.15 Q-6.95 -2.75 -8.7 -3.55 L-8.05 -4.2 -7.6 -4.6 -3.6 -3.55 -0.95 -2.8 M-1.55 -2.4 L-2.05 -2.0 -1.55 -2.4" fill="#ffffff" fill-rule="evenodd" stroke="none"/>
    <path d="M-1.15 3.05 L-1.85 2.95 Q-3.25 2.95 -3.7 3.9 L-3.9 4.9 -3.8 5.35 -4.1 5.15 -4.35 4.6 Q-4.85 3.25 -3.8 2.15 L-2.35 2.3 Q-1.45 2.35 -1.15 3.05 M-7.4 2.25 L-7.3 1.55 Q-7.6 0.85 -8.25 0.85 -9.7 0.85 -10.15 2.0 L-10.3 3.2 Q-10.3 4.25 -9.2 4.25 L-8.95 4.25 -9.6 4.35 Q-10.25 4.35 -10.75 4.0 -11.4 3.5 -11.4 2.55 -11.4 1.65 -11.0 1.15 L-10.7 0.95 -10.6 0.85 -10.3 0.7 -9.95 0.5 -8.65 0.15 Q-7.3 0.15 -7.3 1.15 L-7.4 2.25" fill="#c4b195" fill-rule="evenodd" stroke="none"/>
    <path d="M-3.8 5.35 L-3.9 4.9 -3.7 3.9 Q-3.25 2.95 -1.85 2.95 L-1.15 3.05 -1.1 3.2 -1.0 4.05 -1.1 5.0 Q-2.45 6.15 -3.8 5.35 M-8.95 4.25 L-9.2 4.25 Q-10.3 4.25 -10.3 3.2 L-10.15 2.0 Q-9.7 0.85 -8.25 0.85 -7.6 0.85 -7.3 1.55 L-7.4 2.25 -7.9 3.3 Q-8.35 4.0 -8.95 4.25" fill="#a78a61" fill-rule="evenodd" stroke="none"/>
    <path d="M7.7 -5.2 L2.85 -4.85 Q1.25 -4.25 -0.95 -2.8 L-1.3 -2.55 -1.55 -2.4 M5.6 -0.25 Q6.4 -0.85 7.45 -1.2 L8.35 -1.45 8.75 -1.55 9.05 -1.65 10.5 -1.65 11.7 -1.65 9.05 -4.3 7.7 -5.2 Q7.4 -6.15 5.4 -6.75 L-0.55 -7.4 Q-4.2 -7.45 -7.6 -4.6 M-8.7 -3.55 L-8.05 -4.2 -7.6 -4.6 M-3.1 -0.95 L-2.05 -2.0 -1.55 -2.4 M-8.7 -3.55 Q-11.75 -0.45 -12.8 4.4 L-8.95 5.7 -7.25 6.35 -7.05 6.45 -7.0 6.35 -6.6 5.25 -4.75 1.1 Q-4.4 0.3 -3.1 -0.95 M3.35 1.25 L3.8 0.95 5.6 -0.25 M-3.8 5.35 Q-2.45 6.15 -1.1 5.0 L-1.0 4.05 -1.1 3.2 -1.15 3.05 Q-1.45 2.35 -2.35 2.3 L-3.8 2.15 Q-4.85 3.25 -4.35 4.6 L-4.1 5.15 -3.8 5.35 M1.95 2.4 Q0.7 3.55 -0.05 4.95 L-0.25 5.35 Q0.5 5.45 2.0 6.3 L2.1 6.35 3.75 7.25 6.55 4.7 M1.95 2.4 L3.0 1.5 3.35 1.25 M-8.95 4.25 Q-8.35 4.0 -7.9 3.3 L-7.4 2.25 -7.3 1.15 Q-7.3 0.15 -8.65 0.15 L-9.95 0.5 -10.3 0.7 -10.6 0.85 -10.7 0.95 -11.0 1.15 Q-11.4 1.65 -11.4 2.55 -11.4 3.5 -10.75 4.0 -10.25 4.35 -9.6 4.35 L-8.95 4.25 M-0.25 5.35 L-0.85 6.35 -1.5 7.4 -6.6 5.25 M10.5 -1.65 L12.75 1.7 Q10.95 1.75 8.75 2.95 L8.35 3.15 6.55 4.7" fill="none" stroke="#000000" stroke-linecap="round" stroke-linejoin="round" stroke-opacity="0.3019608" stroke-width="0.05"/>
  </g>
</svg>
