<?xml version="1.0" encoding="UTF-8" standalone="no"?>
<svg xmlns:xlink="http://www.w3.org/1999/xlink" height="9.75px" width="18.0px" xmlns="http://www.w3.org/2000/svg">
  <g transform="matrix(1.0, 0.0, 0.0, 1.0, 10.15, 5.2)">
    <path d="M7.85 2.95 L7.35 3.85 Q6.75 4.55 6.4 4.55 5.95 4.55 3.8 3.55 L2.5 2.95 2.1 2.45 Q2.1 2.15 2.9 1.65 3.7 1.15 4.3 1.05 L4.35 1.2 4.25 1.35 6.4 1.95 Q7.85 2.45 7.85 2.95" fill="#ffffff" fill-opacity="0.2" fill-rule="evenodd" stroke="none"/>
    <path d="M4.65 -0.1 L3.85 0.65 Q3.0 1.25 2.55 1.25 1.75 1.25 -0.3 0.2 -2.85 -0.35 -2.85 -0.9 L-2.55 -1.4 -1.5 -2.1 0.4 -1.95 Q4.65 -0.55 4.65 -0.1" fill="#ffffff" fill-opacity="0.4" fill-rule="evenodd" stroke="none"/>
    <path d="M-6.5 -5.0 L-5.45 -5.15 -4.55 -4.75 Q-1.6 -3.6 -1.6 -3.35 L-1.9 -2.65 Q-2.25 -2.1 -2.55 -2.1 -3.4 -2.1 -5.5 -2.8 -7.9 -3.6 -7.8 -4.0 -7.65 -4.6 -6.5 -5.0 M-2.95 4.3 Q-4.05 4.3 -4.05 3.4 L-3.9 2.95 Q-3.65 2.55 -3.2 2.55 -2.75 2.55 -2.4 3.1 -2.1 3.55 -2.1 3.75 -2.1 4.3 -2.95 4.3 M-8.3 1.25 L-8.5 2.05 Q-8.8 2.7 -9.3 2.7 -9.9 2.7 -10.15 1.85 -10.15 1.2 -9.2 0.75 -8.3 0.3 -8.3 1.25" fill="#ffffff" fill-opacity="0.8" fill-rule="evenodd" stroke="none"/>
  </g>
</svg>
