<?xml version="1.0" encoding="UTF-8" standalone="no"?>
<svg xmlns:xlink="http://www.w3.org/1999/xlink" height="27.05px" width="12.1px" xmlns="http://www.w3.org/2000/svg">
  <g transform="matrix(1.0, 0.0, 0.0, 1.0, 9.25, 13.3)">
    <path d="M-0.95 -13.2 L-0.75 -12.95 -0.7 -12.8 -0.7 -12.65 Q-0.55 -12.1 -2.05 -11.65 L-3.55 -11.05 -5.65 -9.65 -8.1 -6.95 -8.3 -6.85 -8.5 -6.8 Q-9.25 -6.75 -9.25 -7.6 -9.3 -9.1 -6.7 -11.2 L-6.7 -11.15 Q-4.0 -13.4 -1.2 -13.3 L-0.95 -13.2 M-1.55 -7.85 L-2.65 -7.35 -4.3 -6.35 -7.6 -4.45 -7.8 -4.55 Q-6.95 -5.75 -5.0 -7.05 -2.6 -8.7 -0.8 -8.45 L-1.55 -7.85 M-2.4 -3.75 L-2.15 -3.1 -1.1 -1.8 Q0.0 0.15 0.0 0.8 L-0.3 1.2 -0.8 1.45 Q-1.4 1.45 -2.05 0.4 L-2.8 -0.9 -4.7 -3.35 Q-4.65 -3.3 -4.1 -3.7 -3.6 -4.1 -3.1 -4.15 -2.65 -4.25 -2.4 -3.75" fill="#ffffff" fill-opacity="0.8" fill-rule="evenodd" stroke="none"/>
    <path d="M-0.35 2.0 L0.45 2.85 0.75 3.65 Q2.1 6.35 2.1 6.75 2.05 7.1 1.2 7.25 0.3 7.4 -0.2 6.4 L-0.95 5.05 -2.35 2.7 -1.65 2.1 -0.35 2.0" fill="#ffffff" fill-opacity="0.5019608" fill-rule="evenodd" stroke="none"/>
    <path d="M1.85 13.75 Q1.35 13.75 -0.5 8.5 -0.5 8.1 0.3 7.85 1.1 7.55 1.4 8.3 L2.1 9.9 2.85 13.1 Q2.85 13.75 1.85 13.75" fill="#ffffff" fill-opacity="0.2509804" fill-rule="evenodd" stroke="none"/>
  </g>
</svg>
