<?xml version="1.0" encoding="UTF-8" standalone="no"?>
<svg xmlns:xlink="http://www.w3.org/1999/xlink" height="18.15px" width="37.85px" xmlns="http://www.w3.org/2000/svg">
  <g transform="matrix(1.0, 0.0, 0.0, 1.0, 18.9, 10.05)">
    <path d="M12.05 -7.35 L12.25 -6.85 12.35 -6.25 Q12.35 -4.25 9.15 -3.5 L1.6 -2.45 -1.45 -1.8 -3.1 -1.35 -1.45 -1.8 1.6 -2.45 9.15 -3.5 Q12.35 -4.25 12.35 -6.25 L12.25 -6.85 12.05 -7.35 Q15.3 -6.25 17.75 -4.85 L18.95 -4.05 18.95 -4.0 17.8 -2.45 8.25 -0.9 3.25 0.2 2.25 0.45 -0.35 -0.05 Q-2.1 -0.6 -3.0 -1.3 L-3.1 -1.35 -5.1 -2.05 Q-6.7 -2.6 -7.1 -3.9 L-7.5 -3.9 -5.3 -4.35 -4.8 -4.45 -3.75 -4.65 Q3.9 -6.3 3.9 -8.5 L3.65 -8.95 3.25 -9.65 3.65 -8.95 3.9 -8.5 Q3.9 -6.3 -3.75 -4.65 L-4.8 -4.45 -5.3 -4.35 -7.5 -3.9 Q-8.25 -3.95 -8.75 -4.3 L-10.0 -5.85 -10.45 -6.1 -10.5 -6.0 -10.55 -6.05 -11.2 -6.5 Q-11.85 -7.05 -11.85 -7.6 L-11.7 -8.2 -11.65 -8.2 -6.75 -9.3 -4.7 -9.75 -4.65 -9.75 -1.4 -10.05 3.25 -9.65 Q6.9 -9.1 11.2 -7.65 L12.05 -7.35 M-4.65 -9.75 Q-3.85 -8.9 -3.85 -8.2 -3.85 -6.95 -5.5 -6.6 L-5.7 -6.55 -8.1 -6.3 -9.4 -6.25 -10.45 -6.1 -10.55 -6.05 -10.45 -6.1 -9.4 -6.25 -8.1 -6.3 -5.7 -6.55 -5.5 -6.6 Q-3.85 -6.95 -3.85 -8.2 -3.85 -8.9 -4.65 -9.75" fill="#ffffff" fill-rule="evenodd" stroke="none"/>
    <path d="M-7.5 -3.9 L-7.1 -3.9 Q-6.7 -2.6 -5.1 -2.05 L-3.1 -1.35 -3.0 -1.3 Q-2.1 -0.6 -0.35 -0.05 L2.25 0.45 -2.15 1.6 -4.1 2.15 -4.3 2.2 Q-8.0 3.25 -10.55 4.35 -13.6 5.65 -15.45 7.15 L-16.45 8.05 -16.5 8.1 Q-17.2 7.25 -17.95 5.25 L-18.05 5.0 Q-18.9 2.5 -18.9 0.9 L-18.9 0.45 Q-18.75 -1.85 -17.45 -3.65 L-17.25 -3.85 -17.05 -4.15 Q-15.5 -6.0 -12.15 -8.1 L-12.05 -8.2 -11.7 -8.2 -11.85 -7.6 Q-11.85 -7.05 -11.2 -6.5 L-10.55 -6.05 -10.5 -6.0 -10.45 -6.1 -10.0 -5.85 -8.75 -4.3 Q-8.25 -3.95 -7.5 -3.9 L-9.05 -3.55 Q-16.4 -1.85 -18.9 0.45 -16.4 -1.85 -9.05 -3.55 L-7.5 -3.9 M-3.1 -1.35 L-5.65 -0.6 -7.65 0.0 -13.8 2.3 Q-15.6 2.9 -16.8 4.05 L-17.95 5.25 -16.8 4.05 Q-15.6 2.9 -13.8 2.3 L-7.65 0.0 -5.65 -0.6 -3.1 -1.35 M-17.05 -4.15 Q-16.25 -4.6 -14.05 -5.25 L-10.55 -6.05 -14.05 -5.25 Q-16.25 -4.6 -17.05 -4.15" fill="#d1b6b6" fill-rule="evenodd" stroke="none"/>
    <path d="M-3.1 -1.35 L-1.45 -1.8 1.6 -2.45 9.15 -3.5 Q12.35 -4.25 12.35 -6.25 L12.25 -6.85 12.05 -7.35 11.2 -7.65 Q6.9 -9.1 3.25 -9.65 L3.65 -8.95 3.9 -8.5 Q3.9 -6.3 -3.75 -4.65 L-4.8 -4.45 -5.3 -4.35 -7.5 -3.9 -9.05 -3.55 Q-16.4 -1.85 -18.9 0.45 -18.75 -1.85 -17.45 -3.65 L-17.25 -3.85 -17.05 -4.15 Q-15.5 -6.0 -12.15 -8.1 L-12.05 -8.2 -11.7 -8.2 -11.65 -8.2 -6.75 -9.3 -4.7 -9.75 -4.65 -9.75 -1.4 -10.05 3.25 -9.65 M17.75 -4.85 Q15.3 -6.25 12.05 -7.35 M-16.45 8.05 L-16.5 8.1 Q-17.2 7.25 -17.95 5.25 L-18.05 5.0 Q-18.9 2.5 -18.9 0.9 L-18.9 0.45 M-10.55 -6.05 L-10.45 -6.1 -9.4 -6.25 -8.1 -6.3 -5.7 -6.55 -5.5 -6.6 Q-3.85 -6.95 -3.85 -8.2 -3.85 -8.9 -4.65 -9.75 M-10.55 -6.05 L-14.05 -5.25 Q-16.25 -4.6 -17.05 -4.15 M-17.95 5.25 L-16.8 4.05 Q-15.6 2.9 -13.8 2.3 L-7.65 0.0 -5.65 -0.6 -3.1 -1.35 Z" fill="none" stroke="#000000" stroke-linecap="round" stroke-linejoin="round" stroke-opacity="0.3019608" stroke-width="0.05"/>
  </g>
</svg>
