<?xml version="1.0" encoding="UTF-8" standalone="no"?>
<svg xmlns:xlink="http://www.w3.org/1999/xlink" height="5.75px" width="15.1px" xmlns="http://www.w3.org/2000/svg">
  <g transform="matrix(1.0, 0.0, 0.0, 1.0, 0.95, 8.25)">
    <path d="M10.1 -6.8 Q14.15 -5.7 14.15 -4.55 L13.75 -4.05 Q13.2 -3.65 12.5 -3.65 L8.65 -4.25 4.9 -5.6 0.2 -7.2 -0.95 -7.5 0.25 -8.05 2.15 -8.2 2.2 -8.1 3.8 -8.05 3.8 -7.95 4.35 -7.9 5.75 -7.65 10.1 -6.8 M3.8 -3.75 L4.5 -3.05 Q4.5 -2.5 2.85 -2.5 L0.15 -2.85 Q-0.95 -3.15 -0.95 -3.55 -0.95 -4.25 1.2 -4.25 L3.8 -3.75" fill="#ffffff" fill-rule="evenodd" stroke="none"/>
  </g>
</svg>
