<?xml version="1.0" encoding="UTF-8" standalone="no"?>
<svg xmlns:xlink="http://www.w3.org/1999/xlink" height="146.8px" width="196.05px" xmlns="http://www.w3.org/2000/svg">
  <g transform="matrix(1.0, 0.0, 0.0, 1.0, 31.85, 19.65)">
    <path d="M24.65 -16.4 Q30.75 -19.65 44.3 -19.65 L49.9 -19.1 56.4 -18.6 62.4 -17.9 Q95.45 -12.7 131.75 -1.75 168.05 9.15 163.75 38.45 159.4 67.75 136.95 107.05 114.45 146.35 49.75 108.8 L24.25 100.1 Q-39.8 108.65 -30.7 83.1 -21.65 57.55 -19.55 49.25 -17.5 40.9 -14.0 37.2 -10.5 33.45 -11.5 29.8 -12.55 26.15 -9.55 24.1 -6.55 22.7 -5.65 19.7 -4.8 16.7 1.25 18.15 L1.5 17.8 1.4 17.4 Q3.6 13.8 4.4 10.65 4.55 10.2 5.0 9.65 5.7 7.7 9.75 1.3 14.1 -5.65 15.75 -7.75 21.1 -14.55 24.65 -16.4 M-9.15 -2.25 Q-5.55 -0.1 -5.55 2.25 L-5.25 4.05 Q-5.25 4.95 -4.35 6.45 L-3.5 8.25 Q-3.5 9.3 -4.4 9.3 -4.8 9.3 -5.6 8.55 L-6.15 8.65 -7.05 8.55 Q-8.25 8.7 -8.55 9.65 L-11.5 10.1 Q-17.2 10.1 -19.75 8.4 -21.65 7.15 -21.65 5.1 -21.65 3.45 -20.3 1.35 -19.05 -0.65 -17.45 -1.8 -13.3 -4.8 -9.15 -2.25" fill="#00ff00" fill-rule="evenodd" stroke="none"/>
  </g>
</svg>
