<?xml version="1.0" encoding="UTF-8" standalone="no"?>
<svg xmlns:xlink="http://www.w3.org/1999/xlink" height="10.05px" width="6.85px" xmlns="http://www.w3.org/2000/svg">
  <g transform="matrix(1.0, 0.0, 0.0, 1.0, 1.6, 8.65)">
    <path d="M1.95 -8.35 Q3.0 -7.85 3.95 -6.55 5.1 -4.75 5.25 -3.0 L5.2 -1.85 Q4.45 -3.45 2.75 -4.4 1.05 -5.35 0.05 -5.35 L-1.4 -5.05 -1.3 -5.65 -0.95 -8.4 0.6 -8.65 1.9 -8.35 1.95 -8.35" fill="#a6a6a6" fill-rule="evenodd" stroke="none"/>
    <path d="M5.2 -1.85 L4.6 -0.2 Q3.7 1.4 2.55 1.4 L-0.8 -1.45 -1.55 -2.4 -1.6 -3.9 -1.4 -5.05 0.05 -5.35 Q1.05 -5.35 2.75 -4.4 4.45 -3.45 5.2 -1.85 M0.8 -3.15 L0.65 -2.3 Q0.35 -1.7 -0.15 -1.7 -0.95 -1.7 -1.1 -3.2 -1.15 -3.8 -0.75 -4.05 L-0.4 -4.15 -0.05 -4.25 Q0.7 -4.25 0.8 -3.15 0.7 -4.25 -0.05 -4.25 L-0.4 -4.15 -0.75 -4.05 Q-1.15 -3.8 -1.1 -3.2 -0.95 -1.7 -0.15 -1.7 0.35 -1.7 0.65 -2.3 L0.8 -3.15" fill="#cccccc" fill-rule="evenodd" stroke="none"/>
    <path d="M1.95 -8.35 Q3.0 -7.85 3.95 -6.55 5.1 -4.75 5.25 -3.0 L5.2 -1.85 4.6 -0.2 Q3.7 1.4 2.55 1.4 M-0.95 -8.4 L0.6 -8.65 1.9 -8.35 M0.8 -3.15 Q0.7 -4.25 -0.05 -4.25 L-0.4 -4.15 -0.75 -4.05 Q-1.15 -3.8 -1.1 -3.2 -0.95 -1.7 -0.15 -1.7 0.35 -1.7 0.65 -2.3 L0.8 -3.15" fill="none" stroke="#000000" stroke-linecap="round" stroke-linejoin="round" stroke-opacity="0.3019608" stroke-width="0.05"/>
  </g>
</svg>
