<?xml version="1.0" encoding="UTF-8" standalone="no"?>
<svg xmlns:xlink="http://www.w3.org/1999/xlink" height="41.9px" width="66.85px" xmlns="http://www.w3.org/2000/svg">
  <g transform="matrix(1.0, 0.0, 0.0, 1.0, 15.65, 1.65)">
    <path d="M15.55 18.35 L51.1 39.65 51.2 39.7 50.85 39.75 50.85 39.7 48.0 39.35 Q47.05 39.35 45.4 38.6 43.7 37.8 42.95 37.8 L38.5 37.55 38.55 37.45 Q37.3 37.45 34.4 36.25 31.45 35.05 30.65 34.0 29.85 32.95 26.05 32.05 22.25 31.1 21.55 29.0 20.85 26.9 18.65 26.5 L14.95 25.45 Q13.2 23.65 13.2 22.6 L12.95 21.9 15.55 18.35 M7.7 17.9 Q7.7 16.35 9.35 16.4 10.95 16.5 10.95 17.8 10.8 19.6 9.5 19.6 7.7 19.6 7.7 17.9" fill="#e0e8eb" fill-rule="evenodd" stroke="none"/>
    <path d="M15.55 18.35 L12.95 21.9 11.25 24.15 -15.65 4.15 -11.35 -1.65 15.55 18.35 M7.7 13.65 Q7.7 12.95 3.2 10.4 L-2.85 7.05 -5.35 5.5 Q-7.0 4.45 -7.8 3.55 -9.2 1.9 -10.25 1.85 -11.2 1.85 -11.2 2.9 -11.2 4.0 -9.0 5.95 L-4.45 9.05 Q6.15 14.8 6.5 14.8 7.7 14.8 7.7 13.65 M7.7 17.9 Q7.7 19.6 9.5 19.6 10.8 19.6 10.95 17.8 10.95 16.5 9.35 16.4 7.7 16.35 7.7 17.9" fill="#000000" fill-rule="evenodd" stroke="none"/>
    <path d="M12.95 21.9 L13.2 22.6 Q13.2 23.65 14.95 25.45 L18.65 26.5 Q20.85 26.9 21.55 29.0 22.25 31.1 26.05 32.05 29.85 32.95 30.65 34.0 31.45 35.05 34.4 36.25 37.3 37.45 38.55 37.45 L38.5 37.55 42.95 37.8 Q43.7 37.8 45.4 38.6 47.05 39.35 48.0 39.35 L50.85 39.7 50.85 39.75 Q40.25 41.35 30.45 37.65 20.45 33.85 11.25 24.15 L12.95 21.9" fill="#b8c9cf" fill-rule="evenodd" stroke="none"/>
    <path d="M7.7 13.65 Q7.7 14.8 6.5 14.8 6.15 14.8 -4.45 9.05 L-9.0 5.95 Q-11.2 4.0 -11.2 2.9 -11.2 1.85 -10.25 1.85 -9.2 1.9 -7.8 3.55 -7.0 4.45 -5.35 5.5 L-2.85 7.05 3.2 10.4 Q7.7 12.95 7.7 13.65" fill="#6b5a50" fill-rule="evenodd" stroke="none"/>
    <path d="M50.85 39.75 L51.2 39.7 51.1 39.65 15.55 18.35 12.95 21.9 M50.85 39.75 Q40.25 41.35 30.45 37.65 20.45 33.85 11.25 24.15 L-15.65 4.15 -11.35 -1.65 15.55 18.35 M7.7 17.9 Q7.7 19.6 9.5 19.6 10.8 19.6 10.95 17.8 10.95 16.5 9.35 16.4 7.7 16.35 7.7 17.9 M11.25 24.15 L12.95 21.9" fill="none" stroke="#000000" stroke-linecap="round" stroke-linejoin="round" stroke-opacity="0.4" stroke-width="0.05"/>
  </g>
</svg>
