<?xml version="1.0" encoding="UTF-8" standalone="no"?>
<svg xmlns:xlink="http://www.w3.org/1999/xlink" height="43.15px" width="84.7px" xmlns="http://www.w3.org/2000/svg">
  <g transform="matrix(1.0, 0.0, 0.0, 1.0, 16.85, 0.05)">
    <path d="M65.95 39.7 L64.95 39.85 62.55 40.2 56.85 40.6 56.1 40.5 55.35 40.6 52.6 40.15 Q51.85 40.15 45.55 37.15 L33.8 31.5 Q31.55 30.4 28.1 29.05 L23.25 27.05 18.0 24.9 Q15.3 23.65 15.15 22.3 L15.15 22.2 15.8 22.35 16.25 22.45 39.3 30.15 49.95 33.95 54.6 35.75 58.6 37.15 58.9 37.1 58.95 36.95 58.45 36.6 57.9 36.4 52.2 33.0 46.4 29.6 Q44.25 28.35 41.3 26.85 L36.05 24.1 Q29.4 20.35 26.05 18.8 L17.95 14.75 20.25 9.6 57.05 27.1 65.95 39.7" fill="#e0e8eb" fill-rule="evenodd" stroke="none"/>
    <path d="M17.65 15.45 L12.15 27.6 4.3 31.4 6.3 22.2 -16.85 7.1 -13.95 0.5 13.6 7.15 18.75 -0.05 20.25 9.6 17.95 14.75 17.65 15.45 M17.3 3.45 Q16.6 3.9 16.35 5.5 L15.9 7.05 15.5 9.0 13.2 15.8 14.3 16.4 Q14.9 16.4 15.8 14.0 L16.85 10.6 17.5 7.7 17.95 4.5 Q17.95 2.95 17.3 3.45 M11.15 9.8 L11.5 9.5 11.65 9.05 Q11.65 8.5 11.2 8.45 L10.35 8.5 2.6 6.2 Q-5.25 3.9 -5.95 3.9 L-8.5 3.5 -10.8 3.05 Q-11.25 3.05 -11.35 3.4 L-11.3 3.3 Q-11.9 3.6 -11.9 4.0 -11.9 4.95 -10.9 5.35 -8.75 6.0 -6.6 6.8 -3.85 7.8 -1.3 9.2 0.35 9.9 4.5 12.45 8.15 14.75 8.6 14.75 9.4 14.75 10.15 12.0 L11.15 9.8" fill="#000000" fill-rule="evenodd" stroke="none"/>
    <path d="M17.95 14.75 L26.05 18.8 Q29.4 20.35 36.05 24.1 L41.3 26.85 Q44.25 28.35 46.4 29.6 L52.2 33.0 57.9 36.4 58.45 36.6 58.95 36.95 58.9 37.1 58.6 37.15 54.6 35.75 49.95 33.95 39.3 30.15 16.25 22.45 15.8 22.35 15.15 22.2 15.15 22.3 Q15.3 23.65 18.0 24.9 L23.25 27.05 28.1 29.05 Q31.55 30.4 33.8 31.5 L45.55 37.15 Q51.85 40.15 52.6 40.15 L55.35 40.6 56.1 40.5 56.85 40.6 62.55 40.2 64.95 39.85 65.95 39.7 67.85 42.35 51.2 43.1 12.15 27.6 17.65 15.45 17.95 14.75 17.65 15.45 17.95 14.75" fill="#b8c9cf" fill-rule="evenodd" stroke="none"/>
    <path d="M11.15 9.8 L10.15 12.0 Q9.4 14.75 8.6 14.75 8.15 14.75 4.5 12.45 0.35 9.9 -1.3 9.2 -3.85 7.8 -6.6 6.8 -8.75 6.0 -10.9 5.35 -11.9 4.95 -11.9 4.0 -11.9 3.6 -11.3 3.3 L-11.35 3.4 Q-11.25 3.05 -10.8 3.05 L-8.5 3.5 -5.95 3.9 Q-5.25 3.9 2.6 6.2 L10.35 8.5 11.2 8.45 Q11.65 8.5 11.65 9.05 L11.5 9.5 11.15 9.8 M17.3 3.45 Q17.95 2.95 17.95 4.5 L17.5 7.7 16.85 10.6 15.8 14.0 Q14.9 16.4 14.3 16.4 L13.2 15.8 15.5 9.0 15.9 7.05 16.35 5.5 Q16.6 3.9 17.3 3.45" fill="#6b5a50" fill-rule="evenodd" stroke="none"/>
    <path d="M17.95 14.75 L17.65 15.45 12.15 27.6 51.2 43.1 67.85 42.35 65.95 39.7 57.05 27.1 20.25 9.6 17.95 14.75 M20.25 9.6 L18.75 -0.05 13.6 7.15 -13.95 0.5 -16.85 7.1 6.3 22.2 4.3 31.4 12.15 27.6" fill="none" stroke="#000000" stroke-linecap="round" stroke-linejoin="round" stroke-opacity="0.4" stroke-width="0.05"/>
  </g>
</svg>
