<?xml version="1.0" encoding="UTF-8" standalone="no"?>
<svg xmlns:xlink="http://www.w3.org/1999/xlink" height="16.4px" width="1.85px" xmlns="http://www.w3.org/2000/svg">
  <g transform="matrix(1.0, 0.0, 0.0, 1.0, 4.05, 7.5)">
    <path d="M-2.35 -7.5 L-2.2 -5.45 -2.45 -3.35 -2.7 -1.95 -2.55 -0.55 -2.65 0.5 -2.8 1.6 -3.1 5.5 -3.0 5.85 -3.55 8.45 -3.75 8.9 -4.05 8.2 -4.0 7.9 -3.85 6.55 -3.7 6.35 -3.75 5.7 -3.9 4.15 -3.55 -0.2 -3.4 -0.6 -3.5 -0.85 -3.35 -1.3 -3.45 -1.7 -3.4 -2.15 -2.8 -4.6 -2.75 -5.3 -2.4 -7.5 -2.35 -7.5" fill="#ffffff" fill-rule="evenodd" stroke="none"/>
  </g>
</svg>
