<?xml version="1.0" encoding="UTF-8" standalone="no"?>
<svg xmlns:xlink="http://www.w3.org/1999/xlink" height="52.4px" width="135.7px" xmlns="http://www.w3.org/2000/svg">
  <g transform="matrix(1.0, 0.0, 0.0, 1.0, 23.35, -1.6)">
    <path d="M-22.45 3.85 L-21.65 1.6 52.85 28.05 52.55 29.3 52.85 28.05 112.0 49.15 112.35 49.1 111.4 51.85 -22.45 3.85" fill="#6b5a50" fill-rule="evenodd" stroke="none"/>
    <path d="M111.4 51.85 L110.6 54.0 51.65 33.0 -23.35 6.3 -22.45 3.85 111.4 51.85" fill="#000000" fill-rule="evenodd" stroke="none"/>
    <path d="M-22.45 3.85 L-21.65 1.6 52.85 28.05 52.55 29.3 52.85 28.05 112.0 49.15 112.35 49.1 111.4 51.85 110.6 54.0 51.65 33.0 -23.35 6.3 -22.45 3.85 Z" fill="none" stroke="#000000" stroke-linecap="round" stroke-linejoin="round" stroke-opacity="0.4" stroke-width="0.05"/>
  </g>
</svg>
