<?xml version="1.0" encoding="UTF-8" standalone="no"?>
<svg xmlns:xlink="http://www.w3.org/1999/xlink" height="17.2px" width="11.25px" xmlns="http://www.w3.org/2000/svg">
  <g transform="matrix(1.0, 0.0, 0.0, 1.0, 5.65, 8.6)">
    <path d="M-5.05 -1.15 Q-4.0 -4.7 -1.4 -7.3 0.45 -9.15 3.05 -8.35 6.2 -7.5 5.45 -4.35 4.6 -1.75 2.55 -0.05 L-1.95 3.65 Q-4.15 5.4 -5.25 8.05 L-5.5 8.6 -5.65 3.7 Q-5.7 1.2 -5.05 -1.15" fill="#d6baba" fill-rule="evenodd" stroke="none"/>
    <path d="M-5.05 -1.15 Q-4.0 -4.7 -1.4 -7.3 0.45 -9.15 3.05 -8.35 6.2 -7.5 5.45 -4.35 4.6 -1.75 2.55 -0.05 L-1.95 3.65 Q-4.15 5.4 -5.25 8.05 L-5.5 8.6 -5.65 3.7 Q-5.7 1.2 -5.05 -1.15 Z" fill="none" stroke="#000000" stroke-linecap="round" stroke-linejoin="round" stroke-opacity="0.3019608" stroke-width="0.05"/>
  </g>
</svg>
