<?xml version="1.0" encoding="UTF-8" standalone="no"?>
<svg xmlns:xlink="http://www.w3.org/1999/xlink" height="70.75px" width="151.7px" xmlns="http://www.w3.org/2000/svg">
  <g transform="matrix(1.0, 0.0, 0.0, 1.0, 24.6, -1.2)">
    <path d="M126.2 39.8 L122.7 43.4 120.5 39.65 97.9 34.65 93.85 39.5 112.65 53.0 86.1 45.35 86.1 45.3 96.55 46.35 87.15 42.8 89.55 38.85 91.2 36.4 92.25 34.95 96.15 31.55 126.2 39.8 M90.05 50.6 L90.2 56.85 110.9 67.2 114.95 65.65 115.35 70.6 85.25 57.05 85.25 50.6 90.05 50.6 M-23.35 6.3 L-24.6 5.9 -22.9 1.2 -21.65 1.6 -22.35 3.6 -23.35 6.3" fill="#e0e8eb" fill-rule="evenodd" stroke="none"/>
    <path d="M112.65 53.0 L90.1 50.45 90.05 50.45 90.05 50.6 85.25 50.6 85.25 57.05 115.35 70.6 115.45 71.95 81.7 60.0 82.2 45.45 81.8 43.75 82.7 41.35 83.5 39.0 93.35 26.8 127.1 38.8 126.2 39.8 96.15 31.55 92.25 34.95 91.2 36.4 89.55 38.85 87.15 42.8 96.55 46.35 86.1 45.3 86.1 45.35 112.65 53.0" fill="#b8c9cf" fill-rule="evenodd" stroke="none"/>
    <path d="M-21.65 1.6 L37.55 22.6 83.5 39.0 82.7 41.35 -22.35 3.6 -21.65 1.6" fill="#ffcc00" fill-rule="evenodd" stroke="none"/>
    <path d="M81.8 43.75 L36.35 27.55 -23.35 6.3 -22.35 3.6 82.7 41.35 81.8 43.75" fill="#de9f10" fill-rule="evenodd" stroke="none"/>
    <path d="M126.2 39.8 L122.7 43.4 120.5 39.65 97.9 34.65 93.85 39.5 112.65 53.0 90.1 50.45 90.05 50.45 90.05 50.6 90.2 56.85 110.9 67.2 114.95 65.65 115.35 70.6 115.45 71.95 81.7 60.0 82.2 45.45 81.8 43.75 36.35 27.55 -23.35 6.3 M-21.65 1.6 L37.55 22.6 83.5 39.0 93.35 26.8 127.1 38.8 126.2 39.8 M81.8 43.75 L82.7 41.35 83.5 39.0 M-22.35 3.6 L-23.35 6.3 M-21.65 1.6 L-22.35 3.6" fill="none" stroke="#000000" stroke-linecap="round" stroke-linejoin="round" stroke-opacity="0.4" stroke-width="0.05"/>
  </g>
</svg>
