<?xml version="1.0" encoding="UTF-8" standalone="no"?>
<svg xmlns:xlink="http://www.w3.org/1999/xlink" height="32.8px" width="40.25px" xmlns="http://www.w3.org/2000/svg">
  <g transform="matrix(1.0, 0.0, 0.0, 1.0, 6.05, -1.1)">
    <path d="M32.1 31.3 L32.0 31.35 28.5 32.8 Q25.25 33.9 21.1 33.9 L17.0 33.8 Q14.7 32.95 13.25 31.0 11.2 28.2 8.8 26.8 6.4 25.35 0.25 24.2 -5.95 23.0 -6.05 20.0 -6.15 17.0 -5.6 14.75 L-4.75 11.55 -4.2 8.45 -3.9 6.85 -3.9 5.35 -2.2 3.2 Q0.5 0.7 4.65 1.15 L4.3 8.5 Q4.3 13.6 7.1 18.5 9.2 22.1 12.3 24.95 L14.9 27.15 Q17.1 28.95 18.8 29.6 L21.8 30.5 Q23.95 31.4 32.1 31.3" fill="#d6baba" fill-rule="evenodd" stroke="none"/>
    <path d="M11.85 4.0 Q16.8 12.65 21.0 16.35 L27.5 21.9 Q29.55 23.6 31.1 23.2 32.65 22.75 33.45 24.4 34.2 26.0 34.2 28.1 L34.15 28.95 Q33.5 30.4 32.1 31.3 23.95 31.4 21.8 30.5 L18.8 29.6 Q17.1 28.95 14.9 27.15 L12.3 24.95 Q9.2 22.1 7.1 18.5 4.3 13.6 4.3 8.5 L4.65 1.15 4.8 1.15 Q5.95 0.8 9.0 2.1 10.75 2.85 11.35 3.25 11.9 3.6 11.9 3.75 L11.85 4.0 11.35 3.25 11.85 4.0" fill="#ffffff" fill-rule="evenodd" stroke="none"/>
    <path d="M11.85 4.0 Q16.8 12.65 21.0 16.35 L27.5 21.9 Q29.55 23.6 31.1 23.2 32.65 22.75 33.45 24.4 34.2 26.0 34.2 28.1 L34.15 28.95 Q33.5 30.4 32.1 31.3 L32.0 31.35 28.5 32.8 Q25.25 33.9 21.1 33.9 L17.0 33.8 Q14.7 32.95 13.25 31.0 11.2 28.2 8.8 26.8 6.4 25.35 0.25 24.2 -5.95 23.0 -6.05 20.0 -6.15 17.0 -5.6 14.75 L-4.75 11.55 -4.2 8.45 -3.9 6.85 -3.9 5.35 M11.85 4.0 L11.35 3.25" fill="none" stroke="#000000" stroke-linecap="round" stroke-linejoin="round" stroke-opacity="0.3019608" stroke-width="0.05"/>
  </g>
</svg>
