<?xml version="1.0" encoding="UTF-8" standalone="no"?>
<svg xmlns:xlink="http://www.w3.org/1999/xlink" height="51.55px" width="69.95px" xmlns="http://www.w3.org/2000/svg">
  <g transform="matrix(1.0, 0.0, 0.0, 1.0, 17.1, -2.3)">
    <path d="M42.65 23.1 Q43.85 21.85 43.85 20.95 43.85 16.65 41.2 20.1 38.75 23.35 36.15 30.2 35.1 32.5 33.3 38.1 31.6 43.2 31.6 43.6 L31.7 44.15 31.65 44.25 31.95 44.35 Q33.45 44.35 35.05 40.05 36.5 35.25 36.9 34.25 37.25 33.3 39.5 28.65 L41.45 24.2 42.65 23.1 M38.2 16.75 L38.4 15.6 Q41.95 15.5 45.0 16.9 46.0 17.4 47.0 17.95 L47.2 18.4 Q40.45 29.85 48.65 40.2 L50.05 41.75 52.0 43.4 52.85 44.0 50.35 47.45 47.85 45.05 47.0 44.1 45.7 45.3 43.65 46.7 40.45 47.55 36.15 48.25 33.0 48.65 Q31.0 48.65 27.0 46.7 23.2 44.85 21.75 43.4 L19.65 40.85 17.65 38.3 17.65 38.25 20.8 38.45 Q26.1 38.45 31.0 34.15 34.45 31.15 35.7 28.4 37.75 20.1 38.2 16.75" fill="#e0e8eb" fill-rule="evenodd" stroke="none"/>
    <path d="M42.65 23.1 L41.45 24.2 39.5 28.65 Q37.25 33.3 36.9 34.25 36.5 35.25 35.05 40.05 33.45 44.35 31.95 44.35 L31.65 44.25 31.7 44.15 31.6 43.6 Q31.6 43.2 33.3 38.1 35.1 32.5 36.15 30.2 38.75 23.35 41.2 20.1 43.85 16.65 43.85 20.95 43.85 21.85 42.65 23.1 M50.35 47.45 Q43.05 55.7 30.5 53.3 12.15 50.05 8.8 32.3 L9.1 31.95 Q21.4 36.05 30.75 28.55 32.95 26.8 34.55 24.7 37.2 21.15 38.2 16.75 37.75 20.1 35.7 28.4 34.45 31.15 31.0 34.15 26.1 38.45 20.8 38.45 L17.65 38.25 17.65 38.3 19.65 40.85 21.75 43.4 Q23.2 44.85 27.0 46.7 31.0 48.65 33.0 48.65 L36.15 48.25 40.45 47.55 43.65 46.7 45.7 45.3 47.0 44.1 47.85 45.05 50.35 47.45" fill="#b8c9cf" fill-rule="evenodd" stroke="none"/>
    <path d="M38.2 16.75 L38.4 15.6 Q41.95 15.5 45.0 16.9 46.0 17.4 47.0 17.95 L47.2 18.4 Q40.45 29.85 48.65 40.2 L50.05 41.75 52.0 43.4 52.85 44.0 50.35 47.45 Q43.05 55.7 30.5 53.3 12.15 50.05 8.8 32.3 L9.1 31.95 Q21.4 36.05 30.75 28.55 32.95 26.8 34.55 24.7 37.2 21.15 38.2 16.75 Z" fill="none" stroke="#000000" stroke-linecap="round" stroke-linejoin="round" stroke-opacity="0.4" stroke-width="0.05"/>
    <path d="M-15.75 4.8 L-14.9 2.3 48.95 25.1 48.0 27.75 -15.75 4.8" fill="#6b5a50" fill-rule="evenodd" stroke="none"/>
    <path d="M48.0 27.75 L46.75 31.25 -17.1 8.45 -15.75 4.8 48.0 27.75" fill="#000000" fill-rule="evenodd" stroke="none"/>
    <path d="M-15.75 4.8 L-14.9 2.3 48.95 25.1 48.0 27.75 46.75 31.25 -17.1 8.45 -15.75 4.8 Z" fill="none" stroke="#000000" stroke-linecap="round" stroke-linejoin="round" stroke-opacity="0.4" stroke-width="0.05"/>
  </g>
</svg>
