<?xml version="1.0" encoding="UTF-8" standalone="no"?>
<svg xmlns:xlink="http://www.w3.org/1999/xlink" height="25.9px" width="22.25px" xmlns="http://www.w3.org/2000/svg">
  <g transform="matrix(1.0, 0.0, 0.0, 1.0, 0.0, 0.0)">
    <path d="M19.95 0.75 Q19.0 2.65 14.15 6.9 9.25 11.1 7.05 16.5 4.85 21.9 4.7 25.75 L3.9 25.6 Q2.75 25.35 2.0 24.9 0.15 23.8 0.0 21.35 3.25 15.3 7.1 9.65 8.55 7.55 10.6 5.85 14.85 2.6 19.95 0.75" fill="#ffffff" fill-rule="evenodd" stroke="none"/>
    <path d="M4.7 25.75 Q4.85 21.9 7.05 16.5 9.25 11.1 14.15 6.9 19.0 2.65 19.95 0.75 L22.25 0.0 19.7 4.0 Q16.95 8.1 15.4 12.65 14.0 16.6 13.25 20.9 13.05 21.85 12.5 22.6 9.5 26.6 4.7 25.75" fill="#d6baba" fill-rule="evenodd" stroke="none"/>
    <path d="M19.95 0.75 Q14.85 2.6 10.6 5.85 8.55 7.55 7.1 9.65 3.25 15.3 0.0 21.35 0.15 23.8 2.0 24.9 2.75 25.35 3.9 25.6 L4.7 25.75 Q9.5 26.6 12.5 22.6 13.05 21.85 13.25 20.9 14.0 16.6 15.4 12.65 16.95 8.1 19.7 4.0 L22.25 0.0 19.95 0.75 Z" fill="none" stroke="#000000" stroke-linecap="round" stroke-linejoin="round" stroke-opacity="0.3019608" stroke-width="0.05"/>
  </g>
</svg>
