<?xml version="1.0" encoding="UTF-8" standalone="no"?>
<svg xmlns:xlink="http://www.w3.org/1999/xlink" height="26.75px" width="15.75px" xmlns="http://www.w3.org/2000/svg">
  <g transform="matrix(1.0, 0.0, 0.0, 1.0, -0.35, 1.1)">
    <path d="M6.75 25.65 Q4.65 25.6 3.9 24.95 L1.55 22.65 Q0.0 21.0 0.45 16.6 L0.95 10.05 1.3 8.2 1.4 7.75 2.0 5.6 Q2.4 4.6 3.05 4.0 L3.2 3.8 Q4.2 2.7 5.6 2.2 9.55 0.75 11.05 0.8 L11.75 0.8 11.8 0.85 12.2 1.45 Q10.9 2.05 9.6 2.9 6.95 4.55 6.95 7.75 6.15 17.15 6.75 25.65" fill="#ffffff" fill-rule="evenodd" stroke="none"/>
    <path d="M11.75 0.8 L12.8 0.65 13.8 0.3 15.5 -0.5 16.1 -1.1 15.8 1.5 15.75 1.8 Q14.8 10.15 14.65 16.15 14.6 18.95 14.15 21.7 13.45 23.1 12.55 24.15 L11.7 25.0 11.05 25.25 8.0 25.65 6.75 25.65 Q6.15 17.15 6.95 7.75 6.95 4.55 9.6 2.9 10.9 2.05 12.2 1.45 L11.8 0.85 11.75 0.8" fill="#d6baba" fill-rule="evenodd" stroke="none"/>
    <path d="M11.75 0.8 L12.8 0.65 13.8 0.3 15.5 -0.5 16.1 -1.1 15.8 1.5 15.75 1.8 Q14.8 10.15 14.65 16.15 14.6 18.95 14.15 21.7 13.45 23.1 12.55 24.15 L11.7 25.0 M1.55 22.65 Q0.0 21.0 0.45 16.6 L0.95 10.05 1.3 8.2 1.4 7.75 2.0 5.6 Q2.4 4.6 3.05 4.0 L3.2 3.8 Q4.2 2.7 5.6 2.2 9.55 0.75 11.05 0.8 L11.75 0.8 Z" fill="none" stroke="#000000" stroke-linecap="round" stroke-linejoin="round" stroke-opacity="0.3019608" stroke-width="0.05"/>
  </g>
</svg>
