<?xml version="1.0" encoding="UTF-8" standalone="no"?>
<svg xmlns:xlink="http://www.w3.org/1999/xlink" height="46.4px" width="101.15px" xmlns="http://www.w3.org/2000/svg">
  <g transform="matrix(1.0, 0.0, 0.0, 1.0, 17.1, -2.3)">
    <path d="M79.1 41.55 L78.5 41.6 74.75 42.35 73.85 42.55 72.95 42.75 72.85 42.75 71.45 42.65 68.4 42.95 65.1 43.45 Q61.35 43.45 55.65 40.6 L47.0 35.9 41.6 32.9 36.35 29.75 24.2 22.25 18.95 19.25 16.1 17.65 14.95 17.0 16.2 13.4 61.45 36.95 72.9 34.75 74.35 41.3 79.1 41.55" fill="#e0e8eb" fill-rule="evenodd" stroke="none"/>
    <path d="M14.95 17.0 L16.1 17.65 18.95 19.25 24.2 22.25 36.35 29.75 41.6 32.9 47.0 35.9 55.65 40.6 Q61.35 43.45 65.1 43.45 L68.4 42.95 71.45 42.65 72.85 42.75 72.95 42.75 73.85 42.55 74.75 42.35 78.5 41.6 79.1 41.55 84.05 41.75 74.95 47.7 60.75 48.7 52.85 45.85 14.0 19.55 14.95 17.0" fill="#b8c9cf" fill-rule="evenodd" stroke="none"/>
    <path d="M14.95 17.0 L14.0 19.55 -17.1 8.45 -15.8 4.95 Q14.0 16.4 14.95 17.0" fill="#000000" fill-rule="evenodd" stroke="none"/>
    <path d="M16.2 13.4 L14.95 17.0 Q14.0 16.4 -15.8 4.95 L-14.85 2.3 16.2 13.4" fill="#6b5a50" fill-rule="evenodd" stroke="none"/>
    <path d="M14.95 17.0 L14.0 19.55 52.85 45.85 60.75 48.7 74.95 47.7 84.05 41.75 79.1 41.55 74.35 41.3 72.9 34.75 61.45 36.95 16.2 13.4 14.95 17.0 M-15.8 4.95 L-17.1 8.45 14.0 19.55 M-15.8 4.95 L-14.85 2.3 16.2 13.4" fill="none" stroke="#000000" stroke-linecap="round" stroke-linejoin="round" stroke-opacity="0.4" stroke-width="0.05"/>
  </g>
</svg>
