<?xml version="1.0" encoding="UTF-8" standalone="no"?>
<svg xmlns:xlink="http://www.w3.org/1999/xlink" height="20.9px" width="1.05px" xmlns="http://www.w3.org/2000/svg">
  <g transform="matrix(1.0, 0.0, 0.0, 1.0, 3.9, 11.9)">
    <path d="M-3.25 -11.8 L-3.35 -11.75 -3.15 -10.5 -3.25 -9.15 -3.0 -6.05 -2.85 -5.45 -3.05 -2.1 -2.9 -0.05 -3.2 4.4 -3.35 5.45 -3.4 5.75 -3.55 6.55 -3.65 7.0 -3.6 7.65 -3.5 8.05 -3.5 9.0 -3.55 9.0 -3.65 7.65 -3.75 7.2 -3.85 6.6 -3.75 6.35 -3.9 5.85 -3.7 3.8 -3.8 2.1 -3.7 -0.05 -3.85 -1.35 -3.45 -7.7 -3.55 -8.2 -3.5 -8.95 -3.3 -10.75 -3.4 -11.25 -3.3 -11.5 -3.4 -11.7 -3.35 -11.9 -3.3 -11.9 -3.25 -11.8" fill="#ffffff" fill-rule="evenodd" stroke="none"/>
  </g>
</svg>
