<?xml version="1.0" encoding="UTF-8" standalone="no"?>
<svg xmlns:xlink="http://www.w3.org/1999/xlink" height="32.05px" width="15.4px" xmlns="http://www.w3.org/2000/svg">
  <g transform="matrix(1.0, 0.0, 0.0, 1.0, 7.7, 16.0)">
    <path d="M2.45 -7.2 L2.95 -6.95 4.15 -6.35 7.7 -4.75 Q7.55 4.1 6.65 9.4 5.75 14.35 1.8 15.6 L1.35 15.75 0.9 15.85 0.15 16.0 0.15 15.95 0.3 14.6 0.05 13.1 -0.25 11.5 -0.55 9.45 -0.4 6.8 0.0 4.2 0.35 0.8 Q0.35 -2.3 -0.65 -4.2 L-2.6 -7.1 Q-2.95 -8.0 -3.7 -8.7 L-1.6 -7.4 0.35 -6.7 Q1.05 -6.6 2.45 -7.2 M0.9 15.85 L0.15 15.95 0.9 15.85" fill="#d6baba" fill-rule="evenodd" stroke="none"/>
    <path d="M0.15 15.95 Q-3.4 16.5 -5.6 14.5 -8.15 12.15 -7.6 5.3 -7.1 -1.55 -6.9 -7.1 L-6.4 -16.0 Q-3.4 -10.5 2.45 -7.2 1.05 -6.6 0.35 -6.7 L-1.6 -7.4 -3.7 -8.7 Q-2.95 -8.0 -2.6 -7.1 L-0.65 -4.2 Q0.35 -2.3 0.35 0.8 L0.0 4.2 -0.4 6.8 -0.55 9.45 -0.25 11.5 0.05 13.1 0.3 14.6 0.15 15.95" fill="#ffffff" fill-rule="evenodd" stroke="none"/>
    <path d="M2.45 -7.2 L2.95 -6.95 4.15 -6.35 7.7 -4.75 Q7.55 4.1 6.65 9.4 5.75 14.35 1.8 15.6 L1.35 15.75 0.9 15.85 M0.15 15.95 Q-3.4 16.5 -5.6 14.5 -8.15 12.15 -7.6 5.3 -7.1 -1.55 -6.9 -7.1 L-6.4 -16.0 Q-3.4 -10.5 2.45 -7.2 M0.15 15.95 L0.9 15.85" fill="none" stroke="#000000" stroke-linecap="round" stroke-linejoin="round" stroke-opacity="0.3019608" stroke-width="0.05"/>
  </g>
</svg>
