<?xml version="1.0" encoding="UTF-8" standalone="no"?>
<svg xmlns:xlink="http://www.w3.org/1999/xlink" height="55.4px" width="86.0px" xmlns="http://www.w3.org/2000/svg">
  <g transform="matrix(1.0, 0.0, 0.0, 1.0, 17.45, -0.65)">
    <path d="M62.4 27.85 L66.15 29.2 64.95 32.65 61.15 31.35 62.4 27.85 M-15.8 4.95 L-14.3 0.65 38.1 19.25 36.75 22.95 -15.8 4.95" fill="#725327" fill-rule="evenodd" stroke="none"/>
    <path d="M64.95 32.65 L63.0 38.05 59.25 36.7 61.15 31.35 64.95 32.65 M34.95 28.1 L-17.45 9.5 -15.8 4.95 36.75 22.95 34.95 28.1" fill="#000000" fill-rule="evenodd" stroke="none"/>
    <path d="M40.85 11.55 L44.25 1.85 68.55 10.5 65.45 19.15 Q61.95 18.85 53.9 16.05 L40.85 11.55" fill="#e0e8eb" fill-rule="evenodd" stroke="none"/>
    <path d="M40.85 11.55 L53.9 16.05 Q61.95 18.85 65.45 19.15 L62.4 27.85 61.15 31.35 59.25 36.7 52.35 56.05 28.05 47.4 34.95 28.1 36.75 22.95 38.1 19.25 40.85 11.55" fill="#b8c9cf" fill-rule="evenodd" stroke="none"/>
    <path d="M65.45 19.15 L68.55 10.5 44.25 1.85 40.85 11.55 M65.45 19.15 L62.4 27.85 66.15 29.2 64.95 32.65 M59.25 36.7 L52.35 56.05 28.05 47.4 34.95 28.1 -17.45 9.5 -15.8 4.95 -14.3 0.65 38.1 19.25 40.85 11.55 M62.4 27.85 L61.15 31.35 64.95 32.65 M61.15 31.35 L59.25 36.7 M38.1 19.25 L36.75 22.95 34.95 28.1" fill="none" stroke="#000000" stroke-linecap="round" stroke-linejoin="round" stroke-opacity="0.4" stroke-width="0.05"/>
  </g>
</svg>
