<?xml version="1.0" encoding="UTF-8" standalone="no"?>
<svg xmlns:xlink="http://www.w3.org/1999/xlink" height="53.95px" width="119.95px" xmlns="http://www.w3.org/2000/svg">
  <g transform="matrix(1.0, 0.0, 0.0, 1.0, 17.9, 1.55)">
    <path d="M18.85 9.0 L89.65 34.2 102.05 46.75 101.6 47.05 16.3 16.25 18.85 9.0" fill="#e0e8eb" fill-rule="evenodd" stroke="none"/>
    <path d="M-15.6 4.45 L-13.5 -1.55 11.9 7.2 13.3 3.2 20.05 5.6 18.85 9.0 16.3 16.25 -15.6 4.45" fill="#725327" fill-rule="evenodd" stroke="none"/>
    <path d="M101.6 47.05 L93.8 52.4 13.6 23.9 16.3 16.25 101.6 47.05" fill="#b8c9cf" fill-rule="evenodd" stroke="none"/>
    <path d="M13.6 23.9 L12.6 26.75 6.05 24.45 7.35 20.7 -17.9 10.95 -15.6 4.45 16.3 16.25 13.6 23.9" fill="#000000" fill-rule="evenodd" stroke="none"/>
    <path d="M18.85 9.0 L89.65 34.2 102.05 46.75 101.6 47.05 93.8 52.4 13.6 23.9 12.6 26.75 6.05 24.45 7.35 20.7 -17.9 10.95 -15.6 4.45 -13.5 -1.55 11.9 7.2 13.3 3.2 20.05 5.6 18.85 9.0 16.3 16.25 -15.6 4.45 M13.6 23.9 L16.3 16.25" fill="none" stroke="#000000" stroke-linecap="round" stroke-linejoin="round" stroke-opacity="0.4" stroke-width="0.05"/>
  </g>
</svg>
