<?xml version="1.0" encoding="UTF-8" standalone="no"?>
<svg xmlns:xlink="http://www.w3.org/1999/xlink" height="32.3px" width="18.4px" xmlns="http://www.w3.org/2000/svg">
  <g transform="matrix(1.0, 0.0, 0.0, 1.0, 9.0, 24.35)">
    <path d="M0.3 -24.35 L0.7 -24.35 1.05 -24.25 1.7 -24.1 3.25 -23.95 4.9 -23.25 5.95 -22.55 7.1 -21.5 8.05 -20.3 8.1 -20.15 8.3 -19.9 8.35 -19.85 8.6 -18.45 8.75 -16.9 8.75 -15.65 8.65 -11.7 8.9 1.5 9.4 5.05 9.35 5.35 Q8.35 5.6 7.2 6.35 6.35 6.9 5.35 7.15 2.25 8.15 -0.7 7.9 -0.05 6.35 0.35 4.5 L0.25 3.15 Q0.0 2.25 -0.4 1.4 L-0.55 0.6 -0.85 -1.8 -0.25 -3.7 0.35 -5.85 0.5 -6.7 Q0.4 -8.2 0.15 -8.2 L-5.95 -11.8 -4.2 -11.5 -4.15 -11.45 -4.15 -11.5 -1.8 -11.65 -1.7 -11.6 -1.65 -11.7 -1.4 -11.75 -0.75 -11.85 0.35 -12.45 0.45 -12.95 0.55 -13.5 0.8 -14.6 0.85 -15.6 0.85 -16.9 1.05 -18.05 1.45 -19.9 Q1.6 -20.7 1.35 -21.4 L0.95 -22.8 0.3 -24.35 M0.95 -9.7 L0.45 -9.9 -0.3 -10.5 -1.7 -11.6 -0.3 -10.5 0.45 -9.9 0.95 -9.7 M-8.6 1.8 L-8.55 1.1 -8.6 1.8 M0.45 -9.9 L-4.15 -11.45 0.45 -9.9" fill="#d6baba" fill-rule="evenodd" stroke="none"/>
    <path d="M0.3 -24.35 L0.95 -22.8 1.35 -21.4 Q1.6 -20.7 1.45 -19.9 L1.05 -18.05 0.85 -16.9 0.85 -15.6 0.8 -14.6 0.55 -13.5 0.45 -12.95 0.35 -12.45 -0.75 -11.85 -1.4 -11.75 -1.65 -11.7 -1.7 -11.6 -1.8 -11.65 -3.1 -12.6 Q-5.45 -14.25 -6.7 -14.6 L-7.0 -14.7 -7.8 -14.35 -7.9 -15.05 -7.65 -18.2 -7.6 -18.25 -7.3 -19.4 -7.15 -19.95 -7.15 -20.0 -5.75 -22.0 Q-4.3 -23.7 -1.65 -24.15 L0.3 -24.35 M-0.7 7.9 Q-3.5 7.6 -6.2 6.2 L-9.0 4.65 -8.6 1.8 -8.55 1.1 -8.05 -8.0 -8.25 -10.4 Q-8.3 -12.2 -7.45 -12.65 L-8.1 -13.15 Q-8.65 -13.6 -8.55 -13.95 L-8.0 -14.25 -7.85 -14.35 -7.8 -14.35 -7.0 -14.7 -6.7 -14.6 Q-5.45 -14.25 -3.1 -12.6 L-1.8 -11.65 -4.15 -11.5 -4.15 -11.45 -4.2 -11.5 -5.95 -11.8 0.15 -8.2 Q0.4 -8.2 0.5 -6.7 L0.35 -5.85 -0.25 -3.7 -0.85 -1.8 -0.55 0.6 -0.4 1.4 Q0.0 2.25 0.25 3.15 L0.35 4.5 Q-0.05 6.35 -0.7 7.9 M-7.45 -12.65 L-7.4 -12.6 -4.2 -11.5 -7.4 -12.6 -7.45 -12.65" fill="#ffffff" fill-rule="evenodd" stroke="none"/>
    <path d="M-1.7 -11.6 L-0.3 -10.5 0.45 -9.9 0.95 -9.7 M8.05 -20.3 L8.3 -19.9 8.35 -19.85 8.6 -18.45 8.75 -16.9 8.75 -15.65 8.65 -11.7 8.9 1.5 9.4 5.05 9.35 5.35 Q8.35 5.6 7.2 6.35 6.35 6.9 5.35 7.15 2.25 8.15 -0.7 7.9 -3.5 7.6 -6.2 6.2 L-9.0 4.65 -8.6 1.8 -8.55 1.1 -8.05 -8.0 -8.25 -10.4 Q-8.3 -12.2 -7.45 -12.65 L-8.1 -13.15 Q-8.65 -13.6 -8.55 -13.95 L-8.0 -14.25 -7.85 -14.35 -7.8 -14.35 -7.9 -15.05 -7.65 -18.2 -7.6 -18.25 -7.3 -19.4 M-7.15 -19.95 L-7.15 -20.0 M-4.2 -11.5 L-7.4 -12.6 -7.45 -12.65 M-1.8 -11.65 L-3.1 -12.6 Q-5.45 -14.25 -6.7 -14.6 L-7.0 -14.7 -7.8 -14.35 M-4.2 -11.5 L-4.15 -11.45 0.45 -9.9 M-1.8 -11.65 L-1.7 -11.6 M-8.55 1.1 L-8.6 1.8" fill="none" stroke="#000000" stroke-linecap="round" stroke-linejoin="round" stroke-opacity="0.3019608" stroke-width="0.05"/>
  </g>
</svg>
