<?xml version="1.0" encoding="UTF-8" standalone="no"?>
<svg xmlns:xlink="http://www.w3.org/1999/xlink" height="52.4px" width="58.75px" xmlns="http://www.w3.org/2000/svg">
  <g transform="matrix(1.0, 0.0, 0.0, 1.0, 0.3, -9.35)">
    <path d="M4.75 11.45 Q16.75 13.55 28.65 16.35 L50.15 21.4 54.65 22.35 Q53.55 26.8 51.8 30.95 L31.4 22.15 Q25.1 19.45 18.55 17.1 L15.5 16.0 4.75 11.45 M48.95 36.6 Q47.25 39.55 45.15 42.3 L44.2 43.55 42.7 42.1 Q36.55 36.15 25.95 28.3 17.15 21.75 10.7 17.25 L3.8 12.05 15.15 18.0 Q22.05 21.5 33.15 27.65 44.25 33.75 48.95 36.6 M35.2 51.4 Q29.7 54.05 26.65 54.9 L25.65 55.2 Q22.7 49.05 16.0 36.45 L3.3 12.7 9.0 18.75 Q19.3 29.95 26.3 39.1 33.3 48.25 35.2 51.4 M15.05 57.1 L3.7 57.6 2.4 14.9 9.4 38.05 15.05 57.1" fill="#ffffcc" fill-rule="evenodd" stroke="none"/>
    <path d="M2.45 11.05 L2.9 11.15 4.75 11.45 15.5 16.0 18.55 17.1 Q25.1 19.45 31.4 22.15 L51.8 30.95 48.95 36.6 Q44.25 33.75 33.15 27.65 22.05 21.5 15.15 18.0 L3.8 12.05 10.7 17.25 Q17.15 21.75 25.95 28.3 36.55 36.15 42.7 42.1 L44.2 43.55 Q39.25 49.5 35.2 51.4 33.3 48.25 26.3 39.1 19.3 29.95 9.0 18.75 L3.3 12.7 16.0 36.45 Q22.7 49.05 25.65 55.2 L15.05 57.1 9.4 38.05 2.4 14.9 2.3 11.05 2.4 11.05 2.45 11.05" fill="#e8d4ad" fill-rule="evenodd" stroke="none"/>
    <path d="M54.65 22.35 L50.15 21.4 28.65 16.35 Q16.75 13.55 4.75 11.45 L2.9 11.15 2.45 11.05 2.4 11.05 2.25 10.55 3.55 9.35 22.2 12.3 Q34.7 14.4 58.45 20.15 58.2 21.6 57.15 22.8 L54.65 22.35 M3.7 57.6 L3.7 61.75 0.6 61.75 Q0.85 50.1 0.25 38.5 -0.45 25.85 -0.25 13.3 L-0.05 10.85 2.15 10.55 2.25 10.55 2.3 11.05 2.4 14.9 3.7 57.6" fill="#725327" fill-rule="evenodd" stroke="none"/>
    <path d="M4.75 11.45 Q16.75 13.55 28.65 16.35 L50.15 21.4 54.65 22.35 57.15 22.8 Q58.2 21.6 58.45 20.15 34.7 14.4 22.2 12.3 L3.55 9.35 2.25 10.55 2.4 11.05 2.45 11.05 2.9 11.15 4.75 11.45 M51.8 30.95 Q53.55 26.8 54.65 22.35 M58.45 20.15 L58.45 19.9 58.45 20.15 M48.95 36.6 Q47.25 39.55 45.15 42.3 L44.2 43.55 Q39.25 49.5 35.2 51.4 29.7 54.05 26.65 54.9 L25.65 55.2 15.05 57.1 3.7 57.6 3.7 61.75 0.6 61.75 Q0.85 50.1 0.25 38.5 -0.45 25.85 -0.25 13.3 L-0.05 10.85 2.15 10.55 2.25 10.55 2.3 11.05 2.4 14.9 3.7 57.6 M48.95 36.6 L51.8 30.95" fill="none" stroke="#000000" stroke-linecap="round" stroke-linejoin="round" stroke-opacity="0.4" stroke-width="0.05"/>
  </g>
</svg>
