<?xml version="1.0" encoding="UTF-8" standalone="no"?>
<svg xmlns:xlink="http://www.w3.org/1999/xlink" height="22.3px" width="25.95px" xmlns="http://www.w3.org/2000/svg">
  <g transform="matrix(1.0, 0.0, 0.0, 1.0, 0.0, 0.0)">
    <path d="M25.6 6.7 L25.55 6.05 25.6 6.7 Q26.1 9.75 25.9 12.9 25.8 15.2 24.65 17.15 22.95 19.9 20.55 20.95 18.1 21.95 15.05 22.2 L7.85 21.9 Q3.65 21.25 0.0 17.7 0.05 13.15 0.8 8.65 1.45 4.4 4.15 1.15 L4.35 0.55 6.8 0.25 8.0 0.0 10.3 0.15 Q13.9 0.15 20.05 3.0 24.8 5.2 25.55 6.05 L25.7 6.35 25.6 6.7" fill="#d6baba" fill-rule="evenodd" stroke="none"/>
    <path d="M25.55 6.05 L25.6 6.7 M4.35 0.55 L4.15 1.15 Q1.45 4.4 0.8 8.65 0.05 13.15 0.0 17.7 3.65 21.25 7.85 21.9 L15.05 22.2 Q18.1 21.95 20.55 20.95 22.95 19.9 24.65 17.15 25.8 15.2 25.9 12.9 26.1 9.75 25.6 6.7" fill="none" stroke="#000000" stroke-linecap="round" stroke-linejoin="round" stroke-opacity="0.3019608" stroke-width="0.05"/>
  </g>
</svg>
