<?xml version="1.0" encoding="UTF-8" standalone="no"?>
<svg xmlns:xlink="http://www.w3.org/1999/xlink" height="31.8px" width="31.8px" xmlns="http://www.w3.org/2000/svg">
  <g transform="matrix(1.0, 0.0, 0.0, 1.0, 10.15, -5.2)">
    <path d="M21.6 13.5 L21.65 13.5 21.65 13.55 21.6 13.5 8.65 19.75 8.6 19.65 Q7.95 18.5 6.6 18.2 5.3 17.9 4.1 18.6 L3.9 18.75 -1.55 5.55 3.0 10.35 3.45 10.8 7.75 15.4 21.6 13.5 M11.55 22.95 L11.4 23.1 13.25 36.7 7.4 24.25 7.55 24.15 Q8.7 23.45 9.0 22.15 L9.1 21.7 9.1 21.6 9.1 21.3 11.55 22.95" fill="#e0e8eb" fill-rule="evenodd" stroke="none"/>
    <path d="M21.6 13.5 L21.65 13.55 11.55 22.95 9.1 21.3 8.65 19.75 21.6 13.5 M13.25 36.7 L13.3 37.0 3.7 26.75 -10.15 28.65 0.05 19.05 -1.85 5.2 -1.55 5.55 3.9 18.75 Q2.9 19.45 2.65 20.55 L2.6 20.65 Q2.3 21.95 3.0 23.1 3.75 24.3 5.05 24.6 6.3 24.9 7.4 24.25 L13.25 36.7" fill="#b8c9cf" fill-rule="evenodd" stroke="none"/>
    <path d="M9.1 21.7 L9.1 21.6" fill="none" stroke="#ff0000" stroke-linecap="round" stroke-linejoin="round" stroke-width="0.05"/>
    <path d="M21.65 13.55 L21.65 13.5 21.6 13.5 M21.65 13.55 L11.55 22.95 11.4 23.1 13.25 36.7 13.3 37.0 3.7 26.75 -10.15 28.65 0.05 19.05 -1.85 5.2 -1.55 5.55 3.0 10.35 M3.45 10.8 L7.75 15.4 21.6 13.5 M8.65 19.75 L9.1 21.3 M3.9 18.75 Q2.9 19.45 2.65 20.55 L2.6 20.65 Q2.3 21.95 3.0 23.1 3.75 24.3 5.05 24.6 6.3 24.9 7.4 24.25 L7.55 24.15 Q8.7 23.45 9.0 22.15 L9.1 21.7 M9.1 21.6 L9.1 21.3 M3.9 18.75 L4.1 18.6 Q5.3 17.9 6.6 18.2 7.95 18.5 8.6 19.65 L8.65 19.75" fill="none" stroke="#000000" stroke-linecap="round" stroke-linejoin="round" stroke-opacity="0.4" stroke-width="0.05"/>
  </g>
</svg>
