<?xml version="1.0" encoding="UTF-8" standalone="no"?>
<svg xmlns:xlink="http://www.w3.org/1999/xlink" height="38.4px" width="25.1px" xmlns="http://www.w3.org/2000/svg">
  <g transform="matrix(1.0, 0.0, 0.0, 1.0, 0.0, 0.0)">
    <path d="M11.05 0.1 L16.05 0.55 Q21.45 2.0 22.05 8.45 22.65 14.85 24.35 20.05 26.1 25.25 23.7 29.9 21.3 34.5 17.45 36.3 13.45 38.05 11.05 38.4 9.7 38.1 5.2 36.2 0.7 34.25 0.05 30.5 1.5 32.6 3.7 33.7 5.7 34.7 7.85 34.7 L8.5 34.5 9.65 34.3 Q10.7 34.3 11.0 33.6 L11.2 31.45 10.75 28.1 11.45 23.65 Q12.1 19.55 12.05 14.75 L11.65 9.85 11.05 0.1" fill="#d6baba" fill-rule="evenodd" stroke="none"/>
    <path d="M11.05 0.1 L11.65 9.85 12.05 14.75 Q12.1 19.55 11.45 23.65 L10.75 28.1 11.2 31.45 11.0 33.6 Q10.7 34.3 9.65 34.3 L8.5 34.5 7.85 34.7 Q5.7 34.7 3.7 33.7 1.5 32.6 0.05 30.5 L0.0 28.8 Q0.05 23.6 1.1 21.4 L2.65 18.05 3.85 14.65 Q4.85 11.15 4.85 7.55 4.8 3.9 7.75 1.5 9.15 0.35 11.05 0.1" fill="#ffffff" fill-rule="evenodd" stroke="none"/>
    <path d="M0.05 30.5 Q0.7 34.25 5.2 36.2 9.7 38.1 11.05 38.4 13.45 38.05 17.45 36.3 21.3 34.5 23.7 29.9 26.1 25.25 24.35 20.05 22.65 14.85 22.05 8.45 21.45 2.0 16.05 0.55 L11.05 0.1 M0.05 30.5 L0.0 28.8 Q0.05 23.6 1.1 21.4 L2.65 18.05 3.85 14.65 Q4.85 11.15 4.85 7.55 4.8 3.9 7.75 1.5 9.15 0.35 11.05 0.1" fill="none" stroke="#000000" stroke-linecap="round" stroke-linejoin="round" stroke-opacity="0.3019608" stroke-width="0.05"/>
  </g>
</svg>
