<?xml version="1.0" encoding="UTF-8" standalone="no"?>
<svg xmlns:xlink="http://www.w3.org/1999/xlink" height="21.65px" width="17.4px" xmlns="http://www.w3.org/2000/svg">
  <g transform="matrix(1.0, 0.0, 0.0, 1.0, 0.0, 0.0)">
    <path d="M17.1 3.95 Q17.5 4.4 17.35 5.0 16.65 8.0 13.5 9.45 L14.3 8.6 Q15.0 7.75 15.1 6.75 15.3 4.6 13.35 3.05 13.5 1.15 15.05 0.0 L15.15 0.6 15.15 1.2 17.1 3.95 M10.25 14.95 L13.45 14.75 15.55 18.8 16.35 19.1 16.5 19.2 Q9.85 22.7 6.15 21.25 2.4 19.8 1.1 19.65 L0.9 18.95 1.7 18.1 Q3.05 16.65 3.75 16.65 L4.45 16.5 7.0 16.4 Q10.25 16.4 10.25 15.25 L10.25 14.95" fill="#d6baba" fill-rule="evenodd" stroke="none"/>
    <path d="M1.4 3.65 Q3.0 1.95 3.85 0.0 L5.3 2.2 Q5.35 3.5 4.4 4.4 L2.25 6.3 2.25 6.8 2.35 7.25 Q2.9 8.2 3.9 8.6 L2.3 8.05 Q0.35 7.25 0.0 5.3 L1.4 3.65 M0.75 18.4 L3.55 14.8 8.2 15.05 10.25 14.95 10.25 15.25 Q10.25 16.4 7.0 16.4 L4.45 16.5 3.75 16.65 Q3.05 16.65 1.7 18.1 L0.9 18.95 0.75 18.4" fill="#ffffff" fill-rule="evenodd" stroke="none"/>
    <path d="M17.1 3.95 L15.15 1.2 15.15 0.6 15.05 0.0 Q13.5 1.15 13.35 3.05 15.3 4.6 15.1 6.75 15.0 7.75 14.3 8.6 L13.5 9.45 Q16.65 8.0 17.35 5.0 17.5 4.4 17.1 3.95 M1.4 3.65 L0.0 5.3 Q0.35 7.25 2.3 8.05 L3.9 8.6 Q2.9 8.2 2.35 7.25 L2.25 6.8 2.25 6.3 4.4 4.4 Q5.35 3.5 5.3 2.2 L3.85 0.0 Q3.0 1.95 1.4 3.65 M0.75 18.4 L3.55 14.8 8.2 15.05 10.25 14.95 13.45 14.75 15.55 18.8" fill="none" stroke="#000000" stroke-linecap="round" stroke-linejoin="round" stroke-opacity="0.3019608" stroke-width="0.05"/>
  </g>
</svg>
