<?xml version="1.0" encoding="UTF-8" standalone="no"?>
<svg xmlns:xlink="http://www.w3.org/1999/xlink" height="9.45px" width="19.85px" xmlns="http://www.w3.org/2000/svg">
  <g transform="matrix(1.0, 0.0, 0.0, 1.0, 1.5, -0.3)">
    <path d="M17.95 4.25 Q18.5 4.7 18.3 5.3 17.3 8.3 12.95 9.75 L14.05 8.9 Q15.05 8.05 15.15 7.05 15.45 4.9 12.75 3.35 12.95 1.65 14.65 0.6 L15.1 0.3 15.25 0.9 15.25 1.5 17.95 4.25" fill="#d6baba" fill-rule="evenodd" stroke="none"/>
    <path d="M3.4 8.85 L2.45 8.65 2.3 8.6 1.7 8.4 Q-1.0 7.6 -1.5 5.65 L0.45 4.0 Q2.65 2.3 3.85 0.35 L5.85 2.55 Q5.9 3.85 4.6 4.75 L1.6 6.65 1.6 7.15 1.75 7.6 2.5 8.3 3.3 8.75 3.4 8.8 3.4 8.85" fill="#ffffff" fill-rule="evenodd" stroke="none"/>
    <path d="M17.95 4.25 L15.25 1.5 15.25 0.9 15.1 0.3 14.65 0.6 Q12.95 1.65 12.75 3.35 15.45 4.9 15.15 7.05 15.05 8.05 14.05 8.9 L12.95 9.75 Q17.3 8.3 18.3 5.3 18.5 4.7 17.95 4.25 M3.3 8.75 L2.5 8.3 1.75 7.6 1.6 7.15 1.6 6.65 4.6 4.75 Q5.9 3.85 5.85 2.55 L3.85 0.35 Q2.65 2.3 0.45 4.0 L-1.5 5.65 Q-1.0 7.6 1.7 8.4 L2.3 8.6 2.45 8.65 3.4 8.85" fill="none" stroke="#000000" stroke-linecap="round" stroke-linejoin="round" stroke-opacity="0.3019608" stroke-width="0.05"/>
  </g>
</svg>
