<?xml version="1.0" encoding="UTF-8" standalone="no"?>
<svg xmlns:xlink="http://www.w3.org/1999/xlink" height="44.35px" width="25.1px" xmlns="http://www.w3.org/2000/svg">
  <g transform="matrix(1.0, 0.0, 0.0, 1.0, 12.55, 22.2)">
    <path d="M-3.6 22.15 Q-9.9 22.1 -10.4 17.95 L-11.55 10.0 -12.2 5.75 -12.55 1.15 -12.45 0.25 -12.45 0.2 Q-11.95 -3.85 -7.0 -7.7 L-1.6 -11.05 1.4 -12.8 4.0 -14.45 Q4.9 -14.15 4.25 -13.0 L3.2 -11.55 -2.1 -7.65 -8.85 -2.7 -9.75 -1.95 -7.15 -3.4 Q-6.2 -3.85 -3.9 -2.55 -0.55 -0.65 -1.85 5.75 -3.45 13.85 -3.6 22.15" fill="#ffffff" fill-rule="evenodd" stroke="none"/>
    <path d="M4.0 -14.45 Q6.4 -16.15 8.9 -18.55 L12.55 -22.2 7.05 -12.65 6.0 -9.7 Q5.3 -7.4 4.6 -1.25 4.0 3.75 3.55 10.9 3.95 22.0 -2.95 22.15 L-3.6 22.15 Q-3.45 13.85 -1.85 5.75 -0.55 -0.65 -3.9 -2.55 -6.2 -3.85 -7.15 -3.4 L-9.75 -1.95 -8.85 -2.7 -2.1 -7.65 3.2 -11.55 4.25 -13.0 Q4.9 -14.15 4.0 -14.45" fill="#d6baba" fill-rule="evenodd" stroke="none"/>
    <path d="M4.0 -14.45 Q6.4 -16.15 8.9 -18.55 L12.55 -22.2 7.05 -12.65 6.0 -9.7 Q5.3 -7.4 4.6 -1.25 4.0 3.75 3.55 10.9 3.95 22.0 -2.95 22.15 L-3.6 22.15 Q-9.9 22.1 -10.4 17.95 L-11.55 10.0 -12.2 5.75 -12.55 1.15 -12.45 0.25 -12.45 0.2 Q-11.95 -3.85 -7.0 -7.7 L-1.6 -11.05 1.4 -12.8 4.0 -14.45 Z" fill="none" stroke="#000000" stroke-linecap="round" stroke-linejoin="round" stroke-opacity="0.3019608" stroke-width="0.05"/>
  </g>
</svg>
