<?xml version="1.0" encoding="UTF-8" standalone="no"?>
<svg xmlns:xlink="http://www.w3.org/1999/xlink" height="21.7px" width="21.45px" xmlns="http://www.w3.org/2000/svg">
  <g transform="matrix(1.0, 0.0, 0.0, 1.0, 10.75, 10.85)">
    <path d="M4.0 -5.55 L3.85 -4.85 Q-5.6 -0.55 -6.85 2.25 -3.3 1.8 -4.2 8.95 L-4.7 8.25 -5.8 7.35 -10.35 4.8 -10.75 4.15 Q-10.5 3.3 -10.4 2.5 -10.15 0.35 -8.3 -1.05 L-5.9 -2.45 -3.1 -3.25 -0.85 -3.95 Q0.75 -4.2 2.25 -4.85 L4.0 -5.55" fill="#ffffff" fill-rule="evenodd" stroke="none"/>
    <path d="M-4.2 8.95 Q-3.3 1.8 -6.85 2.25 -5.6 -0.55 3.85 -4.85 L4.0 -5.55 4.3 -5.7 Q7.05 -6.45 8.75 -8.65 L10.7 -10.85 10.0 -9.45 8.8 -7.2 7.6 -4.7 Q6.35 -2.05 4.0 -0.15 L1.9 1.7 Q-0.1 3.6 -1.3 5.95 -2.5 8.3 -3.2 10.85 L-4.2 8.95" fill="#d6baba" fill-rule="evenodd" stroke="none"/>
    <path d="M-4.2 8.95 L-3.2 10.85 Q-2.5 8.3 -1.3 5.95 -0.1 3.6 1.9 1.7 L4.0 -0.15 Q6.35 -2.05 7.6 -4.7 L8.8 -7.2 10.0 -9.45 10.7 -10.85 8.75 -8.65 Q7.05 -6.45 4.3 -5.7 L4.0 -5.55 2.25 -4.85 Q0.75 -4.2 -0.85 -3.95 L-3.1 -3.25 -5.9 -2.45 -8.3 -1.05 Q-10.15 0.35 -10.4 2.5 -10.5 3.3 -10.75 4.15 L-10.35 4.8 -5.8 7.35 -4.7 8.25 -4.2 8.95 Z" fill="none" stroke="#000000" stroke-linecap="round" stroke-linejoin="round" stroke-opacity="0.3019608" stroke-width="0.05"/>
  </g>
</svg>
