<?xml version="1.0" encoding="UTF-8" standalone="no"?>
<svg xmlns:xlink="http://www.w3.org/1999/xlink" height="31.25px" width="19.3px" xmlns="http://www.w3.org/2000/svg">
  <g transform="matrix(1.0, 0.0, 0.0, 1.0, 9.85, 20.4)">
    <path d="M0.15 -17.25 L0.15 -17.15 -0.05 -17.2 0.15 -17.25" fill="#a78383" fill-rule="evenodd" stroke="none"/>
    <path d="M0.15 -17.25 L0.15 -17.4 0.25 -18.7 0.15 -19.5 Q-0.15 -20.25 -1.0 -20.25 L0.2 -20.4 Q2.9 -20.4 5.35 -19.1 7.75 -17.8 7.75 -16.45 L7.85 -16.1 Q7.95 -10.65 8.45 -5.45 8.9 -0.3 8.75 5.35 L9.45 8.15 3.75 10.55 3.4 10.55 1.95 10.7 1.6 10.7 Q1.75 10.25 2.65 8.7 L3.5 7.3 3.6 6.5 3.4 6.1 3.2 5.7 2.55 4.85 1.35 2.9 1.25 2.7 1.1 2.55 0.65 1.55 0.2 0.5 -0.1 -0.6 -0.35 -3.0 0.0 -5.35 Q0.0 -6.75 0.45 -8.95 L0.9 -11.8 0.75 -11.95 Q0.6 -11.9 0.6 -12.1 0.6 -12.6 -1.35 -14.35 L-1.25 -14.5 -0.8 -14.5 -0.9 -14.65 Q-0.25 -14.65 0.3 -15.25 0.8 -15.85 1.05 -15.85 L1.45 -16.15 1.95 -16.75 0.15 -17.15 0.15 -17.25 1.6 -17.55 3.45 -17.65 1.6 -17.55 0.15 -17.25 M2.7 -14.7 L-0.8 -14.5 2.7 -14.7" fill="#d6baba" fill-rule="evenodd" stroke="none"/>
    <path d="M-1.0 -20.25 Q-0.15 -20.25 0.15 -19.5 L0.25 -18.7 0.15 -17.4 0.15 -17.25 -0.05 -17.2 0.15 -17.15 1.95 -16.75 1.45 -16.15 1.05 -15.85 Q0.8 -15.85 0.3 -15.25 -0.25 -14.65 -0.9 -14.65 L-0.8 -14.5 -1.25 -14.5 -1.35 -14.35 Q0.6 -12.6 0.6 -12.1 0.6 -11.9 0.75 -11.95 L0.9 -11.8 0.45 -8.95 Q0.0 -6.75 0.0 -5.35 L-0.35 -3.0 -0.1 -0.6 0.2 0.5 0.65 1.55 1.1 2.55 1.25 2.7 1.35 2.9 2.55 4.85 3.2 5.7 3.4 6.1 3.6 6.5 3.5 7.3 2.65 8.7 Q1.75 10.25 1.6 10.7 L1.95 10.7 -0.05 10.85 -3.2 10.45 -5.9 9.9 Q-6.85 9.55 -8.7 8.4 L-9.85 7.55 Q-8.6 2.0 -8.75 -3.2 -8.9 -8.4 -8.0 -12.75 L-8.4 -13.55 -8.25 -14.55 -7.7 -16.1 Q-6.95 -17.7 -5.8 -18.3 L-1.9 -20.15 -1.05 -20.25 -1.0 -20.25 M-7.95 -13.15 L-6.6 -14.4 Q-5.1 -15.45 -2.4 -16.45 L-1.2 -16.85 -0.05 -17.2 -1.2 -16.85 -2.4 -16.45 Q-5.1 -15.45 -6.6 -14.4 L-7.95 -13.15 -6.6 -13.9 -6.45 -14.0 -5.85 -14.1 -1.25 -14.5 -5.85 -14.1 -6.45 -14.0 -6.6 -13.9 -7.95 -13.15 -8.0 -12.75 -7.95 -13.15" fill="#ffffff" fill-rule="evenodd" stroke="none"/>
    <path d="M0.15 -17.25 L1.6 -17.55 3.45 -17.65 M-0.8 -14.5 L2.7 -14.7 M7.85 -16.1 Q7.95 -10.65 8.45 -5.45 8.9 -0.3 8.75 5.35 L9.45 8.15 3.75 10.55 3.4 10.55 1.95 10.7 -0.05 10.85 -3.2 10.45 -5.9 9.9 Q-6.85 9.55 -8.7 8.4 L-9.85 7.55 Q-8.6 2.0 -8.75 -3.2 -8.9 -8.4 -8.0 -12.75 M-1.25 -14.5 L-5.85 -14.1 -6.45 -14.0 -6.6 -13.9 -7.95 -13.15 -8.0 -12.75 M-0.05 -17.2 L-1.2 -16.85 -2.4 -16.45 Q-5.1 -15.45 -6.6 -14.4 L-7.95 -13.15 M-1.25 -14.5 L-0.8 -14.5 M0.15 -17.25 L-0.05 -17.2" fill="none" stroke="#000000" stroke-linecap="round" stroke-linejoin="round" stroke-opacity="0.3019608" stroke-width="0.05"/>
  </g>
</svg>
