<?xml version="1.0" encoding="UTF-8" standalone="no"?>
<svg xmlns:xlink="http://www.w3.org/1999/xlink" height="10.65px" width="33.8px" xmlns="http://www.w3.org/2000/svg">
  <g transform="matrix(1.0, 0.0, 0.0, 1.0, -7.95, 10.2)">
    <path d="M27.4 0.3 L26.3 0.4 21.95 0.35 21.9 0.35 17.8 -0.2 Q14.75 -1.25 12.5 -2.7 L12.25 -2.85 Q10.8 -3.85 9.65 -5.0 L7.95 -7.1 8.7 -8.15 8.95 -8.45 10.45 -10.2 Q11.8 -9.0 13.25 -8.1 17.35 -5.4 21.9 -5.05 L26.5 -5.3 27.6 -5.5 30.6 -6.1 30.6 -5.85 Q30.6 -5.2 26.8 -3.95 L27.2 -0.6 27.4 0.3 M13.9 -4.75 L13.7 -3.85 Q13.7 -3.0 14.85 -2.2 16.05 -1.35 17.5 -1.35 18.3 -1.35 18.8 -1.7 L19.25 -2.4 Q19.25 -3.75 16.6 -4.6 L13.9 -4.75" fill="#ffffff" fill-rule="evenodd" stroke="none"/>
    <path d="M30.6 -6.1 Q36.15 -7.2 38.9 -8.35 L40.95 -6.1 41.75 -5.35 40.9 -3.85 Q34.45 -0.3 27.4 0.3 L27.2 -0.6 26.8 -3.95 Q30.6 -5.2 30.6 -5.85 L30.6 -6.1 M13.9 -4.75 L16.6 -4.6 Q19.25 -3.75 19.25 -2.4 L18.8 -1.7 Q18.3 -1.35 17.5 -1.35 16.05 -1.35 14.85 -2.2 13.7 -3.0 13.7 -3.85 L13.9 -4.75" fill="#d6baba" fill-rule="evenodd" stroke="none"/>
    <path d="M27.4 0.3 L26.3 0.4 21.95 0.35 21.9 0.35 17.8 -0.2 Q14.75 -1.25 12.5 -2.7 L12.25 -2.85 Q10.8 -3.85 9.65 -5.0 L7.95 -7.1 8.7 -8.15 8.95 -8.45 10.45 -10.2 Q11.8 -9.0 13.25 -8.1 17.35 -5.4 21.9 -5.05 L26.5 -5.3 27.6 -5.5 30.6 -6.1 Q36.15 -7.2 38.9 -8.35 L40.95 -6.1 41.75 -5.35 40.9 -3.85 Q34.45 -0.3 27.4 0.3 Z" fill="none" stroke="#000000" stroke-linecap="round" stroke-linejoin="round" stroke-opacity="0.3019608" stroke-width="0.05"/>
  </g>
</svg>
