<?xml version="1.0" encoding="UTF-8" standalone="no"?>
<svg xmlns:xlink="http://www.w3.org/1999/xlink" height="31.3px" width="31.85px" xmlns="http://www.w3.org/2000/svg">
  <g transform="matrix(1.0, 0.0, 0.0, 1.0, 0.0, 0.0)">
    <path d="M2.45 0.15 L3.05 0.0 14.7 1.5 15.1 1.6 16.05 1.9 16.85 2.2 16.9 2.25 16.95 2.25 16.85 2.35 Q16.65 5.05 14.85 6.7 11.7 9.5 3.8 9.75 L3.7 9.8 6.65 10.15 9.55 10.3 12.85 10.15 17.15 9.35 17.2 9.4 17.2 9.35 17.45 9.25 18.5 8.25 17.6 9.8 15.4 12.5 12.05 16.25 Q10.45 17.85 7.55 19.85 4.7 21.8 2.6 22.5 L2.3 22.2 2.0 21.9 1.9 21.8 1.8 21.65 1.25 21.05 1.2 20.25 Q1.15 15.9 0.0 11.85 2.35 9.05 1.9 5.6 1.7 3.85 2.05 2.0 L2.25 0.95 2.3 0.65 2.45 0.15" fill="#ffffff" fill-rule="evenodd" stroke="none"/>
    <path d="M16.9 2.25 L17.9 2.6 20.85 3.7 Q22.05 3.7 23.6 4.55 L24.0 4.75 Q26.9 7.9 26.65 12.65 26.45 16.8 29.3 19.6 30.65 20.85 30.6 22.7 30.45 27.2 31.85 31.3 24.95 31.15 19.1 29.75 13.3 28.3 9.0 26.7 5.3 25.3 2.3 22.2 L2.6 22.5 Q4.7 21.8 7.55 19.85 10.45 17.85 12.05 16.25 L15.4 12.5 17.6 9.8 18.5 8.25 17.45 9.25 17.2 9.35 17.2 9.4 17.15 9.35 12.85 10.15 9.55 10.3 6.65 10.15 3.7 9.8 3.8 9.75 Q11.7 9.5 14.85 6.7 16.65 5.05 16.85 2.35 L16.95 2.25 16.9 2.25 M2.3 0.65 L2.1 0.25 2.45 0.15 2.3 0.65" fill="#d6baba" fill-rule="evenodd" stroke="none"/>
    <path d="M23.6 4.55 L24.0 4.75 Q26.9 7.9 26.65 12.65 26.45 16.8 29.3 19.6 30.65 20.85 30.6 22.7 30.45 27.2 31.85 31.3 24.95 31.15 19.1 29.75 13.3 28.3 9.0 26.7 5.3 25.3 2.3 22.2 L2.0 21.9 1.9 21.8 1.8 21.65 1.25 21.05 1.2 20.25 Q1.15 15.9 0.0 11.85 2.35 9.05 1.9 5.6 1.7 3.85 2.05 2.0 L2.25 0.95 2.3 0.65 M2.45 0.15 L2.3 0.65" fill="none" stroke="#000000" stroke-linecap="round" stroke-linejoin="round" stroke-opacity="0.3019608" stroke-width="0.05"/>
  </g>
</svg>
