<?xml version="1.0" encoding="UTF-8" standalone="no"?>
<svg xmlns:xlink="http://www.w3.org/1999/xlink" height="20.7px" width="19.8px" xmlns="http://www.w3.org/2000/svg">
  <g transform="matrix(1.0, 0.0, 0.0, 1.0, 25.5, 16.85)">
    <path d="M-17.25 2.8 L-17.9 -2.0 -18.15 -5.75 -18.25 -7.8 -18.35 -9.2 -18.3 -9.25 Q-18.1 -7.35 -16.9 -3.35 -15.55 1.25 -14.3 2.85 -13.65 2.0 -13.65 1.55 L-13.1 -3.9 Q-13.1 -5.2 -13.9 -8.9 L-15.0 -13.55 -14.55 -13.55 -12.0 -13.3 -11.45 -10.5 Q-10.55 -6.45 -10.4 -2.6 L-8.45 -5.15 -8.25 -7.35 Q-8.25 -8.85 -8.8 -10.8 L-9.3 -13.05 -6.25 -12.8 Q-5.05 -6.65 -6.5 -0.7 L-6.6 -0.3 Q-7.25 0.45 -8.25 0.85 L-8.95 1.05 -10.5 1.0 -10.95 1.95 Q-11.5 3.2 -12.55 3.7 L-15.0 3.65 -16.35 3.25 -17.25 2.8 M-10.5 1.0 L-10.4 -2.6 -10.5 1.0" fill="#d6baba" fill-rule="evenodd" stroke="none"/>
    <path d="M-23.15 -15.85 Q-22.85 -10.25 -22.25 -7.2 -21.65 -4.2 -20.95 -2.8 -21.65 -4.2 -22.25 -7.2 -22.85 -10.25 -23.15 -15.85 -18.7 -13.75 -15.0 -13.55 L-13.9 -8.9 Q-13.1 -5.2 -13.1 -3.9 L-13.65 1.55 Q-13.65 2.0 -14.3 2.85 -15.55 1.25 -16.9 -3.35 -18.1 -7.35 -18.3 -9.25 L-18.35 -9.2 -18.25 -7.8 -18.15 -5.75 -17.9 -2.0 -17.25 2.8 Q-19.4 1.4 -20.95 -2.8 L-22.25 -4.15 Q-24.6 -6.6 -25.5 -16.85 L-23.15 -15.85 M-12.0 -13.3 L-9.35 -13.05 -9.3 -13.05 -8.8 -10.8 Q-8.25 -8.85 -8.25 -7.35 L-8.45 -5.15 -10.4 -2.6 Q-10.55 -6.45 -11.45 -10.5 L-12.0 -13.3" fill="#ffffff" fill-rule="evenodd" stroke="none"/>
    <path d="M-20.95 -2.8 Q-21.65 -4.2 -22.25 -7.2 -22.85 -10.25 -23.15 -15.85 M-25.5 -16.85 Q-24.6 -6.6 -22.25 -4.15 L-20.95 -2.8 Q-19.4 1.4 -17.25 2.8 M-6.25 -12.8 Q-5.05 -6.65 -6.5 -0.7 L-6.6 -0.3 Q-7.25 0.45 -8.25 0.85 L-8.95 1.05 -10.5 1.0 -10.95 1.95 Q-11.5 3.2 -12.55 3.7 L-15.0 3.65 -16.35 3.25 -17.25 2.8 M-10.4 -2.6 L-10.5 1.0 M-12.0 -13.3 L-11.45 -10.5 Q-10.55 -6.45 -10.4 -2.6" fill="none" stroke="#000000" stroke-linecap="round" stroke-linejoin="round" stroke-opacity="0.3019608" stroke-width="0.05"/>
  </g>
</svg>
