<?xml version="1.0" encoding="UTF-8" standalone="no"?>
<svg xmlns:xlink="http://www.w3.org/1999/xlink" height="37.4px" width="40.8px" xmlns="http://www.w3.org/2000/svg">
  <g transform="matrix(1.0, 0.0, 0.0, 1.0, -7.95, 10.2)">
    <path d="M9.4 -5.25 L9.2 -5.5 7.95 -7.1 8.7 -8.15 8.95 -8.45 10.45 -10.2 Q11.8 -9.0 13.25 -8.1 17.35 -5.4 21.9 -5.05 L26.5 -5.3 27.6 -5.5 30.6 -6.1 30.6 -5.85 Q30.6 -5.25 27.2 -4.05 L26.8 -3.95 27.2 -0.6 27.4 0.3 26.3 0.4 21.95 0.35 21.9 0.35 17.8 -0.2 Q15.05 -1.15 12.95 -2.4 L9.4 -5.25 M42.35 27.2 L42.3 27.2 Q36.1 13.1 30.3 1.95 L35.4 1.15 39.15 15.0 42.35 27.2 M10.5 18.1 Q9.65 16.25 9.4 14.35 8.15 5.0 9.3 -4.4 L9.75 -3.75 Q10.7 -2.4 11.15 -2.4 L11.4 -2.3 11.25 -1.85 11.0 5.5 Q10.35 13.65 10.35 16.7 L10.5 18.1 M13.9 -4.75 L13.7 -3.85 Q13.7 -3.0 14.85 -2.2 16.05 -1.35 17.5 -1.35 18.3 -1.35 18.8 -1.7 L19.25 -2.4 Q19.25 -3.75 16.6 -4.6 L13.9 -4.75" fill="#ffffff" fill-rule="evenodd" stroke="none"/>
    <path d="M30.6 -6.1 Q36.15 -7.2 38.9 -8.35 L40.95 -6.1 Q41.95 -6.0 42.55 -4.8 L44.4 -0.9 47.25 4.65 Q48.75 7.85 48.75 8.7 L48.65 8.95 45.85 8.55 44.75 8.4 Q44.0 8.35 44.0 8.65 L43.55 11.55 Q43.1 14.55 43.1 15.95 L42.85 23.9 42.7 25.8 42.55 26.8 42.5 27.15 42.35 27.2 39.15 15.0 35.4 1.15 30.3 1.95 29.35 0.1 27.4 0.3 27.2 -0.6 26.8 -3.95 27.2 -4.05 Q30.6 -5.25 30.6 -5.85 L30.6 -6.1 M12.95 -2.4 Q13.05 0.35 12.75 3.1 11.85 11.45 11.3 19.8 L10.5 18.1 10.35 16.7 Q10.35 13.65 11.0 5.5 L11.25 -1.85 11.4 -2.3 11.15 -2.4 Q10.7 -2.4 9.75 -3.75 L9.3 -4.4 9.4 -5.25 12.95 -2.4 M13.9 -4.75 L16.6 -4.6 Q19.25 -3.75 19.25 -2.4 L18.8 -1.7 Q18.3 -1.35 17.5 -1.35 16.05 -1.35 14.85 -2.2 13.7 -3.0 13.7 -3.85 L13.9 -4.75 M29.35 0.1 Q35.35 -0.8 40.9 -3.85 L41.75 -5.35 40.95 -6.1 41.75 -5.35 40.9 -3.85 Q35.35 -0.8 29.35 0.1" fill="#d6baba" fill-rule="evenodd" stroke="none"/>
    <path d="M9.4 -5.25 L9.2 -5.5 7.95 -7.1 8.7 -8.15 8.95 -8.45 10.45 -10.2 Q11.8 -9.0 13.25 -8.1 17.35 -5.4 21.9 -5.05 L26.5 -5.3 27.6 -5.5 30.6 -6.1 Q36.15 -7.2 38.9 -8.35 L40.95 -6.1 Q41.95 -6.0 42.55 -4.8 L44.4 -0.9 47.25 4.65 Q48.75 7.85 48.75 8.7 L48.65 8.95 45.85 8.55 44.75 8.4 Q44.0 8.35 44.0 8.65 L43.55 11.55 Q43.1 14.55 43.1 15.95 L42.85 23.9 42.7 25.8 42.55 26.8 42.5 27.15 42.35 27.2 42.3 27.2 Q36.1 13.1 30.3 1.95 L29.35 0.1 27.4 0.3 26.3 0.4 21.95 0.35 21.9 0.35 17.8 -0.2 Q15.05 -1.15 12.95 -2.4 13.05 0.35 12.75 3.1 11.85 11.45 11.3 19.8 L10.5 18.1 Q9.65 16.25 9.4 14.35 8.15 5.0 9.3 -4.4 L9.4 -5.25 12.95 -2.4 M40.95 -6.1 L41.75 -5.35 40.9 -3.85 Q35.35 -0.8 29.35 0.1" fill="none" stroke="#000000" stroke-linecap="round" stroke-linejoin="round" stroke-opacity="0.3019608" stroke-width="0.05"/>
  </g>
</svg>
