<?xml version="1.0" encoding="UTF-8" standalone="no"?>
<svg xmlns:xlink="http://www.w3.org/1999/xlink" height="8.45px" width="11.55px" xmlns="http://www.w3.org/2000/svg">
  <g transform="matrix(1.0, 0.0, 0.0, 1.0, 21.6, 20.15)">
    <path d="M-16.4 -17.65 Q-16.45 -17.55 -16.6 -17.55 L-17.4 -17.7 -19.25 -18.05 -20.4 -18.45 Q-20.4 -19.05 -18.55 -19.05 -17.85 -19.05 -17.1 -18.45 L-16.4 -17.75 -16.4 -17.65 M-13.7 -13.15 Q-11.95 -14.45 -11.95 -13.35 -11.95 -12.75 -12.8 -12.75 -13.7 -12.75 -13.7 -13.15" fill="#ffffff" fill-rule="evenodd" stroke="none"/>
    <path d="M-21.05 -15.75 Q-21.6 -16.85 -21.6 -17.8 -21.6 -18.7 -20.85 -19.4 L-19.6 -20.15 -10.95 -17.1 -10.4 -15.6 Q-10.05 -14.65 -10.05 -14.1 L-10.5 -12.65 -10.9 -11.7 -10.95 -11.7 -15.05 -12.25 Q-18.1 -13.3 -20.35 -14.75 L-20.6 -14.9 -21.05 -15.75 M-16.4 -17.65 L-16.4 -17.75 -17.1 -18.45 Q-17.85 -19.05 -18.55 -19.05 -20.4 -19.05 -20.4 -18.45 L-19.25 -18.05 -17.4 -17.7 -16.6 -17.55 Q-16.45 -17.55 -16.4 -17.65 M-17.75 -14.85 L-17.4 -14.65 Q-16.2 -14.0 -14.75 -14.0 L-14.5 -14.0 -14.4 -14.15 -14.05 -15.05 Q-14.05 -15.7 -16.2 -16.3 L-17.6 -16.65 -18.65 -16.85 -18.75 -16.5 Q-18.75 -15.55 -17.75 -14.85 M-13.7 -13.15 Q-13.7 -12.75 -12.8 -12.75 -11.95 -12.75 -11.95 -13.35 -11.95 -14.45 -13.7 -13.15" fill="#bcfefd" fill-rule="evenodd" stroke="none"/>
    <path d="M-17.6 -16.65 L-18.0 -16.1 -17.85 -15.45 -17.75 -14.85 Q-18.75 -15.55 -18.75 -16.5 L-18.65 -16.85 -17.6 -16.65" fill="#81a3c2" fill-rule="evenodd" stroke="none"/>
    <path d="M-21.05 -15.75 Q-21.6 -16.85 -21.6 -17.8 -21.6 -18.7 -20.85 -19.4 L-19.6 -20.15 -10.95 -17.1 -10.4 -15.6 Q-10.05 -14.65 -10.05 -14.1 L-10.5 -12.65 -10.9 -11.7 -10.95 -11.7 -15.05 -12.25 Q-18.1 -13.3 -20.35 -14.75 L-20.6 -14.9 -21.05 -15.75 M-17.75 -14.85 L-17.4 -14.65 Q-16.2 -14.0 -14.75 -14.0 L-14.5 -14.0 -14.4 -14.15 -14.05 -15.05 Q-14.05 -15.7 -16.2 -16.3 L-17.6 -16.65 -18.0 -16.1 -17.85 -15.45 -17.75 -14.85 Q-18.75 -15.55 -18.75 -16.5 L-18.65 -16.85 -17.6 -16.65" fill="none" stroke="#000000" stroke-linecap="round" stroke-linejoin="round" stroke-opacity="0.3019608" stroke-width="0.05"/>
  </g>
</svg>
