<?xml version="1.0" encoding="UTF-8" standalone="no"?>
<svg xmlns:xlink="http://www.w3.org/1999/xlink" height="26.0px" width="24.3px" xmlns="http://www.w3.org/2000/svg">
  <g transform="matrix(1.0, 0.0, 0.0, 1.0, 21.25, 15.9)">
    <path d="M-8.25 -9.4 L-11.45 -10.3 -10.65 -10.8 -9.8 -11.25 -9.7 -11.3 -9.55 -11.4 Q-2.7 -15.3 3.05 -15.9 1.35 -14.5 -1.05 -13.55 -3.45 -12.6 -5.55 -11.15 L-6.8 -10.35 -8.25 -9.4 M-19.5 -1.2 L-17.7 -0.9 -16.95 -0.65 -17.05 -0.2 -17.1 2.9 -16.85 6.25 -16.45 10.1 Q-18.3 7.65 -18.85 4.55 L-19.45 0.3 -19.5 -0.3 -19.5 -1.2 M-7.95 -10.5 L-7.95 -10.65 -8.25 -10.55 -7.95 -10.5" fill="#764701" fill-rule="evenodd" stroke="none"/>
    <path d="M-10.65 -10.8 L-11.45 -10.3 -8.25 -9.4 -9.85 -8.35 -14.25 -5.25 Q-16.35 -3.6 -16.95 -0.75 L-17.05 -0.2 -16.95 -0.65 -17.7 -0.9 -19.5 -1.2 -19.15 -3.65 Q-18.8 -5.3 -17.25 -6.8 -16.75 -7.3 -10.65 -10.8 M-7.95 -10.5 L-8.25 -10.55 -7.95 -10.65 -7.95 -10.5" fill="#996600" fill-rule="evenodd" stroke="none"/>
    <path d="M-8.25 -9.4 L-6.8 -10.35 -5.55 -11.15 Q-3.45 -12.6 -1.05 -13.55 1.35 -14.5 3.05 -15.9 -2.7 -15.3 -9.55 -11.4 M-9.7 -11.3 L-9.8 -11.25 -10.65 -10.8 Q-16.75 -7.3 -17.25 -6.8 -18.8 -5.3 -19.15 -3.65 L-19.5 -1.2 -19.5 -0.3 -19.45 0.3 -18.85 4.55 Q-18.3 7.65 -16.45 10.1 L-16.85 6.25 -17.1 2.9 -17.05 -0.2 -16.95 -0.75 Q-16.35 -3.6 -14.25 -5.25 L-9.85 -8.35 -8.25 -9.4 Z" fill="none" stroke="#000000" stroke-linecap="round" stroke-linejoin="round" stroke-opacity="0.4" stroke-width="0.05"/>
    <path d="M-17.1 -8.7 L-16.75 -9.2 Q-15.95 -10.15 -15.1 -10.15 L-14.45 -9.95 -13.55 -9.45 Q-13.6 -9.05 -15.1 -8.15 L-15.45 -7.9 Q-16.55 -8.6 -17.1 -8.7 M-9.75 -13.95 Q-9.05 -14.75 -7.95 -14.75 L-6.95 -14.65 Q-6.6 -14.45 -6.25 -13.45 -7.1 -12.35 -9.65 -11.45 L-10.0 -11.7 -10.35 -12.3 Q-10.35 -13.2 -9.75 -13.95 M-21.15 2.05 L-21.25 0.8 Q-21.25 0.05 -20.6 -0.35 -20.15 -0.6 -19.4 -0.15 L-19.45 0.15 -19.15 2.65 -19.3 1.75 -19.7 1.75 -21.15 2.05" fill="#ffffcc" fill-rule="evenodd" stroke="none"/>
    <path d="M-17.1 -8.7 Q-16.55 -8.6 -15.45 -7.9 L-16.8 -7.1 -17.2 -7.2 -17.4 -7.9 -17.1 -8.7 M-21.15 2.05 L-19.7 1.75 -19.3 1.75 -19.15 2.65 -19.05 3.75 -19.1 4.25 -19.6 4.35 Q-20.1 4.35 -20.6 3.55 L-21.15 2.05" fill="#bfb695" fill-rule="evenodd" stroke="none"/>
    <path d="M-9.75 -13.95 Q-10.35 -13.2 -10.35 -12.3 L-10.0 -11.7 -9.65 -11.45 Q-7.1 -12.35 -6.25 -13.45 -6.6 -14.45 -6.95 -14.65 L-7.95 -14.75 Q-9.05 -14.75 -9.75 -13.95 M-15.45 -7.9 L-15.1 -8.15 Q-13.6 -9.05 -13.55 -9.45 L-14.45 -9.95 -15.1 -10.15 Q-15.95 -10.15 -16.75 -9.2 L-17.1 -8.7 M-15.45 -7.9 L-16.8 -7.1 -17.2 -7.2 -17.4 -7.9 -17.1 -8.7 M-19.15 2.65 L-19.45 0.15 -19.4 -0.15 Q-20.15 -0.6 -20.6 -0.35 -21.25 0.05 -21.25 0.8 L-21.15 2.05 M-19.15 2.65 L-19.05 3.75 -19.1 4.25 -19.6 4.35 Q-20.1 4.35 -20.6 3.55 L-21.15 2.05" fill="none" stroke="#000000" stroke-linecap="round" stroke-linejoin="round" stroke-opacity="0.4" stroke-width="0.05"/>
  </g>
</svg>
