<?xml version="1.0" encoding="UTF-8" standalone="no"?>
<svg xmlns:xlink="http://www.w3.org/1999/xlink" height="32.35px" width="21.75px" xmlns="http://www.w3.org/2000/svg">
  <g transform="matrix(1.0, 0.0, 0.0, 1.0, 7.6, 15.35)">
    <path d="M-0.55 -9.75 L0.95 -10.95 2.1 -11.85 Q3.9 -13.2 6.2 -14.15 8.85 -15.4 11.7 -15.35 L13.4 -14.65 14.15 -14.25 5.6 -6.65 4.55 -5.6 2.7 -7.3 -0.55 -9.75 M-6.8 2.05 Q-5.05 2.85 -3.25 4.7 L-2.35 5.7 -2.55 7.1 Q-2.7 8.85 -1.9 10.45 -0.3 13.55 1.6 16.2 0.0 17.1 -1.95 17.0 -3.55 15.05 -4.95 12.6 L-6.25 10.0 -6.9 7.65 -6.95 7.1 -6.8 2.05" fill="#764701" fill-rule="evenodd" stroke="none"/>
    <path d="M-0.55 -9.75 L2.7 -7.3 4.55 -5.6 2.9 -3.55 Q-0.5 0.5 -2.35 5.7 L-3.25 4.7 Q-5.05 2.85 -6.8 2.05 L-5.85 -0.1 Q-4.05 -5.45 -0.55 -9.75" fill="#996600" fill-rule="evenodd" stroke="none"/>
    <path d="M5.6 -6.65 L14.15 -14.25 13.4 -14.65 11.7 -15.35 Q8.85 -15.4 6.2 -14.15 3.9 -13.2 2.1 -11.85 L0.95 -10.95 -0.55 -9.75 Q-4.05 -5.45 -5.85 -0.1 L-6.8 2.05 M-2.35 5.7 Q-0.5 0.5 2.9 -3.55 L4.55 -5.6 M-2.35 5.7 L-2.55 7.1 Q-2.7 8.85 -1.9 10.45 -0.3 13.55 1.6 16.2 0.0 17.1 -1.95 17.0 -3.55 15.05 -4.95 12.6 L-6.25 10.0 -6.9 7.65 -6.95 7.1 -6.8 2.05" fill="none" stroke="#000000" stroke-linecap="round" stroke-linejoin="round" stroke-opacity="0.4" stroke-width="0.05"/>
    <path d="M3.1 -9.65 Q2.55 -10.4 2.55 -11.3 L2.8 -12.25 Q3.05 -13.0 3.3 -13.0 L3.75 -13.1 4.75 -13.35 4.8 -13.35 5.45 -11.7 Q5.45 -10.75 3.85 -10.0 L3.1 -9.65 M-2.4 -2.2 Q-3.1 -2.95 -3.1 -4.6 L-2.8 -5.3 -1.45 -6.0 Q-0.45 -6.35 0.7 -5.5 1.85 -4.7 1.7 -3.65 1.45 -5.1 -0.45 -3.3 L-2.4 -2.2 M-7.1 8.6 L-7.4 8.1 Q-8.0 6.45 -6.9 5.45 L-5.4 5.25 Q-3.6 4.8 -3.1 6.7 L-3.05 6.8 -4.75 6.65 Q-6.9 6.85 -7.1 8.6" fill="#ffffcc" fill-rule="evenodd" stroke="none"/>
    <path d="M4.8 -13.35 L5.25 -13.3 Q5.75 -13.05 6.2 -12.85 L6.35 -12.75 6.6 -12.6 Q7.55 -11.8 7.55 -10.95 7.55 -10.0 6.95 -9.3 6.25 -8.45 5.0 -8.45 4.55 -8.45 4.0 -8.85 L3.55 -9.2 3.1 -9.65 3.85 -10.0 Q5.45 -10.75 5.45 -11.7 L4.8 -13.35 M1.7 -3.65 L1.7 -3.45 Q1.5 -2.55 0.85 -2.1 0.2 -1.6 -0.8 -1.6 -1.85 -1.6 -2.4 -2.2 L-0.45 -3.3 Q1.45 -5.1 1.7 -3.65 M-3.05 6.8 Q-2.8 7.95 -3.25 9.15 L-3.7 9.65 Q-5.5 10.2 -6.8 8.95 L-7.1 8.6 Q-6.9 6.85 -4.75 6.65 L-3.05 6.8" fill="#bfb695" fill-rule="evenodd" stroke="none"/>
    <path d="M4.8 -13.35 L5.25 -13.3 Q5.75 -13.05 6.2 -12.85 M6.35 -12.75 L6.6 -12.6 Q7.55 -11.8 7.55 -10.95 7.55 -10.0 6.95 -9.3 6.25 -8.45 5.0 -8.45 4.55 -8.45 4.0 -8.85 L3.55 -9.2 3.1 -9.65 Q2.55 -10.4 2.55 -11.3 L2.8 -12.25 Q3.05 -13.0 3.3 -13.0 L3.75 -13.1 4.75 -13.35 4.8 -13.35 M-2.4 -2.2 Q-3.1 -2.95 -3.1 -4.6 L-2.8 -5.3 -1.45 -6.0 Q-0.45 -6.35 0.7 -5.5 1.85 -4.7 1.7 -3.65 L1.7 -3.45 Q1.5 -2.55 0.85 -2.1 0.2 -1.6 -0.8 -1.6 -1.85 -1.6 -2.4 -2.2 M-7.1 8.6 L-7.4 8.1 Q-8.0 6.45 -6.9 5.45 L-5.4 5.25 Q-3.6 4.8 -3.1 6.7 L-3.05 6.8 Q-2.8 7.95 -3.25 9.15 L-3.7 9.65 Q-5.5 10.2 -6.8 8.95 L-7.1 8.6" fill="none" stroke="#000000" stroke-linecap="round" stroke-linejoin="round" stroke-opacity="0.4" stroke-width="0.05"/>
  </g>
</svg>
