<?xml version="1.0" encoding="UTF-8" standalone="no"?>
<svg xmlns:xlink="http://www.w3.org/1999/xlink" height="38.35px" width="43.2px" xmlns="http://www.w3.org/2000/svg">
  <g transform="matrix(1.0, 0.0, 0.0, 1.0, 23.3, 16.45)">
    <path d="M-7.45 21.9 L-11.55 21.5 -15.5 20.7 Q-17.6 20.05 -20.7 16.5 -23.85 12.95 -23.15 12.2 L-21.7 10.8 -20.75 9.8 Q-20.45 9.5 -19.65 7.6 L-19.65 6.85 -18.9 3.0 -17.7 3.65 -16.0 3.95 -14.7 4.8 Q-11.5 6.8 -7.85 8.0 L-4.2 8.6 -4.45 9.4 -4.9 10.55 -5.4 12.35 -5.75 14.35 -7.0 15.25 -8.25 15.9 -8.3 15.95 -6.85 17.2 -6.65 17.25 -6.7 17.4 -6.75 17.45 -6.75 17.5 -6.7 17.5 -6.65 18.35 -7.45 21.9 M-22.1 -4.4 Q-21.9 -5.55 -21.15 -6.55 L-19.9 -7.85 Q-16.4 -10.6 -12.15 -11.75 L-12.0 -11.9 -10.95 -12.85 -9.45 -14.0 Q-13.75 -9.75 -14.0 -6.1 -14.25 -2.5 -10.4 -2.35 -6.55 -2.2 3.65 -9.5 L6.85 -11.85 7.7 -12.15 9.4 -12.4 Q12.4 -12.05 13.4 -9.15 13.6 -8.6 13.4 -8.0 L12.65 -6.55 11.15 -4.85 Q9.35 -3.15 7.4 -1.6 6.15 -0.55 4.9 0.35 L5.1 -0.9 5.3 -3.5 5.2 -3.55 5.05 -3.45 4.65 -3.45 Q2.1 -2.25 -0.9 -1.0 -3.95 0.25 -5.2 0.45 L-10.25 0.65 -10.7 0.65 -11.1 0.7 -11.95 0.25 Q-13.6 -0.6 -15.35 -1.15 L-16.35 -1.5 -18.8 -2.25 -18.85 -2.25 -19.35 -2.4 Q-20.0 -2.65 -22.1 -4.4 M5.2 -3.9 L5.2 -3.55 5.2 -3.9 M-19.85 11.4 L-19.65 7.6 -19.85 11.4" fill="#ffffff" fill-rule="evenodd" stroke="none"/>
    <path d="M6.85 -11.85 L12.55 -16.45 14.45 -16.3 Q15.85 -16.15 17.2 -15.25 L19.05 -13.85 19.75 -12.5 19.9 -10.65 Q19.85 -9.1 19.4 -7.6 18.55 -4.9 17.05 -2.35 L14.1 2.45 Q12.7 4.5 10.9 6.2 L4.7 14.1 4.05 15.0 4.35 15.3 Q5.0 16.0 4.95 16.85 L4.95 17.1 Q1.15 20.8 -1.25 21.25 L-7.45 21.9 -6.65 18.35 -6.7 17.5 -6.75 17.5 -6.75 17.45 -6.7 17.4 -6.65 17.25 -6.85 17.2 -8.3 15.95 -8.25 15.9 -7.0 15.25 -5.75 14.35 -5.4 12.35 -4.9 10.55 -4.45 9.4 -4.2 8.6 Q-0.65 8.45 2.5 5.4 3.8 4.1 4.35 2.4 L4.9 0.35 4.35 2.4 Q3.8 4.1 2.5 5.4 -0.65 8.45 -4.2 8.6 L-7.85 8.0 Q-11.5 6.8 -14.7 4.8 L-16.0 3.95 -17.7 3.65 -18.9 3.0 Q-22.0 1.0 -22.2 -2.95 L-22.2 -3.0 -22.2 -3.5 -22.1 -4.4 Q-20.0 -2.65 -19.35 -2.4 L-18.85 -2.25 -18.8 -2.25 -16.35 -1.5 -15.35 -1.15 Q-13.6 -0.6 -11.95 0.25 L-11.1 0.7 -10.7 0.65 -10.25 0.65 -5.2 0.45 Q-3.95 0.25 -0.9 -1.0 2.1 -2.25 4.65 -3.45 L5.05 -3.45 5.2 -3.55 5.3 -3.5 5.1 -0.9 4.9 0.35 Q6.15 -0.55 7.4 -1.6 9.35 -3.15 11.15 -4.85 L12.65 -6.55 13.4 -8.0 Q13.6 -8.6 13.4 -9.15 12.4 -12.05 9.4 -12.4 L7.7 -12.15 6.85 -11.85" fill="#d6baba" fill-rule="evenodd" stroke="none"/>
    <path d="M6.85 -11.85 L12.55 -16.45 14.45 -16.3 Q15.85 -16.15 17.2 -15.25 L19.05 -13.85 19.75 -12.5 19.9 -10.65 Q19.85 -9.1 19.4 -7.6 18.55 -4.9 17.05 -2.35 L14.1 2.45 Q12.7 4.5 10.9 6.2 L4.7 14.1 4.05 15.0 4.35 15.3 Q5.0 16.0 4.95 16.85 L4.95 17.1 Q1.15 20.8 -1.25 21.25 L-7.45 21.9 -11.55 21.5 -15.5 20.7 Q-17.6 20.05 -20.7 16.5 -23.85 12.95 -23.15 12.2 L-21.7 10.8 -20.75 9.8 Q-20.45 9.5 -19.65 7.6 L-19.65 6.85 -18.9 3.0 Q-22.0 1.0 -22.2 -2.95 L-22.2 -3.0 -22.2 -3.5 -22.1 -4.4 Q-21.9 -5.55 -21.15 -6.55 L-19.9 -7.85 Q-16.4 -10.6 -12.15 -11.75 L-12.0 -11.9 -10.95 -12.85 -9.45 -14.0 Q-13.75 -9.75 -14.0 -6.1 -14.25 -2.5 -10.4 -2.35 -6.55 -2.2 3.65 -9.5 L6.85 -11.85 M4.9 0.35 L4.35 2.4 Q3.8 4.1 2.5 5.4 -0.65 8.45 -4.2 8.6 L-7.85 8.0 Q-11.5 6.8 -14.7 4.8 L-16.0 3.95 -17.7 3.65 -18.9 3.0 M-6.75 17.45 L-6.75 17.5 M5.3 -3.5 L5.1 -0.9 4.9 0.35 M5.2 -3.55 L5.2 -3.9 M-19.65 7.6 L-19.85 11.4" fill="none" stroke="#000000" stroke-linecap="round" stroke-linejoin="round" stroke-opacity="0.3019608" stroke-width="0.05"/>
  </g>
</svg>
