<?xml version="1.0" encoding="UTF-8" standalone="no"?>
<svg xmlns:xlink="http://www.w3.org/1999/xlink" height="5.3px" width="12.5px" xmlns="http://www.w3.org/2000/svg">
  <g transform="matrix(1.0, 0.0, 0.0, 1.0, 16.25, 5.95)">
    <path d="M-15.85 -5.9 L-14.95 -5.85 Q-14.05 -5.6 -12.3 -4.45 L-12.25 -4.45 -12.1 -4.3 -12.1 -4.2 -10.4 -3.65 -8.25 -2.7 -6.95 -2.45 -5.65 -2.1 -5.55 -2.15 -4.75 -2.15 Q-3.65 -2.05 -3.75 -1.4 L-3.75 -1.3 -3.8 -1.05 -3.95 -0.7 -4.5 -0.65 Q-5.1 -0.65 -5.6 -1.0 L-5.65 -1.1 -5.8 -1.2 Q-8.6 -1.9 -9.3 -2.35 L-10.85 -2.9 Q-12.5 -3.45 -13.4 -3.9 L-13.5 -3.9 Q-14.5 -3.9 -15.3 -4.25 -16.3 -4.65 -16.25 -5.25 -16.25 -5.7 -15.9 -5.85 L-15.85 -5.9" fill="#ffffff" fill-rule="evenodd" stroke="none"/>
  </g>
</svg>
