<?xml version="1.0" encoding="UTF-8" standalone="no"?>
<svg xmlns:xlink="http://www.w3.org/1999/xlink" height="12.65px" width="24.65px" xmlns="http://www.w3.org/2000/svg">
  <g transform="matrix(1.0, 0.0, 0.0, 1.0, 13.3, 0.95)">
    <path d="M-13.3 -0.4 L-13.3 -0.45 -9.9 -0.95 -5.6 1.95 Q-1.5 4.9 -0.6 5.15 L3.8 6.3 5.5 6.7 7.7 7.25 11.35 8.35 Q9.45 10.5 7.75 11.55 -1.85 12.15 -7.4 9.9 -8.15 3.7 -10.25 1.85 L-13.3 -0.4" fill="#d6baba" fill-rule="evenodd" stroke="none"/>
    <path d="M-7.4 9.9 Q-9.4 9.05 -10.5 8.25 L-12.1 7.15 -13.0 6.05 Q-12.85 4.55 -13.15 1.25 L-13.3 -0.4 -10.25 1.85 Q-8.15 3.7 -7.4 9.9" fill="#ffffff" fill-rule="evenodd" stroke="none"/>
    <path d="M-13.3 -0.4 L-13.3 -0.45 M11.35 8.35 Q9.45 10.5 7.75 11.55 -1.85 12.15 -7.4 9.9 -9.4 9.05 -10.5 8.25 L-12.1 7.15 -13.0 6.05 Q-12.85 4.55 -13.15 1.25 L-13.3 -0.4" fill="none" stroke="#000000" stroke-linecap="round" stroke-linejoin="round" stroke-opacity="0.3019608" stroke-width="0.05"/>
    <path d="M-13.3 -0.45 L-9.9 -0.95 -5.6 1.95 Q-1.5 4.9 -0.6 5.15 L3.8 6.3 5.5 6.7 7.7 7.25 11.35 8.35" fill="none" stroke="#000000" stroke-linecap="round" stroke-linejoin="round" stroke-opacity="0.2" stroke-width="0.05"/>
  </g>
</svg>
