<?xml version="1.0" encoding="UTF-8" standalone="no"?>
<svg xmlns:xlink="http://www.w3.org/1999/xlink" height="19.0px" width="20.95px" xmlns="http://www.w3.org/2000/svg">
  <g transform="matrix(1.0, 0.0, 0.0, 1.0, 10.1, 9.4)">
    <path d="M-8.45 9.6 L-8.5 9.6 -8.75 9.4 -8.45 9.6 M-9.9 7.75 L-10.1 7.05 -10.05 7.05 -9.9 7.75 M5.6 -8.35 L6.35 -7.5 Q6.8 -6.95 6.2 -6.15 L5.4 -5.2 Q4.3 -4.25 3.0 -3.7 0.95 -2.95 -0.35 -4.15 L-0.4 -5.05 0.2 -5.8 1.2 -6.75 Q3.3 -7.8 5.6 -8.35" fill="#ffffff" fill-rule="evenodd" stroke="none"/>
    <path d="M-3.3 -5.25 L1.25 -7.5 Q3.5 -8.75 5.9 -9.05 L8.6 -9.4 10.85 -9.05 Q9.15 -2.65 4.95 3.0 L4.8 3.2 3.4 4.65 0.35 6.75 -1.6 7.75 Q-3.2 8.6 -4.8 9.05 L-8.45 9.6 -8.75 9.4 -8.8 9.35 -8.9 9.25 -9.55 8.45 -9.9 7.75 -10.05 7.05 -10.1 7.05 -4.8 -2.35 Q-4.4 -3.6 -3.3 -5.25 M5.6 -8.35 Q3.3 -7.8 1.2 -6.75 L0.2 -5.8 -0.4 -5.05 -0.35 -4.15 Q0.95 -2.95 3.0 -3.7 4.3 -4.25 5.4 -5.2 L6.2 -6.15 Q6.8 -6.95 6.35 -7.5 L5.6 -8.35 M-4.2 1.05 L-0.6 -2.2 0.6 -2.85 Q2.7 -3.7 4.0 -2.5 4.4 -0.55 2.9 1.3 L1.2 3.2 -0.1 4.2 1.2 3.2 2.9 1.3 Q4.4 -0.55 4.0 -2.5 2.7 -3.7 0.6 -2.85 L-0.6 -2.2 -4.2 1.05" fill="#d6baba" fill-rule="evenodd" stroke="none"/>
    <path d="M-3.3 -5.25 L1.25 -7.5 Q3.5 -8.75 5.9 -9.05 L8.6 -9.4 10.85 -9.05 Q9.15 -2.65 4.95 3.0 L4.8 3.2 3.4 4.65 0.35 6.75 -1.6 7.75 Q-3.2 8.6 -4.8 9.05 L-8.45 9.6 -8.75 9.4 -8.8 9.35 -8.9 9.25 -9.7 8.55 -9.9 7.75 -10.05 7.05 M-0.1 4.2 L1.2 3.2 2.9 1.3 Q4.4 -0.55 4.0 -2.5 2.7 -3.7 0.6 -2.85 L-0.6 -2.2 -4.2 1.05" fill="none" stroke="#000000" stroke-linecap="round" stroke-linejoin="round" stroke-opacity="0.3019608" stroke-width="0.05"/>
  </g>
</svg>
