<?xml version="1.0" encoding="UTF-8" standalone="no"?>
<svg xmlns:xlink="http://www.w3.org/1999/xlink" height="34.0px" width="56.9px" xmlns="http://www.w3.org/2000/svg">
  <g transform="matrix(1.0, 0.0, 0.0, 1.0, 31.65, 17.0)">
    <path d="M-21.3 -16.5 Q-14.25 -16.3 -6.3 -16.8 0.55 -17.55 6.35 -15.35 L6.75 -14.95 8.75 -14.25 14.0 -10.7 14.4 -10.35 13.65 -9.65 12.25 -8.35 13.8 -7.65 15.15 -4.4 Q16.2 -1.95 16.4 1.05 16.55 3.3 16.0 5.5 L15.7 6.3 14.15 9.8 12.85 11.65 11.35 13.1 12.6 9.5 12.8 8.15 12.75 7.45 Q12.65 5.9 12.2 4.6 L7.95 -6.2 7.8 -6.6 Q6.75 -9.1 5.05 -11.1 L2.35 -13.95 1.85 -6.35 1.55 -3.65 0.55 1.65 Q-0.05 4.25 -0.95 6.75 L-2.2 10.0 -4.15 14.75 -4.1 10.2 -4.45 5.35 -5.05 -0.05 -5.05 -0.25 Q-4.5 -1.7 -4.75 -3.3 L-5.4 -7.65 -4.85 -9.25 -6.2 -9.05 Q-9.7 -7.4 -12.3 -4.45 -13.2 -3.45 -13.75 -2.15 -14.75 0.2 -14.55 2.75 L-13.6 11.05 Q-13.35 12.85 -11.55 14.35 -14.1 13.3 -15.05 12.25 -19.8 6.85 -20.4 -0.25 -20.6 -2.5 -20.25 -4.75 L-19.7 -6.85 Q-19.3 -7.9 -18.4 -8.55 L-19.5 -8.3 -22.55 -7.1 -23.35 -6.5 Q-24.75 -4.95 -25.1 -2.7 -25.5 -0.4 -25.0 1.75 L-23.9 4.75 -22.25 8.0 -22.35 8.05 -24.2 7.3 Q-26.45 6.4 -27.7 4.55 -29.05 2.65 -30.05 0.3 L-31.25 -2.25 Q-31.7 -3.35 -31.65 -4.4 L-31.55 -7.9 Q-31.55 -9.6 -30.65 -11.05 -29.05 -13.45 -26.7 -14.75 L-25.5 -15.15 -21.4 -15.55 -21.3 -16.5 M-21.65 -12.5 L-21.4 -15.55 -21.65 -12.5" fill="#ffffff" fill-rule="evenodd" stroke="none"/>
    <path d="M14.4 -10.35 L14.45 -10.2 Q18.65 -7.1 21.45 -2.1 22.8 0.25 24.35 2.25 L25.05 4.1 25.25 4.4 25.2 7.05 24.95 10.6 24.9 10.85 24.85 11.15 24.2 12.8 21.3 15.65 20.25 16.55 Q19.3 17.35 19.1 16.7 20.3 15.1 20.35 12.95 L20.45 10.6 Q20.55 8.45 19.85 6.6 19.85 8.65 19.45 10.6 19.2 12.05 18.25 13.0 16.5 14.7 14.0 15.3 L11.35 15.65 Q10.25 15.85 9.55 15.65 L11.35 13.1 12.85 11.65 14.15 9.8 15.7 6.3 16.0 5.5 Q16.55 3.3 16.4 1.05 16.2 -1.95 15.15 -4.4 L13.8 -7.65 12.25 -8.35 13.65 -9.65 14.4 -10.35 M4.0 9.1 L3.6 9.5 -1.25 13.85 -1.7 13.9 -2.0 14.0 Q-3.4 14.3 -4.15 14.75 L-2.2 10.0 -0.95 6.75 Q-0.05 4.25 0.55 1.65 L1.55 -3.65 1.85 -6.35 2.35 -13.95 5.05 -11.1 Q6.75 -9.1 7.8 -6.6 L7.95 -6.2 7.75 -6.35 7.75 -6.2 7.75 -6.15 Q8.4 -3.5 8.15 -0.5 7.95 2.3 6.8 4.75 5.7 7.2 4.0 9.1 M-11.9 13.3 L-11.55 14.35 Q-13.35 12.85 -13.6 11.05 L-14.55 2.75 Q-14.75 0.2 -13.75 -2.15 -13.2 -3.45 -12.3 -4.45 -9.7 -7.4 -6.2 -9.05 L-4.85 -9.25 -5.4 -7.65 -4.75 -3.3 Q-4.5 -1.7 -5.05 -0.25 L-6.3 -6.25 -6.65 -6.3 -6.75 -6.25 -6.85 -6.2 -7.05 -6.05 -7.4 -6.0 Q-9.05 -4.05 -10.1 -1.5 -13.15 5.65 -11.9 13.3 M7.75 -6.35 L7.8 -6.6 7.75 -6.35" fill="#d6baba" fill-rule="evenodd" stroke="none"/>
    <path d="M7.75 -6.35 L7.95 -6.2 7.75 -6.15 7.75 -6.2 7.75 -6.35" fill="#660000" fill-opacity="0.28235295" fill-rule="evenodd" stroke="none"/>
    <path d="M12.2 4.6 L11.7 4.85 Q11.5 4.9 10.7 5.4 L7.9 6.75 Q5.95 7.6 4.0 9.1 5.7 7.2 6.8 4.75 7.95 2.3 8.15 -0.5 8.4 -3.5 7.75 -6.15 L7.95 -6.2 12.2 4.6 M-5.05 -0.05 Q-6.35 4.25 -7.0 8.6 -7.2 10.15 -7.85 11.4 L-8.35 12.25 -10.25 12.35 -11.1 13.15 -11.9 13.3 Q-13.15 5.65 -10.1 -1.5 -9.05 -4.05 -7.4 -6.0 L-7.05 -6.05 -6.85 -6.2 -6.75 -6.25 -6.65 -6.3 -6.3 -6.25 -5.05 -0.25 -5.05 -0.05" fill="#631300" fill-opacity="0.3529412" fill-rule="evenodd" stroke="none"/>
    <path d="M25.2 7.05 L24.95 10.6 24.9 10.85 24.85 11.15 24.2 12.8 21.3 15.65 20.25 16.55 Q19.3 17.35 19.1 16.7 20.3 15.1 20.35 12.95 L20.45 10.6 Q20.55 8.45 19.85 6.6 19.85 8.65 19.45 10.6 19.2 12.05 18.25 13.0 16.5 14.7 14.0 15.3 L11.35 15.65 Q10.25 15.85 9.55 15.65 L11.35 13.1 12.6 9.5 12.8 8.15 12.75 7.45 Q12.65 5.9 12.2 4.6 L7.95 -6.2 7.75 -6.35 M4.0 9.1 L3.6 9.5 -1.25 13.85 -1.7 13.9 -2.0 14.0 Q-3.4 14.3 -4.15 14.75 L-4.1 10.2 -4.45 5.35 -5.05 -0.05 -5.05 -0.25 -6.3 -6.25 -6.65 -6.3 -6.75 -6.25 -6.85 -6.2 -7.05 -6.05 -7.4 -6.0 Q-9.05 -4.05 -10.1 -1.5 -13.15 5.65 -11.9 13.3 L-11.55 14.35 Q-14.1 13.3 -15.05 12.25 -19.8 6.85 -20.4 -0.25 -20.6 -2.5 -20.25 -4.75 L-19.7 -6.85 Q-19.3 -7.9 -18.4 -8.55 L-19.5 -8.3 -22.55 -7.1 -23.35 -6.5 Q-24.75 -4.95 -25.1 -2.7 -25.5 -0.4 -25.0 1.75 L-23.9 4.75 -22.25 8.0 -22.35 8.05 -24.2 7.3 Q-26.45 6.4 -27.7 4.55 -29.05 2.65 -30.05 0.3 L-31.25 -2.25 Q-31.7 -3.35 -31.65 -4.4 L-31.55 -7.9 Q-31.55 -9.6 -30.65 -11.05 -29.05 -13.45 -26.7 -14.75 L-25.5 -15.15 -21.4 -15.55 -21.3 -16.5 M7.75 -6.2 L7.75 -6.15 Q8.4 -3.5 8.15 -0.5 7.95 2.3 6.8 4.75 5.7 7.2 4.0 9.1 M7.8 -6.6 L7.75 -6.35 M-21.4 -15.55 L-21.65 -12.5" fill="none" stroke="#000000" stroke-linecap="round" stroke-linejoin="round" stroke-opacity="0.3019608" stroke-width="0.05"/>
  </g>
</svg>
