<?xml version="1.0" encoding="UTF-8" standalone="no"?>
<svg xmlns:xlink="http://www.w3.org/1999/xlink" height="74.85px" width="60.15px" xmlns="http://www.w3.org/2000/svg">
  <g transform="matrix(1.0, 0.0, 0.0, 1.0, 30.5, 30.95)">
    <path d="M-1.35 -23.35 L-0.95 -23.55 -0.8 -23.6 1.5 -24.1 1.65 -24.1 5.15 -24.5 Q7.65 -24.5 8.8 -23.85 L9.95 -22.85 10.35 -22.4 10.4 -22.3 11.55 -20.35 11.8 -19.8 12.1 -19.45 14.95 -15.0 Q17.15 -10.9 19.0 -5.25 18.2 -7.05 16.1 -8.9 13.7 -10.8 12.55 -11.9 L12.45 -12.0 12.45 -11.8 Q16.1 -8.25 17.35 -0.35 17.9 3.0 18.35 13.85 17.45 4.95 11.4 -3.75 6.0 -11.5 1.8 -12.2 L1.8 -11.9 5.6 -1.35 Q7.85 5.25 7.85 10.25 L6.2 26.85 Q6.1 10.25 1.65 -2.05 0.4 -5.5 -0.8 -7.85 L-2.85 -11.15 -2.9 -11.15 Q-4.55 -13.15 -6.15 -13.15 L-7.7 -12.7 -8.45 -12.4 -8.45 -12.45 -7.65 -14.0 -7.85 -14.2 -8.55 -14.2 -3.75 -19.05 -3.3 -19.45 -4.15 -19.45 -6.2 -19.25 -7.65 -19.0 -8.75 -19.0 -8.75 -19.2 -8.4 -19.4 -5.6 -21.1 -3.05 -22.9 -2.35 -22.95 -1.35 -23.35 M11.2 -22.5 L12.55 -22.95 16.8 -23.7 Q19.35 -23.7 22.0 -21.6 L23.05 -20.7 Q24.4 -19.45 25.6 -17.5 L25.95 -15.85 27.1 -10.25 27.1 -6.1 24.4 -10.05 20.75 -15.5 Q20.0 -16.55 18.35 -17.85 L15.75 -19.65 11.2 -22.5 M-10.45 -23.35 L-10.5 -23.35 -10.75 -23.45 -10.9 -23.55 -11.15 -23.65 -11.35 -23.75 -11.4 -23.8 -11.75 -24.0 -12.25 -24.35 Q-13.75 -25.35 -14.6 -25.35 L-15.35 -25.0 -13.15 -23.2 Q-11.1 -21.15 -11.0 -19.75 -12.0 -19.75 -14.35 -18.4 -13.8 -18.35 -12.65 -17.7 L-11.5 -17.05 Q-17.0 -12.3 -19.55 -6.6 -22.25 -0.6 -24.5 12.15 L-24.7 12.15 Q-24.7 6.15 -24.0 1.45 L-23.25 -2.65 Q-21.8 -8.75 -18.65 -13.25 L-18.15 -14.0 -15.25 -18.0 Q-22.8 -12.9 -25.85 -3.2 -28.1 3.95 -30.15 23.15 -31.3 7.8 -28.75 -3.65 -26.2 -15.4 -24.5 -16.25 -22.8 -18.9 -20.7 -20.95 -19.85 -24.95 -15.9 -28.05 -12.2 -30.95 -9.6 -30.95 -8.8 -30.95 -7.95 -30.3 L-7.75 -30.15 -6.65 -29.15 -7.75 -30.15 -7.1 -30.45 Q-6.2 -30.75 -6.2 -29.95 L-6.65 -29.15 -6.8 -29.0 -7.8 -27.9 Q-8.25 -27.55 -8.2 -26.8 -8.2 -26.05 -8.55 -25.8 L-9.65 -25.45 -10.2 -24.95 -10.35 -24.0 -10.25 -23.3 -10.45 -23.35 M-15.35 -25.0 L-17.95 -23.35 -20.7 -20.95 -17.95 -23.35 -15.35 -25.0" fill="#ffffff" fill-rule="evenodd" stroke="none"/>
    <path d="M-3.05 -22.9 L-5.6 -21.1 -8.4 -19.4 -8.75 -19.2 -8.75 -19.0 -7.65 -19.0 -6.2 -19.25 -4.15 -19.45 -3.3 -19.45 -3.75 -19.05 -8.55 -14.2 -7.85 -14.2 -7.65 -14.0 -8.45 -12.45 -8.45 -12.4 -7.7 -12.7 -6.15 -13.15 Q-4.55 -13.15 -2.9 -11.15 L-2.85 -11.15 -0.8 -7.85 -1.55 -7.8 Q-2.65 -7.8 -3.35 -8.2 L-5.15 -8.6 -8.75 -9.1 -12.05 -9.6 Q-14.2 -9.6 -15.1 -10.6 -18.15 -6.65 -20.4 4.1 -23.35 18.1 -22.25 29.8 -23.65 26.85 -24.15 21.15 L-24.7 13.05 -24.7 12.15 -24.5 12.15 Q-22.25 -0.6 -19.55 -6.6 -17.0 -12.3 -11.5 -17.05 L-12.65 -17.7 Q-13.8 -18.35 -14.35 -18.4 -12.0 -19.75 -11.0 -19.75 -11.1 -21.15 -13.15 -23.2 L-15.35 -25.0 -14.6 -25.35 Q-13.75 -25.35 -12.25 -24.35 L-11.75 -24.0 -11.4 -23.8 -11.35 -23.75 -11.15 -23.65 -10.9 -23.55 -10.75 -23.45 -10.5 -23.35 -10.45 -23.35 -10.25 -23.25 -9.85 -23.2 -9.95 -22.9 -9.85 -23.2 -4.65 -22.75 -3.05 -22.9 M6.2 26.85 L7.85 10.25 Q7.85 5.25 5.6 -1.35 L1.8 -11.9 1.8 -12.2 Q6.0 -11.5 11.4 -3.75 17.45 4.95 18.35 13.85 17.9 3.0 17.35 -0.35 16.1 -8.25 12.45 -11.8 L12.45 -12.0 12.55 -11.9 Q13.7 -10.8 16.1 -8.9 18.2 -7.05 19.0 -5.25 17.15 -10.9 14.95 -15.0 L12.1 -19.45 11.8 -19.8 11.55 -20.35 10.4 -22.3 11.2 -22.5 15.75 -19.65 18.35 -17.85 Q20.0 -16.55 20.75 -15.5 L24.4 -10.05 27.1 -6.1 27.1 -10.25 25.95 -15.85 25.6 -17.5 Q27.7 -13.85 29.05 -7.8 L29.4 -2.2 29.65 3.3 Q29.65 15.35 27.7 21.95 L25.2 29.3 25.55 23.2 Q25.55 10.1 21.05 -3.9 L21.0 -4.1 21.0 -3.9 Q21.0 -2.9 21.75 -0.05 22.45 2.75 22.45 5.15 22.45 14.9 20.1 26.8 18.9 32.95 15.25 40.2 15.85 33.7 15.85 30.9 15.85 20.5 11.75 5.7 7.9 -7.95 5.55 -9.65 7.05 -5.25 8.2 -0.3 10.5 9.5 10.5 17.6 10.5 28.3 8.8 34.05 7.75 37.55 4.95 43.9 L4.95 43.05 Q6.1 39.05 6.2 29.75 L6.2 27.7 6.2 26.85 M-8.45 -12.4 L-9.2 -12.0 -9.25 -11.95 -9.3 -12.0 -10.75 -12.8 -11.3 -12.95 -12.95 -12.55 -13.5 -12.2 -15.1 -10.6 -13.5 -12.2 -12.95 -12.55 -11.3 -12.95 -10.75 -12.8 -9.3 -12.0 -9.25 -11.95 -9.2 -12.0 -8.45 -12.4 M-18.15 -14.0 L-18.65 -13.25 Q-21.8 -8.75 -23.25 -2.65 L-24.0 1.45 Q-25.6 4.0 -27.85 13.25 -30.05 22.05 -30.05 24.1 L-30.15 23.15 Q-28.1 3.95 -25.85 -3.2 -22.8 -12.9 -15.25 -18.0 L-18.15 -14.0" fill="#d6baba" fill-rule="evenodd" stroke="none"/>
    <path d="M10.4 -22.3 L10.35 -22.4 9.95 -22.85 8.8 -23.85 Q7.65 -24.5 5.15 -24.5 L1.65 -24.1 1.5 -24.1 -0.8 -23.6 -0.95 -23.55 -1.35 -23.35 M-8.45 -12.4 L-7.7 -12.7 -6.15 -13.15 Q-4.55 -13.15 -2.9 -11.15 L-2.85 -11.15 -0.8 -7.85 Q0.4 -5.5 1.65 -2.05 6.1 10.25 6.2 26.85 M12.1 -19.45 L11.8 -19.8 11.55 -20.35 10.4 -22.3 11.2 -22.5 12.55 -22.95 16.8 -23.7 Q19.35 -23.7 22.0 -21.6 L23.05 -20.7 Q24.4 -19.45 25.6 -17.5 27.7 -13.85 29.05 -7.8 L29.4 -2.2 29.65 3.3 Q29.65 15.35 27.7 21.95 L25.2 29.3 25.55 23.2 Q25.55 10.1 21.05 -3.9 L21.0 -4.1 21.0 -3.9 Q21.0 -2.9 21.75 -0.05 22.45 2.75 22.45 5.15 22.45 14.9 20.1 26.8 18.9 32.95 15.25 40.2 15.85 33.7 15.85 30.9 15.85 20.5 11.75 5.7 7.9 -7.95 5.55 -9.65 7.05 -5.25 8.2 -0.3 10.5 9.5 10.5 17.6 10.5 28.3 8.8 34.05 7.75 37.55 4.95 43.9 L4.95 43.05 Q6.1 39.05 6.2 29.75 L6.2 27.7 6.2 26.85 M-10.45 -23.35 L-10.5 -23.35 -10.75 -23.45 -10.9 -23.55 -11.15 -23.65 -11.35 -23.75 -11.4 -23.8 -11.75 -24.0 -12.25 -24.35 Q-13.75 -25.35 -14.6 -25.35 L-15.35 -25.0 M-24.7 12.15 L-24.7 13.05 -24.15 21.15 Q-23.65 26.85 -22.25 29.8 -23.35 18.1 -20.4 4.1 -18.15 -6.65 -15.1 -10.6 L-13.5 -12.2 -12.95 -12.55 -11.3 -12.95 -10.75 -12.8 -9.3 -12.0 -9.25 -11.95 -9.2 -12.0 -8.45 -12.4 M-6.65 -29.15 L-7.75 -30.15 -7.95 -30.3 Q-8.8 -30.95 -9.6 -30.95 -12.2 -30.95 -15.9 -28.05 -19.85 -24.95 -20.7 -20.95 L-17.95 -23.35 -15.35 -25.0 M-6.65 -29.15 L-6.3 -28.8 M-30.15 23.15 Q-31.3 7.8 -28.75 -3.65 -26.2 -15.4 -24.5 -16.25 -22.8 -18.9 -20.7 -20.95 M-9.85 -23.2 L-10.25 -23.25 -10.45 -23.35 M-24.0 1.45 L-23.25 -2.65 Q-21.8 -8.75 -18.65 -13.25 L-18.15 -14.0 M-30.15 23.15 L-30.05 24.1 Q-30.05 22.05 -27.85 13.25 -25.6 4.0 -24.0 1.45 -24.7 6.15 -24.7 12.15 M-30.05 24.1 L-30.05 24.3 -30.05 24.1" fill="none" stroke="#000000" stroke-linecap="round" stroke-linejoin="round" stroke-opacity="0.3019608" stroke-width="0.05"/>
  </g>
</svg>
