<?xml version="1.0" encoding="UTF-8" standalone="no"?>
<svg xmlns:xlink="http://www.w3.org/1999/xlink" height="103.15px" width="63.0px" xmlns="http://www.w3.org/2000/svg">
  <g transform="matrix(1.0, 0.0, 0.0, 1.0, 31.5, 51.55)">
    <path d="M27.65 -29.25 L27.7 -28.1 Q27.5 -21.7 26.6 -17.65 25.7 -13.6 22.8 -7.85 L15.05 6.25 Q10.2 14.55 8.9 16.95 L8.8 17.25 Q7.65 20.75 6.2 27.3 5.5 26.65 5.35 24.0 L5.2 21.0 3.3 22.4 Q1.8 23.5 0.8 23.5 -0.15 23.5 -0.65 19.05 L-0.95 14.75 0.7 11.45 Q3.75 6.05 11.55 -1.4 19.5 -9.0 22.4 -13.85 26.7 -21.15 27.65 -29.25 M10.6 33.5 L11.35 34.4 12.55 35.55 Q15.6 35.55 21.6 27.8 17.85 38.4 14.2 38.7 11.5 37.6 10.6 33.5 M-18.2 -24.0 Q-19.15 -22.65 -18.85 -24.25 L-18.2 -24.0 -18.85 -24.25 -18.1 -27.2 Q-18.35 -28.5 -14.7 -35.3 -11.4 -41.5 -10.0 -43.1 L-12.85 -40.8 Q-15.3 -38.75 -16.6 -36.8 -21.5 -29.45 -22.85 -26.45 L-24.4 -27.4 -24.4 -27.55 Q-23.65 -30.65 -22.25 -33.5 -19.45 -39.15 -11.75 -45.0 -4.1 -50.9 9.0 -51.5 14.6 -51.8 16.75 -48.75 12.25 -47.9 7.95 -46.2 2.3 -44.0 -1.1 -42.2 -6.0 -39.6 -10.3 -35.05 L-12.4 -32.9 Q-13.85 -31.4 -14.8 -29.65 L-17.8 -24.55 -18.2 -24.0" fill="#ffffff" fill-rule="evenodd" stroke="none"/>
    <path d="M-0.95 14.75 L-0.65 19.05 Q-0.15 23.5 0.8 23.5 1.8 23.5 3.3 22.4 L5.2 21.0 5.35 24.0 Q5.5 26.65 6.2 27.3 7.65 20.75 8.8 17.25 L8.9 16.95 Q10.2 14.55 15.05 6.25 L22.8 -7.85 Q25.7 -13.6 26.6 -17.65 27.5 -21.7 27.7 -28.1 L27.65 -29.25 27.75 -30.2 27.8 -31.45 Q28.25 -40.75 27.05 -43.6 25.8 -46.5 18.55 -45.6 11.3 -44.7 0.95 -39.8 -7.65 -35.75 -10.9 -30.3 -12.25 -28.15 -12.7 -25.8 L-12.85 -24.55 -12.95 -23.1 -12.8 -22.5 -18.2 -24.0 -17.8 -24.55 -14.8 -29.65 Q-13.85 -31.4 -12.4 -32.9 L-10.3 -35.05 Q-6.0 -39.6 -1.1 -42.2 2.3 -44.0 7.95 -46.2 12.25 -47.9 16.75 -48.75 L16.8 -48.7 18.9 -49.1 19.55 -49.2 Q24.55 -49.95 26.6 -48.15 31.1 -44.15 31.5 -29.7 31.85 -15.3 21.0 3.3 L13.55 16.25 Q10.15 23.1 10.15 28.55 10.15 31.4 10.6 33.5 11.5 37.6 14.2 38.7 17.85 38.4 21.6 27.8 L22.1 27.1 22.6 28.9 23.1 31.5 Q23.1 32.8 22.3 35.1 L21.45 37.8 21.75 38.1 22.45 38.15 Q23.2 38.15 24.55 37.4 L27.25 35.9 Q26.65 39.1 24.3 42.1 21.35 45.9 16.65 47.3 17.65 48.45 19.5 49.15 L22.15 50.3 18.0 51.25 13.15 51.6 Q9.4 51.6 7.35 50.7 6.85 50.85 4.45 48.55 2.0 46.25 -1.8 46.0 -5.65 45.75 -4.9 32.95 -4.35 22.45 -0.95 14.75 M11.4 48.55 L8.95 49.95 7.35 50.7 8.95 49.95 11.4 48.55 M-18.85 -24.25 Q-19.75 -24.6 -20.25 -24.9 L-22.85 -26.45 Q-21.5 -29.45 -16.6 -36.8 -15.3 -38.75 -12.85 -40.8 L-10.0 -43.1 Q-11.4 -41.5 -14.7 -35.3 -18.35 -28.5 -18.1 -27.2 L-18.85 -24.25 M13.35 47.9 L16.65 47.3 13.35 47.9 M18.55 38.15 L17.8 38.95 16.45 39.1 14.2 38.7 16.45 39.1 17.8 38.95 18.55 38.15" fill="#d6baba" fill-rule="evenodd" stroke="none"/>
    <path d="M-0.95 14.75 Q-4.35 22.45 -4.9 32.95 -5.65 45.75 -1.8 46.0 2.0 46.25 4.45 48.55 6.85 50.85 7.35 50.7 L8.95 49.95 11.4 48.55 M16.75 -48.75 L16.8 -48.7 18.9 -49.1 19.55 -49.2 Q24.55 -49.95 26.6 -48.15 31.1 -44.15 31.5 -29.7 31.85 -15.3 21.0 3.3 L13.55 16.25 Q10.15 23.1 10.15 28.55 10.15 31.4 10.6 33.5 L11.35 34.4 12.55 35.55 Q15.6 35.55 21.6 27.8 L22.1 27.1 22.6 28.9 23.1 31.5 Q23.1 32.8 22.3 35.1 L21.45 37.8 21.75 38.1 22.45 38.15 Q23.2 38.15 24.55 37.4 L27.25 35.9 27.3 35.55 27.3 35.85 27.25 35.9 Q26.65 39.1 24.3 42.1 21.35 45.9 16.65 47.3 17.65 48.45 19.5 49.15 L22.15 50.3 18.0 51.25 13.15 51.6 Q9.4 51.6 7.35 50.7 M27.65 -29.25 L27.75 -30.2 27.8 -31.45 Q28.25 -40.75 27.05 -43.6 25.8 -46.5 18.55 -45.6 11.3 -44.7 0.95 -39.8 -7.65 -35.75 -10.9 -30.3 -12.25 -28.15 -12.7 -25.8 L-12.85 -24.55 -12.95 -23.1 -12.8 -22.5 -18.2 -24.0 -18.85 -24.25 Q-19.75 -24.6 -20.25 -24.9 L-22.85 -26.45 -24.4 -27.4 -24.4 -27.55 Q-23.65 -30.65 -22.25 -33.5 -19.45 -39.15 -11.75 -45.0 -4.1 -50.9 9.0 -51.5 14.6 -51.8 16.75 -48.75 M-0.95 14.75 L0.7 11.45 Q3.75 6.05 11.55 -1.4 19.5 -9.0 22.4 -13.85 26.7 -21.15 27.65 -29.25 M14.2 38.7 L16.45 39.1 17.8 38.95 18.55 38.15 M16.65 47.3 L13.35 47.9 M10.6 33.5 Q11.5 37.6 14.2 38.7" fill="none" stroke="#000000" stroke-linecap="round" stroke-linejoin="round" stroke-opacity="0.3019608" stroke-width="0.05"/>
    <path d="M-29.35 -24.6 L-30.8 -25.6 -31.2 -25.85 -31.25 -25.9 -31.5 -26.25 Q-31.15 -33.75 -25.75 -38.85 L-26.25 -35.5 -26.7 -29.15 Q-20.95 -31.6 -14.9 -32.3 -10.1 -32.9 -5.15 -32.4 L-8.15 -32.3 Q-13.6 -31.95 -17.2 -30.4 L-25.0 -27.35 Q-28.15 -25.95 -29.35 -24.6 M-17.55 -27.0 L-16.85 -26.55 Q-14.1 -24.75 -11.1 -24.0 L-14.8 -24.4 -18.35 -25.05 -21.7 -25.85 -18.6 -26.75 -17.55 -27.0" fill="#ffffff" fill-rule="evenodd" stroke="none"/>
    <path d="M-5.15 -32.4 L-3.75 -32.25 -18.0 -27.35 -17.55 -27.0 -18.6 -26.75 -21.7 -25.85 -18.35 -25.05 -14.8 -24.4 -11.1 -24.0 Q-6.55 -22.95 -1.5 -24.55 -6.75 -21.5 -12.75 -20.8 -7.05 -19.6 -2.25 -16.4 L-10.0 -15.2 Q-21.95 -19.3 -25.45 -21.85 L-29.35 -24.6 Q-28.15 -25.95 -25.0 -27.35 L-17.2 -30.4 Q-13.6 -31.95 -8.15 -32.3 L-5.15 -32.4" fill="#d6baba" fill-rule="evenodd" stroke="none"/>
    <path d="M-29.35 -24.6 L-30.8 -25.6 -31.2 -25.85 -31.25 -25.9 -31.5 -26.25 Q-31.15 -33.75 -25.75 -38.85 L-26.25 -35.5 -26.7 -29.15 Q-20.95 -31.6 -14.9 -32.3 -10.1 -32.9 -5.15 -32.4 L-3.75 -32.25 -18.0 -27.35 -17.55 -27.0 -16.85 -26.55 Q-14.1 -24.75 -11.1 -24.0 -6.55 -22.95 -1.5 -24.55 -6.75 -21.5 -12.75 -20.8 -7.05 -19.6 -2.25 -16.4 L-10.0 -15.2 Q-21.95 -19.3 -25.45 -21.85 L-29.35 -24.6 Z" fill="none" stroke="#000000" stroke-linecap="round" stroke-linejoin="round" stroke-opacity="0.3019608" stroke-width="0.05"/>
  </g>
</svg>
