<?xml version="1.0" encoding="UTF-8" standalone="no"?>
<svg xmlns:xlink="http://www.w3.org/1999/xlink" height="49.85px" width="52.85px" xmlns="http://www.w3.org/2000/svg">
  <g transform="matrix(1.0, 0.0, 0.0, 1.0, 26.45, 24.95)">
    <path d="M9.55 -24.65 L10.95 -21.3 Q12.55 -17.9 12.55 -15.15 12.55 -11.65 10.85 -9.45 L10.2 -8.7 Q9.0 -7.5 7.7 -7.15 7.4 -7.15 4.95 -9.85 1.9 -12.7 -1.2 -13.3 L0.1 -11.55 Q1.25 -9.95 1.6 -8.65 L2.5 -4.6 -0.55 -3.9 -5.6 -3.25 -7.6 -3.45 -8.95 -3.7 Q-8.8 -2.6 -5.7 -0.85 -2.7 0.9 -1.1 0.9 -2.3 1.65 -3.65 4.5 -4.85 7.05 -4.85 8.15 L-4.75 8.8 -3.7 12.3 Q-2.6 15.4 -2.6 20.55 L-2.8 24.9 -2.85 24.9 Q-3.75 21.05 -7.65 15.0 L-7.95 14.55 -11.55 8.8 -11.25 8.25 -10.05 6.2 -8.75 3.8 -12.4 5.9 -14.1 6.9 -16.1 8.15 Q-16.85 8.8 -19.05 12.6 L-21.15 15.95 -21.2 14.3 -20.1 3.55 Q-19.55 1.85 -18.8 1.0 L-18.35 0.5 Q-17.8 0.2 -17.5 0.05 -17.8 0.2 -18.35 0.5 L-18.95 0.75 -17.5 0.05 -17.5 0.0 -16.85 -0.35 -14.0 -2.1 Q-17.0 -0.8 -19.3 -0.2 L-19.35 -0.2 -25.15 0.6 -26.15 0.6 -26.45 0.35 Q-26.25 0.35 -26.2 0.25 L-26.15 0.1 Q-24.0 0.65 -19.95 -3.0 L-18.95 -3.95 Q-14.2 -8.65 -10.75 -10.95 L-10.6 -11.0 -10.6 -11.3 -10.75 -10.95 -20.0 -8.85 -18.7 -10.1 -18.5 -10.3 Q-14.8 -13.85 -12.4 -15.35 -7.15 -18.65 -1.4 -18.15 2.3 -17.9 5.45 -15.45 L7.1 -16.85 Q8.45 -18.15 8.9 -19.0 9.5 -20.3 9.45 -21.95 L9.05 -24.95 9.55 -24.65 M9.6 -11.9 Q8.5 -12.55 5.7 -15.3 L5.45 -15.45 5.7 -15.3 Q8.5 -12.55 9.6 -11.9 M6.55 -1.05 Q10.15 -3.0 11.05 -3.0 14.25 -3.0 16.2 0.35 17.75 3.05 17.85 6.2 L17.85 6.75 Q15.5 4.15 11.7 1.65 8.85 -0.3 7.0 -0.9 L6.55 -1.05 M2.35 4.5 Q2.65 6.05 3.55 8.2 L6.05 13.4 5.3 13.4 Q3.8 13.15 2.5 11.6 L1.45 10.0 1.6 9.45 1.75 8.75 2.35 4.5 M-19.5 1.0 L-19.65 1.05 -21.65 1.65 -19.5 1.0" fill="#ffffff" fill-rule="evenodd" stroke="none"/>
    <path d="M9.55 -24.65 Q11.9 -23.25 13.55 -21.25 16.45 -17.9 16.55 -13.65 16.6 -11.95 16.1 -10.35 L21.45 -11.85 26.4 -13.15 Q26.35 -10.3 21.8 -7.45 17.3 -4.65 13.45 -5.0 L13.6 -4.85 13.65 -4.75 Q16.05 -4.3 19.05 0.05 22.5 5.0 22.55 10.55 L22.35 14.6 Q20.2 13.2 18.4 12.15 16.4 11.0 14.6 10.5 L14.35 10.45 11.8 10.05 10.05 10.25 13.85 13.95 Q16.65 16.45 18.25 16.65 L18.25 16.7 12.4 17.1 Q5.8 17.0 3.7 16.2 1.2 15.25 0.1 12.25 0.2 14.95 -0.1 18.0 -0.7 23.75 -2.8 24.9 L-2.6 20.55 Q-2.6 15.4 -3.7 12.3 L-4.75 8.8 -4.85 8.15 Q-4.85 7.05 -3.65 4.5 -2.3 1.65 -1.1 0.9 -2.7 0.9 -5.7 -0.85 -8.8 -2.6 -8.95 -3.7 L-7.6 -3.45 -5.6 -3.25 -0.55 -3.9 2.5 -4.6 1.6 -8.65 Q1.25 -9.95 0.1 -11.55 L-1.2 -13.3 Q1.9 -12.7 4.95 -9.85 7.4 -7.15 7.7 -7.15 9.0 -7.5 10.2 -8.7 L10.85 -9.45 Q12.55 -11.65 12.55 -15.15 12.55 -17.9 10.95 -21.3 L9.55 -24.65 M-0.15 11.2 L0.1 12.25 -0.15 11.2 M-26.15 0.6 L-25.15 0.6 -19.35 -0.2 -19.3 -0.2 Q-17.0 -0.8 -14.0 -2.1 L-16.85 -0.35 -17.5 0.0 -17.5 0.05 -18.95 0.75 -19.35 0.95 -19.45 1.0 -19.5 1.0 -21.65 1.65 -22.4 1.75 Q-24.85 1.6 -26.15 0.6 M-21.15 15.95 L-19.05 12.6 Q-16.85 8.8 -16.1 8.15 L-14.1 6.9 -12.4 5.9 -8.75 3.8 -10.05 6.2 -11.25 8.25 -11.55 8.8 -11.85 8.3 -12.3 8.9 Q-15.1 12.1 -18.55 14.35 L-21.05 16.25 -21.15 16.1 -21.15 15.95 M2.35 4.5 L1.75 8.75 1.6 9.45 1.45 10.0 2.5 11.6 Q3.8 13.15 5.3 13.4 L6.05 13.4 3.55 8.2 Q2.65 6.05 2.35 4.5 M6.55 -1.05 L7.0 -0.9 Q8.85 -0.3 11.7 1.65 15.5 4.15 17.85 6.75 L17.85 6.2 Q17.75 3.05 16.2 0.35 14.25 -3.0 11.05 -3.0 10.15 -3.0 6.55 -1.05" fill="#d6baba" fill-rule="evenodd" stroke="none"/>
    <path d="M18.25 16.65 Q16.65 16.45 13.85 13.95 L10.05 10.25 11.8 10.05 14.35 10.45 14.6 10.5 Q16.4 11.0 18.4 12.15 20.2 13.2 22.35 14.6 L22.55 10.55 Q22.5 5.0 19.05 0.05 16.05 -4.3 13.65 -4.75 L13.6 -4.85 13.45 -5.0 Q17.3 -4.65 21.8 -7.45 26.35 -10.3 26.4 -13.15 L21.45 -11.85 16.1 -10.35 Q16.6 -11.95 16.55 -13.65 16.45 -17.9 13.55 -21.25 11.9 -23.25 9.55 -24.65 L9.05 -24.95 9.45 -21.95 Q9.5 -20.3 8.9 -19.0 8.45 -18.15 7.1 -16.85 L5.45 -15.45 Q2.3 -17.9 -1.4 -18.15 -7.15 -18.65 -12.4 -15.35 -14.8 -13.85 -18.5 -10.3 L-18.7 -10.1 -20.0 -8.85 -10.75 -10.95 Q-14.2 -8.65 -18.95 -3.95 L-19.95 -3.0 Q-24.0 0.65 -26.15 0.1 L-26.2 0.25 Q-26.25 0.35 -26.45 0.35 L-26.15 0.6 M-2.8 24.9 Q-0.7 23.75 -0.1 18.0 0.2 14.95 0.1 12.25 L-0.15 11.2 M5.45 -15.45 L5.7 -15.3 Q8.5 -12.55 9.6 -11.9 M-10.6 -11.0 L-10.75 -10.95 M-17.5 0.0 L-17.5 0.05 Q-17.8 0.2 -18.35 0.5 L-18.8 1.0 Q-19.55 1.85 -20.1 3.55 L-21.2 14.3 -21.15 15.95 M-11.55 8.8 L-7.95 14.55 -7.65 15.0 Q-3.75 21.05 -2.85 24.9 L-2.8 24.9 M0.1 12.25 Q1.2 15.25 3.7 16.2 5.8 17.0 12.4 17.1 L18.25 16.7 M-21.65 1.65 L-19.65 1.05 -19.5 1.0 -19.45 1.0 -19.35 0.95 -18.95 0.75 -18.35 0.5 M-21.65 1.65 L-22.4 1.75 Q-24.85 1.6 -26.15 0.6 M-11.55 8.8 L-11.85 8.3 -12.3 8.9 Q-15.1 12.1 -18.55 14.35 L-21.05 16.25 M-21.15 16.1 L-21.15 15.95" fill="none" stroke="#000000" stroke-linecap="round" stroke-linejoin="round" stroke-opacity="0.3019608" stroke-width="0.05"/>
  </g>
</svg>
