<?xml version="1.0" encoding="UTF-8" standalone="no"?>
<svg xmlns:xlink="http://www.w3.org/1999/xlink" height="41.35px" width="52.15px" xmlns="http://www.w3.org/2000/svg">
  <g transform="matrix(1.0, 0.0, 0.0, 1.0, 23.65, 20.7)">
    <path d="M-23.65 -7.55 L-20.75 -9.0 -17.35 -9.95 -8.3 -10.5 Q-1.65 -10.4 4.35 -8.1 8.2 -6.6 10.85 -5.25 L15.8 -1.3 Q16.25 -0.9 16.9 -0.6 20.15 -1.85 22.2 -4.25 22.65 -4.8 22.75 -5.7 25.05 -1.85 26.35 2.4 28.4 9.05 28.25 15.2 28.2 16.8 28.5 16.9 23.7 19.3 23.05 20.65 L22.2 14.8 Q21.8 12.35 20.9 10.15 19.75 7.55 18.25 5.05 16.8 2.5 14.85 0.55 L10.5 -3.25 5.45 -6.15 Q2.65 -7.35 -0.05 -8.05 L-5.55 -9.1 -11.05 -9.5 -15.9 -9.2 -20.7 -8.35 -23.65 -7.55" fill="#d6baba" fill-rule="evenodd" stroke="none"/>
    <path d="M22.75 -5.7 Q22.65 -4.8 22.2 -4.25 20.15 -1.85 16.9 -0.6 16.25 -0.9 15.8 -1.3 L10.85 -5.25 Q8.2 -6.6 4.35 -8.1 -1.65 -10.4 -8.3 -10.5 L-17.35 -9.95 -20.75 -9.0 -23.65 -7.55 Q-22.95 -10.55 -21.45 -12.65 L-20.75 -13.55 -19.75 -14.45 Q-18.45 -15.65 -16.1 -17.0 -13.7 -18.4 -11.05 -19.4 L-6.05 -20.55 -1.0 -20.7 Q4.2 -19.85 9.15 -17.9 13.5 -16.3 17.15 -12.85 L17.75 -12.25 18.95 -11.0 19.05 -10.85 19.75 -10.0 22.75 -5.7" fill="#ffffff" fill-rule="evenodd" stroke="none"/>
    <path d="M22.75 -5.7 L19.75 -10.0 19.05 -10.85 18.95 -11.0 17.75 -12.25 17.15 -12.85 Q13.5 -16.3 9.15 -17.9 4.2 -19.85 -1.0 -20.7 L-6.05 -20.55 -11.05 -19.4 Q-13.7 -18.4 -16.1 -17.0 -18.45 -15.65 -19.75 -14.45 L-20.75 -13.55 -21.45 -12.65 Q-22.95 -10.55 -23.65 -7.55 L-20.7 -8.35 -15.9 -9.2 -11.05 -9.5 -5.55 -9.1 -0.05 -8.05 Q2.65 -7.35 5.45 -6.15 L10.5 -3.25 14.85 0.55 Q16.8 2.5 18.25 5.05 19.75 7.55 20.9 10.15 21.8 12.35 22.2 14.8 L23.05 20.65 Q23.7 19.3 28.5 16.9 28.2 16.8 28.25 15.2 28.4 9.05 26.35 2.4 25.05 -1.85 22.75 -5.7 Z" fill="none" stroke="#000000" stroke-linecap="round" stroke-linejoin="round" stroke-opacity="0.3019608" stroke-width="0.05"/>
  </g>
</svg>
