<?xml version="1.0" encoding="UTF-8" standalone="no"?>
<svg xmlns:xlink="http://www.w3.org/1999/xlink" height="83.45px" width="102.65px" xmlns="http://www.w3.org/2000/svg">
  <g transform="matrix(1.0, 0.0, 0.0, 1.0, 26.2, 40.95)">
    <path d="M-25.9 -5.4 L-26.2 -6.4 Q-26.2 -7.25 -24.35 -11.15 L-21.8 -16.35 Q-21.05 -17.8 -20.25 -20.8 -19.35 -24.45 -19.5 -26.7 -19.15 -25.8 -18.75 -22.45 L-18.25 -18.05 Q-11.1 -27.8 4.65 -34.3 15.4 -38.75 28.3 -40.95 L29.85 -40.95 22.2 -36.8 15.0 -32.5 24.55 -33.7 40.2 -34.95 46.3 -34.7 54.95 -33.9 56.05 -33.8 Q47.7 -32.75 36.95 -29.4 L33.0 -28.1 Q20.35 -23.75 13.4 -18.7 L24.4 -21.3 32.0 -22.75 40.8 -23.65 42.65 -23.45 Q40.9 -23.45 36.8 -21.9 L27.9 -18.2 23.55 -16.15 20.2 -14.55 14.55 -11.6 16.4 -11.4 16.7 -11.4 17.7 -11.5 23.0 -12.35 23.85 -12.45 29.1 -13.25 29.3 -13.25 23.9 -9.1 18.85 -5.25 Q16.15 -3.25 13.45 -1.6 L6.75 2.0 -10.05 -2.45 Q-18.35 -4.45 -25.9 -5.4 M14.75 -32.5 L14.95 -32.5 15.0 -32.5 14.75 -32.5 M31.4 -12.7 L33.85 -14.25 Q37.05 -16.25 40.55 -17.8 L40.55 -17.9 40.8 -18.0 41.55 -18.15 55.65 -21.35 Q50.45 -18.0 44.8 -15.85 41.5 -14.55 38.05 -13.7 L32.6 -12.65 31.4 -12.7 M-18.65 -17.55 L-18.25 -18.05 -18.65 -17.55 M30.55 2.3 L25.65 3.4 22.55 3.9 17.65 4.75 13.65 3.95 17.4 1.35 32.0 1.9 30.55 2.3" fill="#ffffff" fill-rule="evenodd" stroke="none"/>
    <path d="M56.05 -33.8 L71.2 -32.0 62.0 -30.45 51.65 -28.1 Q52.9 -27.3 62.9 -26.4 L76.25 -25.5 76.3 -25.4 76.45 -25.3 Q70.0 -19.45 57.5 -13.95 L47.75 -10.05 51.95 -8.85 55.35 -7.75 57.25 -8.1 67.1 -9.95 Q65.0 -7.75 60.95 -5.35 L64.3 -2.95 66.85 -0.8 66.85 -0.6 63.1 -1.05 Q62.45 -1.05 57.1 0.75 53.35 2.0 51.55 2.75 L54.75 3.3 66.05 5.25 66.25 5.45 Q59.05 7.0 49.2 10.9 L45.25 12.5 47.1 12.9 55.25 13.3 55.35 13.35 55.45 13.55 46.95 17.0 41.0 19.05 Q43.35 20.7 45.0 22.65 50.05 28.6 51.65 30.2 L47.8 29.6 42.85 29.0 40.15 29.1 37.05 29.35 Q37.65 29.95 38.35 33.4 L39.0 37.95 38.85 39.5 38.65 40.25 Q36.05 36.4 32.7 34.0 28.8 31.25 24.6 30.95 L23.2 30.95 23.65 32.85 Q24.05 34.4 24.05 36.35 24.05 38.05 23.2 39.75 L22.3 41.65 22.15 41.65 Q22.3 39.75 20.45 37.25 L18.25 34.95 18.1 34.95 Q18.45 36.65 16.7 39.55 15.15 42.15 14.25 42.5 L16.35 30.05 Q16.6 28.3 18.85 25.4 20.65 23.1 20.9 19.75 L20.9 18.9 16.35 12.75 Q12.95 8.2 6.75 2.0 L13.45 -1.6 Q16.15 -3.25 18.85 -5.25 L23.9 -9.1 29.3 -13.25 29.1 -13.25 23.85 -12.45 23.0 -12.35 17.7 -11.5 16.7 -11.4 16.4 -11.4 14.55 -11.6 20.2 -14.55 23.55 -16.15 27.9 -18.2 36.8 -21.9 Q40.9 -23.45 42.65 -23.45 L40.8 -23.65 32.0 -22.75 24.4 -21.3 13.4 -18.7 Q20.35 -23.75 33.0 -28.1 L36.95 -29.4 Q47.7 -32.75 56.05 -33.8 M31.4 -12.7 L32.6 -12.65 38.05 -13.7 Q41.5 -14.55 44.8 -15.85 50.45 -18.0 55.65 -21.35 L41.55 -18.15 40.8 -18.0 40.55 -17.9 40.55 -17.8 Q37.05 -16.25 33.85 -14.25 L31.4 -12.7 M47.75 -10.05 L40.6 -7.4 41.7 -7.05 45.5 -6.7 55.35 -7.75 45.5 -6.7 41.7 -7.05 40.6 -7.4 47.75 -10.05 M60.95 -5.35 L55.25 -2.35 Q47.65 1.3 44.8 1.6 L51.55 2.75 44.8 1.6 Q47.65 1.3 55.25 -2.35 L60.95 -5.35 M30.55 2.3 L32.0 1.9 17.4 1.35 13.65 3.95 17.65 4.75 22.55 3.9 25.65 3.4 30.55 2.3 M45.25 12.5 Q40.7 14.4 36.7 16.35 L36.55 16.5 40.0 18.4 41.0 19.05 40.0 18.4 36.55 16.5 36.7 16.35 Q40.7 14.4 45.25 12.5" fill="#d6baba" fill-rule="evenodd" stroke="none"/>
    <path d="M-25.9 -5.4 L-26.2 -6.4 Q-26.2 -7.25 -24.35 -11.15 L-21.8 -16.35 Q-21.05 -17.8 -20.25 -20.8 -19.35 -24.45 -19.5 -26.7 -19.15 -25.8 -18.75 -22.45 L-18.25 -18.05 Q-11.1 -27.8 4.65 -34.3 15.4 -38.75 28.3 -40.95 L29.85 -40.95 22.2 -36.8 15.0 -32.5 24.55 -33.7 40.2 -34.95 46.3 -34.7 54.95 -33.9 56.05 -33.8 71.2 -32.0 62.0 -30.45 51.65 -28.1 Q52.9 -27.3 62.9 -26.4 L76.25 -25.5 76.3 -25.4 76.45 -25.3 Q70.0 -19.45 57.5 -13.95 L47.75 -10.05 51.95 -8.85 55.35 -7.75 57.25 -8.1 67.1 -9.95 67.3 -10.2 67.3 -10.0 67.1 -9.95 Q65.0 -7.75 60.95 -5.35 L64.3 -2.95 66.85 -0.8 66.85 -0.6 63.1 -1.05 Q62.45 -1.05 57.1 0.75 53.35 2.0 51.55 2.75 L54.75 3.3 66.05 5.25 66.25 5.45 Q59.05 7.0 49.2 10.9 L45.25 12.5 47.1 12.9 55.25 13.3 55.35 13.35 55.45 13.5 55.45 13.55 46.95 17.0 41.0 19.05 Q43.35 20.7 45.0 22.65 50.05 28.6 51.65 30.2 L47.8 29.6 42.85 29.0 40.15 29.1 37.05 29.35 Q37.65 29.95 38.35 33.4 L39.0 37.95 38.85 39.5 38.65 40.25 Q36.05 36.4 32.7 34.0 28.8 31.25 24.6 30.95 L23.2 30.95 23.65 32.85 Q24.05 34.4 24.05 36.35 24.05 38.05 23.2 39.75 L22.3 41.65 22.15 41.65 Q22.3 39.75 20.45 37.25 L18.25 34.95 18.1 34.95 Q18.45 36.65 16.7 39.55 15.15 42.15 14.25 42.5 L16.35 30.05 Q16.6 28.3 18.85 25.4 20.65 23.1 20.9 19.75 L20.9 18.9 M14.75 -32.5 L14.95 -32.5 15.0 -32.5 14.75 -32.5 M55.35 -7.75 L45.5 -6.7 41.7 -7.05 40.6 -7.4 47.75 -10.05 M51.55 2.75 L44.8 1.6 Q47.65 1.3 55.25 -2.35 L60.95 -5.35 M-18.25 -18.05 L-18.65 -17.55 M41.0 19.05 L40.0 18.4 36.55 16.5 36.7 16.35 Q40.7 14.4 45.25 12.5" fill="none" stroke="#000000" stroke-linecap="round" stroke-linejoin="round" stroke-opacity="0.3019608" stroke-width="0.05"/>
  </g>
</svg>
