<?xml version="1.0" encoding="UTF-8" standalone="no"?>
<svg xmlns:xlink="http://www.w3.org/1999/xlink" height="20.1px" width="50.2px" xmlns="http://www.w3.org/2000/svg">
  <g transform="matrix(1.0, 0.0, 0.0, 1.0, 25.1, 10.05)">
    <path d="M13.3 5.3 L13.55 5.3 Q14.95 4.9 18.65 2.05 22.3 -0.85 22.35 3.0 22.35 6.85 25.1 7.9 24.5 8.5 23.05 9.2 21.25 10.05 19.9 10.05 17.85 10.05 15.7 8.65 13.4 7.15 13.2 5.35 L13.3 5.3 M-15.15 2.0 L-14.7 2.0 Q-7.45 2.2 -2.6 6.3 -3.15 6.45 -5.15 7.35 -7.45 8.25 -9.8 8.25 -12.0 8.25 -12.9 7.7 -13.9 7.05 -15.15 4.8 L-15.15 2.0 M-21.95 -5.3 Q-16.9 -5.3 -14.55 -10.05 -14.0 -8.9 -16.05 -3.1 -18.8 -1.6 -19.65 -1.6 -21.8 -1.6 -23.6 -3.4 -25.25 -5.0 -25.1 -6.15 L-24.85 -6.15 Q-24.45 -5.6 -23.75 -5.4 L-21.95 -5.3" fill="#d6baba" fill-rule="evenodd" stroke="none"/>
    <path d="M13.3 5.3 L13.55 5.3 Q14.95 4.9 18.65 2.05 22.3 -0.85 22.35 3.0 22.35 6.85 25.1 7.9 24.5 8.5 23.05 9.2 21.25 10.05 19.9 10.05 17.85 10.05 15.7 8.65 13.4 7.15 13.2 5.35 M-21.95 -5.3 L-23.75 -5.4 Q-24.45 -5.6 -24.85 -6.15 L-25.1 -6.15 Q-25.25 -5.0 -23.6 -3.4 -21.8 -1.6 -19.65 -1.6 -18.8 -1.6 -16.05 -3.1 -14.0 -8.9 -14.55 -10.05 -16.9 -5.3 -21.95 -5.3 M-15.15 2.0 L-15.15 4.8 Q-13.9 7.05 -12.9 7.7 -12.0 8.25 -9.8 8.25 -7.45 8.25 -5.15 7.35 -3.15 6.45 -2.6 6.3 -7.45 2.2 -14.7 2.0 L-15.15 2.0" fill="none" stroke="#000000" stroke-linecap="round" stroke-linejoin="round" stroke-opacity="0.3019608" stroke-width="0.05"/>
    <path d="M13.2 5.35 L13.2 5.3 13.3 5.3 Z" fill="none" stroke="#ff0000" stroke-linecap="round" stroke-linejoin="round" stroke-width="0.05"/>
  </g>
</svg>
