<?xml version="1.0" encoding="UTF-8" standalone="no"?>
<svg xmlns:xlink="http://www.w3.org/1999/xlink" height="15.85px" width="23.15px" xmlns="http://www.w3.org/2000/svg">
  <g transform="matrix(1.0, 0.0, 0.0, 1.0, 11.55, 5.5)">
    <path d="M6.35 -3.2 L6.5 -3.15 6.55 -3.25 6.6 -3.25 6.6 -3.3 6.85 -3.25 7.45 -3.1 8.25 -2.85 8.35 -2.75 8.75 -2.45 9.0 -2.35 9.35 -2.2 9.4 -2.15 9.6 -1.95 9.8 -1.75 9.85 -1.75 11.3 0.95 Q11.8 2.75 11.4 4.4 L8.45 5.2 Q5.2 5.8 2.25 4.65 L1.2 4.2 -0.45 3.8 -0.75 3.75 0.0 3.15 Q1.05 2.6 0.15 1.9 L-0.1 1.9 -0.85 2.7 -2.4 2.95 -3.3 3.05 -5.75 3.4 -7.9 3.55 -5.65 2.45 -3.85 1.7 -2.15 0.8 -1.9 0.7 -1.2 0.4 -0.9 0.1 -0.7 -0.05 -0.7 -0.15 -0.7 -0.3 -0.85 -0.5 -2.65 -0.2 -4.45 0.2 -6.3 0.7 -8.2 1.2 -10.2 1.7 -11.4 1.9 -11.55 1.45 -11.5 0.95 -11.3 0.65 -11.3 0.6 Q-10.15 -0.15 -8.85 -0.6 L-5.2 -1.7 -0.75 -2.1 -0.4 -2.15 -0.3 -2.2 0.1 -2.25 0.5 -2.75 0.75 -3.3 0.6 -3.4 -1.25 -3.5 -2.55 -3.8 -3.55 -3.85 -4.55 -3.9 -5.55 -3.8 -6.65 -3.75 -7.65 -3.55 -8.7 -3.3 -9.7 -2.95 -10.8 -2.55 -10.65 -3.35 -9.85 -4.4 -9.3 -4.75 -7.75 -5.5 1.75 -5.15 1.75 -5.1 2.05 -5.0 2.85 -4.9 2.9 -4.9 4.4 -3.95 Q5.4 -3.5 6.35 -3.2 M9.0 -2.35 L8.65 -2.45 6.5 -3.15 8.65 -2.45 9.0 -2.35 M-2.55 7.15 Q-3.2 8.1 -4.2 8.8 L-5.15 9.2 -4.65 7.85 -3.75 6.6 -2.3 6.7 -2.55 7.15" fill="#ffffff" fill-rule="evenodd" stroke="none"/>
    <path d="M11.4 4.4 L11.35 4.65 10.3 6.75 10.15 7.0 9.75 7.4 9.35 7.75 7.75 8.35 7.1 8.6 4.4 8.8 Q2.5 8.15 0.95 7.4 L-0.2 6.8 -1.65 7.6 -2.35 8.45 -3.1 9.2 Q-3.8 9.75 -4.55 10.15 L-5.2 10.35 -6.15 9.65 -6.25 9.35 -6.4 9.25 -4.6 6.25 -3.85 5.1 -3.9 5.1 -4.65 5.35 -5.15 5.5 -6.35 5.65 -7.15 5.65 -8.8 5.2 Q-9.75 4.8 -9.9 4.2 L-9.6 2.9 -10.6 2.65 -11.4 1.9 -10.2 1.7 -8.2 1.2 -6.3 0.7 -4.45 0.2 -2.65 -0.2 -0.85 -0.5 -0.7 -0.3 -0.7 -0.15 -0.7 -0.05 -0.9 0.1 -1.2 0.4 -1.9 0.7 -2.15 0.8 -3.85 1.7 -5.65 2.45 -7.9 3.55 -5.75 3.4 -3.3 3.05 -2.4 2.95 -0.85 2.7 -0.1 1.9 0.15 1.9 Q1.05 2.6 0.0 3.15 L-0.75 3.75 -0.45 3.8 1.2 4.2 2.25 4.65 Q5.2 5.8 8.45 5.2 L11.4 4.4 M-5.2 -1.7 L-7.8 -1.5 -10.6 -1.65 -10.75 -1.9 -10.9 -2.45 -10.8 -2.55 -9.7 -2.95 -8.7 -3.3 -7.65 -3.55 -6.65 -3.75 -5.55 -3.8 -4.55 -3.9 -3.55 -3.85 -2.55 -3.8 -1.25 -3.5 0.6 -3.4 0.75 -3.3 0.5 -2.75 0.1 -2.25 -0.3 -2.2 -0.4 -2.15 -0.75 -2.1 -5.2 -1.7 M-9.6 2.9 L-2.15 0.8 -9.6 2.9 M-0.3 -2.2 L-0.75 -2.1 -0.3 -2.2 M-3.15 4.7 L-3.85 5.1 -3.15 4.7 M-2.55 7.15 L-2.3 6.7 -3.75 6.6 -4.65 7.85 -5.15 9.2 -4.2 8.8 Q-3.2 8.1 -2.55 7.15" fill="#d6baba" fill-rule="evenodd" stroke="none"/>
    <path d="M2.9 -4.9 L4.4 -4.0 6.35 -3.2 6.5 -3.15 8.65 -2.45 9.0 -2.35 9.35 -2.2 9.4 -2.15 M9.6 -1.95 L9.8 -1.75 M9.35 7.75 L7.75 8.35 7.1 8.6 4.4 8.8 Q2.5 8.15 0.95 7.4 L-0.2 6.8 -1.65 7.6 -2.35 8.45 -3.1 9.2 Q-3.8 9.75 -4.55 10.15 L-5.2 10.35 -6.15 9.65 -6.25 9.35 -6.4 9.25 -4.6 6.25 -3.85 5.1 -3.9 5.1 -4.65 5.35 -5.15 5.5 -6.35 5.65 -7.15 5.65 -8.8 5.2 Q-9.75 4.8 -9.9 4.2 L-9.6 2.9 -10.6 2.65 -11.4 1.9 -11.55 1.45 -11.5 0.95 -11.3 0.65 -11.3 0.6 Q-10.15 -0.15 -8.85 -0.6 L-5.2 -1.7 -7.8 -1.5 -10.6 -1.65 -10.75 -1.9 -10.9 -2.45 -10.65 -3.35 -9.85 -4.4 -9.3 -4.75 -7.75 -5.5 1.75 -5.15 M1.75 -5.1 L2.05 -5.0 2.85 -4.9 2.9 -4.9 M-2.15 0.8 L-9.6 2.9 M-0.75 -2.1 L-0.3 -2.2 0.1 -2.25 M-5.2 -1.7 L-0.75 -2.1 M-2.15 0.8 L-1.9 0.7 -1.2 0.4 M-3.85 5.1 L-3.15 4.7" fill="none" stroke="#000000" stroke-linecap="round" stroke-linejoin="round" stroke-opacity="0.3019608" stroke-width="0.05"/>
  </g>
</svg>
