<?xml version="1.0" encoding="UTF-8" standalone="no"?>
<svg xmlns:xlink="http://www.w3.org/1999/xlink" height="18.25px" width="13.85px" xmlns="http://www.w3.org/2000/svg">
  <g transform="matrix(1.0, 0.0, 0.0, 1.0, 6.9, 9.15)">
    <path d="M-5.05 -7.45 Q-4.35 -8.7 -3.65 -9.15 -2.25 -8.95 -0.7 -8.2 0.8 -7.5 1.5 -6.7 L5.3 -3.8 Q6.5 -2.6 6.8 -0.3 7.25 2.95 6.35 4.9 L5.75 6.05 3.65 6.25 Q1.35 6.25 -1.15 4.65 -3.85 2.9 -3.75 0.9 L-3.6 0.7 -4.7 0.6 -6.3 0.7 -6.3 0.3 -6.5 -1.1 -6.65 -1.75 -6.5 -1.8 -4.85 -2.15 -3.7 -2.35 -3.05 -2.65 -3.2 -2.7 -3.55 -2.75 -5.3 -3.0 -6.05 -2.95 -5.75 -5.2 -5.7 -5.25 -3.15 -5.1 -2.45 -5.1 -1.85 -5.1 -2.45 -5.85 -3.45 -6.65 -5.05 -7.45" fill="#d6baba" fill-rule="evenodd" stroke="none"/>
    <path d="M-5.05 -7.45 L-3.45 -6.65 -2.45 -5.85 -1.85 -5.1 -2.45 -5.1 -3.15 -5.1 -5.7 -5.25 -5.7 -5.45 Q-5.75 -6.15 -5.15 -7.25 L-5.15 -7.3 -5.05 -7.45 M-6.05 -2.95 L-5.3 -3.0 -3.55 -2.75 -3.2 -2.7 -3.05 -2.65 -3.7 -2.35 -4.85 -2.15 -6.5 -1.8 Q-6.2 -2.1 -6.05 -2.95 M-6.3 0.7 L-4.7 0.6 -3.6 0.7 -3.75 0.9 Q-3.85 2.9 -1.15 4.65 1.35 6.25 3.65 6.25 L5.75 6.05 5.0 7.25 4.45 7.65 2.75 8.65 Q0.9 9.65 -1.8 8.4 L-4.65 5.65 -5.1 5.65 -5.85 5.8 -6.05 5.8 Q-6.0 5.2 -6.35 4.1 L-6.9 2.35 -6.8 2.3 Q-6.35 2.0 -6.3 0.7 M-5.6 2.0 L-6.8 2.3 -5.6 2.0 M-3.75 4.05 L-4.9 5.55 -5.1 5.65 -4.9 5.55 -3.75 4.05 M-2.65 5.2 L-4.65 5.65 -2.65 5.2" fill="#a78383" fill-rule="evenodd" stroke="none"/>
    <path d="M5.75 6.05 L6.35 4.9 Q7.25 2.95 6.8 -0.3 6.5 -2.6 5.3 -3.8 L1.5 -6.7 Q0.8 -7.5 -0.7 -8.2 -2.25 -8.95 -3.65 -9.15 -4.35 -8.7 -5.05 -7.45 L-5.15 -7.3 -5.15 -7.25 Q-5.75 -6.15 -5.7 -5.45 L-5.7 -5.25 M-3.15 -5.1 L-5.7 -5.25 M-5.75 -5.2 L-6.05 -2.95 Q-6.2 -2.1 -6.5 -1.8 L-6.65 -1.75 -6.5 -1.1 -6.3 0.3 -6.3 0.7 M-4.85 -2.15 L-6.5 -1.8 M5.75 6.05 L5.0 7.25 4.45 7.65 2.75 8.65 Q0.9 9.65 -1.8 8.4 L-4.65 5.65 -5.1 5.65 -5.85 5.8 -6.05 5.8 Q-6.0 5.2 -6.35 4.1 L-6.9 2.35 -6.8 2.3 Q-6.35 2.0 -6.3 0.7 M-5.7 -5.45 L-5.75 -5.2 M-4.65 5.65 L-2.65 5.2 M-5.1 5.65 L-4.9 5.55 -3.75 4.05 M-6.8 2.3 L-5.6 2.0" fill="none" stroke="#000000" stroke-linecap="round" stroke-linejoin="round" stroke-opacity="0.4" stroke-width="0.05"/>
  </g>
</svg>
