<?xml version="1.0" encoding="UTF-8" standalone="no"?>
<svg xmlns:xlink="http://www.w3.org/1999/xlink" height="18.25px" width="13.85px" xmlns="http://www.w3.org/2000/svg">
  <g transform="matrix(1.0, 0.0, 0.0, 1.0, 6.9, 9.15)">
    <path d="M5.75 6.05 L5.0 7.25 4.45 7.65 4.3 7.75 2.75 8.65 -0.8 8.8 -1.8 8.4 -4.65 5.65 -4.75 5.7 -5.1 5.65 -5.85 5.8 -6.05 5.8 Q-6.0 5.2 -6.35 4.1 L-6.9 2.35 -6.8 2.3 Q-6.35 2.0 -6.3 0.7 L-4.6 0.6 -3.6 0.7 -3.75 0.9 -3.65 1.7 -4.45 1.65 -5.05 1.85 -5.2 2.25 -4.9 3.35 Q-4.65 4.1 -4.7 5.4 -4.65 4.1 -4.9 3.35 L-5.2 2.25 -5.05 1.85 -4.45 1.65 -3.65 1.7 Q-3.35 3.05 -1.65 4.3 L-1.15 4.65 -0.4 5.1 -1.55 7.1 -1.65 6.7 -1.8 5.75 -1.65 4.3 -1.8 5.75 -1.65 6.7 -1.55 7.1 -0.4 5.1 Q1.7 6.25 3.65 6.25 L4.2 6.2 5.75 6.05 M-6.5 -1.8 Q-6.2 -2.1 -6.05 -2.95 L-5.3 -3.0 -4.4 -2.85 -3.55 -2.75 -3.2 -2.7 -3.05 -2.65 -3.7 -2.35 -4.65 -2.15 -4.4 -2.85 -4.65 -2.15 -4.85 -2.15 -6.5 -1.8 M-5.7 -5.45 Q-5.75 -6.15 -5.15 -7.25 L-5.15 -7.3 -5.05 -7.45 -3.45 -6.65 -2.65 -6.05 -3.15 -5.1 -2.65 -6.05 -2.45 -5.85 -1.85 -5.1 -2.45 -5.1 -2.8 -5.1 -3.1 -5.1 -3.15 -5.1 -5.7 -5.25 -5.7 -5.45 M-4.6 0.6 L-5.05 1.85 -4.6 0.6 M-2.65 5.2 L-4.65 5.65 -2.65 5.2 M-3.75 4.05 L-4.7 5.4 -3.75 4.05 M-4.75 5.7 L-4.7 5.4 -4.75 5.7 M-4.7 5.4 L-4.9 5.55 -5.1 5.65 -4.9 5.55 -4.7 5.4 M4.3 7.75 L4.2 6.2 4.3 7.75 M-0.8 8.8 L-1.15 8.1 -1.55 7.1 -1.15 8.1 -0.8 8.8 M-5.05 1.85 L-6.8 2.3 -5.05 1.85" fill="#dbc7c6" fill-rule="evenodd" stroke="none"/>
    <path d="M1.85 -6.35 Q2.8 -5.5 5.3 -3.8 6.5 -2.6 6.8 -0.3 7.25 2.95 6.35 4.9 L5.75 6.05 4.2 6.2 Q4.2 4.65 3.45 1.95 2.75 -0.65 1.9 -2.0 L2.1 -4.85 1.85 -6.35 2.1 -4.85 1.9 -2.0 Q2.75 -0.65 3.45 1.95 4.2 4.65 4.2 6.2 L3.65 6.25 Q1.7 6.25 -0.4 5.1 L-1.15 4.65 -1.65 4.3 -1.5 2.0 -1.5 0.3 -1.75 -2.5 Q-1.75 -3.7 -2.8 -5.1 -1.75 -3.7 -1.75 -2.5 L-1.5 0.3 -1.5 2.0 -1.65 4.3 Q-3.35 3.05 -3.65 1.7 L-3.75 0.9 -3.6 0.7 -4.6 0.6 -4.35 -0.55 Q-4.35 -1.1 -4.65 -2.1 L-4.65 -2.15 -4.65 -2.1 Q-4.35 -1.1 -4.35 -0.55 L-4.6 0.6 -6.3 0.7 -6.3 0.3 -6.5 -1.1 -6.65 -1.75 -6.5 -1.8 -4.85 -2.15 -4.65 -2.15 -3.7 -2.35 -3.05 -2.65 -3.2 -2.7 -3.55 -2.75 -4.4 -2.85 -5.3 -3.0 -6.05 -2.95 -5.75 -5.2 -5.7 -5.25 -3.15 -5.1 -3.1 -5.1 -2.8 -5.1 -2.45 -5.1 -1.85 -5.1 -2.45 -5.85 -2.65 -6.05 -3.45 -6.65 -5.05 -7.45 Q-4.35 -8.7 -3.65 -9.15 -2.25 -8.95 -0.7 -8.2 L-0.5 -8.1 Q0.85 -7.45 1.5 -6.7 L1.65 -6.55 1.85 -6.35 M-0.5 -8.1 Q-1.55 -7.85 -2.2 -6.9 L-2.65 -6.05 -2.2 -6.9 Q-1.55 -7.85 -0.5 -8.1 M-2.8 -5.1 L-3.1 -5.05 -3.1 -5.1 -3.1 -5.05 -2.8 -5.1 M1.9 -2.0 Q1.6 0.45 0.65 2.7 L-0.4 5.1 0.65 2.7 Q1.6 0.45 1.9 -2.0 M-4.4 -2.85 L-4.15 -3.45 Q-3.6 -4.65 -3.1 -5.05 L-3.15 -5.1 -3.1 -5.05 Q-3.6 -4.65 -4.15 -3.45 L-4.4 -2.85 M-1.5 2.0 L-3.65 1.7 -1.5 2.0" fill="#ffffff" fill-rule="evenodd" stroke="none"/>
    <path d="M1.85 -6.35 Q2.8 -5.5 5.3 -3.8 6.5 -2.6 6.8 -0.3 7.25 2.95 6.35 4.9 L5.75 6.05 5.0 7.25 4.45 7.65 4.3 7.75 2.75 8.65 -0.8 8.8 -1.8 8.4 -4.65 5.65 -4.75 5.7 -5.1 5.65 -5.85 5.8 -6.05 5.8 Q-6.0 5.2 -6.35 4.1 L-6.9 2.35 -6.8 2.3 Q-6.35 2.0 -6.3 0.7 L-6.3 0.3 -6.5 -1.1 -6.65 -1.75 -6.5 -1.8 Q-6.2 -2.1 -6.05 -2.95 L-5.75 -5.2 -5.7 -5.45 Q-5.75 -6.15 -5.15 -7.25 L-5.15 -7.3 -5.05 -7.45 Q-4.35 -8.7 -3.65 -9.15 -2.25 -8.95 -0.7 -8.2 L-0.5 -8.1 Q0.85 -7.45 1.5 -6.7 L1.65 -6.55 M-5.7 -5.25 L-5.7 -5.45 M-5.7 -5.25 L-3.15 -5.1 M-6.5 -1.8 L-4.85 -2.15 M-4.7 5.4 L-3.75 4.05 M-4.65 5.65 L-2.65 5.2 M-5.1 5.65 L-4.9 5.55 -4.7 5.4 M-6.8 2.3 L-5.05 1.85" fill="none" stroke="#000000" stroke-linecap="round" stroke-linejoin="round" stroke-opacity="0.4" stroke-width="0.05"/>
    <path d="M1.65 -6.55 L1.85 -6.35 2.1 -4.85 1.9 -2.0 Q2.75 -0.65 3.45 1.95 4.2 4.65 4.2 6.2 L4.3 7.75 M-2.65 -6.05 L-2.2 -6.9 Q-1.55 -7.85 -0.5 -8.1 M-3.15 -5.1 L-2.65 -6.05 M-2.8 -5.1 Q-1.75 -3.7 -1.75 -2.5 L-1.5 0.3 -1.5 2.0 -1.65 4.3 -1.8 5.75 -1.65 6.7 -1.55 7.1 -0.4 5.1 0.65 2.7 Q1.6 0.45 1.9 -2.0 M-3.1 -5.1 L-3.1 -5.05 -2.8 -5.1 M-3.15 -5.1 L-3.1 -5.05 Q-3.6 -4.65 -4.15 -3.45 L-4.4 -2.85 M-4.65 -2.15 L-4.65 -2.1 Q-4.35 -1.1 -4.35 -0.55 L-4.6 0.6 M-3.65 1.7 L-1.5 2.0 M-4.65 -2.15 L-4.4 -2.85 M-5.05 1.85 L-4.6 0.6 M-3.65 1.7 L-4.45 1.65 -5.05 1.85 -5.2 2.25 -4.9 3.35 Q-4.65 4.1 -4.7 5.4 L-4.75 5.7 M-1.55 7.1 L-1.15 8.1 -0.8 8.8" fill="none" stroke="#000000" stroke-linecap="round" stroke-linejoin="round" stroke-opacity="0.3019608" stroke-width="0.05"/>
  </g>
</svg>
