<?xml version="1.0" encoding="UTF-8" standalone="no"?>
<svg xmlns:xlink="http://www.w3.org/1999/xlink" height="16.25px" width="24.6px" xmlns="http://www.w3.org/2000/svg">
  <g transform="matrix(1.0, 0.0, 0.0, 1.0, 12.5, 5.35)">
    <path d="M-8.85 -2.4 L-9.0 -1.9 -9.85 0.55 -10.9 0.95 Q-11.8 1.5 -12.15 2.3 -11.75 0.15 -10.05 -1.45 L-8.85 -2.4 M6.6 -4.6 L6.4 -4.8 6.75 -5.35 9.7 -4.3 11.45 -3.25 12.0 -2.35 12.05 -0.6 11.45 1.05 9.85 3.55 Q6.5 7.8 0.8 9.95 L0.75 9.95 Q-3.35 11.45 -6.5 10.6 -4.85 10.9 -2.55 10.05 1.55 8.5 1.25 7.15 1.15 6.9 1.55 5.9 1.9 4.85 2.85 4.55 L4.35 3.9 Q6.4 0.3 7.8 -0.25 9.2 -0.8 7.9 -1.85 L6.6 -4.6" fill="#764701" fill-rule="evenodd" stroke="none"/>
    <path d="M-9.0 -1.9 Q-7.6 -3.05 -5.65 -3.25 L-0.35 -4.05 4.65 -4.4 6.6 -4.6 7.9 -1.85 Q9.2 -0.8 7.8 -0.25 6.4 0.3 4.35 3.9 L2.85 4.55 Q1.9 4.85 1.55 5.9 1.15 6.9 1.25 7.15 1.55 8.5 -2.55 10.05 -4.85 10.9 -6.5 10.6 L-7.4 10.4 Q-9.35 9.6 -10.45 8.65 -11.45 8.05 -11.8 7.15 -12.4 6.2 -12.45 4.9 -12.65 3.8 -12.15 2.3 -11.8 1.5 -10.9 0.95 L-9.85 0.55 -9.0 -1.9" fill="#996600" fill-rule="evenodd" stroke="none"/>
    <path d="M6.75 -5.35 L9.7 -4.3 11.45 -3.25 12.0 -2.35 12.05 -0.6 11.45 1.05 9.85 3.55 Q6.5 7.8 0.8 9.95 L0.75 9.95 Q-3.35 11.45 -6.5 10.6 L-7.4 10.4 Q-9.35 9.6 -10.45 8.65 -11.45 8.05 -11.8 7.15 -12.4 6.2 -12.45 4.9 -12.65 3.8 -12.15 2.3 -11.75 0.15 -10.05 -1.45 L-8.85 -2.4" fill="none" stroke="#000000" stroke-linecap="round" stroke-linejoin="round" stroke-opacity="0.3019608" stroke-width="0.05"/>
  </g>
</svg>
