<?xml version="1.0" encoding="UTF-8" standalone="no"?>
<svg xmlns:xlink="http://www.w3.org/1999/xlink" height="28.0px" width="12.0px" xmlns="http://www.w3.org/2000/svg">
  <g transform="matrix(1.0, 0.0, 0.0, 1.0, 6.3, 1.45)">
    <path d="M3.7 0.7 Q4.3 1.25 4.6 2.1 L3.85 0.9 3.7 0.7 M-0.55 26.25 Q-2.8 25.8 -3.65 24.7 -4.4 23.85 -4.4 22.75 -4.2 10.2 -6.3 6.75 L-5.4 5.15 -5.0 3.6 -4.95 3.55 -3.7 3.3 Q-1.8 3.3 -0.15 6.15 L0.1 6.6 0.15 11.35 -0.1 22.1 -0.05 23.3 -0.5 24.65 -0.55 26.25" fill="#ffffff" fill-rule="evenodd" stroke="none"/>
    <path d="M3.7 0.7 L3.85 0.9 4.6 2.1 5.65 4.95 5.7 5.15 4.85 22.75 Q4.5 24.1 3.7 25.15 2.5 26.3 0.5 26.55 L0.25 26.45 -0.55 26.25 -0.5 24.65 -0.05 23.3 -0.1 22.1 0.15 11.35 0.1 6.6 -0.15 6.15 Q-1.8 3.3 -3.7 3.3 L-4.95 3.55 -5.0 3.6 -4.8 2.95 -4.4 2.0 -4.4 1.9 -4.35 1.75 -3.9 0.55 Q-3.4 -1.05 -0.1 -1.45 1.65 -1.2 2.95 -0.2 L3.6 0.55 3.7 0.7" fill="#d6baba" fill-rule="evenodd" stroke="none"/>
    <path d="M3.85 0.9 L4.6 2.1 5.65 4.95 5.7 5.15 4.85 22.75 Q4.5 24.1 3.7 25.15 M-3.65 24.7 Q-4.4 23.85 -4.4 22.75 -4.2 10.2 -6.3 6.75" fill="none" stroke="#000000" stroke-linecap="round" stroke-linejoin="round" stroke-opacity="0.3019608" stroke-width="0.05"/>
  </g>
</svg>
