<?xml version="1.0" encoding="UTF-8" standalone="no"?>
<svg xmlns:xlink="http://www.w3.org/1999/xlink" height="5.4px" width="5.45px" xmlns="http://www.w3.org/2000/svg">
  <g transform="matrix(1.0, 0.0, 0.0, 1.0, 2.7, 2.7)">
    <path d="M0.3 -2.65 L0.75 -2.3 Q1.25 -1.75 1.25 -1.1 1.25 -0.45 0.8 0.05 L0.55 0.25 Q-0.15 0.8 -1.0 0.8 L-1.1 0.8 -2.0 0.65 -2.7 -0.15 -2.65 -0.75 -2.6 -0.85 Q-2.25 -1.9 -1.4 -2.35 L-0.8 -2.6 -0.1 -2.7 0.3 -2.65" fill="#ffffff" fill-rule="evenodd" stroke="none"/>
    <path d="M0.3 -2.65 Q0.95 -2.5 1.65 -1.9 L2.5 -0.8 2.6 -0.65 2.7 -0.25 2.75 0.1 2.75 0.45 2.65 1.0 2.35 1.45 0.9 2.55 0.6 2.6 Q-0.55 2.8 -1.15 2.6 L-2.25 1.85 Q-2.7 1.2 -2.7 0.1 L-2.7 -0.15 -2.0 0.65 -1.1 0.8 -1.0 0.8 Q-0.15 0.8 0.55 0.25 L0.8 0.05 Q1.25 -0.45 1.25 -1.1 1.25 -1.75 0.75 -2.3 L0.3 -2.65" fill="#d6baba" fill-rule="evenodd" stroke="none"/>
    <path d="M-2.7 -0.15 L-2.7 0.1 Q-2.7 1.2 -2.25 1.85 L-1.15 2.6 Q-0.55 2.8 0.6 2.6 L0.9 2.55 2.35 1.45 2.65 1.0 2.75 0.45 2.75 0.1 2.7 -0.25 2.6 -0.65 2.5 -0.8 1.65 -1.9 Q0.95 -2.5 0.3 -2.65 M-2.7 -0.15 L-2.65 -0.75 -2.6 -0.85 Q-2.25 -1.9 -1.4 -2.35 L-0.8 -2.6 -0.1 -2.7 0.3 -2.65" fill="none" stroke="#000000" stroke-linecap="round" stroke-linejoin="round" stroke-opacity="0.3019608" stroke-width="0.05"/>
  </g>
</svg>
