<?xml version="1.0" encoding="UTF-8" standalone="no"?>
<svg xmlns:xlink="http://www.w3.org/1999/xlink" height="28.3px" width="15.15px" xmlns="http://www.w3.org/2000/svg">
  <g transform="matrix(1.0, 0.0, 0.0, 1.0, 7.6, 14.15)">
    <path d="M-1.3 -11.2 L-0.05 -12.6 Q0.9 -13.6 2.05 -14.0 2.8 -14.3 3.65 -14.0 L4.8 -13.75 6.2 -12.6 Q6.6 -11.65 6.5 -10.35 L6.45 -9.3 7.25 -10.15 Q7.8 -9.15 7.35 -6.95 L6.45 -3.4 5.65 -0.45 4.85 3.1 3.85 7.1 3.05 10.6 Q2.8 11.75 2.05 12.55 0.9 13.8 -1.05 14.15 -2.9 13.95 -4.15 13.2 -2.65 11.2 -2.25 8.9 L-1.7 5.9 -0.55 1.75 -0.25 0.95 Q0.75 -0.55 1.25 -2.3 L1.3 -3.1 1.1 -2.9 0.55 -2.35 -1.65 -0.4 -3.15 0.7 -3.3 0.85 -2.1 -0.85 Q-0.7 -2.85 0.15 -5.0 L1.3 -9.05 0.3 -10.2 -1.3 -11.2 M6.45 -9.3 L3.85 -5.9 1.3 -3.1 3.85 -5.9 6.45 -9.3" fill="#d6baba" fill-rule="evenodd" stroke="none"/>
    <path d="M-4.15 13.2 L-5.4 12.15 Q-6.9 10.5 -7.1 9.25 L-7.6 5.6 Q-7.7 4.35 -6.7 3.7 -6.75 1.4 -6.95 -0.85 -7.15 -3.15 -5.95 -5.15 L-3.1 -9.1 -1.4 -11.1 -1.3 -11.2 0.3 -10.2 1.3 -9.05 0.15 -5.0 Q-0.7 -2.85 -2.1 -0.85 L-3.3 0.85 -3.15 0.7 -1.65 -0.4 0.55 -2.35 1.1 -2.9 1.3 -3.1 1.25 -2.3 Q0.75 -0.55 -0.25 0.95 L-0.55 1.75 -1.7 5.9 -2.25 8.9 Q-2.65 11.2 -4.15 13.2 M-6.7 3.7 Q-5.1 2.1 -3.3 0.85 -5.1 2.1 -6.7 3.7" fill="#ffffff" fill-rule="evenodd" stroke="none"/>
    <path d="M-1.3 -11.2 L-0.05 -12.6 Q0.9 -13.6 2.05 -14.0 2.8 -14.3 3.65 -14.0 L4.8 -13.75 6.2 -12.6 Q6.6 -11.65 6.5 -10.35 L6.45 -9.3 7.25 -10.15 Q7.8 -9.15 7.35 -6.95 L6.45 -3.4 5.65 -0.45 4.85 3.1 3.85 7.1 3.05 10.6 Q2.8 11.75 2.05 12.55 0.9 13.8 -1.05 14.15 -2.9 13.95 -4.15 13.2 L-5.4 12.15 Q-6.9 10.5 -7.1 9.25 L-7.6 5.6 Q-7.7 4.35 -6.7 3.7 -6.75 1.4 -6.95 -0.85 -7.15 -3.15 -5.95 -5.15 L-3.1 -9.1 -1.4 -11.1 M-3.3 0.85 L-3.15 0.7 -1.65 -0.4 0.55 -2.35 1.1 -2.9 M1.3 -3.1 L3.85 -5.9 6.45 -9.3 M-3.3 0.85 Q-5.1 2.1 -6.7 3.7" fill="none" stroke="#000000" stroke-linecap="round" stroke-linejoin="round" stroke-opacity="0.3019608" stroke-width="0.05"/>
  </g>
</svg>
