<?xml version="1.0" encoding="UTF-8" standalone="no"?>
<svg xmlns:xlink="http://www.w3.org/1999/xlink" height="20.65px" width="18.45px" xmlns="http://www.w3.org/2000/svg">
  <g transform="matrix(1.0, 0.0, 0.0, 1.0, 20.05, 4.95)">
    <path d="M-1.95 -4.95 Q-1.75 -4.95 -1.75 -4.55 L-1.95 -4.0 Q-2.15 -4.1 -2.15 -4.35 L-2.2 -4.9 -1.95 -4.95 M-2.55 -1.85 L-2.25 -2.15 Q-2.0 -2.15 -1.8 -1.8 L-1.6 -1.25 -2.05 3.7 -2.35 4.95 -2.7 6.35 -3.1 7.35 -3.35 8.8 -3.55 8.95 -3.55 8.65 -3.65 8.35 -3.2 6.0 -3.3 5.7 -3.15 4.35 Q-3.0 3.7 -3.0 2.5 L-2.65 -0.75 -2.55 -1.85 M-19.05 14.4 L-18.75 14.65 -18.6 15.0 Q-18.6 15.7 -19.45 15.7 -19.65 15.7 -19.85 15.5 L-20.05 15.05 -19.8 14.55 -19.25 14.35 -19.05 14.4" fill="#ffffff" fill-rule="evenodd" stroke="none"/>
  </g>
</svg>
