<?xml version="1.0" encoding="UTF-8" standalone="no"?>
<svg xmlns:xlink="http://www.w3.org/1999/xlink" height="11.45px" width="21.85px" xmlns="http://www.w3.org/2000/svg">
  <g transform="matrix(1.0, 0.0, 0.0, 1.0, 10.95, 5.75)">
    <path d="M3.6 -3.8 L6.15 -0.85 10.9 5.7 Q8.35 3.25 5.75 2.3 L3.75 1.75 1.45 1.55 -0.5 1.8 -1.05 1.9 Q-2.4 -1.35 -4.8 -5.2 L-1.6 -5.75 0.15 -5.45 Q2.85 -4.3 3.6 -3.8" fill="#ffffff" fill-rule="evenodd" stroke="none"/>
    <path d="M-1.05 1.9 Q-5.2 2.7 -8.95 5.05 -9.9 0.5 -10.75 -2.2 L-10.95 -2.7 -10.5 -3.0 Q-7.3 -4.65 -4.8 -5.2 -2.4 -1.35 -1.05 1.9" fill="#d6baba" fill-rule="evenodd" stroke="none"/>
    <path d="M3.6 -3.8 L6.15 -0.85 10.9 5.7 M-8.95 5.05 Q-9.9 0.5 -10.75 -2.2 L-10.95 -2.7 -10.5 -3.0" fill="none" stroke="#000000" stroke-linecap="round" stroke-linejoin="round" stroke-opacity="0.3019608" stroke-width="0.05"/>
  </g>
</svg>
