<?xml version="1.0" encoding="UTF-8" standalone="no"?>
<svg xmlns:xlink="http://www.w3.org/1999/xlink" height="22.85px" width="21.7px" xmlns="http://www.w3.org/2000/svg">
  <g transform="matrix(1.0, 0.0, 0.0, 1.0, 10.85, 11.4)">
    <path d="M-1.6 -10.15 L4.35 -11.25 Q9.4 -11.95 10.85 -9.35 2.0 -5.2 0.25 1.3 L0.0 2.45 0.1 1.85 -1.0 1.75 -1.7 1.85 -3.75 1.95 -5.4 1.85 -7.4 2.1 -8.2 2.0 -8.25 2.0 -8.25 1.85 -8.1 0.9 Q-7.1 -5.65 -1.6 -10.15 -7.1 -5.65 -8.1 0.9 L-8.5 0.95 -9.95 1.0 -10.25 1.0 -10.35 1.4 Q-8.65 -6.05 -1.6 -10.15" fill="#dcd2c5" fill-rule="evenodd" stroke="none"/>
    <path d="M-8.1 0.9 L-8.25 1.85 -8.25 2.0 -8.2 2.0 -7.4 2.1 -5.4 1.85 -3.75 1.95 -1.7 1.85 -1.0 1.75 0.1 1.85 0.0 2.45 -0.15 3.0 -1.6 3.15 -4.4 3.65 -5.9 3.7 -8.35 3.75 -8.3 2.25 -8.45 2.25 -8.85 2.1 -9.0 2.2 -9.35 2.3 -10.5 2.25 -10.5 2.05 -10.35 1.4 -10.25 1.0 -9.95 1.0 -8.5 0.95 -8.1 0.9 M-8.25 2.0 L-8.3 2.25 -8.25 2.0" fill="#ffffff" fill-rule="evenodd" stroke="none"/>
    <path d="M-0.15 3.0 L-0.35 4.0 -0.4 4.0 -0.5 4.45 -0.45 4.45 -0.8 6.15 -1.0 7.75 -1.05 11.45 -4.9 10.6 -7.45 10.45 -8.0 8.75 -10.45 8.6 Q-11.0 6.3 -10.75 3.8 L-10.75 3.75 -10.5 2.25 -9.35 2.3 -9.0 2.2 -8.85 2.1 -8.45 2.25 -8.3 2.25 -8.35 3.75 -5.9 3.7 -4.4 3.65 -1.6 3.15 -0.15 3.0 -0.4 4.0 -0.15 3.0 M-0.8 6.15 L-0.5 4.45 -0.8 6.15 M-8.0 8.75 L-8.25 6.45 -8.35 5.4 -8.35 5.2 -8.35 3.8 -8.35 3.75 -8.35 3.8 -8.35 5.2 -8.35 5.4 -8.25 6.45 -8.0 8.75 M-4.0 6.45 L-5.0 6.2 -6.1 6.6 Q-6.9 7.05 -6.9 7.75 -6.9 8.25 -5.9 8.9 L-5.45 9.15 -4.15 9.45 Q-3.65 9.45 -3.3 8.9 L-3.0 8.15 Q-3.0 7.25 -3.65 6.7 L-3.7 6.65 -4.0 6.45" fill="#a59b8d" fill-rule="evenodd" stroke="none"/>
    <path d="M-5.45 9.15 L-5.9 8.9 Q-6.9 8.25 -6.9 7.75 -6.9 7.05 -6.1 6.6 L-5.0 6.2 -4.0 6.45 -4.55 6.25 Q-5.15 6.4 -5.45 7.1 L-5.7 8.2 -5.45 9.15" fill="#c4b195" fill-rule="evenodd" stroke="none"/>
    <path d="M-5.45 9.15 L-5.7 8.2 -5.45 7.1 Q-5.15 6.4 -4.55 6.25 L-4.0 6.45 -3.7 6.65 -3.65 6.7 Q-3.0 7.25 -3.0 8.15 L-3.3 8.9 Q-3.65 9.45 -4.15 9.45 L-5.45 9.15" fill="#a78a61" fill-rule="evenodd" stroke="none"/>
    <path d="M0.0 2.45 L0.25 1.3 Q2.0 -5.2 10.85 -9.35 9.4 -11.95 4.35 -11.25 L-1.6 -10.15 Q-7.1 -5.65 -8.1 0.9 L-8.25 1.85 -8.25 2.0 M0.0 2.45 L-0.15 3.0 -0.4 4.0 -0.5 4.45 -0.8 6.15 -1.0 7.75 -1.05 11.45 -4.9 10.6 -7.45 10.45 -8.0 8.75 -10.45 8.6 Q-11.0 6.3 -10.75 3.8 L-10.75 3.75 -10.5 2.25 -10.5 2.05 -10.35 1.4 Q-8.65 -6.05 -1.6 -10.15 M-8.35 3.75 L-8.35 3.8 -8.35 5.2 -8.35 5.4 -8.25 6.45 -8.0 8.75 M-8.3 2.25 L-8.25 2.0 M-8.35 3.75 L-8.3 2.25 M-4.0 6.45 L-5.0 6.2 -6.1 6.6 Q-6.9 7.05 -6.9 7.75 -6.9 8.25 -5.9 8.9 L-5.45 9.15 M-4.0 6.45 L-3.7 6.65 -3.65 6.7 Q-3.0 7.25 -3.0 8.15 L-3.3 8.9 Q-3.65 9.45 -4.15 9.45 L-5.45 9.15" fill="none" stroke="#000000" stroke-linecap="round" stroke-linejoin="round" stroke-opacity="0.3019608" stroke-width="0.05"/>
  </g>
</svg>
