<?xml version="1.0" encoding="UTF-8" standalone="no"?>
<svg xmlns:xlink="http://www.w3.org/1999/xlink" height="8.05px" width="10.25px" xmlns="http://www.w3.org/2000/svg">
  <g transform="matrix(1.0, 0.0, 0.0, 1.0, 11.05, -0.75)">
    <path d="M-1.4 3.8 L-8.85 4.35 -8.95 1.75 -1.45 1.55 -0.9 1.65 Q-0.6 2.75 -1.4 3.8 M-9.35 0.75 L-9.25 2.65 -9.35 3.1 -10.55 3.15 -10.95 2.8 Q-11.3 1.8 -10.45 0.8 L-10.15 1.15 -9.9 0.8 -9.35 0.75 M-5.9 8.65 L-6.1 8.8 Q-6.95 8.85 -7.3 8.1 L-7.35 7.85 Q-6.8 6.6 -5.6 7.25 L-5.4 7.65 Q-5.25 8.3 -5.9 8.65" fill="#ffffff" fill-opacity="0.8" fill-rule="evenodd" stroke="none"/>
  </g>
</svg>
