<?xml version="1.0" encoding="UTF-8" standalone="no"?>
<svg xmlns:xlink="http://www.w3.org/1999/xlink" height="11.65px" width="29.95px" xmlns="http://www.w3.org/2000/svg">
  <g transform="matrix(1.0, 0.0, 0.0, 1.0, 14.95, 5.85)">
    <use height="11.65" transform="matrix(1.0, 0.0, 0.0, 1.0, -14.95, -5.85)" width="29.95" xlink:href="#shape0"/>
  </g>
  <defs>
    <g id="shape0" transform="matrix(1.0, 0.0, 0.0, 1.0, 14.95, 5.85)">
      <path d="M-1.55 1.05 L-1.15 1.0 Q1.75 1.05 4.35 0.15 L5.35 -0.25 5.65 -0.35 6.85 -0.85 8.25 -1.6 10.05 -2.4 10.85 -2.9 11.45 -3.2 11.9 -3.55 12.15 -3.9 12.25 -4.2 11.5 -5.7 12.95 -5.85 13.75 -5.0 14.8 -3.2 15.0 -2.2 14.85 -1.3 14.5 -0.5 13.2 0.8 11.6 2.0 10.8 2.45 9.15 3.2 7.6 3.95 6.0 4.4 5.5 4.55 0.35 5.65 0.15 5.7 -1.5 5.8 -1.55 1.05" fill="#a78383" fill-rule="evenodd" stroke="none"/>
      <path d="M-1.5 5.8 L-3.65 5.6 -7.9 4.45 Q-10.55 3.4 -13.1 1.95 L-13.95 1.15 -14.85 0.05 Q-15.05 -0.35 -14.9 -1.35 L-14.8 -1.9 Q-14.65 -2.9 -14.1 -3.75 L-13.3 -4.5 -13.25 -3.45 -13.1 -2.75 -11.7 -1.9 -11.55 -1.8 -11.1 -1.55 Q-8.95 -0.35 -6.75 0.35 -4.25 1.1 -1.55 1.05 L-1.5 5.8" fill="#d6baba" fill-rule="evenodd" stroke="none"/>
      <path d="M-1.5 5.8 L-3.65 5.6 -7.9 4.45 Q-10.55 3.4 -13.1 1.95 L-13.95 1.15 -14.85 0.05 Q-15.05 -0.35 -14.9 -1.35 L-14.8 -1.9 Q-14.65 -2.9 -14.1 -3.75 L-13.3 -4.5 -13.25 -3.45 -13.1 -2.75 -11.7 -1.9 -11.55 -1.8 -11.1 -1.55 Q-8.95 -0.35 -6.75 0.35 -4.25 1.1 -1.55 1.05 L-1.15 1.0 Q1.75 1.05 4.35 0.15 L5.35 -0.25 5.65 -0.35 6.85 -0.85 8.25 -1.6 10.05 -2.4 10.85 -2.9 11.45 -3.2 11.9 -3.55 12.15 -3.9 12.25 -4.2 11.5 -5.7 12.95 -5.85 13.75 -5.0 14.8 -3.2 15.0 -2.2 14.85 -1.3 14.5 -0.5 13.2 0.8 11.6 2.0 10.8 2.45 9.15 3.2 7.6 3.95 6.0 4.4 5.5 4.55 0.35 5.65 M0.15 5.7 L-1.5 5.8 Z" fill="none" stroke="#000000" stroke-linecap="round" stroke-linejoin="round" stroke-opacity="0.3019608" stroke-width="0.05"/>
    </g>
  </defs>
</svg>
