<?xml version="1.0" encoding="UTF-8" standalone="no"?>
<svg xmlns:xlink="http://www.w3.org/1999/xlink" height="41.4px" width="14.15px" xmlns="http://www.w3.org/2000/svg">
  <g transform="matrix(1.0, 0.0, 0.0, 1.0, 0.0, 0.0)">
    <use height="29.95" id="_col2" transform="matrix(-0.6053, -0.4839, 0.0, 0.9159, 10.4582, 8.3417)" width="17.25" xlink:href="#sprite0"/>
    <use height="18.1" id="_col2b" transform="matrix(1.0, 0.0, 0.0, 1.0, 0.2, 23.3)" width="13.95" xlink:href="#sprite1"/>
    <use height="14.6" transform="matrix(1.0, 0.0, 0.0, 1.0, 2.5, 20.55)" width="5.4" xlink:href="#shape2"/>
  </g>
  <defs>
    <g id="sprite0" transform="matrix(1.0, 0.0, 0.0, 1.0, 5.3, 19.95)">
      <use height="29.95" transform="matrix(1.0, 0.0, 0.0, 1.0, -5.3, -19.95)" width="17.25" xlink:href="#shape0"/>
    </g>
    <g id="shape0" transform="matrix(1.0, 0.0, 0.0, 1.0, 5.3, 19.95)">
      <path d="M-3.1 -11.4 L-2.4 -12.0 Q-1.6 -12.75 -1.1 -13.75 L1.15 -18.35 1.2 -18.45 1.5 -18.85 1.75 -19.95 10.0 -15.95 8.45 -12.9 8.15 -12.2 -3.1 -11.4 M11.55 1.35 L11.65 1.4 Q12.0 2.9 11.95 4.55 L11.7 8.0 3.95 10.0 3.55 8.55 Q3.2 6.4 2.4 4.35 L2.0 3.85 Q4.5 2.5 6.45 2.0 L11.55 1.35" fill="#d1b6b6" fill-rule="evenodd" stroke="none"/>
      <path d="M8.15 -12.2 L7.5 -10.1 7.35 -8.25 7.55 -0.85 11.55 1.35 6.45 2.0 Q4.5 2.5 2.0 3.85 L1.9 3.75 -1.8 0.45 -2.65 -0.75 -2.95 -1.4 -3.15 -3.0 -3.6 -6.65 Q-3.75 -8.0 -4.55 -9.2 L-5.3 -10.25 Q-4.75 -10.3 -4.1 -10.75 L-3.65 -11.1 -3.45 -11.2 -3.1 -11.4 8.15 -12.2 M2.0 -8.1 L2.4 -0.3 2.0 -8.1 M3.95 -7.75 L3.9 -0.3 3.95 -7.75 M5.25 -8.55 L5.25 0.0 5.25 -8.55" fill="#ffffff" fill-rule="evenodd" stroke="none"/>
      <path d="M-3.1 -11.4 L-2.4 -12.0 Q-1.6 -12.75 -1.1 -13.75 L1.15 -18.35 1.2 -18.45 1.5 -18.85 1.75 -19.95 10.0 -15.95 8.45 -12.9 8.15 -12.2 7.5 -10.1 7.35 -8.25 7.55 -0.85 11.55 1.35 11.65 1.4 Q12.0 2.9 11.95 4.55 L11.7 8.0 3.95 10.0 3.55 8.55 Q3.2 6.4 2.4 4.35 L2.0 3.85 1.9 3.75 -1.8 0.45 -2.65 -0.75 -2.95 -1.4 -3.15 -3.0 -3.6 -6.65 Q-3.75 -8.0 -4.55 -9.2 L-5.3 -10.25 Q-4.75 -10.3 -4.1 -10.75 L-3.65 -11.1 -3.45 -11.2 -3.1 -11.4 M3.9 -0.3 L3.95 -7.75 M2.4 -0.3 L2.0 -8.1 M5.25 0.0 L5.25 -8.55" fill="none" stroke="#000000" stroke-linecap="round" stroke-linejoin="round" stroke-opacity="0.3019608" stroke-width="0.05"/>
    </g>
    <g id="sprite1" transform="matrix(1.0, 0.0, 0.0, 1.0, 7.0, 9.05)">
      <use height="18.1" transform="matrix(1.0, 0.0, 0.0, 1.0, -7.0, -9.05)" width="13.95" xlink:href="#shape1"/>
    </g>
    <g id="shape1" transform="matrix(1.0, 0.0, 0.0, 1.0, 7.0, 9.05)">
      <path d="M-3.55 -0.95 Q-4.15 -2.5 -5.1 -4.15 L-7.0 -7.2 -6.05 -7.75 -4.2 -6.75 Q-2.15 -5.55 -1.95 -5.6 L-0.45 -4.1 1.05 -2.45 2.35 0.2 2.6 0.65 3.25 2.1 Q2.5 0.7 0.9 -1.2 2.5 0.7 3.25 2.1 L2.6 0.65 2.35 0.2 2.2 -0.25 2.4 -0.45 4.1 -1.7 4.9 -2.45 5.1 -1.5 5.15 -1.35 Q5.6 0.0 6.2 1.35 L6.95 3.4 Q5.95 4.65 4.45 4.85 3.85 6.35 2.55 7.3 L1.85 8.0 1.25 6.5 1.25 7.9 1.3 8.5 1.25 9.05 -0.05 9.05 -0.95 8.85 -1.1 8.85 -1.2 8.8 -1.45 8.8 -1.45 8.55 -1.45 8.5 -0.3 3.65 0.7 -0.65 0.9 -1.2 -1.05 -3.1 Q-2.5 -4.3 -4.3 -4.75 L-3.55 -0.95 M4.45 4.85 L4.2 4.25 3.85 3.5 3.55 2.7 3.25 2.1 3.55 2.7 3.85 3.5 4.2 4.25 4.45 4.85" fill="#d1b5b5" fill-rule="evenodd" stroke="none"/>
      <path d="M-3.55 -0.95 L-4.3 -4.75 Q-2.5 -4.3 -1.05 -3.1 L0.9 -1.2 0.7 -0.65 -0.3 3.65 -1.45 8.5 -1.65 7.55 -3.3 0.15 -3.55 -0.95 M2.35 0.2 L1.05 -2.45 -0.45 -4.1 -1.95 -5.6 Q-2.15 -5.55 -4.2 -6.75 L-6.05 -7.75 -2.9 -9.05 -1.05 -7.9 Q1.15 -6.8 4.2 -7.25 4.2 -5.0 4.9 -2.45 L4.1 -1.7 2.4 -0.45 2.2 -0.25 2.35 0.2" fill="#ffffff" fill-rule="evenodd" stroke="none"/>
      <path d="M-6.05 -7.75 L-7.0 -7.2 -5.1 -4.15 Q-4.15 -2.5 -3.55 -0.95 L-4.3 -4.75 Q-2.5 -4.3 -1.05 -3.1 L0.9 -1.2 Q2.5 0.7 3.25 2.1 L2.6 0.65 2.35 0.2 1.05 -2.45 -0.45 -4.1 -1.95 -5.6 Q-2.15 -5.55 -4.2 -6.75 L-6.05 -7.75 -2.9 -9.05 -1.05 -7.9 Q1.15 -6.8 4.2 -7.25 4.2 -5.0 4.9 -2.45 L5.1 -1.5 5.15 -1.35 Q5.6 0.0 6.2 1.35 L6.95 3.4 Q5.95 4.65 4.45 4.85 3.85 6.35 2.55 7.3 L1.85 8.0 1.3 8.5 1.25 9.05 -0.05 9.05 -0.95 8.85 -1.1 8.85 M-1.2 8.8 L-1.45 8.8 -1.45 8.55 -1.45 8.5 -1.65 7.55 -3.3 0.15 -3.55 -0.95 M3.25 2.1 L3.55 2.7 3.85 3.5 4.2 4.25 4.45 4.85 M1.3 8.5 L1.25 7.9 1.25 6.5 1.85 8.0" fill="none" stroke="#000000" stroke-linecap="round" stroke-linejoin="round" stroke-opacity="0.3019608" stroke-width="0.05"/>
    </g>
    <g id="shape2" transform="matrix(1.0, 0.0, 0.0, 1.0, -2.5, -20.55)">
      <path d="M2.5 20.65 L2.65 20.55 Q3.4 21.3 3.8 21.3 4.1 21.3 4.65 21.9 L5.15 22.55 4.95 22.75 4.6 22.6 4.25 22.4 4.45 22.75 4.15 23.05 3.6 22.55 3.15 22.0 2.5 20.65 M3.55 24.0 L4.5 24.2 6.45 24.95 6.55 25.2 6.5 25.4 7.35 25.95 Q8.15 26.5 7.8 26.5 L7.8 26.6 7.75 26.9 7.1 26.85 4.8 25.7 Q4.35 25.4 3.6 25.2 3.25 25.1 3.25 24.55 3.25 23.95 3.55 24.0 M4.45 28.8 L5.2 29.65 5.45 30.05 5.9 30.1 Q6.9 32.25 6.3 34.5 L5.95 34.75 5.6 35.05 5.45 35.15 4.6 31.8 4.15 31.5 4.15 30.65 4.45 28.8" fill="#ffffff" fill-opacity="0.7019608" fill-rule="evenodd" stroke="none"/>
    </g>
  </defs>
</svg>
