<?xml version="1.0" encoding="UTF-8" standalone="no"?>
<svg xmlns:xlink="http://www.w3.org/1999/xlink" height="44.65px" width="58.2px" xmlns="http://www.w3.org/2000/svg">
  <g transform="matrix(1.0, 0.0, 0.0, 1.0, 28.55, 20.45)">
    <use height="37.6" id="_col2" transform="matrix(1.1882, 0.0, 0.0, 1.1882, -28.5478, -20.4678)" width="49.0" xlink:href="#sprite0"/>
  </g>
  <defs>
    <g id="sprite0" transform="matrix(1.0, 0.0, 0.0, 1.0, -42.25, 24.8)">
      <use height="37.6" transform="matrix(1.0, 0.0, 0.0, 1.0, 42.25, -24.8)" width="49.0" xlink:href="#shape0"/>
    </g>
    <g id="shape0" transform="matrix(1.0, 0.0, 0.0, 1.0, -42.25, 24.8)">
      <path d="M70.35 -24.1 L70.35 -24.6 72.15 -24.8 70.35 -24.1 M63.3 -24.6 L63.3 -24.1 61.5 -24.8 63.3 -24.6" fill="#764701" fill-rule="evenodd" stroke="none"/>
      <path d="M70.35 -24.1 Q78.2 -23.95 84.85 -20.7 86.65 -20.05 88.3 -18.9 L82.45 -19.9 Q89.1 -16.95 90.75 -8.6 L91.25 -5.2 87.0 -8.95 Q88.3 -1.6 85.35 5.25 L84.55 8.05 84.2 3.0 Q79.65 8.7 72.65 12.8 L73.6 8.2 67.55 11.0 Q66.9 10.15 66.75 9.2 L66.1 11.0 60.05 8.2 60.85 12.8 Q53.85 8.7 49.45 3.0 L49.1 8.05 48.15 5.25 Q45.2 -1.6 46.5 -8.95 L42.25 -5.2 42.9 -8.6 Q44.4 -16.95 51.05 -19.9 L45.2 -18.9 Q46.85 -20.05 48.8 -20.7 55.3 -23.95 63.3 -24.1 L63.3 -24.6 66.75 -24.1 70.35 -24.6 70.35 -24.1" fill="#d6baba" fill-rule="evenodd" stroke="none"/>
      <path d="M63.3 -24.1 Q55.3 -23.95 48.8 -20.7 46.85 -20.05 45.2 -18.9 L51.05 -19.9 Q44.4 -16.95 42.9 -8.6 L42.25 -5.2 46.5 -8.95 Q45.2 -1.6 48.15 5.25 L49.1 8.05 49.45 3.0 Q53.85 8.7 60.85 12.8 L60.05 8.2 66.1 11.0 66.75 9.2 Q66.9 10.15 67.55 11.0 L73.6 8.2 72.65 12.8 Q79.65 8.7 84.2 3.0 L84.55 8.05 85.35 5.25 Q88.3 -1.6 87.0 -8.95 L91.25 -5.2 90.75 -8.6 Q89.1 -16.95 82.45 -19.9 L88.3 -18.9 Q86.65 -20.05 84.85 -20.7 78.2 -23.95 70.35 -24.1 L72.15 -24.8 70.35 -24.6 66.75 -24.1 63.3 -24.6 M63.3 -24.1 L61.5 -24.8 63.3 -24.6" fill="none" stroke="#000000" stroke-linecap="round" stroke-linejoin="round" stroke-opacity="0.4" stroke-width="0.05"/>
    </g>
  </defs>
</svg>
