<?xml version="1.0" encoding="UTF-8" standalone="no"?>
<svg xmlns:xlink="http://www.w3.org/1999/xlink" height="18.55px" width="27.6px" xmlns="http://www.w3.org/2000/svg">
  <g transform="matrix(1.0, 0.0, 0.0, 1.0, 3.8, 14.1)">
    <use height="18.55" transform="matrix(1.0, 0.0, 0.0, 1.0, -3.8, -14.1)" width="27.6" xlink:href="#shape0"/>
  </g>
  <defs>
    <g id="shape0" transform="matrix(1.0, 0.0, 0.0, 1.0, 3.8, 14.1)">
      <path d="M-3.15 -5.25 L-3.25 -5.35 -3.55 -6.8 -1.15 -10.15 Q-0.3 -11.7 3.5 -13.25 L4.8 -13.7 8.5 -10.95 Q10.95 -9.0 10.95 -6.75 10.95 -5.1 9.8 -3.15 L8.7 -1.45 8.55 -1.5 7.0 -1.7 3.9 -2.2 Q0.95 -2.75 -3.15 -5.25 0.95 -2.75 3.9 -2.2 L7.0 -1.7 Q8.1 -0.5 8.95 2.0 8.95 2.95 7.55 4.05 L5.3 3.65 Q2.85 3.15 -1.1 1.0 -5.1 -1.2 -3.15 -5.25" fill="#ffffff" fill-rule="evenodd" stroke="none"/>
      <path d="M7.0 -1.7 L8.55 -1.5 8.7 -1.45 9.8 -3.15 Q10.95 -5.1 10.95 -6.75 10.95 -9.0 8.5 -10.95 L4.8 -13.7 13.85 -13.4 Q20.4 -11.95 20.95 -9.2 L21.6 -6.3 21.95 -4.9 22.35 -3.35 22.7 -2.4 Q22.95 -1.15 23.8 -0.1 L23.35 0.7 Q20.95 2.85 17.65 3.7 L7.75 4.05 7.55 4.05 Q8.95 2.95 8.95 2.0 8.1 -0.5 7.0 -1.7 M22.35 -3.35 Q19.9 -2.45 17.4 -1.9 L9.8 -1.35 8.7 -1.45 9.8 -1.35 17.4 -1.9 Q19.9 -2.45 22.35 -3.35" fill="#d6baba" fill-rule="evenodd" stroke="none"/>
      <path d="M4.8 -13.7 L3.5 -13.25 Q-0.3 -11.7 -1.15 -10.15 L-3.55 -6.8 -3.25 -5.35 -3.15 -5.25 Q0.95 -2.75 3.9 -2.2 L7.0 -1.7 8.55 -1.5 M4.8 -13.7 L13.85 -13.4 Q20.4 -11.95 20.95 -9.2 L21.6 -6.3 21.95 -4.9 22.35 -3.35 22.7 -2.4 Q22.95 -1.15 23.8 -0.1 L23.35 0.7 Q20.95 2.85 17.65 3.7 L7.75 4.05 7.55 4.05 5.3 3.65 Q2.85 3.15 -1.1 1.0 -5.1 -1.2 -3.15 -5.25 M8.7 -1.45 L9.8 -1.35 17.4 -1.9 Q19.9 -2.45 22.35 -3.35" fill="none" stroke="#000000" stroke-linecap="round" stroke-linejoin="round" stroke-opacity="0.3019608" stroke-width="0.05"/>
    </g>
  </defs>
</svg>
