<?xml version="1.0" encoding="UTF-8" standalone="no"?>
<svg xmlns:xlink="http://www.w3.org/1999/xlink" height="107.5px" width="107.5px" xmlns="http://www.w3.org/2000/svg">
  <g transform="matrix(1.0, 0.0, 0.0, 1.0, 53.75, 53.75)">
    <use height="57.5" transform="matrix(1.4752, 0.0, 0.0, 1.4752, -42.4113, -42.4113)" width="57.5" xlink:href="#sprite0"/>
  </g>
  <defs>
    <g id="sprite0" transform="matrix(1.0, 0.0, 0.0, 1.0, 28.75, 28.75)">
      <use height="57.5" transform="matrix(1.0, 0.0, 0.0, 1.0, -28.75, -28.75)" width="57.5" xlink:href="#shape0"/>
    </g>
    <g id="shape0" transform="matrix(1.0, 0.0, 0.0, 1.0, 28.75, 28.75)">
      <path d="M20.3 -20.35 Q28.75 -11.9 28.75 0.0 28.75 11.9 20.3 20.3 11.9 28.75 0.0 28.75 -11.9 28.75 -20.35 20.3 -28.75 11.9 -28.75 0.0 -28.75 -11.9 -20.35 -20.35 -11.9 -28.75 0.0 -28.75 11.9 -28.75 20.3 -20.35" fill="url(#gradient0)" fill-rule="evenodd" stroke="none"/>
    </g>
    <radialGradient cx="0" cy="0" gradientTransform="matrix(0.036, 0.0, 0.0, 0.036, 0.0, 0.0)" gradientUnits="userSpaceOnUse" id="gradient0" r="819.2" spreadMethod="pad">
      <stop offset="0.6823529411764706" stop-color="#ffffff" stop-opacity="0.0"/>
      <stop offset="1.0" stop-color="#ffffff" stop-opacity="0.40392157"/>
    </radialGradient>
  </defs>
</svg>
