<?xml version="1.0" encoding="UTF-8" standalone="no"?>
<svg xmlns:xlink="http://www.w3.org/1999/xlink" height="43.1px" width="22.05px" xmlns="http://www.w3.org/2000/svg">
  <g transform="matrix(1.0, 0.0, 0.0, 1.0, 13.35, 31.4)">
    <use height="24.4" id="_col2" transform="matrix(1.0, 0.0, 0.0, 1.0, -9.55, -22.95)" width="7.4" xlink:href="#sprite0"/>
  </g>
  <defs>
    <g id="sprite0" transform="matrix(1.0, 0.0, 0.0, 1.0, 3.7, 12.3)">
      <use height="24.4" transform="matrix(1.0, 0.0, 0.0, 1.0, -3.7, -12.3)" width="7.4" xlink:href="#shape0"/>
    </g>
    <g id="shape0" transform="matrix(1.0, 0.0, 0.0, 1.0, 3.7, 12.3)">
      <path d="M1.3 -8.75 L2.6 -7.4 3.2 -6.35 3.55 -4.7 3.6 -4.25 3.6 -4.0 3.7 -0.4 3.7 0.65 3.6 6.0 3.4 10.05 3.3 10.7 Q2.7 11.95 1.9 12.1 L1.6 12.1 1.2 12.1 0.5 12.0 -0.5 11.55 -0.75 11.45 -0.55 11.0 -0.2 9.25 -0.6 9.05 Q0.0 6.9 0.2 4.5 L0.5 0.15 Q0.65 -2.2 0.2 -4.75 L0.0 -5.85 -0.35 -6.7 -0.9 -7.2 -2.45 -8.45 -3.15 -8.85 -2.55 -9.6 Q-1.9 -9.35 -1.4 -8.9 L-0.35 -7.75 0.6 -6.95 1.3 -8.75 M-0.2 9.25 L1.15 9.65 1.85 1.35 1.6 -4.05 1.55 -4.75 0.6 -6.95 1.55 -4.75 1.6 -4.05 1.85 1.35 1.15 9.65 -0.2 9.25" fill="#d1b6b6" fill-rule="evenodd" stroke="none"/>
      <path d="M-0.75 11.45 L-2.5 9.55 Q-3.7 8.05 -2.6 6.05 -3.55 2.65 -3.6 -0.65 L-3.7 -5.85 -3.7 -6.9 -3.55 -8.05 -3.15 -8.85 -3.45 -10.25 -3.4 -11.7 -3.3 -11.9 -2.95 -12.25 -2.75 -12.3 -2.65 -12.25 -2.3 -12.1 -2.05 -12.0 -1.15 -11.25 0.1 -9.9 1.3 -8.75 0.6 -6.95 -0.35 -7.75 -1.4 -8.9 Q-1.9 -9.35 -2.55 -9.6 L-3.15 -8.85 -2.45 -8.45 -0.9 -7.2 -0.35 -6.7 0.0 -5.85 0.2 -4.75 Q0.65 -2.2 0.5 0.15 L0.2 4.5 Q0.0 6.9 -0.6 9.05 L-0.2 9.25 -0.55 11.0 -0.75 11.45 M-2.6 6.05 Q-2.3 7.55 -2.0 7.9 L-1.8 8.05 -0.6 9.05 -1.8 8.05 -2.0 7.9 Q-2.3 7.55 -2.6 6.05" fill="#ffffff" fill-rule="evenodd" stroke="none"/>
      <path d="M-0.75 11.45 L-2.5 9.55 Q-3.7 8.05 -2.6 6.05 -3.55 2.65 -3.6 -0.65 L-3.7 -5.85 -3.7 -6.9 -3.55 -8.05 -3.15 -8.85 -3.45 -10.25 -3.4 -11.7 -3.3 -11.9 -2.95 -12.25 -2.75 -12.3 -2.65 -12.25 -2.3 -12.1 -2.05 -12.0 -1.15 -11.25 0.1 -9.9 1.3 -8.75 2.6 -7.4 3.2 -6.35 3.55 -4.7 3.6 -4.25 3.6 -4.0 3.7 -0.4 3.7 0.65 3.6 6.0 3.4 10.05 3.3 10.7 Q2.7 11.95 1.9 12.1 L1.6 12.1 1.2 12.1 0.5 12.0 -0.5 11.55 -0.75 11.45 M-0.6 9.05 L-1.8 8.05 -2.0 7.9 Q-2.3 7.55 -2.6 6.05 M-3.15 -8.85 L-2.55 -9.6 Q-1.9 -9.35 -1.4 -8.9 L-0.35 -7.75 0.6 -6.95 1.55 -4.75 1.6 -4.05 1.85 1.35 1.15 9.65 -0.2 9.25" fill="none" stroke="#000000" stroke-linecap="round" stroke-linejoin="round" stroke-opacity="0.3019608" stroke-width="0.05"/>
    </g>
  </defs>
</svg>
