<?xml version="1.0" encoding="UTF-8" standalone="no"?>
<svg xmlns:xlink="http://www.w3.org/1999/xlink" height="86.6px" width="67.2px" xmlns="http://www.w3.org/2000/svg">
  <g transform="matrix(1.0, 0.0, 0.0, 1.0, -103.9, 150.75)">
    <use height="86.6" transform="matrix(1.0, 0.0, 0.0, 1.0, 103.9, -150.75)" width="67.2" xlink:href="#shape0"/>
  </g>
  <defs>
    <g id="shape0" transform="matrix(1.0, 0.0, 0.0, 1.0, -103.9, 150.75)">
      <path d="M106.6 -100.95 L106.95 -101.0 Q108.55 -101.0 108.55 -98.95 L108.4 -98.5 108.3 -98.3 107.85 -98.25 Q107.15 -98.25 106.8 -99.1 106.45 -99.95 106.75 -100.9 L106.6 -100.95 M104.9 -110.05 L117.55 -118.2 136.65 -130.45 156.4 -142.7 Q169.4 -150.75 170.5 -150.75 L171.0 -150.65 171.1 -150.4 Q157.85 -141.35 133.5 -126.5 L104.0 -108.6 103.9 -108.8 104.35 -109.65 Q104.55 -110.0 104.9 -110.05 M140.6 -76.1 L141.7 -73.65 141.9 -71.8 Q141.9 -69.9 140.75 -68.05 L139.55 -66.65 Q139.5 -65.3 137.7 -64.6 136.55 -64.15 135.55 -64.15 134.35 -64.15 134.65 -65.5 134.95 -66.8 135.8 -67.35 L137.25 -67.9 139.0 -68.35 139.05 -68.3 139.45 -69.75 Q140.75 -73.85 140.5 -75.5 L140.6 -76.1 M139.3 -72.4 Q139.3 -69.4 137.9 -69.4 136.05 -69.4 136.05 -72.5 136.05 -73.5 136.65 -74.1 137.1 -74.5 137.45 -74.5 138.2 -74.5 138.75 -73.8 139.3 -73.2 139.3 -72.4 M114.45 -93.3 L113.9 -93.15 Q113.5 -93.15 112.9 -93.8 112.2 -94.55 112.25 -95.5 L112.3 -95.6 112.75 -95.75 Q113.2 -95.75 113.85 -95.2 114.6 -94.55 114.65 -93.65 L114.45 -93.3 M119.0 -90.0 Q119.35 -90.0 120.2 -88.75 L121.05 -87.15 120.85 -86.25 120.25 -86.15 Q119.3 -86.15 118.7 -87.65 118.1 -89.05 118.35 -89.85 L119.0 -90.0 M116.3 -81.4 Q116.75 -81.15 116.75 -80.5 L117.15 -80.05 Q117.5 -79.55 117.5 -78.6 117.5 -74.25 115.95 -72.15 114.7 -70.55 111.0 -68.9 110.75 -69.3 113.1 -71.95 115.75 -75.0 115.75 -77.55 L116.05 -80.9 116.3 -81.4 M111.9 -76.55 Q111.9 -78.1 112.45 -79.05 113.0 -79.9 113.75 -79.9 115.0 -79.9 115.0 -77.55 115.0 -76.2 114.25 -75.4 113.7 -74.85 113.25 -74.85 111.9 -74.85 111.9 -76.55" fill="#ffd633" fill-opacity="0.4" fill-rule="evenodd" stroke="none"/>
    </g>
  </defs>
</svg>
