<?xml version="1.0" encoding="UTF-8" standalone="no"?>
<svg xmlns:xlink="http://www.w3.org/1999/xlink" height="33.6px" width="33.4px" xmlns="http://www.w3.org/2000/svg">
  <g transform="matrix(1.0, 0.0, 0.0, 1.0, 16.7, 15.6)">
    <use height="31.25" transform="matrix(1.0, 0.0, 0.0, 1.0, -15.15, -15.6)" width="30.3" xlink:href="#sprite0"/>
  </g>
  <defs>
    <g id="sprite0" transform="matrix(1.0, 0.0, 0.0, 1.0, 15.15, 15.6)">
      <use height="31.25" transform="matrix(1.0, 0.0, 0.0, 1.0, -15.15, -15.6)" width="30.3" xlink:href="#shape0"/>
    </g>
    <g id="shape0" transform="matrix(1.0, 0.0, 0.0, 1.0, 15.15, 15.6)">
      <path d="M13.45 -7.95 Q12.35 -4.0 11.3 -2.0 9.6 1.3 7.35 1.3 L6.95 1.45 Q6.3 1.45 5.65 2.05 L5.15 2.55 Q4.8 1.25 3.65 0.4 2.5 -0.5 1.55 -0.5 0.85 -0.5 -0.3 0.2 -0.85 0.45 -1.25 1.35 L-1.6 2.85 -2.45 3.35 -3.6 4.3 -4.25 4.05 Q-5.55 3.5 -7.05 1.75 L-7.95 0.6 -7.5 -0.05 -6.7 -1.55 Q-5.95 -2.75 -5.55 -4.25 L-5.45 -4.85 -5.7 -6.2 Q-6.0 -7.1 -6.9 -7.5 L-8.75 -8.65 Q-10.05 -9.65 -10.6 -9.7 L-10.15 -10.5 Q-7.3 -15.3 -5.15 -15.3 L-4.0 -15.6 -1.8 -15.45 0.95 -14.55 Q8.05 -12.45 10.75 -11.1 12.35 -9.95 13.45 -7.95 M-13.4 -0.8 L-13.15 -0.1 -13.45 -0.05 -13.45 -0.35 -13.4 -0.8" fill="#fcc4b6" fill-rule="evenodd" stroke="none"/>
      <path d="M5.15 2.55 L5.65 2.05 Q6.3 1.45 6.95 1.45 L7.35 1.3 Q9.6 1.3 11.3 -2.0 12.35 -4.0 13.45 -7.95 L14.6 -5.35 Q15.9 -1.5 14.2 1.55 L11.95 5.15 Q12.1 10.8 11.9 14.7 L11.85 15.65 10.8 12.2 9.8 9.7 Q9.25 11.6 5.9 12.9 L0.95 14.3 0.7 14.2 4.15 9.95 4.3 9.9 4.25 9.65 4.25 9.55 Q2.95 10.75 2.7 10.75 L1.4 11.0 -0.3 11.3 Q-4.35 11.3 -8.35 8.85 -10.3 7.7 -11.5 6.1 -13.55 3.5 -13.45 -0.05 L-13.15 -0.1 -13.4 -0.8 Q-13.15 -4.2 -11.65 -7.6 L-11.25 -6.9 -10.45 -6.0 -10.35 -5.9 -8.45 -4.6 -8.55 -4.35 -10.15 -1.85 Q-11.65 0.6 -11.7 1.7 -11.75 2.6 -10.95 2.6 -9.6 2.6 -7.95 0.6 L-7.05 1.75 Q-5.55 3.5 -4.25 4.05 L-3.6 4.3 -2.45 3.35 -1.6 2.85 -1.6 3.25 -1.6 3.4 -1.55 3.8 -1.2 4.75 -0.6 5.55 Q0.45 6.55 2.0 6.55 5.2 6.55 5.3 4.05 L5.15 2.55" fill="#e1a495" fill-rule="evenodd" stroke="none"/>
      <path d="M-7.95 0.6 Q-9.6 2.6 -10.95 2.6 -11.75 2.6 -11.7 1.7 -11.65 0.6 -10.15 -1.85 L-8.55 -4.35 -7.15 -4.15 Q-6.5 -4.15 -6.6 -5.25 -6.75 -6.35 -9.8 -8.3 L-11.65 -9.3 -11.6 -9.4 -10.95 -9.85 -10.6 -9.7 Q-10.05 -9.65 -8.75 -8.65 L-6.9 -7.5 Q-6.0 -7.1 -5.7 -6.2 L-5.45 -4.85 -5.55 -4.25 Q-5.95 -2.75 -6.7 -1.55 L-7.5 -0.05 -7.95 0.6 M-10.35 -5.9 L-10.45 -6.0 -11.25 -6.9 -10.35 -5.95 -10.35 -5.9" fill="#ffcc00" fill-rule="evenodd" stroke="none"/>
      <path d="M-8.55 -4.35 L-8.45 -4.6 -10.35 -5.9 -10.35 -5.95 -11.25 -6.9 -11.65 -7.6 Q-11.95 -8.15 -11.9 -8.65 L-11.65 -9.3 -9.8 -8.3 Q-6.75 -6.35 -6.6 -5.25 -6.5 -4.15 -7.15 -4.15 L-8.55 -4.35" fill="#e4a512" fill-rule="evenodd" stroke="none"/>
      <path d="M5.15 2.55 L5.3 4.05 Q5.2 6.55 2.0 6.55 0.45 6.55 -0.6 5.55 L-1.2 4.75 -1.55 3.8 -1.6 3.4 -1.6 3.25 -1.6 2.85 -1.25 1.35 Q-0.85 0.45 -0.3 0.2 0.85 -0.5 1.55 -0.5 2.5 -0.5 3.65 0.4 4.8 1.25 5.15 2.55 M-13.45 -0.05 Q-13.55 3.5 -11.5 6.1 -12.15 6.7 -13.0 6.7 -13.7 6.7 -14.35 6.2 -15.2 5.55 -15.15 4.25 -14.95 0.2 -13.45 -0.05 M1.8 2.15 Q2.25 3.6 3.35 3.6 4.55 3.6 4.55 2.6 4.55 0.7 3.2 0.65 1.8 0.55 1.8 2.15 M0.7 4.55 L0.9 4.25 Q0.9 3.45 0.3 3.45 -0.3 3.45 -0.3 4.3 L0.2 4.75 0.7 4.55" fill="#660000" fill-rule="evenodd" stroke="none"/>
      <path d="M0.7 4.55 L0.2 4.75 -0.3 4.3 Q-0.3 3.45 0.3 3.45 0.9 3.45 0.9 4.25 L0.7 4.55 M1.8 2.15 Q1.8 0.55 3.2 0.65 4.55 0.7 4.55 2.6 4.55 3.6 3.35 3.6 2.25 3.6 1.8 2.15" fill="#ffffff" fill-rule="evenodd" stroke="none"/>
      <path d="M5.15 2.55 L5.3 4.05 Q5.2 6.55 2.0 6.55 0.45 6.55 -0.6 5.55 L-1.2 4.75 -1.55 3.8 -1.6 3.4 -1.6 3.25 -1.6 2.85 M-7.95 0.6 Q-9.6 2.6 -10.95 2.6 -11.75 2.6 -11.7 1.7 -11.65 0.6 -10.15 -1.85 L-8.55 -4.35 -8.45 -4.6 -10.35 -5.9 -10.45 -6.0 -11.25 -6.9 -11.65 -7.6 Q-13.15 -4.2 -13.4 -0.8 L-13.45 -0.35 -13.45 -0.05 Q-14.95 0.2 -15.15 4.25 -15.2 5.55 -14.35 6.2 -13.7 6.7 -13.0 6.7 -12.15 6.7 -11.5 6.1 -10.3 7.7 -8.35 8.85 -4.35 11.3 -0.3 11.3 L1.4 11.0 2.7 10.75 Q2.95 10.75 4.25 9.55 L4.25 9.65 4.3 9.9 4.15 9.95 0.7 14.2 0.95 14.3 5.9 12.9 Q9.25 11.6 9.8 9.7 L10.8 12.2 11.85 15.65 11.9 14.7 Q12.1 10.8 11.95 5.15 L14.2 1.55 Q15.9 -1.5 14.6 -5.35 L13.45 -7.95 Q12.35 -9.95 10.75 -11.1 8.05 -12.45 0.95 -14.55 L-1.8 -15.45 -4.0 -15.6 -5.15 -15.3 Q-7.3 -15.3 -10.15 -10.5 L-10.6 -9.7 Q-10.05 -9.65 -8.75 -8.65 L-6.9 -7.5 Q-6.0 -7.1 -5.7 -6.2 L-5.45 -4.85 -5.55 -4.25 Q-5.95 -2.75 -6.7 -1.55 L-7.5 -0.05 -7.95 0.6 M-13.15 -0.1 L-13.45 -0.05 Q-13.55 3.5 -11.5 6.1 M5.15 2.55 Q4.8 1.25 3.65 0.4 2.5 -0.5 1.55 -0.5 0.85 -0.5 -0.3 0.2 -0.85 0.45 -1.25 1.35 L-1.6 2.85 M-10.6 -9.7 L-10.95 -9.85 -11.6 -9.4 -11.65 -9.3 -11.9 -8.65 Q-11.95 -8.15 -11.65 -7.6" fill="none" stroke="#000000" stroke-linecap="round" stroke-linejoin="round" stroke-opacity="0.4" stroke-width="0.05"/>
    </g>
  </defs>
</svg>
