<?xml version="1.0" encoding="UTF-8" standalone="no"?>
<svg xmlns:xlink="http://www.w3.org/1999/xlink" height="26.1px" width="31.95px" xmlns="http://www.w3.org/2000/svg">
  <g transform="matrix(1.0, 0.0, 0.0, 1.0, 16.0, 13.05)">
    <use height="23.2" id="_col3" transform="matrix(1.0, 0.0, 0.0, 1.0, -13.8, -13.05)" width="19.7" xlink:href="#sprite0"/>
    <use height="20.2" id="_col2" transform="matrix(1.0, 0.0, 0.0, 1.0, -16.0, -7.15)" width="31.95" xlink:href="#sprite1"/>
    <use height="9.1" transform="matrix(1.0, 0.0, 0.0, 1.0, -8.05, -10.15)" width="7.7" xlink:href="#shape2"/>
  </g>
  <defs>
    <g id="sprite0" transform="matrix(1.0, 0.0, 0.0, 1.0, 9.85, 11.6)">
      <use height="23.2" transform="matrix(1.0, 0.0, 0.0, 1.0, -9.85, -11.6)" width="19.7" xlink:href="#shape0"/>
    </g>
    <g id="shape0" transform="matrix(1.0, 0.0, 0.0, 1.0, 9.85, 11.6)">
      <path d="M-2.95 -6.0 L0.3 -9.8 Q0.75 -10.5 2.15 -11.3 3.55 -12.1 6.2 -10.6 L7.15 -9.5 Q8.6 -7.35 9.25 -5.05 L9.3 -4.95 9.25 -4.95 Q8.75 -1.7 6.35 -0.6 L6.1 -0.05 6.05 -0.5 5.65 -4.05 Q5.35 -6.3 4.0 -7.55 2.65 -8.8 1.0 -8.65 -0.7 -8.55 -2.95 -6.0 -0.7 -8.55 1.0 -8.65 2.65 -8.8 4.0 -7.55 5.35 -6.3 5.65 -4.05 L6.05 -0.5 6.1 -0.05 6.1 0.1 6.05 0.1 5.65 0.8 Q4.4 2.95 2.65 2.95 L1.95 3.05 0.3 6.2 Q-0.05 6.85 -1.1 7.35 -2.6 10.45 -3.9 11.6 L-6.4 11.2 Q-7.35 10.95 -8.0 10.5 -9.95 9.15 -9.85 6.35 L-9.8 6.15 -9.75 5.95 -9.4 5.0 -9.05 4.2 -7.35 0.65 -6.05 -1.6 -2.95 -6.0 M-8.0 10.5 Q-6.25 8.85 -4.9 6.55 -3.55 4.25 -3.4 2.85 -3.3 1.45 -3.9 0.85 -4.55 0.2 -5.0 0.65 L-7.15 2.75 -9.4 5.0 -7.15 2.75 -5.0 0.65 Q-4.55 0.2 -3.9 0.85 -3.3 1.45 -3.4 2.85 -3.55 4.25 -4.9 6.55 -6.25 8.85 -8.0 10.5 M-6.05 -1.6 L-4.7 -2.75 Q-3.85 -3.55 -2.05 -4.0 L0.2 -4.15 Q0.65 -3.9 0.9 -0.75 1.05 1.1 0.5 3.2 L-0.6 6.35 -1.1 7.35 -0.6 6.35 0.5 3.2 Q1.05 1.1 0.9 -0.75 0.65 -3.9 0.2 -4.15 L-2.05 -4.0 Q-3.85 -3.55 -4.7 -2.75 L-6.05 -1.6" fill="#ffffff" fill-rule="evenodd" stroke="none"/>
      <path d="M6.1 -0.05 L6.35 -0.6 Q8.75 -1.7 9.25 -4.95 L9.3 -4.95 9.35 -4.7 Q10.35 -0.75 9.35 1.7 8.35 4.15 7.15 5.45 L4.2 8.4 3.9 8.7 3.4 9.15 Q1.55 10.65 -0.5 11.25 L-3.9 11.6 Q-2.6 10.45 -1.1 7.35 -0.05 6.85 0.3 6.2 L1.95 3.05 2.65 2.95 Q4.4 2.95 5.65 0.8 L6.05 0.1 6.1 0.1 6.1 -0.05 M3.9 8.7 Q4.9 7.2 5.55 4.75 6.1 2.35 6.1 0.1 6.1 2.35 5.55 4.75 4.9 7.2 3.9 8.7" fill="#d6baba" fill-rule="evenodd" stroke="none"/>
      <path d="M9.3 -4.95 L9.25 -5.05 Q8.6 -7.35 7.15 -9.5 L6.2 -10.6 Q3.55 -12.1 2.15 -11.3 0.75 -10.5 0.3 -9.8 L-2.95 -6.0 Q-0.7 -8.55 1.0 -8.65 2.65 -8.8 4.0 -7.55 5.35 -6.3 5.65 -4.05 L6.05 -0.5 6.1 -0.05 6.1 0.1 Q6.1 2.35 5.55 4.75 4.9 7.2 3.9 8.7 M9.3 -4.95 L9.35 -4.7 M-9.05 4.2 L-7.35 0.65 -6.05 -1.6 -2.95 -6.0 M-1.1 7.35 L-0.6 6.35 0.5 3.2 Q1.05 1.1 0.9 -0.75 0.65 -3.9 0.2 -4.15 L-2.05 -4.0 Q-3.85 -3.55 -4.7 -2.75 L-6.05 -1.6 M-9.4 5.0 L-7.15 2.75 -5.0 0.65 Q-4.55 0.2 -3.9 0.85 -3.3 1.45 -3.4 2.85 -3.55 4.25 -4.9 6.55 -6.25 8.85 -8.0 10.5 M-1.1 7.35 Q-2.6 10.45 -3.9 11.6" fill="none" stroke="#000000" stroke-linecap="round" stroke-linejoin="round" stroke-opacity="0.3019608" stroke-width="0.05"/>
    </g>
    <g id="sprite1" transform="matrix(1.0, 0.0, 0.0, 1.0, 16.0, 10.1)">
      <use height="20.2" transform="matrix(1.0, 0.0, 0.0, 1.0, -16.0, -10.1)" width="31.95" xlink:href="#shape1"/>
    </g>
    <g id="shape1" transform="matrix(1.0, 0.0, 0.0, 1.0, 16.0, 10.1)">
      <path d="M1.3 6.25 Q5.0 4.15 6.7 1.2 8.3 -1.6 8.3 -5.55 L8.25 -6.2 8.3 -5.55 Q8.3 -1.6 6.7 1.2 5.0 4.15 1.3 6.25 M-4.45 6.85 Q-2.4 6.25 -0.55 4.75 L-0.05 4.3 0.25 4.0 3.2 1.05 Q4.4 -0.25 5.4 -2.7 6.4 -5.15 5.4 -9.1 6.15 -6.55 9.6 -6.75 12.95 -7.0 13.4 -9.4 13.8 -11.85 15.0 -5.55 16.2 0.8 15.85 3.05 15.5 5.25 8.45 7.1 L5.75 8.1 2.45 8.9 0.6 9.25 -0.65 9.4 -2.85 9.7 -4.45 9.95 -5.85 10.1 -7.4 10.05 Q-4.3 9.45 -4.3 7.3 L-4.45 6.85" fill="#d6baba" fill-rule="evenodd" stroke="none"/>
      <path d="M-7.4 10.05 L-8.75 9.9 -11.7 9.25 Q-15.7 8.05 -15.7 5.95 L-15.85 5.55 -16.0 4.3 Q-16.0 2.8 -15.65 1.65 -15.1 -0.1 -13.95 -0.1 L-13.55 -0.25 -13.0 -0.2 -13.35 0.6 -13.7 1.55 -13.75 1.75 -13.8 1.95 Q-13.9 4.75 -11.95 6.1 L-10.35 6.8 -7.85 7.2 -4.45 6.85 -4.3 7.3 Q-4.3 9.45 -7.4 10.05" fill="#ffffff" fill-rule="evenodd" stroke="none"/>
      <path d="M8.25 -6.2 L8.3 -5.55 Q8.3 -1.6 6.7 1.2 5.0 4.15 1.3 6.25 M-4.45 6.85 Q-2.4 6.25 -0.55 4.75 L-0.05 4.3 0.25 4.0 3.2 1.05 Q4.4 -0.25 5.4 -2.7 6.4 -5.15 5.4 -9.1 6.15 -6.55 9.6 -6.75 12.95 -7.0 13.4 -9.4 13.8 -11.85 15.0 -5.55 16.2 0.8 15.85 3.05 15.5 5.25 8.45 7.1 L5.75 8.1 2.45 8.9 0.6 9.25 -0.65 9.4 -2.85 9.7 -4.45 9.95 -5.85 10.1 -7.4 10.05 -8.75 9.9 -11.7 9.25 Q-15.7 8.05 -15.7 5.95 L-15.85 5.55 -16.0 4.3 Q-16.0 2.8 -15.65 1.65 -15.1 -0.1 -13.95 -0.1 L-13.55 -0.25 -13.0 -0.2 -13.35 0.6 -13.7 1.55 -13.75 1.75 -13.8 1.95 Q-13.9 4.75 -11.95 6.1 L-10.35 6.8 -7.85 7.2 -4.45 6.85" fill="none" stroke="#000000" stroke-linecap="round" stroke-linejoin="round" stroke-opacity="0.3019608" stroke-width="0.05"/>
    </g>
    <g id="shape2" transform="matrix(1.0, 0.0, 0.0, 1.0, 8.05, 10.15)">
      <path d="M-0.7 -10.15 Q-0.35 -9.95 -0.35 -9.0 -0.4 -8.1 -1.5 -6.55 -2.95 -4.55 -4.85 -4.5 -5.3 -4.55 -5.35 -5.05 -5.3 -7.55 -2.55 -9.35 -1.35 -10.25 -0.7 -10.15 M-7.2 -2.65 L-6.6 -2.55 -6.45 -2.0 -6.75 -1.5 Q-7.15 -1.05 -7.65 -1.05 -8.0 -1.05 -8.05 -1.5 -8.0 -2.55 -7.2 -2.65" fill="#ffffff" fill-rule="evenodd" stroke="none"/>
    </g>
  </defs>
</svg>
