<?xml version="1.0" encoding="UTF-8" standalone="no"?>
<svg xmlns:xlink="http://www.w3.org/1999/xlink" height="21.2px" width="27.75px" xmlns="http://www.w3.org/2000/svg">
  <g transform="matrix(1.0, 0.0, 0.0, 1.0, 13.9, 10.6)">
    <use height="19.1" id="_col3" transform="matrix(1.0, 0.0, 0.0, 1.0, -11.95, -10.6)" width="25.8" xlink:href="#sprite0"/>
    <use height="20.15" id="_col2" transform="matrix(1.0, 0.0, 0.0, 1.0, -13.9, -9.55)" width="21.7" xlink:href="#sprite1"/>
  </g>
  <defs>
    <g id="sprite0" transform="matrix(1.0, 0.0, 0.0, 1.0, 12.9, 9.55)">
      <use height="19.1" transform="matrix(1.0, 0.0, 0.0, 1.0, -12.9, -9.55)" width="25.8" xlink:href="#shape0"/>
    </g>
    <g id="shape0" transform="matrix(1.0, 0.0, 0.0, 1.0, 12.9, 9.55)">
      <path d="M-6.8 2.05 L-8.55 0.75 Q-10.55 -0.75 -12.1 -2.9 -13.65 -5.1 -12.25 -7.8 L-10.65 -8.45 -8.45 -9.2 -7.55 -9.35 -4.3 -9.45 -2.4 -9.55 1.1 -9.45 1.25 -9.45 1.6 -8.2 1.65 -8.1 1.6 -8.1 1.3 -7.1 1.5 -6.4 Q1.5 -5.2 0.65 -3.85 L0.35 -3.45 Q-0.5 -2.25 -1.5 -1.85 L-1.6 -1.55 -1.9 -1.7 -2.85 -2.35 Q-5.3 -4.2 -5.3 -7.0 -5.3 -8.4 -4.35 -9.4 L-4.3 -9.45 -4.35 -9.4 Q-5.3 -8.4 -5.3 -7.0 -5.3 -4.2 -2.85 -2.35 L-1.9 -1.7 -1.6 -1.55 Q-1.85 -1.15 -2.45 -0.5 -3.2 0.25 -3.9 0.5 L-4.5 0.55 -4.9 0.55 -5.4 1.05 Q-6.2 1.85 -6.8 2.05 M-8.45 -9.2 L-8.8 -8.8 -9.1 -7.65 -9.3 -6.65 Q-9.3 -3.5 -4.55 0.0 L-3.9 0.5 -4.55 0.0 Q-9.3 -3.5 -9.3 -6.65 L-9.1 -7.65 -8.8 -8.8 -8.45 -9.2 M1.6 -8.1 Q0.65 -7.9 -0.1 -7.3 -0.95 -6.6 -0.95 -5.95 -0.95 -5.25 -0.2 -4.5 L0.65 -3.85 -0.2 -4.5 Q-0.95 -5.25 -0.95 -5.95 -0.95 -6.6 -0.1 -7.3 0.65 -7.9 1.6 -8.1" fill="#ffffff" fill-rule="evenodd" stroke="none"/>
      <path d="M1.25 -9.45 L2.75 -9.35 7.8 -8.9 12.9 -8.2 Q11.45 -6.6 11.7 -5.75 L12.0 -3.55 Q12.0 0.75 10.1 4.9 8.85 7.55 6.85 9.55 L3.45 7.5 Q2.1 6.7 -0.25 5.8 -2.65 4.9 -4.55 3.6 L-6.55 2.25 -6.8 2.05 Q-6.2 1.85 -5.4 1.05 L-4.9 0.55 -4.5 0.55 -3.9 0.5 -3.0 1.1 Q2.05 4.35 8.45 4.9 2.05 4.35 -3.0 1.1 L-3.9 0.5 Q-3.2 0.25 -2.45 -0.5 -1.85 -1.15 -1.6 -1.55 L-1.5 -1.85 Q-0.5 -2.25 0.35 -3.45 L0.65 -3.85 Q1.65 -3.2 3.35 -2.75 L6.85 -2.15 10.3 -2.1 6.85 -2.15 3.35 -2.75 Q1.65 -3.2 0.65 -3.85 1.5 -5.2 1.5 -6.4 L1.3 -7.1 1.6 -8.1 1.65 -8.1 1.6 -8.2 1.25 -9.45 M9.3 1.9 L5.3 1.5 3.35 0.7 -0.75 -1.15 -1.6 -1.55 -0.75 -1.15 3.35 0.7 5.3 1.5 9.3 1.9 M10.1 -6.8 L7.8 -7.0 5.8 -8.0 4.0 -8.1 1.75 -8.15 1.65 -8.1 1.75 -8.15 4.0 -8.1 5.8 -8.0 7.8 -7.0 10.1 -6.8" fill="#d6baba" fill-rule="evenodd" stroke="none"/>
      <path d="M-10.65 -8.45 L-8.45 -9.2 -7.55 -9.35 -4.3 -9.45 -2.4 -9.55 1.1 -9.45 M1.25 -9.45 L2.75 -9.35 7.8 -8.9 12.9 -8.2 Q11.45 -6.6 11.7 -5.75 L12.0 -3.55 Q12.0 0.75 10.1 4.9 8.85 7.55 6.85 9.55 M-3.9 0.5 L-4.55 0.0 Q-9.3 -3.5 -9.3 -6.65 L-9.1 -7.65 -8.8 -8.8 -8.45 -9.2 M-4.3 -9.45 L-4.35 -9.4 Q-5.3 -8.4 -5.3 -7.0 -5.3 -4.2 -2.85 -2.35 L-1.9 -1.7 -1.6 -1.55 -0.75 -1.15 3.35 0.7 5.3 1.5 9.3 1.9 M0.65 -3.85 L-0.2 -4.5 Q-0.95 -5.25 -0.95 -5.95 -0.95 -6.6 -0.1 -7.3 0.65 -7.9 1.6 -8.1 L1.65 -8.1 1.75 -8.15 4.0 -8.1 5.8 -8.0 7.8 -7.0 10.1 -6.8 M0.65 -3.85 Q1.65 -3.2 3.35 -2.75 L6.85 -2.15 10.3 -2.1 M-3.9 0.5 L-3.0 1.1 Q2.05 4.35 8.45 4.9" fill="none" stroke="#000000" stroke-linecap="round" stroke-linejoin="round" stroke-opacity="0.3019608" stroke-width="0.05"/>
    </g>
    <g id="sprite1" transform="matrix(1.0, 0.0, 0.0, 1.0, 10.85, 10.05)">
      <use height="20.15" transform="matrix(1.0, 0.0, 0.0, 1.0, -10.85, -10.05)" width="21.7" xlink:href="#shape1"/>
    </g>
    <g id="shape1" transform="matrix(1.0, 0.0, 0.0, 1.0, 10.85, 10.05)">
      <path d="M-4.75 2.0 L-4.85 1.9 -6.05 0.95 -8.35 -1.35 Q-10.1 -3.25 -10.8 -6.05 L-10.8 -7.25 Q-9.95 -10.35 -6.65 -10.0 L-8.25 -9.35 Q-9.65 -6.65 -8.1 -4.45 -6.55 -2.3 -4.55 -0.8 L-2.8 0.5 -2.55 0.7 Q-2.45 1.65 -2.8 1.9 L-4.0 2.1 -4.75 2.0" fill="#ffffff" fill-rule="evenodd" stroke="none"/>
      <path d="M-4.75 2.0 L-4.0 2.1 -2.8 1.9 Q-2.45 1.65 -2.55 0.7 L-0.55 2.05 Q1.35 3.35 3.75 4.25 6.1 5.15 7.45 5.95 L10.85 8.0 8.2 10.1 Q6.45 8.1 4.15 6.85 L-0.4 4.55 Q-2.7 3.45 -4.75 2.0" fill="#d6baba" fill-rule="evenodd" stroke="none"/>
      <path d="M-2.55 0.7 L-2.8 0.5 -4.55 -0.8 Q-6.55 -2.3 -8.1 -4.45 -9.65 -6.65 -8.25 -9.35 L-6.65 -10.0 Q-9.95 -10.35 -10.8 -7.25 L-10.8 -6.05 Q-10.1 -3.25 -8.35 -1.35 L-6.05 0.95 -4.85 1.9 -4.75 2.0 M-2.55 0.7 L-0.55 2.05 Q1.35 3.35 3.75 4.25 6.1 5.15 7.45 5.95 L10.85 8.0 8.2 10.1 Q6.45 8.1 4.15 6.85 L-0.4 4.55 Q-2.7 3.45 -4.75 2.0" fill="none" stroke="#000000" stroke-linecap="round" stroke-linejoin="round" stroke-opacity="0.3019608" stroke-width="0.05"/>
    </g>
  </defs>
</svg>
