<?xml version="1.0" encoding="UTF-8" standalone="no"?>
<svg xmlns:xlink="http://www.w3.org/1999/xlink" height="32.05px" width="17.95px" xmlns="http://www.w3.org/2000/svg">
  <g transform="matrix(1.0, 0.0, 0.0, 1.0, 10.25, 16.0)">
    <use height="32.05" id="_col2" transform="matrix(1.0, 0.0, 0.0, 1.0, -7.7, -16.0)" width="15.4" xlink:href="#sprite0"/>
    <use height="19.95" id="_col3" transform="matrix(1.0, 0.0, 0.0, 1.0, -10.25, -7.6)" width="16.6" xlink:href="#sprite1"/>
  </g>
  <defs>
    <g id="sprite0" transform="matrix(1.0, 0.0, 0.0, 1.0, 7.7, 16.0)">
      <use height="32.05" transform="matrix(1.0, 0.0, 0.0, 1.0, -7.7, -16.0)" width="15.4" xlink:href="#shape0"/>
    </g>
    <g id="shape0" transform="matrix(1.0, 0.0, 0.0, 1.0, 7.7, 16.0)">
      <path d="M2.45 -7.2 L2.95 -6.95 4.15 -6.35 7.7 -4.75 Q7.55 4.1 6.65 9.4 5.75 14.35 1.8 15.6 L1.35 15.75 0.9 15.85 0.15 16.0 0.15 15.95 0.3 14.6 0.05 13.1 -0.25 11.5 -0.55 9.45 -0.4 6.8 0.0 4.2 0.35 0.8 Q0.35 -2.3 -0.65 -4.2 L-2.6 -7.1 Q-2.95 -8.0 -3.7 -8.7 L-1.6 -7.4 0.35 -6.7 Q1.05 -6.6 2.45 -7.2 M0.9 15.85 L0.15 15.95 0.9 15.85" fill="#d6baba" fill-rule="evenodd" stroke="none"/>
      <path d="M0.15 15.95 Q-3.4 16.5 -5.6 14.5 -8.15 12.15 -7.6 5.3 -7.1 -1.55 -6.9 -7.1 L-6.4 -16.0 Q-3.4 -10.5 2.45 -7.2 1.05 -6.6 0.35 -6.7 L-1.6 -7.4 -3.7 -8.7 Q-2.95 -8.0 -2.6 -7.1 L-0.65 -4.2 Q0.35 -2.3 0.35 0.8 L0.0 4.2 -0.4 6.8 -0.55 9.45 -0.25 11.5 0.05 13.1 0.3 14.6 0.15 15.95" fill="#ffffff" fill-rule="evenodd" stroke="none"/>
      <path d="M2.45 -7.2 L2.95 -6.95 4.15 -6.35 7.7 -4.75 Q7.55 4.1 6.65 9.4 5.75 14.35 1.8 15.6 L1.35 15.75 0.9 15.85 M0.15 15.95 Q-3.4 16.5 -5.6 14.5 -8.15 12.15 -7.6 5.3 -7.1 -1.55 -6.9 -7.1 L-6.4 -16.0 Q-3.4 -10.5 2.45 -7.2 M0.15 15.95 L0.9 15.85" fill="none" stroke="#000000" stroke-linecap="round" stroke-linejoin="round" stroke-opacity="0.3019608" stroke-width="0.05"/>
    </g>
    <g id="sprite1" transform="matrix(1.0, 0.0, 0.0, 1.0, 8.35, 9.95)">
      <use height="19.95" transform="matrix(1.0, 0.0, 0.0, 1.0, -8.35, -9.95)" width="16.6" xlink:href="#shape1"/>
    </g>
    <g id="shape1" transform="matrix(1.0, 0.0, 0.0, 1.0, 8.35, 9.95)">
      <path d="M-6.4 6.2 L-7.05 3.3 Q-8.8 -3.55 -8.05 -9.95 L-7.7 -8.05 Q-7.55 -6.65 -5.3 -4.65 L-0.9 -0.25 3.3 3.8 3.45 3.85 3.1 3.9 Q-1.8 1.4 -1.8 0.95 L-3.0 0.0 -4.8 -1.15 -4.65 -0.85 -4.0 0.7 -5.55 3.7 -6.4 6.2" fill="#ffffff" fill-rule="evenodd" stroke="none"/>
      <path d="M-6.4 6.2 L-5.55 3.7 -4.0 0.7 -4.65 -0.85 -4.8 -1.15 -3.0 0.0 -1.8 0.95 Q-1.8 1.4 3.1 3.9 L3.45 3.85 Q5.35 5.4 8.25 7.1 L8.05 7.9 4.6 7.6 0.85 6.85 Q-3.5 6.55 -5.6 10.0 L-5.85 9.55 Q-6.05 7.9 -6.4 6.2" fill="#d6baba" fill-rule="evenodd" stroke="none"/>
      <path d="M3.45 3.85 L3.3 3.8 -0.9 -0.25 -5.3 -4.65 Q-7.55 -6.65 -7.7 -8.05 L-8.05 -9.95 Q-8.8 -3.55 -7.05 3.3 L-6.4 6.2 M3.45 3.85 Q5.35 5.4 8.25 7.1 L8.05 7.9 4.6 7.6 0.85 6.85 Q-3.5 6.55 -5.6 10.0 L-5.85 9.55 Q-6.05 7.9 -6.4 6.2" fill="none" stroke="#000000" stroke-linecap="round" stroke-linejoin="round" stroke-opacity="0.3019608" stroke-width="0.05"/>
    </g>
  </defs>
</svg>
