<?xml version="1.0" encoding="UTF-8" standalone="no"?>
<svg xmlns:xlink="http://www.w3.org/1999/xlink" height="85.15px" width="97.55px" xmlns="http://www.w3.org/2000/svg">
  <g transform="matrix(1.0, 0.0, 0.0, 1.0, 35.45, 42.1)">
    <use height="40.45" transform="matrix(1.0, 0.0, 0.0, 1.0, -23.25, -26.3)" width="68.25" xlink:href="#shape0"/>
  </g>
  <defs>
    <g id="shape0" transform="matrix(1.0, 0.0, 0.0, 1.0, 23.25, 26.3)">
      <path d="M4.25 -13.5 L13.85 -23.35 Q11.2 -18.85 14.3 -7.95 19.8 -3.3 41.1 -2.65 L7.7 -1.05 Q8.85 -1.8 10.95 -4.2 12.95 -6.55 11.35 -9.85 9.7 -13.1 6.5 -13.55 L4.25 -13.5 M2.55 0.8 L4.9 0.35 Q6.45 -0.15 7.7 -0.95 L4.6 14.15 2.55 0.8 M-2.9 -0.35 L-14.25 5.45 -6.0 -3.05 Q-4.65 -1.35 -2.9 -0.35" fill="#980101" fill-rule="evenodd" stroke="none"/>
      <path d="M-23.25 -3.1 L-6.8 -3.1 Q-8.25 -0.95 -8.75 1.8 L-23.25 -3.1 M5.7 -8.6 L1.75 -8.5 -1.25 -7.6 -6.7 -24.2 5.7 -8.6 M11.35 -6.8 L5.8 -8.55 Q17.35 -14.1 45.0 -26.3 20.95 -13.0 17.35 -4.5 20.25 9.85 25.9 13.45 L9.1 7.8 Q10.2 7.55 11.7 6.5 15.15 4.1 15.1 -0.6 15.05 -5.3 11.35 -6.8" fill="#ff0000" fill-rule="evenodd" stroke="none"/>
    </g>
  </defs>
</svg>
