<?xml version="1.0" encoding="UTF-8" standalone="no"?>
<svg xmlns:xlink="http://www.w3.org/1999/xlink" height="163.4px" width="66.2px" xmlns="http://www.w3.org/2000/svg">
  <g transform="matrix(1.0, 0.0, 0.0, 1.0, 107.05, 103.4)">
    <use height="143.25" id="_col1" transform="matrix(1.0, 0.0, 0.0, 1.0, -107.05, -83.25)" width="45.3" xlink:href="#sprite0"/>
  </g>
  <defs>
    <g id="sprite0" transform="matrix(1.0, 0.0, 0.0, 1.0, 22.65, 71.65)">
      <use height="143.25" transform="matrix(1.0, 0.0, 0.0, 1.0, -22.65, -71.65)" width="45.3" xlink:href="#shape0"/>
    </g>
    <g id="shape0" transform="matrix(1.0, 0.0, 0.0, 1.0, 22.65, 71.65)">
      <path d="M-17.25 59.0 Q-18.7 56.55 -20.45 49.75 -22.35 42.35 -22.35 37.95 -22.35 35.2 -21.85 31.0 -21.3 26.4 -22.65 12.6 L-20.5 -2.2 Q-17.8 -17.9 -15.2 -23.3 L-8.15 -38.05 Q-4.65 -45.5 -3.85 -48.4 L6.35 -65.9 6.1 -65.65 5.85 -68.65 5.6 -71.65 Q7.25 -67.8 9.2 -67.05 L17.0 -66.4 14.6 -64.75 Q12.5 -62.9 13.05 -60.45 22.65 -38.65 22.65 -37.15 22.65 -33.15 19.85 -25.7 17.0 -18.25 17.0 -8.8 17.0 -2.6 18.4 3.3 19.75 9.25 19.75 15.95 19.75 21.5 19.0 26.3 17.75 33.95 14.3 43.85 13.1 46.2 8.75 50.8 4.15 55.6 2.65 56.65 L2.55 56.55 Q6.55 52.6 8.85 43.2 10.45 36.7 10.6 31.65 L10.6 31.4 Q10.05 32.55 5.7 36.55 1.3 41.4 -0.35 47.5 -3.35 58.95 -3.35 67.35 L-3.3 70.45 -3.2 70.85 Q-6.15 64.05 -7.75 54.9 -9.25 45.95 -8.75 39.85 -10.95 40.25 -14.3 47.25 -17.85 54.6 -17.15 58.9 L-17.25 59.0" fill="#d6baba" fill-rule="evenodd" stroke="none"/>
      <path d="M-17.25 59.0 Q-18.7 56.55 -20.45 49.75 -22.35 42.35 -22.35 37.95 -22.35 35.2 -21.85 31.0 -21.3 26.4 -22.65 12.6 L-20.5 -2.2 Q-17.8 -17.9 -15.2 -23.3 L-8.15 -38.05 Q-4.65 -45.5 -3.85 -48.4 L6.35 -65.9 6.1 -65.65 5.85 -68.65 5.6 -71.65 Q7.25 -67.8 9.2 -67.05 L17.0 -66.4 14.6 -64.75 Q12.5 -62.9 13.05 -60.45 22.65 -38.65 22.65 -37.15 22.65 -33.15 19.85 -25.7 17.0 -18.25 17.0 -8.8 17.0 -2.6 18.4 3.3 19.75 9.25 19.75 15.95 19.75 21.5 19.0 26.3 17.75 33.95 14.3 43.85 13.1 46.2 8.75 50.8 4.15 55.6 2.65 56.65 L2.4 56.65 2.55 56.55 Q6.55 52.6 8.85 43.2 10.45 36.7 10.6 31.65 L10.6 31.4 Q10.05 32.55 5.7 36.55 1.3 41.4 -0.35 47.5 -3.35 58.95 -3.35 67.35 L-3.3 70.45 -3.2 70.85 -2.85 71.6 M-3.2 70.85 Q-6.15 64.05 -7.75 54.9 -9.25 45.95 -8.75 39.85 -10.95 40.25 -14.3 47.25 -17.85 54.6 -17.15 58.9 L-17.15 59.15 -17.25 59.0 Z" fill="none" stroke="#000000" stroke-linecap="round" stroke-linejoin="round" stroke-opacity="0.4" stroke-width="0.05"/>
    </g>
  </defs>
</svg>
