<?xml version="1.0" encoding="UTF-8" standalone="no"?>
<svg xmlns:xlink="http://www.w3.org/1999/xlink" height="67.0px" width="27.85px" xmlns="http://www.w3.org/2000/svg">
  <g transform="matrix(1.0, 0.0, 0.0, 1.0, 57.95, 19.75)">
    <use height="67.0" transform="matrix(1.0, 0.0, 0.0, 1.0, -57.95, -19.75)" width="27.85" xlink:href="#shape0"/>
  </g>
  <defs>
    <g id="shape0" transform="matrix(1.0, 0.0, 0.0, 1.0, 57.95, 19.75)">
      <path d="M-56.3 -19.15 Q-56.3 -18.7 -56.65 -18.15 L-57.0 -17.2 Q-57.0 -13.95 -55.4 -0.75 L-55.5 0.25 -55.65 0.25 -56.35 -3.1 -56.35 -3.05 -56.65 3.25 -56.4 5.8 -56.45 6.8 -56.55 6.95 Q-57.25 1.9 -57.35 -0.7 L-57.25 -2.6 Q-57.15 -3.85 -57.35 -4.55 L-57.65 -6.4 -57.85 -8.25 -57.75 -10.4 -57.95 -13.7 -57.85 -16.7 Q-57.6 -17.95 -56.45 -19.75 L-56.3 -19.15 M-31.15 -5.95 Q-30.1 -0.55 -30.1 1.9 -30.1 4.45 -31.75 6.8 L-36.0 12.3 Q-37.05 13.75 -41.55 16.95 -45.65 19.9 -46.55 21.85 L-46.9 20.05 Q-46.9 18.9 -43.9 16.75 L-40.25 14.0 -38.25 10.25 Q-37.15 8.05 -36.05 7.25 -32.05 4.35 -31.5 0.65 -31.6 -3.65 -31.3 -5.95 L-31.15 -5.95 M-30.55 -8.9 Q-30.7 -8.45 -31.2 -8.45 -31.95 -8.45 -32.05 -10.25 -32.05 -11.25 -31.25 -11.1 -30.5 -10.95 -30.5 -9.7 L-30.55 -8.9 M-54.95 5.45 L-54.75 7.7 -55.0 10.85 Q-55.0 13.35 -55.8 21.15 L-55.95 22.55 -56.5 12.5 -55.75 7.55 Q-55.2 4.4 -55.65 2.6 L-55.5 2.6 -54.95 5.45 M-55.9 31.45 L-56.1 36.6 -56.1 38.9 -56.1 39.1 Q-55.75 40.2 -55.35 43.0 -54.6 45.45 -51.65 46.4 L-51.6 46.65 -52.05 46.7 Q-53.5 46.7 -54.45 45.9 -53.9 46.65 -53.1 46.7 L-53.05 46.85 -53.35 47.1 -53.8 47.25 Q-55.65 47.25 -56.15 44.7 L-56.45 41.05 -56.8 38.05 Q-57.25 33.45 -56.55 28.95 L-56.05 25.15 Q-55.7 28.35 -55.9 31.45" fill="#ffd633" fill-rule="evenodd" stroke="none"/>
    </g>
  </defs>
</svg>
