<?xml version="1.0" encoding="UTF-8" standalone="no"?>
<svg xmlns:xlink="http://www.w3.org/1999/xlink" height="101.0px" width="101.0px" xmlns="http://www.w3.org/2000/svg">
  <g transform="matrix(1.0, 0.0, 0.0, 1.0, 0.5, 0.5)">
    <use height="101.0" id="smc" transform="matrix(1.0, 0.0, 0.0, 1.0, -0.5, -0.5)" width="101.0" xlink:href="#sprite0"/>
    <use height="95.25" id="+Da3+" transform="matrix(1.0, 0.0, 0.0, 1.0, 2.1, 1.85)" width="95.35" xlink:href="#text0"/>
  </g>
  <defs>
    <g id="sprite0" transform="matrix(1.0, 0.0, 0.0, 1.0, 0.5, 0.5)">
      <use height="101.0" transform="matrix(1.0, 0.0, 0.0, 1.0, -0.5, -0.5)" width="101.0" xlink:href="#shape0"/>
    </g>
    <g id="shape0" transform="matrix(1.0, 0.0, 0.0, 1.0, 0.5, 0.5)">
      <path d="M0.0 0.0 L100.0 0.0 100.0 100.0 0.0 100.0 0.0 0.0" fill="#ffff99" fill-rule="evenodd" stroke="none"/>
      <path d="M0.0 0.0 L100.0 0.0 100.0 100.0 0.0 100.0 0.0 0.0 Z" fill="none" stroke="#ae8548" stroke-linecap="round" stroke-linejoin="round" stroke-width="1.0"/>
    </g>
  </defs>
</svg>
