<?xml version="1.0" encoding="UTF-8" standalone="no"?>
<svg xmlns:xlink="http://www.w3.org/1999/xlink" height="15.2px" width="15.6px" xmlns="http://www.w3.org/2000/svg">
  <g transform="matrix(1.0, 0.0, 0.0, 1.0, 6.6, 8.7)">
    <use height="15.2" transform="matrix(1.0, 0.0, 0.0, 1.0, -6.6, -8.7)" width="15.6" xlink:href="#shape0"/>
  </g>
  <defs>
    <g id="shape0" transform="matrix(1.0, 0.0, 0.0, 1.0, 6.6, 8.7)">
      <path d="M1.65 -8.35 L2.0 -5.9 Q2.05 -4.35 1.55 -2.8 L0.8 -0.45 Q0.55 0.25 0.45 1.0 L-0.4 0.75 -3.0 0.4 -3.85 0.65 -3.95 -0.85 -6.0 -0.45 -6.0 -0.7 Q-6.45 -2.2 -6.6 -4.4 -6.7 -6.05 -6.15 -7.7 L-6.1 -7.85 -5.7 -8.7 1.65 -8.35 M-4.8 -6.05 Q-4.95 -4.15 -4.35 -2.2 L-3.95 -0.85 -4.35 -2.2 Q-4.95 -4.15 -4.8 -6.05" fill="#d6baba" fill-rule="evenodd" stroke="none"/>
      <path d="M4.6 -8.25 L5.3 -7.2 5.65 -6.75 7.0 -3.25 8.9 2.35 Q9.2 3.35 8.75 5.15 L6.2 6.5 5.35 5.4 5.05 5.1 Q4.1 4.3 2.7 4.3 L2.7 3.7 Q4.05 2.95 4.2 1.65 4.5 -0.15 3.3 0.3 L2.55 1.0 2.1 2.0 Q1.45 1.4 0.45 1.0 0.55 0.25 0.8 -0.45 L1.55 -2.8 Q2.05 -4.35 2.0 -5.9 L1.65 -8.35 1.65 -8.4 1.85 -8.35 4.6 -8.25 M4.75 -0.85 L3.3 0.3 4.75 -0.85" fill="#a78383" fill-rule="evenodd" stroke="none"/>
      <path d="M6.2 6.5 L8.75 5.15 Q9.2 3.35 8.9 2.35 L7.0 -3.25 5.65 -6.75 5.3 -7.2 4.6 -8.25 M2.1 2.0 L2.55 1.0 3.3 0.3 4.75 -0.85 M2.7 4.3 Q4.1 4.3 5.05 5.1 L5.35 5.4 M-5.7 -8.7 L-6.1 -7.85 -6.15 -7.7 Q-6.7 -6.05 -6.6 -4.4 -6.45 -2.2 -6.0 -0.7 L-6.0 -0.45 M-3.95 -0.85 L-4.35 -2.2 Q-4.95 -4.15 -4.8 -6.05 M-3.95 -0.85 L-3.85 0.65" fill="none" stroke="#000000" stroke-linecap="round" stroke-linejoin="round" stroke-opacity="0.4" stroke-width="0.05"/>
      <path d="M0.45 1.0 Q1.45 1.4 2.1 2.0 M5.35 5.4 L6.2 6.5 M-3.85 0.65 L-3.0 0.4 -0.4 0.75 0.45 1.0" fill="none" stroke="#000000" stroke-linecap="round" stroke-linejoin="round" stroke-opacity="0.3019608" stroke-width="0.05"/>
    </g>
  </defs>
</svg>
