<?xml version="1.0" encoding="UTF-8" standalone="no"?>
<svg xmlns:xlink="http://www.w3.org/1999/xlink" height="17.8px" width="23.25px" xmlns="http://www.w3.org/2000/svg">
  <g transform="matrix(1.0, 0.0, 0.0, 1.0, 16.85, 5.05)">
    <use height="17.8" transform="matrix(1.0, 0.0, 0.0, 1.0, -16.85, -5.05)" width="23.25" xlink:href="#sprite0"/>
  </g>
  <defs>
    <g id="sprite0" transform="matrix(1.0, 0.0, 0.0, 1.0, 11.65, 8.9)">
      <use height="17.8" transform="matrix(1.0, 0.0, 0.0, 1.0, -11.65, -8.9)" width="23.25" xlink:href="#shape0"/>
    </g>
    <g id="shape0" transform="matrix(1.0, 0.0, 0.0, 1.0, 11.65, 8.9)">
      <path d="M5.8 -5.1 L6.05 -4.7 6.8 -4.7 5.8 -5.1 M11.6 -4.15 L10.7 -3.8 11.1 -2.85 11.05 -2.55 9.85 -1.6 Q0.1 5.8 -11.5 8.9 L-11.5 8.45 Q-2.85 5.05 5.4 0.35 L6.2 -2.1 2.8 -0.9 2.05 0.95 1.35 2.0 0.85 2.45 0.15 2.45 1.2 -0.35 -7.3 2.1 1.55 -1.55 1.85 -2.65 -11.65 -1.35 2.0 -3.25 2.2 -3.9 Q-2.95 -4.15 -7.95 -5.6 L2.5 -4.8 2.95 -5.95 -7.35 -8.75 -3.55 -8.9 Q3.4 -7.75 9.85 -5.05 L11.4 -4.35 11.6 -4.15 M7.1 -2.4 L6.65 -0.45 9.95 -2.8 9.25 -3.25 7.1 -2.4 M3.0 -5.95 L3.2 -4.8 5.2 -4.75 4.75 -5.4 3.0 -5.95 M3.25 -3.35 L5.8 -3.75 3.25 -3.65 3.25 -3.35 M3.1 -2.1 L6.05 -3.05 3.2 -2.75 3.1 -2.1" fill="#cccccc" fill-rule="evenodd" stroke="none"/>
    </g>
  </defs>
</svg>
