<?xml version="1.0" encoding="UTF-8" standalone="no"?>
<svg xmlns:xlink="http://www.w3.org/1999/xlink" height="15.25px" width="41.0px" xmlns="http://www.w3.org/2000/svg">
  <g transform="matrix(1.0, 0.0, 0.0, 1.0, 22.1, 7.6)">
    <use height="15.25" transform="matrix(1.0, 0.0, 0.0, 1.0, -22.1, -7.6)" width="41.0" xlink:href="#shape0"/>
  </g>
  <defs>
    <g id="shape0" transform="matrix(1.0, 0.0, 0.0, 1.0, 22.1, 7.6)">
      <path d="M17.35 -7.6 Q18.3 -7.0 18.3 -6.2 18.3 -4.05 14.6 -3.5 L12.0 -3.0 8.6 -2.35 1.05 -0.6 -0.7 -0.15 -1.4 0.0 Q-1.85 -0.1 -2.3 -0.35 L-3.15 -1.2 -3.1 -1.2 0.9 -2.2 5.9 -3.3 15.45 -4.85 16.6 -6.4 16.6 -6.45 15.4 -7.25 17.25 -7.6 17.35 -7.6" fill="#ffffff" fill-rule="evenodd" stroke="none"/>
      <path d="M-3.15 -1.2 L-2.3 -0.35 Q-1.85 -0.1 -1.4 0.0 L-0.7 -0.15 1.05 -0.6 8.6 -2.35 12.0 -3.0 14.6 -3.5 Q18.3 -4.05 18.3 -6.2 18.3 -7.0 17.35 -7.6 18.9 -7.55 18.9 -6.1 18.9 -3.5 14.1 -2.2 L5.8 -0.55 -6.25 2.6 Q-12.4 4.2 -16.7 7.25 L-17.3 7.65 -17.45 7.65 Q-18.6 7.45 -18.8 6.3 L-19.4 5.85 -17.8 4.75 Q-15.95 3.25 -12.9 1.95 -11.15 1.2 -8.8 0.45 -11.15 1.2 -12.9 1.95 -15.95 3.25 -17.8 4.75 L-19.4 5.85 Q-20.2 5.05 -21.0 3.15 L-22.1 -0.2 Q-22.1 -1.3 -21.25 -2.55 L-20.7 -2.1 Q-18.85 -0.7 -15.2 0.0 L-8.8 0.45 -6.45 -0.25 -3.15 -1.2" fill="#d1b6b6" fill-rule="evenodd" stroke="none"/>
      <path d="M17.35 -7.6 L17.25 -7.6 15.4 -7.25 16.6 -6.45 16.6 -6.4 15.45 -4.85 5.9 -3.3 0.9 -2.2 -3.1 -1.2 M-3.15 -1.2 L-6.45 -0.25 -8.8 0.45 Q-11.15 1.2 -12.9 1.95 -15.95 3.25 -17.8 4.75 L-19.4 5.85 M-17.45 7.65 L-17.3 7.65 -16.7 7.25 Q-12.4 4.2 -6.25 2.6 L5.8 -0.55 14.1 -2.2 Q18.9 -3.5 18.9 -6.1 18.9 -7.55 17.35 -7.6 M-8.8 0.45 L-15.2 0.0 Q-18.85 -0.7 -20.7 -2.1 L-21.25 -2.55" fill="none" stroke="#000000" stroke-linecap="round" stroke-linejoin="round" stroke-opacity="0.3019608" stroke-width="0.05"/>
    </g>
  </defs>
</svg>
