<?xml version="1.0" encoding="UTF-8" standalone="no"?>
<svg xmlns:xlink="http://www.w3.org/1999/xlink" height="24.5px" width="25.15px" xmlns="http://www.w3.org/2000/svg">
  <g transform="matrix(1.0, 0.0, 0.0, 1.0, 12.55, 12.25)">
    <use height="24.5" transform="matrix(1.0, 0.0, 0.0, 1.0, -12.55, -12.25)" width="25.15" xlink:href="#shape0"/>
    <use height="19.0" transform="matrix(0.0, 1.0, -1.0, 0.0, 9.2, -9.35)" width="20.65" xlink:href="#sprite0"/>
  </g>
  <defs>
    <g id="shape0" transform="matrix(1.0, 0.0, 0.0, 1.0, 12.55, 12.25)">
      <path d="M-5.85 -11.05 L-5.8 -10.9 Q-5.3 -9.65 -5.3 -8.9 L-5.5 -8.2 -5.75 -7.75 -6.85 -6.6 -7.1 -6.5 -8.25 -4.75 -9.5 -1.6 -10.1 0.35 -10.3 1.0 -10.0 1.55 -10.2 1.2 -10.35 2.15 Q-10.55 3.6 -11.15 3.6 L-11.8 3.7 -12.35 3.15 -12.55 1.8 Q-11.25 -2.7 -9.6 -6.35 -8.55 -8.85 -7.7 -9.95 L-6.25 -10.95 -6.15 -11.05 -5.85 -11.05 M-4.1 -6.85 L-3.7 -6.7 Q-2.95 -6.9 -2.5 -7.65 -2.05 -8.3 -2.05 -9.0 L-2.15 -9.85 -2.85 -10.3 -2.2 -11.6 -1.95 -11.75 -1.5 -11.85 -1.2 -11.95 0.8 -12.25 Q4.7 -12.25 8.9 -9.1 12.45 -6.4 12.45 -5.3 L12.6 -4.9 12.1 -4.6 Q11.2 -3.95 10.4 -3.95 L9.45 -3.85 7.1 -4.7 4.9 -5.6 Q4.6 -5.6 3.35 -3.0 L0.7 2.55 Q-0.65 5.5 -1.7 7.25 L-3.15 9.4 -4.15 10.8 -5.45 10.1 -7.85 8.45 -9.4 7.1 -9.4 6.95 -9.7 6.75 Q-10.0 6.6 -9.8 6.15 L-9.6 5.8 -9.4 5.5 -9.1 4.9 -8.85 4.95 -8.65 5.05 -7.8 4.7 Q-7.5 4.4 -7.5 3.8 L-8.05 2.6 -8.0 2.65 -7.8 2.1 -5.1 -4.35 -4.1 -6.85 M1.55 -11.2 L-0.25 -11.2 -0.9 -11.2 -1.0 -11.1 -1.0 -10.9 -0.8 -10.5 -0.55 -10.35 5.95 -6.25 Q8.5 -4.7 11.65 -4.9 10.45 -7.35 6.65 -9.3 2.85 -11.2 1.55 -11.2" fill="#ffffcc" fill-rule="evenodd" stroke="none"/>
      <path d="M-6.85 -6.6 L-5.75 -7.75 -5.5 -8.2 -5.3 -8.9 Q-5.3 -9.65 -5.8 -10.9 L-5.85 -11.05 -5.0 -11.0 Q-3.9 -10.8 -2.85 -10.3 L-2.15 -9.85 -2.05 -9.0 Q-2.05 -8.3 -2.5 -7.65 -2.95 -6.9 -3.7 -6.7 L-4.1 -6.85 -5.3 -7.15 -5.5 -7.15 -6.35 -6.85 -6.85 -6.6 M-11.8 3.7 L-11.15 3.6 Q-10.55 3.6 -10.35 2.15 L-10.2 1.2 -10.0 1.55 -9.9 1.8 -8.05 2.6 -7.5 3.8 Q-7.5 4.4 -7.8 4.7 L-8.65 5.05 -8.85 4.95 -9.1 4.9 -10.9 4.2 -11.15 4.05 -11.2 4.05 -11.8 3.7 M12.6 -4.9 L12.15 -3.6 10.5 -0.05 6.95 6.65 4.9 9.7 Q3.1 11.7 1.75 12.1 0.4 12.55 -2.05 11.65 L-3.5 11.05 -4.15 10.8 -3.15 9.4 -1.7 7.25 Q-0.65 5.5 0.7 2.55 L3.35 -3.0 Q4.6 -5.6 4.9 -5.6 L7.1 -4.7 9.45 -3.85 10.4 -3.95 Q11.2 -3.95 12.1 -4.6 L12.6 -4.9" fill="#cbb992" fill-rule="evenodd" stroke="none"/>
      <path d="M1.55 -11.2 Q2.85 -11.2 6.65 -9.3 10.45 -7.35 11.65 -4.9 8.5 -4.7 5.95 -6.25 L-0.55 -10.35 -0.8 -10.5 -1.0 -10.9 -1.0 -11.1 -0.9 -11.2 -0.25 -11.2 1.55 -11.2" fill="#936b31" fill-rule="evenodd" stroke="none"/>
      <path d="M-5.85 -11.05 L-6.15 -11.05 -6.25 -10.95 -7.7 -9.95 Q-8.55 -8.85 -9.6 -6.35 -11.25 -2.7 -12.55 1.8 L-12.35 3.15 -11.8 3.7 M-10.0 1.55 L-10.3 1.0 -10.1 0.35 -9.5 -1.6 -8.25 -4.75 -7.1 -6.5 -6.85 -6.6 -6.35 -6.85 -5.5 -7.15 -5.3 -7.15 -4.1 -6.85 -3.7 -6.7 Q-2.95 -6.9 -2.5 -7.65 -2.05 -8.3 -2.05 -9.0 L-2.15 -9.85 -2.85 -10.3 Q-3.9 -10.8 -5.0 -11.0 L-5.85 -11.05 M12.6 -4.9 L12.45 -5.3 Q12.45 -6.4 8.9 -9.1 4.7 -12.25 0.8 -12.25 L-1.2 -11.95 -1.5 -11.85 -1.95 -11.75 -2.2 -11.6 -2.85 -10.3 M1.55 -11.2 L-0.25 -11.2 -0.9 -11.2 -1.0 -11.1 -1.0 -10.9 -0.8 -10.5 -0.55 -10.35 5.95 -6.25 Q8.5 -4.7 11.65 -4.9 10.45 -7.35 6.65 -9.3 2.85 -11.2 1.55 -11.2 M-4.15 10.8 L-3.5 11.05 -2.05 11.65 Q0.4 12.55 1.75 12.1 3.1 11.7 4.9 9.7 L6.95 6.65 10.5 -0.05 12.15 -3.6 12.6 -4.9 M-4.15 10.8 L-5.45 10.1 -7.85 8.45 -9.4 7.1 -9.4 6.95 -9.7 6.75 Q-10.0 6.6 -9.8 6.15 L-9.6 5.8 -9.4 5.5 -9.1 4.9 -10.9 4.2 -11.15 4.05 -11.2 4.05 -11.8 3.7 M-10.0 1.55 L-9.9 1.8 -8.05 2.6 -8.0 2.65 -7.8 2.1 -5.1 -4.35 -4.1 -6.85 M-8.05 2.6 L-7.5 3.8 Q-7.5 4.4 -7.8 4.7 L-8.65 5.05 -8.85 4.95 -9.1 4.9" fill="none" stroke="#000000" stroke-linecap="round" stroke-linejoin="round" stroke-opacity="0.4" stroke-width="0.05"/>
    </g>
    <g id="sprite0" transform="matrix(1.0, 0.0, 0.0, 1.0, 78.2, -4.5)">
      <use height="19.0" transform="matrix(1.0, 0.0, 0.0, 1.0, -78.2, 4.5)" width="20.65" xlink:href="#shape1"/>
    </g>
    <g id="shape1" transform="matrix(1.0, 0.0, 0.0, 1.0, 78.2, -4.5)">
      <path d="M-59.2 11.2 L-59.4 10.7 Q-59.4 10.15 -58.95 10.15 -58.55 10.15 -58.1 10.6 -57.55 11.1 -57.55 11.75 L-57.6 13.1 Q-57.6 14.1 -58.1 14.1 L-59.25 12.95 -59.3 12.2 -59.2 11.2 M-65.35 10.1 Q-68.6 8.05 -68.7 8.05 L-69.25 7.8 -69.3 4.95 Q-69.1 4.5 -68.35 4.5 -59.8 7.65 -59.8 10.55 -59.8 12.15 -60.8 12.15 -62.15 12.15 -65.35 10.1 M-77.6 16.75 Q-76.95 16.75 -76.95 17.5 -76.95 18.15 -77.6 18.15 -78.2 18.15 -78.2 17.45 -78.2 16.75 -77.6 16.75 M-64.85 22.25 Q-64.55 22.45 -64.55 22.8 -64.55 23.45 -65.2 23.5 -65.8 23.5 -65.8 22.8 -65.8 22.1 -65.2 22.1 -65.05 22.1 -64.85 22.25" fill="#ffd633" fill-opacity="0.2" fill-rule="evenodd" stroke="none"/>
    </g>
  </defs>
</svg>
