<?xml version="1.0" encoding="UTF-8" standalone="no"?>
<svg xmlns:xlink="http://www.w3.org/1999/xlink" height="103.35px" width="72.5px" xmlns="http://www.w3.org/2000/svg">
  <g transform="matrix(1.0, 0.0, 0.0, 1.0, -27.2, 59.2)">
    <use height="9.75" transform="matrix(1.0, 0.0, 0.0, 1.0, 27.2, 34.4)" width="67.45" xlink:href="#shape0"/>
    <use height="103.25" transform="matrix(1.0, 0.0, 0.0, 1.0, 27.7, -59.2)" width="72.0" xlink:href="#sprite0"/>
    <use height="1.75" transform="matrix(1.0, 0.0, 0.0, 1.0, 69.35, -21.7)" width="10.5" xlink:href="#shape2"/>
  </g>
  <defs>
    <g id="shape0" transform="matrix(1.0, 0.0, 0.0, 1.0, -27.2, -34.4)">
      <path d="M91.3 42.45 Q85.3 44.15 65.3 44.15 27.2 43.05 27.2 40.1 27.2 38.75 28.45 38.15 29.9 37.45 34.1 37.05 L69.65 34.7 Q83.6 33.8 90.05 35.55 94.65 36.8 94.65 38.95 94.65 41.55 91.3 42.45" fill="#330000" fill-opacity="0.08235294" fill-rule="evenodd" stroke="none"/>
    </g>
    <g id="sprite0" transform="matrix(1.0, 0.0, 0.0, 1.0, 78.55, -24.25)">
      <use height="103.25" transform="matrix(1.0, 0.0, 0.0, 1.0, -78.55, 24.25)" width="72.0" xlink:href="#shape1"/>
    </g>
    <g id="shape1" transform="matrix(1.0, 0.0, 0.0, 1.0, 78.55, -24.25)">
      <path d="M-74.2 53.4 L-76.6 52.6 Q-78.6 51.55 -78.5 45.4 L-78.5 44.5 Q-78.65 33.7 -77.95 30.05 -76.75 24.25 -72.2 24.25 -69.6 24.25 -66.5 27.75 L-58.05 36.9 Q-56.95 34.65 -54.6 33.95 -51.95 33.15 -47.75 34.0 -47.1 34.25 -42.9 32.55 -38.75 30.85 -38.2 30.05 L-38.0 30.1 Q-41.65 33.5 -42.4 33.7 L-42.45 33.85 Q-41.1 33.65 -34.35 36.25 -28.5 38.55 -26.9 39.4 L-28.6 39.5 -29.25 39.4 -31.45 38.8 Q-29.95 40.75 -27.65 42.5 L-27.4 42.85 -26.15 44.55 -26.15 44.7 -33.9 41.85 -31.15 44.65 -31.05 44.75 -28.2 47.1 -28.05 47.25 -29.45 47.55 Q-31.55 47.55 -34.25 46.15 L-35.9 45.2 -39.35 42.65 -39.5 42.65 -38.75 47.35 -38.7 47.7 -38.55 48.0 -38.95 47.4 Q-40.05 46.0 -42.35 44.2 L-45.45 41.85 -45.6 41.85 -44.7 45.15 -44.15 47.0 -43.45 48.55 Q-44.25 47.75 -45.55 46.95 L-46.2 46.4 -47.15 45.55 -49.9 43.2 -50.55 42.6 -52.65 40.8 Q-53.2 40.7 -54.1 41.5 L-54.5 41.85 -56.2 43.15 -54.5 41.85 -54.1 41.5 Q-53.2 40.7 -52.65 40.8 L-50.55 42.6 -50.95 42.4 Q-51.75 42.0 -52.15 42.0 -52.65 42.0 -53.4 42.35 L-54.75 43.1 Q-56.45 44.25 -56.45 44.9 -56.45 45.55 -54.4 48.6 L-51.75 52.35 -51.75 52.7 -54.6 52.85 -51.3 55.75 Q-49.2 57.5 -44.8 56.95 L-44.55 56.9 -41.85 56.45 -38.45 56.15 Q-33.65 56.15 -28.8 57.45 L-30.1 57.7 -37.8 58.95 -37.8 59.1 -34.55 59.15 -32.2 59.1 -30.75 59.25 -30.6 59.25 -33.2 59.75 -36.65 60.4 Q-40.25 60.45 -41.35 62.4 -41.65 63.75 -35.4 67.25 -29.9 70.35 -27.2 70.45 L-28.35 72.4 -29.1 73.6 Q-30.3 75.25 -30.9 75.6 L-31.05 75.6 -30.6 74.6 -30.35 73.95 -30.3 73.4 -30.85 74.0 -31.4 74.6 Q-32.55 75.5 -34.5 76.1 L-39.3 76.55 -39.75 76.55 -42.65 76.55 Q-42.1 76.55 -39.75 75.15 L-39.75 75.0 Q-42.95 75.65 -46.7 74.45 L-53.55 72.45 -53.55 72.3 -52.55 72.45 -51.75 72.45 -54.6 69.95 Q-55.35 72.5 -54.0 74.75 L-53.65 75.3 -55.4 74.3 -56.1 73.55 -57.0 74.5 -58.8 76.1 Q-59.2 75.65 -59.2 73.0 L-59.15 71.4 -59.15 69.0 -59.3 69.0 -60.7 71.65 -61.0 72.15 -61.2 72.55 -61.25 72.3 -61.7 72.5 Q-63.35 73.15 -64.3 73.8 L-64.35 73.8 -65.3 74.55 -65.25 74.4 -64.5 72.65 -64.25 71.95 -64.45 71.65 Q-64.3 69.25 -63.45 67.95 L-64.45 68.25 -65.4 68.4 -62.45 62.1 -65.55 64.45 -67.15 65.65 -67.4 65.5 -68.35 65.55 -68.95 65.75 Q-68.75 64.95 -67.55 63.2 L-65.8 60.7 -65.1 58.1 -65.75 57.95 -69.55 58.75 -68.75 58.0 -64.6 54.1 -63.45 53.0 -63.25 52.85 -63.25 52.35 -63.15 48.35 -63.15 47.65 -63.05 47.15 -63.05 47.1 -63.0 47.15 -61.8 46.85 Q-60.8 46.85 -60.5 47.15 L-60.5 47.0 -62.4 43.4 -58.65 45.3 -58.65 45.15 -61.15 40.8 -61.45 40.35 Q-63.75 36.85 -66.2 34.95 L-66.25 33.9 Q-66.1 33.8 -66.55 33.55 L-67.25 33.3 Q-68.55 33.3 -69.0 39.2 L-69.1 45.45 -69.0 49.9 Q-69.0 50.6 -72.55 52.55 L-74.2 53.4 M-25.5 44.0 L-25.45 43.95 Q-24.55 43.35 -24.05 42.35 -23.65 42.4 -20.6 46.15 -22.85 45.65 -25.5 44.0 M-20.4 46.35 L-19.6 47.35 -19.5 47.5 -15.9 52.05 -15.7 52.3 -14.55 53.75 -11.85 57.1 -15.05 56.6 -16.6 56.35 Q-19.0 55.85 -20.65 55.1 L-22.55 52.55 -23.75 50.95 -26.1 46.0 -23.35 46.25 -20.4 46.35 M-72.05 95.9 Q-71.0 94.7 -69.7 94.65 -68.4 94.6 -66.85 95.2 -66.0 95.6 -64.95 96.25 L-61.3 99.35 Q-57.1 96.0 -56.1 94.4 L-54.95 92.4 -54.05 90.65 Q-53.35 89.45 -51.85 87.9 L-51.35 87.4 -51.05 87.65 -50.85 87.75 -50.5 87.95 Q-49.2 88.7 -47.05 89.2 L-46.0 89.4 -44.65 89.6 -39.55 90.0 -39.4 90.6 -39.2 93.05 Q-39.2 95.05 -39.65 99.6 L-39.65 99.75 -40.4 98.1 -40.65 97.4 -40.95 96.5 -41.1 98.15 -41.15 98.35 -41.4 100.8 -40.95 104.0 -40.95 104.15 -43.65 100.35 -45.15 98.4 -45.6 100.75 Q-45.8 101.65 -46.1 101.9 L-46.15 101.9 -46.15 101.95 -46.15 101.9 -46.1 101.9 -46.15 101.95 -46.1 104.75 -46.45 104.75 -47.8 102.9 -49.35 100.1 -50.0 98.75 -51.05 96.15 -50.0 98.75 -49.95 104.05 -49.95 106.1 -50.7 104.45 -52.05 101.1 -52.2 101.1 Q-52.5 102.45 -54.8 102.75 L-57.35 102.75 Q-58.25 102.75 -59.15 101.8 L-60.2 100.25 -60.35 100.25 -60.35 101.05 -59.75 102.3 -57.95 104.4 -56.3 105.75 Q-56.3 106.8 -58.9 107.5 L-61.55 108.0 Q-62.1 108.0 -64.65 106.25 -67.45 104.3 -67.5 104.3 -70.3 103.1 -70.65 102.75 -72.3 101.4 -72.3 98.45 L-72.3 96.75 -72.05 95.9 M-62.25 47.5 Q-62.65 47.25 -63.0 47.15 -62.65 47.25 -62.25 47.5 M-39.35 59.6 Q-38.9 59.5 -34.25 59.7 L-33.2 59.75 -34.25 59.7 Q-38.9 59.5 -39.35 59.6 M-49.35 65.3 L-44.85 62.75 -49.35 65.3 M-48.3 66.8 Q-47.25 65.85 -45.9 65.15 -47.25 65.85 -48.3 66.8 M-61.25 72.3 L-61.25 72.25 -61.3 71.55 -61.25 72.25 -61.25 72.3 M-64.25 71.95 L-64.25 71.9 -63.05 68.8 -64.25 71.9 -64.25 71.95 M-45.15 98.4 L-45.15 98.25 -45.15 98.4 M-38.95 57.0 Q-36.75 56.6 -33.9 57.0 L-32.65 57.2 -30.1 57.7 -32.65 57.2 -33.9 57.0 Q-36.75 56.6 -38.95 57.0 M-21.55 116.25 L-22.25 116.5 -23.55 116.75 -24.0 116.85 -25.7 118.4 Q-27.2 119.4 -28.1 119.4 L-30.1 119.1 -31.25 118.6 Q-31.8 118.2 -31.8 117.7 -31.8 116.2 -30.0 115.4 L-29.65 115.3 -28.8 115.05 -24.8 113.7 -24.5 113.6 Q-24.25 113.3 -23.8 113.3 L-23.1 113.3 -22.25 113.45 -20.85 113.95 -20.4 114.05 -20.4 114.9 -21.3 115.2 Q-21.0 115.9 -21.55 116.25 M-36.65 117.05 L-36.15 117.7 -36.2 117.65 -36.65 117.05 -36.2 117.65 -36.15 117.7 -36.05 118.3 Q-36.05 118.9 -36.65 119.55 -36.9 119.85 -37.3 120.15 -38.5 121.1 -39.3 121.1 L-40.6 120.8 -41.8 120.5 -42.15 120.6 -43.5 121.15 Q-44.95 121.8 -45.55 121.8 L-47.2 121.45 -48.45 120.2 -48.6 120.0 Q-48.85 120.5 -50.35 120.5 L-52.2 120.15 Q-53.15 119.75 -53.15 118.95 L-52.7 117.85 -52.4 117.3 Q-51.8 116.85 -51.05 116.6 L-50.6 116.45 -49.8 116.2 -49.75 115.8 -49.2 115.85 -46.25 116.05 -45.0 116.2 -42.8 116.55 -41.4 116.5 -41.0 116.5 -38.85 116.5 Q-37.4 116.55 -36.65 117.05 M-23.75 116.1 L-23.55 116.75 -23.75 116.1 M-23.8 113.3 L-23.8 113.35 -23.45 113.35 -23.1 113.3 -23.45 113.35 -23.8 113.35 -23.8 113.3 M-27.1 115.6 L-26.15 115.25 -27.1 115.6 M-63.85 111.55 L-61.9 109.9 Q-59.8 108.7 -57.05 108.55 L-56.45 108.55 -54.55 108.85 -52.5 109.2 -52.15 109.4 -51.05 110.3 -50.95 110.35 -51.0 110.6 Q-51.0 112.55 -55.2 113.45 L-56.0 113.6 -58.25 113.9 -60.8 114.05 -61.35 114.05 Q-63.9 114.05 -63.9 111.95 L-63.85 111.55 M-58.25 113.9 L-58.65 113.65 -59.7 113.5 Q-60.3 113.55 -60.8 114.05 -60.3 113.55 -59.7 113.5 L-58.65 113.65 -58.25 113.9 M-61.3 99.35 Q-61.2 99.25 -60.35 101.05 -61.2 99.25 -61.3 99.35" fill="#c17402" fill-rule="evenodd" stroke="none"/>
      <path d="M-45.6 53.25 Q-45.55 53.7 -46.25 54.65 -48.35 56.5 -50.15 54.2 -50.6 53.6 -50.45 52.9 L-50.4 52.65 -50.05 51.4 Q-49.0 51.85 -47.9 52.6 L-45.6 53.25 M-23.95 56.8 L-25.15 56.6 -26.45 56.4 -23.85 55.15 -23.7 55.7 -23.7 56.3 -23.95 56.8" fill="#6d0101" fill-rule="evenodd" stroke="none"/>
      <path d="M-28.2 83.4 L-28.25 83.8 -28.55 83.7 -28.95 83.65 -28.7 83.55 -28.2 83.4" fill="#cc0000" fill-rule="evenodd" stroke="none"/>
      <path d="M-55.8 84.9 L-56.3 84.65 -55.15 83.8 -54.3 83.3 -53.25 82.6 -52.55 82.25 -51.1 82.05 -51.05 82.05 Q-50.05 81.95 -49.4 82.8 L-49.0 83.75 -52.7 84.6 -55.8 84.9 M-44.05 86.3 L-44.15 84.35 -44.0 84.25 -43.95 84.2 Q-43.15 83.6 -42.0 83.45 L-41.05 83.55 Q-40.65 83.9 -40.65 84.4 -40.65 86.4 -43.35 86.4 L-43.95 86.35 -44.05 86.3" fill="#ffffcc" fill-rule="evenodd" stroke="none"/>
      <path d="M-28.25 83.8 Q-27.65 83.95 -27.05 84.4 L-25.7 85.6 -27.0 86.35 -29.1 86.85 -29.65 86.85 Q-32.25 86.85 -32.35 84.9 L-32.35 84.75 Q-32.35 83.8 -32.0 83.5 L-30.1 83.8 -28.95 83.65 -28.55 83.7 -28.25 83.8 M-52.25 85.95 L-53.85 85.65 -55.3 85.1 -55.8 84.9 -52.7 84.6 -49.0 83.75 -48.95 84.4 Q-49.55 85.65 -50.9 85.9 L-51.05 85.95 -52.25 85.95 M-44.05 86.3 L-43.95 86.35 -43.35 86.4 Q-40.65 86.4 -40.65 84.4 -40.65 83.9 -41.05 83.55 -40.4 83.75 -39.8 84.35 -39.0 85.15 -38.75 85.8 L-38.7 86.1 Q-38.6 87.0 -39.1 87.5 -39.7 88.25 -41.75 88.55 L-43.65 88.4 -44.0 86.65 -44.05 86.35 -44.05 86.3" fill="#dabd94" fill-rule="evenodd" stroke="none"/>
      <path d="M-44.5 81.05 Q-49.75 80.15 -50.75 79.55 L-50.75 78.0 -50.65 78.05 Q-48.05 79.8 -44.5 81.05" fill="#a76503" fill-rule="evenodd" stroke="none"/>
      <path d="M-24.05 95.15 L-23.9 96.0 -24.0 96.05 -24.05 95.15 M-45.15 98.4 L-45.15 98.25 -45.15 98.4 M-45.0 116.2 L-46.25 116.05 -45.15 116.0 -45.0 116.2 M-22.2 113.3 L-22.25 113.45 -23.1 113.3 -22.2 113.3 M-51.0 110.6 L-50.95 110.35 -50.85 110.5 -51.0 110.6" fill="#9e6003" fill-rule="evenodd" stroke="none"/>
      <path d="M-45.6 53.25 L-41.2 54.4 -43.5 55.45 -46.05 56.1 -49.35 56.25 Q-50.9 55.75 -51.25 54.05 L-51.6 52.45 -51.85 50.7 -50.05 51.4 -50.4 52.65 -50.45 52.9 Q-50.6 53.6 -50.15 54.2 -48.35 56.5 -46.25 54.65 -45.55 53.7 -45.6 53.25 M-23.85 55.15 L-22.3 54.45 -22.45 57.15 -23.95 56.8 -23.7 56.3 -23.7 55.7 -23.85 55.15" fill="#c9cfd8" fill-rule="evenodd" stroke="none"/>
      <path d="M-51.35 87.4 L-51.4 87.35 -51.55 87.2 -52.25 85.95 -51.05 85.95 -50.9 85.9 Q-49.55 85.65 -48.95 84.4 L-49.0 83.75 -49.4 82.8 Q-50.05 81.95 -51.05 82.05 L-51.1 82.05 -52.55 82.25 -52.5 80.0 -52.25 79.15 -51.05 78.2 -50.75 78.0 -50.75 79.55 Q-49.75 80.15 -44.5 81.05 L-44.1 81.15 -44.55 81.15 Q-45.35 81.4 -45.8 82.15 -46.25 82.85 -46.25 83.8 L-46.25 87.0 -46.25 87.25 -46.0 89.4 -47.05 89.2 Q-49.2 88.7 -50.5 87.95 L-50.85 87.75 -51.05 87.65 -51.35 87.4" fill="#02a9d2" fill-rule="evenodd" stroke="none"/>
      <path d="M-46.0 89.4 L-46.25 87.25 -46.25 87.0 -46.25 83.8 Q-46.25 82.85 -45.8 82.15 -45.35 81.4 -44.55 81.15 L-44.1 81.15 -43.85 81.25 -42.3 81.7 -40.95 82.05 -40.2 82.1 -40.15 82.1 -36.4 82.2 -35.3 82.05 Q-34.1 82.9 -32.55 83.35 L-32.0 83.5 Q-32.35 83.8 -32.35 84.75 L-32.35 84.9 Q-32.25 86.85 -29.65 86.85 L-29.1 86.85 Q-29.55 88.3 -31.85 88.9 L-36.85 89.85 -39.55 90.0 -44.65 89.6 -46.0 89.4 M-41.05 83.55 L-42.0 83.45 Q-43.15 83.6 -43.95 84.2 L-44.0 84.25 -44.15 84.35 -44.05 86.3 -44.05 86.35 -44.0 86.65 -43.65 88.4 -41.75 88.55 Q-39.7 88.25 -39.1 87.5 -38.6 87.0 -38.7 86.1 L-38.75 85.8 Q-39.0 85.15 -39.8 84.35 -40.4 83.75 -41.05 83.55" fill="#03809e" fill-rule="evenodd" stroke="none"/>
      <path d="M-27.65 42.5 L-27.25 42.8 -26.2 43.5 -25.5 44.0 Q-22.85 45.65 -20.6 46.15 L-20.25 46.2 -20.05 46.25 -20.4 46.35 -23.35 46.25 -26.1 46.0 -23.75 50.95 -22.55 52.55 -20.65 55.1 Q-19.0 55.85 -16.6 56.35 L-15.05 56.6 -11.85 57.1 Q-7.5 62.35 -6.55 62.7 -7.4 64.8 -8.35 65.25 -12.1 66.95 -16.65 66.5 -16.1 67.45 -15.8 68.85 -15.1 72.05 -15.95 75.5 L-16.05 75.85 Q-17.25 80.4 -20.6 82.1 -23.0 83.4 -26.25 83.0 L-26.35 83.0 -26.6 83.05 -28.2 83.4 -28.7 83.55 -28.95 83.65 -30.1 83.8 -32.0 83.5 -32.55 83.35 Q-34.1 82.9 -35.3 82.05 L-36.4 82.2 -40.15 82.1 -40.2 82.1 -40.95 82.05 -42.3 81.7 -43.85 81.25 -44.1 81.15 -44.5 81.05 Q-48.05 79.8 -50.65 78.05 L-50.75 78.0 Q-50.9 77.85 -51.05 77.8 L-51.3 77.6 -51.85 77.15 -52.85 77.55 -54.6 78.1 -55.15 78.1 -55.15 76.85 Q-55.55 77.1 -56.0 78.25 L-56.45 79.55 Q-56.45 78.9 -56.9 77.55 L-56.9 75.65 Q-57.5 75.9 -58.1 76.3 L-60.35 77.7 -60.65 77.65 -60.65 77.55 Q-60.65 76.6 -61.0 74.15 L-61.2 72.55 -61.0 72.15 -60.7 71.65 -59.3 69.0 -59.15 69.0 -59.15 71.4 -59.2 73.0 Q-59.2 75.65 -58.8 76.1 L-57.0 74.5 -56.1 73.55 -55.4 74.3 -53.65 75.3 -54.0 74.75 Q-55.35 72.5 -54.6 69.95 L-51.75 72.45 -52.55 72.45 -53.55 72.3 -53.55 72.45 -46.7 74.45 Q-42.95 75.65 -39.75 75.0 L-39.75 75.15 Q-42.1 76.55 -42.65 76.55 L-39.75 76.55 -39.3 76.55 -34.5 76.1 Q-32.55 75.5 -31.4 74.6 L-30.85 74.0 -30.3 73.4 -30.35 73.95 -30.6 74.6 -31.05 75.6 -30.9 75.6 Q-30.3 75.25 -29.1 73.6 L-28.35 72.4 -27.2 70.45 -26.45 70.4 -25.35 70.2 Q-23.45 69.85 -22.5 69.2 L-20.35 67.35 -19.5 66.5 -18.65 65.6 -18.85 64.85 -18.95 64.55 -19.3 63.45 -19.5 62.85 -20.0 61.35 -20.45 60.05 -19.5 60.55 -16.05 61.65 -18.2 58.55 -19.5 56.7 -19.65 56.5 -20.65 55.1 -19.65 56.5 -19.5 56.7 -18.2 58.55 -16.05 61.65 -19.5 60.55 -20.45 60.05 -20.0 61.35 -19.5 62.85 -19.3 63.45 -19.5 63.3 -20.0 62.9 -20.9 62.8 -32.6 60.8 -32.65 60.8 -36.65 60.4 -33.2 59.75 -30.6 59.25 -30.75 59.25 -32.2 59.1 -34.55 59.15 -37.8 59.1 -37.8 58.95 -30.1 57.7 -28.8 57.45 Q-33.65 56.15 -38.45 56.15 L-41.85 56.45 -44.55 56.9 -44.8 56.95 Q-49.2 57.5 -51.3 55.75 L-54.6 52.85 -51.75 52.7 -51.75 52.35 -54.4 48.6 Q-56.45 45.55 -56.45 44.9 -56.45 44.25 -54.75 43.1 L-53.4 42.35 Q-52.65 42.0 -52.15 42.0 -51.75 42.0 -50.95 42.4 L-50.55 42.6 -49.9 43.2 -47.15 45.55 -46.2 46.4 -45.55 46.95 Q-44.25 47.75 -43.45 48.55 L-44.15 47.0 -44.7 45.15 -45.6 41.85 -45.45 41.85 -42.35 44.2 Q-40.05 46.0 -38.95 47.4 L-38.55 48.0 -38.7 47.7 -38.75 47.35 -39.5 42.65 -39.35 42.65 -35.9 45.2 -34.25 46.15 Q-31.55 47.55 -29.45 47.55 L-28.05 47.25 -28.2 47.1 -31.05 44.75 -31.15 44.65 -33.9 41.85 -26.15 44.7 -26.15 44.55 -27.4 42.85 -27.65 42.5 M-27.0 86.35 Q-25.8 87.6 -24.8 89.25 -23.8 90.9 -22.8 93.4 L-24.5 92.4 -24.25 93.0 -24.05 94.35 -24.05 95.15 -24.0 96.05 -23.9 96.0 -23.45 98.7 Q-23.5 101.95 -23.9 106.4 L-22.6 106.15 Q-20.4 106.0 -19.0 107.3 -17.6 108.7 -17.45 111.35 L-17.5 112.0 -17.6 112.65 Q-17.85 113.75 -18.5 114.85 -18.15 115.55 -18.2 116.6 -18.25 117.55 -18.45 118.1 L-19.45 119.65 -19.75 120.35 -20.1 120.85 -20.3 121.1 -20.5 121.35 Q-20.85 121.8 -21.6 122.05 L-23.35 122.45 -23.7 122.7 Q-24.4 123.2 -25.65 123.35 L-26.65 123.45 Q-30.0 123.65 -32.5 122.6 -33.95 122.0 -34.7 121.05 -34.8 123.65 -36.4 125.1 L-37.0 125.55 Q-38.45 126.65 -39.9 126.7 L-41.5 126.7 -41.7 126.65 Q-42.3 126.6 -42.45 126.0 -43.3 126.9 -44.6 127.2 -46.6 127.8 -48.4 127.2 L-51.0 127.25 Q-52.1 127.0 -53.2 126.4 -54.4 125.75 -55.0 124.8 -56.1 125.5 -58.45 125.9 -61.3 126.05 -63.05 124.7 L-64.05 123.85 Q-65.65 123.5 -66.0 121.8 L-66.25 121.0 -66.5 120.25 -66.65 119.5 Q-70.8 118.6 -72.85 116.8 -75.35 114.55 -75.35 110.5 -75.45 106.1 -74.65 102.3 L-74.25 100.75 Q-73.4 97.4 -72.05 95.9 L-72.3 96.75 -72.3 98.45 Q-72.3 101.4 -70.65 102.75 -70.3 103.1 -67.5 104.3 -67.45 104.3 -64.65 106.25 -62.1 108.0 -61.55 108.0 L-58.9 107.5 Q-56.3 106.8 -56.3 105.75 L-57.95 104.4 -59.75 102.3 -60.35 101.05 -60.35 100.25 -60.2 100.25 -59.15 101.8 Q-58.25 102.75 -57.35 102.75 L-54.8 102.75 Q-52.5 102.45 -52.2 101.1 L-52.05 101.1 -50.7 104.45 -49.95 106.1 -49.95 104.05 -50.0 98.75 -49.35 100.1 -47.8 102.9 -46.45 104.75 -46.1 104.75 -46.15 101.95 -46.1 101.9 Q-45.8 101.65 -45.6 100.75 L-45.15 98.4 -43.65 100.35 -40.95 104.15 -40.95 104.0 -41.4 100.8 -41.15 98.35 -41.1 98.15 -40.95 96.5 -40.65 97.4 -40.4 98.1 -39.65 99.75 -39.65 99.6 Q-39.2 95.05 -39.2 93.05 L-39.4 90.6 -39.55 90.0 -36.85 89.85 -31.85 88.9 Q-29.55 88.3 -29.1 86.85 L-27.0 86.35 M-64.45 71.65 Q-66.65 68.3 -66.85 66.7 -66.9 65.9 -67.15 65.65 L-65.55 64.45 -62.45 62.1 -65.4 68.4 -64.45 68.25 -63.45 67.95 Q-64.3 69.25 -64.45 71.65 M-63.05 47.1 L-65.65 45.65 -65.25 47.25 -65.0 48.1 Q-64.7 49.05 -64.7 49.8 -64.7 51.8 -67.35 52.85 -69.35 53.6 -71.95 53.6 L-74.2 53.4 -72.55 52.55 Q-69.0 50.6 -69.0 49.9 L-69.1 45.45 -69.0 39.2 Q-68.55 33.3 -67.25 33.3 L-66.55 33.55 Q-66.1 33.8 -66.25 33.9 L-66.2 34.95 Q-63.75 36.85 -61.45 40.35 L-61.15 40.8 -58.65 45.15 -58.65 45.3 -62.4 43.4 -60.5 47.0 -60.5 47.15 Q-60.8 46.85 -61.8 46.85 L-63.0 47.15 -63.05 47.1 M-40.45 51.1 L-45.55 46.95 -40.45 51.1 M-65.65 45.65 L-66.0 43.85 -66.2 42.1 -66.3 37.95 -66.2 34.95 -66.3 37.95 -66.2 42.1 -66.0 43.85 -65.65 45.65 M-21.7 61.45 L-29.35 59.8 -32.65 59.75 -33.2 59.75 -32.65 59.75 -29.35 59.8 -21.7 61.45 M-50.05 51.4 L-51.85 50.7 -51.6 52.45 -51.25 54.05 Q-50.9 55.75 -49.35 56.25 L-46.05 56.1 -43.5 55.45 -41.2 54.4 -45.6 53.25 -47.9 52.6 Q-49.0 51.85 -50.05 51.4 M-55.65 75.1 L-56.9 75.65 -55.65 75.1 M-53.65 75.3 L-51.85 77.15 -53.65 75.3 M-41.8 106.55 Q-43.25 104.7 -44.25 103.6 L-46.1 101.9 -44.25 103.6 Q-43.25 104.7 -41.8 106.55 M-16.65 66.5 Q-17.25 65.45 -18.95 64.55 -17.25 65.45 -16.65 66.5 M-26.1 54.05 L-25.3 52.75 -25.25 52.75 -24.55 51.7 Q-24.05 51.8 -23.4 52.6 -24.05 51.8 -24.55 51.7 L-25.25 52.75 -25.3 52.75 -26.1 54.05 M-23.95 56.8 L-22.45 57.15 -22.3 54.45 -23.85 55.15 -26.45 56.4 -25.15 56.6 -23.95 56.8 M-38.5 52.9 L-37.9 53.3 -33.6 55.75 -33.45 55.35 Q-33.65 54.65 -34.55 53.25 L-34.75 52.95 Q-35.85 51.35 -36.6 50.7 L-34.1 51.35 Q-33.2 51.65 -32.65 52.0 L-31.85 52.75 -28.1 53.75 -28.05 53.5 -28.25 52.95 Q-28.6 52.3 -29.2 52.0 -28.6 52.3 -28.25 52.95 L-28.05 53.5 -28.1 53.75 -31.85 52.75 -32.65 52.0 Q-33.2 51.65 -34.1 51.35 L-36.6 50.7 Q-35.85 51.35 -34.75 52.95 L-34.55 53.25 Q-33.65 54.65 -33.45 55.35 L-33.6 55.75 -37.9 53.3 -38.5 52.9 M-26.35 83.0 Q-27.95 82.35 -29.85 80.95 L-27.8 80.55 -29.85 80.95 Q-27.95 82.35 -26.35 83.0 M-35.3 82.05 L-34.85 81.95 -35.3 82.05 M-29.85 80.95 L-34.85 81.95 -29.85 80.95 M-21.55 116.25 L-20.65 117.05 -20.05 118.1 -19.45 119.65 -20.05 118.1 -20.65 117.05 -21.55 116.25 Q-21.0 115.9 -21.3 115.2 L-20.4 114.9 -20.4 114.05 -20.85 113.95 -22.25 113.45 -22.2 113.3 -22.05 113.3 -21.5 113.35 Q-21.8 111.9 -22.8 111.15 -23.45 110.65 -24.2 110.55 L-24.25 109.95 -24.15 108.8 -24.1 108.5 -23.95 106.8 -23.9 106.4 -23.95 106.8 -24.1 108.5 -24.15 108.8 -24.25 109.95 -24.2 110.55 Q-23.45 110.65 -22.8 111.15 -21.8 111.9 -21.5 113.35 L-20.15 113.55 -19.85 113.65 Q-18.95 114.05 -18.5 114.85 -18.95 114.05 -19.85 113.65 L-20.15 113.55 -21.5 113.35 -22.05 113.3 -22.2 113.3 -23.1 113.3 -23.8 113.3 Q-24.25 113.3 -24.5 113.6 L-24.8 113.7 -28.8 115.05 -29.65 115.3 -30.0 115.4 Q-31.8 116.2 -31.8 117.7 -31.8 118.2 -31.25 118.6 L-30.1 119.1 -28.1 119.4 Q-27.2 119.4 -25.7 118.4 L-24.0 116.85 -23.55 116.75 -22.25 116.5 -21.55 116.25 M-18.55 112.6 L-18.55 112.65 Q-18.9 113.25 -19.65 113.3 L-19.75 113.3 Q-20.8 113.3 -20.9 112.0 -20.9 111.2 -20.35 110.65 L-18.85 110.75 Q-18.3 111.25 -18.3 111.9 L-18.55 112.6 -18.3 111.9 Q-18.3 111.25 -18.85 110.75 L-20.35 110.65 Q-20.9 111.2 -20.9 112.0 -20.8 113.3 -19.75 113.3 L-19.65 113.3 Q-18.9 113.25 -18.55 112.65 L-18.55 112.6 M-41.2 54.4 L-39.4 54.9 -41.2 54.4 M-36.65 117.05 L-37.05 115.75 -36.65 117.05 Q-37.4 116.55 -38.85 116.5 L-41.0 116.5 -41.4 116.5 -42.8 116.55 -45.0 116.2 -45.15 116.0 -42.45 115.9 -45.15 116.0 -46.25 116.05 -49.2 115.85 -49.75 115.8 -49.8 116.2 -50.6 116.45 -51.05 116.6 Q-51.8 116.85 -52.4 117.3 L-52.7 117.85 -53.15 118.95 Q-53.15 119.75 -52.2 120.15 L-50.35 120.5 Q-48.85 120.5 -48.6 120.0 L-48.45 120.2 -47.2 121.45 -45.55 121.8 Q-44.95 121.8 -43.5 121.15 L-42.15 120.6 -41.8 120.5 -40.6 120.8 -39.3 121.1 Q-38.5 121.1 -37.3 120.15 -36.9 119.85 -36.65 119.55 -36.05 118.9 -36.05 118.3 L-36.15 117.7 -35.5 118.25 Q-35.4 116.05 -34.55 110.95 L-34.25 109.35 -34.55 110.95 Q-35.4 116.05 -35.5 118.25 L-36.15 117.7 -36.65 117.05 M-22.25 107.25 L-22.0 107.3 Q-21.5 107.55 -21.5 108.15 -21.45 108.7 -22.3 109.8 L-24.0 109.85 -24.05 108.5 -23.1 107.7 -22.25 107.25 -23.1 107.7 -24.05 108.5 -24.0 109.85 -22.3 109.8 Q-21.45 108.7 -21.5 108.15 -21.5 107.55 -22.0 107.3 L-22.25 107.25 M-30.75 106.7 L-29.55 105.6 -29.25 105.2 -29.2 106.5 -29.8 108.55 -29.55 108.55 -26.65 101.3 -29.55 108.55 -29.8 108.55 -29.2 106.5 -29.25 105.2 -29.55 105.6 -30.75 106.7 M-23.35 122.45 Q-22.55 121.65 -22.55 120.1 -22.6 119.05 -23.1 117.85 L-23.55 116.75 -23.1 117.85 Q-22.6 119.05 -22.55 120.1 -22.55 121.65 -23.35 122.45 M-35.5 118.25 L-34.9 119.45 -34.7 120.75 -34.7 121.05 -34.7 120.75 -34.9 119.45 -35.5 118.25 M-24.2 110.55 L-23.8 113.3 -24.2 110.55 M-50.95 110.35 L-51.05 110.3 -52.15 109.4 -52.5 109.2 -54.55 108.85 -56.45 108.55 -57.05 108.55 Q-59.8 108.7 -61.9 109.9 L-63.85 111.55 -63.9 111.95 Q-63.9 114.05 -61.35 114.05 L-60.8 114.05 Q-61.7 114.85 -62.45 116.85 L-62.25 117.6 -61.35 117.7 Q-59.8 117.65 -58.65 116.2 L-57.85 114.8 Q-57.85 114.25 -58.25 113.9 L-56.0 113.6 -55.2 113.45 Q-51.0 112.55 -51.0 110.6 L-50.85 110.5 -50.95 110.35 M-51.65 105.05 L-51.05 107.15 -50.9 107.7 -50.1 110.9 -50.0 111.45 -50.85 110.5 -50.0 111.45 -50.1 110.9 -50.9 107.7 -51.05 107.15 -51.65 105.05 M-58.25 113.9 Q-57.85 114.25 -57.85 114.8 L-58.65 116.2 Q-59.8 117.65 -61.35 117.7 L-62.25 117.6 -62.45 116.85 Q-61.7 114.85 -60.8 114.05 L-58.25 113.9 M-55.3 124.15 L-55.5 122.75 Q-55.55 121.6 -55.15 120.6 L-54.25 118.95 Q-53.5 117.95 -52.4 117.3 -53.2 116.55 -54.45 116.6 -56.15 116.7 -56.95 117.65 L-57.2 118.1 Q-57.7 119.1 -57.95 121.8 L-57.85 122.1 -56.75 123.35 -56.6 123.45 -55.3 124.15 -55.0 124.8 -55.3 124.15 -56.6 123.45 -56.75 123.35 -57.85 122.1 -57.95 121.8 Q-57.7 119.1 -57.2 118.1 L-56.95 117.65 Q-56.15 116.7 -54.45 116.6 -53.2 116.55 -52.4 117.3 -53.5 117.95 -54.25 118.95 L-55.15 120.6 Q-55.55 121.6 -55.5 122.75 L-55.3 124.15 M-60.5 119.8 Q-59.5 120.25 -59.5 120.75 -59.45 121.45 -60.3 122.5 -61.15 123.55 -62.0 123.65 L-62.35 123.6 Q-62.95 123.45 -63.2 122.85 L-63.35 121.9 -63.1 121.0 Q-62.75 120.05 -61.7 119.45 -61.3 119.4 -60.5 119.8 -61.3 119.4 -61.7 119.45 -62.75 120.05 -63.1 121.0 L-63.35 121.9 -63.2 122.85 Q-62.95 123.45 -62.35 123.6 L-62.0 123.65 Q-61.15 123.55 -60.3 122.5 -59.45 121.45 -59.5 120.75 -59.5 120.25 -60.5 119.8 M-49.75 115.8 L-49.75 114.9 Q-49.8 112.75 -50.0 111.45 -49.8 112.75 -49.75 114.9 L-49.75 115.8 M-48.45 120.2 L-48.85 123.8 -48.4 127.2 -48.85 123.8 -48.45 120.2 M-66.65 119.5 Q-67.15 117.0 -65.85 114.5 L-65.7 114.15 Q-64.85 112.6 -63.85 111.55 -64.85 112.6 -65.7 114.15 L-65.85 114.5 -66.0 115.6 -65.85 117.2 -65.0 118.3 -65.85 117.2 -66.0 115.6 -65.85 114.5 Q-67.15 117.0 -66.65 119.5 M-25.35 101.1 Q-24.0 96.8 -24.0 96.05 -24.0 96.8 -25.35 101.1 M-64.05 123.85 L-62.35 123.6 -64.05 123.85 M-42.15 120.6 L-42.45 126.0 -42.15 120.6" fill="#955a04" fill-rule="evenodd" stroke="none"/>
      <path d="M-27.2 70.45 Q-29.9 70.35 -35.4 67.25 -41.65 63.75 -41.35 62.4 -40.25 60.45 -36.65 60.4 L-32.65 60.8 -32.6 60.8 -20.9 62.8 -20.0 62.9 -19.5 63.3 -19.3 63.45 -18.95 64.55 -18.85 64.85 -18.65 65.6 -19.5 66.5 -20.35 67.35 -22.5 69.2 Q-23.45 69.85 -25.35 70.2 L-26.45 70.4 -27.2 70.45 M-33.2 66.65 L-34.55 65.65 -35.3 65.25 Q-35.9 65.05 -36.45 65.25 -35.9 65.05 -35.3 65.25 L-34.55 65.65 -33.2 66.65" fill="#660a00" fill-rule="evenodd" stroke="none"/>
      <path d="M-74.2 53.4 L-76.6 52.6 Q-78.6 51.55 -78.5 45.4 L-78.5 44.5 Q-78.65 33.7 -77.95 30.05 -76.75 24.25 -72.2 24.25 -69.6 24.25 -66.5 27.75 L-58.05 36.9 Q-56.95 34.65 -54.6 33.95 -51.95 33.15 -47.75 34.0 -47.1 34.25 -42.9 32.55 -38.75 30.85 -38.2 30.05 L-38.0 30.1 Q-41.65 33.5 -42.4 33.7 L-42.45 33.85 Q-41.1 33.65 -34.35 36.25 -28.5 38.55 -26.9 39.4 L-28.6 39.5 -29.25 39.4 -31.45 38.8 Q-29.95 40.75 -27.65 42.5 L-27.25 42.8 -26.2 43.5 -25.5 44.0 -25.45 43.95 Q-24.55 43.35 -24.05 42.35 -23.65 42.4 -20.6 46.15 L-20.25 46.2 -20.05 46.25 -20.4 46.35 -19.6 47.35 -19.5 47.5 -15.9 52.05 -15.7 52.3 -14.55 53.75 -11.85 57.1 Q-7.5 62.35 -6.55 62.7 -7.4 64.8 -8.35 65.25 -12.1 66.95 -16.65 66.5 -16.1 67.45 -15.8 68.85 -15.1 72.05 -15.95 75.5 L-16.05 75.85 Q-17.25 80.4 -20.6 82.1 -23.0 83.4 -26.25 83.0 L-26.35 83.0 -26.6 83.05 -28.2 83.4 -28.25 83.8 Q-27.65 83.95 -27.05 84.4 L-25.7 85.6 -27.0 86.35 Q-25.8 87.6 -24.8 89.25 -23.8 90.9 -22.8 93.4 L-24.5 92.4 -24.25 93.0 -24.05 94.35 -24.05 95.15 -23.9 96.0 -23.45 98.7 Q-23.5 101.95 -23.9 106.4 L-22.6 106.15 Q-20.4 106.0 -19.0 107.3 -17.6 108.7 -17.45 111.35 L-17.5 112.0 -17.6 112.65 Q-17.85 113.75 -18.5 114.85 -18.15 115.55 -18.2 116.6 -18.25 117.55 -18.45 118.1 L-19.45 119.65 -19.75 120.35 -20.1 120.85 -20.3 121.1 -20.5 121.35 Q-20.85 121.8 -21.6 122.05 L-23.35 122.45 -23.7 122.7 Q-24.4 123.2 -25.65 123.35 L-26.65 123.45 Q-30.0 123.65 -32.5 122.6 -33.95 122.0 -34.7 121.05 -34.8 123.65 -36.4 125.1 L-37.0 125.55 Q-38.45 126.65 -39.9 126.7 L-41.5 126.7 -41.7 126.65 Q-42.3 126.6 -42.45 126.0 -43.3 126.9 -44.6 127.2 -46.6 127.8 -48.4 127.2 L-51.0 127.25 Q-52.1 127.0 -53.2 126.4 -54.4 125.75 -55.0 124.8 -56.1 125.5 -58.45 125.9 -61.3 126.05 -63.05 124.7 L-64.05 123.85 Q-65.65 123.5 -66.0 121.8 L-66.25 121.0 -66.5 120.25 -66.65 119.5 Q-70.8 118.6 -72.85 116.8 -75.35 114.55 -75.35 110.5 -75.45 106.1 -74.65 102.3 L-74.25 100.75 Q-73.4 97.4 -72.05 95.9 -71.0 94.7 -69.7 94.65 -68.4 94.6 -66.85 95.2 -66.0 95.6 -64.95 96.25 L-61.3 99.35 Q-57.1 96.0 -56.1 94.4 L-54.95 92.4 -54.05 90.65 Q-53.35 89.45 -51.85 87.9 L-51.35 87.4 -51.4 87.35 -51.55 87.2 -52.25 85.95 -53.85 85.65 -55.3 85.1 -55.8 84.9 -56.3 84.65 -55.15 83.8 -54.3 83.3 -53.25 82.6 -52.55 82.25 -52.5 80.0 -52.25 79.15 -51.05 78.2 -50.75 78.0 Q-50.9 77.85 -51.05 77.8 L-51.3 77.6 -51.85 77.15 -52.85 77.55 -54.6 78.1 -55.15 78.1 -55.15 76.85 Q-55.55 77.1 -56.0 78.25 L-56.45 79.55 Q-56.45 78.9 -56.9 77.55 L-56.9 75.65 Q-57.5 75.9 -58.1 76.3 L-60.35 77.7 -60.65 77.65 -60.65 77.55 Q-60.65 76.6 -61.0 74.15 L-61.2 72.55 -61.25 72.3 -61.7 72.5 Q-63.35 73.15 -64.3 73.8 L-64.35 73.8 -65.3 74.55 -65.25 74.4 -64.5 72.65 -64.25 71.95 -64.45 71.65 Q-66.65 68.3 -66.85 66.7 -66.9 65.9 -67.15 65.65 L-67.4 65.5 -68.35 65.55 -68.95 65.75 Q-68.75 64.95 -67.55 63.2 L-65.8 60.7 -65.1 58.1 -65.75 57.95 -69.55 58.75 -68.75 58.0 -64.6 54.1 -63.45 53.0 -63.25 52.85 -63.25 52.35 -63.15 48.35 -63.15 47.65 -63.05 47.15 -63.05 47.1 -65.65 45.65 -65.25 47.25 -65.0 48.1 Q-64.7 49.05 -64.7 49.8 -64.7 51.8 -67.35 52.85 -69.35 53.6 -71.95 53.6 L-74.2 53.4 M-66.25 33.9 L-66.2 34.95 -66.3 37.95 -66.2 42.1 -66.0 43.85 -65.65 45.65 M-63.0 47.15 Q-62.65 47.25 -62.25 47.5 M-45.55 46.95 L-40.45 51.1 M-20.4 46.35 L-23.35 46.25 -26.1 46.0 -23.75 50.95 -22.55 52.55 -20.65 55.1 -19.65 56.5 -19.5 56.7 -18.2 58.55 -16.05 61.65 -19.5 60.55 -20.45 60.05 -20.0 61.35 -19.5 62.85 -19.3 63.45 -18.95 64.55 Q-17.25 65.45 -16.65 66.5 M-25.5 44.0 Q-22.85 45.65 -20.6 46.15 M-63.0 47.15 L-63.05 47.1 M-50.55 42.6 L-52.65 40.8 Q-53.2 40.7 -54.1 41.5 L-54.5 41.85 -56.2 43.15 M-33.2 59.75 L-32.65 59.75 -29.35 59.8 -21.7 61.45 M-45.55 46.95 L-46.2 46.4 -47.15 45.55 -49.9 43.2 -50.55 42.6 M-50.05 51.4 L-51.85 50.7 -51.6 52.45 -51.25 54.05 Q-50.9 55.75 -49.35 56.25 L-46.05 56.1 -43.5 55.45 -41.2 54.4 -45.6 53.25 Q-45.55 53.7 -46.25 54.65 -48.35 56.5 -50.15 54.2 -50.6 53.6 -50.45 52.9 L-50.4 52.65 -50.05 51.4 Q-49.0 51.85 -47.9 52.6 L-45.6 53.25 M-27.2 70.45 Q-29.9 70.35 -35.4 67.25 -41.65 63.75 -41.35 62.4 -40.25 60.45 -36.65 60.4 M-33.2 59.75 L-34.25 59.7 Q-38.9 59.5 -39.35 59.6 M-53.65 75.3 L-54.0 74.75 Q-55.35 72.5 -54.6 69.95 M-45.9 65.15 Q-47.25 65.85 -48.3 66.8 M-44.85 62.75 L-49.35 65.3 M-63.05 68.8 L-64.25 71.9 -64.25 71.95 M-61.3 71.55 L-61.25 72.25 -61.25 72.3 M-46.0 89.4 L-44.65 89.6 -39.55 90.0 -36.85 89.85 -31.85 88.9 Q-29.55 88.3 -29.1 86.85 L-29.65 86.85 Q-32.25 86.85 -32.35 84.9 L-32.35 84.75 Q-32.35 83.8 -32.0 83.5 L-32.55 83.35 Q-34.1 82.9 -35.3 82.05 L-36.4 82.2 -40.15 82.1 -40.2 82.1 -40.95 82.05 -42.3 81.7 -43.85 81.25 M-44.1 81.15 L-44.5 81.05 Q-49.75 80.15 -50.75 79.55 L-50.75 78.0 M-49.0 83.75 L-48.95 84.4 Q-49.55 85.65 -50.9 85.9 L-51.05 85.95 -52.25 85.95 M-52.55 82.25 L-51.1 82.05 -51.05 82.05 Q-50.05 81.95 -49.4 82.8 L-49.0 83.75 M-41.05 83.55 L-42.0 83.45 Q-43.15 83.6 -43.95 84.2 L-44.0 84.25 -44.15 84.35 -44.05 86.3 M-41.05 83.55 Q-40.4 83.75 -39.8 84.35 -39.0 85.15 -38.75 85.8 L-38.7 86.1 Q-38.6 87.0 -39.1 87.5 -39.7 88.25 -41.75 88.55 L-43.65 88.4 -44.0 86.65 -44.05 86.35 -44.05 86.3 M-44.5 81.05 Q-48.05 79.8 -50.65 78.05 L-50.75 78.0 M-51.85 77.15 L-53.65 75.3 M-56.9 75.65 L-55.65 75.1 M-46.0 89.4 L-47.05 89.2 Q-49.2 88.7 -50.5 87.95 L-50.85 87.75 -51.05 87.65 -51.35 87.4 M-46.1 101.9 L-44.25 103.6 Q-43.25 104.7 -41.8 106.55 M-51.05 96.15 L-50.0 98.75 -49.35 100.1 -47.8 102.9 -46.45 104.75 -46.1 104.75 -46.15 101.95 -46.15 101.9 -46.1 101.9 M-19.3 63.45 L-19.5 63.3 -20.0 62.9 -20.9 62.8 -32.6 60.8 -32.65 60.8 -36.65 60.4 M-27.2 70.45 L-26.45 70.4 -25.35 70.2 Q-23.45 69.85 -22.5 69.2 L-20.35 67.35 -19.5 66.5 -18.65 65.6 -18.85 64.85 -18.95 64.55 M-23.4 52.6 Q-24.05 51.8 -24.55 51.7 L-25.25 52.75 -25.3 52.75 -26.1 54.05 M-23.85 55.15 L-22.3 54.45 -22.45 57.15 -23.95 56.8 -25.15 56.6 -26.45 56.4 -23.85 55.15 -23.7 55.7 -23.7 56.3 -23.95 56.8 M-29.2 52.0 Q-28.6 52.3 -28.25 52.95 L-28.05 53.5 -28.1 53.75 -31.85 52.75 -32.65 52.0 Q-33.2 51.65 -34.1 51.35 L-36.6 50.7 Q-35.85 51.35 -34.75 52.95 L-34.55 53.25 Q-33.65 54.65 -33.45 55.35 L-33.6 55.75 -37.9 53.3 -38.5 52.9 M-30.1 57.7 L-32.65 57.2 -33.9 57.0 Q-36.75 56.6 -38.95 57.0 M-36.45 65.25 Q-35.9 65.05 -35.3 65.25 L-34.55 65.65 -33.2 66.65 M-28.95 83.65 L-28.55 83.7 -28.25 83.8 M-32.0 83.5 L-30.1 83.8 -28.95 83.65 -28.7 83.55 -28.2 83.4 M-27.8 80.55 L-29.85 80.95 Q-27.95 82.35 -26.35 83.0 M-35.3 82.05 L-34.85 81.95 -35.3 82.05 M-24.05 95.15 L-24.0 96.05 Q-24.0 96.8 -25.35 101.1 M-34.85 81.95 L-29.85 80.95 M-29.1 86.85 L-27.0 86.35 M-39.4 54.9 L-41.2 54.4 M-18.55 112.6 L-18.3 111.9 Q-18.3 111.25 -18.85 110.75 L-20.35 110.65 Q-20.9 111.2 -20.9 112.0 -20.8 113.3 -19.75 113.3 L-19.65 113.3 Q-18.9 113.25 -18.55 112.65 L-18.55 112.6 M-23.9 106.4 L-23.95 106.8 -24.1 108.5 -24.15 108.8 -24.25 109.95 -24.2 110.55 Q-23.45 110.65 -22.8 111.15 -21.8 111.9 -21.5 113.35 L-20.15 113.55 -19.85 113.65 Q-18.95 114.05 -18.5 114.85 M-19.45 119.65 L-20.05 118.1 -20.65 117.05 -21.55 116.25 M-23.55 116.75 L-23.1 117.85 Q-22.6 119.05 -22.55 120.1 -22.55 121.65 -23.35 122.45 M-26.65 101.3 L-29.55 108.55 -29.8 108.55 -29.2 106.5 -29.25 105.2 -29.55 105.6 -30.75 106.7 M-22.25 107.25 L-23.1 107.7 -24.05 108.5 -24.0 109.85 -22.3 109.8 Q-21.45 108.7 -21.5 108.15 -21.5 107.55 -22.0 107.3 L-22.25 107.25 M-36.15 117.7 L-35.5 118.25 Q-35.4 116.05 -34.55 110.95 L-34.25 109.35 M-37.05 115.75 L-36.65 117.05 M-36.15 117.7 L-36.2 117.65 -36.65 117.05 M-41.0 116.5 L-41.4 116.5 -42.8 116.55 -45.0 116.2 M-46.25 116.05 L-49.2 115.85 M-49.75 115.8 L-49.8 116.2 -50.6 116.45 -51.05 116.6 Q-51.8 116.85 -52.4 117.3 -53.5 117.95 -54.25 118.95 L-55.15 120.6 Q-55.55 121.6 -55.5 122.75 L-55.3 124.15 -56.6 123.45 -56.75 123.35 -57.85 122.1 -57.95 121.8 Q-57.7 119.1 -57.2 118.1 L-56.95 117.65 Q-56.15 116.7 -54.45 116.6 -53.2 116.55 -52.4 117.3 M-23.55 116.75 L-23.75 116.1 M-34.7 121.05 L-34.7 120.75 -34.9 119.45 -35.5 118.25 M-22.2 113.3 L-22.05 113.3 -21.5 113.35 M-23.1 113.3 L-23.45 113.35 -23.8 113.35 -23.8 113.3 -24.2 110.55 M-24.8 113.7 L-28.8 115.05 -29.65 115.3 M-23.1 113.3 L-22.2 113.3 M-26.15 115.25 L-27.1 115.6 M-60.35 101.05 L-59.75 102.3 M-50.95 110.35 L-51.05 110.3 -52.15 109.4 -52.5 109.2 -54.55 108.85 -56.45 108.55 -57.05 108.55 Q-59.8 108.7 -61.9 109.9 L-63.85 111.55 Q-64.85 112.6 -65.7 114.15 L-65.85 114.5 -66.0 115.6 -65.85 117.2 -65.0 118.3 M-60.8 114.05 Q-60.3 113.55 -59.7 113.5 L-58.65 113.65 -58.25 113.9 M-50.95 110.35 L-50.85 110.5 -50.0 111.45 -50.1 110.9 -50.9 107.7 -51.05 107.15 -51.65 105.05 M-55.0 124.8 L-55.3 124.15 M-60.8 114.05 Q-61.7 114.85 -62.45 116.85 L-62.25 117.6 -61.35 117.7 Q-59.8 117.65 -58.65 116.2 L-57.85 114.8 Q-57.85 114.25 -58.25 113.9 M-60.5 119.8 Q-61.3 119.4 -61.7 119.45 -62.75 120.05 -63.1 121.0 L-63.35 121.9 -63.2 122.85 Q-62.95 123.45 -62.35 123.6 L-62.0 123.65 Q-61.15 123.55 -60.3 122.5 -59.45 121.45 -59.5 120.75 -59.5 120.25 -60.5 119.8 M-45.15 116.0 L-42.45 115.9 M-50.0 111.45 Q-49.8 112.75 -49.75 114.9 L-49.75 115.8 M-46.25 116.05 L-45.15 116.0 M-65.85 114.5 Q-67.15 117.0 -66.65 119.5 M-48.4 127.2 L-48.85 123.8 -48.45 120.2 M-60.35 101.05 Q-61.2 99.25 -61.3 99.35 M-42.45 126.0 L-42.15 120.6 M-62.35 123.6 L-64.05 123.85" fill="none" stroke="#000000" stroke-linecap="round" stroke-linejoin="round" stroke-opacity="0.3019608" stroke-width="0.05"/>
    </g>
    <g id="shape2" transform="matrix(1.0, 0.0, 0.0, 1.0, -69.35, 21.7)">
      <path d="M76.4 -20.4 L75.1 -20.15 73.85 -20.35 72.6 -20.6 70.15 -20.85 Q69.35 -20.95 69.35 -21.3 L69.6 -21.65 70.95 -21.7 Q74.9 -21.7 76.4 -20.4 M79.85 -20.2 Q79.85 -19.95 79.1 -19.95 78.4 -19.95 78.4 -20.15 78.4 -20.45 79.2 -20.45 79.85 -20.45 79.85 -20.2" fill="#ffffff" fill-rule="evenodd" stroke="none"/>
    </g>
  </defs>
</svg>
