<?xml version="1.0" encoding="UTF-8" standalone="no"?>
<svg xmlns:xlink="http://www.w3.org/1999/xlink" height="33.8px" width="17.2px" xmlns="http://www.w3.org/2000/svg">
  <g transform="matrix(1.0, 0.0, 0.0, 1.0, 8.2, 18.65)">
    <use height="33.8" transform="matrix(1.0, 0.0, 0.0, 1.0, -8.2, -18.65)" width="17.2" xlink:href="#shape0"/>
  </g>
  <defs>
    <g id="shape0" transform="matrix(1.0, 0.0, 0.0, 1.0, 8.2, 18.65)">
      <path d="M-0.6 15.15 L-0.55 11.35 -0.3 5.8 Q0.0 0.55 0.15 -5.25 L0.05 -18.6 Q3.95 -18.45 6.35 -16.1 L6.9 -15.65 8.0 -13.35 9.0 7.6 Q8.5 10.9 6.2 12.6 3.85 14.25 -0.6 15.15" fill="#d6baba" fill-rule="evenodd" stroke="none"/>
      <path d="M-0.6 15.15 Q-3.15 14.9 -4.9 14.0 -6.65 13.05 -7.6 10.95 -8.55 8.9 -8.0 3.75 L-8.0 -13.5 Q-7.25 -15.05 -6.3 -16.15 L-4.7 -17.4 Q-2.8 -18.9 0.05 -18.6 L0.15 -5.25 Q0.0 0.55 -0.3 5.8 L-0.55 11.35 -0.6 15.15" fill="#ffffff" fill-rule="evenodd" stroke="none"/>
      <path d="M-6.3 -16.15 Q-7.25 -15.05 -8.0 -13.5 L-8.0 3.75 Q-8.55 8.9 -7.6 10.95 -6.65 13.05 -4.9 14.0 -3.15 14.9 -0.6 15.15 3.85 14.25 6.2 12.6 8.5 10.9 9.0 7.6 L8.0 -13.35 6.9 -15.65" fill="none" stroke="#000000" stroke-linecap="round" stroke-linejoin="round" stroke-opacity="0.3019608" stroke-width="0.05"/>
    </g>
  </defs>
</svg>
