<?xml version="1.0" encoding="UTF-8" standalone="no"?>
<svg xmlns:xlink="http://www.w3.org/1999/xlink" height="62.85px" width="43.35px" xmlns="http://www.w3.org/2000/svg">
  <g transform="matrix(1.0, 0.0, 0.0, 1.0, 14.75, 35.55)">
    <use height="21.15" transform="matrix(1.0, 0.0, 0.0, 1.0, -6.65, -8.8)" width="15.9" xlink:href="#sprite0"/>
  </g>
  <defs>
    <g id="sprite0" transform="matrix(1.0, 0.0, 0.0, 1.0, 7.9, 10.55)">
      <use height="21.15" id="_col3" transform="matrix(1.0, 0.0, 0.0, 1.0, -7.9, -10.55)" width="15.9" xlink:href="#sprite1"/>
      <use height="11.95" transform="matrix(1.0, 0.0, 0.0, 1.0, -0.25, -5.65)" width="4.95" xlink:href="#shape1"/>
    </g>
    <g id="sprite1" transform="matrix(1.0, 0.0, 0.0, 1.0, 7.95, 10.55)">
      <use height="21.15" transform="matrix(1.0, 0.0, 0.0, 1.0, -7.95, -10.55)" width="15.9" xlink:href="#shape0"/>
    </g>
    <g id="shape0" transform="matrix(1.0, 0.0, 0.0, 1.0, 7.95, 10.55)">
      <path d="M2.2 -10.3 L4.55 -10.55 5.6 -10.45 Q6.5 -10.25 7.0 -9.85 7.95 -9.0 7.95 -6.9 7.95 -5.95 6.55 -2.65 L4.95 1.0 2.3 6.05 1.35 8.15 0.65 9.7 Q-0.05 10.6 -2.3 10.6 L-4.35 10.4 Q-3.65 9.45 -3.1 8.15 -2.6 6.85 -2.25 5.15 L-1.05 -1.95 Q-0.7 -3.5 -0.55 -7.0 -0.1 -8.85 1.65 -10.0 L1.85 -10.15 2.2 -10.3" fill="#64544f" fill-rule="evenodd" stroke="none"/>
      <path d="M-4.35 10.4 L-5.1 10.2 -5.75 10.0 -6.35 9.65 Q-7.95 8.65 -7.95 7.2 L-7.9 3.65 -7.85 -3.35 Q-7.85 -5.0 -7.3 -5.8 -6.6 -6.8 -4.0 -8.55 -2.8 -9.35 0.5 -10.0 L1.85 -10.25 2.2 -10.3 1.85 -10.15 1.65 -10.0 Q-0.1 -8.85 -0.55 -7.0 -0.7 -3.5 -1.05 -1.95 L-2.25 5.15 Q-2.6 6.85 -3.1 8.15 -3.65 9.45 -4.35 10.4" fill="#938175" fill-rule="evenodd" stroke="none"/>
      <path d="M2.2 -10.3 L4.55 -10.55 5.6 -10.45 Q6.5 -10.25 7.0 -9.85 7.95 -9.0 7.95 -6.9 7.95 -5.95 6.55 -2.65 L4.95 1.0 2.3 6.05 1.35 8.15 0.65 9.7 Q-0.05 10.6 -2.3 10.6 L-4.35 10.4 -5.1 10.2 -5.75 10.0 -6.35 9.65 Q-7.95 8.65 -7.95 7.2 L-7.9 3.65 -7.85 -3.35 Q-7.85 -5.0 -7.3 -5.8 -6.6 -6.8 -4.0 -8.55 -2.8 -9.35 0.5 -10.0 L1.85 -10.25 2.2 -10.3 Z" fill="none" stroke="#000000" stroke-linecap="round" stroke-linejoin="round" stroke-opacity="0.3019608" stroke-width="0.05"/>
    </g>
    <g id="shape1" transform="matrix(1.0, 0.0, 0.0, 1.0, 0.25, 5.65)">
      <path d="M3.15 -0.2 L4.6 -5.65 4.7 0.25 3.15 -0.2 4.7 0.25 -0.25 6.3 -0.25 -1.65 3.15 -0.2 -0.25 6.3 3.15 -0.2" fill="#bcbecb" fill-rule="evenodd" stroke="none"/>
      <path d="M4.6 -5.65 L3.15 -0.2 -0.25 -1.65 4.6 -5.65" fill="#ffffff" fill-rule="evenodd" stroke="none"/>
      <path d="M4.6 -5.65 L3.15 -0.2 4.7 0.25 4.6 -5.65 -0.25 -1.65 3.15 -0.2 -0.25 6.3 4.7 0.25 M-0.25 6.3 L-0.25 -1.65" fill="none" stroke="#000000" stroke-linecap="round" stroke-linejoin="round" stroke-opacity="0.3019608" stroke-width="0.05"/>
    </g>
  </defs>
</svg>
