<?xml version="1.0" encoding="UTF-8" standalone="no"?>
<svg xmlns:xlink="http://www.w3.org/1999/xlink" height="34.0px" width="38.1px" xmlns="http://www.w3.org/2000/svg">
  <g transform="matrix(1.0, 0.0, 0.0, 1.0, 21.5, 14.55)">
    <use height="11.75" transform="matrix(1.0, 0.0, 0.0, 1.0, -18.15, 5.1)" width="9.5" xlink:href="#shape0"/>
    <use height="18.9" id="_col3b" transform="matrix(1.0, 0.0, 0.0, 1.0, -19.1, 0.55)" width="19.5" xlink:href="#sprite0"/>
    <use height="25.05" id="_col3" transform="matrix(0.7901, 0.0974, -0.1571, 0.809, -17.5423, -14.5452)" width="43.2" xlink:href="#sprite1"/>
    <use height="8.55" transform="matrix(1.0, 0.0, 0.0, 1.0, -18.8, -3.4)" width="20.3" xlink:href="#shape3"/>
  </g>
  <defs>
    <g id="shape0" transform="matrix(1.0, 0.0, 0.0, 1.0, 18.15, -5.1)">
      <path d="M-18.1 8.8 L-17.95 8.6 -17.85 8.5 -17.6 8.0 -17.45 7.05 -17.4 7.0 -17.45 6.95 Q-17.25 5.1 -16.2 5.1 L-11.9 5.4 -9.75 7.2 Q-8.65 8.65 -8.65 10.3 L-8.75 11.75 -8.75 11.7 -8.95 12.6 -9.05 12.85 -10.2 10.6 Q-11.5 8.05 -14.35 8.05 L-17.05 8.45 -17.8 8.8 -18.1 8.8" fill="#a2a2a2" fill-rule="evenodd" stroke="none"/>
      <path d="M-18.1 8.8 L-17.8 8.8 -17.05 8.45 -14.35 8.05 Q-11.5 8.05 -10.2 10.6 L-9.05 12.85 Q-9.4 13.95 -10.15 14.9 -11.65 16.85 -13.65 16.85 -16.05 16.85 -16.85 15.15 L-17.3 13.0 -18.15 8.95 -18.1 8.8" fill="#cccccc" fill-rule="evenodd" stroke="none"/>
    </g>
    <g id="sprite0" transform="matrix(1.0, 0.0, 0.0, 1.0, 0.0, 0.0)">
      <use height="18.9" transform="matrix(1.0, 0.0, 0.0, 1.0, 0.0, 0.0)" width="19.5" xlink:href="#shape1"/>
    </g>
    <g id="shape1" transform="matrix(1.0, 0.0, 0.0, 1.0, 0.0, 0.0)">
      <path d="M10.35 11.15 L10.35 11.2 10.15 12.05 10.35 11.15 M1.65 6.4 L1.7 6.45 1.65 6.5 1.65 6.4" fill="#cccccc" fill-rule="evenodd" stroke="none"/>
      <path d="M19.4 6.6 Q19.65 9.7 19.15 10.3 L18.95 10.5 18.35 10.9 17.75 11.3 16.45 12.05 16.2 8.65 19.4 6.6 16.2 8.65 0.05 2.6 Q0.15 2.15 2.1 0.0 L19.4 6.6" fill="#d1b6b6" fill-rule="evenodd" stroke="none"/>
      <path d="M16.2 8.65 L16.45 12.05 15.95 12.3 Q14.7 13.15 7.7 18.9 L4.05 17.8 1.7 16.75 Q1.4 16.4 1.35 15.0 1.3 11.3 0.0 2.65 L0.05 2.6 16.2 8.65 M1.75 9.1 Q1.75 12.0 3.1 13.9 4.15 15.4 5.0 15.4 7.2 15.4 8.4 13.5 9.3 12.1 9.3 10.55 9.3 8.1 7.45 6.45 5.85 4.95 4.05 4.95 L2.85 5.15 Q2.45 5.15 2.1 6.45 1.75 7.7 1.75 9.1" fill="#ffffff" fill-rule="evenodd" stroke="none"/>
      <path d="M16.45 12.05 L17.75 11.3 18.35 10.9 18.95 10.5 19.15 10.3 Q19.65 9.7 19.4 6.6 L16.2 8.65 16.45 12.05 15.95 12.3 Q14.7 13.15 7.7 18.9 L4.05 17.8 1.7 16.75 Q1.4 16.4 1.35 15.0 1.3 11.3 0.0 2.65 L0.05 2.6 Q0.15 2.15 2.1 0.0 L19.4 6.6 M1.75 9.1 Q1.75 12.0 3.1 13.9 4.15 15.4 5.0 15.4 7.2 15.4 8.4 13.5 9.3 12.1 9.3 10.55 9.3 8.1 7.45 6.45 5.85 4.95 4.05 4.95 L2.85 5.15 Q2.45 5.15 2.1 6.45 1.75 7.7 1.75 9.1 M6.45 10.9 Q7.0 10.9 7.2 10.15 L7.3 9.3 Q7.3 7.8 6.5 8.3 5.65 8.75 5.75 9.85 5.85 10.9 6.45 10.9 M0.05 2.6 L16.2 8.65" fill="none" stroke="#000000" stroke-linecap="round" stroke-linejoin="round" stroke-opacity="0.3019608" stroke-width="0.05"/>
    </g>
    <g id="sprite1" transform="matrix(1.0, 0.0, 0.0, 1.0, 21.6, 15.75)">
      <use height="25.05" transform="matrix(1.0, 0.0, 0.0, 1.0, -21.6, -15.75)" width="43.2" xlink:href="#shape2"/>
    </g>
    <g id="shape2" transform="matrix(1.0, 0.0, 0.0, 1.0, 21.6, 15.75)">
      <path d="M-8.6 2.45 L3.65 -1.4 Q5.6 -1.85 6.1 -2.85 L7.7 -6.7 6.5 -6.7 Q4.5 -5.85 0.6 -5.15 L0.0 -5.0 -7.35 -3.45 -6.4 -6.6 -1.45 -7.85 5.85 -9.7 13.85 -11.65 5.85 -9.7 -1.45 -7.85 -6.4 -6.6 Q-5.4 -7.55 -3.6 -8.9 -1.3 -10.65 -0.45 -10.95 L20.25 -14.65 18.05 -13.2 Q16.35 -11.95 13.85 -11.65 L13.85 -9.9 Q10.35 0.4 9.25 4.85 5.85 6.4 1.05 6.85 L-10.05 7.55 1.05 6.85 Q5.85 6.4 9.25 4.85 8.9 5.9 8.65 7.45 L7.8 7.45 0.6 8.85 -10.35 9.25 -10.05 7.55 -8.9 2.7 -8.6 2.45 M6.25 3.25 Q6.25 3.95 5.3 5.0 4.25 6.1 3.2 6.05 2.4 6.05 1.65 5.35 0.85 4.55 0.85 3.6 0.8 2.75 1.5 2.0 2.2 1.3 3.0 1.3 L4.95 1.45 Q6.2 1.75 6.25 3.25 6.2 1.75 4.95 1.45 L3.0 1.3 Q2.2 1.3 1.5 2.0 0.8 2.75 0.85 3.6 0.85 4.55 1.65 5.35 2.4 6.05 3.2 6.05 4.25 6.1 5.3 5.0 6.25 3.95 6.25 3.25 M-21.6 -0.3 L-21.55 -0.35 -21.6 -0.35 Q-21.6 -2.85 -20.9 -8.05 L-20.35 -10.75 -19.9 -13.2 Q-19.75 -14.15 -19.2 -13.9 L-16.85 -14.55 -16.45 -14.7 -13.4 -15.75 Q-12.7 -14.75 -10.65 -13.1 -8.7 -11.4 -7.45 -10.85 L-7.45 -10.75 Q-7.65 -9.05 -7.95 -8.3 -10.35 -5.7 -11.75 -4.75 L-12.0 -4.6 -11.25 -7.3 -11.1 -7.6 -7.45 -10.75 -11.1 -7.6 -11.25 -7.3 -12.0 -4.6 -12.05 -4.55 -15.95 -7.95 -18.5 -10.45 -18.9 -7.05 -18.9 -6.55 Q-18.3 -4.05 -13.7 1.35 L-13.75 1.5 -13.65 1.45 Q-11.4 -0.05 -9.9 -0.65 L-10.65 1.3 -11.85 4.9 -15.1 7.15 -21.4 1.0 -21.6 -0.3 M-21.55 -0.35 L-14.8 5.45 -15.1 7.15 -14.8 5.45 -21.55 -0.35 M-11.25 -7.3 L-13.75 -8.8 Q-14.6 -9.15 -16.85 -11.6 L-19.2 -13.9 -16.85 -11.6 Q-14.6 -9.15 -13.75 -8.8 L-11.25 -7.3 M-19.6 -2.3 L-19.2 -2.2 Q-17.9 -1.95 -17.9 -0.55 -17.9 0.9 -19.2 0.9 -19.65 0.9 -20.0 0.45 L-20.3 -0.6 -20.1 -1.65 -19.6 -2.3 -20.1 -1.65 -20.3 -0.6 -20.0 0.45 Q-19.65 0.9 -19.2 0.9 -17.9 0.9 -17.9 -0.55 -17.9 -1.95 -19.2 -2.2 L-19.6 -2.3 M-14.8 5.45 L-13.75 1.5 -14.8 5.45" fill="#ffffff" fill-rule="evenodd" stroke="none"/>
      <path d="M0.0 -5.0 L0.6 -5.15 Q4.5 -5.85 6.5 -6.7 L7.7 -6.7 6.1 -2.85 Q5.6 -1.85 3.65 -1.4 L-8.6 2.45 0.0 -5.0 M9.25 4.85 Q10.35 0.4 13.85 -9.9 L13.85 -11.65 Q16.35 -11.95 18.05 -13.2 L20.25 -14.65 20.55 -14.65 21.6 -8.2 Q21.6 -6.8 20.4 -5.2 L17.85 -2.1 Q17.2 -1.35 16.8 0.25 L16.2 2.7 Q15.3 5.45 13.95 6.3 12.3 7.3 8.65 7.45 8.9 5.9 9.25 4.85 M-11.75 -4.75 L-9.9 -0.75 -9.9 -0.65 Q-11.4 -0.05 -13.65 1.45 L-13.7 1.35 Q-18.3 -4.05 -18.9 -6.55 L-18.9 -7.05 -18.5 -10.45 -15.95 -7.95 -12.05 -4.55 -12.0 -4.5 -12.0 -4.6 -11.75 -4.75 M-18.9 -6.55 L-15.95 -7.95 -18.9 -6.55" fill="#d1b6b6" fill-rule="evenodd" stroke="none"/>
      <path d="M0.0 -5.0 L0.6 -5.15 Q4.5 -5.85 6.5 -6.7 L7.7 -6.7 6.1 -2.85 Q5.6 -1.85 3.65 -1.4 L-8.6 2.45 -8.9 2.7 -10.05 7.55 1.05 6.85 Q5.85 6.4 9.25 4.85 10.35 0.4 13.85 -9.9 L13.85 -11.65 5.85 -9.7 -1.45 -7.85 -6.4 -6.6 -7.35 -3.45 0.0 -5.0 -8.6 2.45 -8.9 2.6 -8.9 2.7 M13.85 -11.65 Q16.35 -11.95 18.05 -13.2 L20.25 -14.65 -0.45 -10.95 Q-1.3 -10.65 -3.6 -8.9 -5.4 -7.55 -6.4 -6.6 M20.25 -14.65 L20.55 -14.65 21.6 -8.2 Q21.6 -6.8 20.4 -5.2 L17.85 -2.1 Q17.2 -1.35 16.8 0.25 L16.2 2.7 Q15.3 5.45 13.95 6.3 12.3 7.3 8.65 7.45 L7.8 7.45 0.6 8.85 -10.35 9.25 -10.05 7.55 M6.25 3.25 Q6.2 1.75 4.95 1.45 L3.0 1.3 Q2.2 1.3 1.5 2.0 0.8 2.75 0.85 3.6 0.85 4.55 1.65 5.35 2.4 6.05 3.2 6.05 4.25 6.1 5.3 5.0 6.25 3.95 6.25 3.25 M8.65 7.45 Q8.9 5.9 9.25 4.85 M-21.55 -0.35 L-21.6 -0.35 -21.6 -0.3 -21.4 1.0 -15.1 7.15 -14.8 5.45 -21.55 -0.35 M-21.6 -0.35 Q-21.6 -2.85 -20.9 -8.05 L-20.35 -10.75 -19.9 -13.2 Q-19.75 -14.15 -19.2 -13.9 L-16.85 -14.55 -16.45 -14.7 -13.4 -15.75 Q-12.7 -14.75 -10.65 -13.1 -8.7 -11.4 -7.45 -10.85 L-7.45 -10.75 Q-7.65 -9.05 -7.95 -8.3 -10.35 -5.7 -11.75 -4.75 L-9.9 -0.75 -9.9 -0.65 -10.65 1.3 -11.85 4.9 -15.1 7.15 M-7.45 -10.75 L-11.1 -7.6 -11.25 -7.3 -12.0 -4.6 -11.75 -4.75 M-19.2 -13.9 L-16.85 -11.6 Q-14.6 -9.15 -13.75 -8.8 L-11.25 -7.3 M-15.95 -7.95 L-18.9 -6.55 Q-18.3 -4.05 -13.7 1.35 M-13.65 1.45 Q-11.4 -0.05 -9.9 -0.65 M-18.9 -6.55 L-18.9 -7.05 -18.5 -10.45 -15.95 -7.95 -12.05 -4.55 M-12.0 -4.6 L-12.0 -4.5 -12.05 -4.55 M-19.6 -2.3 L-20.1 -1.65 -20.3 -0.6 -20.0 0.45 Q-19.65 0.9 -19.2 0.9 -17.9 0.9 -17.9 -0.55 -17.9 -1.95 -19.2 -2.2 L-19.6 -2.3 M-13.65 1.45 L-13.75 1.5 -14.8 5.45 M-13.75 1.5 L-13.7 1.35" fill="none" stroke="#000000" stroke-linecap="round" stroke-linejoin="round" stroke-opacity="0.3019608" stroke-width="0.05"/>
    </g>
    <g id="shape3" transform="matrix(1.0, 0.0, 0.0, 1.0, 18.8, 3.4)">
      <path d="M-1.25 5.15 Q-1.85 5.1 -2.35 4.55 -2.85 3.9 -2.75 3.25 -2.6 2.6 -2.0 2.1 -1.3 1.65 -0.75 1.75 L0.75 1.95 Q1.65 2.35 1.45 3.4 1.35 3.95 0.45 4.55 -0.4 5.25 -1.25 5.15 M-18.35 -3.0 L-17.85 -3.4 -17.45 -3.35 Q-16.3 -2.95 -16.5 -1.85 -16.7 -0.65 -17.95 -0.8 -18.35 -0.8 -18.6 -1.25 -18.85 -1.6 -18.75 -2.15 L-18.35 -3.0" fill="#ffffff" fill-rule="evenodd" stroke="none"/>
      <path d="M-18.35 -3.0 L-18.75 -2.15 Q-18.85 -1.6 -18.6 -1.25 -18.35 -0.8 -17.95 -0.8 -16.7 -0.65 -16.5 -1.85 -16.3 -2.95 -17.45 -3.35 L-17.85 -3.4 -18.35 -3.0 M-1.25 5.15 Q-0.4 5.25 0.45 4.55 1.35 3.95 1.45 3.4 1.65 2.35 0.75 1.95 L-0.75 1.75 Q-1.3 1.65 -2.0 2.1 -2.6 2.6 -2.75 3.25 -2.85 3.9 -2.35 4.55 -1.85 5.1 -1.25 5.15" fill="none" stroke="#000000" stroke-linecap="round" stroke-linejoin="round" stroke-opacity="0.3019608" stroke-width="0.05"/>
    </g>
  </defs>
</svg>
