<?xml version="1.0" encoding="UTF-8" standalone="no"?>
<svg xmlns:xlink="http://www.w3.org/1999/xlink" height="6.05px" width="8.3px" xmlns="http://www.w3.org/2000/svg">
  <g transform="matrix(1.0, 0.0, 0.0, 1.0, 3.65, 3.45)">
    <use height="2.25" transform="matrix(1.0, 0.0, 0.0, 1.0, -1.95, -0.55)" width="5.15" xlink:href="#shape0"/>
    <use height="3.95" transform="matrix(0.9848, -0.1704, 0.1704, 0.9848, -3.6664, -1.7606)" width="7.75" xlink:href="#sprite0"/>
  </g>
  <defs>
    <g id="shape0" transform="matrix(1.0, 0.0, 0.0, 1.0, 1.95, 0.55)">
      <path d="M1.5 0.65 L-0.35 0.9 -1.8 1.3 -1.4 0.95 0.3 0.05 0.5 0.0 0.85 -0.2 1.25 -0.25 1.85 -0.45 1.55 -0.25 1.25 -0.25 0.5 0.0 -0.55 0.65 -1.8 1.3 M2.2 0.95 L-1.85 1.6 M3.1 -0.05 L-0.35 0.9" fill="none" stroke="#000000" stroke-linecap="round" stroke-linejoin="round" stroke-opacity="0.3529412" stroke-width="0.2"/>
    </g>
    <g id="sprite0" transform="matrix(1.0, 0.0, 0.0, 1.0, 3.85, 2.2)">
      <use height="1.45" transform="matrix(1.0, 0.0, 0.0, 1.0, -2.45, -2.2)" width="4.45" xlink:href="#shape1"/>
    </g>
    <g id="shape1" transform="matrix(1.0, 0.0, 0.0, 1.0, 2.45, 2.2)">
      <path d="M-2.25 -0.95 L-1.35 -1.5 -0.15 -1.9 1.25 -1.95 1.8 -1.85" fill="none" stroke="#000000" stroke-linecap="round" stroke-linejoin="round" stroke-opacity="0.5019608" stroke-width="0.4"/>
    </g>
  </defs>
</svg>
