<?xml version="1.0" encoding="UTF-8" standalone="no"?>
<svg xmlns:xlink="http://www.w3.org/1999/xlink" height="73.85px" width="319.95px" xmlns="http://www.w3.org/2000/svg">
  <g transform="matrix(1.0, 0.0, 0.0, 1.0, 20.2, 0.0)">
    <use height="73.85" transform="matrix(1.0, 0.0, 0.0, 1.0, 0.0, 0.0)" width="299.75" xlink:href="#shape0"/>
    <use height="8.2" transform="matrix(1.0, 0.0, 0.0, 1.0, -19.7, 3.85)" width="24.25" xlink:href="#text0"/>
    <use height="8.2" transform="matrix(1.0, 0.0, 0.0, 1.0, -19.7, 18.35)" width="24.25" xlink:href="#text1"/>
    <use height="8.2" transform="matrix(1.0, 0.0, 0.0, 1.0, -20.2, 32.85)" width="24.25" xlink:href="#text2"/>
    <use height="8.2" transform="matrix(1.0, 0.0, 0.0, 1.0, -20.2, 47.35)" width="24.25" xlink:href="#text3"/>
    <use height="8.2" transform="matrix(1.0, 0.0, 0.0, 1.0, -20.2, 62.2)" width="24.25" xlink:href="#text4"/>
  </g>
  <defs>
    <g id="shape0" transform="matrix(1.0, 0.0, 0.0, 1.0, 0.0, 0.0)">
      <path d="M299.75 30.4 L299.75 44.25 285.35 44.25 285.35 30.4 285.25 30.4 285.25 30.25 299.7 30.25 299.7 30.4 299.75 30.4 M285.25 45.15 L285.25 45.0 299.7 45.0 299.7 45.15 299.75 45.15 299.75 59.0 285.35 59.0 285.35 45.15 285.25 45.15 M299.7 60.0 L299.75 60.0 299.75 73.85 285.35 73.85 285.35 60.0 285.25 60.0 285.25 59.85 299.7 59.85 299.7 60.0" fill="#7bad30" fill-rule="evenodd" stroke="none"/>
      <path d="M284.75 30.4 L284.75 44.25 270.35 44.25 270.35 30.4 270.25 30.4 270.25 30.25 284.7 30.25 284.7 30.4 284.75 30.4 M284.75 45.15 L284.75 59.0 270.35 59.0 270.35 45.15 270.25 45.15 270.25 45.0 284.7 45.0 284.7 45.15 284.75 45.15 M270.35 60.0 L270.25 60.0 270.25 59.85 284.7 59.85 284.7 60.0 284.75 60.0 284.75 73.85 270.35 73.85 270.35 60.0" fill="#b78104" fill-rule="evenodd" stroke="none"/>
      <path d="M255.25 30.25 L269.7 30.25 269.7 30.4 269.75 30.4 269.75 44.25 255.35 44.25 255.35 30.4 255.25 30.4 255.25 30.25 M255.25 45.0 L269.7 45.0 269.7 45.15 269.75 45.15 269.75 59.0 255.35 59.0 255.35 45.15 255.25 45.15 255.25 45.0 M269.7 60.0 L269.75 60.0 269.75 73.85 255.35 73.85 255.35 60.0 255.25 60.0 255.25 59.85 269.7 59.85 269.7 60.0" fill="#bb1111" fill-rule="evenodd" stroke="none"/>
      <path d="M254.7 30.4 L254.75 30.4 254.75 44.25 240.35 44.25 240.35 30.4 240.25 30.4 240.25 30.25 254.7 30.25 254.7 30.4 M254.75 45.15 L254.75 59.0 240.35 59.0 240.35 45.15 240.25 45.15 240.25 45.0 254.7 45.0 254.7 45.15 254.75 45.15 M254.75 73.85 L240.35 73.85 240.35 60.0 240.25 60.0 240.25 59.85 254.7 59.85 254.7 60.0 254.75 60.0 254.75 73.85" fill="#559399" fill-rule="evenodd" stroke="none"/>
      <path d="M210.25 30.4 L210.25 30.25 224.7 30.25 224.7 30.4 224.75 30.4 224.75 44.25 210.35 44.25 210.35 30.4 210.25 30.4 M210.25 45.0 L224.7 45.0 224.7 45.15 224.75 45.15 224.75 59.0 210.35 59.0 210.35 45.15 210.25 45.15 210.25 45.0 M224.75 60.0 L224.75 73.85 210.35 73.85 210.35 60.0 210.25 60.0 210.25 59.85 224.7 59.85 224.7 60.0 224.75 60.0" fill="#fae31f" fill-rule="evenodd" stroke="none"/>
      <path d="M209.75 30.4 L209.75 44.25 195.35 44.25 195.35 30.4 195.25 30.4 195.25 30.25 209.7 30.25 209.7 30.4 209.75 30.4 M209.75 45.15 L209.75 59.0 195.35 59.0 195.35 45.15 195.25 45.15 195.25 45.0 209.7 45.0 209.7 45.15 209.75 45.15 M195.25 59.85 L209.7 59.85 209.7 60.0 209.75 60.0 209.75 73.85 195.35 73.85 195.35 60.0 195.25 60.0 195.25 59.85 M149.5 15.6 L149.5 29.45 135.1 29.45 135.1 15.6 135.0 15.6 135.0 15.45 149.45 15.45 149.45 15.6 149.5 15.6" fill="#784129" fill-rule="evenodd" stroke="none"/>
      <path d="M225.25 44.25 L225.25 30.25 239.75 30.25 239.75 44.25 225.25 44.25 M239.75 45.0 L239.75 59.0 225.25 59.0 225.25 45.0 239.75 45.0 M225.25 59.85 L239.75 59.85 239.75 73.85 225.25 73.85 225.25 59.85" fill="#7a73c8" fill-rule="evenodd" stroke="none"/>
      <path d="M195.1 0.15 L195.0 0.15 195.0 0.0 195.1 0.0 195.1 0.15 M164.45 30.15 L164.5 30.15 164.5 44.0 150.1 44.0 150.1 30.15 150.0 30.15 150.0 30.0 164.45 30.0 164.45 30.15 M164.5 45.15 L164.5 59.0 150.1 59.0 150.1 45.15 150.0 45.15 150.0 45.0 164.45 45.0 164.45 45.15 164.5 45.15 M164.5 60.0 L164.5 73.85 150.1 73.85 150.1 60.0 150.0 60.0 150.0 59.85 164.45 59.85 164.45 60.0 164.5 60.0 M29.45 15.15 L29.5 15.15 29.5 29.5 15.1 29.5 15.1 15.15 15.1 15.0 29.45 15.0 29.45 15.15" fill="#fff9ae" fill-rule="evenodd" stroke="none"/>
      <path d="M179.45 30.15 L179.5 30.15 179.5 44.0 165.1 44.0 165.1 30.15 165.0 30.15 165.0 30.0 179.45 30.0 179.45 30.15 M165.0 45.15 L165.0 45.0 179.45 45.0 179.45 45.15 179.5 45.15 179.5 59.0 165.1 59.0 165.1 45.15 165.0 45.15 M179.5 60.0 L179.5 73.85 165.1 73.85 165.1 60.0 165.0 60.0 165.0 59.85 179.45 59.85 179.45 60.0 179.5 60.0" fill="#f0dc99" fill-rule="evenodd" stroke="none"/>
      <path d="M180.25 30.25 L194.65 30.25 194.65 30.4 194.75 30.4 194.75 44.25 180.25 44.25 180.25 30.25 M194.75 45.15 L194.75 59.0 180.25 59.0 180.25 45.0 194.65 45.0 194.65 45.15 194.75 45.15 M194.75 73.85 L180.25 73.85 180.25 59.85 194.65 59.85 194.65 60.0 194.75 60.0 194.75 73.85" fill="#b6e7a9" fill-rule="evenodd" stroke="none"/>
      <path d="M135.0 30.0 L149.45 30.0 149.45 30.15 149.5 30.15 149.5 44.0 135.1 44.0 135.1 30.15 135.0 30.15 135.0 30.0 M135.0 45.0 L149.45 45.0 149.45 45.15 149.5 45.15 149.5 59.0 135.1 59.0 135.1 45.15 135.0 45.15 135.0 45.0 M149.5 73.85 L135.1 73.85 135.1 60.0 135.0 60.0 135.0 59.85 149.45 59.85 149.45 60.0 149.5 60.0 149.5 73.85" fill="#d31818" fill-rule="evenodd" stroke="none"/>
      <path d="M134.5 30.15 L134.5 44.0 120.1 44.0 120.1 30.15 120.0 30.15 120.0 30.0 134.45 30.0 134.45 30.15 134.5 30.15 M134.5 45.15 L134.5 59.0 120.1 59.0 120.1 45.15 120.0 45.15 120.0 45.0 134.45 45.0 134.45 45.15 134.5 45.15 M134.7 29.65 L120.2 29.65 120.2 15.15 134.7 15.15 134.7 29.65 M120.0 60.0 L120.0 59.85 134.45 59.85 134.45 60.0 134.5 60.0 134.5 73.85 120.1 73.85 120.1 60.0 120.0 60.0" fill="#b85f1d" fill-rule="evenodd" stroke="none"/>
      <path d="M104.5 15.15 L104.55 15.15 104.55 15.3 104.6 15.3 104.6 29.65 90.2 29.65 90.2 29.5 90.2 15.15 104.5 15.15" fill="#4f677d" fill-rule="evenodd" stroke="none"/>
      <path d="M90.2 29.5 L90.1 29.5 90.1 15.15 90.0 15.15 90.0 15.0 104.45 15.0 104.45 15.15 104.5 15.15 90.2 15.15 90.2 29.5 M89.65 30.15 L89.65 30.3 89.7 30.3 89.7 44.65 75.3 44.65 75.3 44.0 75.1 44.0 75.1 30.15 75.0 30.15 75.0 30.0 89.45 30.0 89.45 30.15 89.65 30.15 M89.45 45.15 L89.5 45.15 89.5 59.0 75.1 59.0 75.1 45.15 75.0 45.15 75.0 45.0 89.45 45.0 89.45 45.15 M89.7 59.5 L75.3 59.5 75.3 59.4 89.7 59.4 89.7 59.5 M89.5 73.85 L75.1 73.85 75.1 60.0 75.0 60.0 75.0 59.85 89.45 59.85 89.45 60.0 89.5 60.0 89.5 73.85" fill="#97cbff" fill-rule="evenodd" stroke="none"/>
      <path d="M105.2 29.5 L105.1 29.5 105.1 15.15 105.0 15.15 105.0 15.0 119.45 15.0 119.45 15.15 119.5 15.15 105.2 15.15 105.2 29.5 M90.0 30.0 L104.45 30.0 104.45 30.15 104.8 30.15 104.8 44.65 90.3 44.65 90.3 44.0 90.1 44.0 90.1 30.15 90.0 30.15 90.0 30.0 M90.0 45.0 L104.45 45.0 104.45 45.15 104.5 45.15 104.5 59.0 90.1 59.0 90.1 45.15 90.0 45.15 90.0 45.0 M104.8 59.5 L90.3 59.5 90.3 59.4 104.8 59.4 104.8 59.5 M104.5 60.0 L104.5 73.85 90.1 73.85 90.1 60.0 90.0 60.0 90.0 59.85 104.45 59.85 104.45 60.0 104.5 60.0" fill="#8ba3d7" fill-rule="evenodd" stroke="none"/>
      <path d="M119.5 15.15 L119.7 15.15 119.7 29.65 105.2 29.65 105.2 29.5 105.2 15.15 119.5 15.15 M119.8 30.15 L119.8 44.65 105.3 44.65 105.3 44.0 105.1 44.0 105.1 30.15 105.0 30.15 105.0 30.0 119.45 30.0 119.45 30.15 119.8 30.15 M105.0 45.0 L119.45 45.0 119.45 45.15 119.5 45.15 119.5 59.0 105.1 59.0 105.1 45.15 105.0 45.15 105.0 45.0 M119.5 60.0 L119.5 73.85 105.1 73.85 105.1 60.0 105.0 60.0 105.0 59.85 119.45 59.85 119.45 60.0 119.5 60.0 M119.8 59.5 L105.3 59.5 105.3 59.4 119.8 59.4 119.8 59.5" fill="#df7e37" fill-rule="evenodd" stroke="none"/>
      <path d="M75.1 0.0 L89.45 0.0 89.45 0.15 89.5 0.15 89.5 14.5 75.1 14.5 75.1 0.15 75.1 0.0" fill="#996600" fill-rule="evenodd" stroke="none"/>
      <path d="M75.1 0.15 L75.0 0.15 75.0 0.0 75.1 0.0 75.1 0.15 M75.1 15.15 L75.0 15.15 75.0 15.0 89.45 15.0 89.45 15.15 89.5 15.15 75.1 15.15 M60.0 30.0 L74.45 30.0 74.45 30.15 74.6 30.15 74.6 30.3 74.7 30.3 74.7 44.65 60.3 44.65 60.3 44.55 60.2 44.55 60.2 44.0 60.1 44.0 60.1 30.15 60.0 30.15 60.0 30.0 M60.0 45.0 L74.45 45.0 74.45 45.15 74.5 45.15 74.5 59.0 60.1 59.0 60.1 45.15 60.0 45.15 60.0 45.0 M74.7 59.5 L60.3 59.5 60.3 59.4 74.7 59.4 74.7 59.5 M74.5 73.85 L60.1 73.85 60.1 60.0 60.0 60.0 60.0 59.85 74.45 59.85 74.45 60.0 74.5 60.0 74.5 73.85" fill="#d5eaff" fill-rule="evenodd" stroke="none"/>
      <path d="M89.5 15.15 L89.5 15.3 89.6 15.3 89.6 29.65 75.2 29.65 75.2 29.55 75.1 29.55 75.1 15.15 89.5 15.15" fill="#fbcd15" fill-rule="evenodd" stroke="none"/>
      <path d="M74.5 14.5 L60.0 14.5 60.0 0.0 74.5 0.0 74.5 14.5" fill="#eccd57" fill-rule="evenodd" stroke="none"/>
      <path d="M44.5 0.15 L44.5 14.5 30.1 14.5 30.1 0.15 30.0 0.15 30.0 0.0 44.45 0.0 44.45 0.15 44.5 0.15" fill="#cb841b" fill-rule="evenodd" stroke="none"/>
      <path d="M44.45 15.15 L44.5 15.15 44.5 29.5 30.1 29.5 30.1 15.15 30.0 15.15 30.0 15.0 44.45 15.0 44.45 15.15 M44.6 30.15 L44.6 44.5 30.2 44.5 30.2 44.0 30.1 44.0 30.1 30.15 30.0 30.15 30.0 30.0 44.55 30.0 44.55 30.15 44.6 30.15 M44.5 45.15 L44.5 59.0 30.1 59.0 30.1 45.15 30.0 45.15 30.0 45.0 44.45 45.0 44.45 45.15 44.5 45.15 M30.1 60.0 L30.0 60.0 30.0 59.85 44.45 59.85 44.45 60.0 44.5 60.0 44.5 73.85 30.1 73.85 30.1 60.0" fill="#ffaa1e" fill-rule="evenodd" stroke="none"/>
      <path d="M45.0 14.5 L45.0 0.0 59.5 0.0 59.5 14.5 45.0 14.5" fill="#d79b75" fill-rule="evenodd" stroke="none"/>
      <path d="M59.5 15.0 L59.5 29.5 45.0 29.5 45.0 15.0 59.5 15.0" fill="#952f04" fill-rule="evenodd" stroke="none"/>
      <path d="M45.0 44.0 L45.0 30.0 59.6 30.0 59.6 44.5 45.1 44.5 45.1 44.0 45.0 44.0 M59.5 45.0 L59.5 59.0 45.0 59.0 45.0 45.0 59.5 45.0 M59.5 73.85 L45.0 73.85 45.0 59.85 59.5 59.85 59.5 73.85" fill="#cbff97" fill-rule="evenodd" stroke="none"/>
      <path d="M74.5 15.0 L74.5 29.5 60.0 29.5 60.0 15.0 74.5 15.0" fill="#a2886f" fill-rule="evenodd" stroke="none"/>
      <path d="M29.5 0.15 L29.5 14.5 15.1 14.5 15.1 0.15 15.0 0.15 15.0 0.0 29.45 0.0 29.45 0.15 29.5 0.15" fill="#fbe6c8" fill-rule="evenodd" stroke="none"/>
      <path d="M29.5 15.15 L29.45 15.15 29.5 15.15 M15.1 15.0 L15.1 15.15 15.0 15.15 15.0 15.0 15.1 15.0 M15.0 30.0 L29.55 30.0 29.55 30.15 29.6 30.15 29.6 44.5 15.2 44.5 15.2 44.0 15.1 44.0 15.1 30.15 15.0 30.15 15.0 30.0 M15.0 45.15 L15.0 45.0 29.45 45.0 29.45 45.15 29.5 45.15 29.5 59.0 15.1 59.0 15.1 45.15 15.0 45.15 M29.45 60.0 L29.5 60.0 29.5 73.85 15.1 73.85 15.1 60.0 15.0 60.0 15.0 59.85 29.45 59.85 29.45 60.0" fill="#ffcc79" fill-rule="evenodd" stroke="none"/>
      <path d="M14.4 0.15 L14.5 0.15 14.5 14.5 0.1 14.5 0.1 14.4 0.0 14.4 0.0 0.0 14.4 0.0 14.4 0.15" fill="#f8d198" fill-rule="evenodd" stroke="none"/>
      <path d="M14.4 15.15 L14.5 15.15 14.5 29.5 0.1 29.5 0.1 29.4 0.0 29.4 0.0 15.0 14.4 15.0 14.4 15.15 M14.5 30.15 L14.6 30.15 14.6 44.5 0.1 44.5 0.1 44.4 0.0 44.4 0.0 30.0 14.5 30.0 14.5 30.15 M14.4 45.15 L14.5 45.15 14.5 59.0 0.0 59.0 0.0 45.0 14.4 45.0 14.4 45.15 M14.5 60.0 L14.5 73.85 0.0 73.85 0.0 59.85 14.4 59.85 14.4 60.0 14.5 60.0" fill="#fff2df" fill-rule="evenodd" stroke="none"/>
    </g>
    <g id="text0" transform="matrix(1.0, 0.0, 0.0, 1.0, -0.35, -0.9)">
      <g transform="matrix(1.0, 0.0, 0.0, 1.0, -0.2, 0.0)">
        <use fill="#000000" height="8.2" transform="matrix(0.0078, 0.0, 0.0, 0.0078, 0.0, 8.0)" width="24.25" xlink:href="#font_verdana_C0"/>
        <use fill="#000000" height="8.2" transform="matrix(0.0078, 0.0, 0.0, 0.0078, 5.6, 8.0)" width="24.25" xlink:href="#font_verdana_o0"/>
        <use fill="#000000" height="8.2" transform="matrix(0.0078, 0.0, 0.0, 0.0078, 10.45, 8.0)" width="24.25" xlink:href="#font_verdana_l0"/>
        <use fill="#000000" height="8.2" transform="matrix(0.0078, 0.0, 0.0, 0.0078, 12.6, 8.0)" width="24.25" xlink:href="#font_verdana_00"/>
      </g>
    </g>
    <g id="font_verdana_C0">
      <path d="M675.0 -54.0 L675.0 -170.0 668.0 -170.0 Q613.5 -121.0 551.0 -96.5 488.5 -72.0 417.0 -72.0 365.0 -72.0 318.5 -89.5 271.5 -107.5 236.5 -144.5 203.0 -180.0 182.0 -236.5 160.5 -293.0 160.5 -371.5 160.5 -446.5 180.0 -503.5 199.0 -561.0 233.5 -598.5 269.0 -637.0 314.5 -655.0 359.5 -673.5 416.0 -673.5 485.0 -673.5 545.5 -650.0 606.0 -626.5 667.5 -575.0 L675.0 -575.0 675.0 -692.5 Q602.0 -729.0 542.5 -743.5 482.5 -758.0 422.5 -758.0 340.5 -758.0 273.5 -732.5 206.0 -707.0 158.5 -658.5 109.5 -608.5 83.5 -536.0 57.5 -463.5 57.5 -371.5 57.5 -274.5 84.5 -201.0 111.5 -128.0 159.5 -80.5 208.5 -32.0 275.0 -9.0 341.0 13.5 422.0 13.5 465.0 13.5 501.0 7.0 536.5 0.0 567.0 -9.5 603.0 -21.0 625.5 -31.5 647.5 -42.0 675.0 -54.0" fill-rule="evenodd" stroke="none"/>
    </g>
    <g id="font_verdana_o0">
      <path d="M471.5 -279.0 L471.5 -279.0 Q471.5 -173.0 429.0 -119.0 386.0 -65.5 311.0 -65.5 235.0 -65.5 192.5 -119.5 150.0 -174.0 150.0 -279.0 150.0 -387.5 192.5 -440.0 234.5 -493.0 311.0 -493.0 386.5 -493.0 429.0 -440.0 471.5 -387.5 471.5 -279.0 M568.5 -279.0 L568.5 -279.0 Q568.5 -415.5 498.5 -494.5 428.5 -574.0 311.0 -574.0 192.5 -574.0 123.0 -494.5 53.0 -415.5 53.0 -279.0 53.0 -142.5 123.0 -63.5 192.5 15.5 311.0 15.5 428.5 15.5 498.5 -63.5 568.5 -142.5 568.5 -279.0" fill-rule="evenodd" stroke="none"/>
    </g>
    <g id="font_verdana_l0">
      <path d="M187.5 0.0 L187.5 -778.0 93.5 -778.0 93.5 0.0 187.5 0.0" fill-rule="evenodd" stroke="none"/>
    </g>
    <g id="font_verdana_00">
      <path d="M452.0 -145.5 L452.0 -145.5 Q435.0 -106.0 404.0 -86.5 373.0 -67.0 326.0 -67.0 276.0 -67.0 246.0 -87.5 215.5 -108.0 199.0 -147.0 181.0 -188.5 175.5 -241.0 170.0 -293.5 170.0 -371.5 170.0 -442.5 176.5 -502.0 182.5 -561.5 199.5 -598.5 217.5 -638.0 248.5 -657.5 279.0 -677.0 326.0 -677.0 373.5 -677.0 404.0 -657.5 434.0 -638.0 451.5 -599.5 469.5 -560.5 476.0 -504.5 482.0 -448.5 482.0 -372.5 482.0 -295.5 476.0 -240.5 469.5 -186.0 452.0 -145.5 M583.5 -372.5 L583.5 -372.5 Q583.5 -567.0 522.0 -663.0 460.0 -759.5 326.0 -759.5 193.5 -759.5 131.0 -664.5 68.5 -570.0 68.5 -371.5 68.5 -174.5 130.5 -79.5 192.0 15.5 326.0 15.5 458.0 15.5 521.0 -78.0 583.5 -172.0 583.5 -372.5" fill-rule="evenodd" stroke="none"/>
    </g>
    <g id="text1" transform="matrix(1.0, 0.0, 0.0, 1.0, -0.35, -0.9)">
      <g transform="matrix(1.0, 0.0, 0.0, 1.0, -0.2, 0.0)">
        <use fill="#000000" height="8.2" transform="matrix(0.0078, 0.0, 0.0, 0.0078, 0.0, 8.0)" width="24.25" xlink:href="#font_verdana_C0"/>
        <use fill="#000000" height="8.2" transform="matrix(0.0078, 0.0, 0.0, 0.0078, 5.6, 8.0)" width="24.25" xlink:href="#font_verdana_o0"/>
        <use fill="#000000" height="8.2" transform="matrix(0.0078, 0.0, 0.0, 0.0078, 10.45, 8.0)" width="24.25" xlink:href="#font_verdana_l0"/>
        <use fill="#000000" height="8.2" transform="matrix(0.0078, 0.0, 0.0, 0.0078, 12.6, 8.0)" width="24.25" xlink:href="#font_verdana_10"/>
      </g>
    </g>
    <g id="font_verdana_10">
      <path d="M542.0 0.0 L542.0 -76.0 390.0 -76.0 390.0 -747.0 312.5 -747.0 Q310.5 -714.5 297.5 -695.0 284.0 -676.0 261.0 -663.5 242.5 -653.5 206.5 -648.0 170.5 -643.0 139.0 -643.0 L139.0 -575.0 294.0 -575.0 294.0 -76.0 139.0 -76.0 139.0 0.0 542.0 0.0" fill-rule="evenodd" stroke="none"/>
    </g>
    <g id="text2" transform="matrix(1.0, 0.0, 0.0, 1.0, -0.35, -0.9)">
      <g transform="matrix(1.0, 0.0, 0.0, 1.0, -0.2, 0.0)">
        <use fill="#000000" height="8.2" transform="matrix(0.0078, 0.0, 0.0, 0.0078, 0.0, 8.0)" width="24.25" xlink:href="#font_verdana_C0"/>
        <use fill="#000000" height="8.2" transform="matrix(0.0078, 0.0, 0.0, 0.0078, 5.6, 8.0)" width="24.25" xlink:href="#font_verdana_o0"/>
        <use fill="#000000" height="8.2" transform="matrix(0.0078, 0.0, 0.0, 0.0078, 10.45, 8.0)" width="24.25" xlink:href="#font_verdana_l0"/>
        <use fill="#000000" height="8.2" transform="matrix(0.0078, 0.0, 0.0, 0.0078, 12.6, 8.0)" width="24.25" xlink:href="#font_verdana_20"/>
      </g>
    </g>
    <g id="font_verdana_20">
      <path d="M584.5 0.0 L584.5 -85.5 184.0 -85.5 Q233.5 -127.5 290.5 -176.5 347.5 -226.0 401.0 -278.5 438.5 -315.0 465.0 -345.0 491.0 -375.0 510.5 -406.0 531.5 -439.0 542.5 -475.5 553.0 -512.5 553.0 -555.0 553.0 -649.5 488.0 -704.5 423.0 -760.0 308.5 -760.0 253.0 -760.0 194.0 -745.5 134.5 -731.0 99.0 -713.5 L99.0 -608.5 104.0 -608.5 Q154.5 -641.5 207.5 -657.5 260.5 -673.5 306.0 -673.5 374.5 -673.5 413.0 -640.5 451.0 -608.0 451.0 -550.0 451.0 -486.5 415.5 -431.5 380.0 -377.0 284.0 -284.0 238.5 -239.5 186.0 -194.5 133.0 -149.5 80.5 -104.5 L80.5 0.0 584.5 0.0" fill-rule="evenodd" stroke="none"/>
    </g>
    <g id="text3" transform="matrix(1.0, 0.0, 0.0, 1.0, -0.35, -0.9)">
      <g transform="matrix(1.0, 0.0, 0.0, 1.0, -0.2, 0.0)">
        <use fill="#000000" height="8.2" transform="matrix(0.0078, 0.0, 0.0, 0.0078, 0.0, 8.0)" width="24.25" xlink:href="#font_verdana_C0"/>
        <use fill="#000000" height="8.2" transform="matrix(0.0078, 0.0, 0.0, 0.0078, 5.6, 8.0)" width="24.25" xlink:href="#font_verdana_o0"/>
        <use fill="#000000" height="8.2" transform="matrix(0.0078, 0.0, 0.0, 0.0078, 10.45, 8.0)" width="24.25" xlink:href="#font_verdana_l0"/>
        <use fill="#000000" height="8.2" transform="matrix(0.0078, 0.0, 0.0, 0.0078, 12.6, 8.0)" width="24.25" xlink:href="#font_verdana_30"/>
      </g>
    </g>
    <g id="font_verdana_30">
      <path d="M519.0 -358.5 L519.0 -358.5 Q497.5 -377.5 466.5 -390.0 435.5 -403.0 411.5 -407.0 L411.5 -414.0 Q471.0 -426.0 515.0 -472.0 558.5 -518.5 558.5 -580.5 558.5 -626.0 540.0 -660.0 521.5 -694.0 485.5 -718.0 452.0 -740.0 410.5 -750.0 369.0 -760.0 314.5 -760.0 259.0 -760.0 200.0 -745.0 140.5 -730.5 105.0 -713.0 L105.0 -608.5 110.0 -608.5 Q157.5 -639.5 211.0 -656.5 264.5 -673.5 312.0 -673.5 343.0 -673.5 367.5 -668.5 392.0 -663.5 413.5 -650.5 434.0 -637.5 445.5 -617.0 457.0 -597.0 457.0 -570.0 457.0 -509.0 412.0 -477.0 366.5 -445.5 290.5 -445.5 L255.5 -445.5 255.5 -362.5 300.5 -362.5 Q337.5 -362.5 369.5 -356.5 401.5 -351.0 424.0 -335.5 446.5 -320.5 459.5 -294.0 472.0 -268.0 472.0 -228.0 472.0 -187.5 461.0 -161.0 449.5 -134.5 426.5 -112.5 404.5 -92.0 369.0 -81.5 333.5 -71.0 302.0 -71.0 248.5 -71.0 191.0 -89.5 133.5 -108.0 91.0 -136.0 L83.5 -136.0 83.5 -31.5 Q122.0 -14.0 182.0 1.0 242.0 15.5 304.0 15.5 364.5 15.5 415.5 -1.0 466.0 -18.0 503.5 -53.0 537.0 -84.5 555.5 -127.0 574.0 -169.5 574.0 -220.5 574.0 -272.0 558.5 -304.5 543.0 -337.0 519.0 -358.5" fill-rule="evenodd" stroke="none"/>
    </g>
    <g id="text4" transform="matrix(1.0, 0.0, 0.0, 1.0, -0.35, -0.9)">
      <g transform="matrix(1.0, 0.0, 0.0, 1.0, -0.2, 0.0)">
        <use fill="#000000" height="8.2" transform="matrix(0.0078, 0.0, 0.0, 0.0078, 0.0, 8.0)" width="24.25" xlink:href="#font_verdana_C0"/>
        <use fill="#000000" height="8.2" transform="matrix(0.0078, 0.0, 0.0, 0.0078, 5.6, 8.0)" width="24.25" xlink:href="#font_verdana_o0"/>
        <use fill="#000000" height="8.2" transform="matrix(0.0078, 0.0, 0.0, 0.0078, 10.45, 8.0)" width="24.25" xlink:href="#font_verdana_l0"/>
        <use fill="#000000" height="8.2" transform="matrix(0.0078, 0.0, 0.0, 0.0078, 12.6, 8.0)" width="24.25" xlink:href="#font_verdana_40"/>
      </g>
    </g>
    <g id="font_verdana_40">
      <path d="M395.0 -289.5 L106.5 -289.5 395.0 -625.5 395.0 -289.5 M601.5 -209.5 L601.5 -289.5 491.0 -289.5 491.0 -744.5 399.0 -744.5 38.5 -324.5 38.5 -209.5 395.0 -209.5 395.0 0.0 491.0 0.0 491.0 -209.5 601.5 -209.5" fill-rule="evenodd" stroke="none"/>
    </g>
  </defs>
</svg>
