<?xml version="1.0" encoding="UTF-8" standalone="no"?>
<svg xmlns:xlink="http://www.w3.org/1999/xlink" height="2.9px" width="2.8px" xmlns="http://www.w3.org/2000/svg">
  <g transform="matrix(1.0, 0.0, 0.0, 1.0, 1.4, 1.45)">
    <use height="2.9" transform="matrix(1.0, 0.0, 0.0, 1.0, -1.4, -1.45)" width="2.8" xlink:href="#shape0"/>
  </g>
  <defs>
    <g id="shape0" transform="matrix(1.0, 0.0, 0.0, 1.0, 1.4, 1.45)">
      <path d="M-1.4 0.75 L-1.4 -1.45 0.8 -1.45 0.8 0.7 0.8 0.75 -1.4 0.75" fill="#ffffcc" fill-rule="evenodd" stroke="none"/>
      <path d="M0.8 -1.45 L1.4 -0.75 1.4 1.45 -0.8 1.45 -1.4 0.75 0.8 0.75 0.8 0.7 0.8 -1.45 M1.4 1.45 L0.8 0.7 1.4 1.45" fill="#d0bb8c" fill-rule="evenodd" stroke="none"/>
      <path d="M0.8 -1.45 L1.4 -0.75 1.4 1.45 -0.8 1.45 -1.4 0.75 -1.4 -1.45 0.8 -1.45 0.8 0.7 1.4 1.45 M0.8 0.7 L0.8 0.75 -1.4 0.75" fill="none" stroke="#000000" stroke-linecap="round" stroke-linejoin="round" stroke-opacity="0.2" stroke-width="0.05"/>
    </g>
  </defs>
</svg>
