<?xml version="1.0" encoding="UTF-8" standalone="no"?>
<svg xmlns:xlink="http://www.w3.org/1999/xlink" height="38.65px" width="26.05px" xmlns="http://www.w3.org/2000/svg">
  <g transform="matrix(1.0, 0.0, 0.0, 1.0, 0.95, 0.0)">
    <use height="22.3" id="_col4b" transform="matrix(1.0, 0.0, 0.0, 1.0, -0.95, 16.35)" width="25.95" xlink:href="#sprite0"/>
    <use height="38.4" id="_col3" transform="matrix(1.0, 0.0, 0.0, 1.0, 0.0, 0.0)" width="25.1" xlink:href="#sprite1"/>
    <use height="21.65" id="_col4a" transform="matrix(1.0, 0.0, 0.0, 1.0, 2.85, 16.8)" width="17.4" xlink:href="#sprite2"/>
  </g>
  <defs>
    <g id="sprite0" transform="matrix(1.0, 0.0, 0.0, 1.0, 0.0, 0.0)">
      <use height="22.3" transform="matrix(1.0, 0.0, 0.0, 1.0, 0.0, 0.0)" width="25.95" xlink:href="#shape0"/>
    </g>
    <g id="shape0" transform="matrix(1.0, 0.0, 0.0, 1.0, 0.0, 0.0)">
      <path d="M25.6 6.7 L25.55 6.05 25.6 6.7 Q26.1 9.75 25.9 12.9 25.8 15.2 24.65 17.15 22.95 19.9 20.55 20.95 18.1 21.95 15.05 22.2 L7.85 21.9 Q3.65 21.25 0.0 17.7 0.05 13.15 0.8 8.65 1.45 4.4 4.15 1.15 L4.35 0.55 6.8 0.25 8.0 0.0 10.3 0.15 Q13.9 0.15 20.05 3.0 24.8 5.2 25.55 6.05 L25.7 6.35 25.6 6.7" fill="#d6baba" fill-rule="evenodd" stroke="none"/>
      <path d="M25.55 6.05 L25.6 6.7 M4.35 0.55 L4.15 1.15 Q1.45 4.4 0.8 8.65 0.05 13.15 0.0 17.7 3.65 21.25 7.85 21.9 L15.05 22.2 Q18.1 21.95 20.55 20.95 22.95 19.9 24.65 17.15 25.8 15.2 25.9 12.9 26.1 9.75 25.6 6.7" fill="none" stroke="#000000" stroke-linecap="round" stroke-linejoin="round" stroke-opacity="0.3019608" stroke-width="0.05"/>
    </g>
    <g id="sprite1" transform="matrix(1.0, 0.0, 0.0, 1.0, 0.0, 0.0)">
      <use height="38.4" transform="matrix(1.0, 0.0, 0.0, 1.0, 0.0, 0.0)" width="25.1" xlink:href="#shape1"/>
    </g>
    <g id="shape1" transform="matrix(1.0, 0.0, 0.0, 1.0, 0.0, 0.0)">
      <path d="M11.05 0.1 L16.05 0.55 Q21.45 2.0 22.05 8.45 22.65 14.85 24.35 20.05 26.1 25.25 23.7 29.9 21.3 34.5 17.45 36.3 13.45 38.05 11.05 38.4 9.7 38.1 5.2 36.2 0.7 34.25 0.05 30.5 1.5 32.6 3.7 33.7 5.7 34.7 7.85 34.7 L8.5 34.5 9.65 34.3 Q10.7 34.3 11.0 33.6 L11.2 31.45 10.75 28.1 11.45 23.65 Q12.1 19.55 12.05 14.75 L11.65 9.85 11.05 0.1" fill="#d6baba" fill-rule="evenodd" stroke="none"/>
      <path d="M11.05 0.1 L11.65 9.85 12.05 14.75 Q12.1 19.55 11.45 23.65 L10.75 28.1 11.2 31.45 11.0 33.6 Q10.7 34.3 9.65 34.3 L8.5 34.5 7.85 34.7 Q5.7 34.7 3.7 33.7 1.5 32.6 0.05 30.5 L0.0 28.8 Q0.05 23.6 1.1 21.4 L2.65 18.05 3.85 14.65 Q4.85 11.15 4.85 7.55 4.8 3.9 7.75 1.5 9.15 0.35 11.05 0.1" fill="#ffffff" fill-rule="evenodd" stroke="none"/>
      <path d="M0.05 30.5 Q0.7 34.25 5.2 36.2 9.7 38.1 11.05 38.4 13.45 38.05 17.45 36.3 21.3 34.5 23.7 29.9 26.1 25.25 24.35 20.05 22.65 14.85 22.05 8.45 21.45 2.0 16.05 0.55 L11.05 0.1 M0.05 30.5 L0.0 28.8 Q0.05 23.6 1.1 21.4 L2.65 18.05 3.85 14.65 Q4.85 11.15 4.85 7.55 4.8 3.9 7.75 1.5 9.15 0.35 11.05 0.1" fill="none" stroke="#000000" stroke-linecap="round" stroke-linejoin="round" stroke-opacity="0.3019608" stroke-width="0.05"/>
    </g>
    <g id="sprite2" transform="matrix(1.0, 0.0, 0.0, 1.0, 0.0, 0.0)">
      <use height="21.65" transform="matrix(1.0, 0.0, 0.0, 1.0, 0.0, 0.0)" width="17.4" xlink:href="#shape2"/>
    </g>
    <g id="shape2" transform="matrix(1.0, 0.0, 0.0, 1.0, 0.0, 0.0)">
      <path d="M17.1 3.95 Q17.5 4.4 17.35 5.0 16.65 8.0 13.5 9.45 L14.3 8.6 Q15.0 7.75 15.1 6.75 15.3 4.6 13.35 3.05 13.5 1.15 15.05 0.0 L15.15 0.6 15.15 1.2 17.1 3.95 M10.25 14.95 L13.45 14.75 15.55 18.8 16.35 19.1 16.5 19.2 Q9.85 22.7 6.15 21.25 2.4 19.8 1.1 19.65 L0.9 18.95 1.7 18.1 Q3.05 16.65 3.75 16.65 L4.45 16.5 7.0 16.4 Q10.25 16.4 10.25 15.25 L10.25 14.95" fill="#d6baba" fill-rule="evenodd" stroke="none"/>
      <path d="M1.4 3.65 Q3.0 1.95 3.85 0.0 L5.3 2.2 Q5.35 3.5 4.4 4.4 L2.25 6.3 2.25 6.8 2.35 7.25 Q2.9 8.2 3.9 8.6 L2.3 8.05 Q0.35 7.25 0.0 5.3 L1.4 3.65 M0.75 18.4 L3.55 14.8 8.2 15.05 10.25 14.95 10.25 15.25 Q10.25 16.4 7.0 16.4 L4.45 16.5 3.75 16.65 Q3.05 16.65 1.7 18.1 L0.9 18.95 0.75 18.4" fill="#ffffff" fill-rule="evenodd" stroke="none"/>
      <path d="M17.1 3.95 L15.15 1.2 15.15 0.6 15.05 0.0 Q13.5 1.15 13.35 3.05 15.3 4.6 15.1 6.75 15.0 7.75 14.3 8.6 L13.5 9.45 Q16.65 8.0 17.35 5.0 17.5 4.4 17.1 3.95 M1.4 3.65 L0.0 5.3 Q0.35 7.25 2.3 8.05 L3.9 8.6 Q2.9 8.2 2.35 7.25 L2.25 6.8 2.25 6.3 4.4 4.4 Q5.35 3.5 5.3 2.2 L3.85 0.0 Q3.0 1.95 1.4 3.65 M0.75 18.4 L3.55 14.8 8.2 15.05 10.25 14.95 13.45 14.75 15.55 18.8" fill="none" stroke="#000000" stroke-linecap="round" stroke-linejoin="round" stroke-opacity="0.3019608" stroke-width="0.05"/>
    </g>
  </defs>
</svg>
