<?xml version="1.0" encoding="UTF-8" standalone="no"?>
<svg xmlns:xlink="http://www.w3.org/1999/xlink" height="79.75px" width="89.4px" xmlns="http://www.w3.org/2000/svg">
  <g transform="matrix(1.0, 0.0, 0.0, 1.0, 34.75, 43.1)">
    <use height="79.75" transform="matrix(1.0, 0.0, 0.0, 1.0, -34.75, -43.1)" width="89.4" xlink:href="#shape0"/>
  </g>
  <defs>
    <g id="shape0" transform="matrix(1.0, 0.0, 0.0, 1.0, 34.75, 43.1)">
      <path d="M-32.35 -11.65 L-33.5 -13.95 -34.0 -15.95 Q-34.0 -20.15 -30.6 -23.15 -28.4 -25.1 -26.35 -25.6 L-26.1 -27.05 Q-25.65 -28.5 -24.95 -31.55 -23.4 -35.15 -19.45 -35.55 -18.6 -35.6 -17.3 -35.05 -15.9 -34.45 -15.05 -33.55 -14.55 -36.9 -10.6 -39.2 -7.05 -41.3 -2.15 -41.75 L4.1 -41.25 5.85 -39.95 6.45 -39.4 6.85 -38.9 Q11.1 -42.05 14.5 -42.85 18.9 -43.75 22.05 -41.55 L26.35 -38.1 Q27.25 -35.65 27.25 -33.0 27.25 -30.3 26.0 -28.8 24.95 -27.5 23.45 -27.45 L23.25 -27.25 Q25.75 -25.3 26.65 -24.25 28.6 -21.95 28.6 -19.2 28.6 -14.8 24.9 -13.5 L20.45 -13.1 Q20.7 -11.1 19.3 -9.4 17.6 -7.4 14.5 -7.35 L14.35 -7.35 12.5 -7.4 Q11.65 -7.55 11.35 -8.15 10.9 -6.2 9.5 -4.7 7.45 -2.4 4.15 -2.4 3.9 -2.4 3.7 -2.6 L3.25 -2.8 1.55 -2.0 1.2 -1.85 0.75 -2.05 Q-6.0 -4.3 -18.0 -4.3 L-20.45 -4.15 Q-20.5 -4.9 -21.15 -5.4 -21.95 -6.05 -22.75 -4.7 L-23.2 -3.55 Q-23.5 -3.05 -23.95 -2.95 L-24.05 -2.9 -23.3 -4.7 Q-23.3 -6.0 -24.6 -5.65 -25.85 -5.3 -26.35 -3.95 L-26.9 -2.6 -27.2 -2.05 -28.05 -0.3 -28.95 3.85 -29.45 6.95 -29.35 7.75 -31.05 6.25 Q-34.75 2.5 -34.75 -3.35 -34.75 -8.5 -32.35 -11.65 L-30.7 -13.45 -32.35 -11.65 M-25.9 4.1 Q-26.1 4.95 -26.55 5.0 L-26.55 4.9 -26.25 2.95 -25.8 3.35 -25.85 4.0 -25.9 4.1" fill="#ffffff" fill-rule="evenodd" stroke="none"/>
      <path d="M26.35 -38.1 Q28.0 -36.55 28.2 -35.6 L29.25 -35.65 Q33.35 -35.8 36.75 -34.35 41.75 -32.15 42.15 -27.05 42.45 -23.6 40.5 -21.8 55.25 -16.7 51.5 -4.5 51.25 -3.7 50.65 -3.1 L49.5 -2.3 Q60.25 6.35 48.65 13.1 L49.15 13.65 49.65 14.4 50.25 15.8 50.4 16.45 50.5 17.2 Q50.95 22.4 46.55 24.55 43.4 26.05 41.2 25.6 41.0 29.15 39.85 31.1 37.75 34.5 32.45 34.95 L30.1 34.7 29.55 33.85 29.25 33.9 Q29.65 34.95 28.5 35.75 27.45 36.45 25.65 36.6 L19.25 36.0 15.85 34.95 14.7 34.35 15.85 34.95 15.8 34.95 Q15.0 34.95 14.7 34.35 L14.6 34.15 14.55 33.25 Q14.55 31.8 17.2 28.2 19.85 24.65 19.85 22.1 19.85 20.1 14.95 14.45 L14.45 13.85 9.85 7.85 Q7.6 3.45 5.65 0.7 4.55 -0.7 1.2 -1.85 L1.55 -2.0 3.25 -2.8 3.7 -2.6 Q3.9 -2.4 4.15 -2.4 7.45 -2.4 9.5 -4.7 10.9 -6.2 11.35 -8.15 11.65 -7.55 12.5 -7.4 L14.35 -7.35 14.5 -7.35 Q17.6 -7.4 19.3 -9.4 20.7 -11.1 20.45 -13.1 L24.9 -13.5 Q28.6 -14.8 28.6 -19.2 28.6 -21.95 26.65 -24.25 25.75 -25.3 23.25 -27.25 L23.45 -27.45 Q24.95 -27.5 26.0 -28.8 27.25 -30.3 27.25 -33.0 27.25 -35.65 26.35 -38.1" fill="#d6baba" fill-rule="evenodd" stroke="none"/>
      <path d="M26.35 -38.1 L22.05 -41.55 Q18.9 -43.75 14.5 -42.85 11.1 -42.05 6.85 -38.9 L6.45 -39.4 5.85 -39.95 4.1 -41.25 -2.15 -41.75 Q-7.05 -41.3 -10.6 -39.2 -14.55 -36.9 -15.05 -33.55 -15.9 -34.45 -17.3 -35.05 -18.6 -35.6 -19.45 -35.55 -23.4 -35.15 -24.95 -31.55 -25.65 -28.5 -26.1 -27.05 L-26.35 -25.6 Q-28.4 -25.1 -30.6 -23.15 -34.0 -20.15 -34.0 -15.95 L-33.5 -13.95 -32.35 -11.65 -30.7 -13.45 M15.85 34.95 L19.25 36.0 25.65 36.6 Q27.45 36.45 28.5 35.75 29.65 34.95 29.25 33.9 L29.55 33.85 30.1 34.7 32.45 34.95 Q37.75 34.5 39.85 31.1 41.0 29.15 41.2 25.6 43.4 26.05 46.55 24.55 50.95 22.4 50.5 17.2 L50.4 16.45 50.25 15.8 49.65 14.4 49.15 13.65 48.65 13.1 Q60.25 6.35 49.5 -2.3 L50.65 -3.1 Q51.25 -3.7 51.5 -4.5 55.25 -16.7 40.5 -21.8 42.45 -23.6 42.15 -27.05 41.75 -32.15 36.75 -34.35 33.35 -35.8 29.25 -35.65 L28.2 -35.6 Q28.0 -36.55 26.35 -38.1 M14.7 34.35 L15.85 34.95 M-26.9 -2.6 L-27.2 -2.05 -28.05 -0.3 -28.95 3.85 -29.45 6.95 -29.35 7.75 -31.05 6.25 Q-34.75 2.5 -34.75 -3.35 -34.75 -8.5 -32.35 -11.65" fill="none" stroke="#000000" stroke-linecap="round" stroke-linejoin="round" stroke-opacity="0.3019608" stroke-width="0.05"/>
      <path d="M30.15 -32.1 L31.4 -32.1 Q32.5 -31.55 32.9 -29.7 M17.75 -25.25 L18.45 -25.4 19.6 -25.15 20.4 -24.75 M3.95 -34.7 Q5.45 -35.55 6.9 -35.55 9.45 -35.35 10.8 -34.55 M0.75 -29.3 L2.1 -29.85 M34.7 -23.85 L35.0 -23.9 37.75 -22.6 Q40.3 -20.45 39.45 -16.25 M34.2 -9.75 Q34.75 -9.65 35.35 -8.65 36.0 -7.6 36.3 -6.0 M46.65 -8.7 L48.0 -6.3 Q48.9 -4.7 48.9 -2.7 48.9 -0.2 47.1 1.1 M47.25 6.5 Q48.3 7.2 48.3 10.35 47.95 12.1 47.1 13.25 M42.35 14.9 L42.7 15.05 42.75 16.65 Q42.75 18.7 41.95 20.05 40.7 22.15 37.05 24.05 M32.1 28.05 Q31.55 28.65 29.8 29.3 L27.3 29.9 M38.25 8.55 Q38.25 10.15 37.65 11.25 M-14.9 -30.05 L-11.9 -32.3 Q-9.8 -33.45 -8.3 -33.45 L-6.4 -33.3 -6.0 -33.0 M-24.6 -21.45 L-23.95 -23.0 -22.05 -24.9 M-26.7 -8.25 L-27.15 -8.85 -27.45 -10.1 Q-26.85 -13.65 -24.3 -15.5 M-16.8 -18.9 L-17.15 -19.7 -17.05 -20.55 Q-16.7 -21.4 -15.45 -21.9" fill="none" stroke="#000000" stroke-linecap="round" stroke-linejoin="round" stroke-opacity="0.15294118" stroke-width="0.05"/>
    </g>
  </defs>
</svg>
