<?xml version="1.0" encoding="UTF-8" standalone="no"?>
<svg xmlns:xlink="http://www.w3.org/1999/xlink" height="32.9px" width="32.45px" xmlns="http://www.w3.org/2000/svg">
  <g transform="matrix(1.0, 0.0, 0.0, 1.0, 16.3, 16.85)">
    <use height="32.9" transform="matrix(1.0, 0.0, 0.0, 1.0, -16.3, -16.85)" width="32.45" xlink:href="#shape0"/>
  </g>
  <defs>
    <g id="shape0" transform="matrix(1.0, 0.0, 0.0, 1.0, 16.3, 16.85)">
      <path d="M2.55 -15.9 L1.55 -14.15 1.2 -13.2 0.9 -12.15 1.2 -13.2 1.55 -14.15 2.55 -15.9 3.9 -15.95 7.1 -15.55 7.5 -15.5 9.9 -14.5 6.65 -6.4 9.9 -14.5 Q11.95 -13.3 13.5 -11.25 L14.45 -9.8 Q16.85 -5.55 15.85 0.05 14.65 6.7 9.5 11.4 L7.75 12.85 Q3.55 15.9 -1.25 16.05 L-1.3 16.05 -1.7 16.05 Q-4.85 16.05 -7.3 14.8 L-9.35 13.4 -11.25 11.3 Q-14.75 6.6 -13.6 0.0 -12.45 -6.6 -7.3 -11.3 -2.75 -15.45 2.55 -15.9 M-5.95 4.0 L-9.35 13.4 -5.95 4.0 -5.05 5.65 Q-3.3 8.0 -0.3 8.0 L1.35 7.9 1.5 7.85 Q3.55 7.3 5.3 5.65 7.9 3.3 8.5 0.05 L8.6 -1.6 Q8.55 -3.85 7.3 -5.6 L6.65 -6.4 Q5.0 -8.0 2.5 -8.0 L1.2 -7.85 Q-0.1 -7.6 -1.3 -6.95 L-3.1 -5.65 Q-5.65 -3.3 -6.2 0.0 L-6.4 1.8 -5.95 4.0 M-0.3 -9.2 L-1.3 -6.95 -0.3 -9.2 -0.25 -9.25 Q0.4 -9.5 0.85 -10.05 L1.1 -10.55 Q1.5 -11.75 1.05 -12.05 L0.9 -12.15 -0.6 -12.25 Q-2.05 -12.05 -2.75 -11.05 -2.95 -10.8 -2.75 -10.25 -2.6 -9.7 -2.05 -9.35 L-0.3 -9.2 M9.85 -6.5 L9.85 -6.15 Q9.95 -5.35 10.3 -5.1 L11.9 -5.2 Q13.15 -5.6 13.45 -6.0 13.75 -6.4 13.4 -7.4 L12.8 -8.55 11.65 -8.6 Q10.65 -8.45 10.05 -7.55 9.8 -7.15 9.85 -6.6 L9.8 -6.5 9.85 -6.5 M1.05 -2.85 L2.25 -2.8 2.9 -2.55 3.65 -0.95 Q3.95 1.15 1.75 2.15 L1.1 2.4 Q-0.9 2.8 -1.3 0.6 L-1.3 0.15 Q-1.15 -1.8 0.6 -2.7 L1.05 -2.85 M10.3 6.1 L11.3 2.65 Q13.7 -5.45 14.45 -9.8 13.7 -5.45 11.3 2.65 L10.3 6.1 Q9.3 5.15 7.9 5.85 5.25 7.15 7.25 9.3 L8.0 9.05 Q8.9 8.8 9.55 8.2 L10.65 6.9 10.65 6.5 10.3 6.1 M7.75 12.85 Q8.55 11.4 9.55 8.2 8.55 11.4 7.75 12.85 M-8.6 -2.15 Q-10.55 -2.3 -11.85 -0.75 -12.15 0.8 -10.85 1.45 L-10.65 1.45 Q-8.0 0.7 -8.45 -1.9 L-8.6 -2.15 M-6.7 11.1 Q-7.1 12.7 -5.65 12.7 -2.75 12.7 -3.7 9.9 -6.0 8.45 -6.7 11.1 M1.35 7.9 L-1.25 16.05 1.35 7.9" fill="#a77250" fill-rule="evenodd" stroke="none"/>
      <path d="M-5.95 4.0 L-6.4 1.8 -6.2 0.0 Q-5.65 -3.3 -3.1 -5.65 L-1.3 -6.95 Q-0.1 -7.6 1.2 -7.85 L2.5 -8.0 Q5.0 -8.0 6.65 -6.4 L7.3 -5.6 Q8.55 -3.85 8.6 -1.6 L3.65 -0.95 8.6 -1.6 8.5 0.05 Q7.9 3.3 5.3 5.65 3.55 7.3 1.5 7.85 L1.1 2.4 1.5 7.85 1.35 7.9 -0.3 8.0 Q-3.3 8.0 -5.05 5.65 L-5.95 4.0 M-0.3 -9.2 L-2.05 -9.35 Q-2.6 -9.7 -2.75 -10.25 -2.95 -10.8 -2.75 -11.05 -2.05 -12.05 -0.6 -12.25 L0.9 -12.15 1.05 -12.05 Q1.5 -11.75 1.1 -10.55 L0.85 -10.05 Q0.4 -9.5 -0.25 -9.25 L-0.3 -9.2 M9.85 -6.6 Q9.8 -7.15 10.05 -7.55 10.65 -8.45 11.65 -8.6 L12.8 -8.55 13.4 -7.4 Q13.75 -6.4 13.45 -6.0 13.15 -5.6 11.9 -5.2 L10.3 -5.1 Q9.95 -5.35 9.85 -6.15 L9.85 -6.5 10.85 -5.6 11.45 -6.05 11.9 -6.5 12.3 -6.3 12.7 -6.6 12.95 -7.05 12.75 -7.65 12.3 -7.85 11.85 -7.65 11.55 -7.1 11.65 -6.8 11.6 -6.8 11.55 -6.75 Q11.45 -7.05 11.0 -7.05 L11.55 -7.7 Q11.8 -8.1 11.1 -8.1 L10.35 -7.45 9.85 -6.6 M3.65 -0.95 L2.9 -2.55 2.25 -2.8 1.05 -2.85 1.2 -7.85 1.05 -2.85 0.6 -2.7 Q-1.15 -1.8 -1.3 0.15 L-1.3 0.6 Q-0.9 2.8 1.1 2.4 L1.75 2.15 Q3.95 1.15 3.65 -0.95 M4.85 -2.8 L5.5 -2.4 5.95 -2.05 Q6.3 -2.05 6.8 -2.65 7.3 -3.25 7.3 -3.6 7.3 -4.6 5.75 -5.1 L4.05 -5.4 3.6 -5.2 3.45 -4.75 Q3.45 -4.1 3.9 -3.4 L4.85 -2.8 M10.3 6.1 L10.65 6.5 10.65 6.9 9.55 8.2 Q8.9 8.8 8.0 9.05 L7.25 9.3 Q5.25 7.15 7.9 5.85 9.3 5.15 10.3 6.1 M3.95 1.25 Q3.95 1.7 4.3 1.85 4.5 2.05 4.75 2.05 5.3 2.05 5.6 1.3 5.9 0.5 5.05 0.5 L4.3 0.6 Q3.95 0.8 3.95 1.25 M8.45 7.4 L8.3 7.05 8.35 6.8 Q8.3 6.6 8.0 6.6 7.65 6.6 7.25 7.0 6.8 7.4 6.8 7.85 6.8 8.3 7.35 8.4 L8.1 8.25 8.55 7.7 8.45 7.4 M9.5 7.3 L9.7 7.3 Q10.15 7.3 10.15 6.75 10.1 6.2 9.65 6.2 9.15 6.2 9.15 6.85 9.15 7.2 9.5 7.3 M-2.2 -11.55 Q-2.85 -11.05 -2.05 -10.55 L-1.65 -9.7 -0.85 -10.85 Q-0.25 -11.95 -1.15 -11.95 L-2.2 -11.55 M-10.3 -1.8 Q-10.6 -1.8 -11.1 -1.4 L-11.6 -0.65 -11.4 -0.15 -11.2 0.45 -11.2 0.75 -10.75 0.85 -10.1 0.5 Q-9.95 0.3 -9.95 -0.25 L-10.25 -0.6 -10.55 -0.6 -10.6 -0.65 -9.95 -1.35 Q-9.65 -1.8 -10.3 -1.8 M-8.6 -2.15 L-8.45 -1.9 Q-8.0 0.7 -10.65 1.45 L-10.85 1.45 Q-12.15 0.8 -11.85 -0.75 -10.55 -2.3 -8.6 -2.15 M-0.4 -10.4 L0.0 -10.35 Q0.45 -10.35 0.45 -10.85 0.45 -11.35 0.05 -11.35 -0.4 -11.35 -0.4 -10.85 L-0.4 -10.4 M-5.7 -0.7 L-5.25 -0.2 -5.3 -0.05 -5.35 0.2 -5.25 0.5 -5.05 0.7 -4.2 -0.2 -3.6 -1.25 -3.6 -1.3 -3.1 -0.85 -2.8 -0.95 -2.65 -1.05 -2.45 -0.9 -2.25 -0.3 -1.95 -0.25 -0.75 -2.95 -0.85 -3.05 Q-0.95 -2.95 -1.25 -2.8 L-1.75 -2.45 -1.95 -2.85 -2.15 -2.95 -2.45 -2.7 -2.75 -2.2 -2.75 -2.15 -2.85 -2.3 -2.7 -2.65 Q-2.5 -2.85 -2.5 -3.3 -1.85 -4.0 -1.85 -4.45 L-2.15 -4.75 Q-1.75 -5.25 -1.8 -5.6 L-1.75 -5.6 -1.9 -5.65 Q-2.25 -5.65 -4.0 -3.5 -5.7 -1.3 -5.7 -0.7 M-6.4 1.8 L-1.3 0.15 -6.4 1.8 M-2.05 2.3 L-2.6 3.05 -3.3 3.3 Q-3.7 3.45 -3.65 4.15 L-4.3 3.9 -4.6 4.15 -4.7 4.55 Q-4.7 5.4 -4.1 6.05 L-3.4 6.5 Q-3.05 6.5 -3.05 6.1 L-3.5 5.3 -2.85 5.15 -2.9 4.55 -2.55 4.1 -2.1 3.9 Q-1.9 3.9 -1.8 3.5 -1.7 3.15 -1.85 2.95 L-1.8 2.85 -1.75 3.0 -1.55 3.0 Q-1.2 3.0 -1.2 2.35 -1.15 1.6 -1.65 1.6 L-2.05 2.3 M-6.1 10.4 L-6.4 11.35 -6.15 11.85 -5.7 12.2 -5.1 11.9 -4.65 11.45 Q-4.65 11.1 -5.2 11.05 L-5.25 10.9 -5.1 10.4 Q-5.1 9.95 -5.55 9.95 L-6.1 10.4 M-6.7 11.1 Q-6.0 8.45 -3.7 9.9 -2.75 12.7 -5.65 12.7 -7.1 12.7 -6.7 11.1" fill="#f7c500" fill-rule="evenodd" stroke="none"/>
      <path d="M2.55 -15.9 Q-2.75 -15.45 -7.3 -11.3 -12.45 -6.6 -13.6 0.0 -14.75 6.6 -11.25 11.3 L-9.35 13.4 -7.3 14.8 Q-9.8 14.15 -11.8 12.5 L-13.7 10.4 Q-17.2 5.7 -16.0 -0.95 -14.9 -7.5 -9.75 -12.2 -5.15 -16.35 0.1 -16.75 L1.5 -16.85 Q4.65 -16.85 7.1 -15.55 L3.9 -15.95 2.55 -15.9 M9.85 -6.5 L9.8 -6.5 9.85 -6.6 10.35 -7.45 11.1 -8.1 Q11.8 -8.1 11.55 -7.7 L11.0 -7.05 Q11.45 -7.05 11.55 -6.75 L11.6 -6.8 11.65 -6.8 11.85 -6.6 11.9 -6.5 11.45 -6.05 10.85 -5.6 9.85 -6.5 9.85 -6.6 9.85 -6.5 M8.45 7.4 L8.55 7.7 8.1 8.25 7.35 8.4 Q6.8 8.3 6.8 7.85 6.8 7.4 7.25 7.0 7.65 6.6 8.0 6.6 8.3 6.6 8.35 6.8 L8.3 7.05 8.45 7.4 M-10.3 -1.8 Q-9.65 -1.8 -9.95 -1.35 L-10.6 -0.65 -10.55 -0.6 -10.25 -0.6 -9.95 -0.25 Q-9.95 0.3 -10.1 0.5 L-10.75 0.85 -11.2 0.75 -11.2 0.45 -11.4 -0.15 -11.6 -0.65 -11.1 -1.4 Q-10.6 -1.8 -10.3 -1.8 M-2.2 -11.55 L-1.15 -11.95 Q-0.25 -11.95 -0.85 -10.85 L-1.65 -9.7 -2.05 -10.55 Q-2.85 -11.05 -2.2 -11.55 M-5.7 -0.7 Q-5.7 -1.3 -4.0 -3.5 -2.25 -5.65 -1.9 -5.65 L-1.75 -5.6 -1.8 -5.6 Q-1.75 -5.25 -2.15 -4.75 L-1.85 -4.45 Q-1.85 -4.0 -2.5 -3.3 -2.5 -2.85 -2.7 -2.65 L-2.85 -2.3 -2.75 -2.15 -2.75 -2.2 -2.45 -2.7 -2.15 -2.95 -1.95 -2.85 -1.75 -2.45 -1.25 -2.8 Q-0.95 -2.95 -0.85 -3.05 L-0.75 -2.95 -1.95 -0.25 -2.25 -0.3 -2.45 -0.9 -2.65 -1.05 -2.8 -0.95 -3.1 -0.85 -3.6 -1.3 -3.6 -1.25 -4.2 -0.2 -5.05 0.7 -5.25 0.5 -5.35 0.2 -5.3 -0.05 -5.25 -0.2 -5.7 -0.7 M-6.1 10.4 L-5.55 9.95 Q-5.1 9.95 -5.1 10.4 L-5.25 10.9 -5.2 11.05 Q-4.65 11.1 -4.65 11.45 L-5.1 11.9 -5.7 12.2 -6.15 11.85 -6.4 11.35 -6.1 10.4 M-2.05 2.3 L-1.65 1.6 Q-1.15 1.6 -1.2 2.35 -1.2 3.0 -1.55 3.0 L-1.75 3.0 -1.8 2.85 -1.85 2.95 Q-1.7 3.15 -1.8 3.5 -1.9 3.9 -2.1 3.9 L-2.55 4.1 -2.9 4.55 -2.85 5.15 -3.5 5.3 -3.05 6.1 Q-3.05 6.5 -3.4 6.5 L-4.1 6.05 Q-4.7 5.4 -4.7 4.55 L-4.6 4.15 -4.3 3.9 -3.65 4.15 Q-3.7 3.45 -3.3 3.3 L-2.6 3.05 -2.05 2.3" fill="#674732" fill-rule="evenodd" stroke="none"/>
      <path d="M11.65 -6.8 L11.55 -7.1 11.85 -7.65 12.3 -7.85 12.75 -7.65 12.95 -7.05 12.7 -6.6 12.3 -6.3 11.9 -6.5 11.85 -6.6 11.65 -6.8 M4.85 -2.8 L3.9 -3.4 Q3.45 -4.1 3.45 -4.75 L3.6 -5.2 4.05 -5.4 5.75 -5.1 Q7.3 -4.6 7.3 -3.6 7.3 -3.25 6.8 -2.65 6.3 -2.05 5.95 -2.05 L5.5 -2.4 4.85 -2.8 M3.95 1.25 Q3.95 0.8 4.3 0.6 L5.05 0.5 Q5.9 0.5 5.6 1.3 5.3 2.05 4.75 2.05 4.5 2.05 4.3 1.85 3.95 1.7 3.95 1.25 M9.5 7.3 Q9.15 7.2 9.15 6.85 9.15 6.2 9.65 6.2 10.1 6.2 10.15 6.75 10.15 7.3 9.7 7.3 L9.5 7.3 M-0.4 -10.4 L-0.4 -10.85 Q-0.4 -11.35 0.05 -11.35 0.45 -11.35 0.45 -10.85 0.45 -10.35 0.0 -10.35 L-0.4 -10.4" fill="#ffffff" fill-rule="evenodd" stroke="none"/>
      <path d="M0.9 -12.15 L1.2 -13.2 1.55 -14.15 2.55 -15.9 M-9.35 13.4 L-5.95 4.0 M-1.3 -6.95 L-0.3 -9.2 M6.65 -6.4 L9.9 -14.5 M14.45 -9.8 Q13.7 -5.45 11.3 2.65 L10.3 6.1 M9.55 8.2 Q8.55 11.4 7.75 12.85 M-1.25 16.05 L1.35 7.9" fill="none" stroke="#3b0101" stroke-linecap="round" stroke-linejoin="round" stroke-opacity="0.2509804" stroke-width="0.05"/>
      <path d="M2.55 -15.9 Q-2.75 -15.45 -7.3 -11.3 -12.45 -6.6 -13.6 0.0 -14.75 6.6 -11.25 11.3 L-9.35 13.4 M-5.95 4.0 L-6.4 1.8 -6.2 0.0 Q-5.65 -3.3 -3.1 -5.65 L-1.3 -6.95 Q-0.1 -7.6 1.2 -7.85 L2.5 -8.0 Q5.0 -8.0 6.65 -6.4 M-0.3 -9.2 L-2.05 -9.35 Q-2.6 -9.7 -2.75 -10.25 -2.95 -10.8 -2.75 -11.05 -2.05 -12.05 -0.6 -12.25 L0.9 -12.15 1.05 -12.05 Q1.5 -11.75 1.1 -10.55 L0.85 -10.05 Q0.4 -9.5 -0.25 -9.25 L-0.3 -9.2 M2.55 -15.9 L3.9 -15.95 7.1 -15.55 Q4.65 -16.85 1.5 -16.85 L0.1 -16.75 Q-5.15 -16.35 -9.75 -12.2 -14.9 -7.5 -16.0 -0.95 -17.2 5.7 -13.7 10.4 L-11.8 12.5 Q-9.8 14.15 -7.3 14.8 L-9.35 13.4 M9.9 -14.5 L7.5 -15.5 7.1 -15.55 M9.85 -6.6 Q9.8 -7.15 10.05 -7.55 10.65 -8.45 11.65 -8.6 L12.8 -8.55 13.4 -7.4 Q13.75 -6.4 13.45 -6.0 13.15 -5.6 11.9 -5.2 L10.3 -5.1 Q9.95 -5.35 9.85 -6.15 L9.85 -6.5 9.85 -6.6 M9.9 -14.5 Q11.95 -13.3 13.5 -11.25 L14.45 -9.8 Q16.85 -5.55 15.85 0.05 14.65 6.7 9.5 11.4 L7.75 12.85 Q3.55 15.9 -1.25 16.05 M-1.3 16.05 L-1.7 16.05 Q-4.85 16.05 -7.3 14.8 M1.05 -2.85 L2.25 -2.8 2.9 -2.55 3.65 -0.95 8.6 -1.6 Q8.55 -3.85 7.3 -5.6 L6.65 -6.4 M1.05 -2.85 L1.2 -7.85 M10.3 6.1 L10.65 6.5 10.65 6.9 9.55 8.2 Q8.9 8.8 8.0 9.05 L7.25 9.3 Q5.25 7.15 7.9 5.85 9.3 5.15 10.3 6.1 M3.65 -0.95 Q3.95 1.15 1.75 2.15 L1.1 2.4 1.5 7.85 Q3.55 7.3 5.3 5.65 7.9 3.3 8.5 0.05 L8.6 -1.6 M-5.95 4.0 L-5.05 5.65 Q-3.3 8.0 -0.3 8.0 L1.35 7.9 1.5 7.85 M-8.6 -2.15 L-8.45 -1.9 Q-8.0 0.7 -10.65 1.45 L-10.85 1.45 Q-12.15 0.8 -11.85 -0.75 -10.55 -2.3 -8.6 -2.15 M1.1 2.4 Q-0.9 2.8 -1.3 0.6 L-1.3 0.15 -6.4 1.8 M-6.7 11.1 Q-6.0 8.45 -3.7 9.9 -2.75 12.7 -5.65 12.7 -7.1 12.7 -6.7 11.1 M-1.3 0.15 Q-1.15 -1.8 0.6 -2.7 L1.05 -2.85" fill="none" stroke="#3b0101" stroke-linecap="round" stroke-linejoin="round" stroke-opacity="0.4" stroke-width="0.05"/>
    </g>
  </defs>
</svg>
