<?xml version="1.0" encoding="UTF-8" standalone="no"?>
<svg xmlns:xlink="http://www.w3.org/1999/xlink" height="33.0px" width="33.0px" xmlns="http://www.w3.org/2000/svg">
  <g transform="matrix(1.0, 0.0, 0.0, 1.0, 20.3, 17.2)">
    <use height="14.0" id="_col0" transform="matrix(1.0, 0.0, 0.0, 1.0, -6.95, -6.95)" width="13.8" xlink:href="#sprite0"/>
    <use height="23.5" id="_p1" transform="matrix(1.0, 0.0, 0.0, 1.0, -14.0, -7.7)" width="15.65" xlink:href="#sprite1"/>
  </g>
  <defs>
    <g id="sprite0" transform="matrix(1.0, 0.0, 0.0, 1.0, 6.95, 6.95)">
      <use height="14.0" transform="matrix(1.0, 0.0, 0.0, 1.0, -6.95, -6.95)" width="13.8" xlink:href="#shape0"/>
    </g>
    <g id="shape0" transform="matrix(1.0, 0.0, 0.0, 1.0, 6.95, 6.95)">
      <path d="M0.4 -6.9 Q2.15 -6.95 3.7 -5.9 L5.6 -4.1 Q6.35 -3.05 6.6 -1.7 L6.85 1.2 Q6.75 2.95 5.65 4.3 L4.95 5.2 4.35 5.75 Q3.2 6.65 1.95 6.9 L1.05 7.0 Q2.3 5.95 3.0 3.85 L3.85 -1.05 Q3.75 -3.05 1.1 -6.05 L0.4 -6.9" fill="#c6886a" fill-rule="evenodd" stroke="none"/>
      <path d="M0.4 -6.9 L1.1 -6.05 Q3.75 -3.05 3.85 -1.05 L3.0 3.85 Q2.3 5.95 1.05 7.0 L0.95 7.05 0.8 7.05 -1.15 6.95 -1.4 6.7 Q-4.05 6.25 -5.55 4.25 -6.55 2.95 -6.8 1.45 -7.2 -0.5 -6.65 -2.3 -6.05 -4.2 -4.55 -5.45 L-3.45 -6.25 -2.8 -6.5 0.4 -6.9" fill="#efcdaf" fill-rule="evenodd" stroke="none"/>
      <path d="M4.95 5.2 L5.65 4.3 Q6.75 2.95 6.85 1.2 L6.6 -1.7 Q6.35 -3.05 5.6 -4.1 L3.7 -5.9 Q2.15 -6.95 0.4 -6.9 L-2.8 -6.5" fill="none" stroke="#000000" stroke-linecap="round" stroke-linejoin="round" stroke-opacity="0.3019608" stroke-width="0.05"/>
    </g>
    <g id="sprite1" transform="matrix(1.0, 0.0, 0.0, 1.0, 10.65, 5.9)">
      <use height="17.2" id="_col4" transform="matrix(1.0, 0.0, 0.0, 1.0, -8.75, 0.4)" width="11.25" xlink:href="#sprite2"/>
      <use height="18.1" id="_col3" transform="matrix(1.0, 0.0, 0.0, 1.0, -10.65, -5.9)" width="15.65" xlink:href="#sprite3"/>
    </g>
    <g id="sprite2" transform="matrix(1.0, 0.0, 0.0, 1.0, 5.65, 8.6)">
      <use height="17.2" transform="matrix(1.0, 0.0, 0.0, 1.0, -5.65, -8.6)" width="11.25" xlink:href="#shape1"/>
    </g>
    <g id="shape1" transform="matrix(1.0, 0.0, 0.0, 1.0, 5.65, 8.6)">
      <path d="M-5.05 -1.15 Q-4.0 -4.7 -1.4 -7.3 0.45 -9.15 3.05 -8.35 6.2 -7.5 5.45 -4.35 4.6 -1.75 2.55 -0.05 L-1.95 3.65 Q-4.15 5.4 -5.25 8.05 L-5.5 8.6 -5.65 3.7 Q-5.7 1.2 -5.05 -1.15" fill="#d6baba" fill-rule="evenodd" stroke="none"/>
      <path d="M-5.05 -1.15 Q-4.0 -4.7 -1.4 -7.3 0.45 -9.15 3.05 -8.35 6.2 -7.5 5.45 -4.35 4.6 -1.75 2.55 -0.05 L-1.95 3.65 Q-4.15 5.4 -5.25 8.05 L-5.5 8.6 -5.65 3.7 Q-5.7 1.2 -5.05 -1.15 Z" fill="none" stroke="#000000" stroke-linecap="round" stroke-linejoin="round" stroke-opacity="0.3019608" stroke-width="0.05"/>
    </g>
    <g id="sprite3" transform="matrix(1.0, 0.0, 0.0, 1.0, 10.65, 5.9)">
      <use height="18.1" transform="matrix(1.0, 0.0, 0.0, 1.0, -10.65, -5.9)" width="15.65" xlink:href="#shape2"/>
    </g>
    <g id="shape2" transform="matrix(1.0, 0.0, 0.0, 1.0, 10.65, 5.9)">
      <path d="M-9.85 7.85 L-9.1 5.3 Q-5.6 0.6 -1.35 -2.4 L-2.05 -1.35 -2.6 -0.5 -2.8 -0.15 -3.25 0.6 -3.5 1.05 -3.25 0.6 -2.8 -0.15 -2.6 -0.5 -2.05 -1.35 -0.6 -3.3 Q0.65 -4.85 2.3 -5.35 L5.0 -5.9 3.45 -4.0 Q1.85 -1.75 1.75 -0.2 L1.45 -0.25 -2.0 0.45 -3.5 1.05 Q-4.15 2.2 -4.5 3.5 -5.15 3.65 -6.95 5.25 L-9.85 7.85" fill="#ffffff" fill-rule="evenodd" stroke="none"/>
      <path d="M-9.85 7.85 L-6.95 5.25 Q-5.15 3.65 -4.5 3.5 -4.15 2.2 -3.5 1.05 L-2.0 0.45 1.45 -0.25 1.75 -0.2 1.7 0.1 1.4 1.65 1.8 3.95 1.55 3.95 Q1.4 3.95 1.15 4.1 L0.75 4.2 -0.15 4.35 -1.45 4.65 -2.75 5.0 -2.9 5.05 -2.95 5.6 Q-7.35 7.65 -10.65 12.2 L-10.05 8.95 -10.0 8.45 -9.85 7.85 M-2.9 5.05 L-4.95 5.55 -4.5 3.5 -4.95 5.55 -2.9 5.05" fill="#d6baba" fill-rule="evenodd" stroke="none"/>
      <path d="M-2.6 -0.5 L-2.05 -1.35 -1.35 -2.4 Q-5.6 0.6 -9.1 5.3 L-9.85 7.85 M-4.5 3.5 Q-4.15 2.2 -3.5 1.05 L-3.25 0.6 -2.8 -0.15 -2.6 -0.5 -2.05 -1.35 -0.6 -3.3 Q0.65 -4.85 2.3 -5.35 L5.0 -5.9 3.45 -4.0 Q1.85 -1.75 1.75 -0.2 L1.7 0.1 1.4 1.65 1.8 3.95 1.55 3.95 Q1.4 3.95 1.15 4.1 L0.75 4.2 -0.15 4.35 -1.45 4.65 -2.75 5.0 -2.9 5.05 -2.95 5.6 Q-7.35 7.65 -10.65 12.2 L-10.05 8.95 -10.0 8.45 -9.85 7.85 M-4.5 3.5 L-4.95 5.55 -2.9 5.05" fill="none" stroke="#000000" stroke-linecap="round" stroke-linejoin="round" stroke-opacity="0.3019608" stroke-width="0.05"/>
    </g>
  </defs>
</svg>
