<?xml version="1.0" encoding="UTF-8" standalone="no"?>
<svg xmlns:xlink="http://www.w3.org/1999/xlink" height="109.55px" width="92.8px" xmlns="http://www.w3.org/2000/svg">
  <g transform="matrix(1.0, 0.0, 0.0, 1.0, 65.0, 83.6)">
    <clipPath id="clipPath0" transform="matrix(1.0, 0.0, 0.0, 1.0, 65.0, 83.6)">
      <use height="4.0" transform="matrix(0.3635, 0.0, 0.0, 20.9, -65.0, -83.6)" width="230.0" xlink:href="#shape0"/>
    </clipPath>
    <g clip-path="url(#clipPath0)">
      <use height="17.35" transform="matrix(0.7071, 0.7071, -0.7071, 0.7071, -16.9569, -25.8637)" width="34.05" xlink:href="#shape1"/>
    </g>
  </g>
  <defs>
    <g id="shape0" transform="matrix(1.0, 0.0, 0.0, 1.0, 0.0, 0.0)">
      <path d="M230.0 4.0 L0.0 4.0 0.0 0.0 230.0 0.0 230.0 4.0" fill="#ff0000" fill-rule="evenodd" stroke="none"/>
    </g>
    <g id="shape1" transform="matrix(1.0, 0.0, 0.0, 1.0, 15.5, 7.5)">
      <path d="M-4.05 -5.75 L-2.4 -6.3 -1.1 -6.65 0.45 -7.15 2.8 -7.5 7.4 -7.0 Q11.55 -6.2 14.15 -4.35 15.85 -3.0 17.2 -1.2 19.4 1.7 18.0 4.75 16.5 8.05 13.1 9.3 9.8 10.55 6.5 9.0 3.55 7.65 1.25 5.35 -0.7 3.4 -2.55 0.6 -5.0 -1.65 -6.4 -2.15 L-7.85 -2.0 Q-8.6 -1.8 -9.15 -1.45 -11.05 -0.2 -12.8 2.85 -14.7 6.05 -13.9 7.25 -13.65 7.6 -13.85 8.0 L-14.15 8.35 -14.8 8.3 -15.3 7.9 Q-15.65 7.35 -14.75 5.0 L-13.3 1.8 -11.55 -0.55 -9.55 -2.25 Q-7.05 -3.9 -4.1 -1.9 -2.7 -0.9 1.25 3.3 L2.4 4.45 3.55 5.55 Q6.25 8.1 10.15 7.8 13.75 7.6 15.5 4.25 15.9 3.5 15.8 2.55 15.35 -0.95 11.95 -2.7 9.7 -4.05 6.45 -4.65 L-2.35 -4.4 -5.6 -3.7 Q-8.0 -3.45 -8.85 -3.0 -10.2 -2.35 -12.35 -1.85 L-15.3 -2.0 Q-15.65 -2.55 -15.35 -3.05 L-15.0 -3.45 -13.15 -4.05 -11.75 -4.4 -5.85 -5.35 -5.05 -5.45 -4.05 -5.75" fill="#545656" fill-rule="evenodd" stroke="none"/>
    </g>
  </defs>
</svg>
