<?xml version="1.0" encoding="UTF-8" standalone="no"?>
<svg xmlns:xlink="http://www.w3.org/1999/xlink" height="109.55px" width="92.8px" xmlns="http://www.w3.org/2000/svg">
  <g transform="matrix(1.0, 0.0, 0.0, 1.0, 65.0, 83.6)">
    <clipPath id="clipPath0" transform="matrix(1.0, 0.0, 0.0, 1.0, 65.0, 83.6)">
      <use height="4.0" transform="matrix(0.3635, 0.0, 0.0, 20.9, -65.0, -83.6)" width="230.0" xlink:href="#shape0"/>
    </clipPath>
    <g clip-path="url(#clipPath0)">
      <use height="21.25" transform="matrix(0.7071, 0.7071, -0.7071, 0.7071, -2.2688, -22.9204)" width="35.2" xlink:href="#shape1"/>
    </g>
  </g>
  <defs>
    <g id="shape0" transform="matrix(1.0, 0.0, 0.0, 1.0, 0.0, 0.0)">
      <path d="M230.0 4.0 L0.0 4.0 0.0 0.0 230.0 0.0 230.0 4.0" fill="#ff0000" fill-rule="evenodd" stroke="none"/>
    </g>
    <g id="shape1" transform="matrix(1.0, 0.0, 0.0, 1.0, 14.7, 11.35)">
      <path d="M10.1 -11.35 L10.55 -11.3 12.0 -11.1 12.25 -11.1 12.4 -11.05 12.5 -11.0 12.65 -11.0 12.75 -10.95 12.9 -10.9 12.85 -10.7 Q12.7 -10.05 12.15 -9.75 L10.6 -9.65 9.95 -10.35 Q9.8 -10.6 10.1 -11.35" fill="#ffffff" fill-rule="evenodd" stroke="none"/>
      <path d="M12.9 -10.9 L13.05 -10.9 13.15 -10.8 13.3 -10.75 13.4 -10.75 13.5 -10.7 13.65 -10.65 14.0 -10.45 14.15 -10.4 14.25 -10.35 14.35 -10.3 14.45 -10.25 14.5 -10.25 14.7 -10.2 14.85 -10.05 14.95 -10.0 15.0 -10.0 14.45 -9.2 13.95 -8.35 Q10.85 -9.9 7.5 -9.05 L7.55 -10.05 Q7.5 -10.65 7.6 -11.0 L7.85 -11.1 10.1 -11.35 Q9.8 -10.6 9.95 -10.35 L10.6 -9.65 12.15 -9.75 Q12.7 -10.05 12.85 -10.7 L12.9 -10.9" fill="#fe9f78" fill-rule="evenodd" stroke="none"/>
      <path d="M15.0 -10.0 Q18.8 -7.9 20.05 -3.75 21.3 0.45 19.2 4.3 17.1 8.15 12.9 9.45 8.75 10.65 4.85 8.55 1.35 6.65 0.0 3.1 L-0.5 1.15 -0.6 0.65 -0.65 -0.85 -0.6 -1.8 -0.5 -2.8 -0.05 -4.3 0.25 -5.05 0.8 -6.1 Q2.85 -9.7 6.9 -10.85 L7.6 -11.0 Q7.5 -10.65 7.55 -10.05 L7.5 -9.05 7.2 -8.9 Q4.15 -8.05 2.35 -5.55 L1.7 -4.4 1.25 -3.55 0.9 -2.7 0.75 -1.8 0.6 -0.9 Q0.5 -0.45 0.55 0.0 L0.55 0.9 0.7 1.8 0.95 2.85 Q2.05 6.45 5.4 8.25 8.85 10.15 12.55 9.05 16.25 7.95 18.05 4.55 19.95 1.05 18.85 -2.6 17.75 -6.3 14.35 -8.15 L13.95 -8.35 14.45 -9.2 15.0 -10.0" fill="#a93301" fill-rule="evenodd" stroke="none"/>
      <path d="M13.95 -8.35 L14.35 -8.15 Q17.75 -6.3 18.85 -2.6 19.95 1.05 18.05 4.55 16.25 7.95 12.55 9.05 8.85 10.15 5.4 8.25 2.05 6.45 0.95 2.85 L0.7 1.8 0.55 0.9 0.55 0.0 Q0.5 -0.45 0.6 -0.9 L0.75 -1.8 0.9 -2.7 1.25 -3.55 1.7 -4.4 2.35 -5.55 Q4.15 -8.05 7.2 -8.9 L7.5 -9.05 Q10.85 -9.9 13.95 -8.35 M12.45 -4.7 Q10.45 -5.8 8.35 -5.15 6.55 -4.6 5.55 -3.2 L5.1 -2.5 4.85 -2.05 4.7 -1.55 4.6 -1.0 4.5 -0.5 4.45 0.0 4.5 0.55 4.55 1.05 4.65 1.65 Q5.35 3.75 7.3 4.85 9.25 5.9 11.4 5.25 13.6 4.6 14.65 2.65 15.75 0.65 15.1 -1.5 14.45 -3.65 12.45 -4.7" fill="#4e4843" fill-rule="evenodd" stroke="none"/>
      <path d="M12.6 -1.9 L13.0 -1.9 13.1 -1.75 13.25 -1.75 13.35 -1.9 13.5 -2.05 13.8 -2.15 13.8 -2.2 Q13.6 -2.4 12.6 -2.2 12.3 -2.1 12.4 -1.85 L12.4 -1.45 12.25 -1.45 12.1 -1.55 12.05 -1.45 12.15 -1.25 12.45 -1.3 Q12.75 -1.45 12.6 -1.9 M8.0 -2.55 L8.25 -2.65 8.2 -2.85 8.05 -2.85 7.85 -2.9 Q7.65 -3.25 7.1 -3.4 6.55 -3.55 6.75 -3.2 6.85 -3.0 7.45 -2.85 L7.35 -2.35 7.75 -2.3 8.0 -2.55 M9.05 -4.4 L8.6 -4.1 8.5 -4.05 Q8.85 -3.75 8.7 -3.45 8.45 -3.05 8.55 -2.95 L8.9 -2.8 9.45 -2.75 9.5 -2.9 Q9.05 -3.1 9.0 -3.2 L9.35 -3.75 9.4 -4.1 9.05 -4.4 M12.1 -4.1 L11.75 -4.15 Q11.5 -4.0 11.4 -3.55 L11.4 -3.1 11.3 -3.05 11.25 -3.05 11.4 -3.55 11.35 -4.05 Q11.05 -4.5 10.75 -4.25 10.4 -4.0 10.6 -3.6 L10.6 -3.3 10.65 -3.3 11.0 -3.35 10.8 -3.0 10.75 -2.8 11.1 -2.7 11.75 -2.75 11.85 -3.25 Q11.75 -3.7 11.95 -3.8 L12.2 -3.9 12.1 -4.1 M12.1 -0.6 Q11.8 -1.55 10.95 -2.05 L9.25 -2.2 Q8.45 -1.95 8.0 -1.35 L7.85 -1.05 7.7 -0.85 7.6 -0.65 7.6 -0.4 7.55 -0.2 7.55 0.0 7.55 0.3 7.6 0.45 7.6 0.75 Q7.9 1.6 8.75 2.1 L10.5 2.3 Q11.45 2.0 11.9 1.15 12.4 0.3 12.1 -0.6 M12.45 -4.7 Q14.45 -3.65 15.1 -1.5 15.75 0.65 14.65 2.65 13.6 4.6 11.4 5.25 9.25 5.9 7.3 4.85 5.35 3.75 4.65 1.65 L4.55 1.05 4.5 0.55 4.45 0.0 4.5 -0.5 4.6 -1.0 4.7 -1.55 4.85 -2.05 5.1 -2.5 5.55 -3.2 Q6.55 -4.6 8.35 -5.15 10.45 -5.8 12.45 -4.7 M11.15 4.35 L11.7 4.35 12.0 4.0 12.25 3.6 13.15 3.5 13.05 3.3 12.55 3.25 12.05 3.3 11.9 3.5 11.8 3.7 11.6 3.55 11.35 3.55 11.35 3.3 11.3 3.3 11.0 3.75 Q10.85 3.95 10.95 4.1 L11.15 4.35 M9.35 4.0 L9.05 3.85 8.8 3.75 8.95 2.95 Q8.75 2.6 8.55 3.2 L8.45 3.95 8.75 4.05 9.05 4.25 9.0 4.45 9.0 4.75 9.75 4.7 10.25 4.05 10.25 3.45 10.0 3.4 9.95 3.9 9.6 4.35 9.4 4.4 9.35 4.0 M6.45 3.45 L6.65 3.4 6.85 3.4 6.95 3.6 7.05 3.9 7.35 4.1 8.0 4.15 8.1 4.05 7.25 3.8 7.2 3.3 6.3 3.25 6.45 2.55 6.3 2.4 6.25 2.4 6.2 2.95 6.1 3.35 6.2 3.45 6.45 3.45" fill="#8f8881" fill-rule="evenodd" stroke="none"/>
      <path d="M-2.45 0.85 L-2.5 0.8 -2.95 0.6 -3.3 0.55 -6.15 0.0 -6.55 -0.1 -7.1 -0.2 -7.15 -0.3 -7.25 -0.3 -10.55 -0.15 Q-13.85 0.05 -14.0 -0.2 L-14.6 -0.8 -14.7 -1.2 -14.65 -1.9 -13.95 -2.05 Q-13.35 -2.25 -13.25 -2.05 L-8.2 -1.75 -4.6 -2.45 -3.9 -2.6 -2.3 -3.0 -2.25 -2.4 -2.3 -1.05 -2.35 0.15 -2.45 0.85 M12.1 -4.1 L12.2 -3.9 11.95 -3.8 Q11.75 -3.7 11.85 -3.25 L11.75 -2.75 11.1 -2.7 10.75 -2.8 10.8 -3.0 11.0 -3.35 10.65 -3.3 10.6 -3.3 10.6 -3.6 Q10.4 -4.0 10.75 -4.25 11.05 -4.5 11.35 -4.05 L11.4 -3.55 11.25 -3.05 11.3 -3.05 11.4 -3.1 11.4 -3.55 Q11.5 -4.0 11.75 -4.15 L12.1 -4.1 M9.05 -4.4 L9.4 -4.1 9.35 -3.75 9.0 -3.2 Q9.05 -3.1 9.5 -2.9 L9.45 -2.75 8.9 -2.8 8.55 -2.95 Q8.45 -3.05 8.7 -3.45 8.85 -3.75 8.5 -4.05 L8.6 -4.1 9.05 -4.4 M8.0 -2.55 L7.75 -2.3 7.35 -2.35 7.45 -2.85 Q6.85 -3.0 6.75 -3.2 6.55 -3.55 7.1 -3.4 7.65 -3.25 7.85 -2.9 L8.05 -2.85 8.2 -2.85 8.25 -2.65 8.0 -2.55 M12.6 -1.9 Q12.75 -1.45 12.45 -1.3 L12.15 -1.25 12.05 -1.45 12.1 -1.55 12.25 -1.45 12.4 -1.45 12.4 -1.85 Q12.3 -2.1 12.6 -2.2 13.6 -2.4 13.8 -2.2 L13.8 -2.15 13.5 -2.05 13.35 -1.9 13.25 -1.75 13.1 -1.75 13.0 -1.9 12.6 -1.9 M6.45 3.45 L6.2 3.45 6.1 3.35 6.2 2.95 6.25 2.4 6.3 2.4 6.45 2.55 6.3 3.25 7.2 3.3 7.25 3.8 8.1 4.05 8.0 4.15 7.35 4.1 7.05 3.9 6.95 3.6 6.85 3.4 6.65 3.4 6.45 3.45 M9.35 4.0 L9.4 4.4 9.6 4.35 9.95 3.9 10.0 3.4 10.25 3.45 10.25 4.05 9.75 4.7 9.0 4.75 9.0 4.45 9.05 4.25 8.75 4.05 8.45 3.95 8.55 3.2 Q8.75 2.6 8.95 2.95 L8.8 3.75 9.05 3.85 9.35 4.0 M11.15 4.35 L10.95 4.1 Q10.85 3.95 11.0 3.75 L11.3 3.3 11.35 3.3 11.35 3.55 11.6 3.55 11.8 3.7 11.9 3.5 12.05 3.3 12.55 3.25 13.05 3.3 13.15 3.5 12.25 3.6 12.0 4.0 11.7 4.35 11.15 4.35" fill="#605a53" fill-rule="evenodd" stroke="none"/>
      <path d="M12.1 -0.6 Q12.4 0.3 11.9 1.15 11.45 2.0 10.5 2.3 L8.75 2.1 Q7.9 1.6 7.6 0.75 L7.6 0.45 7.55 0.3 7.55 0.0 7.55 -0.2 7.6 -0.4 7.6 -0.65 7.7 -0.85 7.85 -1.05 8.0 -1.35 Q8.45 -1.95 9.25 -2.2 L10.95 -2.05 Q11.8 -1.55 12.1 -0.6" fill="#9a7c76" fill-rule="evenodd" stroke="none"/>
      <path d="M-0.5 1.15 L-0.8 1.2 -2.25 0.95 -2.45 0.85 -2.35 0.15 -2.3 -1.05 -2.25 -2.4 -2.3 -3.0 -2.15 -3.05 -1.4 -3.15 Q-0.8 -3.15 -0.5 -2.8 L-0.6 -1.8 -0.65 -0.85 -0.6 0.65 -0.5 1.15" fill="#999999" fill-rule="evenodd" stroke="none"/>
      <path d="M10.1 -11.35 L10.55 -11.3 12.0 -11.1 12.25 -11.1 12.4 -11.05 12.5 -11.0 12.65 -11.0 12.75 -10.95 12.9 -10.9 13.05 -10.9 13.15 -10.8 13.3 -10.75 13.4 -10.75 13.5 -10.7 13.65 -10.65 14.0 -10.45 14.15 -10.4 14.25 -10.35 14.35 -10.3 14.45 -10.25 14.5 -10.25 14.7 -10.2 14.85 -10.05 14.95 -10.0 15.0 -10.0 Q18.8 -7.9 20.05 -3.75 21.3 0.45 19.2 4.3 17.1 8.15 12.9 9.45 8.75 10.65 4.85 8.55 1.35 6.65 0.0 3.1 L-0.5 1.15 -0.8 1.2 -2.25 0.95 -2.45 0.85 -2.5 0.8 -2.95 0.6 -3.3 0.55 -6.15 0.0 -6.55 -0.1 -7.1 -0.2 -7.15 -0.3 -7.25 -0.3 -10.55 -0.15 Q-13.85 0.05 -14.0 -0.2 L-14.6 -0.8 -14.7 -1.2 -14.65 -1.9 -13.95 -2.05 Q-13.35 -2.25 -13.25 -2.05 L-8.2 -1.75 -4.6 -2.45 -3.9 -2.6 -2.3 -3.0 -2.15 -3.05 -1.4 -3.15 Q-0.8 -3.15 -0.5 -2.8 L-0.05 -4.3 0.25 -5.05 0.8 -6.1 Q2.85 -9.7 6.9 -10.85 L7.6 -11.0 7.85 -11.1 10.1 -11.35 M13.95 -8.35 L14.35 -8.15 Q17.75 -6.3 18.85 -2.6 19.95 1.05 18.05 4.55 16.25 7.95 12.55 9.05 8.85 10.15 5.4 8.25 2.05 6.45 0.95 2.85 L0.7 1.8 0.55 0.9 0.55 0.0 Q0.5 -0.45 0.6 -0.9 L0.75 -1.8 0.9 -2.7 1.25 -3.55 1.7 -4.4 2.35 -5.55 Q4.15 -8.05 7.2 -8.9 L7.5 -9.05 Q10.85 -9.9 13.95 -8.35 M-0.5 -2.8 L-0.6 -1.8 -0.65 -0.85 -0.6 0.65 -0.5 1.15 M-2.45 0.85 L-2.35 0.15 -2.3 -1.05 -2.25 -2.4 -2.3 -3.0" fill="none" stroke="#000000" stroke-linecap="round" stroke-linejoin="round" stroke-opacity="0.4" stroke-width="0.05"/>
    </g>
  </defs>
</svg>
