<?xml version="1.0" encoding="UTF-8" standalone="no"?>
<svg xmlns:xlink="http://www.w3.org/1999/xlink" height="109.55px" width="92.8px" xmlns="http://www.w3.org/2000/svg">
  <g transform="matrix(1.0, 0.0, 0.0, 1.0, 65.0, 83.6)">
    <clipPath id="clipPath0" transform="matrix(1.0, 0.0, 0.0, 1.0, 65.0, 83.6)">
      <use height="4.0" transform="matrix(0.3635, 0.0, 0.0, 20.9, -65.0, -83.6)" width="230.0" xlink:href="#shape0"/>
    </clipPath>
    <g clip-path="url(#clipPath0)">
      <use height="13.75" transform="matrix(0.7071, 0.7071, -0.7071, 0.7071, -45.5651, -52.0297)" width="96.55" xlink:href="#shape1"/>
    </g>
  </g>
  <defs>
    <g id="shape0" transform="matrix(1.0, 0.0, 0.0, 1.0, 0.0, 0.0)">
      <path d="M230.0 4.0 L0.0 4.0 0.0 0.0 230.0 0.0 230.0 4.0" fill="#ff0000" fill-rule="evenodd" stroke="none"/>
    </g>
    <g id="shape1" transform="matrix(1.0, 0.0, 0.0, 1.0, 43.2, 4.5)">
      <path d="M-43.2 -0.35 L-43.2 -1.55 -42.55 -1.55 -42.5 -0.4 -43.2 -0.35 M19.55 -1.8 Q20.15 -2.85 21.3 -3.35 L22.5 -2.35 28.25 -2.15 33.5 -2.3 39.35 -2.5 45.3 -3.1 50.8 -4.05 50.9 -4.05 51.7 -4.25 51.3 -2.95 50.45 -0.95 49.65 0.95 Q48.65 2.5 46.9 3.15 L44.3 3.4 Q43.9 3.55 43.0 4.25 42.15 4.95 41.4 5.25 40.0 5.75 37.0 4.9 L32.4 4.7 Q30.35 5.45 28.75 4.35 L26.15 2.25 24.0 2.0 23.3 1.85 22.8 1.5 22.3 0.85 22.25 1.15 21.6 1.9 21.05 2.55 20.6 2.15 19.45 4.4 Q17.75 7.05 15.95 7.7 L10.85 7.95 10.2 7.75 Q9.0 7.05 8.3 5.8 L7.95 5.25 8.65 5.9 Q9.75 6.75 11.1 6.95 13.0 7.1 14.55 5.95 L17.4 3.45 Q18.25 2.55 18.35 1.35 18.3 1.05 18.4 0.8 L18.75 0.8 18.7 0.75 19.05 0.8 19.1 0.55 19.35 -0.4 19.3 -0.4 19.3 -0.55 19.55 -1.8 19.65 -1.8 19.55 -1.8 M22.45 -0.3 L25.55 -0.05 31.0 0.05 39.8 -0.45 Q45.5 -0.9 45.25 -1.55 L45.1 -1.75 34.4 -1.3 Q24.8 -1.0 22.5 -1.35 L22.5 -2.05 22.5 -2.35 22.5 -2.05 22.5 -1.35 22.5 -1.4 22.45 -0.3 22.45 -0.2 22.3 0.85 22.45 -0.2 22.45 -0.3 M19.35 -0.4 L19.3 -0.55 19.35 -0.4 M20.6 2.15 L20.55 2.2 20.0 1.65 19.1 0.55 20.0 1.65 20.55 2.2 20.6 2.15" fill="#e0e8eb" fill-rule="evenodd" stroke="none"/>
      <path d="M51.7 -4.25 L53.35 -4.5 Q52.75 -1.2 51.5 1.95 50.8 3.45 49.55 4.55 48.1 5.9 46.2 6.7 44.1 7.7 41.7 8.0 L39.45 8.4 Q37.5 8.75 35.6 8.4 L31.6 7.5 Q27.2 6.05 23.65 3.2 23.5 4.95 22.3 6.5 21.4 7.75 20.0 8.4 17.6 9.4 15.05 9.2 12.55 9.05 10.45 7.9 L10.2 7.75 10.85 7.95 15.95 7.7 Q17.75 7.05 19.45 4.4 L20.6 2.15 21.05 2.55 21.6 1.9 22.25 1.15 22.3 0.85 22.8 1.5 23.3 1.85 24.0 2.0 26.15 2.25 28.75 4.35 Q30.35 5.45 32.4 4.7 L37.0 4.9 Q40.0 5.75 41.4 5.25 42.15 4.95 43.0 4.25 43.9 3.55 44.3 3.4 L46.9 3.15 Q48.65 2.5 49.65 0.95 L50.45 -0.95 51.3 -2.95 51.7 -4.25 M-42.55 1.1 L-43.2 1.1 -43.2 -0.35 -42.5 -0.4 -42.55 1.1 M22.5 -1.35 Q24.8 -1.0 34.4 -1.3 L45.1 -1.75 45.25 -1.55 Q45.5 -0.9 39.8 -0.45 L31.0 0.05 25.55 -0.05 22.45 -0.3 22.5 -1.4 22.5 -1.35" fill="#b8c9cf" fill-rule="evenodd" stroke="none"/>
      <path d="M18.4 0.8 L-42.55 1.1 -42.5 -0.4 5.4 -0.5 19.3 -0.55 19.3 -0.4 19.35 -0.4 19.1 0.55 19.05 0.8 18.7 0.75 18.75 0.8 18.4 0.8" fill="#000000" fill-rule="evenodd" stroke="none"/>
      <path d="M19.65 -1.8 L19.55 -1.8 19.65 -1.8" fill="#725327" fill-rule="evenodd" stroke="none"/>
      <path d="M-42.55 -1.55 L19.55 -1.8 19.3 -0.55 5.4 -0.5 -42.5 -0.4 -42.55 -1.55" fill="#6b5a50" fill-rule="evenodd" stroke="none"/>
      <path d="M-43.2 -0.35 L-43.2 -1.55 -42.55 -1.55 19.55 -1.8 Q20.15 -2.85 21.3 -3.35 L22.5 -2.35 28.25 -2.15 33.5 -2.3 39.35 -2.5 45.3 -3.1 50.8 -4.05 50.9 -4.05 51.7 -4.25 53.35 -4.5 Q52.75 -1.2 51.5 1.95 50.8 3.45 49.55 4.55 48.1 5.9 46.2 6.7 44.1 7.7 41.7 8.0 L39.45 8.4 Q37.5 8.75 35.6 8.4 L31.6 7.5 Q27.2 6.05 23.65 3.2 23.5 4.95 22.3 6.5 21.4 7.75 20.0 8.4 17.6 9.4 15.05 9.2 12.55 9.05 10.45 7.9 L10.2 7.75 Q9.0 7.05 8.3 5.8 L7.95 5.25 8.65 5.9 Q9.75 6.75 11.1 6.95 13.0 7.1 14.55 5.95 L17.4 3.45 Q18.25 2.55 18.35 1.35 18.3 1.05 18.4 0.8 L-42.55 1.1 -43.2 1.1 -43.2 -0.35 M-42.5 -0.4 L-42.55 -1.55 M-42.55 1.1 L-42.5 -0.4 M19.3 -0.55 L19.55 -1.8 19.65 -1.8 M22.3 0.85 L22.25 1.15 21.6 1.9 21.05 2.55 20.6 2.15 M22.45 -0.3 L22.45 -0.2 22.3 0.85 M18.7 0.75 L19.05 0.8 19.1 0.55 19.35 -0.4 M19.3 -0.55 L19.35 -0.4 M19.1 0.55 L20.0 1.65 20.55 2.2 20.6 2.15 M18.4 0.8 L18.75 0.8 M22.5 -2.35 L22.5 -2.05 22.5 -1.35 M22.5 -1.4 L22.45 -0.3" fill="none" stroke="#000000" stroke-linecap="round" stroke-linejoin="round" stroke-opacity="0.4" stroke-width="0.05"/>
    </g>
  </defs>
</svg>
