<?xml version="1.0" encoding="UTF-8" standalone="no"?>
<svg xmlns:xlink="http://www.w3.org/1999/xlink" height="109.55px" width="92.8px" xmlns="http://www.w3.org/2000/svg">
  <g transform="matrix(1.0, 0.0, 0.0, 1.0, 65.0, 83.6)">
    <clipPath id="clipPath0" transform="matrix(1.0, 0.0, 0.0, 1.0, 65.0, 83.6)">
      <use height="4.0" transform="matrix(0.3635, 0.0, 0.0, 20.9, -65.0, -83.6)" width="230.0" xlink:href="#shape0"/>
    </clipPath>
    <g clip-path="url(#clipPath0)">
      <use height="3.9" transform="matrix(0.7071, 0.7071, -0.7071, 0.7071, -11.3104, -18.1198)" width="18.8" xlink:href="#shape1"/>
    </g>
  </g>
  <defs>
    <g id="shape0" transform="matrix(1.0, 0.0, 0.0, 1.0, 0.0, 0.0)">
      <path d="M230.0 4.0 L0.0 4.0 0.0 0.0 230.0 0.0 230.0 4.0" fill="#ff0000" fill-rule="evenodd" stroke="none"/>
    </g>
    <g id="shape1" transform="matrix(1.0, 0.0, 0.0, 1.0, 9.85, 1.35)">
      <path d="M-6.65 -1.05 L0.3 -0.85 8.0 -1.05 M-9.85 0.5 Q-5.15 -0.2 -1.0 0.55 3.4 1.4 8.95 0.5" fill="none" stroke="#ffffcc" stroke-linecap="round" stroke-linejoin="round" stroke-width="0.05"/>
      <path d="M-6.8 -0.1 L-2.45 0.1 2.35 -0.1 M-8.85 1.45 Q-5.9 0.75 -3.3 1.5 -0.5 2.35 2.95 1.45" fill="none" stroke="#ffffcc" stroke-linecap="round" stroke-linejoin="round" stroke-width="0.05"/>
      <path d="M5.75 -0.4 L-1.2 -0.2 -8.9 -0.4 M8.95 1.15 Q4.25 0.45 0.1 1.2 -4.3 2.05 -9.85 1.15" fill="none" stroke="#ffffcc" stroke-linecap="round" stroke-linejoin="round" stroke-width="0.05"/>
      <path d="M7.95 2.1 Q5.0 1.4 2.4 2.15 -0.4 3.0 -3.85 2.1 M5.9 0.55 L1.55 0.75 -3.25 0.55" fill="none" stroke="#ffffcc" stroke-linecap="round" stroke-linejoin="round" stroke-width="0.05"/>
    </g>
  </defs>
</svg>
