<?xml version="1.0" encoding="UTF-8" standalone="no"?>
<svg xmlns:xlink="http://www.w3.org/1999/xlink" height="109.55px" width="92.8px" xmlns="http://www.w3.org/2000/svg">
  <g transform="matrix(1.0, 0.0, 0.0, 1.0, 65.0, 83.6)">
    <clipPath id="clipPath0" transform="matrix(1.0, 0.0, 0.0, 1.0, 65.0, 83.6)">
      <use height="4.0" transform="matrix(0.3635, 0.0, 0.0, 20.9, -65.0, -83.6)" width="230.0" xlink:href="#shape0"/>
    </clipPath>
    <g clip-path="url(#clipPath0)">
      <use height="5.3" transform="matrix(0.7071, 0.7071, -0.7071, 0.7071, -37.6605, -41.1546)" width="64.6" xlink:href="#shape1"/>
    </g>
  </g>
  <defs>
    <g id="shape0" transform="matrix(1.0, 0.0, 0.0, 1.0, 0.0, 0.0)">
      <path d="M230.0 4.0 L0.0 4.0 0.0 0.0 230.0 0.0 230.0 4.0" fill="#ff0000" fill-rule="evenodd" stroke="none"/>
    </g>
    <g id="shape1" transform="matrix(1.0, 0.0, 0.0, 1.0, 27.8, 2.4)">
      <path d="M19.45 -0.95 L23.4 -2.4 36.05 0.35 26.7 0.15 19.2 0.05 19.45 -0.95 M-27.75 -0.3 L-27.8 -1.2 -27.2 -1.25 -27.25 -0.35 -27.75 -0.3" fill="#e0e8eb" fill-rule="evenodd" stroke="none"/>
      <path d="M19.45 -0.95 L19.2 0.05 18.7 0.0 -27.25 -0.35 -27.2 -1.25 19.45 -0.95" fill="#6b5a50" fill-rule="evenodd" stroke="none"/>
      <path d="M19.2 0.05 L26.7 0.15 36.05 0.35 36.8 0.5 22.25 2.9 19.4 1.3 18.95 1.3 19.05 1.05 19.2 0.05 M-27.25 0.75 L-27.8 0.75 -27.75 -0.3 -27.25 -0.35 -27.25 0.75" fill="#b8c9cf" fill-rule="evenodd" stroke="none"/>
      <path d="M19.05 1.05 L-27.25 0.75 -27.25 -0.35 18.7 0.0 19.2 0.05 19.05 1.05" fill="#000000" fill-rule="evenodd" stroke="none"/>
      <path d="M36.05 0.35 L23.4 -2.4 19.45 -0.95 19.2 0.05 19.05 1.05 -27.25 0.75 -27.8 0.75 -27.75 -0.3 -27.8 -1.2 -27.2 -1.25 19.45 -0.95 M36.05 0.35 L36.8 0.5 22.25 2.9 19.4 1.3 18.95 1.3 19.05 1.05 M-27.25 -0.35 L-27.2 -1.25 M-27.25 0.75 L-27.25 -0.35" fill="none" stroke="#000000" stroke-linecap="round" stroke-linejoin="round" stroke-opacity="0.4" stroke-width="0.05"/>
    </g>
  </defs>
</svg>
