<?xml version="1.0" encoding="UTF-8" standalone="no"?>
<svg xmlns:xlink="http://www.w3.org/1999/xlink" height="109.55px" width="92.8px" xmlns="http://www.w3.org/2000/svg">
  <g transform="matrix(1.0, 0.0, 0.0, 1.0, 65.0, 83.6)">
    <clipPath id="clipPath0" transform="matrix(1.0, 0.0, 0.0, 1.0, 65.0, 83.6)">
      <use height="4.0" transform="matrix(0.3635, 0.0, 0.0, 20.9, -65.0, -83.6)" width="230.0" xlink:href="#shape0"/>
    </clipPath>
    <g clip-path="url(#clipPath0)">
      <use height="2.2" transform="matrix(0.7071, 0.7071, -0.7071, 0.7071, -35.6858, -37.4829)" width="56.85" xlink:href="#shape1"/>
    </g>
  </g>
  <defs>
    <g id="shape0" transform="matrix(1.0, 0.0, 0.0, 1.0, 0.0, 0.0)">
      <path d="M230.0 4.0 L0.0 4.0 0.0 0.0 230.0 0.0 230.0 4.0" fill="#ff0000" fill-rule="evenodd" stroke="none"/>
    </g>
    <g id="shape1" transform="matrix(1.0, 0.0, 0.0, 1.0, 28.05, 1.2)">
      <path d="M3.55 -1.1 L3.6 -0.65 3.55 -1.1 28.65 -1.15 28.75 -1.2 28.8 -0.05 -28.0 -0.05 -28.0 -1.0 3.55 -1.1" fill="#6b5a50" fill-rule="evenodd" stroke="none"/>
      <path d="M-28.0 -0.05 L28.8 -0.05 28.75 0.85 -28.05 1.0 -28.0 -0.05" fill="#000000" fill-rule="evenodd" stroke="none"/>
      <path d="M3.6 -0.65 L3.55 -1.1 -28.0 -1.0 -28.0 -0.05 M28.8 -0.05 L28.75 -1.2 28.65 -1.15 3.55 -1.1 M28.8 -0.05 L28.75 0.85 -28.05 1.0 -28.0 -0.05" fill="none" stroke="#000000" stroke-linecap="round" stroke-linejoin="round" stroke-opacity="0.4" stroke-width="0.05"/>
    </g>
  </defs>
</svg>
