<?xml version="1.0" encoding="UTF-8" standalone="no"?>
<svg xmlns:xlink="http://www.w3.org/1999/xlink" height="109.55px" width="92.8px" xmlns="http://www.w3.org/2000/svg">
  <g transform="matrix(1.0, 0.0, 0.0, 1.0, 65.0, 83.6)">
    <clipPath id="clipPath0" transform="matrix(1.0, 0.0, 0.0, 1.0, 65.0, 83.6)">
      <use height="4.0" transform="matrix(0.3635, 0.0, 0.0, 20.9, -65.0, -83.6)" width="230.0" xlink:href="#shape0"/>
    </clipPath>
    <g clip-path="url(#clipPath0)">
      <use height="19.4" transform="matrix(0.7071, 0.7071, -0.7071, 0.7071, -12.2052, -26.1453)" width="34.2" xlink:href="#shape1"/>
    </g>
  </g>
  <defs>
    <g id="shape0" transform="matrix(1.0, 0.0, 0.0, 1.0, 0.0, 0.0)">
      <path d="M230.0 4.0 L0.0 4.0 0.0 0.0 230.0 0.0 230.0 4.0" fill="#ff0000" fill-rule="evenodd" stroke="none"/>
    </g>
    <g id="shape1" transform="matrix(1.0, 0.0, 0.0, 1.0, 13.4, 9.15)">
      <path d="M19.15 -1.65 L19.15 -0.15 19.15 2.05 19.1 10.25 8.75 10.15 8.85 2.0 8.8 -0.2 8.9 -1.8 8.95 -5.05 14.4 -5.05 19.25 -5.4 19.15 -1.65" fill="#b8c9cf" fill-rule="evenodd" stroke="none"/>
      <path d="M8.95 -5.05 L8.95 -9.15 19.25 -9.05 19.25 -5.4 14.4 -5.05 8.95 -5.05" fill="#e0e8eb" fill-rule="evenodd" stroke="none"/>
      <path d="M19.15 -1.65 L20.75 -1.65 20.8 -0.25 19.15 -0.15 19.15 -1.65 M-13.4 -0.15 L-13.35 -1.95 8.9 -1.8 8.8 -0.2 -13.4 -0.15" fill="#725327" fill-rule="evenodd" stroke="none"/>
      <path d="M19.15 -0.15 L20.8 -0.25 20.75 2.1 19.15 2.05 19.15 -0.15 M8.85 2.0 L-13.35 1.8 -13.4 -0.15 8.8 -0.2 8.85 2.0" fill="#000000" fill-rule="evenodd" stroke="none"/>
      <path d="M20.8 -0.25 L20.75 -1.65 19.15 -1.65 19.15 -0.15 20.8 -0.25 M19.15 2.05 L19.1 10.25 8.75 10.15 8.85 2.0 -13.35 1.8 -13.4 -0.15 -13.35 -1.95 8.9 -1.8 8.95 -5.05 8.95 -9.15 19.25 -9.05 19.25 -5.4 19.15 -1.65 M8.85 2.0 L8.8 -0.2 8.9 -1.8 M19.15 -0.15 L19.15 2.05" fill="none" stroke="#000000" stroke-linecap="round" stroke-linejoin="round" stroke-opacity="0.4" stroke-width="0.05"/>
    </g>
  </defs>
</svg>
