<?xml version="1.0" encoding="UTF-8" standalone="no"?>
<svg xmlns:xlink="http://www.w3.org/1999/xlink" height="12.2px" width="30.35px" xmlns="http://www.w3.org/2000/svg">
  <g transform="matrix(1.0, 0.0, 0.0, 1.0, 15.2, 6.1)">
    <use height="12.2" transform="matrix(1.0, 0.0, 0.0, 1.0, -15.2, -6.1)" width="30.35" xlink:href="#shape0"/>
  </g>
  <defs>
    <g id="shape0" transform="matrix(1.0, 0.0, 0.0, 1.0, 15.2, 6.1)">
      <path d="M-14.45 -1.1 Q-15.2 -1.05 -15.2 -1.65 L-15.0 -3.9 -14.65 -6.0 -14.25 -6.1 -13.95 -6.0 -14.2 -3.8 -14.35 -2.7 -14.45 -1.1 M13.8 5.1 L12.7 1.3 14.0 0.95 15.15 4.55 14.45 4.75 13.8 5.1 M-7.65 6.1 Q-9.0 5.95 -9.0 5.6 L-8.8 3.5 -8.8 1.75 -7.85 2.0 -7.15 2.15 -7.65 6.1" fill="#d6baba" fill-rule="evenodd" stroke="none"/>
      <path d="M-13.95 -6.0 L-14.25 -6.1 -14.65 -6.0 -15.0 -3.9 -15.2 -1.65 Q-15.2 -1.05 -14.45 -1.1 M-7.65 6.1 L-7.15 2.15 -7.85 2.0 -8.8 1.75 -8.8 3.5 -9.0 5.6 Q-9.0 5.95 -7.65 6.1 M13.8 5.1 L14.45 4.75 15.15 4.55 14.0 0.95 12.7 1.3 13.8 5.1" fill="none" stroke="#000000" stroke-linecap="round" stroke-linejoin="round" stroke-opacity="0.3019608" stroke-width="0.05"/>
    </g>
  </defs>
</svg>
