<?xml version="1.0" encoding="UTF-8" standalone="no"?>
<svg xmlns:xlink="http://www.w3.org/1999/xlink" height="34.0px" width="204.7px" xmlns="http://www.w3.org/2000/svg">
  <g transform="matrix(1.0, 0.0, 0.0, 1.0, 103.65, 24.35)">
    <use height="34.0" transform="matrix(1.0, 0.0, 0.0, 1.0, -103.65, -24.35)" width="204.7" xlink:href="#shape0"/>
    <use height="193.8" transform="matrix(0.0, 1.0, -1.0, 0.0, 96.0, -15.25)" width="23.1" xlink:href="#sprite0"/>
  </g>
  <defs>
    <g id="shape0" transform="matrix(1.0, 0.0, 0.0, 1.0, 103.65, 24.35)">
      <path d="M-100.25 -3.8 L-100.25 -3.85 -99.55 -3.0 -99.5 -2.95 -99.2 -2.6 -99.5 -2.95 -99.2 -2.65 -99.2 -2.6 -99.4 -2.1 -99.55 -0.5 Q-99.55 0.75 -99.2 1.2 L-98.95 1.7 -98.65 2.1 -98.4 2.7 -99.05 3.25 Q-99.65 3.6 -99.65 4.5 L-99.6 5.0 -99.8 5.2 -99.75 5.2 -100.2 5.7 -100.45 5.45 -100.3 3.9 Q-100.15 2.6 -100.35 1.7 -100.55 0.8 -100.4 -1.25 L-100.25 -3.8" fill="#ffffff" fill-rule="evenodd" stroke="none"/>
      <path d="M-99.75 5.2 L-99.8 5.2 -99.6 5.0 -99.65 4.5 Q-99.65 3.6 -99.05 3.25 L-98.4 2.7 -98.65 2.1 -98.95 1.7 -99.2 1.2 Q-99.55 0.75 -99.55 -0.5 L-99.4 -2.1 -99.2 -2.6 -98.0 -1.25 -98.0 3.15 -99.75 5.2" fill="#ccced5" fill-rule="evenodd" stroke="none"/>
      <path d="M-100.25 -3.8 L-100.4 -1.25 Q-100.55 0.8 -100.35 1.7 -100.15 2.6 -100.3 3.9 L-100.45 5.45 -103.55 2.5 -103.65 0.8 -103.55 -0.6 -100.25 -3.8" fill="#9ea4ad" fill-rule="evenodd" stroke="none"/>
      <path d="M-99.5 -2.95 L-99.55 -3.0 -100.25 -3.85 -100.25 -3.8 M-100.45 5.45 L-100.2 5.7 -99.75 5.2 M-99.2 -2.6 L-99.5 -2.95 M-99.2 -2.6 L-98.0 -1.25 -98.0 3.15 -99.75 5.2 M-100.45 5.45 L-103.55 2.5 -103.65 0.8 -103.55 -0.6 -100.25 -3.8" fill="none" stroke="#000000" stroke-linecap="round" stroke-linejoin="round" stroke-opacity="0.4" stroke-width="0.05"/>
      <path d="M32.3 1.25 L32.3 3.2 31.8 3.3 -98.15 3.35 -98.15 0.8 -15.95 0.75 Q1.5 0.5 10.25 0.75 14.65 0.9 23.5 0.55 L32.3 1.25" fill="#512115" fill-rule="evenodd" stroke="none"/>
      <path d="M-98.15 0.8 L-98.15 -1.5 32.3 -1.55 32.3 1.25 23.5 0.55 Q14.65 0.9 10.25 0.75 1.5 0.5 -15.95 0.75 L-98.15 0.8 M32.3 3.2 L32.3 3.3 31.8 3.3 32.3 3.2" fill="#6b2c1d" fill-rule="evenodd" stroke="none"/>
      <path d="M-98.15 0.8 L-98.15 -1.5 32.3 -1.55 32.3 1.25 32.3 3.2 32.3 3.3 31.8 3.3 -98.15 3.35 -98.15 0.8 Z" fill="none" stroke="#000000" stroke-linecap="round" stroke-linejoin="round" stroke-opacity="0.4" stroke-width="0.05"/>
      <path d="M13.65 -20.2 L13.05 -20.0 10.9 -19.2 Q11.75 -20.3 13.0 -20.3 L13.65 -20.2 M8.1 -16.45 L6.85 -14.7 6.85 -14.75 Q6.75 -15.65 6.95 -16.0 7.15 -16.4 8.0 -16.45 L8.1 -16.45 M3.9 -8.75 L4.1 -8.5 4.35 -8.3 3.9 -7.5 3.9 -8.75 M8.8 -12.8 L9.0 -13.15 10.55 -15.3 12.4 -15.0 13.95 -14.7 Q15.25 -14.7 15.15 -15.7 15.1 -16.7 14.25 -16.7 L12.8 -16.5 12.9 -15.9 Q13.45 -16.05 13.8 -16.35 14.65 -16.35 14.75 -15.45 L13.95 -15.3 12.85 -15.5 11.75 -15.75 11.0 -15.75 Q13.25 -18.1 16.15 -18.1 L17.7 -17.95 18.4 -17.7 18.65 -17.7 19.9 -17.2 Q19.05 -17.1 19.05 -16.1 19.05 -14.85 19.65 -14.15 20.05 -13.65 20.55 -13.65 L21.55 -13.7 Q22.55 -13.95 22.55 -14.7 L22.5 -14.9 22.35 -14.9 21.65 -14.4 21.15 -14.25 20.45 -14.4 Q19.8 -14.75 19.8 -15.9 L19.8 -16.25 20.1 -16.35 Q23.9 -16.35 27.1 -9.8 L29.3 -5.35 Q29.8 -4.5 30.25 -4.0 L27.75 -1.55 Q25.85 -10.4 17.25 -13.05 L8.8 -12.8 M22.15 -19.25 Q23.45 -19.2 23.75 -18.7 L24.5 -17.65 23.4 -18.4 22.15 -19.25 M34.05 -5.4 L34.05 -5.35 34.05 -5.3 33.95 -5.15 34.05 -5.35 32.9 -6.65 32.9 -6.6 31.9 -5.65 31.0 -7.1 27.0 -12.65 25.6 -14.35 Q25.8 -14.25 25.85 -14.25 27.3 -13.65 28.3 -11.9 29.3 -10.1 30.25 -9.6 32.3 -8.5 33.5 -6.45 L34.05 -5.4 M34.15 -5.25 L36.1 -3.0 36.75 -3.1 36.5 -2.55 36.5 -1.95 36.5 -0.45 36.5 -1.95 Q36.7 -1.8 37.0 -1.8 39.2 -1.8 41.8 -3.05 L47.3 -5.85 48.4 -6.3 47.8 -7.25 48.45 -7.35 48.65 -7.45 48.95 -7.7 49.4 -8.2 49.7 -7.5 49.85 -6.9 49.85 -6.85 49.6 -6.8 48.7 -6.45 50.3 -4.15 50.45 -4.3 Q50.9 -4.7 51.5 -4.85 L51.9 -4.25 52.15 -3.9 52.0 -3.85 51.7 -3.75 50.95 -3.25 51.2 -2.9 52.5 -1.15 50.6 -0.9 43.35 -0.75 36.5 -0.45 36.5 1.95 36.5 2.8 36.45 4.35 36.5 2.8 36.85 2.85 38.65 2.85 44.7 2.9 53.95 2.35 55.15 2.15 54.65 2.25 56.0 4.25 Q46.75 4.05 36.45 4.35 L33.7 7.55 33.65 7.55 33.95 7.25 33.9 6.45 Q33.9 5.05 34.85 4.45 L35.8 3.6 35.45 2.7 35.0 2.05 34.55 1.25 Q34.05 0.55 34.05 -1.45 34.05 -3.4 34.3 -3.95 L34.55 -4.75 34.15 -5.25 M36.1 -3.0 L36.5 -2.55 36.1 -3.0 M49.95 -6.9 L52.35 -7.7 51.85 -8.15 50.3 -9.75 Q50.8 -10.35 51.8 -10.35 L51.9 -10.35 53.75 -10.0 55.7 -9.7 55.95 -9.7 56.25 -9.75 56.35 -9.8 57.0 -10.1 Q57.35 -10.3 57.7 -10.6 L58.95 -9.1 67.8 -9.85 71.0 -6.65 71.05 -6.6 71.7 -6.55 71.8 -6.55 Q75.7 -6.15 77.45 -2.65 L78.0 -0.8 Q78.15 0.25 77.65 1.05 L77.5 1.25 77.35 1.4 73.95 -2.0 73.55 -2.4 73.15 -2.8 73.1 -2.85 Q70.8 -5.3 69.8 -6.65 L67.95 -6.35 63.25 -4.7 61.5 -4.05 63.0 -2.35 63.75 -1.55 63.2 -1.2 58.85 0.3 57.5 0.65 Q56.5 -0.6 56.2 -2.1 L56.45 -2.2 55.95 -2.05 54.4 -1.55 52.6 -4.0 53.35 -4.05 54.2 -3.75 54.3 -4.05 Q54.15 -4.7 53.45 -4.9 L52.4 -4.95 51.95 -4.9 50.35 -7.05 49.95 -6.9 M50.05 -3.95 L48.3 -2.55 48.45 -2.45 48.75 -2.4 Q49.65 -2.4 50.7 -3.1 L50.05 -3.95 M52.6 -1.15 L54.1 -1.5 55.25 0.15 55.85 1.05 54.7 1.35 54.45 1.45 54.4 1.45 52.6 -1.15 M84.0 -1.15 L83.0 -2.75 79.65 -7.8 77.85 -8.45 Q73.8 -9.9 70.25 -9.9 L68.5 -9.85 67.5 -11.0 67.1 -11.45 67.25 -11.45 Q68.4 -11.45 69.65 -12.4 70.95 -13.4 71.9 -13.4 73.85 -13.4 75.95 -11.65 78.1 -9.95 78.95 -9.95 L79.05 -9.95 80.45 -7.5 85.95 -5.3 Q89.75 -3.9 93.45 2.0 L95.55 4.05 Q96.8 5.0 97.2 6.65 97.45 7.8 98.0 8.9 L88.6 7.0 85.95 2.05 85.6 1.4 85.1 0.6 84.9 0.55 Q86.4 0.6 89.1 2.7 L91.45 4.7 91.55 4.9 91.55 4.8 91.8 4.75 91.6 4.2 Q91.5 1.85 89.05 0.35 86.9 -1.0 84.0 -1.15 M59.85 -6.0 L57.55 -8.9 52.6 -7.75 56.85 -2.35 61.35 -4.0 59.85 -6.0 M67.85 4.75 L64.6 0.55 63.6 -0.75 65.4 -1.65 Q68.8 -3.4 69.8 -3.4 71.3 -3.4 73.95 -0.75 L74.8 0.1 74.65 1.3 74.1 1.6 Q70.7 2.25 68.65 0.15 L68.6 0.2 68.7 0.35 68.65 0.15 68.75 0.45 68.95 0.65 68.9 0.65 68.85 0.65 Q69.55 2.45 70.9 3.05 72.0 3.55 73.25 3.55 L74.35 3.5 75.75 3.05 77.5 1.3 77.55 1.25 81.05 5.95 67.85 4.75 M86.0 2.3 L86.0 2.5 Q86.0 3.25 85.45 3.5 L84.35 3.55 Q83.4 3.55 82.3 3.0 L82.0 2.85 Q80.8 2.1 80.8 0.95 80.8 -0.5 81.9 -1.0 L83.0 -1.2 83.65 -1.2 84.75 0.3 84.45 0.25 82.7 0.35 Q82.45 0.4 82.45 0.9 L82.65 1.5 82.7 1.55 83.2 1.8 84.25 2.05 84.2 1.5 84.3 1.15 84.65 1.05 84.7 1.05 85.05 1.1 85.4 1.3 86.0 2.3 M58.0 4.3 L57.9 4.2 56.35 1.9 58.65 1.3 59.5 1.05 58.75 1.3 61.05 4.4 58.0 4.3" fill="#ccced5" fill-rule="evenodd" stroke="none"/>
      <path d="M17.7 -17.95 L17.2 -18.2 16.2 -18.85 16.1 -18.9 15.95 -19.0 Q14.55 -19.95 13.65 -20.2 L13.0 -20.3 Q11.75 -20.3 10.9 -19.2 L10.7 -18.95 9.3 -16.85 Q9.0 -16.5 8.1 -16.45 L8.0 -16.45 Q7.15 -16.4 6.95 -16.0 6.75 -15.65 6.85 -14.75 L6.85 -14.7 6.95 -13.6 4.9 -11.3 4.05 -10.1 Q4.35 -12.3 5.35 -15.85 7.1 -22.2 16.3 -24.0 25.45 -25.8 32.85 -18.4 39.95 -11.25 36.75 -3.1 L36.1 -3.0 34.15 -5.25 34.05 -5.3 34.15 -5.25 34.55 -4.75 34.3 -3.95 Q34.05 -3.4 34.05 -1.45 34.05 0.55 34.55 1.25 L35.0 2.05 35.45 2.7 35.8 3.6 34.85 4.45 Q33.9 5.05 33.9 6.45 L33.95 7.25 33.65 7.55 33.7 7.55 33.0 8.3 32.65 7.95 32.85 5.5 Q33.1 3.45 32.8 2.05 32.5 0.65 32.7 -2.6 L32.9 -6.6 32.9 -6.65 34.05 -5.35 33.95 -5.15 34.05 -5.3 34.05 -5.35 34.05 -5.4 34.1 -5.55 34.15 -5.65 34.6 -7.2 Q34.6 -8.1 33.05 -8.9 31.4 -9.85 31.15 -10.8 31.05 -11.25 31.1 -12.7 31.05 -14.05 30.3 -14.7 29.2 -15.55 27.75 -15.6 26.4 -15.6 25.75 -16.2 L24.55 -17.65 24.5 -17.65 23.75 -18.7 Q23.45 -19.2 22.15 -19.25 L21.75 -19.25 Q20.7 -19.25 19.9 -18.45 19.25 -17.8 18.65 -17.7 L18.4 -17.7 17.7 -17.95 M36.5 2.8 L36.5 1.95 Q42.0 1.7 47.4 2.15 L52.05 1.6 54.45 1.45 54.7 1.35 55.85 1.05 57.5 0.65 58.85 0.3 63.2 -1.2 64.15 -1.8 Q65.7 -2.85 67.4 -3.5 L72.3 -3.35 73.1 -2.85 73.15 -2.8 73.55 -2.4 73.95 -2.0 74.45 -1.1 74.8 0.1 73.95 -0.75 Q71.3 -3.4 69.8 -3.4 68.8 -3.4 65.4 -1.65 L63.6 -0.75 64.6 0.55 67.85 4.75 67.5 4.7 61.05 4.4 58.75 1.3 59.5 1.05 58.65 1.3 56.35 1.9 57.9 4.2 58.0 4.3 56.0 4.25 54.65 2.25 55.15 2.15 53.95 2.35 44.7 2.9 38.65 2.85 36.85 2.85 36.5 2.8 M47.8 -7.25 L46.0 -7.05 Q44.2 -6.85 43.7 -5.8 43.35 -5.0 41.95 -4.6 L40.05 -4.1 38.45 -3.25 36.9 -3.05 Q43.4 -10.9 52.0 -14.8 60.8 -18.85 71.6 -18.55 82.3 -18.3 90.4 -11.15 98.4 -4.05 101.05 9.65 99.35 8.7 98.85 7.8 L98.55 6.5 98.0 5.0 Q97.4 4.2 95.2 2.55 93.85 1.6 93.0 -1.3 92.45 -3.1 90.6 -3.9 88.1 -4.9 87.85 -5.15 L85.2 -8.75 Q83.6 -10.8 81.45 -10.8 L78.95 -9.95 Q78.1 -9.95 75.95 -11.65 73.85 -13.4 71.9 -13.4 70.95 -13.4 69.65 -12.4 68.4 -11.45 67.25 -11.45 66.55 -11.45 64.95 -12.0 L61.65 -12.55 Q59.35 -12.55 58.1 -11.1 L57.0 -10.1 56.35 -9.8 56.25 -9.75 55.95 -9.7 55.7 -9.7 53.75 -10.0 51.9 -10.35 51.8 -10.35 Q50.8 -10.35 50.3 -9.75 L49.95 -9.25 48.95 -7.7 48.65 -7.45 48.45 -7.35 47.8 -7.25 M49.85 -6.9 L49.95 -6.9 50.35 -7.05 51.95 -4.9 51.5 -4.85 Q50.9 -4.7 50.45 -4.3 L50.3 -4.15 48.7 -6.45 49.6 -6.8 49.85 -6.85 49.85 -6.9 M52.6 -4.0 L54.4 -1.55 54.1 -1.5 52.6 -1.15 52.5 -1.15 51.2 -2.9 50.95 -3.25 51.7 -3.75 52.0 -3.85 52.6 -4.0 M77.35 1.4 L77.5 1.25 77.65 1.05 Q78.15 0.25 78.0 -0.8 L77.45 -2.65 Q75.7 -6.15 71.8 -6.55 L71.7 -6.55 71.05 -6.6 71.0 -6.65 67.8 -9.85 68.5 -9.85 70.25 -9.9 Q73.8 -9.9 77.85 -8.45 L79.65 -7.8 83.0 -2.75 84.0 -1.15 83.65 -1.2 83.0 -1.2 81.9 -1.0 Q80.8 -0.5 80.8 0.95 80.8 2.1 82.0 2.85 L82.3 3.0 Q83.4 3.55 84.35 3.55 L85.45 3.5 Q86.0 3.25 86.0 2.5 L86.0 2.3 85.95 2.05 88.6 7.0 81.05 5.95 77.55 1.25 77.5 1.3 75.75 3.05 74.35 3.5 73.25 3.55 Q72.0 3.55 70.9 3.05 69.55 2.45 68.85 0.65 L68.9 0.65 68.95 0.65 69.2 0.95 70.4 2.15 Q71.3 3.0 72.6 3.0 L74.35 2.75 Q75.6 2.5 76.7 1.85 L76.8 1.8 76.85 1.8 77.1 1.6 77.2 1.55 77.35 1.4 M59.85 -6.0 L61.35 -4.0 56.85 -2.35 52.6 -7.75 57.55 -8.9 59.85 -6.0 M91.6 4.2 L91.8 4.75 91.55 4.8 91.6 4.35 91.6 4.2 M91.45 4.7 L89.1 2.7 Q86.4 0.6 84.9 0.55 L85.1 0.6 85.6 1.4 85.45 1.3 85.05 1.1 84.7 1.05 84.65 1.05 84.3 1.15 84.2 1.5 84.25 2.05 83.2 1.8 82.7 1.55 82.65 1.5 82.45 0.9 Q82.45 0.4 82.7 0.35 L84.45 0.25 84.75 0.3 Q86.3 0.45 88.15 1.55 L89.1 2.15 89.3 2.35 89.4 2.4 89.5 2.5 91.05 4.1 91.45 4.7" fill="#ffffff" fill-rule="evenodd" stroke="none"/>
      <path d="M13.65 -20.2 Q14.55 -19.95 15.95 -19.0 L16.1 -18.9 16.2 -18.85 17.2 -18.2 17.7 -17.95 16.15 -18.1 Q13.25 -18.1 11.0 -15.75 L11.75 -15.75 12.85 -15.5 13.95 -15.3 14.75 -15.45 Q14.65 -16.35 13.8 -16.35 13.45 -16.05 12.9 -15.9 L12.8 -16.5 14.25 -16.7 Q15.1 -16.7 15.15 -15.7 15.25 -14.7 13.95 -14.7 L12.4 -15.0 10.55 -15.3 9.0 -13.15 8.8 -12.8 Q6.2 -11.5 4.35 -8.3 L4.1 -8.5 3.9 -8.75 4.05 -10.1 4.9 -11.3 6.95 -13.6 6.85 -14.7 8.1 -16.45 Q9.0 -16.5 9.3 -16.85 L10.7 -18.95 10.9 -19.2 13.05 -20.0 13.65 -20.2 M18.65 -17.7 Q19.25 -17.8 19.9 -18.45 20.7 -19.25 21.75 -19.25 L22.15 -19.25 23.4 -18.4 24.5 -17.65 24.55 -17.65 25.75 -16.2 Q26.4 -15.6 27.75 -15.6 29.2 -15.55 30.3 -14.7 31.05 -14.05 31.1 -12.7 31.05 -11.25 31.15 -10.8 31.4 -9.85 33.05 -8.9 34.6 -8.1 34.6 -7.2 L34.15 -5.65 34.1 -5.55 34.05 -5.4 33.5 -6.45 Q32.3 -8.5 30.25 -9.6 29.3 -10.1 28.3 -11.9 27.3 -13.65 25.85 -14.25 25.8 -14.25 25.6 -14.35 L27.0 -12.65 31.0 -7.1 31.9 -5.65 30.25 -4.0 31.9 -5.65 32.9 -6.6 32.7 -2.6 Q32.5 0.65 32.8 2.05 33.1 3.45 32.85 5.5 L32.65 7.95 27.8 3.3 27.6 0.6 27.75 -1.55 30.25 -4.0 Q29.8 -4.5 29.3 -5.35 L27.1 -9.8 Q23.9 -16.35 20.1 -16.35 L19.8 -16.25 19.8 -15.9 Q19.8 -14.75 20.45 -14.4 L21.15 -14.25 21.65 -14.4 22.35 -14.9 22.5 -14.9 22.55 -14.7 Q22.55 -13.95 21.55 -13.7 L20.55 -13.65 Q20.05 -13.65 19.65 -14.15 19.05 -14.85 19.05 -16.1 19.05 -17.1 19.9 -17.2 L18.65 -17.7 M36.5 1.95 L36.5 -0.45 43.35 -0.75 50.6 -0.9 52.5 -1.15 52.6 -1.15 54.4 1.45 54.45 1.45 52.05 1.6 47.4 2.15 Q42.0 1.7 36.5 1.95 M36.5 -1.95 L36.5 -2.55 36.9 -3.05 38.45 -3.25 40.05 -4.1 41.95 -4.6 Q43.35 -5.0 43.7 -5.8 44.2 -6.85 46.0 -7.05 L47.8 -7.25 48.4 -6.3 47.3 -5.85 41.8 -3.05 Q39.2 -1.8 37.0 -1.8 36.7 -1.8 36.5 -1.95 M49.85 -6.9 L49.7 -7.5 49.4 -8.2 48.95 -7.7 49.95 -9.25 50.3 -9.75 51.85 -8.15 52.35 -7.7 49.95 -6.9 49.85 -6.9 M51.5 -4.85 L51.95 -4.9 52.4 -4.95 53.45 -4.9 Q54.15 -4.7 54.3 -4.05 L54.2 -3.75 53.35 -4.05 52.6 -4.0 52.0 -3.85 52.15 -3.9 51.9 -4.25 51.5 -4.85 M54.4 -1.55 L55.95 -2.05 56.45 -2.2 56.2 -2.1 Q56.5 -0.6 57.5 0.65 L55.85 1.05 55.25 0.15 54.1 -1.5 54.4 -1.55 M63.2 -1.2 L63.75 -1.55 63.0 -2.35 61.5 -4.05 63.25 -4.7 67.95 -6.35 69.8 -6.65 Q70.8 -5.3 73.1 -2.85 L72.3 -3.35 67.4 -3.5 Q65.7 -2.85 64.15 -1.8 L63.2 -1.2 M73.95 -2.0 L77.35 1.4 77.2 1.55 77.1 1.6 76.85 1.8 76.8 1.8 76.7 1.85 Q75.6 2.5 74.35 2.75 L72.6 3.0 Q71.3 3.0 70.4 2.15 L69.2 0.95 68.95 0.65 68.75 0.45 68.65 0.15 68.7 0.35 68.6 0.2 68.65 0.15 Q70.7 2.25 74.1 1.6 L74.65 1.3 74.8 0.1 74.45 -1.1 73.95 -2.0 M67.8 -9.85 L58.95 -9.1 57.7 -10.6 Q57.35 -10.3 57.0 -10.1 L58.1 -11.1 Q59.35 -12.55 61.65 -12.55 L64.95 -12.0 Q66.55 -11.45 67.25 -11.45 L67.1 -11.45 67.5 -11.0 68.5 -9.85 67.8 -9.85 M50.05 -3.95 L50.7 -3.1 Q49.65 -2.4 48.75 -2.4 L48.45 -2.45 48.3 -2.55 50.05 -3.95 M84.0 -1.15 Q86.9 -1.0 89.05 0.35 91.5 1.85 91.6 4.2 L91.6 4.35 91.55 4.8 91.55 4.9 91.45 4.7 91.05 4.1 89.5 2.5 89.4 2.4 89.3 2.35 89.1 2.15 88.15 1.55 Q86.3 0.45 84.75 0.3 L83.65 -1.2 84.0 -1.15 M85.6 1.4 L85.95 2.05 86.0 2.3 85.4 1.3 85.05 1.1 85.45 1.3 85.6 1.4 M98.0 8.9 Q97.45 7.8 97.2 6.65 96.8 5.0 95.55 4.05 L93.45 2.0 Q89.75 -3.9 85.95 -5.3 L80.45 -7.5 79.05 -9.95 78.95 -9.95 81.45 -10.8 Q83.6 -10.8 85.2 -8.75 L87.85 -5.15 Q88.1 -4.9 90.6 -3.9 92.45 -3.1 93.0 -1.3 93.85 1.6 95.2 2.55 97.4 4.2 98.0 5.0 L98.55 6.5 98.85 7.8 Q99.35 8.7 101.05 9.65 L98.0 8.9" fill="#9ea4ad" fill-rule="evenodd" stroke="none"/>
      <path d="M4.05 -10.1 L3.9 -8.75 3.9 -7.5 4.35 -8.3 Q6.2 -11.5 8.8 -12.8 L17.25 -13.05 Q25.85 -10.4 27.75 -1.55 L30.25 -4.0 31.9 -5.65 32.9 -6.6 32.9 -6.65 34.05 -5.35 34.05 -5.3 34.15 -5.25 36.1 -3.0 M36.75 -3.1 Q39.95 -11.25 32.85 -18.4 25.45 -25.8 16.3 -24.0 7.1 -22.2 5.35 -15.85 4.35 -12.3 4.05 -10.1 M33.7 7.55 L36.45 4.35 36.5 2.8 36.5 1.95 36.5 -0.45 36.5 -1.95 36.5 -2.55 36.1 -3.0 M36.9 -3.05 L36.5 -2.55 36.75 -3.1 M32.65 7.95 L33.0 8.3 33.7 7.55 M88.6 7.0 L98.0 8.9 101.05 9.65 Q98.4 -4.05 90.4 -11.15 82.3 -18.3 71.6 -18.55 60.8 -18.85 52.0 -14.8 43.4 -10.9 36.9 -3.05 M67.85 4.75 L81.05 5.95 88.6 7.0 M61.05 4.4 L67.5 4.7 67.85 4.75 M56.0 4.25 L58.0 4.3 M61.05 4.4 L58.0 4.3 M27.6 0.6 L27.15 1.75 M27.75 -1.55 L27.6 0.6 27.8 3.3 32.65 7.95 M36.45 4.35 Q46.75 4.05 56.0 4.25" fill="none" stroke="#000000" stroke-linecap="round" stroke-linejoin="round" stroke-opacity="0.4" stroke-width="0.05"/>
    </g>
    <g id="sprite0" transform="matrix(1.0, 0.0, 0.0, 1.0, 94.05, 92.55)">
      <use height="193.8" transform="matrix(1.0, 0.0, 0.0, 1.0, -94.05, -92.55)" width="23.1" xlink:href="#shape1"/>
    </g>
    <g id="shape1" transform="matrix(1.0, 0.0, 0.0, 1.0, 94.05, 92.55)">
      <path d="M-76.2 -29.0 L-74.75 -28.8 -73.45 -28.9 -72.9 -29.0 Q-72.15 -29.0 -72.15 -28.75 L-72.95 -27.7 -74.05 -26.55 -74.85 -25.45 Q-75.4 -24.8 -76.55 -24.65 L-78.05 -24.6 Q-78.4 -24.75 -78.4 -25.1 -76.85 -29.0 -76.2 -29.0 M-72.7 -28.55 L-72.7 -28.6 -72.75 -28.6 -72.7 -28.55 M-76.7 -23.15 L-76.7 -23.95 -76.3 -23.95 -76.3 -23.75 -76.15 -21.45 -76.25 -20.3 Q-75.9 -6.15 -75.9 46.65 L-76.0 69.0 -76.0 69.5 -76.1 80.05 -76.2 87.55 -76.2 87.75 -76.15 92.85 Q-76.15 97.85 -76.3 100.45 L-76.7 100.65 -77.0 95.95 -77.05 92.8 -76.8 77.65 -76.8 78.45 -76.8 77.4 -76.9 67.05 -76.9 65.25 -76.9 46.7 -76.85 -5.9 -76.9 -14.7 -76.7 -20.0 -76.75 -19.4 -76.8 -21.45 -76.7 -23.15" fill="#ffd633" fill-rule="evenodd" stroke="none"/>
      <path d="M-82.2 -25.2 L-85.4 -22.85 -89.25 -19.95 Q-90.25 -18.95 -91.95 -15.9 L-91.8 -16.4 Q-91.25 -19.25 -90.9 -19.95 -89.95 -21.65 -87.05 -23.2 -83.7 -24.75 -82.5 -25.35 L-82.2 -25.2 M-92.75 -12.5 Q-92.75 -12.1 -93.1 -10.85 L-93.45 -9.2 -93.3 -8.7 -92.85 -8.1 -92.9 -7.95 Q-94.05 -8.35 -93.85 -9.35 L-93.45 -10.95 -94.05 -13.05 Q-94.05 -13.9 -93.1 -14.5 L-92.3 -15.25 -93.15 -13.65 -92.75 -12.5 M-71.1 -92.55 L-70.95 -91.95 -72.35 -84.0 -73.95 -73.95 -74.55 -65.1 -75.0 -56.1 -74.7 -52.55 Q-74.7 -50.3 -75.15 -46.2 -75.5 -42.65 -75.35 -39.05 L-75.8 -39.8 -75.8 -40.65 -75.55 -44.0 -75.3 -47.4 -76.25 -54.3 Q-76.55 -56.6 -76.35 -57.75 -76.15 -58.95 -77.7 -60.95 L-77.4 -61.5 -77.15 -62.15 -77.35 -63.05 -77.6 -63.95 -77.5 -64.5 Q-77.3 -64.75 -76.05 -65.0 -74.95 -70.5 -74.1 -78.8 L-72.95 -85.55 -71.4 -92.55 -71.1 -92.55 M-76.7 100.65 L-76.6 100.65 -76.65 101.25 -77.1 101.1 -78.25 100.8 -78.35 98.25 Q-77.8 94.3 -77.8 92.6 -77.95 75.95 -77.25 70.15 L-77.25 70.05 -77.4 66.1 -77.15 7.7 -77.15 -21.8 -76.85 -22.85 -76.7 -23.15 -76.8 -21.45 -76.75 -19.4 -76.7 -20.0 -76.9 -14.7 -76.85 -5.9 -76.9 46.7 -76.9 65.25 -76.9 67.05 -76.8 77.4 -76.8 78.45 -76.8 77.65 -77.05 92.8 -77.0 95.95 -76.7 100.65 M-76.3 -23.75 Q-75.95 -23.35 -76.0 -22.9 L-76.1 -22.45 -75.6 66.1 -75.7 71.5 -76.1 80.05 -76.0 69.5 -76.0 69.0 -75.9 46.65 Q-75.9 -6.15 -76.25 -20.3 L-76.15 -21.45 -76.3 -23.75" fill="#ffd633" fill-opacity="0.4" fill-rule="evenodd" stroke="none"/>
    </g>
  </defs>
</svg>
