<?xml version="1.0" encoding="UTF-8" standalone="no"?>
<svg xmlns:xlink="http://www.w3.org/1999/xlink" height="13.35px" width="33.3px" xmlns="http://www.w3.org/2000/svg">
  <g transform="matrix(1.0, 0.0, 0.0, 1.0, 16.5, 25.65)">
    <use height="13.35" transform="matrix(1.0, 0.0, 0.0, 1.0, -16.5, -25.65)" width="33.3" xlink:href="#shape0"/>
    <use height="2.9" transform="matrix(1.0, 0.0, 0.0, 1.0, -15.5, -24.9)" width="2.8" xlink:href="#sprite0"/>
    <use height="2.9" transform="matrix(1.0, 0.0, 0.0, 1.0, -11.0, -24.9)" width="2.8" xlink:href="#sprite0"/>
    <use height="2.9" transform="matrix(1.0, 0.0, 0.0, 1.0, -8.3, -24.9)" width="2.8" xlink:href="#sprite0"/>
    <use height="2.9" transform="matrix(1.0, 0.0, 0.0, 1.0, -5.6, -24.9)" width="2.8" xlink:href="#sprite0"/>
    <use height="2.9" transform="matrix(1.0, 0.0, 0.0, 1.0, -2.9, -24.9)" width="2.8" xlink:href="#sprite0"/>
    <use height="2.9" transform="matrix(1.0, 0.0, 0.0, 1.0, 1.0, -24.9)" width="2.8" xlink:href="#sprite0"/>
    <use height="2.9" transform="matrix(1.0, 0.0, 0.0, 1.0, 3.7, -24.9)" width="2.8" xlink:href="#sprite0"/>
    <use height="2.9" transform="matrix(1.0, 0.0, 0.0, 1.0, 6.4, -24.9)" width="2.8" xlink:href="#sprite0"/>
    <use height="2.9" transform="matrix(1.0, 0.0, 0.0, 1.0, 9.1, -24.9)" width="2.8" xlink:href="#sprite0"/>
    <use height="2.9" transform="matrix(1.0, 0.0, 0.0, 1.0, -15.35, -20.7)" width="2.8" xlink:href="#sprite0"/>
    <use height="2.9" transform="matrix(1.0, 0.0, 0.0, 1.0, -12.65, -20.7)" width="2.8" xlink:href="#sprite0"/>
    <use height="2.9" transform="matrix(1.0, 0.0, 0.0, 1.0, -9.95, -20.7)" width="2.8" xlink:href="#sprite0"/>
    <use height="2.9" transform="matrix(1.0, 0.0, 0.0, 1.0, -7.25, -20.7)" width="2.8" xlink:href="#sprite0"/>
    <use height="2.9" transform="matrix(1.0, 0.0, 0.0, 1.0, -4.5, -20.7)" width="2.8" xlink:href="#sprite0"/>
    <use height="2.9" transform="matrix(1.0, 0.0, 0.0, 1.0, -1.8, -20.7)" width="2.8" xlink:href="#sprite0"/>
    <use height="2.9" transform="matrix(1.0, 0.0, 0.0, 1.0, 0.9, -20.7)" width="2.8" xlink:href="#sprite0"/>
    <use height="2.9" transform="matrix(1.0, 0.0, 0.0, 1.0, 3.6, -20.7)" width="2.8" xlink:href="#sprite0"/>
    <use height="2.9" transform="matrix(1.0, 0.0, 0.0, 1.0, 7.0, -20.7)" width="2.8" xlink:href="#sprite0"/>
    <use height="2.9" transform="matrix(1.0, 0.0, 0.0, 1.0, 9.7, -20.7)" width="2.8" xlink:href="#sprite0"/>
    <use height="2.9" transform="matrix(1.0, 0.0, 0.0, 1.0, 12.4, -20.7)" width="2.8" xlink:href="#sprite0"/>
    <use height="2.9" transform="matrix(1.0, 0.0, 0.0, 1.0, -15.35, -17.65)" width="2.8" xlink:href="#sprite0"/>
    <use height="2.9" transform="matrix(1.0, 0.0, 0.0, 1.0, -12.65, -17.65)" width="2.8" xlink:href="#sprite0"/>
    <use height="2.9" transform="matrix(1.0, 0.0, 0.0, 1.0, -9.95, -17.65)" width="10.95" xlink:href="#shape2"/>
    <use height="2.9" transform="matrix(1.0, 0.0, 0.0, 1.0, 0.9, -17.65)" width="2.8" xlink:href="#sprite0"/>
    <use height="2.9" transform="matrix(1.0, 0.0, 0.0, 1.0, 3.6, -17.65)" width="2.8" xlink:href="#sprite0"/>
    <use height="2.9" transform="matrix(1.0, 0.0, 0.0, 1.0, 7.0, -17.65)" width="2.8" xlink:href="#sprite0"/>
    <use height="2.9" transform="matrix(1.0, 0.0, 0.0, 1.0, 9.7, -17.65)" width="2.8" xlink:href="#sprite0"/>
    <use height="2.9" transform="matrix(1.0, 0.0, 0.0, 1.0, 12.4, -17.65)" width="2.8" xlink:href="#sprite0"/>
  </g>
  <defs>
    <g id="shape0" transform="matrix(1.0, 0.0, 0.0, 1.0, 16.5, 25.65)">
      <path d="M15.2 -25.65 L16.8 -24.55 16.8 -12.3 16.0 -13.1 16.8 -12.3 -15.4 -12.3 -16.0 -13.1 16.0 -13.1 15.2 -25.65" fill="#d0bb8c" fill-rule="evenodd" stroke="none"/>
      <path d="M15.2 -25.65 L16.0 -13.1 -16.0 -13.1 -16.5 -25.65 15.2 -25.65 M1.0 -14.75 L1.0 -16.95 0.4 -17.65 -1.8 -17.65 -1.8 -17.05 -2.3 -17.65 -4.5 -17.65 -4.5 -17.0 -5.05 -17.65 -7.25 -17.65 -7.25 -17.05 -7.75 -17.65 -9.95 -17.65 -9.95 -15.45 -9.35 -14.75 -7.15 -14.75 -7.15 -15.3 -6.65 -14.75 -4.45 -14.75 -4.45 -15.4 -3.9 -14.75 -1.7 -14.75 -1.7 -15.3 -1.2 -14.75 1.0 -14.75" fill="url(#gradient0)" fill-rule="evenodd" stroke="none"/>
      <path d="M16.8 -12.3 L16.8 -24.55 15.2 -25.65 16.0 -13.1 16.8 -12.3 -15.4 -12.3 -16.0 -13.1 -16.5 -25.65 15.2 -25.65 M16.0 -13.1 L-16.0 -13.1" fill="none" stroke="#000000" stroke-linecap="round" stroke-linejoin="round" stroke-opacity="0.4" stroke-width="0.05"/>
    </g>
    <linearGradient gradientTransform="matrix(0.021, 0.0056, -0.002, 0.0074, -0.25, -19.4)" gradientUnits="userSpaceOnUse" id="gradient0" spreadMethod="pad" x1="-819.2" x2="819.2">
      <stop offset="0.0" stop-color="#ffffcc"/>
      <stop offset="1.0" stop-color="#eddebc"/>
    </linearGradient>
    <g id="sprite0" transform="matrix(1.0, 0.0, 0.0, 1.0, 1.4, 1.45)">
      <use height="2.9" transform="matrix(1.0, 0.0, 0.0, 1.0, -1.4, -1.45)" width="2.8" xlink:href="#shape1"/>
    </g>
    <g id="shape1" transform="matrix(1.0, 0.0, 0.0, 1.0, 1.4, 1.45)">
      <path d="M-1.4 0.75 L-1.4 -1.45 0.8 -1.45 0.8 0.7 0.8 0.75 -1.4 0.75" fill="#ffffcc" fill-rule="evenodd" stroke="none"/>
      <path d="M0.8 -1.45 L1.4 -0.75 1.4 1.45 -0.8 1.45 -1.4 0.75 0.8 0.75 0.8 0.7 0.8 -1.45 M1.4 1.45 L0.8 0.7 1.4 1.45" fill="#d0bb8c" fill-rule="evenodd" stroke="none"/>
      <path d="M0.8 -1.45 L1.4 -0.75 1.4 1.45 -0.8 1.45 -1.4 0.75 -1.4 -1.45 0.8 -1.45 0.8 0.7 1.4 1.45 M0.8 0.7 L0.8 0.75 -1.4 0.75" fill="none" stroke="#000000" stroke-linecap="round" stroke-linejoin="round" stroke-opacity="0.2" stroke-width="0.05"/>
    </g>
    <g id="shape2" transform="matrix(1.0, 0.0, 0.0, 1.0, 9.95, 17.65)">
      <path d="M-2.25 -15.45 L0.4 -15.45 0.4 -15.5 0.45 -15.45 1.0 -14.75 0.45 -15.45 0.4 -15.5 0.4 -17.65 1.0 -16.95 1.0 -14.75 -9.35 -14.75 -9.95 -15.45 -7.75 -15.45 -7.75 -15.5 -7.7 -15.45 -5.05 -15.45 -5.05 -15.5 -5.0 -15.45 -2.3 -15.45 -2.3 -15.5 -2.25 -15.45 M-5.05 -15.45 L-5.0 -15.45 -5.05 -15.45" fill="#d0bb8c" fill-rule="evenodd" stroke="none"/>
      <path d="M0.4 -15.5 L0.4 -15.45 -2.25 -15.45 -2.3 -15.5 -2.3 -15.45 -5.0 -15.45 -5.05 -15.5 -5.05 -15.45 -7.7 -15.45 -7.75 -15.5 -7.75 -15.45 -9.95 -15.45 -9.95 -17.65 0.4 -17.65 0.4 -15.5" fill="#ffffcc" fill-rule="evenodd" stroke="none"/>
      <path d="M0.4 -15.5 L0.4 -15.45 -2.25 -15.45 M-2.3 -15.45 L-5.0 -15.45 -5.05 -15.45 -7.7 -15.45 M-7.75 -15.45 L-9.95 -15.45 -9.35 -14.75 1.0 -14.75 0.45 -15.45 0.4 -15.5 0.4 -17.65 -9.95 -17.65 -9.95 -15.45 M1.0 -14.75 L1.0 -16.95 0.4 -17.65" fill="none" stroke="#000000" stroke-linecap="round" stroke-linejoin="round" stroke-opacity="0.2" stroke-width="0.05"/>
    </g>
  </defs>
</svg>
