<?xml version="1.0" encoding="UTF-8" standalone="no"?>
<svg xmlns:xlink="http://www.w3.org/1999/xlink" height="9.95px" width="28.45px" xmlns="http://www.w3.org/2000/svg">
  <g transform="matrix(1.0, 0.0, 0.0, 1.0, 14.35, 4.95)">
    <use height="9.95" transform="matrix(1.0, 0.0, 0.0, 1.0, -14.35, -4.95)" width="28.45" xlink:href="#shape0"/>
  </g>
  <defs>
    <g id="shape0" transform="matrix(1.0, 0.0, 0.0, 1.0, 14.35, 4.95)">
      <path d="M-0.75 2.15 L-0.85 1.85 Q-0.7 0.7 -0.95 -0.95 -0.9 -1.9 0.55 -1.5 L1.75 -1.5 Q1.65 -1.2 2.1 0.9 L0.6 1.55 -0.75 2.15 M-14.1 -2.05 L-14.0 -2.3 -13.95 -2.4 -12.6 -4.95 -11.2 -4.2 -10.7 -3.75 -11.95 -2.0 -12.0 -1.7 -11.95 -2.0 -11.9 -2.0 -12.0 -1.7 -12.05 -1.6 -12.45 -1.7 -12.75 -1.75 -14.1 -2.05" fill="#d6baba" fill-rule="evenodd" stroke="none"/>
      <path d="M-0.75 2.15 L0.6 1.55 2.1 0.9 2.75 4.55 -0.4 5.0 Q-0.4 3.85 -0.75 2.15 M9.25 -4.35 L10.3 -4.7 Q11.45 -4.7 12.75 -3.7 14.4 -2.35 14.0 0.0 13.9 0.65 13.2 0.9 L11.65 1.6 Q12.2 0.9 11.3 -1.65 10.45 -4.25 9.25 -4.35 M-14.1 -2.05 L-12.75 -1.75 -12.45 -1.7 -12.05 -1.6 -12.1 -0.65 -11.7 1.45 -14.0 0.6 -14.35 -0.25 -14.25 -1.7 -14.1 -2.05" fill="#a78383" fill-rule="evenodd" stroke="none"/>
      <path d="M2.1 0.9 Q1.65 -1.2 1.75 -1.5 L0.55 -1.5 Q-0.9 -1.9 -0.95 -0.95 -0.7 0.7 -0.85 1.85 L-0.75 2.15 M2.1 0.9 L2.75 4.55 -0.4 5.0 Q-0.4 3.85 -0.75 2.15 M9.25 -4.35 Q10.45 -4.25 11.3 -1.65 12.2 0.9 11.65 1.6 L13.2 0.9 Q13.9 0.65 14.0 0.0 14.4 -2.35 12.75 -3.7 11.45 -4.7 10.3 -4.7 L9.25 -4.35 M-11.95 -2.0 L-10.7 -3.75 -11.2 -4.2 -12.6 -4.95 -13.95 -2.4 -14.0 -2.3 -14.1 -2.05 -14.25 -1.7 -14.35 -0.25 -14.0 0.6 -11.7 1.45 -12.1 -0.65 -12.05 -1.6 M-12.0 -1.7 L-11.95 -2.0" fill="none" stroke="#000000" stroke-linecap="round" stroke-linejoin="round" stroke-opacity="0.3019608" stroke-width="0.05"/>
    </g>
  </defs>
</svg>
