<?xml version="1.0" encoding="UTF-8" standalone="no"?>
<svg xmlns:xlink="http://www.w3.org/1999/xlink" height="1411.2px" width="1411.15px" xmlns="http://www.w3.org/2000/svg">
  <g transform="matrix(1.0, 0.0, 0.0, 1.0, 761.45, 761.45)">
    <clipPath id="clipPath0" transform="matrix(1.0, 0.0, 0.0, 1.0, 761.45, 761.45)">
      <use height="4.0" transform="matrix(2.1296, 0.0, 0.0, 99.8251, -400.0, -400.0)" width="230.0" xlink:href="#shape0"/>
    </clipPath>
    <g clip-path="url(#clipPath0)">
      <use height="75.7" transform="matrix(0.7071, 0.7071, -0.7071, 0.7071, 44.4975, -8.9805)" width="855.85" xlink:href="#sprite0"/>
    </g>
  </g>
  <defs>
    <g id="shape0" transform="matrix(1.0, 0.0, 0.0, 1.0, 0.0, 0.0)">
      <path d="M230.0 4.0 L0.0 4.0 0.0 0.0 230.0 0.0 230.0 4.0" fill="#ff0000" fill-rule="evenodd" stroke="none"/>
    </g>
    <g id="sprite0" transform="matrix(1.0, 0.0, 0.0, 1.0, 544.0, 37.85)">
      <use height="75.7" transform="matrix(1.0, 0.0, 0.0, 1.0, -544.0, -37.85)" width="855.85" xlink:href="#shape1"/>
    </g>
    <g id="shape1" transform="matrix(1.0, 0.0, 0.0, 1.0, 544.0, 37.85)">
      <path d="M140.5 -29.5 L95.45 -37.85 255.2 -37.85 311.85 0.0 255.2 37.85 122.3 37.85 183.95 25.1 45.35 25.1 143.2 17.0 -135.5 17.0 31.9 7.6 -311.85 0.0 74.75 -15.55 -69.9 -29.5 140.5 -29.5" fill="#ffffff" fill-rule="evenodd" stroke="none"/>
      <path d="M-91.65 -29.5 L-136.7 -37.85 178.0 -37.85 178.0 37.85 -109.85 37.85 -48.2 25.1 -186.8 25.1 -88.95 17.0 -367.65 17.0 -200.25 7.6 -544.0 0.0 -157.4 -15.55 -302.05 -29.5 -91.65 -29.5" fill="#ffffff" fill-opacity="0.4" fill-rule="evenodd" stroke="none"/>
    </g>
  </defs>
</svg>
