<?xml version="1.0" encoding="UTF-8" standalone="no"?>
<svg xmlns:xlink="http://www.w3.org/1999/xlink" height="32.4px" width="13.35px" xmlns="http://www.w3.org/2000/svg">
  <g transform="matrix(1.0, 0.0, 0.0, 1.0, 6.7, 16.2)">
    <use height="32.4" transform="matrix(1.0, 0.0, 0.0, 1.0, -6.7, -16.2)" width="13.35" xlink:href="#shape0"/>
  </g>
  <defs>
    <g id="shape0" transform="matrix(1.0, 0.0, 0.0, 1.0, 6.7, 16.2)">
      <path d="M6.65 -11.4 Q6.2 -10.05 5.15 -8.95 3.35 -7.05 2.6 -4.85 L0.45 -5.45 Q-3.7 -7.05 -6.15 -10.8 -6.75 -12.15 -6.7 -13.5 -6.65 -14.2 -6.25 -14.65 -4.65 -16.85 -2.05 -15.9 2.65 -14.35 6.65 -11.4 M-2.35 -2.95 L2.15 -2.95 Q1.8 -0.7 2.5 1.85 3.65 5.95 1.85 9.8 L2.35 10.35 Q3.95 12.55 2.25 13.15 L-2.1 16.2 -3.0 12.5 -3.85 12.5 Q-3.85 11.6 -4.35 9.6 -4.9 7.6 -4.95 4.65 L-6.15 4.85 -6.45 3.15 Q-7.0 -0.7 -6.3 -4.2 L-2.35 -2.95 -2.65 -2.25 Q-3.4 0.65 -3.7 3.7 L-2.95 3.35 -2.45 12.3 1.6 9.8 -2.45 12.3 -2.95 3.35 -3.7 3.7 Q-3.4 0.65 -2.65 -2.25 L-2.35 -2.95 M-3.7 3.7 L-3.6 4.6 -4.95 4.65 -3.6 4.6 -3.7 3.7 M-2.45 12.3 L-3.0 12.5 -2.45 12.3" fill="#d6baba" fill-rule="evenodd" stroke="none"/>
      <path d="M6.65 -11.4 Q2.65 -14.35 -2.05 -15.9 -4.65 -16.85 -6.25 -14.65 -6.65 -14.2 -6.7 -13.5 -6.75 -12.15 -6.15 -10.8 M-2.35 -2.95 L-2.65 -2.25 Q-3.4 0.65 -3.7 3.7 L-2.95 3.35 -2.45 12.3 1.6 9.8 M-4.95 4.65 L-3.6 4.6 -3.7 3.7 M-6.3 -4.2 Q-7.0 -0.7 -6.45 3.15 L-6.15 4.85 -4.95 4.65 Q-4.9 7.6 -4.35 9.6 -3.85 11.6 -3.85 12.5 L-3.0 12.5 -2.45 12.3 M-3.0 12.5 L-2.1 16.2 2.25 13.15" fill="none" stroke="#000000" stroke-linecap="round" stroke-linejoin="round" stroke-opacity="0.3019608" stroke-width="0.05"/>
    </g>
  </defs>
</svg>
