<?xml version="1.0" encoding="UTF-8" standalone="no"?>
<svg xmlns:xlink="http://www.w3.org/1999/xlink" height="115.6px" width="108.25px" xmlns="http://www.w3.org/2000/svg">
  <g transform="matrix(1.0, 0.0, 0.0, 1.0, 56.1, 59.8)">
    <use height="6.0" id="_col1b" transform="matrix(3.5073, 0.0, -0.257, 3.5073, -29.7811, 23.2469)" width="19.4" xlink:href="#sprite0"/>
    <use height="63.95" id="_col0a" transform="matrix(1.0, 0.0, 0.0, 1.0, -31.35, -25.9)" width="63.3" xlink:href="#sprite1"/>
    <use height="28.7" transform="matrix(0.9958, 0.088, 0.0, 1.0, -32.563, 2.769)" width="42.9" xlink:href="#sprite2"/>
    <use height="12.9" id="_col1d" transform="matrix(1.0, 0.0, 0.0, 1.0, -32.3, 5.25)" width="38.3" xlink:href="#sprite7"/>
    <use height="42.75" id="_p4" transform="matrix(1.0, 0.0, 0.0, 1.0, -28.0497, 13.0502)" width="46.6" xlink:href="#sprite8"/>
    <use height="19.35" id="_col0c" transform="matrix(1.0, 0.0, 0.0, 1.0, 12.55, 11.7)" width="17.9" xlink:href="#sprite10"/>
    <use height="22.4" id="_col1a" transform="matrix(3.5073, 0.0, -0.0143, 3.5073, -42.7225, -36.8817)" width="22.8" xlink:href="#sprite11"/>
  </g>
  <defs>
    <g id="sprite0" transform="matrix(1.0, 0.0, 0.0, 1.0, 9.7, 3.85)">
      <use height="6.0" transform="matrix(1.0, 0.0, 0.0, 1.0, -9.7, -3.85)" width="19.4" xlink:href="#shape0"/>
    </g>
    <g id="shape0" transform="matrix(1.0, 0.0, 0.0, 1.0, 9.7, 3.85)">
      <path d="M5.95 0.75 L5.85 0.85 5.85 0.8 5.95 0.75 M-6.65 -3.65 L-5.3 -3.35 Q-4.35 -2.95 -4.35 -2.2 -4.35 -1.6 -4.85 -0.9 -5.6 0.15 -7.05 0.4 L-7.8 0.4 -7.8 0.3 -6.9 -0.8 -6.9 -1.1 -7.8 -0.4 -8.65 -0.35 -9.3 -0.45 Q-8.9 -0.75 -8.65 -1.25 L-8.3 -2.05 -9.0 -1.8 -9.7 -1.6 -9.7 -1.7 -8.0 -3.55 -7.3 -3.5 -6.65 -3.65" fill="#ffffff" fill-rule="evenodd" stroke="none"/>
      <path d="M5.85 0.8 L5.35 1.2 5.4 0.8 5.05 -0.6 4.35 -0.3 3.65 0.1 3.55 0.1 2.9 -1.75 2.35 -1.4 0.95 -1.8 0.1 -2.05 3.1 -3.2 5.3 -3.75 5.3 -3.8 5.5 -3.8 6.15 -3.8 5.95 -3.8 Q7.45 -3.75 9.0 -3.15 L9.35 -3.0 9.65 -2.35 9.65 -2.3 9.7 -2.2 9.7 -1.65 Q9.7 -0.35 8.85 1.05 L8.65 -0.35 8.55 -0.45 Q8.5 0.25 7.65 0.95 L6.05 2.15 Q6.05 1.8 6.2 1.7 L6.2 0.65 6.05 0.55 5.95 0.75 5.85 0.8" fill="#d6baba" fill-rule="evenodd" stroke="none"/>
      <path d="M5.85 0.8 L5.35 1.2 5.4 0.8 5.05 -0.6 4.35 -0.3 3.65 0.1 3.55 0.1 2.9 -1.75 2.35 -1.4 0.95 -1.8 0.1 -2.05 M9.35 -3.0 L9.65 -2.35 9.65 -2.3 9.7 -2.2 9.7 -1.65 Q9.7 -0.35 8.85 1.05 L8.65 -0.35 8.55 -0.45 Q8.5 0.25 7.65 0.95 L6.05 2.15 Q6.05 1.8 6.2 1.7 L6.2 0.65 6.05 0.55 5.95 0.75 5.85 0.85 M5.85 0.8 L5.95 0.75 M-6.65 -3.65 L-7.3 -3.5 -8.0 -3.55 -9.7 -1.7 -9.7 -1.6 -9.0 -1.8 -8.3 -2.05 -8.65 -1.25 Q-8.9 -0.75 -9.3 -0.45 L-8.65 -0.35 -7.8 -0.4 -6.9 -1.1 -6.9 -0.8 -7.8 0.3 -7.8 0.4 -7.05 0.4 Q-5.6 0.15 -4.85 -0.9 -4.35 -1.6 -4.35 -2.2 -4.35 -2.95 -5.3 -3.35 L-6.65 -3.65" fill="none" stroke="#000000" stroke-linecap="round" stroke-linejoin="round" stroke-opacity="0.3019608" stroke-width="0.05"/>
    </g>
    <g id="sprite1" transform="matrix(1.0, 0.0, 0.0, 1.0, 31.35, 31.95)">
      <use height="63.95" transform="matrix(1.0, 0.0, 0.0, 1.0, -31.35, -31.95)" width="63.3" xlink:href="#shape1"/>
    </g>
    <g id="shape1" transform="matrix(1.0, 0.0, 0.0, 1.0, 31.35, 31.95)">
      <path d="M-19.5 28.2 L-22.1 26.65 Q-27.15 23.0 -26.25 17.45 L-26.1 16.25 Q-25.6 14.5 -26.1 13.1 L-26.25 12.75 -26.8 12.05 -26.95 11.9 Q-28.55 9.8 -29.4 7.55 -30.95 3.9 -31.3 0.45 -31.65 -8.75 -27.5 -17.1 -23.3 -26.45 -14.45 -29.55 -4.75 -32.85 5.15 -31.65 L5.85 -31.6 7.9 -29.9 Q13.45 -25.9 12.95 -19.0 12.25 -10.65 9.3 -2.7 7.55 1.65 3.4 3.55 -5.3 7.9 -13.95 11.7 L-15.0 11.55 Q-17.95 9.45 -19.35 11.9 -20.55 11.55 -21.6 12.25 L-22.45 13.1 -23.15 12.95 -25.4 12.05 -25.6 12.05 -26.25 11.7 -26.25 11.9 -26.1 12.05 -25.6 12.75 -25.4 13.1 Q-24.9 14.5 -25.4 16.25 L-25.6 17.45 -25.05 17.6 -21.6 18.15 -15.15 19.7 Q-13.45 20.05 -11.85 20.9 -10.85 21.45 -9.95 22.3 -8.9 23.0 -7.9 24.05 L-7.55 24.2 -7.9 24.4 Q-12.9 28.4 -19.5 28.2" fill="#efcdaf" fill-rule="evenodd" stroke="none"/>
      <path d="M-19.5 28.2 Q-12.9 28.4 -7.9 24.4 L-7.55 24.2 -7.9 24.05 Q-8.9 23.0 -9.95 22.3 -10.85 21.45 -11.85 20.9 -13.45 20.05 -15.15 19.7 L-21.6 18.15 -25.05 17.6 -25.6 17.45 -25.4 16.25 Q-24.9 14.5 -25.4 13.1 L-25.6 12.75 -26.1 12.05 -26.25 11.9 -26.25 11.7 -25.6 12.05 -25.4 12.05 -23.15 12.95 -22.45 13.1 -21.6 12.25 Q-20.55 11.55 -19.35 11.9 -17.95 9.45 -15.0 11.55 L-13.95 11.7 Q-5.3 7.9 3.4 3.55 7.55 1.65 9.3 -2.7 12.25 -10.65 12.95 -19.0 13.45 -25.9 7.9 -29.9 L5.85 -31.6 5.8 -31.65 7.55 -31.5 10.7 -30.45 12.95 -29.55 Q15.55 -28.55 18.65 -26.8 27.85 -21.75 30.45 -12.55 32.9 -3.55 31.35 0.8 29.95 4.95 28.55 6.15 27.15 7.2 26.8 8.95 25.95 11.7 24.55 14.35 L22.65 17.45 18.15 22.15 16.75 23.35 16.6 23.35 12.75 25.8 Q7.2 28.9 2.0 30.3 -3.9 32.0 -9.45 32.0 L-10.15 32.0 -13.8 31.0 -17.4 29.4 -19.5 28.2" fill="#c6886a" fill-rule="evenodd" stroke="none"/>
      <path d="M5.85 -31.6 L5.15 -31.65 Q-4.75 -32.85 -14.45 -29.55 -23.3 -26.45 -27.5 -17.1 -31.65 -8.75 -31.3 0.45 -30.95 3.9 -29.4 7.55 -28.55 9.8 -26.95 11.9 L-26.8 12.05 -26.25 12.75 -26.1 13.1 Q-25.6 14.5 -26.1 16.25 L-26.25 17.45 Q-27.15 23.0 -22.1 26.65 L-19.5 28.2 M5.85 -31.6 L5.8 -31.65 7.55 -31.5 10.7 -30.45 12.95 -29.55 Q15.55 -28.55 18.65 -26.8 27.85 -21.75 30.45 -12.55 32.9 -3.55 31.35 0.8 29.95 4.95 28.55 6.15 27.15 7.2 26.8 8.95 25.95 11.7 24.55 14.35 L22.65 17.45 18.15 22.15 16.75 23.35 16.6 23.35 12.75 25.8 Q7.2 28.9 2.0 30.3 -3.9 32.0 -9.45 32.0 L-10.15 32.0 -13.8 31.0 -17.4 29.4 -19.5 28.2" fill="none" stroke="#000000" stroke-linecap="round" stroke-linejoin="round" stroke-opacity="0.3019608" stroke-width="0.05"/>
    </g>
    <g id="sprite2" transform="matrix(1.0, 0.0, 0.0, 1.0, 20.8, 22.05)">
      <use height="6.05" id="yeux" transform="matrix(3.5469, 0.6759, 0.0, 3.8129, -7.3594, -22.0349)" width="8.3" xlink:href="#sprite3"/>
      <use height="6.05" transform="matrix(-0.7089, 0.0624, 0.9139, 3.339, -14.9276, -20.8291)" width="8.3" xlink:href="#sprite3"/>
    </g>
    <g id="sprite3" transform="matrix(1.0, 0.0, 0.0, 1.0, 3.4, 5.95)">
      <use height="3.3" transform="matrix(1.0, 0.0, 0.0, 1.0, -2.8, -3.2)" width="6.6" xlink:href="#sprite4"/>
    </g>
    <g id="sprite4" transform="matrix(1.0, 0.0, 0.0, 1.0, 3.05, 0.7)">
      <use height="3.3" transform="matrix(1.0, 0.0, 0.0, 1.0, -3.05, -0.7)" width="6.6" xlink:href="#sprite5"/>
    </g>
    <g id="sprite5" transform="matrix(1.0, 0.0, 0.0, 1.0, 3.4, 1.65)">
      <use height="2.9" transform="matrix(1.0, 0.0, 0.0, 1.0, -3.4, -1.55)" width="5.55" xlink:href="#shape2"/>
      <use height="2.9" id="_col3" transform="matrix(1.0, 0.0, 0.0, 1.0, -1.85, -1.55)" width="2.5" xlink:href="#sprite6"/>
    </g>
    <g id="shape2" transform="matrix(1.0, 0.0, 0.0, 1.0, 3.4, 1.55)">
      <path d="M1.2 -1.45 Q2.05 -0.75 1.7 0.0 L1.3 0.75 0.55 1.05 0.65 0.7 0.65 0.05 0.5 -0.55 -0.15 -1.55 1.2 -1.45 M-1.65 -0.95 L-1.8 -0.1 -1.75 0.45 -1.65 0.75 -1.5 1.0 -1.15 1.3 -1.0 1.35 -2.4 1.3 -2.5 1.1 -2.55 0.35 -1.65 -0.95" fill="#fbfbfb" fill-rule="evenodd" stroke="none"/>
      <path d="M2.15 -1.35 L1.2 -1.45 Q2.05 -0.75 1.7 0.0 L1.3 0.75 M-0.15 -1.55 L-1.65 -0.95 M-2.55 0.35 L-2.95 0.5 -3.4 0.55 M-2.55 0.35 L-1.65 -0.95 M-0.15 -1.55 L1.2 -1.45" fill="none" stroke="#000000" stroke-linecap="round" stroke-linejoin="round" stroke-opacity="0.2509804" stroke-width="0.05"/>
      <path d="M0.55 1.05 L0.65 0.7 0.65 0.05 0.5 -0.55 -0.15 -1.55 M-1.65 -0.95 L-1.8 -0.1 -1.75 0.45 -1.65 0.75 -1.5 1.0 -1.15 1.3 -1.0 1.35" fill="none" stroke="#000000" stroke-linecap="round" stroke-linejoin="round" stroke-opacity="0.4" stroke-width="0.05"/>
    </g>
    <g id="sprite6" transform="matrix(1.0, 0.0, 0.0, 1.0, 1.25, 1.45)">
      <use height="2.9" transform="matrix(1.0, 0.0, 0.0, 1.0, -1.25, -1.45)" width="2.5" xlink:href="#shape3"/>
    </g>
    <g id="shape3" transform="matrix(1.0, 0.0, 0.0, 1.0, 1.25, 1.45)">
      <path d="M-0.1 0.8 L0.1 0.8 0.25 0.75 -0.1 0.8" fill="#cccccc" fill-rule="evenodd" stroke="none"/>
      <path d="M0.25 0.75 L0.45 0.7 0.6 0.6 0.65 0.65 0.15 1.15 Q-0.55 1.4 -0.7 0.9 L-0.6 0.7 -0.1 0.8 0.25 0.75" fill="#ffffff" fill-rule="evenodd" stroke="none"/>
      <path d="M0.45 0.7 L0.25 0.75 0.1 0.8 -0.1 0.8 -0.4 0.5 -0.55 0.0 Q-0.55 -1.05 0.1 -0.85 0.75 -0.7 0.75 0.05 L0.6 0.5 0.45 0.7" fill="#666666" fill-rule="evenodd" stroke="none"/>
      <path d="M1.1 -0.45 L1.25 0.15 1.25 0.8 1.15 1.15 0.85 1.25 -0.4 1.45 -0.55 1.4 -0.9 1.1 -1.05 0.85 -1.15 0.55 -1.2 0.0 -1.05 -0.85 0.45 -1.45 1.1 -0.45 M0.45 0.7 L0.6 0.5 0.75 0.05 Q0.75 -0.7 0.1 -0.85 -0.55 -1.05 -0.55 0.0 L-0.4 0.5 -0.1 0.8 -0.6 0.7 -0.7 0.9 Q-0.55 1.4 0.15 1.15 L0.65 0.65 0.6 0.6 0.45 0.7" fill="#999999" fill-rule="evenodd" stroke="none"/>
      <path d="M1.1 -0.45 L1.25 0.15 1.25 0.8 1.15 1.15 0.85 1.25 -0.4 1.45 -0.55 1.4 -0.9 1.1 -1.05 0.85 -1.15 0.55 -1.2 0.0 -1.05 -0.85 0.45 -1.45 1.1 -0.45 Z" fill="none" stroke="#000000" stroke-linecap="round" stroke-linejoin="round" stroke-opacity="0.4" stroke-width="0.05"/>
    </g>
    <g id="sprite7" transform="matrix(1.0, 0.0, 0.0, 1.0, 19.6, 6.9)">
      <use height="12.9" transform="matrix(1.0, 0.0, 0.0, 1.0, -19.6, -6.9)" width="38.3" xlink:href="#shape4"/>
    </g>
    <g id="shape4" transform="matrix(1.0, 0.0, 0.0, 1.0, 19.6, 6.9)">
      <path d="M9.0 -0.45 L7.35 0.95 7.35 1.0 11.0 0.15 14.85 -0.35 16.35 -0.4 16.7 -0.4 17.45 -0.45 14.2 0.65 15.3 1.2 Q16.4 1.8 16.85 2.4 L17.15 2.85 12.4 2.4 11.8 2.4 13.05 1.65 14.05 1.35 Q12.05 1.65 9.35 2.55 L2.3 3.85 -1.1 4.9 -1.45 5.05 -1.65 5.15 -1.5 4.95 -1.15 4.8 -0.7 4.6 3.4 2.6 8.95 -0.5 9.0 -0.45 M18.7 5.45 L18.7 5.55 18.7 5.45 M-19.6 -5.3 L-18.2 -4.55 Q-18.05 -4.65 -18.05 -5.75 L-18.05 -6.9 -15.4 -3.25 -15.0 -4.8 -14.95 -4.85 -14.25 -2.0 Q-15.0 -2.8 -16.65 -2.9 L-18.3 -2.7 -18.25 -2.6 -18.6 -3.5 -19.6 -5.25 -19.6 -5.3" fill="#bfa6a6" fill-rule="evenodd" stroke="none"/>
      <path d="M17.15 2.85 L18.0 4.15 18.05 4.3 18.7 5.45 18.7 5.55 17.2 4.95 15.7 4.4 16.1 5.3 16.2 6.0 12.65 4.65 8.15 4.5 3.1 5.3 0.85 5.75 -0.45 6.0 -0.55 6.0 Q-1.65 6.05 -2.15 5.45 L-2.2 5.4 -2.15 5.4 -2.55 4.15 -1.7 4.55 -1.2 4.8 -1.15 4.8 -1.5 4.95 -1.65 5.15 -1.45 5.05 -1.1 4.9 2.3 3.85 9.35 2.55 Q12.05 1.65 14.05 1.35 L13.05 1.65 11.8 2.4 12.4 2.4 17.15 2.85 M-14.25 -2.0 L-14.0 -0.8 Q-13.45 1.05 -12.65 1.05 L-12.35 1.0 -12.1 0.75 -12.1 2.2 Q-12.15 2.75 -12.35 3.0 L-12.65 3.1 -12.7 3.1 Q-13.45 3.1 -14.6 0.8 -15.75 -1.5 -16.9 -1.5 L-17.3 -1.45 -17.75 -1.25 -18.25 -2.6 -18.3 -2.7 -16.65 -2.9 Q-15.0 -2.8 -14.25 -2.0 M-2.15 5.4 L-2.15 5.45 -2.15 5.4" fill="#a38d8d" fill-rule="evenodd" stroke="none"/>
      <path d="M9.0 -0.45 L7.35 0.95 7.35 1.0 11.0 0.15 14.85 -0.35 16.35 -0.4 16.7 -0.4 17.45 -0.45 14.2 0.65 15.3 1.2 Q16.4 1.8 16.85 2.4 L17.15 2.85 18.0 4.15 18.05 4.3 18.7 5.45 18.7 5.55 17.2 4.95 15.7 4.4 16.1 5.3 16.2 6.0 12.65 4.65 8.15 4.5 3.1 5.3 0.85 5.75 -0.45 6.0 -0.55 6.0 Q-1.65 6.05 -2.15 5.45 L-2.15 5.4 -2.55 4.15 -1.7 4.55 -1.2 4.8 -1.15 4.8 -0.7 4.6 3.4 2.6 8.95 -0.5 M-19.6 -5.3 L-18.2 -4.55 Q-18.05 -4.65 -18.05 -5.75 L-18.05 -6.9 -15.4 -3.25 -15.0 -4.8 -14.95 -4.85 -14.25 -2.0 -14.0 -0.8 Q-13.45 1.05 -12.65 1.05 L-12.35 1.0 -12.1 0.75 -12.1 2.2 Q-12.15 2.75 -12.35 3.0 L-12.65 3.1 -12.7 3.1 Q-13.45 3.1 -14.6 0.8 -15.75 -1.5 -16.9 -1.5 L-17.3 -1.45 -17.75 -1.25 -18.25 -2.6 -18.6 -3.5 -19.6 -5.25 M-1.65 5.15 L-1.5 4.95 -1.15 4.8" fill="none" stroke="#000000" stroke-linecap="round" stroke-linejoin="round" stroke-opacity="0.3019608" stroke-width="0.05"/>
    </g>
    <g id="sprite8" transform="matrix(1.0, 0.0, 0.0, 1.0, 22.25, 11.8)">
      <use height="23.45" id="_col1" transform="matrix(1.0, 0.0, 0.0, 1.0, -21.85, -6.65)" width="43.7" xlink:href="#sprite9"/>
    </g>
    <g id="sprite9" transform="matrix(1.0, 0.0, 0.0, 1.0, 24.2, -0.15)">
      <use height="23.45" transform="matrix(1.0, 0.0, 0.0, 1.0, -24.2, 0.15)" width="43.7" xlink:href="#shape5"/>
    </g>
    <g id="shape5" transform="matrix(1.0, 0.0, 0.0, 1.0, 24.2, -0.15)">
      <path d="M17.6 5.9 L17.1 6.4 Q15.7 8.15 14.45 10.4 L9.8 17.85 8.9 18.9 9.1 19.1 Q6.65 20.8 1.1 22.4 -4.6 23.75 -7.05 23.6 -9.65 23.4 -13.65 22.2 -17.6 21.0 -20.9 17.85 -22.5 16.15 -23.15 14.4 L-23.35 14.4 -23.5 13.75 -23.5 13.7 Q-24.05 12.65 -24.05 11.8 L-24.05 11.45 Q-21.8 12.3 -16.25 12.3 -12.75 12.3 -8.6 13.55 -7.55 13.7 -5.8 14.75 L-3.4 15.45 Q0.25 15.45 3.55 13.9 5.65 13.55 7.35 12.3 L8.9 10.4 Q9.8 9.35 10.3 8.0 L11.2 6.95 Q11.85 5.2 13.6 3.65 L14.3 3.1 17.6 5.9 M1.3 16.3 L1.1 15.8 -0.6 15.8 -1.15 15.95 -0.95 16.85 0.95 16.85 1.3 16.3 M5.65 15.95 L5.95 15.6 Q4.95 15.1 4.6 15.1 L4.05 15.1 3.9 15.45 Q3.9 15.95 4.05 15.95 L5.65 15.95 M-12.6 17.0 L-10.35 17.0 Q-9.65 16.85 -10.7 16.3 L-14.35 14.55 -16.25 13.7 -19.35 14.9 -17.95 15.8 -12.6 17.0 M-7.4 14.4 L-8.95 14.55 Q-8.25 16.5 -6.35 16.5 -5.5 16.5 -5.15 16.15 L-4.95 15.6 Q-6.0 14.4 -7.4 14.4 M-16.05 17.85 Q-17.1 17.85 -17.1 18.55 -16.75 21.0 -13.65 21.0 -11.9 21.0 -11.9 19.95 -12.6 19.1 -14.15 18.4 -15.55 17.85 -16.05 17.85 M-23.15 14.4 L-23.5 13.75 -23.15 14.4 M-23.15 12.65 Q-22.85 14.05 -21.45 14.05 L-20.75 13.55 Q-21.1 12.15 -23.0 12.15 L-23.15 12.65" fill="#d6baba" fill-rule="evenodd" stroke="none"/>
      <path d="M-24.05 11.45 L-24.2 10.4 Q-24.2 6.05 -22.85 5.05 -19.0 10.75 -17.6 10.75 -14.0 9.55 -11.2 10.05 -8.6 10.6 -5.3 12.3 -2.0 13.9 2.15 13.9 L3.55 13.9 Q0.25 15.45 -3.4 15.45 L-5.8 14.75 Q-7.55 13.7 -8.6 13.55 -12.75 12.3 -16.25 12.3 -21.8 12.3 -24.05 11.45 M8.9 10.4 Q9.8 9.2 10.5 7.45 10.65 6.6 12.2 4.15 L12.55 3.3 12.75 3.3 13.95 3.1 Q13.95 2.95 14.15 2.95 L14.3 3.1 13.6 3.65 Q11.85 5.2 11.2 6.95 L10.3 8.0 Q9.8 9.35 8.9 10.4 M5.65 15.95 L4.05 15.95 Q3.9 15.95 3.9 15.45 L4.05 15.1 4.6 15.1 Q4.95 15.1 5.95 15.6 L5.65 15.95 M1.3 16.3 L0.95 16.85 -0.95 16.85 -1.15 15.95 -0.6 15.8 1.1 15.8 1.3 16.3 M-16.05 17.85 Q-15.55 17.85 -14.15 18.4 -12.6 19.1 -11.9 19.95 -11.9 21.0 -13.65 21.0 -16.75 21.0 -17.1 18.55 -17.1 17.85 -16.05 17.85 M-7.4 14.4 Q-6.0 14.4 -4.95 15.6 L-5.15 16.15 Q-5.5 16.5 -6.35 16.5 -8.25 16.5 -8.95 14.55 L-7.4 14.4 M-23.15 12.65 L-23.0 12.15 Q-21.1 12.15 -20.75 13.55 L-21.45 14.05 Q-22.85 14.05 -23.15 12.65" fill="#ffffff" fill-rule="evenodd" stroke="none"/>
      <path d="M16.75 1.05 L17.25 0.85 17.25 1.4 Q17.25 1.75 17.75 2.1 L18.3 1.75 Q19.5 1.75 19.5 2.75 L19.5 3.1 17.6 5.9 14.3 3.1 14.3 2.95 15.15 1.75 15.35 1.55 15.5 1.4 Q16.05 1.05 16.75 1.05" fill="#d6baba" fill-opacity="0.5019608" fill-rule="evenodd" stroke="none"/>
      <path d="M12.75 3.3 L13.8 0.15 Q16.2 0.15 16.75 1.05 16.05 1.05 15.5 1.4 L15.35 1.55 15.15 1.75 14.3 2.95 14.3 3.1 14.15 2.95 Q13.95 2.95 13.95 3.1 L12.75 3.3" fill="#ffffff" fill-opacity="0.5019608" fill-rule="evenodd" stroke="none"/>
      <path d="M17.1 6.4 Q15.7 8.15 14.45 10.4 L9.8 17.85 Q9.8 18.55 9.25 18.9 L9.1 18.9 9.1 19.1 Q6.65 20.8 1.1 22.4 -4.6 23.75 -7.05 23.6 -9.65 23.4 -13.65 22.2 -17.6 21.0 -20.9 17.85 -22.5 16.15 -23.15 14.4 M-23.5 13.75 L-23.5 13.7 Q-24.05 12.65 -24.05 11.8 L-24.05 11.45 -24.2 10.4 Q-24.2 6.05 -22.85 5.05 -19.0 10.75 -17.6 10.75 -14.0 9.55 -11.2 10.05 -8.6 10.6 -5.3 12.3 -2.0 13.9 2.15 13.9 L3.55 13.9 Q5.65 13.55 7.35 12.3 L8.9 10.4 Q9.8 9.2 10.5 7.45 10.65 6.6 12.2 4.15 L12.55 3.3 M9.1 18.9 L8.9 18.9 9.8 17.85 M-23.5 13.75 L-23.15 14.4" fill="none" stroke="#000000" stroke-linecap="round" stroke-linejoin="round" stroke-opacity="0.3019608" stroke-width="0.05"/>
      <path d="M19.5 3.1 L17.6 5.9 M12.75 3.3 L13.8 0.15" fill="none" stroke="#000000" stroke-linecap="round" stroke-linejoin="round" stroke-opacity="0.15294118" stroke-width="0.05"/>
    </g>
    <g id="sprite10" transform="matrix(1.0, 0.0, 0.0, 1.0, 8.95, 9.65)">
      <use height="19.35" transform="matrix(1.0, 0.0, 0.0, 1.0, -8.95, -9.65)" width="17.9" xlink:href="#shape6"/>
    </g>
    <g id="shape6" transform="matrix(1.0, 0.0, 0.0, 1.0, 8.95, 9.65)">
      <path d="M-1.5 -6.7 Q-1.15 -7.25 -0.6 -7.4 1.35 -8.45 3.25 -8.8 L3.95 -8.95 Q6.9 -7.4 4.1 -5.15 2.0 -3.4 -0.6 -4.1 -0.95 -4.45 -1.45 -4.6 -1.9 -5.2 -1.85 -5.8 L-1.9 -5.75 -1.85 -5.85 -1.85 -6.0 Q-1.85 -6.55 -1.5 -6.7 M-3.5 -4.55 L-3.55 -4.45 -3.5 -4.55 M-8.95 7.0 L-8.9 7.0 -8.05 8.55 -6.3 9.6 -6.35 9.6 -8.05 8.6 -8.1 8.55 -8.95 7.05 -8.95 7.0" fill="#efcdaf" fill-rule="evenodd" stroke="none"/>
      <path d="M1.5 4.05 L3.25 2.3 Q5.3 -0.1 3.95 -2.9 3.6 -3.25 3.25 -3.4 1.35 -3.9 -0.05 -3.4 -0.75 -3.25 -1.25 -2.7 L-4.2 0.75 -1.25 -2.7 Q-0.75 -3.25 -0.05 -3.4 1.35 -3.9 3.25 -3.4 3.6 -3.25 3.95 -2.9 5.3 -0.1 3.25 2.3 L1.5 4.05 M-1.5 -6.7 L-1.5 -6.75 -1.45 -6.8 -0.75 -8.05 -0.75 -8.1 Q1.75 -9.55 4.1 -9.65 L6.7 -8.8 Q10.0 -5.3 8.45 -0.1 7.55 2.5 6.15 4.4 0.95 10.45 -6.3 9.6 L-8.05 8.55 -8.9 7.0 -8.95 7.0 -3.6 -4.45 -3.55 -4.45 -3.5 -4.55 -1.9 -5.75 -1.85 -5.8 Q-1.9 -5.2 -1.45 -4.6 -0.95 -4.45 -0.6 -4.1 2.0 -3.4 4.1 -5.15 6.9 -7.4 3.95 -8.95 L3.25 -8.8 Q1.35 -8.45 -0.6 -7.4 -1.15 -7.25 -1.5 -6.7" fill="#c6886a" fill-rule="evenodd" stroke="none"/>
      <path d="M-4.2 0.75 L-1.25 -2.7 Q-0.75 -3.25 -0.05 -3.4 1.35 -3.9 3.25 -3.4 3.6 -3.25 3.95 -2.9 5.3 -0.1 3.25 2.3 L1.5 4.05 M-6.3 9.6 Q0.95 10.45 6.15 4.4 7.55 2.5 8.45 -0.1 10.0 -5.3 6.7 -8.8 L4.1 -9.65 Q1.75 -9.55 -0.75 -8.1 L-0.75 -8.05 -1.45 -6.8 -1.5 -6.75 -1.5 -6.7 M-8.9 7.0 L-8.05 8.55 -6.3 9.6" fill="none" stroke="#000000" stroke-linecap="round" stroke-linejoin="round" stroke-opacity="0.3019608" stroke-width="0.05"/>
    </g>
    <g id="sprite11" transform="matrix(1.0, 0.0, 0.0, 1.0, 11.4, 11.2)">
      <use height="22.4" transform="matrix(1.0, 0.0, 0.0, 1.0, -11.4, -11.2)" width="22.8" xlink:href="#shape7"/>
    </g>
    <g id="shape7" transform="matrix(1.0, 0.0, 0.0, 1.0, 11.4, 11.2)">
      <path d="M-10.85 2.95 L-11.0 0.55 Q-11.0 -1.35 -10.6 -2.4 -10.25 -3.4 -9.4 -4.1 L-10.3 -3.95 -11.4 -3.95 Q-8.95 -5.0 -7.2 -7.35 -5.85 -9.1 -4.05 -9.1 L-3.4 -9.0 -3.4 -9.6 -3.3 -10.8 Q-2.65 -9.55 0.45 -9.9 3.6 -10.3 4.3 -9.25 4.1 -9.8 4.8 -10.45 L5.7 -11.2 5.6 -10.3 Q5.6 -9.45 6.45 -8.25 L6.85 -7.75 6.55 -7.5 Q6.05 -6.95 5.65 -6.95 L4.75 -6.65 2.8 -6.4 2.05 -6.4 Q1.75 -6.45 2.2 -6.25 L4.1 -5.6 4.1 -5.55 Q3.55 -4.9 3.6 -4.4 L2.85 -2.85 2.2 -1.95 2.15 -2.05 2.4 -3.6 1.65 -2.85 0.95 -2.3 0.2 -0.95 -0.85 0.05 -2.1 1.0 -2.2 1.05 -2.25 0.95 Q-2.25 0.45 -1.4 -0.2 L-0.3 -1.35 -0.15 -1.7 0.25 -1.9 -1.75 -1.2 -3.0 -0.9 Q-2.35 -0.45 -4.2 1.05 -5.35 1.95 -5.35 3.25 L-5.1 4.65 -4.9 5.1 Q-5.3 4.85 -5.85 4.55 L-7.25 3.55 Q-6.6 1.85 -6.6 1.2 L-6.6 1.05 Q-6.65 0.9 -6.8 0.9 -7.95 2.4 -8.35 3.9 L-8.6 5.35 -9.0 4.6 Q-9.85 3.2 -9.5 2.05 L-9.55 2.3 Q-8.9 0.8 -8.15 -0.15 -9.25 -0.05 -10.45 2.15 L-10.85 2.95 M8.1 -6.9 L8.3 -6.9 8.9 -7.15 9.55 -7.35 9.0 -6.8 Q8.3 -6.15 7.8 -6.15 L7.45 -6.4 8.1 -6.9 M8.6 7.5 L8.55 7.5 8.35 7.4 8.35 7.25 8.4 7.05 8.6 7.5 M6.55 4.35 L6.55 4.3 6.6 4.3 6.55 4.35 M-2.6 6.3 L-2.65 6.3 -2.65 5.75 -2.9 4.95 -2.95 4.85 -3.1 4.45 -3.3 4.1 -3.3 4.05 -3.1 4.45 -3.3 4.05 -3.4 3.6 Q-3.4 2.85 -3.1 2.55 -2.75 2.2 -2.7 3.35 L-2.55 4.35 -2.3 5.35 -2.5 6.05 -2.6 6.3 -2.65 5.75 -2.6 6.3 M-4.5 4.15 L-4.3 4.9 -4.65 4.25 -4.5 4.15 M-2.3 -8.8 L-3.4 -9.0 -2.3 -8.8 M1.75 -8.45 L1.0 -8.95 0.0 -9.1 Q-1.2 -9.1 -2.6 -8.0 -3.75 -7.15 -4.9 -6.9 -3.75 -7.15 -2.6 -8.0 -1.2 -9.1 0.0 -9.1 L1.0 -8.95 1.75 -8.45 M-5.5 -6.7 L-5.55 -6.65 -3.65 -6.0 Q-4.9 -5.25 -5.2 -4.5 -5.0 -4.5 -4.55 -4.85 L-3.95 -5.25 -2.3 -5.45 -2.75 -5.1 -4.85 -3.35 -3.1 -3.6 -0.8 -3.45 Q0.05 -3.45 0.3 -3.7 L0.55 -4.2 0.95 -4.65 Q1.3 -5.0 1.45 -5.75 L1.25 -5.3 1.0 -5.3 -0.75 -5.8 0.0 -6.35 0.85 -7.2 0.3 -7.4 -1.05 -7.0 -3.3 -6.65 -4.85 -6.9 -4.9 -6.9 -5.5 -6.8 -5.5 -6.7 -5.6 -6.8 -5.65 -6.8 -5.7 -6.85 -5.6 -6.8 -5.5 -6.8 -5.6 -6.8 -5.7 -6.85 -5.65 -6.8 -5.6 -6.8 -5.5 -6.7 M-7.75 -0.55 L-7.75 -2.15 Q-7.65 -3.25 -7.2 -4.0 L-6.5 -4.75 -7.2 -4.0 Q-7.65 -3.25 -7.75 -2.15 L-7.75 -0.55 -7.85 -0.35 -7.85 0.0 -7.6 0.05 -7.5 0.0 -6.85 -1.3 -6.5 -1.3 -6.65 -0.3 Q-6.7 0.2 -6.4 0.2 -6.25 0.2 -5.95 -1.15 L-5.2 -2.55 -5.35 -2.75 -5.65 -2.55 -6.05 -2.45 -5.85 -2.65 -5.9 -2.65 -7.2 -1.55 -7.75 -0.55 M-9.15 -4.35 L-9.4 -4.1 -9.15 -4.35 M7.1 -5.0 L6.95 -4.7 6.75 -5.0 6.3 -5.3 Q5.45 -5.55 5.45 -5.9 5.45 -6.75 6.3 -6.1 7.1 -5.45 7.1 -5.0 M0.75 2.75 L0.5 4.05 Q0.3 4.65 0.65 5.25 L0.65 5.35 0.55 5.45 -0.6 4.3 -0.85 3.15 Q-0.7 1.7 -0.1 1.7 L0.1 1.85 Q0.85 2.0 0.75 2.75 M4.45 3.6 L4.6 4.3 4.35 5.25 4.05 6.25 4.05 7.25 3.65 7.8 3.0 8.1 2.75 7.85 2.95 7.35 3.35 6.8 Q3.35 6.05 3.5 5.7 L4.1 4.55 4.15 3.95 Q4.15 3.6 4.45 3.6 M3.8 8.55 Q2.8 10.25 2.35 10.25 L2.15 10.15 2.1 10.05 Q3.0 8.8 3.65 8.35 L3.8 8.55" fill="#ffffff" fill-rule="evenodd" stroke="none"/>
      <path d="M6.85 -7.75 Q7.45 -7.05 8.1 -6.9 L7.45 -6.4 7.8 -6.15 Q8.3 -6.15 9.0 -6.8 L9.55 -7.35 8.9 -7.15 9.55 -7.4 9.9 -7.4 Q9.45 -7.3 9.25 -6.85 L9.1 -6.1 10.55 -6.0 10.55 -5.7 10.3 -5.2 Q11.0 -4.35 11.15 -2.85 L11.25 -0.2 10.35 4.15 10.8 5.55 11.15 6.45 11.4 6.95 10.85 7.05 9.4 6.85 8.6 7.5 8.4 7.05 7.6 5.45 7.45 6.15 7.35 6.15 6.95 5.35 6.55 4.35 6.6 4.3 6.6 4.25 6.55 4.0 6.55 3.95 6.5 4.0 6.2 4.6 6.15 6.1 6.4 7.3 6.65 8.85 6.1 8.3 5.65 7.55 Q5.9 8.95 4.9 10.0 L3.05 11.2 3.05 11.1 3.6 10.1 Q2.0 10.9 1.15 10.9 L0.3 10.8 0.3 10.7 Q0.85 10.55 1.75 9.8 L2.85 8.55 Q2.65 8.55 2.05 8.9 L1.25 9.25 0.9 9.15 2.4 8.1 3.05 6.9 Q3.05 6.2 3.45 5.6 3.8 4.95 3.8 3.85 L3.6 2.6 Q2.25 6.0 2.25 6.5 L2.35 7.0 0.25 5.65 Q-1.15 4.55 -1.35 3.85 L-2.7 6.85 -2.75 6.8 -2.6 6.3 -2.5 6.05 -2.3 5.35 -2.55 4.35 -2.7 3.35 Q-2.75 2.2 -3.1 2.55 -3.4 2.85 -3.4 3.6 L-3.3 4.05 -4.3 3.2 -4.5 4.15 -4.65 4.25 -4.3 4.9 -4.25 5.0 -3.9 5.65 -4.9 5.1 -5.1 4.65 -5.35 3.25 Q-5.35 1.95 -4.2 1.05 -2.35 -0.45 -3.0 -0.9 L-1.75 -1.2 0.25 -1.9 -0.15 -1.7 -0.3 -1.35 -1.4 -0.2 Q-2.25 0.45 -2.25 0.95 L-2.2 1.05 -2.1 1.0 -0.85 0.05 0.2 -0.95 0.95 -2.3 1.65 -2.85 2.4 -3.6 2.15 -2.05 2.2 -1.95 2.85 -2.85 3.6 -4.4 Q3.55 -4.9 4.1 -5.55 L4.1 -5.6 2.2 -6.25 Q1.75 -6.45 2.05 -6.4 L2.8 -6.4 4.75 -6.65 5.65 -6.95 Q6.05 -6.95 6.55 -7.5 L6.85 -7.75 M-7.25 3.55 L-7.4 3.3 -8.25 6.8 -8.3 6.8 -8.3 6.75 -8.25 6.65 -8.25 6.6 -8.35 6.05 -8.6 5.4 -8.6 5.35 -8.35 3.9 Q-7.95 2.4 -6.8 0.9 -6.65 0.9 -6.6 1.05 L-6.6 1.2 Q-6.6 1.85 -7.25 3.55 M-9.5 2.05 L-9.45 2.0 -9.45 1.9 -10.7 4.4 -10.75 4.35 -10.85 2.95 -10.45 2.15 Q-9.25 -0.05 -8.15 -0.15 -8.9 0.8 -9.55 2.3 L-9.5 2.05 M-4.9 -6.9 L-4.85 -6.9 -3.3 -6.65 -1.05 -7.0 0.3 -7.4 0.85 -7.2 0.0 -6.35 -0.75 -5.8 1.0 -5.3 1.25 -5.3 1.45 -5.75 Q1.3 -5.0 0.95 -4.65 L0.55 -4.2 0.3 -3.7 Q0.05 -3.45 -0.8 -3.45 L-3.1 -3.6 -4.85 -3.35 -2.75 -5.1 -2.3 -5.45 -3.95 -5.25 -4.55 -4.85 Q-5.0 -4.5 -5.2 -4.5 -4.9 -5.25 -3.65 -6.0 L-5.55 -6.65 -5.5 -6.7 -5.5 -6.8 -4.9 -6.9 M-7.75 -0.55 L-7.2 -1.55 -5.9 -2.65 -5.85 -2.65 -6.05 -2.45 -5.65 -2.55 -5.35 -2.75 -5.2 -2.55 -5.95 -1.15 Q-6.25 0.2 -6.4 0.2 -6.7 0.2 -6.65 -0.3 L-6.5 -1.3 -6.85 -1.3 -7.5 0.0 -7.6 0.05 -7.85 0.0 -7.85 -0.35 -7.75 -0.55 -7.75 -0.15 -7.7 -0.1 -7.15 -1.05 -6.0 -1.9 -7.15 -1.05 -7.7 -0.1 -7.75 -0.15 -7.75 -0.55 M-1.4 -6.15 Q-4.1 -5.9 -5.5 -6.7 -4.1 -5.9 -1.4 -6.15 M7.1 -5.0 Q7.1 -5.45 6.3 -6.1 5.45 -6.75 5.45 -5.9 5.45 -5.55 6.3 -5.3 L6.75 -5.0 6.95 -4.7 7.1 -5.0 M6.65 3.0 Q6.5 3.0 6.5 3.8 L6.5 4.0 6.5 3.8 Q6.5 3.0 6.65 3.0 M3.8 8.55 L3.65 8.35 Q3.0 8.8 2.1 10.05 L2.15 10.15 2.35 10.25 Q2.8 10.25 3.8 8.55 M4.45 3.6 Q4.15 3.6 4.15 3.95 L4.1 4.55 3.5 5.7 Q3.35 6.05 3.35 6.8 L2.95 7.35 2.75 7.85 3.0 8.1 3.65 7.8 4.05 7.25 4.05 6.25 4.35 5.25 4.6 4.3 4.45 3.6 M0.75 2.75 Q0.85 2.0 0.1 1.85 L-0.1 1.7 Q-0.7 1.7 -0.85 3.15 L-0.6 4.3 0.55 5.45 0.65 5.35 0.65 5.25 Q0.3 4.65 0.5 4.05 L0.75 2.75 M-8.35 6.05 L-8.6 5.35 -8.35 6.05" fill="#d6baba" fill-rule="evenodd" stroke="none"/>
      <path d="M-10.85 2.95 L-11.0 0.55 Q-11.0 -1.35 -10.6 -2.4 -10.25 -3.4 -9.4 -4.1 L-10.3 -3.95 -11.4 -3.95 Q-8.95 -5.0 -7.2 -7.35 -5.85 -9.1 -4.05 -9.1 L-3.4 -9.0 -3.4 -9.6 -3.3 -10.8 Q-2.65 -9.55 0.45 -9.9 3.6 -10.3 4.3 -9.25 4.1 -9.8 4.8 -10.45 L5.7 -11.2 5.6 -10.3 Q5.6 -9.45 6.45 -8.25 L6.85 -7.75 Q7.45 -7.05 8.1 -6.9 L8.3 -6.9 8.9 -7.15 9.55 -7.4 9.9 -7.4 Q9.45 -7.3 9.25 -6.85 L9.1 -6.1 10.55 -6.0 10.55 -5.7 10.3 -5.2 Q11.0 -4.35 11.15 -2.85 L11.25 -0.2 10.35 4.15 10.8 5.55 11.15 6.45 11.4 6.95 M8.4 7.05 L7.6 5.45 7.45 6.15 7.35 6.15 6.95 5.35 6.55 4.35 6.55 4.3 6.5 4.05 6.5 4.0 6.2 4.6 6.15 6.1 6.4 7.3 6.65 8.85 6.1 8.3 5.65 7.55 Q5.9 8.95 4.9 10.0 L3.05 11.2 3.05 11.1 3.6 10.1 Q2.0 10.9 1.15 10.9 L0.3 10.8 0.3 10.7 Q0.85 10.55 1.75 9.8 L2.85 8.55 Q2.65 8.55 2.05 8.9 L1.25 9.25 0.9 9.15 2.4 8.1 3.05 6.9 Q3.05 6.2 3.45 5.6 3.8 4.95 3.8 3.85 L3.6 2.6 Q2.25 6.0 2.25 6.5 L2.35 7.0 0.25 5.65 Q-1.15 4.55 -1.35 3.85 L-2.7 6.85 -2.75 6.9 -2.75 6.8 -2.6 6.3 -2.65 5.75 -2.9 4.95 -2.95 4.85 -3.1 4.45 -3.3 4.05 -4.3 3.2 -4.5 4.15 -4.3 4.9 -4.25 5.0 -3.9 5.65 -4.9 5.1 Q-5.3 4.85 -5.85 4.55 L-7.25 3.55 -7.4 3.3 -8.25 6.8 M-8.25 6.65 L-8.25 6.6 -8.35 6.05 M-8.6 5.35 L-9.0 4.6 Q-9.85 3.2 -9.5 2.05 L-9.45 2.0 -9.45 1.9 -10.7 4.4 -10.75 4.45 -10.75 4.35 -10.85 2.95 M-4.9 -6.9 Q-3.75 -7.15 -2.6 -8.0 -1.2 -9.1 0.0 -9.1 L1.0 -8.95 1.75 -8.45 M-3.4 -9.0 L-2.3 -8.8 M-5.5 -6.7 L-5.6 -6.8 -5.65 -6.8 -5.7 -6.85 -5.6 -6.8 -5.5 -6.8 -4.9 -6.9 M-6.5 -4.75 L-7.2 -4.0 Q-7.65 -3.25 -7.75 -2.15 L-7.75 -0.55 -7.75 -0.15 -7.7 -0.1 -7.15 -1.05 -6.0 -1.9 M-9.4 -4.1 L-9.15 -4.35 M-5.5 -6.7 Q-4.1 -5.9 -1.4 -6.15 M6.55 3.95 L6.5 4.0 6.5 3.8 Q6.5 3.0 6.65 3.0 M8.6 7.5 L8.4 7.05 M-8.6 5.35 L-8.35 6.05" fill="none" stroke="#000000" stroke-linecap="round" stroke-linejoin="round" stroke-opacity="0.3019608" stroke-width="0.05"/>
    </g>
  </defs>
</svg>
