<?xml version="1.0" encoding="UTF-8" standalone="no"?>
<svg xmlns:xlink="http://www.w3.org/1999/xlink" height="115.6px" width="108.25px" xmlns="http://www.w3.org/2000/svg">
  <g transform="matrix(1.0, 0.0, 0.0, 1.0, 56.1, 59.8)">
    <use height="63.95" id="_col0a" transform="matrix(1.0, 0.0, 0.0, 1.0, -31.35, -25.9)" width="63.3" xlink:href="#sprite0"/>
    <use height="28.7" transform="matrix(0.9958, 0.088, 0.0, 1.0, -32.563, 2.769)" width="42.9" xlink:href="#sprite1"/>
    <use height="12.9" id="_col1d" transform="matrix(1.0, 0.0, 0.0, 1.0, -32.3, 5.25)" width="38.3" xlink:href="#sprite6"/>
    <use height="81.7" id="_col1" transform="matrix(1.0, 0.0, 0.0, 1.0, -50.15, -48.5)" width="101.75" xlink:href="#sprite7"/>
    <use height="42.75" id="_p4" transform="matrix(1.0, 0.0, 0.0, 1.0, -28.0497, 13.0502)" width="46.6" xlink:href="#sprite8"/>
    <use height="19.35" id="_col0c" transform="matrix(1.0, 0.0, 0.0, 1.0, 12.55, 11.7)" width="17.9" xlink:href="#sprite10"/>
  </g>
  <defs>
    <g id="sprite0" transform="matrix(1.0, 0.0, 0.0, 1.0, 31.35, 31.95)">
      <use height="63.95" transform="matrix(1.0, 0.0, 0.0, 1.0, -31.35, -31.95)" width="63.3" xlink:href="#shape0"/>
    </g>
    <g id="shape0" transform="matrix(1.0, 0.0, 0.0, 1.0, 31.35, 31.95)">
      <path d="M-19.5 28.2 L-22.1 26.65 Q-27.15 23.0 -26.25 17.45 L-26.1 16.25 Q-25.6 14.5 -26.1 13.1 L-26.25 12.75 -26.8 12.05 -26.95 11.9 Q-28.55 9.8 -29.4 7.55 -30.95 3.9 -31.3 0.45 -31.65 -8.75 -27.5 -17.1 -23.3 -26.45 -14.45 -29.55 -4.75 -32.85 5.15 -31.65 L5.85 -31.6 7.9 -29.9 Q13.45 -25.9 12.95 -19.0 12.25 -10.65 9.3 -2.7 7.55 1.65 3.4 3.55 -5.3 7.9 -13.95 11.7 L-15.0 11.55 Q-17.95 9.45 -19.35 11.9 -20.55 11.55 -21.6 12.25 L-22.45 13.1 -23.15 12.95 -25.4 12.05 -25.6 12.05 -26.25 11.7 -26.25 11.9 -26.1 12.05 -25.6 12.75 -25.4 13.1 Q-24.9 14.5 -25.4 16.25 L-25.6 17.45 -25.05 17.6 -21.6 18.15 -15.15 19.7 Q-13.45 20.05 -11.85 20.9 -10.85 21.45 -9.95 22.3 -8.9 23.0 -7.9 24.05 L-7.55 24.2 -7.9 24.4 Q-12.9 28.4 -19.5 28.2" fill="#efcdaf" fill-rule="evenodd" stroke="none"/>
      <path d="M-19.5 28.2 Q-12.9 28.4 -7.9 24.4 L-7.55 24.2 -7.9 24.05 Q-8.9 23.0 -9.95 22.3 -10.85 21.45 -11.85 20.9 -13.45 20.05 -15.15 19.7 L-21.6 18.15 -25.05 17.6 -25.6 17.45 -25.4 16.25 Q-24.9 14.5 -25.4 13.1 L-25.6 12.75 -26.1 12.05 -26.25 11.9 -26.25 11.7 -25.6 12.05 -25.4 12.05 -23.15 12.95 -22.45 13.1 -21.6 12.25 Q-20.55 11.55 -19.35 11.9 -17.95 9.45 -15.0 11.55 L-13.95 11.7 Q-5.3 7.9 3.4 3.55 7.55 1.65 9.3 -2.7 12.25 -10.65 12.95 -19.0 13.45 -25.9 7.9 -29.9 L5.85 -31.6 5.8 -31.65 7.55 -31.5 10.7 -30.45 12.95 -29.55 Q15.55 -28.55 18.65 -26.8 27.85 -21.75 30.45 -12.55 32.9 -3.55 31.35 0.8 29.95 4.95 28.55 6.15 27.15 7.2 26.8 8.95 25.95 11.7 24.55 14.35 L22.65 17.45 18.15 22.15 16.75 23.35 16.6 23.35 12.75 25.8 Q7.2 28.9 2.0 30.3 -3.9 32.0 -9.45 32.0 L-10.15 32.0 -13.8 31.0 -17.4 29.4 -19.5 28.2" fill="#c6886a" fill-rule="evenodd" stroke="none"/>
      <path d="M5.85 -31.6 L5.15 -31.65 Q-4.75 -32.85 -14.45 -29.55 -23.3 -26.45 -27.5 -17.1 -31.65 -8.75 -31.3 0.45 -30.95 3.9 -29.4 7.55 -28.55 9.8 -26.95 11.9 L-26.8 12.05 -26.25 12.75 -26.1 13.1 Q-25.6 14.5 -26.1 16.25 L-26.25 17.45 Q-27.15 23.0 -22.1 26.65 L-19.5 28.2 M5.85 -31.6 L5.8 -31.65 7.55 -31.5 10.7 -30.45 12.95 -29.55 Q15.55 -28.55 18.65 -26.8 27.85 -21.75 30.45 -12.55 32.9 -3.55 31.35 0.8 29.95 4.95 28.55 6.15 27.15 7.2 26.8 8.95 25.95 11.7 24.55 14.35 L22.65 17.45 18.15 22.15 16.75 23.35 16.6 23.35 12.75 25.8 Q7.2 28.9 2.0 30.3 -3.9 32.0 -9.45 32.0 L-10.15 32.0 -13.8 31.0 -17.4 29.4 -19.5 28.2" fill="none" stroke="#000000" stroke-linecap="round" stroke-linejoin="round" stroke-opacity="0.3019608" stroke-width="0.05"/>
    </g>
    <g id="sprite1" transform="matrix(1.0, 0.0, 0.0, 1.0, 20.8, 22.05)">
      <use height="6.05" id="yeux" transform="matrix(3.5469, 0.6759, 0.0, 3.8129, -7.3594, -22.0349)" width="8.3" xlink:href="#sprite2"/>
      <use height="6.05" transform="matrix(-0.7089, 0.0624, 0.9139, 3.339, -14.9276, -20.8291)" width="8.3" xlink:href="#sprite2"/>
    </g>
    <g id="sprite2" transform="matrix(1.0, 0.0, 0.0, 1.0, 3.4, 5.95)">
      <use height="3.3" transform="matrix(1.0, 0.0, 0.0, 1.0, -2.8, -3.2)" width="6.6" xlink:href="#sprite3"/>
    </g>
    <g id="sprite3" transform="matrix(1.0, 0.0, 0.0, 1.0, 3.05, 0.7)">
      <use height="3.3" transform="matrix(1.0, 0.0, 0.0, 1.0, -3.05, -0.7)" width="6.6" xlink:href="#sprite4"/>
    </g>
    <g id="sprite4" transform="matrix(1.0, 0.0, 0.0, 1.0, 3.4, 1.65)">
      <use height="2.9" transform="matrix(1.0, 0.0, 0.0, 1.0, -3.4, -1.55)" width="5.55" xlink:href="#shape1"/>
      <use height="2.9" id="_col3" transform="matrix(1.0, 0.0, 0.0, 1.0, -1.85, -1.55)" width="2.5" xlink:href="#sprite5"/>
    </g>
    <g id="shape1" transform="matrix(1.0, 0.0, 0.0, 1.0, 3.4, 1.55)">
      <path d="M1.2 -1.45 Q2.05 -0.75 1.7 0.0 L1.3 0.75 0.55 1.05 0.65 0.7 0.65 0.05 0.5 -0.55 -0.15 -1.55 1.2 -1.45 M-1.65 -0.95 L-1.8 -0.1 -1.75 0.45 -1.65 0.75 -1.5 1.0 -1.15 1.3 -1.0 1.35 -2.4 1.3 -2.5 1.1 -2.55 0.35 -1.65 -0.95" fill="#fbfbfb" fill-rule="evenodd" stroke="none"/>
      <path d="M2.15 -1.35 L1.2 -1.45 Q2.05 -0.75 1.7 0.0 L1.3 0.75 M-0.15 -1.55 L-1.65 -0.95 M-2.55 0.35 L-2.95 0.5 -3.4 0.55 M-2.55 0.35 L-1.65 -0.95 M-0.15 -1.55 L1.2 -1.45" fill="none" stroke="#000000" stroke-linecap="round" stroke-linejoin="round" stroke-opacity="0.2509804" stroke-width="0.05"/>
      <path d="M0.55 1.05 L0.65 0.7 0.65 0.05 0.5 -0.55 -0.15 -1.55 M-1.65 -0.95 L-1.8 -0.1 -1.75 0.45 -1.65 0.75 -1.5 1.0 -1.15 1.3 -1.0 1.35" fill="none" stroke="#000000" stroke-linecap="round" stroke-linejoin="round" stroke-opacity="0.4" stroke-width="0.05"/>
    </g>
    <g id="sprite5" transform="matrix(1.0, 0.0, 0.0, 1.0, 1.25, 1.45)">
      <use height="2.9" transform="matrix(1.0, 0.0, 0.0, 1.0, -1.25, -1.45)" width="2.5" xlink:href="#shape2"/>
    </g>
    <g id="shape2" transform="matrix(1.0, 0.0, 0.0, 1.0, 1.25, 1.45)">
      <path d="M-0.1 0.8 L0.1 0.8 0.25 0.75 -0.1 0.8" fill="#cccccc" fill-rule="evenodd" stroke="none"/>
      <path d="M0.25 0.75 L0.45 0.7 0.6 0.6 0.65 0.65 0.15 1.15 Q-0.55 1.4 -0.7 0.9 L-0.6 0.7 -0.1 0.8 0.25 0.75" fill="#ffffff" fill-rule="evenodd" stroke="none"/>
      <path d="M0.45 0.7 L0.25 0.75 0.1 0.8 -0.1 0.8 -0.4 0.5 -0.55 0.0 Q-0.55 -1.05 0.1 -0.85 0.75 -0.7 0.75 0.05 L0.6 0.5 0.45 0.7" fill="#666666" fill-rule="evenodd" stroke="none"/>
      <path d="M1.1 -0.45 L1.25 0.15 1.25 0.8 1.15 1.15 0.85 1.25 -0.4 1.45 -0.55 1.4 -0.9 1.1 -1.05 0.85 -1.15 0.55 -1.2 0.0 -1.05 -0.85 0.45 -1.45 1.1 -0.45 M0.45 0.7 L0.6 0.5 0.75 0.05 Q0.75 -0.7 0.1 -0.85 -0.55 -1.05 -0.55 0.0 L-0.4 0.5 -0.1 0.8 -0.6 0.7 -0.7 0.9 Q-0.55 1.4 0.15 1.15 L0.65 0.65 0.6 0.6 0.45 0.7" fill="#999999" fill-rule="evenodd" stroke="none"/>
      <path d="M1.1 -0.45 L1.25 0.15 1.25 0.8 1.15 1.15 0.85 1.25 -0.4 1.45 -0.55 1.4 -0.9 1.1 -1.05 0.85 -1.15 0.55 -1.2 0.0 -1.05 -0.85 0.45 -1.45 1.1 -0.45 Z" fill="none" stroke="#000000" stroke-linecap="round" stroke-linejoin="round" stroke-opacity="0.4" stroke-width="0.05"/>
    </g>
    <g id="sprite6" transform="matrix(1.0, 0.0, 0.0, 1.0, 19.6, 6.9)">
      <use height="12.9" transform="matrix(1.0, 0.0, 0.0, 1.0, -19.6, -6.9)" width="38.3" xlink:href="#shape3"/>
    </g>
    <g id="shape3" transform="matrix(1.0, 0.0, 0.0, 1.0, 19.6, 6.9)">
      <path d="M9.0 -0.45 L7.35 0.95 7.35 1.0 11.0 0.15 14.85 -0.35 16.35 -0.4 16.7 -0.4 17.45 -0.45 14.2 0.65 15.3 1.2 Q16.4 1.8 16.85 2.4 L17.15 2.85 12.4 2.4 11.8 2.4 13.05 1.65 14.05 1.35 Q12.05 1.65 9.35 2.55 L2.3 3.85 -1.1 4.9 -1.45 5.05 -1.65 5.15 -1.5 4.95 -1.15 4.8 -0.7 4.6 3.4 2.6 8.95 -0.5 9.0 -0.45 M18.7 5.45 L18.7 5.55 18.7 5.45 M-19.6 -5.3 L-18.2 -4.55 Q-18.05 -4.65 -18.05 -5.75 L-18.05 -6.9 -15.4 -3.25 -15.0 -4.8 -14.95 -4.85 -14.25 -2.0 Q-15.0 -2.8 -16.65 -2.9 L-18.3 -2.7 -18.25 -2.6 -18.6 -3.5 -19.6 -5.25 -19.6 -5.3" fill="#bfa6a6" fill-rule="evenodd" stroke="none"/>
      <path d="M17.15 2.85 L18.0 4.15 18.05 4.3 18.7 5.45 18.7 5.55 17.2 4.95 15.7 4.4 16.1 5.3 16.2 6.0 12.65 4.65 8.15 4.5 3.1 5.3 0.85 5.75 -0.45 6.0 -0.55 6.0 Q-1.65 6.05 -2.15 5.45 L-2.2 5.4 -2.15 5.4 -2.55 4.15 -1.7 4.55 -1.2 4.8 -1.15 4.8 -1.5 4.95 -1.65 5.15 -1.45 5.05 -1.1 4.9 2.3 3.85 9.35 2.55 Q12.05 1.65 14.05 1.35 L13.05 1.65 11.8 2.4 12.4 2.4 17.15 2.85 M-14.25 -2.0 L-14.0 -0.8 Q-13.45 1.05 -12.65 1.05 L-12.35 1.0 -12.1 0.75 -12.1 2.2 Q-12.15 2.75 -12.35 3.0 L-12.65 3.1 -12.7 3.1 Q-13.45 3.1 -14.6 0.8 -15.75 -1.5 -16.9 -1.5 L-17.3 -1.45 -17.75 -1.25 -18.25 -2.6 -18.3 -2.7 -16.65 -2.9 Q-15.0 -2.8 -14.25 -2.0 M-2.15 5.4 L-2.15 5.45 -2.15 5.4" fill="#a38d8d" fill-rule="evenodd" stroke="none"/>
      <path d="M9.0 -0.45 L7.35 0.95 7.35 1.0 11.0 0.15 14.85 -0.35 16.35 -0.4 16.7 -0.4 17.45 -0.45 14.2 0.65 15.3 1.2 Q16.4 1.8 16.85 2.4 L17.15 2.85 18.0 4.15 18.05 4.3 18.7 5.45 18.7 5.55 17.2 4.95 15.7 4.4 16.1 5.3 16.2 6.0 12.65 4.65 8.15 4.5 3.1 5.3 0.85 5.75 -0.45 6.0 -0.55 6.0 Q-1.65 6.05 -2.15 5.45 L-2.15 5.4 -2.55 4.15 -1.7 4.55 -1.2 4.8 -1.15 4.8 -0.7 4.6 3.4 2.6 8.95 -0.5 M-19.6 -5.3 L-18.2 -4.55 Q-18.05 -4.65 -18.05 -5.75 L-18.05 -6.9 -15.4 -3.25 -15.0 -4.8 -14.95 -4.85 -14.25 -2.0 -14.0 -0.8 Q-13.45 1.05 -12.65 1.05 L-12.35 1.0 -12.1 0.75 -12.1 2.2 Q-12.15 2.75 -12.35 3.0 L-12.65 3.1 -12.7 3.1 Q-13.45 3.1 -14.6 0.8 -15.75 -1.5 -16.9 -1.5 L-17.3 -1.45 -17.75 -1.25 -18.25 -2.6 -18.6 -3.5 -19.6 -5.25 M-1.65 5.15 L-1.5 4.95 -1.15 4.8" fill="none" stroke="#000000" stroke-linecap="round" stroke-linejoin="round" stroke-opacity="0.3019608" stroke-width="0.05"/>
    </g>
    <g id="sprite7" transform="matrix(1.0, 0.0, 0.0, 1.0, 49.9, 48.3)">
      <use height="81.7" transform="matrix(1.0, 0.0, 0.0, 1.0, -49.9, -48.3)" width="101.75" xlink:href="#shape4"/>
    </g>
    <g id="shape4" transform="matrix(1.0, 0.0, 0.0, 1.0, 49.9, 48.3)">
      <path d="M16.05 -47.95 L16.4 -47.95 20.55 -46.9 21.3 -47.25 22.05 -45.4 Q22.9 -45.4 24.3 -46.05 L34.3 -43.6 36.5 -43.0 Q39.3 -43.15 43.8 -40.9 L47.35 -39.2 47.6 -39.05 51.5 -37.0 51.45 -36.95 47.05 -33.9 Q42.6 -31.15 40.55 -31.0 37.45 -31.0 36.6 -30.45 L33.35 -28.95 33.15 -28.75 33.0 -28.7 32.5 -28.6 33.0 -28.7 32.8 -28.6 32.5 -28.6 32.3 -28.4 32.15 -28.4 31.05 -28.25 31.05 -27.85 Q31.05 -26.1 12.15 -19.35 11.8 -19.35 11.2 -19.7 L10.2 -20.1 9.35 -19.95 5.1 -19.2 1.7 -18.6 Q-0.95 -14.65 -1.6 -11.45 L-1.45 -11.45 Q-1.8 -10.6 -1.6 -9.25 L-1.8 -8.9 -1.6 -8.9 -1.8 -7.85 -1.45 -7.85 -1.8 -7.2 -2.15 -4.8 -2.45 -4.8 -2.65 -5.45 -3.0 -4.8 Q-3.65 -4.8 -3.65 -6.0 L-3.5 -7.85 -3.15 -7.85 -3.3 -8.9 Q-3.5 -9.4 -3.3 -9.75 L-3.5 -11.65 -3.0 -11.65 Q-2.8 -13.7 -0.75 -16.95 L-0.05 -18.35 -1.3 -18.3 -4.3 -18.35 -7.25 -9.75 Q-7.45 -9.4 -7.1 -8.9 L-6.9 -6.3 -7.25 -6.0 Q-7.95 -7.0 -8.3 -8.4 L-8.8 -8.9 -9.0 -8.9 Q-9.65 -9.75 -9.3 -11.1 L-9.25 -11.05 -9.3 -11.65 -9.3 -11.95 Q-9.3 -13.85 -7.8 -16.45 L-6.7 -18.55 -8.0 -18.7 Q-10.8 -19.1 -12.7 -19.85 -12.05 -18.45 -11.7 -15.75 -11.55 -13.35 -11.7 -9.75 -11.9 -9.4 -11.7 -8.9 L-11.55 -8.9 -11.7 -7.85 -11.4 -7.85 -11.7 -7.5 Q-12.25 -4.6 -12.9 -3.9 -13.95 -3.9 -13.95 -4.6 L-13.6 -6.85 Q-14.1 -7.35 -14.3 -8.9 L-14.45 -8.9 -14.45 -9.25 -15.3 -11.3 Q-15.65 -11.3 -15.3 -11.1 L-15.3 -10.75 Q-15.5 -10.45 -16.7 -10.1 -18.05 -10.25 -18.25 -11.95 L-17.2 -11.95 Q-19.1 -14.35 -21.65 -21.2 -22.15 -21.9 -22.15 -22.6 L-22.25 -22.8 -22.95 -23.15 -24.1 -24.1 -26.1 -24.3 -27.5 -24.5 -28.85 -24.65 -31.25 -25.7 -31.75 -25.85 Q-29.9 -24.15 -27.3 -19.35 -25.25 -15.05 -24.75 -12.3 L-24.75 -8.9 -24.55 -8.9 -24.75 -7.85 -24.05 -7.85 -24.05 -7.7 Q-25.25 -7.5 -26.45 -6.65 L-26.6 -7.0 -26.8 -7.85 -25.4 -7.85 -25.95 -8.9 -26.1 -8.9 -27.15 -11.65 -26.8 -11.65 -27.8 -15.9 Q-28.7 -17.95 -32.95 -25.15 L-32.8 -26.2 -34.0 -26.7 -35.35 -27.2 -36.9 -27.9 -41.7 -29.95 Q-44.6 -31.35 -47.0 -31.15 L-48.4 -31.15 -49.9 -32.7 Q-49.75 -33.75 -49.05 -34.05 L-43.95 -36.95 -40.7 -38.15 -30.8 -41.1 Q-29.9 -40.6 -27.9 -42.1 L-26.1 -43.65 -25.55 -42.65 -25.25 -41.45 Q-24.25 -42.3 -23.1 -43.3 -14.45 -45.4 -6.2 -46.9 1.05 -48.3 8.4 -48.3 L12.35 -48.3 12.2 -48.1 15.95 -47.75 16.05 -47.95 M29.8 -40.4 Q28.75 -40.4 28.1 -39.9 28.75 -40.4 29.8 -40.4 M18.25 -32.85 L16.9 -32.0 18.25 -32.85 M5.95 -37.85 Q3.9 -37.85 2.65 -36.95 3.9 -37.85 5.95 -37.85 M10.7 -39.2 L6.8 -36.95 10.7 -39.2 M30.75 -34.05 L28.2 -32.0 30.75 -34.05 M8.5 -6.5 L8.0 -3.6 7.45 -3.6 7.1 -6.65 7.3 -10.45 8.5 -10.25 8.0 -10.45 Q8.85 -12.85 11.25 -15.9 12.95 -18.15 15.7 -20.35 13.45 -18.15 12.1 -15.9 L11.9 -15.9 Q9.85 -12.65 9.0 -9.6 L8.5 -6.5 M3.0 -10.45 L2.65 -10.25 2.15 -11.1 3.0 -10.95 3.0 -10.45 M3.85 -7.85 L4.9 -7.85 2.65 -5.3 Q2.0 -5.3 2.0 -6.15 2.0 -6.5 2.85 -7.85 L3.7 -7.85 3.55 -7.7 3.7 -7.5 3.85 -7.85 M13.45 -7.7 L12.8 -7.85 13.65 -7.85 13.45 -7.7 M-19.7 -3.95 L-19.75 -4.1 -20.8 -6.0 -20.95 -6.15 -20.95 -6.3 -21.8 -7.2 Q-22.0 -7.2 -22.15 -7.35 L-22.15 -7.85 -22.15 -8.9 -22.35 -8.9 -22.5 -9.9 -22.7 -11.95 -22.0 -11.95 Q-26.3 -19.15 -26.45 -20.35 -27.3 -25.85 -23.35 -20.0 -19.75 -14.55 -19.1 -10.1 L-19.25 -9.25 -19.25 -8.9 -19.1 -8.9 -19.1 -7.85 -18.55 -7.85 -18.55 -7.2 -18.55 -6.15 Q-18.75 -2.9 -19.25 -2.7 L-19.7 -3.95 M20.85 5.65 L12.8 10.8 Q12.1 10.65 12.1 9.95 12.1 8.6 15.5 7.05 18.6 5.5 20.65 5.5 L20.85 5.65 M22.9 1.4 L17.4 4.15 Q16.55 4.65 14.85 6.0 13.65 7.05 12.95 7.05 L12.25 6.85 Q12.1 6.7 12.1 6.35 12.1 4.8 16.2 2.75 20.3 0.55 22.7 1.2 L22.9 1.4 M17.55 12.0 L15.5 13.7 12.8 15.25 12.6 15.25 Q12.6 12.7 17.4 11.85 L17.55 12.0 M12.1 19.05 L12.25 18.85 12.25 19.2 11.4 20.55 11.05 20.4 Q11.05 19.05 12.1 19.05 M-14.8 -34.95 Q-15.15 -34.4 -16.7 -33.4 -15.15 -34.4 -14.8 -34.95 M-0.95 -25.35 L-1.35 -24.85 Q-1.85 -24.5 -2.7 -24.5 -3.65 -24.55 -5.05 -25.15 -3.65 -24.55 -2.7 -24.5 -1.85 -24.5 -1.35 -24.85 L-0.95 -25.35 M-31.05 -8.95 L-31.25 -9.75 -32.45 -15.4 Q-34.0 -19.85 -40.0 -28.25 -36.05 -28.6 -31.6 -18.85 -30.05 -15.25 -29.0 -11.8 L-28.85 -11.8 Q-29.2 -11.45 -28.85 -10.95 L-28.35 -8.9 -28.15 -8.9 -28.15 -7.0 Q-28.15 -6.15 -28.7 -4.95 L-29.9 -2.55 -30.05 -2.9 -30.55 -5.1 -30.9 -7.85 -30.9 -8.4 -30.9 -8.9 -31.05 -8.9 -31.05 -8.95 M-21.8 -7.2 L-22.15 -8.9 -22.5 -9.9 -22.15 -8.9 -21.8 -7.2 M-13.7 -20.35 L-15.8 -21.75 -16.05 -21.9 Q-15.75 -20.35 -14.1 -16.95 L-13.45 -15.55 -13.75 -19.0 -13.55 -20.25 -13.7 -20.35 M-17.4 -22.35 L-20.75 -22.45 Q-19.4 -20.75 -17.55 -16.95 L-15.15 -11.95 Q-14.95 -12.15 -14.45 -11.95 -15.3 -13.35 -15.85 -15.05 -17.05 -17.8 -18.05 -20.7 -18.25 -21.3 -16.6 -22.15 L-17.4 -22.35 M-16.5 -7.35 L-16.5 -7.85 -14.95 -7.85 Q-15.5 -7.0 -16.15 -6.85 L-16.5 -7.35" fill="#ffffff" fill-rule="evenodd" stroke="none"/>
      <path d="M-48.4 -31.15 L-47.0 -31.15 Q-44.6 -31.35 -41.7 -29.95 L-36.9 -27.9 -35.35 -27.2 -34.0 -26.7 -32.8 -26.2 -32.95 -25.15 Q-28.7 -17.95 -27.8 -15.9 L-26.8 -11.65 -27.15 -11.65 -26.1 -8.9 -25.95 -8.9 -25.4 -7.85 -26.8 -7.85 -26.6 -7.0 -26.45 -6.65 -27.3 -6.15 -27.5 -6.15 -28.7 -4.95 Q-28.15 -6.15 -28.15 -7.0 L-28.15 -8.9 -28.35 -8.9 -28.85 -10.95 Q-29.2 -11.45 -28.85 -11.8 L-29.0 -11.8 Q-30.05 -15.25 -31.6 -18.85 -36.05 -28.6 -40.0 -28.25 -34.0 -19.85 -32.45 -15.4 L-31.25 -9.75 -31.05 -8.95 -31.6 -10.1 -31.05 -8.95 -31.05 -8.9 -30.9 -8.9 -30.9 -8.4 -30.9 -7.85 -30.55 -5.1 -30.05 -2.9 -29.9 -2.55 -30.4 -1.35 -30.75 -3.75 -31.05 -5.3 -31.05 -5.65 -31.4 -7.85 -31.4 -8.9 Q-31.75 -9.75 -31.6 -10.1 L-32.6 -11.95 Q-33.15 -12.5 -33.3 -13.15 L-36.05 -16.95 -38.6 -20.35 Q-43.75 -26.9 -48.4 -31.15 M-24.05 -7.7 L-24.05 -7.85 -24.75 -7.85 -24.55 -8.9 -24.75 -8.9 -24.75 -12.3 Q-25.25 -15.05 -27.3 -19.35 -29.9 -24.15 -31.75 -25.85 L-31.25 -25.7 -28.85 -24.65 -27.5 -24.5 -26.1 -24.3 -24.1 -24.1 -22.95 -23.15 -22.25 -22.8 -22.15 -22.6 Q-22.15 -21.9 -21.65 -21.2 -19.1 -14.35 -17.2 -11.95 L-18.25 -11.95 Q-18.05 -10.25 -16.7 -10.1 -15.5 -10.45 -15.3 -10.75 L-15.3 -11.1 Q-15.65 -11.3 -15.3 -11.3 L-14.45 -9.25 -14.45 -8.9 -14.3 -8.9 Q-14.1 -7.35 -13.6 -6.85 L-13.95 -4.6 Q-13.95 -3.9 -12.9 -3.9 -12.25 -4.6 -11.7 -7.5 L-11.4 -7.85 -11.7 -7.85 -11.55 -8.9 -11.7 -8.9 Q-11.9 -9.4 -11.7 -9.75 -11.55 -13.35 -11.7 -15.75 -12.05 -18.45 -12.7 -19.85 -10.8 -19.1 -8.0 -18.7 L-6.7 -18.55 -7.8 -16.45 Q-9.3 -13.85 -9.3 -11.95 L-9.3 -11.65 -9.25 -11.05 -9.3 -11.1 Q-9.65 -9.75 -9.0 -8.9 L-8.8 -8.9 -8.3 -8.4 Q-7.95 -7.0 -7.25 -6.0 L-6.9 -6.3 -7.1 -8.9 Q-7.45 -9.4 -7.25 -9.75 L-4.3 -18.35 -1.3 -18.3 -0.05 -18.35 -0.75 -16.95 Q-2.8 -13.7 -3.0 -11.65 L-3.5 -11.65 -3.3 -9.75 Q-3.5 -9.4 -3.3 -8.9 L-3.15 -7.85 -3.5 -7.85 -3.65 -6.0 Q-3.65 -4.8 -3.0 -4.8 L-2.65 -5.45 -2.45 -4.8 -2.15 -4.8 -1.8 -7.2 -1.45 -7.85 -1.8 -7.85 -1.6 -8.9 -1.8 -8.9 -1.6 -9.25 Q-1.8 -10.6 -1.45 -11.45 L-1.6 -11.45 Q-0.95 -14.65 1.7 -18.6 L5.1 -19.2 9.35 -19.95 10.2 -20.1 11.2 -19.7 Q11.8 -19.35 12.15 -19.35 31.05 -26.1 31.05 -27.85 L31.05 -28.25 32.15 -28.4 32.3 -28.4 32.5 -28.6 32.8 -28.6 33.0 -28.7 33.15 -28.75 33.35 -28.95 36.6 -30.45 Q37.45 -31.0 40.55 -31.0 42.6 -31.15 47.05 -33.9 L51.45 -36.95 51.5 -37.0 51.5 -36.95 51.85 -33.55 Q51.3 -31.5 49.8 -28.95 L48.6 -27.4 45.5 -23.45 45.5 -23.3 45.0 -22.75 Q44.1 -21.75 43.8 -20.7 L43.25 -19.7 Q43.1 -19.5 43.1 -19.15 42.75 -18.15 41.05 -15.9 L38.65 -10.6 36.95 -7.0 Q35.9 -4.95 34.0 -2.7 L33.35 -2.05 32.8 -0.15 33.0 4.15 Q32.8 8.75 25.8 17.65 25.1 18.7 21.7 28.1 19.65 33.4 16.7 33.4 14.5 33.4 12.6 32.55 L11.75 32.2 13.45 30.0 15.15 26.75 23.75 16.1 23.75 15.95 23.4 15.95 Q22.55 16.1 17.05 20.9 12.1 24.7 9.85 24.35 7.65 23.85 7.8 22.8 8.0 21.6 9.2 19.55 10.2 17.3 10.9 16.45 11.4 15.45 11.05 13.9 10.4 12.2 10.55 11.5 11.6 8.05 11.6 6.0 11.6 3.45 9.5 1.4 L8.65 0.7 5.75 -1.35 Q-0.25 -4.6 -6.05 -4.45 -12.05 -4.6 -19.25 -2.2 L-19.7 -3.95 -19.25 -2.7 Q-18.75 -2.9 -18.55 -6.15 L-18.55 -7.2 -18.55 -7.85 -19.1 -7.85 -19.1 -8.9 -19.25 -8.9 -19.25 -9.25 -19.1 -10.1 Q-19.75 -14.55 -23.35 -20.0 -27.3 -25.85 -26.45 -20.35 -26.3 -19.15 -22.0 -11.95 L-22.7 -11.95 -22.5 -9.9 -22.35 -8.9 -22.15 -8.9 -22.15 -7.85 -22.15 -7.35 Q-22.85 -7.85 -23.7 -7.7 L-24.05 -7.7 M8.5 -6.5 L9.0 -9.6 Q9.85 -12.65 11.9 -15.9 L12.1 -15.9 Q13.45 -18.15 15.7 -20.35 12.95 -18.15 11.25 -15.9 8.85 -12.85 8.0 -10.45 L8.5 -10.25 7.3 -10.45 7.1 -6.65 7.45 -3.6 8.0 -3.6 8.5 -6.5 11.4 -9.9 11.4 -10.1 16.2 -15.25 17.05 -15.9 Q24.4 -21.9 30.75 -23.45 24.4 -21.9 17.05 -15.9 L16.2 -15.25 11.4 -10.1 11.4 -9.9 8.5 -6.5 M5.4 -16.25 L9.35 -19.95 5.4 -16.25 M3.0 -10.45 L3.0 -10.95 2.15 -11.1 2.65 -10.25 3.0 -10.45 M3.85 -7.85 L3.7 -7.5 3.55 -7.7 3.7 -7.85 2.85 -7.85 Q2.0 -6.5 2.0 -6.15 2.0 -5.3 2.65 -5.3 L4.9 -7.85 3.85 -7.85 M13.45 -7.7 L13.65 -7.85 12.8 -7.85 13.45 -7.7 M34.35 -14.2 Q27.7 -12.3 20.65 -7.85 17.25 -5.8 13.8 -3.25 17.25 -5.8 20.65 -7.85 27.7 -12.3 34.35 -14.2 M25.1 -2.05 L36.95 -7.0 25.1 -2.05 M5.4 -15.05 L0.6 -11.3 -1.6 -9.25 0.6 -11.3 5.4 -15.05 M12.1 19.05 Q11.05 19.05 11.05 20.4 L11.4 20.55 12.25 19.2 12.25 18.85 12.1 19.05 M17.55 12.0 L17.4 11.85 Q12.6 12.7 12.6 15.25 L12.8 15.25 15.5 13.7 17.55 12.0 M22.9 1.4 L22.7 1.2 Q20.3 0.55 16.2 2.75 12.1 4.8 12.1 6.35 12.1 6.7 12.25 6.85 L12.95 7.05 Q13.65 7.05 14.85 6.0 16.55 4.65 17.4 4.15 L22.9 1.4 M20.85 5.65 L20.65 5.5 Q18.6 5.5 15.5 7.05 12.1 8.6 12.1 9.95 12.1 10.65 12.8 10.8 L20.85 5.65 M-21.65 -21.2 L-19.45 -14.7 -18.4 -11.95 -17.9 -8.9 -18.55 -6.15 -17.9 -8.9 -18.4 -11.95 -19.45 -14.7 -21.65 -21.2 M-31.05 -8.9 L-30.9 -8.4 -31.05 -8.9 M-30.75 -3.75 Q-30.75 -4.6 -31.05 -5.65 -30.75 -4.6 -30.75 -3.75 M-31.25 -25.7 Q-29.2 -23.95 -25.75 -17.65 L-23.0 -11.95 -22.5 -9.9 -23.0 -11.95 -25.75 -17.65 Q-29.2 -23.95 -31.25 -25.7 M-17.4 -22.35 L-16.6 -22.15 Q-18.25 -21.3 -18.05 -20.7 -17.05 -17.8 -15.85 -15.05 -15.3 -13.35 -14.45 -11.95 -14.95 -12.15 -15.15 -11.95 L-17.55 -16.95 Q-19.4 -20.75 -20.75 -22.45 L-17.4 -22.35 M-13.7 -20.35 L-13.55 -20.25 -13.75 -19.0 -13.45 -15.55 -14.1 -16.95 Q-15.75 -20.35 -16.05 -21.9 L-15.8 -21.75 -13.7 -20.35 M-8.0 -18.7 Q-9.6 -15.8 -10.5 -11.95 -11.05 -10.75 -11.2 -8.9 L-11.4 -7.85 -11.2 -8.9 Q-11.05 -10.75 -10.5 -11.95 -9.6 -15.8 -8.0 -18.7 M-16.5 -7.35 L-16.15 -6.85 Q-15.5 -7.0 -14.95 -7.85 L-16.5 -7.85 -16.5 -7.35" fill="#d6baba" fill-rule="evenodd" stroke="none"/>
      <path d="M47.35 -39.2 L43.8 -40.9 Q39.3 -43.15 36.5 -43.0 L34.3 -43.6 24.3 -46.05 Q22.9 -45.4 22.05 -45.4 L21.3 -47.25 20.55 -46.9 16.4 -47.95 16.05 -47.95 M15.95 -47.75 L12.2 -48.1 M12.35 -48.3 L8.4 -48.3 Q1.05 -48.3 -6.2 -46.9 -14.45 -45.4 -23.1 -43.3 -24.25 -42.3 -25.25 -41.45 L-25.55 -42.65 -26.1 -43.65 -27.9 -42.1 Q-29.9 -40.6 -30.8 -41.1 L-40.7 -38.15 -43.95 -36.95 -49.05 -34.05 Q-49.75 -33.75 -49.9 -32.7 L-48.4 -31.15 Q-43.75 -26.9 -38.6 -20.35 L-36.05 -16.95 -33.3 -13.15 Q-33.15 -12.5 -32.6 -11.95 L-31.6 -10.1 -31.05 -8.95 M-35.35 -27.2 L-34.0 -26.7 M-31.75 -25.85 L-31.25 -25.7 M-27.5 -24.5 L-26.1 -24.3 M-11.7 -7.5 L-11.4 -7.85 -11.2 -8.9 Q-11.05 -10.75 -10.5 -11.95 -9.6 -15.8 -8.0 -18.7 M32.5 -28.6 L33.0 -28.7 33.15 -28.75 33.35 -28.95 M36.6 -30.45 Q37.45 -31.0 40.55 -31.0 M51.5 -37.0 L47.6 -39.05 M47.35 -39.2 L48.05 -39.55 47.6 -39.05 M28.1 -39.9 Q28.75 -40.4 29.8 -40.4 M28.2 -32.0 L30.75 -34.05 M6.8 -36.95 L10.7 -39.2 M2.65 -36.95 Q3.9 -37.85 5.95 -37.85 M16.9 -32.0 L18.25 -32.85 M8.5 -6.5 L11.4 -9.9 11.4 -10.1 16.2 -15.25 17.05 -15.9 Q24.4 -21.9 30.75 -23.45 M9.35 -19.95 L5.4 -16.25 M-1.6 -9.25 L0.6 -11.3 5.4 -15.05 M36.95 -7.0 L25.1 -2.05 M13.8 -3.25 Q17.25 -5.8 20.65 -7.85 27.7 -12.3 34.35 -14.2 M38.65 -10.6 L36.95 -7.0 Q35.9 -4.95 34.0 -2.7 L33.35 -2.05 32.8 -0.15 33.0 4.15 Q32.8 8.75 25.8 17.65 25.1 18.7 21.7 28.1 19.65 33.4 16.7 33.4 14.5 33.4 12.6 32.55 L11.75 32.2 13.45 30.0 15.15 26.75 23.75 16.1 23.75 15.95 23.4 15.95 Q22.55 16.1 17.05 20.9 12.1 24.7 9.85 24.35 7.65 23.85 7.8 22.8 8.0 21.6 9.2 19.55 10.2 17.3 10.9 16.45 11.4 15.45 11.05 13.9 10.4 12.2 10.55 11.5 11.6 8.05 11.6 6.0 11.6 3.45 9.5 1.4 L8.65 0.7 M-20.8 -6.0 L-20.95 -6.15 Q-21.8 -6.5 -21.8 -7.2 M-23.7 -7.7 L-24.05 -7.7 M51.5 -37.0 L51.5 -36.95 51.85 -33.55 Q51.3 -31.5 49.8 -28.95 L48.6 -27.4 45.5 -23.45 45.65 -23.45 Q47.7 -25.7 50.8 -26.2 M45.5 -23.45 L45.5 -23.3 45.0 -22.75 Q44.1 -21.75 43.8 -20.7 L43.25 -19.7 Q43.1 -19.5 43.1 -19.15 42.75 -18.15 41.05 -15.9 L38.65 -10.6 Q40.85 -12.5 44.65 -14.7 M-5.05 -25.15 Q-3.65 -24.55 -2.7 -24.5 -1.85 -24.5 -1.35 -24.85 L-0.95 -25.35 M-16.7 -33.4 Q-15.15 -34.4 -14.8 -34.95 M-18.55 -6.15 L-17.9 -8.9 -18.4 -11.95 -19.45 -14.7 -21.65 -21.2 M-34.65 -10.75 Q-34.0 -10.75 -32.45 -8.9 L-32.1 -8.05 Q-31.4 -6.85 -31.05 -5.65 L-31.4 -7.85 -31.4 -8.9 Q-31.75 -9.75 -31.6 -10.1 M-30.9 -8.4 L-30.9 -7.85 -30.55 -5.1 M-30.9 -8.4 L-31.05 -8.9 -31.05 -8.95 M-31.05 -5.65 Q-30.75 -4.6 -30.75 -3.75 L-30.4 -1.35 -29.9 -2.55 M-30.75 -3.75 L-31.05 -5.3 -31.05 -5.65 M-22.5 -9.9 L-23.0 -11.95 -25.75 -17.65 Q-29.2 -23.95 -31.25 -25.7 M-22.5 -9.9 L-22.15 -8.9 -21.8 -7.2 M-36.05 -16.95 Q-39.15 -20.0 -44.8 -23.3" fill="none" stroke="#000000" stroke-linecap="round" stroke-linejoin="round" stroke-opacity="0.3019608" stroke-width="0.05"/>
    </g>
    <g id="sprite8" transform="matrix(1.0, 0.0, 0.0, 1.0, 22.25, 11.8)">
      <use height="23.45" id="_col1" transform="matrix(1.0, 0.0, 0.0, 1.0, -21.85, -6.65)" width="43.7" xlink:href="#sprite9"/>
    </g>
    <g id="sprite9" transform="matrix(1.0, 0.0, 0.0, 1.0, 24.2, -0.15)">
      <use height="23.45" transform="matrix(1.0, 0.0, 0.0, 1.0, -24.2, 0.15)" width="43.7" xlink:href="#shape5"/>
    </g>
    <g id="shape5" transform="matrix(1.0, 0.0, 0.0, 1.0, 24.2, -0.15)">
      <path d="M17.6 5.9 L17.1 6.4 Q15.7 8.15 14.45 10.4 L9.8 17.85 8.9 18.9 9.1 19.1 Q6.65 20.8 1.1 22.4 -4.6 23.75 -7.05 23.6 -9.65 23.4 -13.65 22.2 -17.6 21.0 -20.9 17.85 -22.5 16.15 -23.15 14.4 L-23.35 14.4 -23.5 13.75 -23.5 13.7 Q-24.05 12.65 -24.05 11.8 L-24.05 11.45 Q-21.8 12.3 -16.25 12.3 -12.75 12.3 -8.6 13.55 -7.55 13.7 -5.8 14.75 L-3.4 15.45 Q0.25 15.45 3.55 13.9 5.65 13.55 7.35 12.3 L8.9 10.4 Q9.8 9.35 10.3 8.0 L11.2 6.95 Q11.85 5.2 13.6 3.65 L14.3 3.1 17.6 5.9 M1.3 16.3 L1.1 15.8 -0.6 15.8 -1.15 15.95 -0.95 16.85 0.95 16.85 1.3 16.3 M5.65 15.95 L5.95 15.6 Q4.95 15.1 4.6 15.1 L4.05 15.1 3.9 15.45 Q3.9 15.95 4.05 15.95 L5.65 15.95 M-12.6 17.0 L-10.35 17.0 Q-9.65 16.85 -10.7 16.3 L-14.35 14.55 -16.25 13.7 -19.35 14.9 -17.95 15.8 -12.6 17.0 M-7.4 14.4 L-8.95 14.55 Q-8.25 16.5 -6.35 16.5 -5.5 16.5 -5.15 16.15 L-4.95 15.6 Q-6.0 14.4 -7.4 14.4 M-16.05 17.85 Q-17.1 17.85 -17.1 18.55 -16.75 21.0 -13.65 21.0 -11.9 21.0 -11.9 19.95 -12.6 19.1 -14.15 18.4 -15.55 17.85 -16.05 17.85 M-23.15 14.4 L-23.5 13.75 -23.15 14.4 M-23.15 12.65 Q-22.85 14.05 -21.45 14.05 L-20.75 13.55 Q-21.1 12.15 -23.0 12.15 L-23.15 12.65" fill="#d6baba" fill-rule="evenodd" stroke="none"/>
      <path d="M-24.05 11.45 L-24.2 10.4 Q-24.2 6.05 -22.85 5.05 -19.0 10.75 -17.6 10.75 -14.0 9.55 -11.2 10.05 -8.6 10.6 -5.3 12.3 -2.0 13.9 2.15 13.9 L3.55 13.9 Q0.25 15.45 -3.4 15.45 L-5.8 14.75 Q-7.55 13.7 -8.6 13.55 -12.75 12.3 -16.25 12.3 -21.8 12.3 -24.05 11.45 M8.9 10.4 Q9.8 9.2 10.5 7.45 10.65 6.6 12.2 4.15 L12.55 3.3 12.75 3.3 13.95 3.1 Q13.95 2.95 14.15 2.95 L14.3 3.1 13.6 3.65 Q11.85 5.2 11.2 6.95 L10.3 8.0 Q9.8 9.35 8.9 10.4 M5.65 15.95 L4.05 15.95 Q3.9 15.95 3.9 15.45 L4.05 15.1 4.6 15.1 Q4.95 15.1 5.95 15.6 L5.65 15.95 M1.3 16.3 L0.95 16.85 -0.95 16.85 -1.15 15.95 -0.6 15.8 1.1 15.8 1.3 16.3 M-16.05 17.85 Q-15.55 17.85 -14.15 18.4 -12.6 19.1 -11.9 19.95 -11.9 21.0 -13.65 21.0 -16.75 21.0 -17.1 18.55 -17.1 17.85 -16.05 17.85 M-7.4 14.4 Q-6.0 14.4 -4.95 15.6 L-5.15 16.15 Q-5.5 16.5 -6.35 16.5 -8.25 16.5 -8.95 14.55 L-7.4 14.4 M-23.15 12.65 L-23.0 12.15 Q-21.1 12.15 -20.75 13.55 L-21.45 14.05 Q-22.85 14.05 -23.15 12.65" fill="#ffffff" fill-rule="evenodd" stroke="none"/>
      <path d="M16.75 1.05 L17.25 0.85 17.25 1.4 Q17.25 1.75 17.75 2.1 L18.3 1.75 Q19.5 1.75 19.5 2.75 L19.5 3.1 17.6 5.9 14.3 3.1 14.3 2.95 15.15 1.75 15.35 1.55 15.5 1.4 Q16.05 1.05 16.75 1.05" fill="#d6baba" fill-opacity="0.5019608" fill-rule="evenodd" stroke="none"/>
      <path d="M12.75 3.3 L13.8 0.15 Q16.2 0.15 16.75 1.05 16.05 1.05 15.5 1.4 L15.35 1.55 15.15 1.75 14.3 2.95 14.3 3.1 14.15 2.95 Q13.95 2.95 13.95 3.1 L12.75 3.3" fill="#ffffff" fill-opacity="0.5019608" fill-rule="evenodd" stroke="none"/>
      <path d="M17.1 6.4 Q15.7 8.15 14.45 10.4 L9.8 17.85 Q9.8 18.55 9.25 18.9 L9.1 18.9 9.1 19.1 Q6.65 20.8 1.1 22.4 -4.6 23.75 -7.05 23.6 -9.65 23.4 -13.65 22.2 -17.6 21.0 -20.9 17.85 -22.5 16.15 -23.15 14.4 M-23.5 13.75 L-23.5 13.7 Q-24.05 12.65 -24.05 11.8 L-24.05 11.45 -24.2 10.4 Q-24.2 6.05 -22.85 5.05 -19.0 10.75 -17.6 10.75 -14.0 9.55 -11.2 10.05 -8.6 10.6 -5.3 12.3 -2.0 13.9 2.15 13.9 L3.55 13.9 Q5.65 13.55 7.35 12.3 L8.9 10.4 Q9.8 9.2 10.5 7.45 10.65 6.6 12.2 4.15 L12.55 3.3 M9.1 18.9 L8.9 18.9 9.8 17.85 M-23.5 13.75 L-23.15 14.4" fill="none" stroke="#000000" stroke-linecap="round" stroke-linejoin="round" stroke-opacity="0.3019608" stroke-width="0.05"/>
      <path d="M19.5 3.1 L17.6 5.9 M12.75 3.3 L13.8 0.15" fill="none" stroke="#000000" stroke-linecap="round" stroke-linejoin="round" stroke-opacity="0.15294118" stroke-width="0.05"/>
    </g>
    <g id="sprite10" transform="matrix(1.0, 0.0, 0.0, 1.0, 8.95, 9.65)">
      <use height="19.35" transform="matrix(1.0, 0.0, 0.0, 1.0, -8.95, -9.65)" width="17.9" xlink:href="#shape6"/>
    </g>
    <g id="shape6" transform="matrix(1.0, 0.0, 0.0, 1.0, 8.95, 9.65)">
      <path d="M-1.5 -6.7 Q-1.15 -7.25 -0.6 -7.4 1.35 -8.45 3.25 -8.8 L3.95 -8.95 Q6.9 -7.4 4.1 -5.15 2.0 -3.4 -0.6 -4.1 -0.95 -4.45 -1.45 -4.6 -1.9 -5.2 -1.85 -5.8 L-1.9 -5.75 -1.85 -5.85 -1.85 -6.0 Q-1.85 -6.55 -1.5 -6.7 M-3.5 -4.55 L-3.55 -4.45 -3.5 -4.55 M-8.95 7.0 L-8.9 7.0 -8.05 8.55 -6.3 9.6 -6.35 9.6 -8.05 8.6 -8.1 8.55 -8.95 7.05 -8.95 7.0" fill="#efcdaf" fill-rule="evenodd" stroke="none"/>
      <path d="M1.5 4.05 L3.25 2.3 Q5.3 -0.1 3.95 -2.9 3.6 -3.25 3.25 -3.4 1.35 -3.9 -0.05 -3.4 -0.75 -3.25 -1.25 -2.7 L-4.2 0.75 -1.25 -2.7 Q-0.75 -3.25 -0.05 -3.4 1.35 -3.9 3.25 -3.4 3.6 -3.25 3.95 -2.9 5.3 -0.1 3.25 2.3 L1.5 4.05 M-1.5 -6.7 L-1.5 -6.75 -1.45 -6.8 -0.75 -8.05 -0.75 -8.1 Q1.75 -9.55 4.1 -9.65 L6.7 -8.8 Q10.0 -5.3 8.45 -0.1 7.55 2.5 6.15 4.4 0.95 10.45 -6.3 9.6 L-8.05 8.55 -8.9 7.0 -8.95 7.0 -3.6 -4.45 -3.55 -4.45 -3.5 -4.55 -1.9 -5.75 -1.85 -5.8 Q-1.9 -5.2 -1.45 -4.6 -0.95 -4.45 -0.6 -4.1 2.0 -3.4 4.1 -5.15 6.9 -7.4 3.95 -8.95 L3.25 -8.8 Q1.35 -8.45 -0.6 -7.4 -1.15 -7.25 -1.5 -6.7" fill="#c6886a" fill-rule="evenodd" stroke="none"/>
      <path d="M-4.2 0.75 L-1.25 -2.7 Q-0.75 -3.25 -0.05 -3.4 1.35 -3.9 3.25 -3.4 3.6 -3.25 3.95 -2.9 5.3 -0.1 3.25 2.3 L1.5 4.05 M-6.3 9.6 Q0.95 10.45 6.15 4.4 7.55 2.5 8.45 -0.1 10.0 -5.3 6.7 -8.8 L4.1 -9.65 Q1.75 -9.55 -0.75 -8.1 L-0.75 -8.05 -1.45 -6.8 -1.5 -6.75 -1.5 -6.7 M-8.9 7.0 L-8.05 8.55 -6.3 9.6" fill="none" stroke="#000000" stroke-linecap="round" stroke-linejoin="round" stroke-opacity="0.3019608" stroke-width="0.05"/>
    </g>
  </defs>
</svg>
