<?xml version="1.0" encoding="UTF-8" standalone="no"?>
<svg xmlns:xlink="http://www.w3.org/1999/xlink" height="115.6px" width="108.25px" xmlns="http://www.w3.org/2000/svg">
  <g transform="matrix(1.0, 0.0, 0.0, 1.0, 56.1, 59.8)">
    <use height="63.95" id="_col0a" transform="matrix(1.0, 0.0, 0.0, 1.0, -31.35, -25.9)" width="63.3" xlink:href="#sprite0"/>
    <use height="28.7" transform="matrix(0.9958, 0.088, 0.0, 1.0, -32.563, 2.769)" width="42.9" xlink:href="#sprite1"/>
    <use height="12.9" id="_col1d" transform="matrix(1.0, 0.0, 0.0, 1.0, -32.3, 5.25)" width="38.3" xlink:href="#sprite6"/>
    <use height="20.1" transform="matrix(1.0, 0.0, 0.0, 1.0, -28.4, -8.7)" width="38.15" xlink:href="#shape4"/>
    <use height="79.65" id="_col1" transform="matrix(1.0, 0.0, 0.0, 1.0, -42.35, -41.7)" width="81.4" xlink:href="#sprite7"/>
    <use height="42.75" id="_p4" transform="matrix(1.0, 0.0, 0.0, 1.0, -28.0497, 13.0502)" width="46.6" xlink:href="#sprite8"/>
    <use height="19.35" id="_col0c" transform="matrix(1.0, 0.0, 0.0, 1.0, 12.55, 11.7)" width="17.9" xlink:href="#sprite10"/>
  </g>
  <defs>
    <g id="sprite0" transform="matrix(1.0, 0.0, 0.0, 1.0, 31.35, 31.95)">
      <use height="63.95" transform="matrix(1.0, 0.0, 0.0, 1.0, -31.35, -31.95)" width="63.3" xlink:href="#shape0"/>
    </g>
    <g id="shape0" transform="matrix(1.0, 0.0, 0.0, 1.0, 31.35, 31.95)">
      <path d="M-19.5 28.2 L-22.1 26.65 Q-27.15 23.0 -26.25 17.45 L-26.1 16.25 Q-25.6 14.5 -26.1 13.1 L-26.25 12.75 -26.8 12.05 -26.95 11.9 Q-28.55 9.8 -29.4 7.55 -30.95 3.9 -31.3 0.45 -31.65 -8.75 -27.5 -17.1 -23.3 -26.45 -14.45 -29.55 -4.75 -32.85 5.15 -31.65 L5.85 -31.6 7.9 -29.9 Q13.45 -25.9 12.95 -19.0 12.25 -10.65 9.3 -2.7 7.55 1.65 3.4 3.55 -5.3 7.9 -13.95 11.7 L-15.0 11.55 Q-17.95 9.45 -19.35 11.9 -20.55 11.55 -21.6 12.25 L-22.45 13.1 -23.15 12.95 -25.4 12.05 -25.6 12.05 -26.25 11.7 -26.25 11.9 -26.1 12.05 -25.6 12.75 -25.4 13.1 Q-24.9 14.5 -25.4 16.25 L-25.6 17.45 -25.05 17.6 -21.6 18.15 -15.15 19.7 Q-13.45 20.05 -11.85 20.9 -10.85 21.45 -9.95 22.3 -8.9 23.0 -7.9 24.05 L-7.55 24.2 -7.9 24.4 Q-12.9 28.4 -19.5 28.2" fill="#efcdaf" fill-rule="evenodd" stroke="none"/>
      <path d="M-19.5 28.2 Q-12.9 28.4 -7.9 24.4 L-7.55 24.2 -7.9 24.05 Q-8.9 23.0 -9.95 22.3 -10.85 21.45 -11.85 20.9 -13.45 20.05 -15.15 19.7 L-21.6 18.15 -25.05 17.6 -25.6 17.45 -25.4 16.25 Q-24.9 14.5 -25.4 13.1 L-25.6 12.75 -26.1 12.05 -26.25 11.9 -26.25 11.7 -25.6 12.05 -25.4 12.05 -23.15 12.95 -22.45 13.1 -21.6 12.25 Q-20.55 11.55 -19.35 11.9 -17.95 9.45 -15.0 11.55 L-13.95 11.7 Q-5.3 7.9 3.4 3.55 7.55 1.65 9.3 -2.7 12.25 -10.65 12.95 -19.0 13.45 -25.9 7.9 -29.9 L5.85 -31.6 5.8 -31.65 7.55 -31.5 10.7 -30.45 12.95 -29.55 Q15.55 -28.55 18.65 -26.8 27.85 -21.75 30.45 -12.55 32.9 -3.55 31.35 0.8 29.95 4.95 28.55 6.15 27.15 7.2 26.8 8.95 25.95 11.7 24.55 14.35 L22.65 17.45 18.15 22.15 16.75 23.35 16.6 23.35 12.75 25.8 Q7.2 28.9 2.0 30.3 -3.9 32.0 -9.45 32.0 L-10.15 32.0 -13.8 31.0 -17.4 29.4 -19.5 28.2" fill="#c6886a" fill-rule="evenodd" stroke="none"/>
      <path d="M5.85 -31.6 L5.15 -31.65 Q-4.75 -32.85 -14.45 -29.55 -23.3 -26.45 -27.5 -17.1 -31.65 -8.75 -31.3 0.45 -30.95 3.9 -29.4 7.55 -28.55 9.8 -26.95 11.9 L-26.8 12.05 -26.25 12.75 -26.1 13.1 Q-25.6 14.5 -26.1 16.25 L-26.25 17.45 Q-27.15 23.0 -22.1 26.65 L-19.5 28.2 M5.85 -31.6 L5.8 -31.65 7.55 -31.5 10.7 -30.45 12.95 -29.55 Q15.55 -28.55 18.65 -26.8 27.85 -21.75 30.45 -12.55 32.9 -3.55 31.35 0.8 29.95 4.95 28.55 6.15 27.15 7.2 26.8 8.95 25.95 11.7 24.55 14.35 L22.65 17.45 18.15 22.15 16.75 23.35 16.6 23.35 12.75 25.8 Q7.2 28.9 2.0 30.3 -3.9 32.0 -9.45 32.0 L-10.15 32.0 -13.8 31.0 -17.4 29.4 -19.5 28.2" fill="none" stroke="#000000" stroke-linecap="round" stroke-linejoin="round" stroke-opacity="0.3019608" stroke-width="0.05"/>
    </g>
    <g id="sprite1" transform="matrix(1.0, 0.0, 0.0, 1.0, 20.8, 22.05)">
      <use height="6.05" id="yeux" transform="matrix(3.5469, 0.6759, 0.0, 3.8129, -7.3594, -22.0349)" width="8.3" xlink:href="#sprite2"/>
      <use height="6.05" transform="matrix(-0.7089, 0.0624, 0.9139, 3.339, -14.9276, -20.8291)" width="8.3" xlink:href="#sprite2"/>
    </g>
    <g id="sprite2" transform="matrix(1.0, 0.0, 0.0, 1.0, 3.4, 5.95)">
      <use height="3.3" transform="matrix(1.0, 0.0, 0.0, 1.0, -2.8, -3.2)" width="6.6" xlink:href="#sprite3"/>
    </g>
    <g id="sprite3" transform="matrix(1.0, 0.0, 0.0, 1.0, 3.05, 0.7)">
      <use height="3.3" transform="matrix(1.0, 0.0, 0.0, 1.0, -3.05, -0.7)" width="6.6" xlink:href="#sprite4"/>
    </g>
    <g id="sprite4" transform="matrix(1.0, 0.0, 0.0, 1.0, 3.4, 1.65)">
      <use height="2.9" transform="matrix(1.0, 0.0, 0.0, 1.0, -3.4, -1.55)" width="5.55" xlink:href="#shape1"/>
      <use height="2.9" id="_col3" transform="matrix(1.0, 0.0, 0.0, 1.0, -1.85, -1.55)" width="2.5" xlink:href="#sprite5"/>
    </g>
    <g id="shape1" transform="matrix(1.0, 0.0, 0.0, 1.0, 3.4, 1.55)">
      <path d="M1.2 -1.45 Q2.05 -0.75 1.7 0.0 L1.3 0.75 0.55 1.05 0.65 0.7 0.65 0.05 0.5 -0.55 -0.15 -1.55 1.2 -1.45 M-1.65 -0.95 L-1.8 -0.1 -1.75 0.45 -1.65 0.75 -1.5 1.0 -1.15 1.3 -1.0 1.35 -2.4 1.3 -2.5 1.1 -2.55 0.35 -1.65 -0.95" fill="#fbfbfb" fill-rule="evenodd" stroke="none"/>
      <path d="M2.15 -1.35 L1.2 -1.45 Q2.05 -0.75 1.7 0.0 L1.3 0.75 M-0.15 -1.55 L-1.65 -0.95 M-2.55 0.35 L-2.95 0.5 -3.4 0.55 M-2.55 0.35 L-1.65 -0.95 M-0.15 -1.55 L1.2 -1.45" fill="none" stroke="#000000" stroke-linecap="round" stroke-linejoin="round" stroke-opacity="0.2509804" stroke-width="0.05"/>
      <path d="M0.55 1.05 L0.65 0.7 0.65 0.05 0.5 -0.55 -0.15 -1.55 M-1.65 -0.95 L-1.8 -0.1 -1.75 0.45 -1.65 0.75 -1.5 1.0 -1.15 1.3 -1.0 1.35" fill="none" stroke="#000000" stroke-linecap="round" stroke-linejoin="round" stroke-opacity="0.4" stroke-width="0.05"/>
    </g>
    <g id="sprite5" transform="matrix(1.0, 0.0, 0.0, 1.0, 1.25, 1.45)">
      <use height="2.9" transform="matrix(1.0, 0.0, 0.0, 1.0, -1.25, -1.45)" width="2.5" xlink:href="#shape2"/>
    </g>
    <g id="shape2" transform="matrix(1.0, 0.0, 0.0, 1.0, 1.25, 1.45)">
      <path d="M-0.1 0.8 L0.1 0.8 0.25 0.75 -0.1 0.8" fill="#cccccc" fill-rule="evenodd" stroke="none"/>
      <path d="M0.25 0.75 L0.45 0.7 0.6 0.6 0.65 0.65 0.15 1.15 Q-0.55 1.4 -0.7 0.9 L-0.6 0.7 -0.1 0.8 0.25 0.75" fill="#ffffff" fill-rule="evenodd" stroke="none"/>
      <path d="M0.45 0.7 L0.25 0.75 0.1 0.8 -0.1 0.8 -0.4 0.5 -0.55 0.0 Q-0.55 -1.05 0.1 -0.85 0.75 -0.7 0.75 0.05 L0.6 0.5 0.45 0.7" fill="#666666" fill-rule="evenodd" stroke="none"/>
      <path d="M1.1 -0.45 L1.25 0.15 1.25 0.8 1.15 1.15 0.85 1.25 -0.4 1.45 -0.55 1.4 -0.9 1.1 -1.05 0.85 -1.15 0.55 -1.2 0.0 -1.05 -0.85 0.45 -1.45 1.1 -0.45 M0.45 0.7 L0.6 0.5 0.75 0.05 Q0.75 -0.7 0.1 -0.85 -0.55 -1.05 -0.55 0.0 L-0.4 0.5 -0.1 0.8 -0.6 0.7 -0.7 0.9 Q-0.55 1.4 0.15 1.15 L0.65 0.65 0.6 0.6 0.45 0.7" fill="#999999" fill-rule="evenodd" stroke="none"/>
      <path d="M1.1 -0.45 L1.25 0.15 1.25 0.8 1.15 1.15 0.85 1.25 -0.4 1.45 -0.55 1.4 -0.9 1.1 -1.05 0.85 -1.15 0.55 -1.2 0.0 -1.05 -0.85 0.45 -1.45 1.1 -0.45 Z" fill="none" stroke="#000000" stroke-linecap="round" stroke-linejoin="round" stroke-opacity="0.4" stroke-width="0.05"/>
    </g>
    <g id="sprite6" transform="matrix(1.0, 0.0, 0.0, 1.0, 19.6, 6.9)">
      <use height="12.9" transform="matrix(1.0, 0.0, 0.0, 1.0, -19.6, -6.9)" width="38.3" xlink:href="#shape3"/>
    </g>
    <g id="shape3" transform="matrix(1.0, 0.0, 0.0, 1.0, 19.6, 6.9)">
      <path d="M9.0 -0.45 L7.35 0.95 7.35 1.0 11.0 0.15 14.85 -0.35 16.35 -0.4 16.7 -0.4 17.45 -0.45 14.2 0.65 15.3 1.2 Q16.4 1.8 16.85 2.4 L17.15 2.85 12.4 2.4 11.8 2.4 13.05 1.65 14.05 1.35 Q12.05 1.65 9.35 2.55 L2.3 3.85 -1.1 4.9 -1.45 5.05 -1.65 5.15 -1.5 4.95 -1.15 4.8 -0.7 4.6 3.4 2.6 8.95 -0.5 9.0 -0.45 M18.7 5.45 L18.7 5.55 18.7 5.45 M-19.6 -5.3 L-18.2 -4.55 Q-18.05 -4.65 -18.05 -5.75 L-18.05 -6.9 -15.4 -3.25 -15.0 -4.8 -14.95 -4.85 -14.25 -2.0 Q-15.0 -2.8 -16.65 -2.9 L-18.3 -2.7 -18.25 -2.6 -18.6 -3.5 -19.6 -5.25 -19.6 -5.3" fill="#bfa6a6" fill-rule="evenodd" stroke="none"/>
      <path d="M17.15 2.85 L18.0 4.15 18.05 4.3 18.7 5.45 18.7 5.55 17.2 4.95 15.7 4.4 16.1 5.3 16.2 6.0 12.65 4.65 8.15 4.5 3.1 5.3 0.85 5.75 -0.45 6.0 -0.55 6.0 Q-1.65 6.05 -2.15 5.45 L-2.2 5.4 -2.15 5.4 -2.55 4.15 -1.7 4.55 -1.2 4.8 -1.15 4.8 -1.5 4.95 -1.65 5.15 -1.45 5.05 -1.1 4.9 2.3 3.85 9.35 2.55 Q12.05 1.65 14.05 1.35 L13.05 1.65 11.8 2.4 12.4 2.4 17.15 2.85 M-14.25 -2.0 L-14.0 -0.8 Q-13.45 1.05 -12.65 1.05 L-12.35 1.0 -12.1 0.75 -12.1 2.2 Q-12.15 2.75 -12.35 3.0 L-12.65 3.1 -12.7 3.1 Q-13.45 3.1 -14.6 0.8 -15.75 -1.5 -16.9 -1.5 L-17.3 -1.45 -17.75 -1.25 -18.25 -2.6 -18.3 -2.7 -16.65 -2.9 Q-15.0 -2.8 -14.25 -2.0 M-2.15 5.4 L-2.15 5.45 -2.15 5.4" fill="#a38d8d" fill-rule="evenodd" stroke="none"/>
      <path d="M9.0 -0.45 L7.35 0.95 7.35 1.0 11.0 0.15 14.85 -0.35 16.35 -0.4 16.7 -0.4 17.45 -0.45 14.2 0.65 15.3 1.2 Q16.4 1.8 16.85 2.4 L17.15 2.85 18.0 4.15 18.05 4.3 18.7 5.45 18.7 5.55 17.2 4.95 15.7 4.4 16.1 5.3 16.2 6.0 12.65 4.65 8.15 4.5 3.1 5.3 0.85 5.75 -0.45 6.0 -0.55 6.0 Q-1.65 6.05 -2.15 5.45 L-2.15 5.4 -2.55 4.15 -1.7 4.55 -1.2 4.8 -1.15 4.8 -0.7 4.6 3.4 2.6 8.95 -0.5 M-19.6 -5.3 L-18.2 -4.55 Q-18.05 -4.65 -18.05 -5.75 L-18.05 -6.9 -15.4 -3.25 -15.0 -4.8 -14.95 -4.85 -14.25 -2.0 -14.0 -0.8 Q-13.45 1.05 -12.65 1.05 L-12.35 1.0 -12.1 0.75 -12.1 2.2 Q-12.15 2.75 -12.35 3.0 L-12.65 3.1 -12.7 3.1 Q-13.45 3.1 -14.6 0.8 -15.75 -1.5 -16.9 -1.5 L-17.3 -1.45 -17.75 -1.25 -18.25 -2.6 -18.6 -3.5 -19.6 -5.25 M-1.65 5.15 L-1.5 4.95 -1.15 4.8" fill="none" stroke="#000000" stroke-linecap="round" stroke-linejoin="round" stroke-opacity="0.3019608" stroke-width="0.05"/>
    </g>
    <g id="shape4" transform="matrix(1.0, 0.0, 0.0, 1.0, 28.4, 8.7)">
      <path d="M-23.85 -1.95 L-22.55 -3.5 Q-21.9 -4.1 -18.45 -6.05 -16.5 -7.1 -13.45 -7.7 L-6.9 -8.7 Q2.85 -8.95 7.0 -5.3 9.75 -2.9 9.75 0.6 9.75 2.65 8.0 5.8 5.5 10.2 1.5 10.2 L-1.1 11.25 Q-2.15 11.25 -2.0 10.8 L0.2 8.45 0.3 8.35 -3.15 9.8 -6.2 11.0 -6.55 10.95 -6.6 10.65 -6.1 9.6 Q-5.55 8.4 -5.3 7.3 L-5.25 0.95 Q-7.25 3.2 -9.2 6.75 -10.75 9.55 -11.05 9.55 -11.3 9.55 -12.45 4.7 -12.75 3.1 -12.55 -0.05 L-12.6 -0.2 Q-13.7 1.4 -15.9 3.45 -19.2 6.45 -21.45 6.45 -22.15 6.45 -22.0 5.9 -21.3 1.4 -21.15 -0.8 -21.95 0.35 -22.55 2.2 L-23.55 5.35 -24.05 8.9 Q-24.35 11.4 -24.6 11.4 -25.4 11.4 -26.35 9.1 L-27.45 5.85 -27.8 3.0 Q-27.8 1.85 -28.1 1.15 L-28.4 0.35 -28.15 -0.55 Q-27.7 -1.25 -26.75 -1.25 L-25.95 -1.0 -25.6 -0.8 Q-24.9 -0.8 -23.85 -1.95" fill="#631300" fill-opacity="0.3529412" fill-rule="evenodd" stroke="none"/>
    </g>
    <g id="sprite7" transform="matrix(1.0, 0.0, 0.0, 1.0, 40.7, 39.85)">
      <use height="79.65" transform="matrix(1.0, 0.0, 0.0, 1.0, -40.7, -39.85)" width="81.4" xlink:href="#shape5"/>
    </g>
    <g id="shape5" transform="matrix(1.0, 0.0, 0.0, 1.0, 40.7, 39.85)">
      <path d="M6.3 -39.85 Q6.2 -37.3 8.45 -34.6 11.05 -31.35 14.8 -31.05 18.15 -30.85 23.65 -26.2 L25.95 -24.25 Q25.5 -22.05 25.35 -19.95 L25.2 -16.7 Q25.2 -14.35 25.8 -11.9 L26.35 -9.7 26.55 -9.5 Q26.1 -9.85 24.5 -11.95 L22.35 -14.6 Q22.1 -11.45 18.15 -8.05 L13.2 -3.7 13.4 -5.8 13.65 -7.7 Q13.65 -11.3 12.1 -12.6 9.15 -6.05 6.0 -2.35 4.6 -0.75 3.2 0.3 -0.75 3.25 -4.2 8.8 L-6.75 9.6 -5.3 6.9 Q-4.3 4.85 -4.3 2.65 -4.3 -0.35 -4.75 -2.65 L-4.8 -2.9 -5.05 -4.05 -5.25 -5.25 -5.1 -5.1 -5.2 -6.05 -5.9 -11.5 -6.15 -11.5 Q-6.6 -9.95 -9.2 -7.7 -11.85 -5.4 -13.7 -0.85 -15.55 3.65 -18.1 5.4 L-18.3 5.4 -17.4 4.35 Q-16.8 3.6 -16.8 2.0 -16.8 -0.05 -17.4 -2.5 L-17.75 -2.3 -17.05 -4.1 -16.15 -6.6 -16.45 -9.1 Q-17.9 -7.55 -20.25 -7.3 -22.65 -7.05 -25.1 -3.95 -27.05 -1.1 -27.05 4.85 -27.05 6.5 -26.05 10.05 L-25.55 11.85 -29.55 6.65 Q-32.25 2.3 -31.5 -0.55 L-31.45 -0.8 -31.65 -0.65 -33.2 2.55 Q-34.15 4.95 -33.95 5.85 -35.0 4.1 -35.0 0.05 L-34.85 -1.7 Q-34.75 -3.35 -34.95 -4.05 L-37.7 -2.4 Q-39.9 -0.9 -40.7 0.0 -40.85 -4.65 -36.95 -8.65 -34.45 -11.25 -31.65 -12.55 L-33.45 -13.7 Q-34.9 -14.65 -35.7 -15.75 -33.45 -15.75 -30.55 -18.4 L-24.35 -24.5 Q-14.65 -33.55 -1.7 -33.55 1.75 -33.55 5.05 -32.1 L5.05 -33.1 Q4.4 -34.2 4.4 -36.2 4.4 -37.3 5.05 -38.2 L6.15 -39.85 6.3 -39.85 M16.75 -24.4 L13.95 -24.4 14.1 -21.75 14.55 -21.75 Q14.75 -22.25 15.35 -22.55 16.15 -22.95 17.65 -23.05 L20.35 -23.05 Q17.7 -23.95 16.75 -24.4 M8.65 -29.65 L5.65 -32.85 7.8 -28.65 8.3 -26.9 8.4 -26.85 10.1 -25.95 Q11.15 -25.15 12.05 -24.9 L13.8 -26.0 14.4 -26.45 Q16.75 -27.85 18.3 -27.75 L16.55 -27.95 14.45 -27.6 13.3 -27.25 Q12.25 -26.9 11.65 -26.4 L9.7 -28.6 8.65 -29.65" fill="#ffffff" fill-rule="evenodd" stroke="none"/>
      <path d="M25.95 -24.25 L29.15 -21.35 29.55 -21.0 Q29.3 -22.2 30.5 -23.75 31.7 -25.35 32.65 -24.95 L32.75 -24.85 Q30.95 -20.1 30.95 -19.5 30.95 -18.85 32.45 -17.5 L35.75 -14.05 Q40.55 -7.6 40.55 4.7 L40.55 6.55 37.75 2.8 37.6 2.8 37.6 2.85 38.35 9.65 Q38.65 13.75 40.7 14.55 L40.7 14.7 39.4 14.7 35.9 13.7 36.05 16.65 Q36.05 19.65 33.15 25.85 32.05 28.05 31.6 30.15 L31.6 25.85 31.25 28.95 Q30.8 31.9 30.8 34.0 30.8 35.05 31.15 36.5 L31.45 38.85 31.4 38.95 Q27.55 35.85 27.3 34.9 26.5 35.25 25.35 37.1 L23.45 39.8 Q22.25 36.8 19.85 34.15 18.45 32.5 18.45 28.6 L19.15 22.65 19.8 17.5 18.65 19.9 Q17.45 22.8 17.3 25.05 16.75 22.9 16.75 21.1 L16.9 19.35 16.9 19.25 16.75 19.25 Q16.4 21.85 13.6 25.6 11.0 29.25 9.65 29.35 L9.65 27.75 Q10.75 26.6 12.05 23.25 13.65 19.0 13.65 15.3 L13.5 13.15 13.05 11.65 12.1 14.55 Q11.1 16.95 10.1 17.15 6.75 10.6 6.75 5.05 6.75 3.6 7.05 2.65 L3.3 5.9 Q1.9 6.75 -4.2 8.8 -0.75 3.25 3.2 0.3 4.6 -0.75 6.0 -2.35 9.15 -6.05 12.1 -12.6 13.65 -11.3 13.65 -7.7 L13.4 -5.8 13.2 -3.7 18.15 -8.05 Q22.1 -11.45 22.35 -14.6 L24.5 -11.95 Q26.1 -9.85 26.55 -9.5 L26.35 -9.7 25.8 -11.9 Q25.2 -14.35 25.2 -16.7 L25.35 -19.95 Q25.5 -22.05 25.95 -24.25 M-5.25 -5.25 Q-7.7 -2.25 -10.05 0.25 -14.6 5.15 -17.25 5.4 L-18.1 5.4 Q-15.55 3.65 -13.7 -0.85 -11.85 -5.4 -9.2 -7.7 -6.6 -9.95 -6.15 -11.5 L-5.9 -11.5 -5.2 -6.05 -5.1 -5.1 -5.25 -5.25 M-17.75 -2.3 Q-20.6 -1.0 -21.95 0.3 -25.45 3.75 -25.45 9.95 L-25.3 12.15 -25.55 11.85 -26.05 10.05 Q-27.05 6.5 -27.05 4.85 -27.05 -1.1 -25.1 -3.95 -22.65 -7.05 -20.25 -7.3 -17.9 -7.55 -16.45 -9.1 L-16.15 -6.6 -17.05 -4.1 -17.75 -2.3 M8.65 -29.65 L9.7 -28.6 11.65 -26.4 Q12.25 -26.9 13.3 -27.25 L14.45 -27.6 16.55 -27.95 18.3 -27.75 Q16.75 -27.85 14.4 -26.45 L13.8 -26.0 12.05 -24.9 Q11.15 -25.15 10.1 -25.95 L8.4 -26.85 8.3 -26.9 7.8 -28.65 5.65 -32.85 8.65 -29.65 M16.75 -24.4 Q17.7 -23.95 20.35 -23.05 L17.65 -23.05 Q16.15 -22.95 15.35 -22.55 14.75 -22.25 14.55 -21.75 L14.1 -21.75 13.95 -24.4 16.75 -24.4 M20.95 15.75 L20.25 16.8 19.8 17.5 20.25 16.8 20.95 15.75 M35.75 13.15 L35.9 13.7 35.75 13.15" fill="#d6baba" fill-rule="evenodd" stroke="none"/>
      <path d="M6.3 -39.85 Q6.2 -37.3 8.45 -34.6 11.05 -31.35 14.8 -31.05 18.15 -30.85 23.65 -26.2 L25.95 -24.25 29.15 -21.35 29.55 -21.0 Q29.3 -22.2 30.5 -23.75 31.7 -25.35 32.65 -24.95 M32.75 -24.85 Q30.95 -20.1 30.95 -19.5 30.95 -18.85 32.45 -17.5 L35.75 -14.05 Q40.55 -7.6 40.55 4.7 L40.55 6.55 37.75 2.8 37.6 2.8 37.6 2.85 38.35 9.65 Q38.65 13.75 40.7 14.55 L40.7 14.7 39.4 14.7 35.9 13.7 36.05 16.65 Q36.05 19.65 33.15 25.85 32.05 28.05 31.6 30.15 L31.6 25.85 31.25 28.95 Q30.8 31.9 30.8 34.0 30.8 35.05 31.15 36.5 L31.45 38.85 M31.4 38.95 Q27.55 35.85 27.3 34.9 26.5 35.25 25.35 37.1 L23.45 39.8 Q22.25 36.8 19.85 34.15 18.45 32.5 18.45 28.6 L19.15 22.65 19.8 17.5 18.65 19.9 Q17.45 22.8 17.3 25.05 16.75 22.9 16.75 21.1 L16.9 19.35 16.9 19.25 16.75 19.25 Q16.4 21.85 13.6 25.6 11.0 29.25 9.65 29.35 L9.65 27.75 Q10.75 26.6 12.05 23.25 13.65 19.0 13.65 15.3 L13.5 13.15 13.05 11.65 12.1 14.55 Q11.1 16.95 10.1 17.15 6.75 10.6 6.75 5.05 6.75 3.6 7.05 2.65 L3.3 5.9 Q1.9 6.75 -4.2 8.8 L-6.75 9.6 -5.3 6.9 Q-4.3 4.85 -4.3 2.65 -4.3 -0.35 -4.75 -2.65 L-4.8 -2.9 -5.05 -4.05 -5.25 -5.25 Q-7.7 -2.25 -10.05 0.25 -14.6 5.15 -17.25 5.4 L-18.1 5.4 -18.3 5.4 -17.4 4.35 Q-16.8 3.6 -16.8 2.0 -16.8 -0.05 -17.4 -2.5 L-17.75 -2.3 Q-20.6 -1.0 -21.95 0.3 -25.45 3.75 -25.45 9.95 L-25.3 12.15 -25.55 11.85 -29.55 6.65 Q-32.25 2.3 -31.5 -0.55 L-31.45 -0.8 -31.65 -0.65 -33.2 2.55 Q-34.15 4.95 -33.95 5.85 -35.0 4.1 -35.0 0.05 L-34.85 -1.7 Q-34.75 -3.35 -34.95 -4.05 L-37.7 -2.4 Q-39.9 -0.9 -40.7 0.0 -40.85 -4.65 -36.95 -8.65 -34.45 -11.25 -31.65 -12.55 L-33.45 -13.7 Q-34.9 -14.65 -35.7 -15.75 -33.45 -15.75 -30.55 -18.4 L-24.35 -24.5 Q-14.65 -33.55 -1.7 -33.55 1.75 -33.55 5.05 -32.1 L5.05 -33.1 Q4.4 -34.2 4.4 -36.2 4.4 -37.3 5.05 -38.2 L6.15 -39.85 M35.9 13.7 L35.75 13.15 M19.8 17.5 L20.25 16.8 20.95 15.75" fill="none" stroke="#000000" stroke-linecap="round" stroke-linejoin="round" stroke-opacity="0.3019608" stroke-width="0.05"/>
    </g>
    <g id="sprite8" transform="matrix(1.0, 0.0, 0.0, 1.0, 22.25, 11.8)">
      <use height="23.45" id="_col1" transform="matrix(1.0, 0.0, 0.0, 1.0, -21.85, -6.65)" width="43.7" xlink:href="#sprite9"/>
    </g>
    <g id="sprite9" transform="matrix(1.0, 0.0, 0.0, 1.0, 24.2, -0.15)">
      <use height="23.45" transform="matrix(1.0, 0.0, 0.0, 1.0, -24.2, 0.15)" width="43.7" xlink:href="#shape6"/>
    </g>
    <g id="shape6" transform="matrix(1.0, 0.0, 0.0, 1.0, 24.2, -0.15)">
      <path d="M17.6 5.9 L17.1 6.4 Q15.7 8.15 14.45 10.4 L9.8 17.85 8.9 18.9 9.1 19.1 Q6.65 20.8 1.1 22.4 -4.6 23.75 -7.05 23.6 -9.65 23.4 -13.65 22.2 -17.6 21.0 -20.9 17.85 -22.5 16.15 -23.15 14.4 L-23.35 14.4 -23.5 13.75 -23.5 13.7 Q-24.05 12.65 -24.05 11.8 L-24.05 11.45 Q-21.8 12.3 -16.25 12.3 -12.75 12.3 -8.6 13.55 -7.55 13.7 -5.8 14.75 L-3.4 15.45 Q0.25 15.45 3.55 13.9 5.65 13.55 7.35 12.3 L8.9 10.4 Q9.8 9.35 10.3 8.0 L11.2 6.95 Q11.85 5.2 13.6 3.65 L14.3 3.1 17.6 5.9 M1.3 16.3 L1.1 15.8 -0.6 15.8 -1.15 15.95 -0.95 16.85 0.95 16.85 1.3 16.3 M5.65 15.95 L5.95 15.6 Q4.95 15.1 4.6 15.1 L4.05 15.1 3.9 15.45 Q3.9 15.95 4.05 15.95 L5.65 15.95 M-12.6 17.0 L-10.35 17.0 Q-9.65 16.85 -10.7 16.3 L-14.35 14.55 -16.25 13.7 -19.35 14.9 -17.95 15.8 -12.6 17.0 M-7.4 14.4 L-8.95 14.55 Q-8.25 16.5 -6.35 16.5 -5.5 16.5 -5.15 16.15 L-4.95 15.6 Q-6.0 14.4 -7.4 14.4 M-16.05 17.85 Q-17.1 17.85 -17.1 18.55 -16.75 21.0 -13.65 21.0 -11.9 21.0 -11.9 19.95 -12.6 19.1 -14.15 18.4 -15.55 17.85 -16.05 17.85 M-23.15 14.4 L-23.5 13.75 -23.15 14.4 M-23.15 12.65 Q-22.85 14.05 -21.45 14.05 L-20.75 13.55 Q-21.1 12.15 -23.0 12.15 L-23.15 12.65" fill="#d6baba" fill-rule="evenodd" stroke="none"/>
      <path d="M-24.05 11.45 L-24.2 10.4 Q-24.2 6.05 -22.85 5.05 -19.0 10.75 -17.6 10.75 -14.0 9.55 -11.2 10.05 -8.6 10.6 -5.3 12.3 -2.0 13.9 2.15 13.9 L3.55 13.9 Q0.25 15.45 -3.4 15.45 L-5.8 14.75 Q-7.55 13.7 -8.6 13.55 -12.75 12.3 -16.25 12.3 -21.8 12.3 -24.05 11.45 M8.9 10.4 Q9.8 9.2 10.5 7.45 10.65 6.6 12.2 4.15 L12.55 3.3 12.75 3.3 13.95 3.1 Q13.95 2.95 14.15 2.95 L14.3 3.1 13.6 3.65 Q11.85 5.2 11.2 6.95 L10.3 8.0 Q9.8 9.35 8.9 10.4 M5.65 15.95 L4.05 15.95 Q3.9 15.95 3.9 15.45 L4.05 15.1 4.6 15.1 Q4.95 15.1 5.95 15.6 L5.65 15.95 M1.3 16.3 L0.95 16.85 -0.95 16.85 -1.15 15.95 -0.6 15.8 1.1 15.8 1.3 16.3 M-16.05 17.85 Q-15.55 17.85 -14.15 18.4 -12.6 19.1 -11.9 19.95 -11.9 21.0 -13.65 21.0 -16.75 21.0 -17.1 18.55 -17.1 17.85 -16.05 17.85 M-7.4 14.4 Q-6.0 14.4 -4.95 15.6 L-5.15 16.15 Q-5.5 16.5 -6.35 16.5 -8.25 16.5 -8.95 14.55 L-7.4 14.4 M-23.15 12.65 L-23.0 12.15 Q-21.1 12.15 -20.75 13.55 L-21.45 14.05 Q-22.85 14.05 -23.15 12.65" fill="#ffffff" fill-rule="evenodd" stroke="none"/>
      <path d="M16.75 1.05 L17.25 0.85 17.25 1.4 Q17.25 1.75 17.75 2.1 L18.3 1.75 Q19.5 1.75 19.5 2.75 L19.5 3.1 17.6 5.9 14.3 3.1 14.3 2.95 15.15 1.75 15.35 1.55 15.5 1.4 Q16.05 1.05 16.75 1.05" fill="#d6baba" fill-opacity="0.5019608" fill-rule="evenodd" stroke="none"/>
      <path d="M12.75 3.3 L13.8 0.15 Q16.2 0.15 16.75 1.05 16.05 1.05 15.5 1.4 L15.35 1.55 15.15 1.75 14.3 2.95 14.3 3.1 14.15 2.95 Q13.95 2.95 13.95 3.1 L12.75 3.3" fill="#ffffff" fill-opacity="0.5019608" fill-rule="evenodd" stroke="none"/>
      <path d="M17.1 6.4 Q15.7 8.15 14.45 10.4 L9.8 17.85 Q9.8 18.55 9.25 18.9 L9.1 18.9 9.1 19.1 Q6.65 20.8 1.1 22.4 -4.6 23.75 -7.05 23.6 -9.65 23.4 -13.65 22.2 -17.6 21.0 -20.9 17.85 -22.5 16.15 -23.15 14.4 M-23.5 13.75 L-23.5 13.7 Q-24.05 12.65 -24.05 11.8 L-24.05 11.45 -24.2 10.4 Q-24.2 6.05 -22.85 5.05 -19.0 10.75 -17.6 10.75 -14.0 9.55 -11.2 10.05 -8.6 10.6 -5.3 12.3 -2.0 13.9 2.15 13.9 L3.55 13.9 Q5.65 13.55 7.35 12.3 L8.9 10.4 Q9.8 9.2 10.5 7.45 10.65 6.6 12.2 4.15 L12.55 3.3 M9.1 18.9 L8.9 18.9 9.8 17.85 M-23.5 13.75 L-23.15 14.4" fill="none" stroke="#000000" stroke-linecap="round" stroke-linejoin="round" stroke-opacity="0.3019608" stroke-width="0.05"/>
      <path d="M19.5 3.1 L17.6 5.9 M12.75 3.3 L13.8 0.15" fill="none" stroke="#000000" stroke-linecap="round" stroke-linejoin="round" stroke-opacity="0.15294118" stroke-width="0.05"/>
    </g>
    <g id="sprite10" transform="matrix(1.0, 0.0, 0.0, 1.0, 8.95, 9.65)">
      <use height="19.35" transform="matrix(1.0, 0.0, 0.0, 1.0, -8.95, -9.65)" width="17.9" xlink:href="#shape7"/>
    </g>
    <g id="shape7" transform="matrix(1.0, 0.0, 0.0, 1.0, 8.95, 9.65)">
      <path d="M-1.5 -6.7 Q-1.15 -7.25 -0.6 -7.4 1.35 -8.45 3.25 -8.8 L3.95 -8.95 Q6.9 -7.4 4.1 -5.15 2.0 -3.4 -0.6 -4.1 -0.95 -4.45 -1.45 -4.6 -1.9 -5.2 -1.85 -5.8 L-1.9 -5.75 -1.85 -5.85 -1.85 -6.0 Q-1.85 -6.55 -1.5 -6.7 M-3.5 -4.55 L-3.55 -4.45 -3.5 -4.55 M-8.95 7.0 L-8.9 7.0 -8.05 8.55 -6.3 9.6 -6.35 9.6 -8.05 8.6 -8.1 8.55 -8.95 7.05 -8.95 7.0" fill="#efcdaf" fill-rule="evenodd" stroke="none"/>
      <path d="M1.5 4.05 L3.25 2.3 Q5.3 -0.1 3.95 -2.9 3.6 -3.25 3.25 -3.4 1.35 -3.9 -0.05 -3.4 -0.75 -3.25 -1.25 -2.7 L-4.2 0.75 -1.25 -2.7 Q-0.75 -3.25 -0.05 -3.4 1.35 -3.9 3.25 -3.4 3.6 -3.25 3.95 -2.9 5.3 -0.1 3.25 2.3 L1.5 4.05 M-1.5 -6.7 L-1.5 -6.75 -1.45 -6.8 -0.75 -8.05 -0.75 -8.1 Q1.75 -9.55 4.1 -9.65 L6.7 -8.8 Q10.0 -5.3 8.45 -0.1 7.55 2.5 6.15 4.4 0.95 10.45 -6.3 9.6 L-8.05 8.55 -8.9 7.0 -8.95 7.0 -3.6 -4.45 -3.55 -4.45 -3.5 -4.55 -1.9 -5.75 -1.85 -5.8 Q-1.9 -5.2 -1.45 -4.6 -0.95 -4.45 -0.6 -4.1 2.0 -3.4 4.1 -5.15 6.9 -7.4 3.95 -8.95 L3.25 -8.8 Q1.35 -8.45 -0.6 -7.4 -1.15 -7.25 -1.5 -6.7" fill="#c6886a" fill-rule="evenodd" stroke="none"/>
      <path d="M-4.2 0.75 L-1.25 -2.7 Q-0.75 -3.25 -0.05 -3.4 1.35 -3.9 3.25 -3.4 3.6 -3.25 3.95 -2.9 5.3 -0.1 3.25 2.3 L1.5 4.05 M-6.3 9.6 Q0.95 10.45 6.15 4.4 7.55 2.5 8.45 -0.1 10.0 -5.3 6.7 -8.8 L4.1 -9.65 Q1.75 -9.55 -0.75 -8.1 L-0.75 -8.05 -1.45 -6.8 -1.5 -6.75 -1.5 -6.7 M-8.9 7.0 L-8.05 8.55 -6.3 9.6" fill="none" stroke="#000000" stroke-linecap="round" stroke-linejoin="round" stroke-opacity="0.3019608" stroke-width="0.05"/>
    </g>
  </defs>
</svg>
