<?xml version="1.0" encoding="UTF-8" standalone="no"?>
<svg xmlns:xlink="http://www.w3.org/1999/xlink" height="45.0px" width="29.7px" xmlns="http://www.w3.org/2000/svg">
  <g transform="matrix(1.0, 0.0, 0.0, 1.0, 12.6, 19.25)">
    <use height="45.0" id="_p6" transform="matrix(1.4171, 0.0, 0.0, 1.0, -12.6123, -19.25)" width="20.95" xlink:href="#sprite0"/>
  </g>
  <defs>
    <g id="sprite0" transform="matrix(1.0, 0.0, 0.0, 1.0, 8.9, 19.25)">
      <use height="37.35" id="_col0" transform="matrix(1.0, 0.0, 0.0, 1.0, -8.0, -18.65)" width="16.0" xlink:href="#sprite1"/>
      <use height="31.6" id="_col3" transform="matrix(1.0, 0.0, 0.0, 1.0, -8.15, -18.95)" width="17.25" xlink:href="#sprite2"/>
      <use height="45.0" id="_p7" transform="matrix(1.0, 0.0, 0.0, 1.0, -8.9, -19.25)" width="20.95" xlink:href="#sprite3"/>
    </g>
    <g id="sprite1" transform="matrix(1.0, 0.0, 0.0, 1.0, 8.0, 18.65)">
      <use height="37.35" transform="matrix(1.1594, 0.0, 0.0, 1.0, -8.0, -18.65)" width="13.8" xlink:href="#shape0"/>
    </g>
    <g id="shape0" transform="matrix(1.0, 0.0, 0.0, 1.0, 6.9, 18.65)">
      <path d="M0.05 -18.6 Q3.4 -18.45 5.5 -16.1 L5.95 -15.65 6.9 -13.35 6.75 12.25 Q6.45 14.0 5.75 15.25 4.05 18.45 0.3 18.7 -0.7 11.7 -0.55 11.15 L0.15 -5.25 0.05 -18.6" fill="#c6886a" fill-rule="evenodd" stroke="none"/>
      <path d="M0.05 -18.6 L0.15 -5.25 -0.55 11.15 Q-0.7 11.7 0.3 18.7 -3.55 17.8 -5.25 16.05 -6.8 14.5 -6.65 12.15 L-6.9 -13.5 -5.45 -16.15 -4.05 -17.4 Q-2.4 -18.9 0.05 -18.6" fill="#efcdaf" fill-rule="evenodd" stroke="none"/>
      <path d="M5.75 15.25 Q6.45 14.0 6.75 12.25 L6.9 -13.35 5.95 -15.65 M-5.45 -16.15 L-6.9 -13.5 -6.65 12.15 Q-6.8 14.5 -5.25 16.05" fill="none" stroke="#000000" stroke-linecap="round" stroke-linejoin="round" stroke-opacity="0.3019608" stroke-width="0.05"/>
    </g>
    <g id="sprite2" transform="matrix(1.0, 0.0, 0.0, 1.0, 8.25, 18.65)">
      <use height="31.6" transform="matrix(1.0, 0.0, 0.0, 1.0, -8.25, -18.65)" width="17.25" xlink:href="#shape1"/>
    </g>
    <g id="shape1" transform="matrix(1.0, 0.0, 0.0, 1.0, 8.25, 18.65)">
      <path d="M-0.5 12.9 L-0.55 11.35 -0.3 5.8 Q0.0 0.55 0.15 -5.25 L0.05 -18.6 Q3.95 -18.45 6.35 -16.1 L6.9 -15.65 8.0 -13.35 9.0 7.6 Q8.55 9.9 6.25 11.55 3.9 13.15 -0.5 12.9" fill="#d6baba" fill-rule="evenodd" stroke="none"/>
      <path d="M0.05 -18.6 L0.15 -5.25 Q0.0 0.55 -0.3 5.8 L-0.55 11.35 -0.5 12.9 Q-3.0 12.55 -4.85 11.65 -6.75 10.75 -7.7 9.3 -8.65 7.85 -8.0 3.75 L-8.0 -13.5 Q-7.25 -15.05 -6.3 -16.15 L-4.7 -17.4 Q-2.8 -18.9 0.05 -18.6" fill="#ffffff" fill-rule="evenodd" stroke="none"/>
      <path d="M-0.5 12.9 Q3.9 13.15 6.25 11.55 8.55 9.9 9.0 7.6 L8.0 -13.35 M-8.0 -13.5 L-8.0 3.75 Q-8.65 7.85 -7.7 9.3 -6.75 10.75 -4.85 11.65 -3.0 12.55 -0.5 12.9 Z" fill="none" stroke="#000000" stroke-linecap="round" stroke-linejoin="round" stroke-opacity="0.3019608" stroke-width="0.05"/>
    </g>
  </defs>
</svg>
