<?xml version="1.0" encoding="UTF-8" standalone="no"?>
<svg xmlns:xlink="http://www.w3.org/1999/xlink" height="29.5px" width="17.4px" xmlns="http://www.w3.org/2000/svg">
  <g transform="matrix(1.0, 0.0, 0.0, 1.0, 8.85, 18.65)">
    <use height="29.5" transform="matrix(1.0, 0.0, 0.0, 1.0, -8.85, -18.65)" width="17.4" xlink:href="#shape0"/>
  </g>
  <defs>
    <g id="shape0" transform="matrix(1.0, 0.0, 0.0, 1.0, 8.85, 18.65)">
      <path d="M0.05 -18.6 Q3.95 -18.45 6.35 -16.1 L6.9 -15.65 8.0 -13.35 Q8.55 -8.55 8.55 -3.7 L8.55 -1.6 8.45 -1.6 7.8 5.8 Q7.75 8.15 5.85 9.6 3.9 11.05 -0.5 10.8 L-0.55 9.25 -0.3 3.7 0.0 -2.4 0.05 -4.5 0.15 -4.5 0.15 -5.25 0.05 -18.6 M8.55 -3.7 L8.45 -1.6 8.55 -3.7" fill="#d6baba" fill-rule="evenodd" stroke="none"/>
      <path d="M0.05 -18.6 L0.15 -5.25 0.15 -4.5 0.05 -4.5 0.0 -2.4 -0.3 3.7 -0.55 9.25 -0.5 10.8 Q-3.0 10.45 -4.85 9.55 -6.75 8.65 -7.7 7.2 -8.65 5.75 -8.6 1.8 L-8.6 1.7 -8.85 -3.25 -8.85 -4.3 -8.85 -3.25 -8.85 -4.3 -8.85 -5.35 -8.8 -5.35 -8.65 -7.9 -8.0 -13.5 Q-7.25 -15.05 -6.3 -16.15 L-4.7 -17.4 Q-2.8 -18.9 0.05 -18.6" fill="#ffffff" fill-rule="evenodd" stroke="none"/>
      <path d="M-0.5 10.8 Q3.9 11.05 5.85 9.6 7.75 8.15 7.8 5.8 L8.45 -1.6 8.55 -3.7 Q8.55 -8.55 8.0 -13.35 M-8.0 -13.5 L-8.65 -7.9 -8.8 -5.35 M-8.85 -5.35 L-8.85 -4.3 -8.85 -3.25 -8.6 1.7 -8.6 1.8 Q-8.65 5.75 -7.7 7.2 -6.75 8.65 -4.85 9.55 -3.0 10.45 -0.5 10.8 M-8.85 -4.3 L-8.85 -3.25" fill="none" stroke="#000000" stroke-linecap="round" stroke-linejoin="round" stroke-opacity="0.3019608" stroke-width="0.05"/>
    </g>
  </defs>
</svg>
