<?xml version="1.0" encoding="UTF-8" standalone="no"?>
<svg xmlns:xlink="http://www.w3.org/1999/xlink" height="22.3px" width="24.6px" xmlns="http://www.w3.org/2000/svg">
  <g transform="matrix(1.0, 0.0, 0.0, 1.0, 12.5, 11.4)">
    <use height="16.25" transform="matrix(1.0, 0.0, 0.0, 1.0, -12.5, -5.35)" width="24.6" xlink:href="#shape0"/>
    <use height="5.4" id="_col3" transform="matrix(3.4643, -1.2989, 0.6589, 2.7032, -12.0326, -4.3416)" width="5.45" xlink:href="#sprite0"/>
    <use height="2.7" transform="matrix(1.0, 0.0, 0.0, 1.0, -7.05, -3.8)" width="2.95" xlink:href="#shape2"/>
  </g>
  <defs>
    <g id="shape0" transform="matrix(1.0, 0.0, 0.0, 1.0, 12.5, 5.35)">
      <path d="M-8.85 -2.4 L-9.0 -1.9 -9.85 0.55 -10.9 0.95 Q-11.8 1.5 -12.15 2.3 -11.75 0.15 -10.05 -1.45 L-8.85 -2.4 M6.6 -4.6 L6.4 -4.8 6.75 -5.35 9.7 -4.3 11.45 -3.25 12.0 -2.35 12.05 -0.6 11.45 1.05 9.85 3.55 Q6.5 7.8 0.8 9.95 L0.75 9.95 Q-3.35 11.45 -6.5 10.6 -4.85 10.9 -2.55 10.05 1.55 8.5 1.25 7.15 1.15 6.9 1.55 5.9 1.9 4.85 2.85 4.55 L4.35 3.9 Q6.4 0.3 7.8 -0.25 9.2 -0.8 7.9 -1.85 L6.6 -4.6" fill="#764701" fill-rule="evenodd" stroke="none"/>
      <path d="M-9.0 -1.9 Q-7.6 -3.05 -5.65 -3.25 L-0.35 -4.05 4.65 -4.4 6.6 -4.6 7.9 -1.85 Q9.2 -0.8 7.8 -0.25 6.4 0.3 4.35 3.9 L2.85 4.55 Q1.9 4.85 1.55 5.9 1.15 6.9 1.25 7.15 1.55 8.5 -2.55 10.05 -4.85 10.9 -6.5 10.6 L-7.4 10.4 Q-9.35 9.6 -10.45 8.65 -11.45 8.05 -11.8 7.15 -12.4 6.2 -12.45 4.9 -12.65 3.8 -12.15 2.3 -11.8 1.5 -10.9 0.95 L-9.85 0.55 -9.0 -1.9" fill="#996600" fill-rule="evenodd" stroke="none"/>
      <path d="M6.75 -5.35 L9.7 -4.3 11.45 -3.25 12.0 -2.35 12.05 -0.6 11.45 1.05 9.85 3.55 Q6.5 7.8 0.8 9.95 L0.75 9.95 Q-3.35 11.45 -6.5 10.6 L-7.4 10.4 Q-9.35 9.6 -10.45 8.65 -11.45 8.05 -11.8 7.15 -12.4 6.2 -12.45 4.9 -12.65 3.8 -12.15 2.3 -11.75 0.15 -10.05 -1.45 L-8.85 -2.4" fill="none" stroke="#000000" stroke-linecap="round" stroke-linejoin="round" stroke-opacity="0.3019608" stroke-width="0.05"/>
    </g>
    <g id="sprite0" transform="matrix(1.0, 0.0, 0.0, 1.0, 2.7, 2.7)">
      <use height="5.4" transform="matrix(1.0, 0.0, 0.0, 1.0, -2.7, -2.7)" width="5.45" xlink:href="#shape1"/>
    </g>
    <g id="shape1" transform="matrix(1.0, 0.0, 0.0, 1.0, 2.7, 2.7)">
      <path d="M0.3 -2.65 L0.75 -2.3 Q1.25 -1.75 1.25 -1.1 1.25 -0.45 0.8 0.05 L0.55 0.25 Q-0.15 0.8 -1.0 0.8 L-1.1 0.8 -2.0 0.65 -2.7 -0.15 -2.65 -0.75 -2.6 -0.85 Q-2.25 -1.9 -1.4 -2.35 L-0.8 -2.6 -0.1 -2.7 0.3 -2.65" fill="#ffffff" fill-rule="evenodd" stroke="none"/>
      <path d="M0.3 -2.65 Q0.95 -2.5 1.65 -1.9 L2.5 -0.8 2.6 -0.65 2.7 -0.25 2.75 0.1 2.75 0.45 2.65 1.0 2.35 1.45 0.9 2.55 0.6 2.6 Q-0.55 2.8 -1.15 2.6 L-2.25 1.85 Q-2.7 1.2 -2.7 0.1 L-2.7 -0.15 -2.0 0.65 -1.1 0.8 -1.0 0.8 Q-0.15 0.8 0.55 0.25 L0.8 0.05 Q1.25 -0.45 1.25 -1.1 1.25 -1.75 0.75 -2.3 L0.3 -2.65" fill="#d6baba" fill-rule="evenodd" stroke="none"/>
      <path d="M-2.7 -0.15 L-2.7 0.1 Q-2.7 1.2 -2.25 1.85 L-1.15 2.6 Q-0.55 2.8 0.6 2.6 L0.9 2.55 2.35 1.45 2.65 1.0 2.75 0.45 2.75 0.1 2.7 -0.25 2.6 -0.65 2.5 -0.8 1.65 -1.9 Q0.95 -2.5 0.3 -2.65 M-2.7 -0.15 L-2.65 -0.75 -2.6 -0.85 Q-2.25 -1.9 -1.4 -2.35 L-0.8 -2.6 -0.1 -2.7 0.3 -2.65" fill="none" stroke="#000000" stroke-linecap="round" stroke-linejoin="round" stroke-opacity="0.3019608" stroke-width="0.05"/>
    </g>
    <g id="shape2" transform="matrix(1.0, 0.0, 0.0, 1.0, 7.05, 3.8)">
      <path d="M-4.25 -3.4 L-4.1 -2.9 Q-4.1 -1.5 -5.8 -1.15 -7.05 -0.85 -7.05 -2.15 L-6.45 -3.05 Q-5.8 -3.7 -5.35 -3.8 L-4.85 -3.8 Q-4.4 -3.9 -4.25 -3.4" fill="#ffffff" fill-opacity="0.8" fill-rule="evenodd" stroke="none"/>
    </g>
  </defs>
</svg>
