<?xml version="1.0" encoding="UTF-8" standalone="no"?>
<svg xmlns:xlink="http://www.w3.org/1999/xlink" height="21.4px" width="30.6px" xmlns="http://www.w3.org/2000/svg">
  <g transform="matrix(1.0, 0.0, 0.0, 1.0, 15.3, 10.7)">
    <use height="21.4" transform="matrix(1.0, 0.0, 0.0, 1.0, -15.3, -10.7)" width="30.6" xlink:href="#shape0"/>
  </g>
  <defs>
    <g id="shape0" transform="matrix(1.0, 0.0, 0.0, 1.0, 15.3, 10.7)">
      <path d="M10.4 0.0 Q12.85 2.6 15.3 5.75 15.3 6.85 12.05 10.7 L11.55 10.5 11.05 10.2 3.55 7.8 2.8 7.65 Q6.3 7.0 8.35 5.3 9.95 3.9 10.4 0.0 9.95 3.9 8.35 5.3 6.3 7.0 2.8 7.65 -0.75 8.3 -4.85 6.15 -8.95 4.0 -13.3 2.1 -14.7 0.85 -15.15 -1.45 L-15.3 -2.7 Q-14.75 -2.2 -13.65 -1.85 L-11.8 -1.4 -10.3 -0.95 -7.45 0.35 Q-5.2 1.25 -4.15 1.25 L-2.4 1.0 Q-0.9 0.65 -0.9 0.25 -0.3 -0.35 -0.3 -0.65 -0.15 -0.85 -0.15 -1.1 L0.0 -2.3 Q0.0 -2.9 -0.75 -3.1 L-2.25 -3.65 -3.6 -4.85 -5.45 -5.15 -8.15 -5.15 -8.65 -5.65 Q-9.0 -6.15 -9.5 -6.15 L-11.0 -6.0 -11.05 -6.35 -10.6 -6.65 -10.65 -6.9 -11.7 -6.9 -14.7 -6.2 Q-13.8 -8.65 -8.95 -10.3 L-8.05 -10.7 Q-5.75 -10.25 -2.65 -8.25 0.4 -6.25 3.35 -5.7 6.45 -5.1 7.8 -4.1 L10.5 -1.9 10.4 -0.15 10.4 0.0 M-9.15 3.3 L-12.55 0.45 -9.15 3.3 M-5.35 2.9 L-9.9 0.05 -11.8 -1.4 -9.9 0.05 -5.35 2.9" fill="#d6baba" fill-rule="evenodd" stroke="none"/>
      <path d="M-15.3 -2.7 Q-15.35 -4.35 -14.75 -6.05 L-14.7 -6.15 -14.7 -6.2 -11.7 -6.9 -10.65 -6.9 -10.6 -6.65 -11.05 -6.35 -11.0 -6.0 -9.5 -6.15 Q-9.0 -6.15 -8.65 -5.65 L-8.15 -5.15 -5.45 -5.15 -3.6 -4.85 -2.25 -3.65 -0.75 -3.1 Q0.0 -2.9 0.0 -2.3 L-0.15 -1.1 Q-0.15 -0.85 -0.3 -0.65 -0.3 -0.35 -0.9 0.25 -0.9 0.65 -2.4 1.0 L-4.15 1.25 Q-5.2 1.25 -7.45 0.35 L-10.3 -0.95 -11.8 -1.4 -13.65 -1.85 Q-14.75 -2.2 -15.3 -2.7" fill="#ffffff" fill-rule="evenodd" stroke="none"/>
      <path d="M2.8 7.65 L3.55 7.8 11.05 10.2 11.55 10.5 12.05 10.7 Q15.3 6.85 15.3 5.75 12.85 2.6 10.4 0.0 9.95 3.9 8.35 5.3 6.3 7.0 2.8 7.65 -0.75 8.3 -4.85 6.15 -8.95 4.0 -13.3 2.1 -14.7 0.85 -15.15 -1.45 L-15.3 -2.7 Q-15.35 -4.35 -14.75 -6.05 L-14.7 -6.15 -14.7 -6.2 Q-13.8 -8.65 -8.95 -10.3 L-8.05 -10.7 Q-5.75 -10.25 -2.65 -8.25 0.4 -6.25 3.35 -5.7 6.45 -5.1 7.8 -4.1 L10.5 -1.9 10.4 -0.15 10.4 0.0 M-11.8 -1.4 L-9.9 0.05 -5.35 2.9 M-12.55 0.45 L-9.15 3.3" fill="none" stroke="#000000" stroke-linecap="round" stroke-linejoin="round" stroke-opacity="0.3019608" stroke-width="0.05"/>
    </g>
  </defs>
</svg>
