<?xml version="1.0" encoding="UTF-8" standalone="no"?>
<svg xmlns:xlink="http://www.w3.org/1999/xlink" height="52.5px" width="53.85px" xmlns="http://www.w3.org/2000/svg">
  <g transform="matrix(1.0, 0.0, 0.0, 1.0, 29.55, 4.4)">
    <use height="52.5" id="_p2" transform="matrix(1.0, 0.0, 0.0, 1.0, -29.55, -4.4)" width="53.85" xlink:href="#sprite0"/>
  </g>
  <defs>
    <g id="sprite0" transform="matrix(1.0, 0.0, 0.0, 1.0, 29.45, 20.8)">
      <use height="52.5" id="_p6" transform="matrix(1.0, 0.0, 0.0, 1.0, -24.0, -20.8)" width="43.9" xlink:href="#sprite1"/>
    </g>
    <g id="sprite1" transform="matrix(1.0, 0.0, 0.0, 1.0, 24.0, 20.8)">
      <use height="37.35" id="_col0" transform="matrix(1.0, 0.0, 0.0, 1.0, -8.0, -18.65)" width="16.0" xlink:href="#sprite2"/>
      <use height="49.6" id="_p7" transform="matrix(0.9969, -0.0749, 0.0749, 0.9969, -24.0105, -17.758)" width="40.3" xlink:href="#sprite3"/>
    </g>
    <g id="sprite2" transform="matrix(1.0, 0.0, 0.0, 1.0, 8.0, 18.65)">
      <use height="37.35" transform="matrix(1.1594, 0.0, 0.0, 1.0, -8.0, -18.65)" width="13.8" xlink:href="#shape0"/>
    </g>
    <g id="shape0" transform="matrix(1.0, 0.0, 0.0, 1.0, 6.9, 18.65)">
      <path d="M0.05 -18.6 Q3.4 -18.45 5.5 -16.1 L5.95 -15.65 6.9 -13.35 6.75 12.25 Q6.45 14.0 5.75 15.25 4.05 18.45 0.3 18.7 -0.7 11.7 -0.55 11.15 L0.15 -5.25 0.05 -18.6" fill="#d6baba" fill-rule="evenodd" stroke="none"/>
      <path d="M0.05 -18.6 L0.15 -5.25 -0.55 11.15 Q-0.7 11.7 0.3 18.7 -3.55 17.8 -5.25 16.05 -6.8 14.5 -6.65 12.15 L-6.9 -13.5 -5.45 -16.15 -4.05 -17.4 Q-2.4 -18.9 0.05 -18.6" fill="#ffffff" fill-rule="evenodd" stroke="none"/>
      <path d="M5.75 15.25 Q6.45 14.0 6.75 12.25 L6.9 -13.35 5.95 -15.65 M-5.45 -16.15 L-6.9 -13.5 -6.65 12.15 Q-6.8 14.5 -5.25 16.05" fill="none" stroke="#000000" stroke-linecap="round" stroke-linejoin="round" stroke-opacity="0.3019608" stroke-width="0.05"/>
    </g>
    <g id="sprite3" transform="matrix(1.0, 0.0, 0.0, 1.0, 23.05, 21.1)">
      <use height="33.65" id="_col2" transform="matrix(1.0203, -0.0668, 0.077, 1.1768, -16.3576, -19.0691)" width="30.4" xlink:href="#sprite4"/>
    </g>
    <g id="sprite4" transform="matrix(1.0, 0.0, 0.0, 1.0, 4.5, 6.05)">
      <use height="33.65" transform="matrix(1.0, 0.0, 0.0, 1.0, -4.5, -6.05)" width="30.4" xlink:href="#shape1"/>
    </g>
    <g id="shape1" transform="matrix(1.0, 0.0, 0.0, 1.0, 4.5, 6.05)">
      <path d="M4.9 26.1 Q4.05 26.55 3.15 26.95 1.65 24.95 0.5 22.95 -1.1 20.8 -2.0 18.55 L-4.4 19.8 Q-3.5 13.9 -1.1 8.75 L-4.5 9.35 -2.25 4.7 Q-1.75 3.45 -0.85 2.35 L-2.25 1.95 Q-1.6 0.7 -0.35 -0.3 1.0 -1.3 2.65 -2.05 L2.4 -2.55 1.9 -3.2 1.9 -3.7 2.05 -4.1 7.2 -3.95 8.3 -4.7 Q10.3 -6.95 11.45 -5.45 L11.95 -4.7 13.2 -2.55 14.2 -1.05 10.05 -1.2 Q6.95 -1.3 9.55 0.2 12.95 1.95 14.85 5.35 L15.1 5.6 14.45 5.6 Q10.05 4.85 11.85 8.6 12.85 10.75 13.2 13.0 L11.35 11.75 Q10.3 11.0 9.2 10.75 6.05 9.75 7.45 12.4 9.05 14.9 9.2 18.05 7.2 17.15 6.45 19.3 5.3 22.45 4.9 26.1" fill="#ffffff" fill-rule="evenodd" stroke="none"/>
      <path d="M11.95 -4.7 L17.5 -5.35 16.25 -4.1 19.6 -2.55 23.15 -1.05 23.25 -0.7 22.0 -0.55 20.15 -0.7 25.9 9.85 22.15 7.35 23.25 12.65 24.0 16.4 20.65 13.5 Q21.15 18.3 18.35 23.3 17.85 24.05 17.6 24.95 L16.85 24.8 Q15.75 23.7 15.2 22.45 L5.8 27.6 5.15 26.1 4.9 26.1 Q5.3 22.45 6.45 19.3 7.2 17.15 9.2 18.05 9.05 14.9 7.45 12.4 6.05 9.75 9.2 10.75 10.3 11.0 11.35 11.75 L13.2 13.0 Q12.85 10.75 11.85 8.6 10.05 4.85 14.45 5.6 L15.1 5.6 14.85 5.35 Q12.95 1.95 9.55 0.2 6.95 -1.3 10.05 -1.2 L14.2 -1.05 13.2 -2.55 11.95 -4.7" fill="#d6baba" fill-rule="evenodd" stroke="none"/>
      <path d="M4.9 26.1 Q4.05 26.55 3.15 26.95 1.65 24.95 0.5 22.95 -1.1 20.8 -2.0 18.55 L-4.4 19.8 Q-3.5 13.9 -1.1 8.75 L-4.5 9.35 -2.25 4.7 Q-1.75 3.45 -0.85 2.35 L-2.25 1.95 Q-1.6 0.7 -0.35 -0.3 1.0 -1.3 2.65 -2.05 L2.4 -2.55 1.9 -3.2 1.9 -3.7 2.05 -4.1 7.2 -3.95 8.3 -4.7 Q10.3 -6.95 11.45 -5.45 L11.95 -4.7 17.5 -5.35 16.25 -4.1 19.6 -2.55 23.15 -1.05 23.25 -0.7 22.0 -0.55 20.15 -0.7 25.9 9.85 22.15 7.35 23.25 12.65 24.0 16.4 20.65 13.5 Q21.15 18.3 18.35 23.3 17.85 24.05 17.6 24.95 L16.85 24.8 Q15.75 23.7 15.2 22.45 L5.8 27.6 5.15 26.1 4.9 26.1 Z" fill="none" stroke="#000000" stroke-linecap="round" stroke-linejoin="round" stroke-opacity="0.3019608" stroke-width="0.05"/>
    </g>
  </defs>
</svg>
