<?xml version="1.0" encoding="UTF-8" standalone="no"?>
<svg xmlns:xlink="http://www.w3.org/1999/xlink" height="30.9px" width="22.1px" xmlns="http://www.w3.org/2000/svg">
  <g transform="matrix(1.0, 0.0, 0.0, 1.0, 11.05, 15.45)">
    <use height="30.9" id="_col2" transform="matrix(1.0, 0.0, 0.0, 1.0, -11.05, -15.45)" width="22.1" xlink:href="#sprite0"/>
    <use height="18.8" id="_col3" transform="matrix(1.0, 0.0, 0.0, 1.0, -10.4, -9.85)" width="18.45" xlink:href="#sprite1"/>
    <use height="27.05" transform="matrix(1.0, 0.0, 0.0, 1.0, -9.25, -13.3)" width="12.1" xlink:href="#shape2"/>
  </g>
  <defs>
    <g id="sprite0" transform="matrix(1.0, 0.0, 0.0, 1.0, 11.05, 15.45)">
      <use height="30.9" transform="matrix(1.0, 0.0, 0.0, 1.0, -11.05, -15.45)" width="22.1" xlink:href="#shape0"/>
    </g>
    <g id="shape0" transform="matrix(1.0, 0.0, 0.0, 1.0, 11.05, 15.45)">
      <path d="M-4.15 -3.85 L-1.2 -5.3 Q2.0 -6.65 3.45 -5.85 4.85 -5.05 5.3 -4.0 L5.9 -2.65 8.35 1.0 7.25 0.75 4.7 0.5 Q1.95 0.5 -0.4 1.35 L-0.85 1.55 -0.4 1.35 Q1.95 0.5 4.7 0.5 L7.25 0.75 8.4 2.6 9.7 5.6 10.1 7.25 9.0 7.05 Q10.25 10.05 11.05 13.8 7.35 12.55 2.55 13.7 L2.05 13.85 1.2 10.85 0.15 9.1 -0.4 8.25 0.6 7.75 1.3 7.5 -0.5 4.75 -2.3 2.25 -0.85 1.55 Q-1.15 0.7 -1.95 -0.15 L-2.9 -1.9 -4.15 -3.85 M-11.0 -4.05 Q-10.85 -6.05 -9.9 -7.85 -8.7 -10.15 -6.2 -12.15 -2.05 -15.45 1.9 -15.45 4.3 -15.45 5.0 -12.95 5.45 -11.55 5.3 -9.8 5.05 -10.8 4.05 -11.6 2.8 -12.6 1.5 -12.6 -2.35 -12.6 -5.25 -10.45 -6.6 -9.4 -8.9 -6.75 L-11.0 -4.05 M9.0 7.05 L7.3 6.75 4.45 6.8 Q2.9 6.85 1.3 7.5 2.9 6.85 4.45 6.8 L7.3 6.75 9.0 7.05" fill="#ffffff" fill-rule="evenodd" stroke="none"/>
      <path d="M-4.15 -3.85 L-2.9 -1.9 -1.95 -0.15 Q-1.15 0.7 -0.85 1.55 L-2.3 2.25 -0.5 4.75 1.3 7.5 0.6 7.75 -0.4 8.25 0.15 9.1 1.2 10.85 2.05 13.85 -0.85 14.6 Q-2.55 15.1 -2.9 15.45 L-3.15 14.6 -4.45 10.2 -5.1 8.0 -5.75 6.4 -6.05 5.7 -6.45 4.95 -7.65 2.9 -7.85 2.7 -8.25 1.85 -8.25 1.35 Q-8.3 -0.75 -6.35 -2.35 L-5.3 -3.1 -4.5 -3.65 -4.15 -3.85 M-11.0 -4.05 L-8.9 -6.75 Q-6.6 -9.4 -5.25 -10.45 -2.35 -12.6 1.5 -12.6 2.8 -12.6 4.05 -11.6 5.05 -10.8 5.3 -9.8 0.8 -10.05 -3.35 -8.3 -7.8 -6.55 -9.9 -2.85 L-10.3 -2.1 -10.75 -2.25 Q-11.05 -2.4 -11.05 -3.15 L-11.0 -4.05 M-6.45 4.95 L-2.3 2.25 -6.45 4.95 M-0.4 8.25 L-4.45 10.2 -0.4 8.25" fill="#d1b6b6" fill-rule="evenodd" stroke="none"/>
      <path d="M7.25 0.75 L8.35 1.0 5.9 -2.65 5.3 -4.0 Q4.85 -5.05 3.45 -5.85 2.0 -6.65 -1.2 -5.3 L-4.15 -3.85 M-0.85 1.55 L-0.4 1.35 Q1.95 0.5 4.7 0.5 L7.25 0.75 8.4 2.6 9.7 5.6 10.1 7.25 9.0 7.05 Q10.25 10.05 11.05 13.8 7.35 12.55 2.55 13.7 L2.05 13.85 -0.85 14.6 Q-2.55 15.1 -2.9 15.45 L-3.15 14.6 -4.45 10.2 -5.1 8.0 -5.75 6.4 -6.05 5.7 -6.45 4.95 -7.65 2.9 -7.85 2.7 -8.25 1.85 -8.25 1.35 Q-8.3 -0.75 -6.35 -2.35 L-5.3 -3.1 -4.5 -3.65 -4.15 -3.85 M5.3 -9.8 Q5.45 -11.55 5.0 -12.95 4.3 -15.45 1.9 -15.45 -2.05 -15.45 -6.2 -12.15 -8.7 -10.15 -9.9 -7.85 -10.85 -6.05 -11.0 -4.05 M-10.3 -2.1 L-10.75 -2.25 Q-11.05 -2.4 -11.05 -3.15 L-11.0 -4.05 M-2.3 2.25 L-0.85 1.55 M-2.3 2.25 L-6.45 4.95 M-4.45 10.2 L-0.4 8.25 0.6 7.75 1.3 7.5 Q2.9 6.85 4.45 6.8 L7.3 6.75 9.0 7.05" fill="none" stroke="#000000" stroke-linecap="round" stroke-linejoin="round" stroke-opacity="0.3019608" stroke-width="0.05"/>
    </g>
    <g id="sprite1" transform="matrix(1.0, 0.0, 0.0, 1.0, 8.75, 6.35)">
      <use height="18.8" transform="matrix(1.0, 0.0, 0.0, 1.0, -8.75, -6.35)" width="18.45" xlink:href="#shape1"/>
    </g>
    <g id="shape1" transform="matrix(1.0, 0.0, 0.0, 1.0, 8.75, 6.35)">
      <path d="M8.2 -0.95 Q8.1 -4.6 3.8 -4.6 0.75 -4.6 -3.65 -1.85 -7.8 0.8 -8.75 3.5 L-8.65 1.4 -8.25 0.65 Q-6.15 -3.05 -1.7 -4.8 2.45 -6.55 6.95 -6.3 8.75 -5.5 8.75 -4.05 8.8 -2.8 8.2 -0.95" fill="#ffffff" fill-rule="evenodd" stroke="none"/>
      <path d="M7.55 0.85 L6.95 -0.5 Q6.5 -1.55 5.1 -2.35 3.65 -3.15 0.45 -1.8 -2.75 -0.45 -4.7 1.15 -6.65 2.75 -6.6 4.85 L-6.6 5.35 -6.2 6.2 -6.1 6.35 Q-7.3 6.45 -8.25 5.35 L-8.7 4.7 -8.75 3.5 Q-7.8 0.8 -3.65 -1.85 0.75 -4.6 3.8 -4.6 8.1 -4.6 8.2 -0.95 L7.55 0.85 M7.45 2.8 L7.95 3.8 8.25 5.15 7.05 5.2 6.2 2.4 Q6.8 2.1 7.45 2.8 M4.35 2.8 L5.35 5.95 4.15 6.2 2.7 2.6 4.35 2.8 M5.9 9.8 L6.5 12.05 5.45 12.45 4.45 9.45 5.8 9.45 5.9 9.8 M9.25 9.1 L9.7 11.55 8.8 11.55 8.15 9.1 9.25 9.1" fill="#d1b6b6" fill-rule="evenodd" stroke="none"/>
      <path d="M7.55 0.85 L8.2 -0.95 Q8.8 -2.8 8.75 -4.05 8.75 -5.5 6.95 -6.3 2.45 -6.55 -1.7 -4.8 -6.15 -3.05 -8.25 0.65 L-8.65 1.4 -8.75 3.5 -8.7 4.7 -8.25 5.35 Q-7.3 6.45 -6.1 6.35 L-6.2 6.2 M7.45 2.8 L7.95 3.8 8.25 5.15 7.05 5.2 6.2 2.4 Q6.8 2.1 7.45 2.8 M4.35 2.8 L5.35 5.95 4.15 6.2 2.7 2.6 4.35 2.8 M5.9 9.8 L6.5 12.05 5.45 12.45 4.45 9.45 5.8 9.45 5.9 9.8 M9.25 9.1 L9.7 11.55 8.8 11.55 8.15 9.1 9.25 9.1" fill="none" stroke="#000000" stroke-linecap="round" stroke-linejoin="round" stroke-opacity="0.3019608" stroke-width="0.05"/>
    </g>
    <g id="shape2" transform="matrix(1.0, 0.0, 0.0, 1.0, 9.25, 13.3)">
      <path d="M-0.95 -13.2 L-0.75 -12.95 -0.7 -12.8 -0.7 -12.65 Q-0.55 -12.1 -2.05 -11.65 L-3.55 -11.05 -5.65 -9.65 -8.1 -6.95 -8.3 -6.85 -8.5 -6.8 Q-9.25 -6.75 -9.25 -7.6 -9.3 -9.1 -6.7 -11.2 L-6.7 -11.15 Q-4.0 -13.4 -1.2 -13.3 L-0.95 -13.2 M-1.55 -7.85 L-2.65 -7.35 -4.3 -6.35 -7.6 -4.45 -7.8 -4.55 Q-6.95 -5.75 -5.0 -7.05 -2.6 -8.7 -0.8 -8.45 L-1.55 -7.85 M-2.4 -3.75 L-2.15 -3.1 -1.1 -1.8 Q0.0 0.15 0.0 0.8 L-0.3 1.2 -0.8 1.45 Q-1.4 1.45 -2.05 0.4 L-2.8 -0.9 -4.7 -3.35 Q-4.65 -3.3 -4.1 -3.7 -3.6 -4.1 -3.1 -4.15 -2.65 -4.25 -2.4 -3.75" fill="#ffffff" fill-opacity="0.8" fill-rule="evenodd" stroke="none"/>
      <path d="M-0.35 2.0 L0.45 2.85 0.75 3.65 Q2.1 6.35 2.1 6.75 2.05 7.1 1.2 7.25 0.3 7.4 -0.2 6.4 L-0.95 5.05 -2.35 2.7 -1.65 2.1 -0.35 2.0" fill="#ffffff" fill-opacity="0.5019608" fill-rule="evenodd" stroke="none"/>
      <path d="M1.85 13.75 Q1.35 13.75 -0.5 8.5 -0.5 8.1 0.3 7.85 1.1 7.55 1.4 8.3 L2.1 9.9 2.85 13.1 Q2.85 13.75 1.85 13.75" fill="#ffffff" fill-opacity="0.2509804" fill-rule="evenodd" stroke="none"/>
    </g>
  </defs>
</svg>
