<?xml version="1.0" encoding="UTF-8" standalone="no"?>
<svg xmlns:xlink="http://www.w3.org/1999/xlink" height="35.1px" width="69.7px" xmlns="http://www.w3.org/2000/svg">
  <g transform="matrix(1.0, 0.0, 0.0, 1.0, -50.4, -2.05)">
    <use height="35.1" transform="matrix(1.0, 0.0, 0.0, 1.0, 50.4, 2.05)" width="69.7" xlink:href="#shape0"/>
  </g>
  <defs>
    <g id="shape0" transform="matrix(1.0, 0.0, 0.0, 1.0, -50.4, -2.05)">
      <path d="M109.1 16.3 L108.6 16.35 107.6 16.4 105.1 16.45 103.3 16.4 101.35 16.15 97.6 15.9 92.2 16.05 91.45 16.05 90.4 16.1 90.3 16.2 90.35 16.2 90.2 16.2 90.2 16.15 Q91.4 15.6 94.75 15.5 L98.45 15.4 97.45 15.25 93.3 14.9 88.95 15.35 85.4 15.8 83.45 16.35 83.3 16.45 82.85 16.6 82.9 16.6 81.5 17.15 Q80.65 17.45 79.1 18.65 L77.75 19.6 77.4 19.1 Q77.8 18.65 78.9 17.95 L80.9 16.7 Q83.5 15.45 85.0 15.25 L88.75 14.8 91.35 14.55 93.1 14.45 95.7 14.6 101.35 15.35 104.5 15.45 102.3 14.8 105.25 15.3 105.8 15.4 107.0 15.55 119.8 16.1 120.1 17.3 119.0 17.05 110.9 17.0 109.15 17.0 112.55 16.7 112.8 16.65 115.4 16.4 114.4 16.35 112.2 16.15 111.35 16.25 109.15 16.3 109.1 16.3 M91.35 14.55 L91.25 14.6 91.35 14.55 91.45 14.55 91.35 14.55 M50.85 31.65 L50.4 31.45 50.85 31.55 50.85 31.65" fill="#ffd633" fill-rule="evenodd" stroke="none"/>
      <path d="M105.1 16.45 L107.6 16.4 108.6 16.35 109.1 16.3 109.15 16.3 111.35 16.25 112.2 16.15 114.4 16.35 115.4 16.4 112.8 16.65 112.55 16.65 112.55 16.7 109.15 17.0 107.5 16.75 105.95 16.6 105.1 16.45 M110.9 17.0 L111.9 17.05 110.65 17.1 109.15 17.0 110.9 17.0 M105.25 15.3 L102.3 14.8 104.5 15.45 101.35 15.35 95.7 14.6 95.85 14.55 96.85 14.65 98.0 14.7 99.8 14.6 101.55 14.5 105.25 15.3 M91.35 14.55 L91.45 14.55 91.35 14.55 91.25 14.6 91.35 14.55 M82.9 16.6 L82.85 16.6 83.3 16.45 83.45 16.35 85.4 15.8 88.95 15.35 93.3 14.9 97.45 15.25 98.45 15.4 94.75 15.5 Q91.4 15.6 90.2 16.15 L90.2 16.2 87.25 16.0 83.95 16.4 82.9 16.6 M90.35 16.2 L90.3 16.2 90.4 16.1 91.45 16.05 92.2 16.05 91.1 16.25 90.35 16.2 M90.15 13.9 L91.45 13.9 92.7 14.0 92.75 14.1 91.15 14.3 89.05 14.2 88.0 14.15 87.0 13.65 87.3 13.5 87.55 13.55 88.85 13.8 90.15 13.9 M86.95 16.95 L88.35 16.95 88.4 17.05 87.1 17.1 85.75 17.2 Q85.5 17.2 84.3 17.9 L82.9 18.75 Q82.15 19.1 81.45 19.75 L80.8 20.6 80.05 21.3 Q79.3 21.3 79.9 20.4 L80.8 19.35 81.6 18.65 82.35 18.25 83.9 17.3 84.75 16.85 86.4 16.8 86.95 16.95 M68.85 19.95 Q70.7 19.25 71.6 19.65 L73.05 20.3 Q74.8 25.8 69.75 28.75 L66.0 28.65 Q64.5 27.4 64.85 25.1 65.2 22.8 66.75 21.6 L68.85 19.95 M71.15 18.8 Q72.35 14.8 71.4 10.45 70.4 6.1 67.15 2.05 72.15 5.95 72.95 12.2 73.45 15.8 72.6 19.5 L71.15 18.8 M50.85 31.55 Q56.85 32.45 62.05 29.6 L64.0 28.2 64.75 28.9 65.15 29.25 Q61.35 31.65 57.85 32.2 54.1 32.8 50.85 31.65 L50.85 31.55 M59.85 32.8 L61.4 32.35 61.85 33.2 62.15 34.0 62.3 34.7 Q61.85 35.9 60.75 36.4 59.5 37.05 58.0 37.15 L57.65 35.8 57.15 33.1 59.85 32.8" fill="#ffd633" fill-opacity="0.4" fill-rule="evenodd" stroke="none"/>
    </g>
  </defs>
</svg>
