<?xml version="1.0" encoding="UTF-8" standalone="no"?>
<svg xmlns:xlink="http://www.w3.org/1999/xlink" height="54.9px" width="65.15px" xmlns="http://www.w3.org/2000/svg">
  <g transform="matrix(1.0, 0.0, 0.0, 1.0, 27.65, 27.4)">
    <use height="54.9" transform="matrix(1.0, 0.0, 0.0, 1.0, -27.65, -27.4)" width="65.15" xlink:href="#shape0"/>
  </g>
  <defs>
    <g id="shape0" transform="matrix(1.0, 0.0, 0.0, 1.0, 27.65, 27.4)">
      <path d="M-3.85 -26.7 L-3.45 -26.7 -0.6 -27.05 2.8 -27.4 5.9 -27.4 11.45 -26.45 16.3 -25.1 19.8 -23.95 Q22.45 -23.05 25.0 -21.65 L24.85 -20.95 22.5 -15.5 15.1 -5.95 15.7 -7.05 Q16.95 -9.75 17.5 -12.65 L17.8 -14.6 15.9 -11.8 Q12.6 -6.95 8.5 -3.2 L8.4 -3.1 7.65 -2.4 6.25 -1.1 7.8 -0.4 8.7 1.75 Q6.1 0.15 2.55 -0.75 L1.0 -1.0 -3.95 -1.8 -16.2 -3.85 Q-25.4 -5.45 -27.65 -7.6 L-27.65 -8.35 -27.5 -9.15 -26.85 -10.85 -25.85 -12.55 -25.2 -13.65 -23.75 -16.1 Q-22.15 -18.5 -19.65 -20.15 -17.55 -21.5 -15.35 -22.65 L-12.1 -24.35 Q-10.85 -25.0 -9.2 -25.35 L-3.85 -26.7 -5.5 -26.15 -9.9 -23.55 Q-12.3 -21.85 -14.3 -19.65 -12.3 -21.85 -9.9 -23.55 L-5.5 -26.15 -3.85 -26.7 M-19.0 -13.9 Q-17.6 -16.35 -15.6 -18.35 L-14.3 -19.65 -15.6 -18.35 Q-17.6 -16.35 -19.0 -13.9 M4.65 -18.2 L6.15 -19.6 8.55 -21.7 Q10.5 -23.35 12.2 -25.45 10.5 -23.35 8.55 -21.7 L6.15 -19.6 4.65 -18.2 -2.4 -11.9 4.65 -18.2 M26.0 -21.0 L25.2 -21.45 25.0 -21.65 26.0 -21.0" fill="#ffffff" fill-rule="evenodd" stroke="none"/>
      <path d="M25.2 -21.45 L24.85 -20.95 25.0 -21.65 25.2 -21.45" fill="#d5891a" fill-rule="evenodd" stroke="none"/>
      <path d="M8.7 1.75 L7.8 -0.4 6.25 -1.1 7.65 -2.4 8.4 -3.1 8.5 -3.2 Q12.6 -6.95 15.9 -11.8 L17.8 -14.6 17.5 -12.65 Q16.95 -9.75 15.7 -7.05 L15.1 -5.95 22.5 -15.5 Q21.75 -13.15 20.2 -11.0 L19.05 -9.4 17.85 -8.0 Q16.15 -5.9 13.85 -4.35 16.15 -5.9 17.85 -8.0 L19.05 -9.4 20.2 -11.0 Q21.75 -13.15 22.5 -15.5 L24.85 -20.95 25.2 -21.45 26.0 -21.0 26.1 -20.9 27.45 -19.75 30.9 -16.2 33.85 -12.25 35.45 -8.15 36.85 -3.25 Q37.55 0.05 37.5 3.3 37.4 6.25 36.65 9.2 L35.65 13.15 Q34.05 19.8 28.95 24.2 L28.4 24.65 27.1 25.45 Q25.5 26.25 23.95 26.65 L23.2 27.2 20.7 27.5 Q18.95 27.4 17.45 26.65 L16.3 25.7 Q15.5 24.75 15.35 23.55 L15.3 22.9 Q16.2 13.15 13.9 8.8 11.55 4.45 8.7 1.75 M32.95 11.35 L34.35 9.3 Q36.35 6.6 37.5 3.3 36.35 6.6 34.35 9.3 L32.95 11.35 29.7 14.4 32.95 11.35 M29.15 0.7 L31.15 -3.25 31.55 -4.35 33.05 -9.3 33.85 -12.25 33.05 -9.3 31.55 -4.35 31.15 -3.25 29.15 0.7 28.95 0.95 26.35 4.0 23.2 7.0 26.35 4.0 28.95 0.95 29.15 0.7" fill="#d6baba" fill-rule="evenodd" stroke="none"/>
      <path d="M25.0 -21.65 Q22.45 -23.05 19.8 -23.95 L16.3 -25.1 11.45 -26.45 5.9 -27.4 2.8 -27.4 -0.6 -27.05 -3.45 -26.7 -3.85 -26.7 -9.2 -25.35 Q-10.85 -25.0 -12.1 -24.35 L-15.35 -22.65 Q-17.55 -21.5 -19.65 -20.15 -22.15 -18.5 -23.75 -16.1 L-25.2 -13.65 -25.85 -12.55 -26.85 -10.85 -27.5 -9.15 -27.65 -8.35 -27.65 -7.6 M15.3 22.9 L15.35 23.55 Q15.5 24.75 16.3 25.7 L17.45 26.65 Q18.95 27.4 20.7 27.5 L23.2 27.2 23.95 26.65 Q25.5 26.25 27.1 25.45 L28.4 24.65 28.95 24.2 Q34.05 19.8 35.65 13.15 L36.65 9.2 Q37.4 6.25 37.5 3.3 37.55 0.05 36.85 -3.25 L35.45 -8.15 33.85 -12.25 30.9 -16.2 27.45 -19.75 26.1 -20.9 26.0 -21.0 25.2 -21.45 25.0 -21.65" fill="none" stroke="#000000" stroke-linecap="round" stroke-linejoin="round" stroke-opacity="0.3019608" stroke-width="0.05"/>
      <path d="M-14.3 -19.65 L-15.6 -18.35 Q-17.6 -16.35 -19.0 -13.9 M32.95 11.35 L29.7 14.4 M4.65 -18.2 L-2.4 -11.9 M19.05 -9.4 L17.85 -8.0 Q16.15 -5.9 13.85 -4.35 M29.15 0.7 L28.95 0.95 26.35 4.0 23.2 7.0" fill="none" stroke="#000000" stroke-linecap="round" stroke-linejoin="round" stroke-opacity="0.08235294" stroke-width="0.05"/>
      <path d="M-3.85 -26.7 L-5.5 -26.15 -9.9 -23.55 Q-12.3 -21.85 -14.3 -19.65 M37.5 3.3 Q36.35 6.6 34.35 9.3 L32.95 11.35 M12.2 -25.45 Q10.5 -23.35 8.55 -21.7 L6.15 -19.6 4.65 -18.2 M22.5 -15.5 Q21.75 -13.15 20.2 -11.0 L19.05 -9.4 M24.85 -20.95 L22.5 -15.5 M33.85 -12.25 L33.05 -9.3 31.55 -4.35 31.15 -3.25 29.15 0.7" fill="none" stroke="#000000" stroke-linecap="round" stroke-linejoin="round" stroke-opacity="0.15294118" stroke-width="0.05"/>
    </g>
  </defs>
</svg>
