<?xml version="1.0" encoding="UTF-8" standalone="no"?>
<svg xmlns:xlink="http://www.w3.org/1999/xlink" height="43.15px" width="48.65px" xmlns="http://www.w3.org/2000/svg">
  <g transform="matrix(1.0, 0.0, 0.0, 1.0, 230.85, 86.5)">
    <use height="43.15" transform="matrix(1.0, 0.0, 0.0, 1.0, -230.85, -86.5)" width="48.65" xlink:href="#shape0"/>
  </g>
  <defs>
    <g id="shape0" transform="matrix(1.0, 0.0, 0.0, 1.0, 230.85, 86.5)">
      <path d="M-185.15 -78.75 L-188.95 -79.25 -206.85 -82.2 -226.8 -84.85 -228.3 -85.0 -228.7 -85.05 -228.75 -85.05 -228.9 -85.5 -227.9 -86.5 -212.4 -85.15 Q-202.05 -84.15 -182.2 -80.8 -182.3 -79.6 -183.1 -78.5 L-185.15 -78.75 M-225.0 -46.9 L-224.75 -43.5 -227.3 -43.35 Q-227.8 -52.9 -228.95 -62.4 -230.2 -72.7 -230.8 -83.1 L-230.8 -85.1 -229.0 -85.45 -228.9 -85.5 -228.8 -85.05 -228.55 -81.9 -225.0 -46.9" fill="#eb7272" fill-rule="evenodd" stroke="none"/>
      <path d="M-226.8 -84.85 L-206.85 -82.2 -188.95 -79.25 -185.15 -78.75 Q-185.8 -75.05 -187.05 -71.55 L-204.3 -77.6 -215.1 -81.0 -217.7 -81.75 -226.8 -84.85 M-199.5 -53.8 Q-203.85 -51.3 -206.3 -50.4 L-207.15 -50.1 -216.1 -64.95 -227.9 -83.75 -222.9 -79.1 Q-213.8 -70.5 -207.5 -63.4 -201.25 -56.25 -199.5 -53.8 M-215.75 -47.95 L-225.0 -46.9 -228.55 -81.9 -221.45 -63.3 -215.75 -47.95 M-192.55 -60.8 L-193.9 -61.85 Q-199.3 -66.4 -208.45 -72.25 L-221.55 -80.45 -227.55 -84.3 -217.85 -80.05 Q-212.0 -77.6 -202.5 -73.2 -193.05 -68.85 -189.05 -66.75 -190.3 -64.2 -191.85 -61.85 L-192.55 -60.8" fill="#ffffcc" fill-rule="evenodd" stroke="none"/>
      <path d="M-228.75 -85.05 L-228.7 -85.05 -228.3 -85.0 -226.8 -84.85 -217.7 -81.75 -215.1 -81.0 -204.3 -77.6 -187.05 -71.55 Q-187.9 -69.1 -189.05 -66.75 -193.05 -68.85 -202.5 -73.2 -212.0 -77.6 -217.85 -80.05 L-227.55 -84.3 -221.55 -80.45 -208.45 -72.25 Q-199.3 -66.4 -193.9 -61.85 L-192.55 -60.8 Q-196.25 -55.6 -199.5 -53.8 -201.25 -56.25 -207.5 -63.4 -213.8 -70.5 -222.9 -79.1 L-227.9 -83.75 -216.1 -64.95 -207.15 -50.1 Q-211.35 -48.75 -215.75 -47.95 L-221.45 -63.3 -228.55 -81.9 -228.8 -85.05 -228.75 -85.05" fill="#e8d4ad" fill-rule="evenodd" stroke="none"/>
      <path d="M-226.8 -84.85 L-206.85 -82.2 -188.95 -79.25 -185.15 -78.75 -183.1 -78.5 Q-182.3 -79.6 -182.2 -80.8 -202.05 -84.15 -212.4 -85.15 L-227.9 -86.5 -228.9 -85.5 -228.75 -85.05 -228.7 -85.05 -228.3 -85.0 -226.8 -84.85 M-187.05 -71.55 Q-185.8 -75.05 -185.15 -78.75 M-192.55 -60.8 Q-196.25 -55.6 -199.5 -53.8 -203.85 -51.3 -206.3 -50.4 L-207.15 -50.1 Q-211.35 -48.75 -215.75 -47.95 L-225.0 -46.9 -224.75 -43.5 -227.3 -43.35 Q-227.8 -52.9 -228.95 -62.4 -230.2 -72.7 -230.8 -83.1 L-230.8 -85.1 -229.0 -85.45 -228.9 -85.5 -228.8 -85.05 M-189.05 -66.75 Q-187.9 -69.1 -187.05 -71.55 M-189.05 -66.75 Q-190.3 -64.2 -191.85 -61.85 L-192.55 -60.8 M-228.55 -81.9 L-228.8 -85.05 M-225.0 -46.9 L-228.55 -81.9" fill="none" stroke="#000000" stroke-linecap="round" stroke-linejoin="round" stroke-opacity="0.4" stroke-width="0.05"/>
      <path d="M-201.45 -61.5 Q-203.85 -56.0 -209.85 -56.0 -215.3 -56.0 -217.65 -59.15 -219.45 -61.6 -219.45 -66.15 -219.45 -70.95 -216.45 -73.85 -213.75 -76.5 -209.85 -76.7 -205.95 -76.9 -203.25 -74.5 -200.25 -71.9 -200.25 -67.2 -200.25 -64.25 -201.45 -61.5" fill="#db0202" fill-opacity="0.28235295" fill-rule="evenodd" stroke="none"/>
      <path d="M-198.6 -79.55 L-199.45 -79.7 Q-201.05 -79.7 -201.9 -78.5 -202.75 -77.3 -204.35 -77.3 -205.65 -77.3 -206.35 -78.45 L-206.85 -79.7 -206.8 -80.4 -205.85 -81.3 -206.1 -80.6 Q-206.1 -80.4 -206.25 -80.4 L-206.45 -80.25 Q-206.45 -79.65 -205.95 -78.9 -205.3 -78.0 -204.3 -78.0 -203.0 -78.0 -202.15 -79.2 -201.35 -80.4 -199.4 -80.4 -198.35 -80.4 -198.0 -79.75 L-197.85 -79.05 Q-198.75 -77.0 -198.75 -76.1 -198.75 -75.55 -198.15 -74.5 -197.4 -73.2 -196.5 -73.2 -195.7 -73.2 -195.3 -73.75 -195.0 -74.15 -195.0 -74.45 L-195.4 -75.0 -196.1 -75.45 -196.65 -75.3 -196.8 -74.85 Q-197.1 -74.9 -197.1 -75.35 -197.1 -76.05 -196.35 -76.05 -195.4 -76.05 -194.9 -75.25 L-194.6 -74.45 Q-194.6 -73.85 -194.95 -73.35 -195.55 -72.6 -196.8 -72.6 -197.95 -72.6 -198.75 -74.3 L-199.35 -76.05 -198.9 -77.9 -198.45 -79.1 Q-198.45 -79.45 -198.6 -79.55 M-192.45 -75.95 Q-192.25 -76.2 -191.15 -76.5 L-191.9 -75.65 -192.15 -75.25 Q-192.15 -74.55 -191.0 -73.5 -189.9 -72.5 -189.9 -71.55 -189.9 -70.8 -191.3 -68.4 -192.95 -65.55 -194.4 -65.55 -195.35 -65.55 -195.8 -67.5 L-195.7 -68.5 Q-195.45 -69.15 -194.3 -69.15 L-193.65 -68.7 -193.5 -68.3 -194.1 -67.05 -194.55 -67.05 -194.6 -67.4 -194.15 -68.25 -194.3 -68.55 Q-195.05 -68.5 -195.15 -67.95 -195.0 -66.3 -193.85 -66.3 -192.9 -66.3 -191.6 -68.95 L-190.5 -71.6 Q-190.5 -72.35 -191.55 -73.3 -192.6 -74.2 -192.6 -75.15 L-192.45 -75.95 M-213.0 -82.45 Q-210.8 -82.35 -210.8 -80.1 L-211.3 -79.4 Q-211.85 -78.9 -212.25 -78.9 L-212.85 -78.9 -213.0 -79.05 -211.65 -79.9 Q-211.4 -80.15 -211.4 -80.65 L-211.7 -81.4 -212.4 -82.05 Q-214.9 -82.05 -214.75 -79.65 -214.55 -77.3 -217.1 -77.3 -219.35 -77.3 -219.9 -78.95 L-220.5 -81.5 -221.25 -81.5 Q-221.25 -81.0 -221.4 -80.6 L-221.7 -80.6 -221.7 -81.75 -220.9 -82.05 Q-219.7 -82.05 -219.2 -80.0 -218.7 -78.0 -217.05 -78.0 -215.15 -78.0 -215.0 -79.55 -214.95 -80.35 -215.25 -81.05 -215.25 -82.5 -213.0 -82.45 M-220.75 -74.3 L-220.7 -73.55 Q-220.7 -72.05 -222.4 -70.6 -224.15 -69.1 -224.15 -68.45 L-223.85 -67.6 -223.35 -66.3 -223.5 -66.05 -224.75 -67.35 -224.85 -68.45 Q-224.85 -69.7 -223.6 -70.5 -222.05 -71.45 -221.4 -73.05 L-221.4 -74.15 -221.75 -74.25 Q-222.4 -74.25 -222.65 -73.3 -222.9 -72.35 -223.8 -72.35 -225.5 -72.35 -226.25 -73.35 L-226.65 -74.4 -225.3 -78.95 -225.3 -79.4 -226.3 -79.35 -226.5 -79.4 -226.55 -79.35 -226.65 -79.65 Q-226.65 -80.35 -225.6 -80.0 -224.55 -79.65 -224.55 -78.75 L-225.5 -74.3 -225.0 -73.8 -223.85 -73.5 Q-223.5 -73.5 -223.2 -74.2 -222.85 -74.9 -221.85 -74.9 -221.0 -74.9 -220.75 -74.3 M-223.2 -53.85 Q-222.6 -52.85 -220.05 -52.85 -218.65 -52.85 -217.8 -54.05 -217.2 -54.9 -217.2 -55.4 -217.2 -55.6 -217.8 -55.8 L-219.05 -56.7 -219.35 -56.2 -219.3 -55.7 Q-219.15 -55.4 -218.4 -55.35 L-218.3 -55.1 -218.55 -54.9 Q-218.8 -54.75 -219.0 -54.75 -220.1 -54.75 -220.1 -56.3 -220.1 -57.45 -219.25 -57.45 -217.65 -57.45 -217.0 -56.55 -216.6 -56.05 -216.6 -55.4 -216.6 -54.35 -217.45 -53.4 -218.6 -52.05 -220.85 -52.05 -223.2 -52.05 -223.9 -53.45 L-224.15 -55.2 Q-224.15 -57.05 -222.85 -59.3 L-221.55 -61.6 Q-221.55 -62.25 -222.35 -62.25 -223.55 -62.25 -224.05 -61.55 L-224.7 -60.6 -224.75 -60.55 -224.85 -60.8 Q-224.85 -62.15 -222.8 -62.75 -220.8 -63.35 -220.8 -61.5 -220.8 -61.1 -222.05 -58.9 -223.35 -56.75 -223.35 -55.2 L-223.2 -53.85 M-214.2 -53.55 L-214.5 -53.55 -214.65 -54.2 Q-214.65 -54.65 -213.95 -55.05 -213.1 -55.6 -211.95 -55.05 L-211.4 -54.2 Q-210.6 -53.4 -209.4 -53.4 -208.6 -53.4 -208.55 -53.75 L-208.2 -54.35 Q-207.8 -54.15 -207.8 -53.55 -207.8 -53.3 -208.1 -52.95 -208.5 -52.55 -209.0 -52.55 -210.8 -52.55 -211.85 -53.65 L-213.25 -54.75 Q-214.45 -54.75 -214.2 -53.55" fill="#009900" fill-opacity="0.4" fill-rule="evenodd" stroke="none"/>
    </g>
  </defs>
</svg>
