<?xml version="1.0" encoding="UTF-8" standalone="no"?>
<svg xmlns:xlink="http://www.w3.org/1999/xlink" height="20.85px" width="13.0px" xmlns="http://www.w3.org/2000/svg">
  <g transform="matrix(1.0, 0.0, 0.0, 1.0, 6.5, 10.4)">
    <use height="20.85" transform="matrix(1.0, 0.0, 0.0, 1.0, -6.5, -10.4)" width="13.0" xlink:href="#shape0"/>
  </g>
  <defs>
    <g id="shape0" transform="matrix(1.0, 0.0, 0.0, 1.0, 6.5, 10.4)">
      <path d="M0.8 -7.85 L0.45 -7.9 0.5 -8.0 0.8 -7.85 M-0.05 -8.15 L-0.4 -8.25 0.1 -6.1 0.5 -1.4 0.15 1.65 0.45 4.95 0.25 7.1 0.25 7.4 0.3 8.0 0.3 8.05 0.3 8.35 -0.4 8.3 -0.45 8.1 -1.3 7.95 -1.95 7.8 -2.95 7.1 -3.5 6.6 -4.1 5.95 -4.4 5.4 -4.45 5.3 -4.7 4.75 -4.8 4.5 -5.05 3.85 -5.7 1.95 -6.15 0.4 -6.35 -0.65 -6.4 -2.35 -6.35 -0.65 -6.5 -1.3 -6.4 -2.35 -6.45 -4.05 -6.25 -8.45 -6.2 -8.95 -6.1 -9.0 -5.65 -9.2 -4.65 -9.35 -3.5 -9.3 -3.5 -9.2 -3.5 -9.1 -3.15 -9.15 -1.25 -8.75 -1.3 -8.55 -1.25 -8.55 -0.05 -8.15 M-3.9 4.65 L-3.6 5.25 -3.5 6.6 -3.6 5.25 -3.9 4.65 M-3.6 -8.35 L-3.5 -9.1 -3.6 -8.35 M-1.25 -7.85 L-1.3 -8.55 -1.25 -7.85 M-0.95 5.75 L-0.45 8.1 -0.95 5.75 M-1.3 7.95 L-2.95 7.1 -1.3 7.95" fill="#ffffff" fill-rule="evenodd" stroke="none"/>
      <path d="M0.8 -7.85 L1.1 -7.85 1.25 -7.75 1.7 -7.55 2.5 -7.1 3.65 -6.2 3.9 -5.65 4.85 -3.35 4.5 -3.35 4.0 -5.4 3.65 -6.2 4.0 -5.4 4.5 -3.35 4.85 -3.35 5.2 -1.9 5.35 -0.9 5.5 1.35 5.5 3.1 5.45 3.85 5.3 6.05 5.15 6.95 4.1 8.05 4.2 8.2 2.75 8.55 1.05 8.45 0.75 8.4 0.35 8.35 0.3 8.0 0.35 8.35 0.3 8.35 0.3 8.05 0.3 8.0 0.25 7.4 0.25 7.1 0.45 4.95 0.15 1.65 0.5 -1.4 0.1 -6.1 -0.4 -8.25 -0.05 -8.15 0.5 -8.0 0.45 -7.9 0.8 -7.85 M0.4 -7.3 L0.45 -7.9 0.4 -7.3 M3.7 7.5 L4.1 8.05 3.7 7.5 M5.5 1.35 L5.1 0.8 5.2 -1.9 5.1 0.8 5.5 1.35 M3.25 -3.4 L4.5 -3.35 3.25 -3.4 M3.6 2.3 L4.2 2.7 5.5 3.1 4.2 2.7 3.6 2.3" fill="#d6baba" fill-rule="evenodd" stroke="none"/>
      <path d="M0.8 -7.85 L1.1 -7.85 1.25 -7.75 1.7 -7.55 2.5 -7.1 M4.85 -3.35 L6.5 -2.9 M0.45 -7.9 L0.4 -7.3 M0.5 -8.0 L0.45 -7.9 0.8 -7.85 M0.25 7.4 L0.3 8.0 0.35 8.35 0.6 9.9 M0.75 8.4 L1.05 8.45 2.75 8.55 M4.2 8.2 L4.1 8.05 3.7 7.5 M0.65 -9.5 L0.5 -8.0 M3.65 -6.2 L4.0 -5.4 4.5 -3.35 4.85 -3.35 M5.5 3.1 L6.5 3.3 M4.5 -3.35 L3.25 -3.4 M5.2 -1.9 L5.1 0.8 5.5 1.35 M5.45 3.85 L5.3 6.05 M5.15 6.95 L4.1 8.05 M5.5 3.1 L4.2 2.7 3.6 2.3 M4.2 8.2 L4.85 8.95 M-0.4 8.3 L0.1 10.45 M-4.65 -9.35 L-5.65 -9.2 M-6.1 -9.0 L-6.2 -8.95 M-6.25 -8.45 L-6.45 -4.05 -6.4 -2.35 -6.35 -0.65 -6.15 0.4 -5.7 1.95 -5.05 3.85 -4.8 4.5 -4.7 4.75 -4.45 5.3 -4.4 5.4 -4.1 5.95 M-3.5 6.6 L-3.6 5.25 -3.9 4.65 M-3.45 -10.35 L-3.5 -9.3 -3.5 -9.2 -3.15 -9.15 -1.25 -8.75 -1.05 -10.4 M-3.5 -9.2 L-3.5 -9.1 -3.6 -8.35 M-1.25 -8.75 L-1.3 -8.55 -1.25 -7.85 M-0.4 8.3 L-0.45 8.1 -0.95 5.75 M-3.5 6.6 L-3.5 8.0 M-2.95 7.1 L-1.3 7.95" fill="none" stroke="#000000" stroke-linecap="round" stroke-linejoin="round" stroke-opacity="0.3019608" stroke-width="0.05"/>
    </g>
  </defs>
</svg>
