<?xml version="1.0" encoding="UTF-8" standalone="no"?>
<svg xmlns:xlink="http://www.w3.org/1999/xlink" height="49.6px" width="40.3px" xmlns="http://www.w3.org/2000/svg">
  <g transform="matrix(1.0, 0.0, 0.0, 1.0, 23.05, 21.1)">
    <use height="35.0" id="_col2" transform="matrix(1.0, 0.0, 0.0, 1.0, -16.8, -11.0)" width="25.35" xlink:href="#sprite0"/>
    <use height="19.9" transform="matrix(1.0, 0.0, 0.0, 1.0, -14.85, -8.0)" width="7.8" xlink:href="#shape1"/>
  </g>
  <defs>
    <g id="sprite0" transform="matrix(1.0, 0.0, 0.0, 1.0, 12.7, 17.5)">
      <use height="35.0" transform="matrix(1.0, 0.0, 0.0, 1.0, -12.7, -17.5)" width="25.35" xlink:href="#shape0"/>
    </g>
    <g id="shape0" transform="matrix(1.0, 0.0, 0.0, 1.0, 12.7, 17.5)">
      <path d="M-2.65 -14.7 L-3.65 -15.1 Q-4.25 -15.1 -4.35 -13.7 L-4.7 -9.9 -4.95 -6.1 -5.25 -1.55 Q-5.25 -0.1 -5.6 1.25 L-5.35 2.15 -4.65 2.4 -4.1 2.55 -4.05 2.4 -4.1 2.55 -4.65 2.4 -5.35 2.15 -5.6 1.25 Q-5.25 -0.1 -5.25 -1.55 L-4.95 -6.1 -4.7 -9.9 -4.35 -13.7 Q-4.25 -15.1 -3.65 -15.1 L-2.65 -14.7 -2.5 -14.3 -2.35 -13.4 -2.55 -12.0 -2.85 -8.65 -3.15 -5.35 Q-3.15 -3.0 -3.55 -0.3 L-4.05 2.4 -3.8 2.4 Q-3.25 2.45 -3.0 2.1 -2.55 1.45 -2.4 -0.4 -1.05 -9.85 -1.05 -11.8 -1.05 -12.8 -1.35 -13.55 -1.35 -14.4 -2.1 -14.65 L-2.65 -14.7 M-12.15 6.8 Q-10.6 4.25 -8.3 2.1 -7.8 1.65 -7.7 0.95 -6.7 -4.45 -7.1 -9.85 L-7.4 -14.6 -5.8 -16.6 -2.85 -17.5 Q1.95 -17.55 4.45 -13.5 L6.05 -11.35 7.5 -9.95 7.15 -9.05 Q6.9 -8.65 6.45 -8.65 L3.7 -8.6 3.7 -8.65 Q2.45 -9.15 1.3 -9.75 L-0.9 -0.3 -1.85 2.1 -2.4 3.6 -2.35 3.65 -2.35 3.7 -2.35 3.65 -2.4 3.6 -1.85 2.1 -0.9 -0.3 1.3 -9.75 Q2.45 -9.15 3.7 -8.65 L3.7 -8.6 3.45 -8.6 Q2.85 -8.6 1.95 -5.5 L1.0 -2.05 -1.85 4.25 -1.95 4.15 -2.35 3.7 -2.25 4.1 -0.8 6.9 -0.05 8.25 Q1.8 3.1 2.85 1.6 L3.0 1.65 2.9 1.6 3.45 -0.05 3.85 0.3 3.7 1.15 3.55 2.4 3.35 3.65 2.85 6.7 Q2.35 9.75 2.35 10.65 L2.25 11.25 2.35 11.35 2.8 11.6 2.85 11.6 3.95 11.85 5.7 11.45 5.9 11.35 6.85 11.1 Q6.65 11.6 5.25 12.6 3.55 13.85 2.75 13.85 0.55 13.85 -1.4 10.75 -2.6 9.45 -3.1 8.0 -3.9 5.75 -4.75 5.45 L-6.5 4.8 Q-7.45 4.45 -9.15 5.05 -10.85 5.6 -12.15 6.8 M-0.05 8.25 L-0.05 8.3 0.05 8.45 0.35 8.95 0.75 9.6 1.05 10.05 2.25 11.25 1.05 10.05 0.75 9.6 0.35 8.95 0.05 8.45 -0.05 8.3 -0.05 8.25" fill="#d6baba" fill-rule="evenodd" stroke="none"/>
      <path d="M-2.65 -14.7 L-2.1 -14.65 Q-1.35 -14.4 -1.35 -13.55 -1.05 -12.8 -1.05 -11.8 -1.05 -9.85 -2.4 -0.4 -2.55 1.45 -3.0 2.1 -3.25 2.45 -3.8 2.4 L-4.05 2.4 -3.55 -0.3 Q-3.15 -3.0 -3.15 -5.35 L-2.85 -8.65 -2.55 -12.0 -2.35 -13.4 -2.5 -14.3 -2.65 -14.7 M7.5 -9.95 L12.25 -5.35 Q12.5 -5.15 12.2 -1.95 L11.65 4.25 Q11.35 7.25 11.7 9.35 12.0 11.4 12.65 12.85 8.1 16.45 2.5 17.4 L0.65 17.2 -1.55 15.55 Q-3.3 13.9 -4.25 11.45 L-5.6 8.35 -6.2 8.05 -7.3 7.9 -7.3 7.95 -8.05 8.5 -10.6 10.15 -12.7 7.65 -12.15 6.8 Q-10.85 5.6 -9.15 5.05 -7.45 4.45 -6.5 4.8 L-4.75 5.45 Q-3.9 5.75 -3.1 8.0 -2.6 9.45 -1.4 10.75 0.55 13.85 2.75 13.85 3.55 13.85 5.25 12.6 6.65 11.6 6.85 11.1 L5.9 11.35 5.7 11.45 3.95 11.85 2.85 11.6 2.8 11.6 2.35 11.35 2.25 11.25 2.35 10.65 Q2.35 9.75 2.85 6.7 L3.35 3.65 3.55 2.4 3.7 1.15 3.85 0.3 3.45 -0.05 2.9 1.6 3.0 1.65 2.85 1.6 Q1.8 3.1 -0.05 8.25 L-0.8 6.9 -2.25 4.1 -2.35 3.7 -1.95 4.15 -1.85 4.25 1.0 -2.05 1.95 -5.5 Q2.85 -8.6 3.45 -8.6 L3.7 -8.6 6.45 -8.65 Q6.9 -8.65 7.15 -9.05 L7.5 -9.95 M-1.85 4.25 L-1.35 4.75 Q0.4 2.1 2.25 -3.05 3.95 -7.7 3.9 -8.35 L3.8 -8.5 3.7 -8.6 3.8 -8.5 3.9 -8.35 Q3.95 -7.7 2.25 -3.05 0.4 2.1 -1.35 4.75 L-1.85 4.25 M7.5 10.8 L6.85 11.1 7.5 10.8" fill="#a78383" fill-rule="evenodd" stroke="none"/>
      <path d="M-4.05 2.4 L-4.1 2.55 -4.65 2.4 -5.35 2.15 -5.6 1.25 Q-5.25 -0.1 -5.25 -1.55 L-4.95 -6.1 -4.7 -9.9 -4.35 -13.7 Q-4.25 -15.1 -3.65 -15.1 L-2.65 -14.7 M-4.05 2.4 L-3.55 -0.3 Q-3.15 -3.0 -3.15 -5.35 L-2.85 -8.65 -2.55 -12.0 -2.35 -13.4 -2.5 -14.3 -2.65 -14.7 M-12.15 6.8 Q-10.6 4.25 -8.3 2.1 -7.8 1.65 -7.7 0.95 -6.7 -4.45 -7.1 -9.85 L-7.4 -14.6 -5.8 -16.6 -2.85 -17.5 Q1.95 -17.55 4.45 -13.5 L6.05 -11.35 7.5 -9.95 12.25 -5.35 Q12.5 -5.15 12.2 -1.95 L11.65 4.25 Q11.35 7.25 11.7 9.35 12.0 11.4 12.65 12.85 8.1 16.45 2.5 17.4 L0.65 17.2 -1.55 15.55 Q-3.3 13.9 -4.25 11.45 L-5.6 8.35 -6.2 8.05 -7.3 7.9 -7.3 7.95 -8.05 8.5 -10.6 10.15 -12.7 7.65 -12.15 6.8 M6.85 11.1 L5.9 11.35 5.7 11.45 3.95 11.85 2.85 11.6 2.8 11.6 2.35 11.35 2.25 11.25 1.05 10.05 0.75 9.6 0.35 8.95 0.05 8.45 -0.05 8.3 -0.05 8.25 -0.8 6.9 -2.25 4.1 -2.35 3.7 -2.35 3.65 -2.4 3.6 -1.85 2.1 -0.9 -0.3 1.3 -9.75 Q2.45 -9.15 3.7 -8.65 L3.7 -8.6 3.8 -8.5 3.9 -8.35 Q3.95 -7.7 2.25 -3.05 0.4 2.1 -1.35 4.75 L-1.85 4.25 -1.95 4.15 -2.35 3.7 M6.85 11.1 L7.5 10.8" fill="none" stroke="#000000" stroke-linecap="round" stroke-linejoin="round" stroke-opacity="0.3019608" stroke-width="0.05"/>
    </g>
    <g id="shape1" transform="matrix(1.0, 0.0, 0.0, 1.0, 14.85, 8.0)">
      <path d="M-7.7 11.75 L-9.7 11.0 Q-12.25 10.7 -14.85 11.55 L-13.4 9.95 Q-11.9 8.45 -9.85 8.95 -7.3 9.3 -7.05 11.9 L-7.7 11.75 M-7.85 -7.6 L-7.6 -8.0 -7.05 -7.4 -7.5 -2.05 -7.7 0.35 -8.0 0.6 -8.05 0.4 -8.05 -0.7 -8.4 -1.2 -7.85 -7.6" fill="#ffffff" fill-opacity="0.8" fill-rule="evenodd" stroke="none"/>
    </g>
  </defs>
</svg>
