<?xml version="1.0" encoding="UTF-8" standalone="no"?>
<svg xmlns:xlink="http://www.w3.org/1999/xlink" height="49.6px" width="40.3px" xmlns="http://www.w3.org/2000/svg">
  <g transform="matrix(1.0, 0.0, 0.0, 1.0, 23.05, 21.1)">
    <use height="25.45" id="_col2" transform="matrix(1.0, 0.0, 0.0, 1.0, -10.95, -8.6)" width="20.2" xlink:href="#sprite0"/>
    <use height="3.4" transform="matrix(1.0, 0.0, 0.0, 1.0, -10.45, -0.3)" width="6.75" xlink:href="#shape1"/>
  </g>
  <defs>
    <g id="sprite0" transform="matrix(1.0, 0.0, 0.0, 1.0, 10.1, 12.7)">
      <use height="25.45" transform="matrix(1.0, 0.0, 0.0, 1.0, -10.1, -12.7)" width="20.2" xlink:href="#shape0"/>
    </g>
    <g id="shape0" transform="matrix(1.0, 0.0, 0.0, 1.0, 10.1, 12.7)">
      <path d="M-10.1 -0.85 L-9.95 -2.4 -9.7 -3.5 -8.95 -5.4 -7.05 -4.8 -7.2 -3.2 -7.55 -0.7 -8.0 -0.65 -10.1 -0.85 M-5.9 -1.65 L-6.0 -2.3 -5.6 -3.0 -2.35 -8.4 -0.55 -8.65 Q0.95 -9.05 2.25 -10.2 3.55 -11.35 5.35 -11.5 L4.55 -10.85 2.4 -8.95 -0.3 -6.5 -1.65 -4.95 -2.65 -3.45 -2.95 -2.65 -3.15 -1.9 -5.9 -1.65" fill="#ffffff" fill-rule="evenodd" stroke="none"/>
      <path d="M-7.55 -0.7 L-7.65 0.2 -7.85 2.85 Q-7.95 5.2 -7.6 7.5 L-7.6 8.55 -9.0 4.95 -9.95 1.15 -10.1 -0.1 -10.1 -0.85 -8.0 -0.65 -7.55 -0.7 M5.35 -11.5 L6.3 -12.25 6.4 -12.3 Q7.2 -11.75 7.25 -11.15 L4.2 -8.35 0.35 -4.9 -0.3 -4.2 -1.3 -2.8 -1.45 -2.5 -1.7 -1.35 -1.85 -0.15 -1.9 0.95 Q-2.0 4.65 -1.35 8.35 L-1.3 8.5 0.5 12.55 -0.1 12.75 -0.8 12.35 -2.2 11.15 -3.35 9.65 -4.3 8.55 -4.65 7.8 -5.45 2.95 -5.7 0.45 -5.9 -1.65 -3.15 -1.9 -2.95 -2.65 -2.65 -3.45 -1.65 -4.95 -0.3 -6.5 2.4 -8.95 4.55 -10.85 5.35 -11.5 M5.7 8.5 L5.6 6.75 5.45 5.65 5.3 2.7 5.1 -1.85 5.3 -4.75 5.45 -6.6 5.3 -4.75 5.1 -1.85 5.3 2.7 5.45 5.65 5.6 6.75 5.7 8.5 4.15 9.25 4.2 8.65 3.85 2.0 4.05 -3.35 Q4.05 -3.95 5.45 -6.6 L6.15 -7.9 8.75 -12.7 10.1 -8.8 9.85 -7.65 Q9.6 -6.55 9.6 -4.6 L8.85 1.05 8.0 6.7 Q7.95 7.3 5.7 8.5 M-2.2 11.15 L-2.7 7.85 -3.2 2.15 -3.25 0.75 -3.3 -0.35 -3.15 -1.9 -3.3 -0.35 -3.25 0.75 -3.2 2.15 -2.7 7.85 -2.2 11.15" fill="#d6baba" fill-rule="evenodd" stroke="none"/>
      <path d="M-10.1 -0.85 L-9.95 -2.4 -9.7 -3.5 -8.95 -5.4 -7.05 -4.8 -7.2 -3.2 -7.55 -0.7 -7.65 0.2 -7.85 2.85 Q-7.95 5.2 -7.6 7.5 L-7.6 8.55 -9.0 4.95 -9.95 1.15 -10.1 -0.1 -10.1 -0.85 M-5.9 -1.65 L-6.0 -2.3 -5.6 -3.0 -2.35 -8.4 -0.55 -8.65 Q0.95 -9.05 2.25 -10.2 3.55 -11.35 5.35 -11.5 L6.3 -12.25 6.4 -12.3 Q7.2 -11.75 7.25 -11.15 L4.2 -8.35 0.35 -4.9 -0.3 -4.2 -1.3 -2.8 -1.45 -2.5 -1.7 -1.35 -1.85 -0.15 -1.9 0.95 Q-2.0 4.65 -1.35 8.35 L-1.3 8.5 0.5 12.55 -0.1 12.75 -0.8 12.35 -2.2 11.15 -3.35 9.65 -4.3 8.55 -4.65 7.8 -5.45 2.95 -5.7 0.45 -5.9 -1.65 M-3.15 -1.9 L-2.95 -2.65 -2.65 -3.45 -1.65 -4.95 -0.3 -6.5 2.4 -8.95 4.55 -10.85 5.35 -11.5 M5.45 -6.6 L5.3 -4.75 5.1 -1.85 5.3 2.7 5.45 5.65 5.6 6.75 5.7 8.5 Q7.95 7.3 8.0 6.7 L8.85 1.05 9.6 -4.6 Q9.6 -6.55 9.85 -7.65 L10.1 -8.8 8.75 -12.7 6.15 -7.9 5.45 -6.6 Q4.05 -3.95 4.05 -3.35 L3.85 2.0 4.2 8.65 4.15 9.25 5.7 8.5 M-3.15 -1.9 L-3.3 -0.35 -3.25 0.75 -3.2 2.15 -2.7 7.85 -2.2 11.15" fill="none" stroke="#000000" stroke-linecap="round" stroke-linejoin="round" stroke-opacity="0.3019608" stroke-width="0.05"/>
    </g>
    <g id="shape1" transform="matrix(1.0, 0.0, 0.0, 1.0, 10.45, 0.3)">
      <path d="M-3.7 -0.05 L-4.15 0.45 -4.1 1.1 -4.45 1.6 -5.15 1.75 -5.8 1.9 Q-6.2 1.9 -6.1 1.5 L-6.0 1.25 -6.1 1.0 Q-6.1 0.3 -4.9 -0.1 L-3.7 -0.05 M-9.1 2.85 L-9.45 3.1 -10.1 2.85 -10.35 2.4 -10.45 2.15 Q-10.45 1.45 -9.75 1.65 -9.05 1.85 -9.05 2.6 L-9.1 2.85" fill="#ffffff" fill-rule="evenodd" stroke="none"/>
    </g>
  </defs>
</svg>
