<?xml version="1.0" encoding="UTF-8" standalone="no"?>
<svg xmlns:xlink="http://www.w3.org/1999/xlink" height="43.15px" width="71.75px" xmlns="http://www.w3.org/2000/svg">
  <g transform="matrix(1.0, 0.0, 0.0, 1.0, 34.85, 22.0)">
    <use height="43.15" transform="matrix(1.0, 0.0, 0.0, 1.0, -34.85, -22.0)" width="71.75" xlink:href="#shape0"/>
    <use height="67.6" transform="matrix(0.0, 1.0, -1.0, 0.0, 34.65, -17.25)" width="37.7" xlink:href="#sprite0"/>
  </g>
  <defs>
    <g id="shape0" transform="matrix(1.0, 0.0, 0.0, 1.0, 34.85, 22.0)">
      <path d="M32.65 -5.45 Q32.1 -5.2 32.1 -4.8 32.1 -3.8 31.4 -3.75 30.65 -3.65 30.65 -3.0 30.65 -1.0 35.7 -0.9 L36.25 -0.9 35.7 2.9 Q28.35 1.95 20.95 2.75 L16.9 2.9 18.0 2.6 10.0 2.55 -4.4 2.45 -7.6 2.5 -14.35 2.8 -19.95 2.6 -20.55 2.6 -29.3 3.15 -34.5 3.4 -34.75 -0.95 -31.85 -0.45 -29.0 -0.8 Q-28.5 -1.0 -28.4 -1.65 -28.3 -2.3 -28.7 -2.75 -29.5 -3.65 -29.05 -4.25 L-28.9 -4.6 -25.5 -4.9 -23.5 -5.0 -10.6 -4.7 -11.25 -3.95 -10.85 -3.15 -10.35 -2.55 -12.35 -2.65 Q-13.65 -2.6 -13.65 -1.8 -13.65 -1.25 -11.9 -1.1 L-9.8 -1.1 -7.1 -1.1 -3.65 -1.65 -2.0 -1.55 Q-1.1 -1.55 -0.6 -2.45 L1.0 -4.7 -0.2 -4.75 Q3.0 -4.6 9.75 -4.75 L30.85 -5.4 32.65 -5.45 M32.3 1.1 L33.5 1.55 Q34.7 1.55 34.6 0.4 34.5 -0.8 33.35 -0.8 L28.7 0.0 28.8 0.3 31.1 0.6 Q31.45 0.6 32.3 1.1" fill="#512115" fill-rule="evenodd" stroke="none"/>
      <path d="M36.25 -0.9 L35.7 -0.9 Q30.65 -1.0 30.65 -3.0 30.65 -3.65 31.4 -3.75 32.1 -3.8 32.1 -4.8 32.1 -5.2 32.65 -5.45 L35.3 -5.55 36.9 -5.55 36.25 -0.9 M-0.2 -4.75 L1.0 -4.7 -0.6 -2.45 Q-1.1 -1.55 -2.0 -1.55 L-3.65 -1.65 -7.1 -1.1 -9.8 -1.1 -11.9 -1.1 Q-13.65 -1.25 -13.65 -1.8 -13.65 -2.6 -12.35 -2.65 L-10.35 -2.55 -10.85 -3.15 -11.25 -3.95 -10.6 -4.7 -6.95 -4.7 -1.6 -4.85 -1.25 -4.85 -0.2 -4.75 M-28.9 -4.6 L-29.05 -4.25 Q-29.5 -3.65 -28.7 -2.75 -28.3 -2.3 -28.4 -1.65 -28.5 -1.0 -29.0 -0.8 L-31.85 -0.45 -34.75 -0.95 -34.85 -3.9 Q-34.85 -4.55 -34.3 -5.0 L-30.95 -4.5 -28.9 -4.6 M32.3 1.1 Q31.45 0.6 31.1 0.6 L28.8 0.3 28.7 0.0 33.35 -0.8 Q34.5 -0.8 34.6 0.4 34.7 1.55 33.5 1.55 L32.3 1.1" fill="#77481a" fill-rule="evenodd" stroke="none"/>
      <path d="M32.65 -5.45 L30.85 -5.4 9.75 -4.75 Q3.0 -4.6 -0.2 -4.75 M-10.6 -4.7 L-23.5 -5.0 -25.5 -4.9 -28.9 -4.6 M-34.75 -0.95 L-34.5 3.4 -29.3 3.15 -20.55 2.6 -19.95 2.6 -14.35 2.8 -7.6 2.5 -4.4 2.45 10.0 2.55 18.0 2.6 16.9 2.9 20.95 2.75 Q28.35 1.95 35.7 2.9 L36.25 -0.9 36.9 -5.55 M35.3 -5.55 L32.65 -5.45 M35.3 -5.55 L35.4 -5.75 35.5 -5.6 36.9 -5.55 M35.3 -5.55 L35.5 -5.6 M-34.75 -0.95 L-34.85 -3.9 Q-34.85 -4.55 -34.3 -5.0 L-30.95 -4.5 -28.9 -4.6 M-10.6 -4.7 L-6.95 -4.7 -1.6 -4.85 -1.25 -4.85 -0.2 -4.75" fill="none" stroke="#000000" stroke-linecap="round" stroke-linejoin="round" stroke-opacity="0.4" stroke-width="0.05"/>
      <path d="M-24.15 -5.45 L-24.15 -5.5 Q-23.8 -6.9 -22.2 -6.9 L-21.55 -6.65 -20.5 -6.05 -20.5 -6.0 Q-21.3 -6.15 -21.85 -4.8 L-22.25 -3.0 -21.85 -4.8 Q-21.3 -6.15 -20.5 -6.0 L-20.5 -6.05 -20.05 -7.7 Q-19.55 -7.85 -18.55 -7.2 L-17.15 -6.15 -17.1 -6.65 -15.8 -6.65 -15.15 -5.5 -14.65 -6.4 Q-14.1 -6.9 -13.25 -6.9 L-12.45 -6.7 -11.35 -6.15 Q-11.0 -6.5 -10.2 -6.45 L-8.15 -6.15 -7.3 -0.9 -7.2 -0.3 Q-7.95 -1.95 -9.1 -1.95 L-9.8 -1.8 Q-10.5 -1.4 -10.5 -0.2 L-10.45 0.7 -10.6 0.25 -11.3 -2.45 -11.7 -5.25 Q-11.7 -5.85 -11.35 -6.15 -11.7 -5.85 -11.7 -5.25 L-11.3 -2.45 Q-11.9 -2.85 -12.6 -2.85 -13.85 -2.6 -14.1 -1.4 L-14.15 -1.5 -14.4 -2.2 -14.85 -3.5 -15.0 -4.1 -15.15 -4.8 -15.4 -4.85 Q-16.05 -4.85 -17.0 -3.85 L-17.55 -3.15 -17.65 -2.5 -17.7 -2.1 Q-18.6 -3.0 -20.05 -3.9 L-20.7 -3.85 -20.9 -3.65 -20.65 -5.4 -20.5 -6.0 -20.65 -5.4 -20.9 -3.65 -20.95 -3.4 -21.0 -2.65 -20.8 -1.65 -20.95 -2.25 Q-21.95 -2.15 -22.05 -0.65 L-22.3 -2.4 -22.25 -3.0 -23.45 -3.75 -24.1 -3.6 -24.3 -3.35 -24.15 -5.45 -24.3 -3.35 -24.3 -3.3 -24.3 -2.6 Q-25.1 -3.45 -26.15 -3.45 L-26.95 -3.25 -27.05 -3.2 -27.1 -5.5 Q-27.1 -7.55 -26.15 -7.55 -25.6 -7.55 -25.05 -7.0 -24.35 -6.35 -24.15 -5.45 M-10.85 4.9 L-11.05 4.9 -11.6 4.25 -10.85 4.9 M-17.45 4.35 L-17.65 4.1 -17.8 3.85 Q-18.2 3.05 -18.2 2.3 L-18.15 1.85 Q-18.0 3.45 -17.45 4.35 M-20.2 4.1 L-20.75 3.35 -20.55 3.65 -20.2 4.1 M-17.15 -6.15 L-17.55 -3.15 -17.15 -6.15 M-15.15 -5.5 L-15.2 -5.15 -15.15 -4.8 -15.2 -5.15 -15.15 -5.5 M-15.05 -2.2 L-15.05 -2.1 -15.15 -1.6 -15.05 -2.2" fill="#d7c08e" fill-rule="evenodd" stroke="none"/>
      <path d="M-7.2 -0.3 L-7.15 -0.25 -6.9 1.3 -7.2 -0.3" fill="#c4986f" fill-rule="evenodd" stroke="none"/>
      <path d="M-24.3 -3.35 L-24.1 -3.6 -23.45 -3.75 -22.25 -3.0 -22.3 -2.4 -22.05 -0.65 Q-21.95 -2.15 -20.95 -2.25 L-20.8 -1.65 -21.0 -2.65 -20.95 -3.4 -20.9 -3.65 -20.7 -3.85 -20.05 -3.9 Q-18.6 -3.0 -17.7 -2.1 L-17.65 -2.5 -17.55 -3.15 -17.0 -3.85 Q-16.05 -4.85 -15.4 -4.85 L-15.15 -4.8 -15.0 -4.1 -14.85 -3.5 -14.4 -2.2 -14.15 -1.5 -14.1 -1.4 Q-13.85 -2.6 -12.6 -2.85 -11.9 -2.85 -11.3 -2.45 L-10.6 0.25 -10.45 0.7 -10.5 -0.2 Q-10.5 -1.4 -9.8 -1.8 L-9.1 -1.95 Q-7.95 -1.95 -7.2 -0.3 L-6.9 1.3 -6.5 3.65 Q-6.5 4.0 -7.05 4.5 L-7.8 4.9 Q-8.6 4.9 -9.35 3.55 L-10.25 4.75 -10.85 4.9 -11.6 4.25 -11.9 3.7 -14.45 4.7 Q-15.15 4.7 -15.45 3.95 L-16.7 4.7 Q-17.15 4.7 -17.45 4.35 -18.0 3.45 -18.15 1.85 L-18.2 2.3 Q-18.2 3.05 -17.8 3.85 L-17.65 4.1 -17.65 4.5 -18.55 3.35 -19.85 4.25 -20.2 4.1 -20.55 3.65 -20.75 3.35 -20.95 2.95 -21.0 2.95 -21.2 4.0 Q-21.35 4.5 -21.8 4.5 -22.5 4.5 -23.05 3.7 L-23.6 4.5 -24.7 4.7 Q-25.8 4.6 -26.45 1.85 -26.95 -0.15 -27.05 -3.2 L-26.95 -3.25 -26.15 -3.45 Q-25.1 -3.45 -24.3 -2.6 L-24.3 -3.3 -24.3 -3.35 M-18.55 3.35 L-19.6 1.35 -19.65 1.2 -19.85 0.8 -20.8 -1.65 -19.85 0.8 -19.65 1.2 -19.6 1.35 -18.55 3.35 M-20.95 2.95 L-21.55 1.4 -22.05 -0.65 -21.55 1.4 -20.95 2.95 M-15.15 -1.6 L-15.05 -2.1 -15.05 -2.2 -15.15 -1.6 -15.15 -1.45 -15.2 -1.3 -15.6 1.7 -15.6 3.35 -15.45 3.95 -15.6 3.35 -15.6 1.7 -15.2 -1.3 -15.15 -1.45 -15.15 -1.6 M-10.45 0.7 L-10.2 1.5 -9.35 3.55 -10.2 1.5 -10.45 0.7 M-14.85 -3.5 L-15.05 -2.2 -14.85 -3.5 M-11.9 3.7 L-13.35 0.5 -14.1 -1.4 -13.35 0.5 -11.9 3.7 M-17.7 -2.1 L-18.15 1.85 -17.7 -2.1 M-24.3 -1.65 L-24.0 1.05 -23.75 1.95 -23.75 2.05 -23.55 2.7 -23.05 3.7 -23.55 2.7 -23.75 2.05 -23.75 1.95 -24.0 1.05 -24.3 -1.65" fill="#b78451" fill-rule="evenodd" stroke="none"/>
      <path d="M-20.5 -6.05 L-21.55 -6.65 -22.2 -6.9 Q-23.8 -6.9 -24.15 -5.5 L-24.15 -5.45 -24.3 -3.35 M-22.25 -3.0 L-21.85 -4.8 Q-21.3 -6.15 -20.5 -6.0 L-20.5 -6.05 -20.05 -7.7 Q-19.55 -7.85 -18.55 -7.2 L-17.15 -6.15 -17.1 -6.65 -15.8 -6.65 -15.15 -5.5 -14.65 -6.4 Q-14.1 -6.9 -13.25 -6.9 L-12.45 -6.7 -11.35 -6.15 Q-11.0 -6.5 -10.2 -6.45 L-8.15 -6.15 -7.3 -0.9 -7.2 -0.3 -6.9 1.3 -6.5 3.65 Q-6.5 4.0 -7.05 4.5 L-7.8 4.9 Q-8.6 4.9 -9.35 3.55 L-10.25 4.75 -10.85 4.9 -11.05 4.9 -11.6 4.25 -11.9 3.7 -14.45 4.7 Q-15.15 4.7 -15.45 3.95 L-16.7 4.7 Q-17.15 4.7 -17.45 4.35 L-17.65 4.1 -17.65 4.5 -18.55 3.35 -19.85 4.25 -20.2 4.1 -20.75 3.35 -20.95 2.95 -21.0 2.95 -21.2 4.0 Q-21.35 4.5 -21.8 4.5 -22.5 4.5 -23.05 3.7 L-23.6 4.5 -24.7 4.7 Q-25.8 4.6 -26.45 1.85 -26.95 -0.15 -27.05 -3.2 L-27.1 -5.5 Q-27.1 -7.55 -26.15 -7.55 -25.6 -7.55 -25.05 -7.0 -24.35 -6.35 -24.15 -5.45 M-24.3 -3.3 L-24.3 -3.35 M-20.5 -6.0 L-20.65 -5.4 -20.9 -3.65 M-17.7 -2.1 L-17.65 -2.5 -17.55 -3.15 -17.15 -6.15 M-20.95 -3.4 L-21.0 -2.65 -20.8 -1.65 -19.85 0.8 -19.65 1.2 -19.6 1.35 -18.55 3.35 M-22.05 -0.65 L-22.3 -2.4 -22.25 -3.0 M-22.05 -0.65 L-21.55 1.4 -20.95 2.95 M-15.15 -4.8 L-15.2 -5.15 -15.15 -5.5 M-11.3 -2.45 L-11.7 -5.25 Q-11.7 -5.85 -11.35 -6.15 M-15.15 -4.8 L-15.0 -4.1 -14.85 -3.5 -14.4 -2.2 M-14.15 -1.5 L-14.1 -1.4 -13.35 0.5 -11.9 3.7 M-11.3 -2.45 L-10.6 0.25 -10.45 0.7 M-15.05 -2.2 L-15.15 -1.6 -15.15 -1.45 -15.2 -1.3 -15.6 1.7 -15.6 3.35 -15.45 3.95 M-15.05 -2.2 L-14.85 -3.5 M-9.35 3.55 L-10.2 1.5 -10.45 0.7 M-17.65 4.1 L-17.8 3.85 Q-18.2 3.05 -18.2 2.3 L-18.15 1.85 -17.7 -2.1 M-23.05 3.7 L-23.55 2.7 -23.75 2.05 -23.75 1.95 -24.0 1.05 -24.3 -1.65" fill="none" stroke="#000000" stroke-linecap="round" stroke-linejoin="round" stroke-opacity="0.4" stroke-width="0.05"/>
      <path d="M11.15 -19.7 L10.95 -20.0 11.0 -20.0 11.15 -19.85 11.15 -19.7 M9.45 -16.45 L10.4 -14.4 Q9.75 -14.0 9.75 -13.55 L10.45 -12.35 11.15 -11.4 Q11.15 -10.25 11.9 -8.45 L12.6 -6.6 12.75 -5.05 Q12.35 -4.8 12.35 -4.25 L12.35 -4.2 Q12.35 -3.85 12.7 -3.05 L13.1 -2.25 12.25 -2.35 Q11.6 -2.25 11.6 -1.25 11.6 -0.55 12.6 1.9 L14.0 5.15 13.5 5.25 Q13.05 5.5 13.05 6.2 13.05 7.6 14.3 10.2 15.7 13.15 16.95 12.9 17.05 12.85 17.5 13.15 L16.6 14.2 15.25 15.4 Q14.85 15.95 14.85 17.3 L14.8 18.1 14.85 17.3 Q14.85 15.95 15.25 15.4 L16.6 14.2 17.5 13.15 18.65 13.9 21.35 15.6 25.95 18.15 26.6 18.55 21.3 18.05 Q20.7 18.05 19.7 18.5 L18.6 18.95 17.45 18.5 15.45 18.05 14.8 18.1 13.65 18.4 12.1 18.75 11.4 18.4 Q10.9 18.0 10.7 18.0 10.3 18.0 9.45 18.5 L9.05 18.1 8.7 17.6 Q9.65 16.3 9.65 15.35 L9.8 14.5 9.2 11.3 8.75 10.1 Q8.4 9.25 8.4 7.95 8.4 7.45 8.8 7.1 9.15 6.75 9.15 5.9 9.15 0.45 8.95 -0.25 L8.7 -1.05 Q8.7 -2.65 9.15 -5.7 9.25 -6.3 9.85 -7.2 10.35 -8.0 10.35 -9.0 L9.9 -11.25 9.45 -12.45 9.45 -16.2 9.45 -16.45 M22.65 -20.2 L22.9 -20.15 23.4 -20.25 24.05 -19.4 27.15 -16.4 30.95 -13.9 32.05 -13.1 32.1 -12.9 32.1 -12.6 30.05 -12.85 Q29.25 -12.95 28.5 -14.0 27.4 -15.6 25.2 -16.65 23.9 -17.35 23.15 -19.05 L22.65 -20.2 M28.6 20.7 L28.4 20.6 28.6 20.6 28.6 20.7 M22.9 20.35 L22.7 20.35 22.7 20.3 22.9 20.35 M20.55 20.5 L20.35 20.55 20.55 20.4 20.55 20.5 M17.8 20.7 L17.05 20.75 17.1 20.75 17.8 20.7 M10.85 20.9 L10.1 20.85 9.3 20.7 9.35 20.7 10.85 20.9 M13.85 -16.2 L14.0 -16.1 13.95 -16.05 13.85 -16.2 M15.6 -13.7 L15.8 -13.65 15.7 -13.55 15.6 -13.7 M27.6 12.9 L27.75 12.9 27.7 13.1 27.6 12.9 M11.1 -16.8 L11.25 -16.65 13.2 -14.1 Q12.3 -14.05 11.8 -15.05 L11.1 -16.8 M16.1 -17.4 L16.2 -17.4 16.15 -17.35 16.1 -17.4 M20.45 -5.7 L20.4 -5.75 20.45 -5.75 20.45 -5.7 M20.55 11.85 L21.0 12.75 20.0 12.3 20.55 11.85 M18.9 12.05 L18.6 12.15 18.6 11.85 18.9 12.05" fill="#9ea4ad" fill-rule="evenodd" stroke="none"/>
      <path d="M14.9 -19.25 Q14.4 -19.25 14.4 -18.75 14.4 -18.3 15.0 -17.7 L15.75 -17.15 Q16.8 -17.15 16.1 -18.2 15.4 -19.25 14.9 -19.25 M11.15 -19.7 L11.15 -19.85 11.0 -20.0 10.95 -20.0 8.7 -20.0 8.55 -19.85 Q9.4 -18.1 9.45 -16.45 L9.45 -16.2 9.45 -12.45 9.9 -11.25 10.35 -9.0 Q10.35 -8.0 9.85 -7.2 9.25 -6.3 9.15 -5.7 8.7 -2.65 8.7 -1.05 L8.95 -0.25 Q9.15 0.45 9.15 5.9 9.15 6.75 8.8 7.1 8.4 7.45 8.4 7.95 8.4 9.25 8.75 10.1 L9.2 11.3 9.8 14.5 9.65 15.35 Q9.65 16.3 8.7 17.6 L9.05 18.1 9.45 18.5 Q10.3 18.0 10.7 18.0 10.9 18.0 11.4 18.4 L12.1 18.75 13.65 18.4 14.8 18.1 15.45 18.05 17.45 18.5 18.6 18.95 19.7 18.5 Q20.7 18.05 21.3 18.05 L26.6 18.55 26.65 18.6 26.9 18.6 27.0 18.6 29.45 18.1 Q28.7 16.85 28.95 15.9 L28.0 15.85 Q27.05 15.65 27.05 14.75 L27.3 14.0 27.7 13.1 27.75 12.9 27.6 12.9 25.65 12.55 Q24.5 12.15 24.25 10.1 24.75 11.1 25.2 11.1 27.15 11.1 25.65 8.3 L25.0 7.2 25.35 7.35 Q27.1 7.35 23.65 3.9 L23.75 3.9 Q24.55 3.9 24.45 3.4 L24.2 2.6 24.2 2.35 24.9 2.85 Q25.5 2.75 25.5 2.15 L25.7 0.6 24.15 -1.55 22.75 -4.15 Q22.0 -5.7 21.45 -5.7 L21.3 -5.65 Q20.25 -7.25 19.1 -7.25 18.2 -7.35 17.95 -6.7 18.0 -7.05 18.2 -7.25 L18.65 -7.65 16.65 -9.4 15.95 -10.25 Q15.9 -9.95 15.35 -9.95 L14.45 -10.05 Q13.85 -10.35 13.85 -11.3 13.85 -12.55 14.45 -12.3 L15.45 -11.25 Q15.2 -11.95 15.2 -12.75 L15.2 -12.8 15.3 -13.0 15.7 -13.5 15.7 -13.55 15.8 -13.65 15.6 -13.7 14.4 -14.05 Q13.4 -14.45 13.4 -15.2 L13.65 -15.7 13.95 -16.05 14.0 -16.1 13.85 -16.2 12.45 -17.35 Q11.2 -18.5 11.15 -19.7 M12.35 -4.25 L12.45 -4.5 12.45 -4.6 12.7 -4.65 Q13.85 -4.65 14.15 -2.4 L14.3 1.15 Q14.3 2.15 14.1 2.4 L13.8 2.45 Q12.15 0.65 12.15 -1.15 12.15 -1.95 12.65 -1.95 L13.35 -1.95 Q12.4 -3.7 12.35 -4.2 L12.35 -4.25 M9.3 20.7 Q7.25 20.2 7.25 18.45 L7.95 12.75 7.2 -1.25 7.7 -11.7 Q8.0 -19.75 7.25 -22.0 L10.65 -21.85 12.95 -21.8 13.85 -21.75 15.3 -21.7 21.0 -21.55 21.7 -20.9 22.65 -20.2 23.15 -19.05 Q23.9 -17.35 25.2 -16.65 27.4 -15.6 28.5 -14.0 29.25 -12.95 30.05 -12.85 L32.1 -12.6 32.45 -7.55 31.2 -2.6 Q31.2 1.4 32.05 5.6 32.85 9.85 32.85 14.95 L32.85 19.4 Q32.65 20.65 31.8 21.05 L31.75 21.05 31.6 21.1 31.55 21.1 31.5 21.15 31.4 21.15 31.3 21.15 31.1 21.15 31.05 21.15 30.95 21.15 28.6 20.7 28.6 20.6 28.4 20.6 28.15 20.5 26.85 20.25 26.75 20.25 26.55 20.2 26.4 20.2 26.25 20.2 25.9 20.2 22.9 20.35 22.7 20.3 22.7 20.35 20.55 20.5 20.55 20.4 20.35 20.55 17.8 20.7 17.1 20.75 17.05 20.75 15.0 20.8 14.75 20.85 12.75 20.9 12.25 20.9 10.85 20.9 9.35 20.7 9.3 20.7 M23.4 -20.25 L23.55 -20.5 24.1 -21.2 24.35 -21.45 26.3 -21.4 28.2 -21.7 30.1 -22.0 Q31.0 -22.0 31.5 -20.2 L31.65 -19.25 31.55 -18.85 31.65 -17.85 32.1 -12.9 32.05 -13.1 30.95 -13.9 27.15 -16.4 24.05 -19.4 23.4 -20.25 M14.75 20.85 L14.15 19.55 14.2 19.45 14.8 18.1 14.2 19.45 14.15 19.55 14.75 20.85 M20.0 -12.8 Q20.2 -14.1 19.05 -14.1 17.9 -14.1 17.9 -12.5 17.9 -12.2 18.35 -11.85 L19.0 -11.55 Q19.85 -11.55 20.0 -12.8 M17.8 -9.95 Q18.65 -9.95 18.25 -10.9 17.85 -11.85 17.3 -11.85 16.7 -11.9 16.7 -11.1 16.7 -10.55 17.1 -10.2 L17.8 -9.95 M15.95 -7.15 L16.5 -7.35 Q17.55 -7.35 17.5 -6.3 17.45 -5.25 16.5 -5.25 16.25 -5.25 15.9 -5.5 15.5 -5.85 15.5 -6.35 15.5 -6.9 15.95 -7.15 M19.35 -3.55 L19.8 -2.8 21.15 -1.35 21.85 -1.45 22.5 -0.25 23.15 0.9 Q22.5 0.75 22.5 1.7 22.5 2.5 22.95 3.2 L23.45 3.8 23.55 3.8 Q22.95 3.8 22.95 4.7 L23.35 5.5 23.05 5.45 22.65 5.55 Q22.25 5.75 22.25 6.25 L22.9 7.25 23.55 8.2 22.65 7.3 Q21.15 5.7 21.15 4.7 21.15 4.25 21.5 3.6 L21.8 2.5 Q21.8 0.65 19.85 -2.65 L19.35 -3.55 M22.35 -7.35 Q21.45 -7.35 21.45 -6.75 21.45 -6.35 21.75 -5.9 L22.35 -5.4 Q24.65 -7.35 22.35 -7.35 M22.05 10.05 Q22.05 9.55 22.5 9.15 22.85 8.85 23.1 8.85 23.85 8.85 23.7 9.85 23.6 10.8 23.05 10.8 L22.5 10.5 22.05 10.05 M18.3 1.2 L17.75 0.2 Q17.75 -0.4 18.35 -0.3 19.05 -0.3 19.45 0.85 19.9 1.95 19.0 1.95 L18.3 1.2 M19.05 5.75 Q20.05 5.75 20.1 6.8 20.1 7.85 19.05 7.85 L18.35 7.55 Q18.0 7.25 18.0 6.8 18.0 6.1 18.55 5.85 L19.05 5.75 M12.25 20.9 Q13.45 20.45 14.15 19.55 13.45 20.45 12.25 20.9" fill="#bec2c9" fill-rule="evenodd" stroke="none"/>
      <path d="M14.9 -19.25 Q15.4 -19.25 16.1 -18.2 16.8 -17.15 15.75 -17.15 L15.0 -17.7 Q14.4 -18.3 14.4 -18.75 14.4 -19.25 14.9 -19.25 M10.95 -20.0 L11.15 -19.7 Q11.2 -18.5 12.45 -17.35 L13.85 -16.2 13.95 -16.05 13.65 -15.7 13.4 -15.2 Q13.4 -14.45 14.4 -14.05 L15.6 -13.7 15.7 -13.55 15.7 -13.5 15.3 -13.0 15.2 -12.8 15.2 -12.75 Q15.2 -11.95 15.45 -11.25 L14.45 -12.3 Q13.85 -12.55 13.85 -11.3 13.85 -10.35 14.45 -10.05 L15.35 -9.95 Q15.9 -9.95 15.95 -10.25 L16.65 -9.4 18.65 -7.65 18.2 -7.25 Q18.0 -7.05 17.95 -6.7 18.2 -7.35 19.1 -7.25 20.25 -7.25 21.3 -5.65 L21.45 -5.7 Q22.0 -5.7 22.75 -4.15 L24.15 -1.55 25.7 0.6 25.5 2.15 Q25.5 2.75 24.9 2.85 L24.2 2.35 24.2 2.6 24.45 3.4 Q24.55 3.9 23.75 3.9 L23.65 3.9 Q27.1 7.35 25.35 7.35 L25.0 7.2 25.65 8.3 Q27.15 11.1 25.2 11.1 24.75 11.1 24.25 10.1 24.5 12.15 25.65 12.55 L27.6 12.9 27.7 13.1 27.3 14.0 27.05 14.75 Q27.05 15.65 28.0 15.85 L28.95 15.9 Q28.7 16.85 29.45 18.1 L27.0 18.6 26.9 18.6 26.65 18.6 26.6 18.55 25.95 18.15 21.35 15.6 18.65 13.9 17.5 13.15 Q17.05 12.85 16.95 12.9 15.7 13.15 14.3 10.2 13.05 7.6 13.05 6.2 13.05 5.5 13.5 5.25 L14.0 5.15 12.6 1.9 Q11.6 -0.55 11.6 -1.25 11.6 -2.25 12.25 -2.35 L13.1 -2.25 12.7 -3.05 Q12.35 -3.85 12.35 -4.2 12.4 -3.7 13.35 -1.95 L12.65 -1.95 Q12.15 -1.95 12.15 -1.15 12.15 0.65 13.8 2.45 L14.1 2.4 Q14.3 2.15 14.3 1.15 L14.15 -2.4 Q13.85 -4.65 12.7 -4.65 L12.45 -4.6 12.45 -4.5 12.35 -4.25 Q12.35 -4.8 12.75 -5.05 L12.6 -6.6 11.9 -8.45 Q11.15 -10.25 11.15 -11.4 L10.45 -12.35 9.75 -13.55 Q9.75 -14.0 10.4 -14.4 L9.45 -16.45 Q9.4 -18.1 8.55 -19.85 L8.7 -20.0 10.95 -20.0 M17.35 11.0 L17.5 11.55 17.65 12.5 17.5 13.15 17.65 12.5 17.5 11.55 17.35 11.0 M11.1 -16.8 L11.8 -15.05 Q12.3 -14.05 13.2 -14.1 L11.25 -16.65 11.1 -16.8 M16.1 -17.4 L16.15 -17.35 16.2 -17.4 16.1 -17.4 M20.0 -12.8 Q19.85 -11.55 19.0 -11.55 L18.35 -11.85 Q17.9 -12.2 17.9 -12.5 17.9 -14.1 19.05 -14.1 20.2 -14.1 20.0 -12.8 M17.8 -9.95 L17.1 -10.2 Q16.7 -10.55 16.7 -11.1 16.7 -11.9 17.3 -11.85 17.85 -11.85 18.25 -10.9 18.65 -9.95 17.8 -9.95 M15.95 -7.15 Q15.5 -6.9 15.5 -6.35 15.5 -5.85 15.9 -5.5 16.25 -5.25 16.5 -5.25 17.45 -5.25 17.5 -6.3 17.55 -7.35 16.5 -7.35 L15.95 -7.15 M19.35 -3.55 L19.85 -2.65 Q21.8 0.65 21.8 2.5 L21.5 3.6 Q21.15 4.25 21.15 4.7 21.15 5.7 22.65 7.3 L23.55 8.2 22.9 7.25 22.25 6.25 Q22.25 5.75 22.65 5.55 L23.05 5.45 23.35 5.5 22.95 4.7 Q22.95 3.8 23.55 3.8 L23.45 3.8 22.95 3.2 Q22.5 2.5 22.5 1.7 22.5 0.75 23.15 0.9 L22.5 -0.25 21.85 -1.45 21.15 -1.35 19.8 -2.8 19.35 -3.55 M22.35 -7.35 Q24.65 -7.35 22.35 -5.4 L21.75 -5.9 Q21.45 -6.35 21.45 -6.75 21.45 -7.35 22.35 -7.35 M20.45 -5.7 L20.45 -5.75 20.4 -5.75 20.45 -5.7 M22.05 10.05 L22.5 10.5 23.05 10.8 Q23.6 10.8 23.7 9.85 23.85 8.85 23.1 8.85 22.85 8.85 22.5 9.15 22.05 9.55 22.05 10.05 M20.55 11.85 L20.0 12.3 21.0 12.75 20.55 11.85 M19.05 5.75 L18.55 5.85 Q18.0 6.1 18.0 6.8 18.0 7.25 18.35 7.55 L19.05 7.85 Q20.1 7.85 20.1 6.8 20.05 5.75 19.05 5.75 M18.3 1.2 L19.0 1.95 Q19.9 1.95 19.45 0.85 19.05 -0.3 18.35 -0.3 17.75 -0.4 17.75 0.2 L18.3 1.2 M18.9 12.05 L18.6 11.85 18.6 12.15 18.9 12.05" fill="#acb1b9" fill-rule="evenodd" stroke="none"/>
      <path d="M17.5 13.15 L17.65 12.5 17.5 11.55 17.35 11.0 M9.3 20.7 Q7.25 20.2 7.25 18.45 L7.95 12.75 7.2 -1.25 7.7 -11.7 Q8.0 -19.75 7.25 -22.0 L10.65 -21.85 12.95 -21.8 13.85 -21.75 15.3 -21.7 21.0 -21.55 21.7 -20.9 22.65 -20.2 22.9 -20.15 23.4 -20.25 23.55 -20.5 24.1 -21.2 24.35 -21.45 26.3 -21.4 28.2 -21.7 30.1 -22.0 Q31.0 -22.0 31.5 -20.2 L31.65 -19.25 31.65 -17.85 32.1 -12.9 32.1 -12.6 32.45 -7.55 31.2 -2.6 Q31.2 1.4 32.05 5.6 32.85 9.85 32.85 14.95 L32.85 19.4 Q32.65 20.65 31.8 21.05 L31.75 21.05 31.6 21.1 31.55 21.1 31.5 21.15 31.4 21.15 31.3 21.15 31.1 21.15 31.05 21.15 30.95 21.15 28.6 20.7 28.4 20.6 M28.15 20.5 L26.85 20.25 26.75 20.25 26.55 20.2 26.4 20.2 26.25 20.2 25.9 20.2 22.9 20.35 22.7 20.35 20.55 20.5 20.35 20.55 17.8 20.7 17.05 20.75 15.0 20.8 14.75 20.85 12.75 20.9 12.25 20.9 10.85 20.9 10.1 20.85 9.3 20.7 M14.8 18.1 L14.2 19.45 14.15 19.55 14.75 20.85 M14.8 18.1 L14.85 17.3 Q14.85 15.95 15.25 15.4 L16.6 14.2 17.5 13.15 M31.65 -19.25 L31.55 -18.85 31.65 -17.85 M32.1 -12.6 L30.05 -12.85 Q29.25 -12.95 28.5 -14.0 27.4 -15.6 25.2 -16.65 23.9 -17.35 23.15 -19.05 L22.65 -20.2 M14.15 19.55 Q13.45 20.45 12.25 20.9" fill="none" stroke="#000000" stroke-linecap="round" stroke-linejoin="round" stroke-opacity="0.4" stroke-width="0.05"/>
    </g>
    <g id="sprite0" transform="matrix(1.0, 0.0, 0.0, 1.0, -41.35, 35.25)">
      <use height="67.6" transform="matrix(1.0, 0.0, 0.0, 1.0, 41.35, -35.25)" width="37.7" xlink:href="#shape1"/>
    </g>
    <g id="shape1" transform="matrix(1.0, 0.0, 0.0, 1.0, -41.35, 35.25)">
      <path d="M77.35 -9.8 L77.6 -10.95 Q77.6 -14.6 77.1 -18.4 L76.55 -22.1 76.9 -25.85 77.25 -29.9 Q77.25 -31.75 77.95 -32.25 78.3 -31.8 78.7 -29.85 L78.7 -29.45 Q78.25 -28.65 78.5 -27.0 78.15 -25.15 78.15 -22.25 78.15 -20.3 78.6 -18.2 L79.05 -15.4 78.5 -10.4 78.4 -8.8 77.3 -8.55 77.25 -8.7 77.2 -8.8 77.35 -9.8 M60.65 -2.65 L60.35 1.25 59.85 1.5 59.4 0.35 59.25 -0.9 59.1 -3.35 Q59.2 -5.55 60.15 -5.95 L60.65 -2.65 M61.05 8.15 L60.4 8.05 60.3 7.6 Q60.3 7.2 60.75 6.95 L62.3 6.75 62.4 7.35 Q62.4 8.15 61.05 8.15 M62.6 10.3 L62.1 11.2 61.35 11.55 Q60.7 11.55 60.55 11.2 L60.5 10.85 Q60.5 9.65 61.55 9.5 62.6 9.35 62.6 10.3 M60.9 12.5 Q60.95 12.45 61.25 12.35 L61.65 12.75 61.85 13.2 61.55 13.65 Q60.8 13.15 60.8 12.9 L60.9 12.5 M61.8 16.15 L60.75 16.4 59.65 16.3 58.8 16.05 58.75 15.75 Q58.75 15.3 59.8 15.15 61.05 14.95 62.3 15.6 L61.8 16.15 M61.05 22.2 L60.45 22.6 60.0 22.5 Q59.85 22.7 59.85 22.2 59.85 21.65 60.9 21.9 L61.05 22.2 M61.6 18.65 L61.65 19.0 Q61.65 19.45 60.65 19.85 L60.15 19.6 60.1 19.35 60.65 18.9 61.5 18.6 61.6 18.65 M62.05 23.8 Q62.05 24.35 61.5 24.75 60.95 25.15 60.15 25.15 L59.45 25.05 Q59.35 25.1 59.35 24.6 59.35 24.4 60.35 23.85 61.35 23.25 61.9 23.3 L62.0 23.4 62.05 23.8 M60.3 2.95 L60.65 3.75 60.45 4.6 60.1 4.65 59.85 3.75 Q59.85 3.1 60.3 2.95 M59.9 29.85 L59.9 28.5 Q60.0 27.35 60.65 27.05 61.0 28.0 61.15 29.4 L61.4 32.1 Q61.55 32.35 61.05 32.35 60.4 32.35 60.1 31.15 L59.9 29.85" fill="#ffd633" fill-rule="evenodd" stroke="none"/>
      <path d="M77.35 -9.8 L77.2 -8.8 77.25 -8.7 77.0 -8.7 73.85 -8.6 72.25 -8.75 70.9 -8.85 62.95 -8.7 62.35 -8.85 61.2 -8.6 53.25 -8.4 49.45 -8.65 48.3 -8.95 47.8 -8.85 46.1 -8.75 42.2 -9.05 41.35 -9.0 41.35 -9.1 Q49.1 -11.2 49.85 -10.6 51.6 -9.15 58.0 -9.15 L60.2 -9.5 61.95 -9.9 63.5 -9.55 Q64.2 -9.2 64.9 -9.2 L67.6 -9.65 75.45 -10.1 77.35 -9.8 M59.95 -33.15 L59.65 -33.05 Q59.2 -33.05 59.1 -33.6 L59.1 -34.2 Q59.1 -35.15 59.75 -35.25 60.4 -35.3 60.4 -34.65 L59.95 -33.15" fill="#ffd633" fill-opacity="0.4" fill-rule="evenodd" stroke="none"/>
    </g>
  </defs>
</svg>
