<?xml version="1.0" encoding="UTF-8" standalone="no"?>
<svg xmlns:xlink="http://www.w3.org/1999/xlink" height="38.9px" width="18.7px" xmlns="http://www.w3.org/2000/svg">
  <g transform="matrix(1.0, 0.0, 0.0, 1.0, 0.0, 0.0)">
    <use height="19.55" id="_col2b" transform="matrix(1.0, 0.0, 0.0, 1.0, 0.0, 19.35)" width="13.0" xlink:href="#sprite0"/>
    <use height="10.55" transform="matrix(1.0, 0.0, 0.0, 1.0, 5.45, 21.7)" width="6.55" xlink:href="#shape1"/>
  </g>
  <defs>
    <g id="sprite0" transform="matrix(1.0, 0.0, 0.0, 1.0, 6.5, 9.8)">
      <use height="19.55" transform="matrix(1.0, 0.0, 0.0, 1.0, -6.5, -9.8)" width="13.0" xlink:href="#shape0"/>
    </g>
    <g id="shape0" transform="matrix(1.0, 0.0, 0.0, 1.0, 6.5, 9.8)">
      <path d="M6.05 7.5 L5.35 7.75 4.15 8.4 3.5 8.9 3.55 8.6 2.85 7.35 Q2.4 8.1 2.25 9.65 L1.0 9.75 0.1 9.7 0.3 4.25 2.6 2.45 3.4 1.75 3.25 0.95 2.5 -1.55 0.7 -5.55 0.55 -5.75 0.55 -5.8 Q-1.45 -1.55 -2.45 1.95 -3.5 5.4 -2.95 6.3 L-2.75 6.7 -3.9 8.2 -3.95 8.25 -6.05 6.3 -5.8 6.5 -5.05 4.35 -4.4 2.0 -4.35 1.85 -3.9 0.3 -3.85 0.2 -3.15 -2.1 -2.8 -3.15 -2.75 -3.2 -2.75 -3.3 -2.15 -5.05 -1.05 -8.5 -0.65 -9.7 0.05 -9.75 2.05 -9.7 2.0 -9.6 2.3 -9.2 2.55 -7.8 2.6 -7.5 2.85 -6.7 2.9 -6.65 3.15 -5.55 3.2 -5.4 3.2 -5.3 2.85 -6.7 3.2 -5.3 4.7 1.95 4.8 2.95 4.75 2.9 4.8 3.05 6.05 7.5 M2.55 -9.6 L2.75 -9.55 2.8 -9.45 2.55 -9.6 M2.85 7.35 L2.9 7.25 3.55 5.95 3.75 5.1 3.75 3.8 3.4 1.75 3.75 3.8 3.75 5.1 3.55 5.95 2.9 7.25 2.85 7.35 M-3.9 0.3 L-2.8 -3.15 -3.9 0.3" fill="#d1b6b6" fill-rule="evenodd" stroke="none"/>
      <path d="M2.8 -9.45 L3.25 -8.15 3.3 -8.05 3.3 -8.0 3.75 -6.85 3.85 -6.55 Q4.85 -4.05 5.35 -3.3 6.1 -2.2 5.75 1.25 L5.75 2.1 5.7 3.05 Q5.6 3.65 6.5 7.3 L6.05 7.5 4.8 3.05 4.8 2.95 4.8 3.05 4.75 2.9 4.8 2.95 4.7 1.95 3.2 -5.3 3.2 -5.4 3.15 -5.55 2.9 -6.65 2.85 -6.7 2.55 -7.8 2.85 -6.7 2.6 -7.5 2.55 -7.8 2.3 -9.2 2.0 -9.6 2.05 -9.7 2.55 -9.6 2.8 -9.45 M0.1 9.7 L-1.6 9.6 Q-2.3 7.6 -2.75 6.7 L-2.95 6.3 Q-3.5 5.4 -2.45 1.95 -1.45 -1.55 0.55 -5.8 L0.55 -5.75 0.7 -5.55 2.5 -1.55 3.25 0.95 3.4 1.75 2.6 2.45 0.3 4.25 0.1 9.7 M-6.05 6.3 L-6.5 5.85 Q-4.95 2.7 -4.7 -0.4 -4.45 -3.5 -3.4 -5.3 L-1.9 -8.2 -1.45 -9.5 -0.65 -9.7 -1.05 -8.5 -2.15 -5.05 -2.75 -3.3 -2.75 -3.2 -2.8 -3.15 -3.15 -2.1 -3.85 0.2 -3.9 0.3 -4.35 1.85 -4.4 2.0 -5.05 4.35 -5.8 6.5 -6.05 6.3 M-1.05 -8.5 L-2.15 -5.05 -1.05 -8.5 M0.3 4.25 L0.7 -5.55 0.3 4.25" fill="#ffffff" fill-rule="evenodd" stroke="none"/>
      <path d="M2.8 -9.45 L3.25 -8.15 3.3 -8.05 3.3 -8.0 3.75 -6.85 3.85 -6.55 Q4.85 -4.05 5.35 -3.3 6.1 -2.2 5.75 1.25 L5.75 2.1 5.7 3.05 Q5.6 3.65 6.5 7.3 L6.05 7.5 5.35 7.75 4.15 8.4 3.5 8.9 3.55 8.6 2.85 7.35 Q2.4 8.1 2.25 9.65 L1.0 9.75 0.1 9.7 -1.6 9.6 Q-2.3 7.6 -2.75 6.7 L-3.9 8.2 -3.95 8.25 -6.05 6.3 -6.5 5.85 Q-4.95 2.7 -4.7 -0.4 -4.45 -3.5 -3.4 -5.3 L-1.9 -8.2 -1.45 -9.5 -0.65 -9.7 0.05 -9.75 2.05 -9.7 2.55 -9.6 2.75 -9.55 2.8 -9.45 M-2.75 6.7 L-2.95 6.3 Q-3.5 5.4 -2.45 1.95 -1.45 -1.55 0.55 -5.8 L0.55 -5.75 0.7 -5.55 2.5 -1.55 3.25 0.95 M3.4 1.75 L3.75 3.8 3.75 5.1 3.55 5.95 2.9 7.25 2.85 7.35 M2.85 -6.7 L3.2 -5.3 4.7 1.95 4.8 2.95 4.8 3.05 M2.55 -7.8 L2.85 -6.7 M0.3 4.25 L0.1 9.7 M0.7 -5.55 L0.3 4.25 M-2.15 -5.05 L-1.05 -8.5 M-2.15 -5.05 L-2.75 -3.3 -2.75 -3.2 M-2.8 -3.15 L-3.9 0.3 -4.35 1.85" fill="none" stroke="#000000" stroke-linecap="round" stroke-linejoin="round" stroke-opacity="0.3019608" stroke-width="0.05"/>
    </g>
    <g id="shape1" transform="matrix(1.0, 0.0, 0.0, 1.0, -5.45, -21.7)">
      <path d="M9.75 22.05 Q10.5 23.85 10.5 24.45 L10.55 24.8 10.7 25.1 10.85 25.6 Q10.85 26.0 11.15 26.25 L11.6 26.95 11.8 27.7 11.85 28.25 12.0 28.65 11.75 29.4 11.55 30.15 11.65 30.5 11.6 30.9 11.25 30.3 11.25 29.8 10.75 27.5 10.5 26.3 10.35 25.75 10.15 25.15 10.0 23.75 9.6 22.75 9.7 22.35 9.55 22.15 9.6 21.7 9.75 21.7 9.75 22.05 M8.05 27.6 L8.15 27.85 8.4 29.45 8.5 30.05 8.75 30.75 8.9 31.0 8.45 31.75 7.75 32.25 7.35 32.1 7.2 31.9 7.3 31.4 7.15 30.85 7.55 29.2 7.35 27.75 7.55 27.35 7.85 26.9 7.9 27.3 8.05 27.6 M6.45 27.6 L6.3 29.25 6.45 30.25 6.35 30.65 6.45 30.85 6.3 31.5 5.9 31.95 5.6 31.8 5.55 31.75 5.45 31.45 5.5 30.9 5.7 30.4 5.6 30.25 5.85 29.1 Q5.85 28.8 6.4 27.4 L6.45 27.6" fill="#ffffff" fill-opacity="0.7019608" fill-rule="evenodd" stroke="none"/>
    </g>
  </defs>
</svg>
