<?xml version="1.0" encoding="UTF-8" standalone="no"?>
<svg xmlns:xlink="http://www.w3.org/1999/xlink" height="49.6px" width="756.7px" xmlns="http://www.w3.org/2000/svg">
  <g transform="matrix(1.0, 0.0, 0.0, 1.0, 378.3, 39.5)">
    <use height="18.05" transform="matrix(1.0, 0.0, 0.0, 0.6153, -277.45, -20.7184)" width="554.9" xlink:href="#sprite0"/>
    <use height="32.65" id="smc" transform="matrix(1.0166, 0.0, 0.0, 1.0166, -253.224, -31.2707)" width="498.25" xlink:href="#sprite1"/>
  </g>
  <defs>
    <g id="sprite0" transform="matrix(1.0, 0.0, 0.0, 1.0, 277.45, 9.05)">
      <use height="300.0" transform="matrix(1.1098, 0.0, 0.0, 0.0602, -277.45, -9.05)" width="500.0" xlink:href="#shape0"/>
    </g>
    <g id="shape0" transform="matrix(1.0, 0.0, 0.0, 1.0, 0.0, 0.0)">
      <path d="M500.0 300.0 L0.0 300.0 0.0 0.0 500.0 0.0 500.0 300.0" fill="#ffffff" fill-rule="evenodd" stroke="none"/>
    </g>
    <g id="sprite1" transform="matrix(1.0, 0.0, 0.0, 1.0, 249.1, 16.35)">
      <use height="32.65" id="+Da3+" transform="matrix(1.5, 0.0, 0.0, 1.0, -249.1, -16.35)" width="332.15" xlink:href="#text0"/>
    </g>
  </defs>
</svg>
