<?xml version="1.0" encoding="UTF-8" standalone="no"?>
<svg xmlns:xlink="http://www.w3.org/1999/xlink" height="43.45px" width="18.15px" xmlns="http://www.w3.org/2000/svg">
  <g transform="matrix(1.0, 0.0, 0.0, 1.0, 9.1, 24.35)">
    <use height="39.0" id="_col3" transform="matrix(1.0, 0.0, 0.0, 1.0, -9.1, -24.35)" width="18.15" xlink:href="#sprite0"/>
  </g>
  <defs>
    <g id="sprite0" transform="matrix(1.0, 0.0, 0.0, 1.0, 9.1, 24.35)">
      <use height="39.0" transform="matrix(1.0, 0.0, 0.0, 1.0, -9.1, -24.35)" width="18.15" xlink:href="#shape0"/>
    </g>
    <g id="shape0" transform="matrix(1.0, 0.0, 0.0, 1.0, 9.1, 24.35)">
      <path d="M-1.0 14.5 L-3.15 14.65 Q-4.4 14.65 -5.6 13.9 L-5.8 13.8 -5.8 13.75 -5.85 13.75 -7.3 11.25 -7.8 10.1 Q-9.1 7.25 -9.1 5.55 L-8.95 5.25 -8.8 5.0 -8.05 -8.0 -8.25 -10.4 Q-8.3 -12.2 -7.45 -12.65 L-8.1 -13.15 Q-8.65 -13.6 -8.55 -13.95 L-8.0 -14.25 -7.85 -14.35 -7.8 -14.35 -7.9 -15.05 -7.65 -18.2 -7.6 -18.25 -7.3 -19.4 -7.15 -19.95 -7.15 -20.0 -5.75 -22.0 Q-4.3 -23.7 -1.65 -24.15 L0.3 -24.35 0.95 -22.8 1.35 -21.4 Q1.6 -20.7 1.45 -19.9 L1.05 -18.05 0.85 -16.9 0.85 -15.6 0.8 -14.6 0.55 -13.5 0.45 -12.95 0.35 -12.45 -0.75 -11.85 -1.4 -11.75 -1.65 -11.7 -1.7 -11.6 -1.8 -11.65 -4.15 -11.5 -4.15 -11.45 -4.2 -11.5 -5.95 -11.8 0.15 -8.2 Q0.4 -8.2 0.5 -6.7 L0.35 -5.85 -0.25 -3.7 -0.85 -1.8 Q-0.85 -0.3 0.05 3.4 L0.95 7.65 Q0.95 9.95 -1.0 14.5 M-4.2 -11.5 L-7.4 -12.6 -7.45 -12.65 -7.4 -12.6 -4.2 -11.5 M-7.8 -14.35 L-7.0 -14.7 -6.7 -14.6 Q-5.45 -14.25 -3.1 -12.6 L-1.8 -11.65 -3.1 -12.6 Q-5.45 -14.25 -6.7 -14.6 L-7.0 -14.7 -7.8 -14.35" fill="#d6baba" fill-rule="evenodd" stroke="none"/>
      <path d="M8.05 -20.3 L8.1 -20.15 8.3 -19.9 8.35 -19.85 8.6 -18.45 8.75 -16.9 8.75 -15.65 8.65 -11.7 8.45 -7.75 9.05 4.95 8.75 7.05 Q8.75 8.35 7.7 10.1 L7.1 11.0 5.9 12.7 5.5 12.85 3.55 13.45 -1.0 14.5 Q0.95 9.95 0.95 7.65 L0.05 3.4 Q-0.85 -0.3 -0.85 -1.8 L-0.25 -3.7 0.35 -5.85 0.5 -6.7 Q0.4 -8.2 0.15 -8.2 L-5.95 -11.8 -4.2 -11.5 -4.15 -11.45 -4.15 -11.5 -1.8 -11.65 -1.7 -11.6 -1.65 -11.7 -1.4 -11.75 -0.75 -11.85 0.35 -12.45 0.45 -12.95 0.55 -13.5 0.8 -14.6 0.85 -15.6 0.85 -16.9 1.05 -18.05 1.45 -19.9 Q1.6 -20.7 1.35 -21.4 L0.95 -22.8 0.3 -24.35 0.7 -24.35 1.05 -24.25 1.7 -24.1 3.25 -23.95 4.9 -23.25 5.95 -22.55 7.1 -21.5 8.05 -20.3 M0.95 -9.7 L0.45 -9.9 -0.3 -10.5 -1.7 -11.6 -0.3 -10.5 0.45 -9.9 0.95 -9.7 M0.45 -9.9 L-4.15 -11.45 0.45 -9.9" fill="#a78383" fill-rule="evenodd" stroke="none"/>
      <path d="M8.3 -19.9 L8.05 -20.3 M8.3 -19.9 L8.35 -19.85 8.6 -18.45 8.75 -16.9 8.75 -15.65 8.65 -11.7 8.45 -7.75 9.05 4.95 8.75 7.05 Q8.75 8.35 7.7 10.1 L7.1 11.0 5.9 12.7 5.5 12.85 M-5.6 13.9 L-5.8 13.8 -5.85 13.75 -7.3 11.25 -7.8 10.1 Q-9.1 7.25 -9.1 5.55 L-8.95 5.25 -8.8 5.0 -8.05 -8.0 -8.25 -10.4 Q-8.3 -12.2 -7.45 -12.65 L-8.1 -13.15 Q-8.65 -13.6 -8.55 -13.95 L-8.0 -14.25 -7.85 -14.35 -7.8 -14.35 -7.9 -15.05 -7.65 -18.2 -7.6 -18.25 -7.3 -19.4 M-7.15 -19.95 L-7.15 -20.0 M-1.7 -11.6 L-0.3 -10.5 0.45 -9.9 0.95 -9.7 M-7.45 -12.65 L-7.4 -12.6 -4.2 -11.5 -4.15 -11.45 0.45 -9.9 M-1.8 -11.65 L-3.1 -12.6 Q-5.45 -14.25 -6.7 -14.6 L-7.0 -14.7 -7.8 -14.35 M-1.8 -11.65 L-1.7 -11.6" fill="none" stroke="#000000" stroke-linecap="round" stroke-linejoin="round" stroke-opacity="0.3019608" stroke-width="0.05"/>
    </g>
  </defs>
</svg>
