<?xml version="1.0" encoding="UTF-8" standalone="no"?>
<svg xmlns:xlink="http://www.w3.org/1999/xlink" height="47.7px" width="35.55px" xmlns="http://www.w3.org/2000/svg">
  <g transform="matrix(1.0, 0.0, 0.0, 1.0, 17.75, 23.85)">
    <use height="20.75" transform="matrix(1.0, 0.0, 0.0, 1.0, -10.15, -8.15)" width="14.0" xlink:href="#shape0"/>
    <use height="47.7" id="_col3" transform="matrix(1.0, 0.0, 0.0, 1.0, -17.75, -23.85)" width="35.55" xlink:href="#sprite0"/>
    <use height="15.1" transform="matrix(1.0, 0.0, 0.0, 1.0, -0.3, -20.85)" width="15.35" xlink:href="#shape2"/>
  </g>
  <defs>
    <g id="shape0" transform="matrix(1.0, 0.0, 0.0, 1.0, 10.15, 8.15)">
      <path d="M3.85 -5.9 L1.65 -4.9 0.0 -3.95 -0.3 -3.55 -0.35 -3.35 Q-0.7 -2.4 -2.75 1.0 L-3.85 2.85 Q-4.45 4.45 -6.4 8.2 -7.7 10.5 -8.25 12.6 L-8.95 11.6 -10.15 9.15 -8.65 3.55 -7.05 -0.7 -6.85 -1.2 -6.75 -1.5 -5.95 -4.05 Q-5.4 -5.7 -4.25 -6.35 L-1.9 -7.45 -0.8 -7.9 0.35 -8.15 0.65 -7.6 Q1.65 -6.35 3.0 -6.05 L3.85 -5.9" fill="#666666" fill-rule="evenodd" stroke="none"/>
    </g>
    <g id="sprite0" transform="matrix(1.0, 0.0, 0.0, 1.0, 17.75, 23.85)">
      <use height="47.7" transform="matrix(1.0, 0.0, 0.0, 1.0, -17.75, -23.85)" width="35.55" xlink:href="#shape1"/>
    </g>
    <g id="shape1" transform="matrix(1.0, 0.0, 0.0, 1.0, 17.75, 23.85)">
      <path d="M10.3 -6.2 L10.3 -7.95 10.45 -8.1 11.35 -8.95 Q13.85 -11.7 14.85 -15.95 15.5 -18.6 14.2 -19.55 12.9 -20.6 10.4 -20.7 L9.6 -20.85 Q8.35 -21.1 6.45 -19.95 L4.7 -19.65 Q0.7 -19.0 0.1 -18.25 L-1.9 -15.35 -3.9 -12.45 -4.45 -11.6 Q-5.35 -9.95 -5.8 -7.3 L-6.75 -1.5 -6.85 -1.2 -7.05 -0.7 -8.65 3.55 -10.15 9.15 -8.95 11.6 -8.25 12.6 -8.1 12.8 -7.4 13.6 -5.6 10.55 -7.4 13.6 -8.1 12.8 -8.25 12.6 Q-7.7 10.5 -6.4 8.2 -4.45 4.45 -3.85 2.85 L-2.75 1.0 Q-0.7 -2.4 -0.35 -3.35 L-0.45 -2.25 -0.5 -0.9 -0.5 2.35 -3.1 6.35 -4.4 8.5 -5.6 10.55 -5.25 12.75 Q-4.9 14.4 -4.35 15.15 L-4.4 15.2 -6.15 15.65 -9.4 16.4 Q-9.85 16.4 -11.2 13.8 L-13.15 9.95 -14.35 10.35 -11.15 -7.5 -9.75 -13.75 Q-9.4 -16.15 -6.95 -16.8 L-1.9 -18.0 1.45 -21.55 2.05 -22.15 Q4.6 -23.4 6.7 -23.7 9.25 -24.05 13.1 -23.6 L15.8 -20.45 Q18.0 -17.7 17.75 -16.55 17.55 -15.65 14.4 -11.15 L13.25 -9.5 Q11.3 -6.75 11.0 -6.55 L10.3 -6.2" fill="#ffffff" fill-rule="evenodd" stroke="none"/>
      <path d="M-6.75 -1.5 L-5.8 -7.3 Q-5.35 -9.95 -4.45 -11.6 L-3.9 -12.45 -1.9 -15.35 0.1 -18.25 Q0.7 -19.0 4.7 -19.65 L6.45 -19.95 Q8.35 -21.1 9.6 -20.85 L10.4 -20.7 Q12.9 -20.6 14.2 -19.55 15.5 -18.6 14.85 -15.95 13.85 -11.7 11.35 -8.95 L10.45 -8.1 10.3 -7.95 10.3 -6.2 6.4 -4.75 Q2.95 -3.5 2.6 -2.15 L-0.5 2.35 -0.5 -0.9 -0.45 -2.25 -0.35 -3.35 -0.3 -3.55 0.0 -3.95 1.65 -4.9 3.85 -5.9 3.0 -6.05 Q1.65 -6.35 0.65 -7.6 L0.35 -8.15 -0.8 -7.9 -1.9 -7.45 -4.25 -6.35 Q-5.4 -5.7 -5.95 -4.05 L-6.75 -1.5 M-9.75 -13.75 L-11.15 -7.5 Q-12.55 -7.65 -12.9 -6.75 -13.1 -5.4 -13.4 -4.8 L-14.95 0.0 Q-15.45 1.45 -16.65 1.25 L-17.7 1.0 Q-17.85 -0.25 -17.6 -1.8 -17.2 -2.25 -16.85 -1.95 -12.75 -15.1 -11.95 -15.0 L-10.75 -14.4 -9.75 -13.75 M-14.35 10.35 L-13.15 9.95 -11.2 13.8 Q-9.85 16.4 -9.4 16.4 L-6.15 15.65 -4.4 15.2 -6.35 16.4 -10.2 18.7 Q-13.95 21.0 -16.35 23.85 L-15.45 16.15 -14.35 10.35" fill="#d6baba" fill-rule="evenodd" stroke="none"/>
      <path d="M10.3 -6.2 L11.0 -6.55 Q11.3 -6.75 13.25 -9.5 L14.4 -11.15 Q17.55 -15.65 17.75 -16.55 18.0 -17.7 15.8 -20.45 L13.1 -23.6 Q9.25 -24.05 6.7 -23.7 4.6 -23.4 2.05 -22.15 L1.45 -21.55 -1.9 -18.0 -6.95 -16.8 Q-9.4 -16.15 -9.75 -13.75 L-11.15 -7.5 -14.35 10.35 -15.45 16.15 -16.35 23.85 Q-13.95 21.0 -10.2 18.7 L-6.35 16.4 -4.4 15.2 -4.35 15.15 Q-4.9 14.4 -5.25 12.75 L-5.6 10.55 -7.4 13.6 -8.1 12.8 -8.25 12.6 -8.95 11.6 -10.15 9.15 -8.65 3.55 -7.05 -0.7 -6.85 -1.2 M-6.75 -1.5 L-5.95 -4.05 Q-5.4 -5.7 -4.25 -6.35 L-1.9 -7.45 -0.8 -7.9 0.35 -8.15 M3.85 -5.9 L1.65 -4.9 0.0 -3.95 -0.3 -3.55 -0.35 -3.35 Q-0.7 -2.4 -2.75 1.0 L-3.85 2.85 Q-4.45 4.45 -6.4 8.2 -7.7 10.5 -8.25 12.6 M-0.5 2.35 L2.6 -2.15 Q2.95 -3.5 6.4 -4.75 L10.3 -6.2 M-9.75 -13.75 L-10.75 -14.4 -11.95 -15.0 Q-12.75 -15.1 -16.85 -1.95 -17.2 -2.25 -17.6 -1.8 -17.85 -0.25 -17.7 1.0 L-16.65 1.25 Q-15.45 1.45 -14.95 0.0 L-13.4 -4.8 Q-13.1 -5.4 -12.9 -6.75 -12.55 -7.65 -11.15 -7.5 M-5.6 10.55 L-4.4 8.5 -3.1 6.35 -0.5 2.35" fill="none" stroke="#000000" stroke-linecap="round" stroke-linejoin="round" stroke-opacity="0.3019608" stroke-width="0.05"/>
    </g>
    <g id="shape2" transform="matrix(1.0, 0.0, 0.0, 1.0, 0.3, 20.85)">
      <path d="M1.9 -15.95 Q2.95 -16.7 4.55 -17.2 L7.2 -17.8 Q9.05 -18.55 9.55 -17.6 L9.75 -17.5 10.7 -16.1 Q12.0 -13.25 12.0 -12.0 L11.8 -9.4 11.35 -8.9 10.45 -8.05 10.3 -7.9 Q7.75 -5.8 4.95 -5.75 L3.85 -5.85 3.0 -6.0 Q1.65 -6.3 0.65 -7.55 L0.35 -8.1 Q-0.5 -9.5 -0.25 -11.95 -0.1 -13.7 1.9 -15.95 M5.65 -12.85 Q6.5 -13.75 6.0 -14.65 L4.9 -14.6 4.8 -14.6 4.85 -14.65 4.9 -14.6 4.85 -14.65 4.8 -14.6 4.9 -14.6 6.0 -14.65 Q6.5 -13.75 5.65 -12.85 L5.55 -12.95 Q5.0 -12.95 4.45 -13.6 L4.1 -14.1 3.9 -13.4 4.0 -12.75 5.65 -12.85 M4.8 -14.6 L4.1 -14.1 4.8 -14.6 M9.55 -17.6 Q10.0 -16.8 9.5 -14.85 8.8 -11.8 6.7 -10.4 4.75 -9.1 2.5 -9.65 1.7 -9.8 1.4 -10.05 0.95 -10.55 1.15 -11.6 2.0 -15.1 6.35 -17.4 L7.2 -17.8 6.35 -17.4 Q2.0 -15.1 1.15 -11.6 0.95 -10.55 1.4 -10.05 1.7 -9.8 2.5 -9.65 4.75 -9.1 6.7 -10.4 8.8 -11.8 9.5 -14.85 10.0 -16.8 9.55 -17.6" fill="#cccccc" fill-rule="evenodd" stroke="none"/>
      <path d="M1.9 -15.95 L3.75 -17.8 Q5.25 -19.15 6.45 -19.9 8.35 -21.05 9.6 -20.8 L10.4 -20.65 Q12.9 -20.55 14.2 -19.5 15.5 -18.55 14.85 -15.9 13.95 -12.0 11.8 -9.4 L12.0 -12.0 Q12.0 -13.25 10.7 -16.1 L9.75 -17.5 9.55 -17.6 Q9.05 -18.55 7.2 -17.8 L4.55 -17.2 Q2.95 -16.7 1.9 -15.95 M5.65 -12.85 L4.0 -12.75 3.9 -13.4 4.1 -14.1 4.45 -13.6 Q5.0 -12.95 5.55 -12.95 L5.65 -12.85" fill="#a2a2a2" fill-rule="evenodd" stroke="none"/>
      <path d="M11.8 -9.4 Q13.95 -12.0 14.85 -15.9 15.5 -18.55 14.2 -19.5 12.9 -20.55 10.4 -20.65 L9.6 -20.8 Q8.35 -21.05 6.45 -19.9 5.25 -19.15 3.75 -17.8 L1.9 -15.95 M7.2 -17.8 Q9.05 -18.55 9.55 -17.6 M11.8 -9.4 L11.35 -8.9 10.45 -8.05 10.3 -7.9 Q7.75 -5.8 4.95 -5.75 L3.85 -5.85 3.0 -6.0 Q1.65 -6.3 0.65 -7.55 L0.35 -8.1 Q-0.5 -9.5 -0.25 -11.95 -0.1 -13.7 1.9 -15.95 M4.9 -14.6 L4.85 -14.65 4.8 -14.6 4.9 -14.6 6.0 -14.65 Q6.5 -13.75 5.65 -12.85 L4.0 -12.75 3.9 -13.4 4.1 -14.1 4.8 -14.6 M7.2 -17.8 L6.35 -17.4 Q2.0 -15.1 1.15 -11.6 0.95 -10.55 1.4 -10.05 1.7 -9.8 2.5 -9.65 4.75 -9.1 6.7 -10.4 8.8 -11.8 9.5 -14.85 10.0 -16.8 9.55 -17.6" fill="none" stroke="#000000" stroke-linecap="round" stroke-linejoin="round" stroke-opacity="0.3019608" stroke-width="0.05"/>
    </g>
  </defs>
</svg>
