<?xml version="1.0" encoding="UTF-8" standalone="no"?>
<svg xmlns:xlink="http://www.w3.org/1999/xlink" height="2.6px" width="5.6px" xmlns="http://www.w3.org/2000/svg">
  <g transform="matrix(1.0, 0.0, 0.0, 1.0, 2.85, 1.55)">
    <use height="0.5" transform="matrix(1.0, 0.0, 0.0, 1.0, -2.85, -0.4)" width="5.6" xlink:href="#shape0"/>
  </g>
  <defs>
    <g id="shape0" transform="matrix(1.0, 0.0, 0.0, 1.0, 2.85, 0.4)">
      <path d="M0.9 -0.35 L1.7 -0.4 2.5 -0.35 2.75 -0.15 2.5 0.0 1.7 0.1 0.9 0.0 Q0.55 -0.1 0.55 -0.15 L0.9 -0.35" fill="#000000" fill-rule="evenodd" stroke="none"/>
      <path d="M-0.45 -0.15 Q-0.45 -0.1 -0.75 0.0 L-1.65 0.1 -2.4 0.0 -2.85 -0.15 -2.4 -0.35 -1.65 -0.4 -0.75 -0.35 Q-0.45 -0.3 -0.45 -0.15" fill="#000000" fill-rule="evenodd" stroke="none"/>
    </g>
  </defs>
</svg>
