<?xml version="1.0" encoding="UTF-8" standalone="no"?>
<svg xmlns:xlink="http://www.w3.org/1999/xlink" height="20.45px" width="24.75px" xmlns="http://www.w3.org/2000/svg">
  <g transform="matrix(1.0, 0.0, 0.0, 1.0, 0.0, 0.0)">
    <use height="19.7" id="_col3" transform="matrix(1.0, 0.0, 0.0, 1.0, 0.0, 0.75)" width="14.4" xlink:href="#sprite0"/>
    <use height="19.05" id="_col2" transform="matrix(1.0, 0.0, 0.0, 1.0, 6.05, 0.0)" width="18.7" xlink:href="#sprite1"/>
  </g>
  <defs>
    <g id="sprite0" transform="matrix(1.0, 0.0, 0.0, 1.0, 0.0, 0.0)">
      <use height="19.7" transform="matrix(1.0, 0.0, 0.0, 1.0, 0.0, 0.0)" width="14.4" xlink:href="#shape0"/>
    </g>
    <g id="shape0" transform="matrix(1.0, 0.0, 0.0, 1.0, 0.0, 0.0)">
      <path d="M6.55 0.85 L6.6 0.65 6.7 0.3 6.95 1.8 8.95 0.75 Q10.25 0.05 11.65 0.0 L10.9 1.0 12.95 0.5 14.25 7.1 Q14.6 9.35 14.1 11.75 13.55 14.2 12.25 16.3 L11.15 17.95 Q10.45 19.05 9.25 18.75 L8.0 19.35 7.05 19.6 7.65 18.85 5.2 18.95 7.15 17.3 7.05 17.35 5.6 17.55 6.55 16.2 6.35 16.2 5.7 16.25 5.7 15.55 4.95 13.35 6.05 14.45 6.1 14.35 Q5.95 12.85 4.45 10.3 L4.65 10.15 6.05 11.3 6.1 11.15 6.1 9.95 6.05 9.25 6.1 9.3 6.2 9.2 Q7.45 7.05 7.45 4.9 L7.25 3.45 7.0 2.7 6.6 4.2 5.85 5.9 6.55 0.85" fill="#d6baba" fill-rule="evenodd" stroke="none"/>
      <path d="M5.2 18.95 L4.5 19.25 Q4.1 19.4 3.7 19.7 L5.0 17.55 Q3.4 17.85 2.1 16.95 L1.3 16.35 2.95 16.4 0.0 14.4 1.5 14.4 Q0.25 12.35 0.75 10.35 0.95 9.35 0.65 8.5 L1.55 9.7 Q2.05 7.7 1.15 5.6 L2.3 6.9 Q1.75 5.35 2.9 3.9 L4.75 1.7 4.4 3.6 Q5.85 2.55 6.55 0.85 L5.85 5.9 6.6 4.2 7.0 2.7 7.25 3.45 7.45 4.9 Q7.45 7.05 6.2 9.2 L6.1 9.3 6.05 9.25 6.1 9.95 6.1 11.15 6.05 11.3 4.65 10.15 4.45 10.3 Q5.95 12.85 6.1 14.35 L6.05 14.45 4.95 13.35 5.7 15.55 5.7 16.25 6.35 16.2 6.55 16.2 5.6 17.55 7.05 17.35 7.15 17.3 5.2 18.95" fill="#ffffff" fill-rule="evenodd" stroke="none"/>
      <path d="M6.55 0.85 L6.6 0.65 6.7 0.3 6.95 1.8 8.95 0.75 Q10.25 0.05 11.65 0.0 L10.9 1.0 12.95 0.5 14.25 7.1 Q14.6 9.35 14.1 11.75 13.55 14.2 12.25 16.3 L11.15 17.95 Q10.45 19.05 9.25 18.75 L8.0 19.35 7.05 19.6 7.65 18.85 5.2 18.95 4.5 19.25 Q4.1 19.4 3.7 19.7 L5.0 17.55 Q3.4 17.85 2.1 16.95 L1.3 16.35 2.95 16.4 0.0 14.4 1.5 14.4 Q0.25 12.35 0.75 10.35 0.95 9.35 0.65 8.5 L1.55 9.7 Q2.05 7.7 1.15 5.6 L2.3 6.9 Q1.75 5.35 2.9 3.9 L4.75 1.7 4.4 3.6 Q5.85 2.55 6.55 0.85 Z" fill="none" stroke="#000000" stroke-linecap="round" stroke-linejoin="round" stroke-opacity="0.3019608" stroke-width="0.05"/>
    </g>
    <g id="sprite1" transform="matrix(1.0, 0.0, 0.0, 1.0, 0.0, 0.0)">
      <use height="19.05" transform="matrix(1.0, 0.0, 0.0, 1.0, 0.0, 0.0)" width="18.7" xlink:href="#shape1"/>
    </g>
    <g id="shape1" transform="matrix(1.0, 0.0, 0.0, 1.0, 0.0, 0.0)">
      <path d="M2.95 18.4 L0.9 16.85 Q-0.45 15.4 0.2 13.6 1.65 9.8 3.35 6.35 4.45 4.1 6.4 2.65 L7.0 2.2 Q9.2 1.3 11.65 0.6 L10.7 1.6 8.95 2.9 Q7.7 3.8 6.95 5.45 6.15 7.05 5.6 8.75 L4.65 11.7 3.95 14.6 2.95 18.4" fill="#ffffff" fill-rule="evenodd" stroke="none"/>
      <path d="M11.65 0.6 L12.4 0.35 Q15.0 -0.35 17.75 0.45 L18.7 0.65 Q16.0 1.4 14.15 3.55 12.5 5.45 11.45 7.6 10.3 9.85 10.0 12.35 L9.4 16.85 Q9.3 17.6 8.7 18.0 7.75 18.65 6.6 19.0 4.55 19.15 2.95 18.4 L3.95 14.6 4.65 11.7 5.6 8.75 Q6.15 7.05 6.95 5.45 7.7 3.8 8.95 2.9 L10.7 1.6 11.65 0.6" fill="#d6baba" fill-rule="evenodd" stroke="none"/>
      <path d="M11.65 0.6 L12.4 0.35 Q15.0 -0.35 17.75 0.45 L18.7 0.65 Q16.0 1.4 14.15 3.55 12.5 5.45 11.45 7.6 10.3 9.85 10.0 12.35 L9.4 16.85 Q9.3 17.6 8.7 18.0 7.75 18.65 6.6 19.0 4.55 19.15 2.95 18.4 L0.9 16.85 Q-0.45 15.4 0.2 13.6 1.65 9.8 3.35 6.35 4.45 4.1 6.4 2.65 L7.0 2.2 Q9.2 1.3 11.65 0.6 Z" fill="none" stroke="#000000" stroke-linecap="round" stroke-linejoin="round" stroke-opacity="0.3019608" stroke-width="0.05"/>
    </g>
  </defs>
</svg>
