<?xml version="1.0" encoding="UTF-8" standalone="no"?>
<svg xmlns:xlink="http://www.w3.org/1999/xlink" height="85.45px" width="104.8px" xmlns="http://www.w3.org/2000/svg">
  <g transform="matrix(1.0, 0.0, 0.0, 1.0, 26.2, 61.95)">
    <path d="M53.3 -24.65 Q52.85 -23.45 51.5 -23.05 L32.6 -17.05 Q53.0 -25.0 54.3 -27.35 L53.3 -24.65 M3.95 -13.2 L4.15 -12.4 17.5 -14.65 15.75 -11.4 16.3 -11.45 15.7 -11.15 Q15.25 -9.95 15.75 -8.7 18.05 -2.45 24.3 -0.15 33.6 3.0 42.35 7.4 L42.0 8.0 39.35 7.9 Q36.6 6.35 33.5 5.8 24.65 4.95 16.25 8.15 13.9 8.95 12.7 10.5 L13.1 13.9 Q11.9 13.8 11.0 14.3 L8.6 14.5 Q6.1 13.45 4.35 11.7 3.2 10.5 2.15 10.2 L-1.75 12.8 -2.4 12.4 -3.9 9.4 -25.15 19.75 -26.2 19.65 -6.5 4.5 Q-5.5 5.5 -4.25 6.05 -0.4 7.8 3.8 6.65 7.8 5.65 11.3 3.75 15.5 1.5 17.8 -2.5 15.3 -8.4 9.2 -10.95 7.05 -11.9 5.15 -10.9 3.75 -10.1 3.0 -11.25 L4.15 -12.05 3.95 -13.2 M27.9 -60.3 L28.15 -57.15 25.0 -54.35 27.6 -61.95 27.9 -60.3 M73.1 19.8 L73.1 19.35 73.55 20.1 78.6 23.5 72.5 21.85 56.2 15.05 71.2 18.5 73.1 19.8" fill="#ff0000" fill-rule="evenodd" stroke="none"/>
  </g>
</svg>
