<?xml version="1.0" encoding="UTF-8" standalone="no"?>
<svg xmlns:xlink="http://www.w3.org/1999/xlink" height="22.05px" width="16.0px" xmlns="http://www.w3.org/2000/svg">
  <g transform="matrix(1.0, 0.0, 0.0, 1.0, 8.0, 14.05)">
    <path d="M2.45 -13.5 Q-0.9 -14.1 -0.4 -8.4" fill="none" stroke="#ffffff" stroke-linecap="round" stroke-linejoin="round" stroke-width="1.0"/>
    <path d="M2.5 -5.0 L-2.5 -5.0 -2.5 -10.0 2.5 -10.0 2.5 -5.0" fill="#000000" fill-rule="evenodd" stroke="none"/>
    <path d="M5.65 -5.7 Q8.0 -3.35 8.0 0.0 8.0 3.3 5.65 5.65 3.3 8.0 0.0 8.0 -3.35 8.0 -5.7 5.65 -8.0 3.3 -8.0 0.0 -8.0 -3.35 -5.7 -5.7 -3.35 -8.0 0.0 -8.0 3.3 -8.0 5.65 -5.7" fill="url(#gradient0)" fill-rule="evenodd" stroke="none"/>
  </g>
  <defs>
    <radialGradient cx="0" cy="0" gradientTransform="matrix(0.0143, 0.0, 0.0, 0.0143, -2.15, -2.8)" gradientUnits="userSpaceOnUse" id="gradient0" r="819.2" spreadMethod="pad">
      <stop offset="0.2549019607843137" stop-color="#323267"/>
      <stop offset="0.6745098039215687" stop-color="#000000"/>
    </radialGradient>
  </defs>
</svg>
