<?xml version="1.0" encoding="UTF-8" standalone="no"?>
<svg xmlns:xlink="http://www.w3.org/1999/xlink" height="10.7px" width="19.75px" xmlns="http://www.w3.org/2000/svg">
  <g transform="matrix(1.0, 0.0, 0.0, 1.0, 11.5, 11.95)">
    <path d="M8.25 -6.9 Q7.4 -5.2 4.1 -4.45 L3.4 -4.25 Q2.45 -4.8 0.9 -4.8 -1.65 -4.8 -4.7 -3.9 L-7.35 -3.05 Q-8.7 -3.05 -9.3 -4.65 L-9.6 -6.1 Q-9.6 -8.3 -6.75 -10.0 -4.05 -11.7 -0.5 -11.9 3.3 -12.15 5.7 -10.45 7.6 -9.15 8.25 -6.9" fill="#cccccc" fill-rule="evenodd" stroke="none"/>
    <path d="M-11.45 -4.95 Q-11.45 -6.95 -8.0 -8.1 -4.55 -9.25 -4.55 -7.5 -4.55 -7.25 -6.55 -5.35 -8.55 -3.45 -8.55 -2.1 L-8.7 -1.8 -8.8 -1.4 -9.35 -1.25 Q-11.0 -1.25 -11.4 -3.05 -11.6 -3.95 -11.45 -4.95" fill="#ffffff" fill-rule="evenodd" stroke="none"/>
  </g>
</svg>
