<?xml version="1.0" encoding="UTF-8" standalone="no"?>
<svg xmlns:xlink="http://www.w3.org/1999/xlink" height="14.1px" width="44.55px" xmlns="http://www.w3.org/2000/svg">
  <g transform="matrix(1.0, 0.0, 0.0, 1.0, 20.25, 7.15)">
    <path d="M-15.1 2.35 L-17.65 3.5 -17.85 3.5 -18.1 3.3 -18.15 3.35 Q-18.3 3.5 -18.4 3.25 L-18.65 3.25 -19.5 2.7 -20.1 1.95 -20.25 1.25 -20.05 0.4 -19.55 -0.35 -18.5 -1.0 -17.6 -1.0 -17.35 -1.05 -15.65 -0.65 -14.95 -0.7 -11.6 -1.05 -7.35 -1.95 -3.1 -3.1 1.5 -4.3 6.05 -5.4 10.15 -6.25 14.4 -6.9 18.9 -7.1 19.05 -6.05 19.2 -6.2 21.75 -5.8 21.85 -2.85 16.3 -3.1 24.3 1.45 23.15 4.2 Q21.7 3.25 20.15 2.5 18.7 1.65 17.1 0.9 15.45 0.05 13.6 -0.35 L16.45 0.8 Q18.85 1.85 21.05 3.35 L20.2 4.35 Q19.15 3.7 18.0 3.15 16.0 2.05 13.65 1.55 L18.9 5.65 17.55 6.95 15.5 5.85 15.1 6.7 12.55 5.25 11.35 4.75 Q9.0 3.9 6.65 3.3 L2.1 2.2 -0.85 1.7 -4.75 1.1 -9.15 0.9 Q-11.15 0.85 -13.1 1.45 L-14.25 2.0 -15.1 2.35 -14.85 1.75 -14.6 1.6 -14.85 1.75 -15.1 2.35 M-17.35 -0.75 L-17.6 -1.0 -17.35 -0.75 M3.15 1.55 L6.9 2.05 11.2 3.3 Q13.05 3.95 14.75 4.9 L15.7 5.5 15.5 5.85 15.7 5.5 14.75 4.9 Q13.05 3.95 11.2 3.3 L6.9 2.05 3.15 1.55 M13.65 1.55 L10.6 0.8 13.65 1.55 M2.7 -2.95 L5.65 -3.5 8.45 -4.0 11.15 -4.4 15.7 -4.9 19.25 -4.9 19.05 -6.05 19.25 -4.9 15.7 -4.9 11.15 -4.4 8.45 -4.0 5.65 -3.5 2.7 -2.95 M16.3 -3.1 L11.85 -2.75 8.15 -2.3 4.0 -1.6 8.15 -2.3 11.85 -2.75 16.3 -3.1 M6.3 -0.6 L9.7 -0.9 13.6 -0.35 9.7 -0.9 6.3 -0.6 M-18.9 1.2 L-19.95 1.6 -18.9 1.2 M-15.1 -0.5 L-15.65 -0.65 -15.1 -0.5 M-16.35 2.6 L-17.65 3.5 -16.35 2.6 M-15.75 0.6 L-16.1 0.9 -17.05 1.2 -16.1 0.9 -15.75 0.6" fill="url(#gradient0)" fill-rule="evenodd" stroke="none"/>
    <path d="M-17.6 -1.0 L-18.75 -1.35 M-15.1 2.35 L-17.65 3.5 -17.85 3.5 -18.1 3.3 -18.15 3.35 Q-18.3 3.5 -18.4 3.25 L-18.65 3.25 -19.5 2.7 -20.1 1.95 -20.25 1.25 -20.05 0.4 -19.55 -0.35 -18.5 -1.0 -17.6 -1.0 -17.35 -1.05 -15.65 -0.65 -14.95 -0.7 -11.6 -1.05 -7.35 -1.95 -3.1 -3.1 1.5 -4.3 6.05 -5.4 10.15 -6.25 14.4 -6.9 18.9 -7.1 19.05 -6.05 19.2 -6.2 21.75 -5.8 21.85 -2.85 16.3 -3.1 24.3 1.45 23.15 4.2 Q21.7 3.25 20.15 2.5 18.7 1.65 17.1 0.9 15.45 0.05 13.6 -0.35 L16.45 0.8 Q18.85 1.85 21.05 3.35 L20.2 4.35 Q19.15 3.7 18.0 3.15 16.0 2.05 13.65 1.55 L18.9 5.65 17.55 6.95 15.5 5.85 15.1 6.7 12.55 5.25 11.35 4.75 Q9.0 3.9 6.65 3.3 L2.1 2.2 -0.85 1.7 -4.75 1.1 -9.15 0.9 Q-11.15 0.85 -13.1 1.45 L-14.25 2.0 -15.1 2.35 -15.15 2.65 -16.35 3.6 M-17.05 1.2 L-16.1 0.9 -15.75 0.6 M-17.65 3.5 L-16.35 2.6 M-15.1 2.35 L-14.85 1.75 -14.6 1.6 M-15.65 -0.65 L-15.1 -0.5 M-19.95 1.6 L-18.9 1.2 M13.6 -0.35 L9.7 -0.9 6.3 -0.6 M4.0 -1.6 L8.15 -2.3 11.85 -2.75 16.3 -3.1 M19.05 -6.05 L19.25 -4.9 15.7 -4.9 11.15 -4.4 8.45 -4.0 5.65 -3.5 2.7 -2.95 M10.6 0.8 L13.65 1.55 M15.5 5.85 L15.7 5.5 14.75 4.9 Q13.05 3.95 11.2 3.3 L6.9 2.05 3.15 1.55 M-17.6 -1.0 L-17.35 -0.75" fill="none" stroke="#000000" stroke-linecap="round" stroke-linejoin="round" stroke-opacity="0.4" stroke-width="0.05"/>
  </g>
  <defs>
    <radialGradient cx="0" cy="0" gradientTransform="matrix(0.0516, -0.0298, 0.0298, 0.0516, -18.5, 0.9)" gradientUnits="userSpaceOnUse" id="gradient0" r="819.2" spreadMethod="pad">
      <stop offset="0.18823529411764706" stop-color="#ffffcc"/>
      <stop offset="1.0" stop-color="#165823"/>
    </radialGradient>
  </defs>
</svg>
