<?xml version="1.0" encoding="UTF-8" standalone="no"?>
<svg xmlns:xlink="http://www.w3.org/1999/xlink" height="12.45px" width="14.2px" xmlns="http://www.w3.org/2000/svg">
  <g transform="matrix(1.0, 0.0, 0.0, 1.0, 6.5, 7.8)">
    <path d="M-5.1 -5.8 L-4.95 -6.25 -4.3 -6.75 0.7 -7.65 3.1 -7.75 4.05 -7.35 4.15 -7.25 4.2 -7.1 4.2 -7.05 3.35 -6.25 2.85 -6.1 2.6 -6.1 1.65 -6.3 1.55 -6.4 0.3 -6.5 -1.65 -6.2 -2.85 -5.95 -3.25 -5.85 -3.4 -5.55 -3.3 -5.75 -3.8 -5.5 Q-4.6 -5.2 -4.8 -5.5 L-5.1 -5.8 M4.75 -5.4 L5.6 -5.4 5.7 -5.3 5.95 -5.15 6.1 -5.05 6.8 -4.1 Q8.0 -2.05 7.6 0.95 7.25 3.6 6.7 3.95 L6.55 4.1 6.2 3.95 Q5.65 3.7 5.4 3.3 L5.05 2.8 4.85 1.35 4.65 0.0 2.8 -0.1 -0.8 0.2 -3.9 0.4 -5.45 0.3 -6.45 0.2 -6.45 -0.65 -6.35 -2.4 -6.1 -3.55 -6.05 -3.65 -6.05 -3.85 -5.75 -4.1 -5.5 -4.1 -5.3 -4.05 -4.9 -4.1 -4.8 -3.95 -4.8 -3.8 -4.4 -3.5 -3.85 -3.55 -3.4 -4.25 -3.45 -4.2 -3.05 -4.25 1.05 -4.8 2.6 -4.95 2.65 -4.75 Q2.95 -4.45 3.45 -4.4 L4.35 -4.6 4.7 -4.9 4.75 -5.4 M6.5 -3.4 L5.95 -4.3 5.75 -4.65 5.7 -4.7 5.6 -4.6 5.45 -4.4 5.45 -4.2 5.3 0.3 Q5.25 2.05 6.2 3.6 7.15 2.3 7.0 -0.25 6.9 -2.7 6.5 -3.4" fill="#ffffcc" fill-rule="evenodd" stroke="none"/>
    <path d="M-5.1 -5.8 L-4.8 -5.5 Q-4.6 -5.2 -3.8 -5.5 L-3.3 -5.75 -3.4 -5.55 -3.55 -5.4 -3.4 -4.25 -3.85 -3.55 -4.4 -3.5 -4.8 -3.8 -4.8 -3.95 -4.9 -4.1 -5.05 -5.2 -5.05 -5.35 -5.05 -5.4 -5.1 -5.8 M1.65 -6.3 L2.6 -6.1 2.85 -6.1 3.35 -6.25 4.2 -7.05 4.2 -7.1 4.45 -6.7 4.75 -5.4 4.7 -4.9 4.35 -4.6 3.45 -4.4 Q2.95 -4.45 2.65 -4.75 L2.6 -4.95 2.4 -5.7 2.35 -5.8 1.9 -6.15 1.65 -6.3 M6.55 4.1 L6.5 4.1 5.75 4.3 3.45 4.5 -1.05 4.65 -3.2 4.45 Q-4.75 4.15 -5.4 3.6 -6.0 3.0 -6.25 1.5 L-6.4 0.55 -6.45 0.2 -5.45 0.3 -3.9 0.4 -0.8 0.2 2.8 -0.1 4.65 0.0 4.85 1.35 5.05 2.8 5.4 3.3 Q5.65 3.7 6.2 3.95 L6.55 4.1" fill="#cbb992" fill-rule="evenodd" stroke="none"/>
    <path d="M6.5 -3.4 Q6.9 -2.7 7.0 -0.25 7.15 2.3 6.2 3.6 5.25 2.05 5.3 0.3 L5.45 -4.2 5.45 -4.4 5.6 -4.6 5.7 -4.7 5.75 -4.65 5.95 -4.3 6.5 -3.4" fill="#936b31" fill-rule="evenodd" stroke="none"/>
    <path d="M4.2 -7.1 L4.15 -7.25 4.05 -7.35 3.1 -7.75 0.7 -7.65 -4.3 -6.75 -4.95 -6.25 -5.1 -5.8 M-3.4 -5.55 L-3.25 -5.85 -2.85 -5.95 -1.65 -6.2 0.3 -6.5 1.55 -6.4 1.65 -6.3 M4.2 -7.1 L4.45 -6.7 4.75 -5.4 5.6 -5.4 5.7 -5.3 5.95 -5.15 6.1 -5.05 6.8 -4.1 Q8.0 -2.05 7.6 0.95 7.25 3.6 6.7 3.95 L6.55 4.1 6.5 4.1 5.75 4.3 3.45 4.5 -1.05 4.65 -3.2 4.45 Q-4.75 4.15 -5.4 3.6 -6.0 3.0 -6.25 1.5 L-6.4 0.55 -6.45 0.2 -6.45 -0.65 -6.35 -2.4 -6.1 -3.55 -6.05 -3.65 -6.05 -3.85 -5.75 -4.1 -5.5 -4.1 -5.3 -4.05 -4.9 -4.1 -5.05 -5.2 -5.05 -5.35 -5.05 -5.4 -5.1 -5.8 M2.6 -4.95 L2.4 -5.7 2.35 -5.8 1.9 -6.15 1.65 -6.3 M2.6 -4.95 L2.65 -4.75 Q2.95 -4.45 3.45 -4.4 L4.35 -4.6 4.7 -4.9 4.75 -5.4 M6.5 -3.4 L5.95 -4.3 5.75 -4.65 5.7 -4.7 5.6 -4.6 5.45 -4.4 5.45 -4.2 5.3 0.3 Q5.25 2.05 6.2 3.6 7.15 2.3 7.0 -0.25 6.9 -2.7 6.5 -3.4 M-3.4 -5.55 L-3.55 -5.4 -3.4 -4.25 -3.45 -4.2 -3.05 -4.25 1.05 -4.8 2.6 -4.95 M-4.9 -4.1 L-4.8 -3.95 -4.8 -3.8 -4.4 -3.5 -3.85 -3.55 -3.4 -4.25" fill="none" stroke="#000000" stroke-linecap="round" stroke-linejoin="round" stroke-opacity="0.4" stroke-width="0.05"/>
  </g>
</svg>
