<?xml version="1.0" encoding="UTF-8" standalone="no"?>
<svg xmlns:xlink="http://www.w3.org/1999/xlink" height="18.0px" width="18.05px" xmlns="http://www.w3.org/2000/svg">
  <g transform="matrix(1.0, 0.0, 0.0, 1.0, 7.9, 9.45)">
    <path d="M3.25 -1.85 L2.45 -2.65 0.75 -5.55 4.6 -9.45 5.25 -8.25 4.5 -8.35 2.4 -5.4 3.05 -4.2 6.55 -5.7 4.8 -2.45 6.1 -1.8 9.0 -3.85 8.9 -4.6 10.15 -4.0 6.2 -0.1 3.65 -1.8 3.25 -1.85 M-7.65 7.45 L-6.85 8.25 -7.0 8.4 -7.8 7.6 -7.65 7.45" fill="#e0e8eb" fill-rule="evenodd" stroke="none"/>
    <path d="M2.45 -2.65 L3.25 -1.85 3.6 -1.55 -6.5 8.55 -6.85 8.25 -7.65 7.45 -7.9 7.15 2.2 -2.95 2.45 -2.65" fill="#de9f10" fill-rule="evenodd" stroke="none"/>
  </g>
</svg>
