<?xml version="1.0" encoding="UTF-8" standalone="no"?>
<svg xmlns:xlink="http://www.w3.org/1999/xlink" height="11.75px" width="15.6px" xmlns="http://www.w3.org/2000/svg">
  <g transform="matrix(1.0, 0.0, 0.0, 1.0, 8.35, 4.95)">
    <path d="M6.75 -1.65 L7.25 -1.2 0.8 6.8 0.3 6.45 -8.35 -0.5 -8.0 -0.9 -0.25 5.15 0.4 5.7 0.45 6.0 0.3 6.45 6.75 -1.65" fill="#6a4f26" fill-rule="evenodd" stroke="none"/>
    <path d="M-5.05 -3.45 Q-2.8 -4.95 -0.45 -4.95 L0.4 5.7 0.55 5.7 3.3 -4.1 Q5.0 -3.25 6.75 -1.65 L0.3 6.45 0.45 6.0 0.4 5.7 -0.25 5.15 -5.05 -3.45" fill="#ffffcc" fill-rule="evenodd" stroke="none"/>
    <path d="M-8.0 -0.9 L-5.05 -3.45 -0.25 5.15 -8.0 -0.9 M-0.45 -4.95 Q1.4 -5.0 3.3 -4.1 L0.55 5.7 0.4 5.7 -0.45 -4.95" fill="#e8d4ad" fill-rule="evenodd" stroke="none"/>
  </g>
</svg>
