<?xml version="1.0" encoding="UTF-8" standalone="no"?>
<svg xmlns:xlink="http://www.w3.org/1999/xlink" height="13.95px" width="14.9px" xmlns="http://www.w3.org/2000/svg">
  <g transform="matrix(1.0, 0.0, 0.0, 1.0, 7.2, 7.2)">
    <path d="M-2.2 -1.1 L-2.2 -1.2 -2.15 -1.3 -1.8 -2.05 -1.55 -2.55 0.2 -5.2 Q1.65 -7.05 3.95 -7.2 L5.3 -7.1 5.6 -7.0 5.8 -5.5 Q5.8 -3.35 4.25 -1.85 2.75 -0.3 0.6 -0.3 -1.0 -0.3 -2.2 -1.1 M2.55 -0.3 L2.65 -0.55 2.75 -0.55 2.55 -0.3" fill="#964d2e" fill-rule="evenodd" stroke="none"/>
    <path d="M5.6 -7.0 Q6.75 -6.55 7.45 -5.4 8.0 -4.1 7.35 -1.75 6.7 0.6 2.3 2.35 L-2.7 3.85 -4.1 4.5 -5.0 5.2 -5.7 6.1 Q-6.35 6.85 -6.7 6.75 L-7.0 6.55 -7.2 6.15 -7.15 6.0 -7.2 6.0 -6.6 5.4 -5.05 3.5 -3.1 0.5 -2.2 -1.1 Q-1.0 -0.3 0.6 -0.3 2.75 -0.3 4.25 -1.85 5.8 -3.35 5.8 -5.5 L5.6 -7.0 M2.55 -0.3 L2.75 -0.55 2.65 -0.55 2.55 -0.3" fill="#753c24" fill-rule="evenodd" stroke="none"/>
  </g>
</svg>
