<?xml version="1.0" encoding="UTF-8" standalone="no"?>
<svg xmlns:xlink="http://www.w3.org/1999/xlink" height="15.6px" width="14.65px" xmlns="http://www.w3.org/2000/svg">
  <g transform="matrix(1.0, 0.0, 0.0, 1.0, 7.15, 8.2)">
    <path d="M-6.65 7.15 L-6.8 7.0 Q-7.05 6.55 -6.5 6.4 -6.05 6.8 -6.35 6.2 -6.7 5.6 -7.0 5.8 -7.35 5.5 -6.95 5.15 L-6.4 5.1 Q-6.15 5.2 -5.85 5.65 L-2.45 2.7 -1.95 2.15 Q-0.3 0.2 0.7 -2.15 1.15 -3.3 0.75 -4.35 L0.3 -6.1 0.3 -7.05 0.4 -7.35 Q1.25 -8.3 2.7 -8.2 3.6 -6.85 3.2 -5.4 L3.05 -5.05 1.85 -4.65 2.7 -3.8 4.3 -4.0 4.5 -4.4 Q6.05 -3.85 5.85 -1.8 L5.7 -1.3 2.9 -1.95 Q1.05 -0.9 0.0 1.05 L-1.0 2.3 Q-3.4 4.6 -5.9 6.6 L-6.5 7.05 -6.65 7.15" fill="#ffffcc" fill-rule="evenodd" stroke="none"/>
    <path d="M2.7 -8.2 L3.2 -8.05 Q4.0 -7.75 4.4 -7.0 5.0 -5.95 4.75 -4.65 L5.65 -3.85 6.9 -2.35 Q7.8 -1.1 7.3 0.15 L6.6 0.55 5.2 0.25 Q4.3 0.3 3.55 0.65 2.5 0.95 1.65 1.65 0.0 2.95 -2.0 4.1 L-3.0 5.05 Q-4.1 6.5 -5.8 7.4 L-6.65 7.15 -6.5 7.05 -5.9 6.6 Q-3.4 4.6 -1.0 2.3 L0.0 1.05 Q1.05 -0.9 2.9 -1.95 L5.7 -1.3 5.85 -1.8 Q6.05 -3.85 4.5 -4.4 L4.3 -4.0 2.7 -3.8 1.85 -4.65 3.05 -5.05 3.2 -5.4 Q3.6 -6.85 2.7 -8.2 M-6.5 6.4 L-6.35 6.4 -7.0 5.8 Q-6.7 5.6 -6.35 6.2 -6.05 6.8 -6.5 6.4" fill="#cbb492" fill-rule="evenodd" stroke="none"/>
  </g>
</svg>
