<?xml version="1.0" encoding="UTF-8" standalone="no"?>
<svg xmlns:xlink="http://www.w3.org/1999/xlink" height="15.65px" width="18.6px" xmlns="http://www.w3.org/2000/svg">
  <g transform="matrix(1.0, 0.0, 0.0, 1.0, 7.65, 7.6)">
    <path d="M5.1 -1.7 Q6.0 -2.4 7.05 -2.3 L7.05 -2.65 7.1 -2.95 7.7 -3.1 7.85 -3.1 8.0 -3.1 8.05 -3.05 8.3 -3.0 8.6 -2.75 8.75 -2.65 8.7 -2.6 8.55 -2.3 8.3 -1.95 9.3 -1.15 9.4 -1.0 9.9 0.05 10.25 -0.1 10.6 -0.05 10.9 0.5 10.85 1.25 10.7 1.4 9.95 1.3 9.95 1.35 Q9.75 2.6 8.65 3.35 L8.55 3.45 8.7 3.75 8.85 4.1 8.85 4.15 8.8 4.2 8.25 4.55 Q7.65 4.75 7.45 4.55 L7.4 4.5 7.35 4.5 7.3 4.25 7.3 3.9 6.35 3.9 5.8 3.75 5.5 3.8 5.0 3.65 4.65 3.2 4.5 2.85 4.35 2.6 Q3.9 2.0 3.8 1.35 L3.8 1.3 3.75 0.95 3.75 0.75 3.15 0.7 3.05 0.65 3.1 0.0 3.35 -0.7 3.45 -0.85 3.55 -0.95 3.65 -0.95 3.7 -0.95 3.8 -0.9 4.05 -0.8 4.15 -0.75 5.1 -1.7" fill="#5c5f5f" fill-rule="evenodd" stroke="none"/>
    <path d="M7.75 -5.2 L7.55 -4.4 7.45 -4.1 7.75 -3.2 7.65 -2.5 7.5 -2.15 7.65 -1.6 7.5 -1.25 Q7.35 -1.1 7.25 -1.1 6.9 -1.05 6.85 -1.3 L6.8 -1.45 7.0 -2.05 6.6 -2.45 6.5 -2.95 6.6 -3.85 6.5 -3.95 6.0 -3.65 5.5 -2.85 4.85 -2.1 4.9 -1.75 4.55 -0.7 3.95 -0.1 4.0 0.05 3.7 1.05 Q3.3 1.85 2.8 1.85 L2.25 1.7 2.15 1.5 Q2.15 0.7 3.0 -0.15 L3.0 -0.25 Q2.95 -1.4 3.85 -2.4 L4.2 -2.65 Q4.35 -3.3 5.15 -4.0 L5.25 -4.1 Q5.25 -4.8 6.25 -5.8 L6.3 -5.85 Q6.2 -6.95 7.0 -6.95 L7.6 -6.75 7.85 -6.4 7.6 -5.75 7.55 -5.6 7.75 -5.2" fill="#404040" fill-rule="evenodd" stroke="none"/>
    <path d="M-1.1 3.4 L-0.85 2.7 -0.75 2.55 -0.65 2.45 -0.55 2.45 -0.5 2.45 -0.4 2.5 -0.15 2.6 -0.05 2.65 Q0.3 2.1 0.9 1.7 1.8 1.0 2.85 1.1 L2.85 0.75 2.9 0.45 3.5 0.3 3.55 0.3 3.65 0.3 3.8 0.3 3.65 0.7 3.5 1.2 4.1 1.45 5.1 2.25 5.0 2.85 4.45 4.05 4.35 4.2 4.6 4.25 4.9 4.3 5.15 4.9 4.85 5.65 4.35 5.85 3.95 5.75 3.75 5.05 3.9 4.6 3.75 4.8 2.9 5.25 2.2 5.4 2.35 5.5 2.6 5.95 2.5 6.35 2.0 6.5 Q1.55 6.45 1.2 6.2 L1.15 6.1 0.95 5.8 0.9 5.75 0.95 5.6 1.1 5.35 1.15 5.35 1.05 5.35 0.2 5.15 0.15 5.15 0.1 5.1 -0.15 4.95 -0.35 4.75 -0.4 4.75 -0.4 4.7 -0.45 4.35 -0.45 4.15 -0.4 3.55 -0.35 3.45 -0.55 3.45 -1.1 3.4 M2.75 2.25 L2.85 2.45 2.9 2.6 2.7 3.1 2.0 3.45 1.4 3.4 1.2 3.25 1.2 3.45 1.35 3.65 2.0 3.95 Q2.75 4.05 3.3 3.45 3.5 3.2 3.35 2.8 L3.1 2.4 2.65 2.2 2.75 2.25" fill="#8e9294" fill-rule="evenodd" stroke="none"/>
    <path d="M3.8 0.3 L3.85 0.35 4.1 0.4 4.4 0.65 4.55 0.75 4.5 0.8 4.35 1.1 4.1 1.45 3.5 1.2 3.65 0.7 3.8 0.3 M5.1 2.25 L5.2 2.4 5.7 3.45 6.05 3.3 6.4 3.35 6.7 3.9 6.65 4.65 6.5 4.8 5.75 4.7 5.75 4.75 Q5.55 6.0 4.45 6.75 L4.35 6.85 4.5 7.15 4.65 7.5 4.65 7.55 4.6 7.6 4.05 7.95 Q3.45 8.15 3.25 7.95 L3.2 7.9 3.15 7.9 3.1 7.65 3.1 7.3 2.15 7.3 1.6 7.15 1.3 7.2 0.8 7.05 0.45 6.6 0.3 6.25 0.15 6.0 -0.4 4.75 -0.35 4.75 -0.15 4.95 0.1 5.1 0.15 5.15 0.2 5.15 1.05 5.35 1.15 5.35 1.1 5.35 0.95 5.6 0.9 5.75 0.95 5.8 1.15 6.1 1.2 6.2 Q1.55 6.45 2.0 6.5 L2.5 6.35 2.6 5.95 2.35 5.5 2.2 5.4 2.9 5.25 3.75 4.8 3.9 4.6 3.75 5.05 3.95 5.75 4.35 5.85 4.85 5.65 5.15 4.9 4.9 4.3 4.6 4.25 4.35 4.2 4.45 4.05 5.0 2.85 5.1 2.25 M-0.45 4.15 L-1.05 4.1 -1.15 4.05 -1.1 3.4 -0.55 3.45 -0.35 3.45 -0.4 3.55 -0.45 4.15 M2.75 2.25 L2.65 2.2 3.1 2.4 3.35 2.8 Q3.5 3.2 3.3 3.45 2.75 4.05 2.0 3.95 L1.35 3.65 1.2 3.45 1.2 3.25 1.4 3.4 2.0 3.45 2.7 3.1 2.9 2.6 2.85 2.45 2.75 2.25" fill="#5c5f5f" fill-rule="evenodd" stroke="none"/>
    <path d="M8.05 -6.4 L-6.45 7.7 -7.65 6.55 6.75 -7.6 8.05 -6.4" fill="#964d2e" fill-rule="evenodd" stroke="none"/>
  </g>
</svg>
