<?xml version="1.0" encoding="UTF-8" standalone="no"?>
<svg xmlns:xlink="http://www.w3.org/1999/xlink" height="14.9px" width="16.4px" xmlns="http://www.w3.org/2000/svg">
  <g transform="matrix(1.0, 0.0, 0.0, 1.0, 7.6, 7.75)">
    <path d="M5.25 -7.2 L4.75 -6.7 -0.65 -1.0 -0.8 -1.55 -2.4 0.55 -2.45 0.55 Q-4.3 3.45 -6.8 5.4 L-6.95 5.55 -7.05 6.8 -5.9 6.75 Q-5.1 4.85 -3.6 3.5 -2.9 2.85 -2.05 2.35 L1.65 -0.1 2.9 -0.9 Q4.3 -1.6 5.85 -2.05 L7.25 -2.1 7.3 -2.55 4.4 -2.55 Q4.2 -2.7 4.5 -2.85 L7.45 -3.8 Q4.0 -4.0 1.45 -1.2 L1.35 -1.2 1.2 -1.2 Q1.8 -2.5 3.85 -3.5 5.95 -4.35 8.3 -4.6 L8.05 -5.5 4.2 -4.85 0.2 -0.85 Q0.1 -2.35 3.95 -5.15 L4.0 -5.15 5.85 -6.55 5.25 -7.2 M3.4 -6.9 L3.75 -7.35 4.25 -7.15 5.3 -7.75 6.35 -6.55 4.95 -5.45 8.3 -5.9 8.8 -4.4 7.8 -4.15 7.8 -3.45 6.1 -2.95 7.65 -2.95 7.6 -1.8 6.65 -1.55 6.65 -1.2 5.3 -0.9 Q3.15 -0.2 1.1 0.9 L-1.8 2.6 Q-4.5 4.2 -5.65 7.15 L-7.3 7.15 -7.6 5.6 -5.2 3.35 -2.85 0.3 Q-0.45 -3.0 2.3 -5.9 L2.25 -5.7 1.55 -4.45 4.25 -6.6 4.1 -6.7 Q3.75 -7.0 3.4 -6.9" fill="#4d7f4b" fill-rule="evenodd" stroke="none"/>
    <path d="M5.25 -7.2 L5.85 -6.55 4.0 -5.15 3.95 -5.15 Q0.1 -2.35 0.2 -0.85 L4.2 -4.85 8.05 -5.5 8.3 -4.6 Q5.95 -4.35 3.85 -3.5 1.8 -2.5 1.2 -1.2 L1.35 -1.2 1.45 -1.2 Q4.0 -4.0 7.45 -3.8 L4.5 -2.85 Q4.2 -2.7 4.4 -2.55 L7.3 -2.55 7.25 -2.1 5.85 -2.05 Q4.3 -1.6 2.9 -0.9 L1.65 -0.1 -2.05 2.35 Q-2.9 2.85 -3.6 3.5 -5.1 4.85 -5.9 6.75 L-7.05 6.8 -6.95 5.55 -6.8 5.4 Q-4.3 3.45 -2.45 0.55 L-2.4 0.55 -0.8 -1.55 -0.65 -1.0 4.75 -6.7 5.25 -7.2 M2.3 -5.9 Q2.8 -6.85 3.4 -6.9 3.75 -7.0 4.1 -6.7 L4.25 -6.6 1.55 -4.45 2.25 -5.7 2.3 -5.9" fill="url(#gradient0)" fill-rule="evenodd" stroke="none"/>
  </g>
  <defs>
    <radialGradient cx="0" cy="0" gradientTransform="matrix(0.0094, -0.025, 0.025, 0.0094, -6.85, 6.2)" gradientUnits="userSpaceOnUse" id="gradient0" r="819.2" spreadMethod="pad">
      <stop offset="0.18823529411764706" stop-color="#ffffcc"/>
      <stop offset="1.0" stop-color="#165823"/>
    </radialGradient>
  </defs>
</svg>
