<?xml version="1.0" encoding="UTF-8" standalone="no"?>
<svg xmlns:xlink="http://www.w3.org/1999/xlink" height="10.05px" width="8.85px" xmlns="http://www.w3.org/2000/svg">
  <g transform="matrix(1.0, 0.0, 0.0, 1.0, 5.1, 4.85)">
    <path d="M-3.4 -2.75 L-3.45 -3.35 -3.35 -3.5 -3.25 -3.6 -3.1 -3.75 -2.5 -4.25 Q-1.05 -5.05 1.15 -4.8 3.0 -4.55 3.25 -4.15 L3.35 -4.05 3.25 -3.85 2.75 -3.2 2.45 -2.95 1.4 -2.85 0.4 -2.65 0.4 -1.4 0.6 1.15 0.7 3.4 0.65 4.5 0.55 5.2 0.0 5.2 -1.25 5.1 -2.1 4.95 -2.15 4.9 -2.3 4.9 -2.45 4.7 -2.5 4.55 -2.45 4.4 -2.45 4.1 -2.35 4.1 -2.3 4.05 -2.05 3.75 -2.1 3.35 -2.55 3.05 -2.55 2.8 -2.95 -0.1 -3.15 -1.2 -2.95 -1.25 Q-2.7 -1.5 -2.7 -1.85 L-2.85 -2.45 -3.05 -2.75 -3.4 -2.75 M-3.7 4.25 L-4.05 4.15 -4.35 3.7 -5.05 0.1 -5.1 -1.6 -4.75 -2.25 -4.75 -2.35 -4.65 -2.4 -4.6 -2.35 -4.0 -1.7 -3.95 -1.4 -3.95 -1.2 -4.1 -0.6 -4.1 -0.5 -4.2 0.4 -4.0 1.8 -3.8 2.65 -3.75 2.95 -3.6 3.05 -3.5 3.35 Q-3.25 3.95 -3.5 4.05 L-3.7 4.25 M3.0 -3.85 Q2.05 -4.5 0.3 -4.4 L-1.95 -4.0 Q-2.4 -3.75 -2.65 -3.65 L-2.85 -3.5 -2.9 -3.4 -2.85 -3.4 -2.7 -3.25 -2.6 -3.25 0.7 -3.15 Q1.9 -3.1 3.0 -3.85" fill="#ffffcc" fill-rule="evenodd" stroke="none"/>
    <path d="M3.0 -3.85 Q1.9 -3.1 0.7 -3.15 L-2.6 -3.25 -2.7 -3.25 -2.85 -3.4 -2.9 -3.4 -2.85 -3.5 -2.65 -3.65 Q-2.4 -3.75 -1.95 -4.0 L0.3 -4.4 Q2.05 -4.5 3.0 -3.85" fill="#936b31" fill-rule="evenodd" stroke="none"/>
    <path d="M3.35 -4.05 L3.5 -3.5 3.65 -1.85 3.75 1.35 3.65 2.9 3.0 4.45 Q2.6 4.9 1.5 5.05 L0.9 5.15 0.55 5.2 0.65 4.5 0.7 3.4 0.6 1.15 0.4 -1.4 0.4 -2.65 1.4 -2.85 2.45 -2.95 2.75 -3.2 3.25 -3.85 3.35 -4.05 M-2.45 4.1 L-3.25 4.2 -3.4 4.2 -3.7 4.25 -3.5 4.05 Q-3.25 3.95 -3.5 3.35 L-3.6 3.05 -3.65 2.95 -3.5 3.1 -3.4 3.15 -2.55 3.05 -2.1 3.35 -2.05 3.75 -2.3 4.05 -2.35 4.1 -2.45 4.1 M-4.65 -2.4 L-4.3 -2.55 -3.4 -2.75 -3.05 -2.75 -2.85 -2.45 -2.7 -1.85 Q-2.7 -1.5 -2.95 -1.25 L-3.15 -1.2 -3.6 -1.1 -3.7 -1.05 -3.95 -0.75 -4.1 -0.6 -3.95 -1.2 -3.95 -1.4 -4.0 -1.7 -4.6 -2.35 -4.65 -2.4" fill="#cbb992" fill-rule="evenodd" stroke="none"/>
    <path d="M3.0 -3.85 Q2.05 -4.5 0.3 -4.4 L-1.95 -4.0 Q-2.4 -3.75 -2.65 -3.65 L-2.85 -3.5 -2.9 -3.4 -2.85 -3.4 -2.7 -3.25 -2.6 -3.25 0.7 -3.15 Q1.9 -3.1 3.0 -3.85 Z" fill="none" stroke="#000000" stroke-linecap="round" stroke-linejoin="round" stroke-opacity="0.4" stroke-width="0.05"/>
  </g>
</svg>
