<?xml version="1.0" encoding="UTF-8" standalone="no"?>
<svg xmlns:xlink="http://www.w3.org/1999/xlink" height="14.15px" width="61.6px" xmlns="http://www.w3.org/2000/svg">
  <g transform="matrix(1.0, 0.0, 0.0, 1.0, 30.45, 7.05)">
    <path d="M-29.9 -1.6 L-29.9 -0.75 -29.95 0.35 -30.45 0.4 -30.4 -1.65 -29.9 -1.6 M30.85 6.6 L17.7 5.4 16.9 3.0 18.75 2.35 19.6 4.7 28.7 5.9 30.1 4.75 30.85 6.6 M27.55 0.35 L16.5 0.9 16.5 0.85 20.65 -0.1 16.55 -0.25 17.0 -2.05 17.3 -3.2 17.5 -3.85 18.5 -5.65 30.95 -6.45 30.1 -4.65 28.75 -5.75 19.55 -4.7 18.7 -2.35 27.55 0.35" fill="#e0e8eb" fill-rule="evenodd" stroke="none"/>
    <path d="M14.75 -0.2 L14.7 -1.2 16.85 -7.05 31.15 -6.95 30.95 -6.45 18.5 -5.65 17.5 -3.85 17.3 -3.2 17.0 -2.05 16.55 -0.25 20.65 -0.1 16.5 0.85 16.5 0.9 27.55 0.35 18.7 2.25 18.75 2.35 16.9 3.0 17.7 5.4 30.85 6.6 31.05 7.1 16.75 7.0 15.05 1.4 14.7 0.85 14.75 -0.2" fill="#b8c9cf" fill-rule="evenodd" stroke="none"/>
    <path d="M14.7 -1.2 L14.75 -0.2 -29.9 -0.75 -29.9 -1.6 14.7 -1.2" fill="#ffcc00" fill-rule="evenodd" stroke="none"/>
    <path d="M-29.9 -0.75 L14.75 -0.2 14.7 0.85 -29.95 0.35 -29.9 -0.75" fill="#de9f10" fill-rule="evenodd" stroke="none"/>
    <path d="M14.75 -0.2 L14.7 -1.2 -29.9 -1.6 -29.9 -0.75 -29.95 0.35 14.7 0.85 15.05 1.4 16.75 7.0 31.05 7.1 30.85 6.6 M14.75 -0.2 L14.7 0.85 M18.75 2.35 L18.7 2.25 27.55 0.35 M30.95 -6.45 L31.15 -6.95 16.85 -7.05 14.7 -1.2 M30.95 -6.45 L30.1 -4.65 28.75 -5.75 19.55 -4.7 18.7 -2.35 27.55 0.35 M18.75 2.35 L19.6 4.7 28.7 5.9 30.1 4.75 30.85 6.6" fill="none" stroke="#000000" stroke-linecap="round" stroke-linejoin="round" stroke-opacity="0.4" stroke-width="0.05"/>
  </g>
</svg>
