<?xml version="1.0" encoding="UTF-8" standalone="no"?>
<svg xmlns:xlink="http://www.w3.org/1999/xlink" height="17.55px" width="18.6px" xmlns="http://www.w3.org/2000/svg">
  <g transform="matrix(1.0, 0.0, 0.0, 1.0, 8.1, 9.15)">
    <path d="M2.75 -2.85 Q2.45 -3.15 2.5 -3.45 L3.05 -3.45 4.1 -4.35 4.95 -5.3 5.95 -6.35 6.8 -7.45 7.35 -8.6 7.4 -8.6 7.45 -8.8 7.85 -8.45 8.45 -7.8 9.0 -7.2 Q9.4 -6.7 9.3 -6.25 L8.95 -5.75 9.05 -5.3 9.1 -4.8 Q9.05 -4.45 8.25 -4.15 7.4 -3.85 7.35 -3.45 7.25 -2.9 6.6 -2.9 L5.4 -3.0 4.9 -2.7 4.75 -2.6 4.5 -2.6 4.2 -2.65 4.3 -2.55 4.45 -2.3 4.6 -2.0 4.35 -2.05 5.0 -1.3 Q5.65 -0.4 5.55 0.05 5.45 0.65 4.75 0.95 L4.6 1.05 3.55 0.85 3.65 0.85 4.45 0.65 Q4.85 0.4 4.7 -0.15 L4.3 -1.25 3.7 -1.85 3.5 -2.0 3.55 -2.05 3.5 -2.1 3.65 -2.1 3.55 -2.2 3.2 -2.45 3.15 -2.5 2.75 -2.85 M-7.7 8.05 L-8.1 7.8 -8.0 7.65 -7.55 7.95 -7.7 8.05 M7.2 -7.1 L5.55 -5.15 3.45 -3.2 3.4 -3.2 3.8 -2.95 4.45 -3.45 5.4 -4.3 6.75 -5.9 Q7.55 -7.0 7.3 -7.1 L7.2 -7.1" fill="#e0e8eb" fill-rule="evenodd" stroke="none"/>
    <path d="M7.45 -8.8 L7.65 -9.15 9.65 -7.3 10.3 -6.35 10.5 -5.3 10.2 -4.2 9.9 -3.75 9.25 -3.1 Q8.8 -2.8 8.2 -2.65 L5.25 -2.3 6.2 -1.35 6.55 -0.45 Q6.45 0.15 5.95 0.55 L4.7 1.0 4.6 1.05 4.75 0.95 Q5.45 0.65 5.55 0.05 5.65 -0.4 5.0 -1.3 L4.35 -2.05 4.6 -2.0 4.45 -2.3 4.3 -2.55 4.2 -2.65 4.5 -2.6 4.75 -2.6 4.9 -2.7 5.4 -3.0 6.6 -2.9 Q7.25 -2.9 7.35 -3.45 7.4 -3.85 8.25 -4.15 9.05 -4.45 9.1 -4.8 L9.05 -5.3 8.95 -5.75 9.3 -6.25 Q9.4 -6.7 9.0 -7.2 L8.45 -7.8 7.85 -8.45 7.45 -8.8 M-7.05 8.3 L-7.15 8.4 -7.7 8.05 -7.55 7.95 -7.05 8.3 M7.2 -7.1 L7.3 -7.1 Q7.55 -7.0 6.75 -5.9 L5.4 -4.3 4.45 -3.45 3.8 -2.95 3.4 -3.2 3.45 -3.2 5.55 -5.15 7.2 -7.1" fill="#b8c9cf" fill-rule="evenodd" stroke="none"/>
    <path d="M3.5 -2.0 L-7.05 8.3 -7.55 7.95 0.75 -0.1 3.15 -2.5 3.2 -2.45 3.55 -2.2 3.65 -2.1 3.5 -2.1 3.55 -2.05 3.5 -2.0" fill="#000000" fill-rule="evenodd" stroke="none"/>
    <path d="M-8.0 7.65 L2.75 -2.85 3.15 -2.5 0.75 -0.1 -7.55 7.95 -8.0 7.65" fill="#6b5a50" fill-rule="evenodd" stroke="none"/>
  </g>
</svg>
