<?xml version="1.0" encoding="UTF-8" standalone="no"?>
<svg xmlns:xlink="http://www.w3.org/1999/xlink" height="16.6px" width="16.95px" xmlns="http://www.w3.org/2000/svg">
  <g transform="matrix(1.0, 0.0, 0.0, 1.0, 8.35, 8.45)">
    <path d="M4.05 -7.0 L4.25 -7.45 8.0 -2.9 7.55 -2.5 6.85 -3.3 4.05 -7.0 M7.5 -2.45 L6.5 -1.55 6.8 -2.15 7.5 -2.45 M5.7 -0.85 L4.75 -0.25 4.9 -0.7 Q5.3 -1.45 5.7 -0.85 M-6.1 4.7 L-6.3 3.7 Q-6.05 3.6 -5.95 3.85 -5.75 4.4 -6.1 4.7 M-3.85 2.1 L-3.05 1.0 -2.9 1.25 Q-3.25 1.95 -3.85 2.1 M-1.7 -0.05 L-0.2 -1.6 Q0.0 -1.9 -0.25 -2.05 L-0.2 -2.3 -0.15 -2.3 Q0.2 -1.75 -0.2 -1.15 L-0.3 -1.0 -0.55 -0.9 -0.65 -0.65 -1.7 -0.05 M3.25 -5.05 L3.2 -5.0 3.2 -5.05 3.15 -5.1 3.25 -5.05 M4.75 -2.95 L4.35 -4.0 5.0 -3.3 5.4 -3.6 5.1 -4.25 5.5 -3.95 5.7 -3.75 6.05 -3.9 6.15 -3.75 5.95 -3.5 6.1 -3.3 5.9 -3.15 5.4 -2.9 5.45 -2.75 4.9 -2.8 4.75 -2.95 M2.95 0.75 L3.25 1.25 -0.9 4.8 -1.2 4.45 2.95 0.75 M-0.9 2.5 L-1.35 3.0 Q-1.35 2.0 -1.05 2.3 L-0.9 2.5" fill="#c7c68d" fill-rule="evenodd" stroke="none"/>
    <path d="M4.05 -7.0 L-7.35 4.1 -7.8 3.6 3.95 -7.8 4.25 -7.45 4.05 -7.0 M7.55 -2.5 L7.5 -2.45 6.8 -2.15 6.5 -1.55 5.7 -0.85 Q5.3 -1.45 4.9 -0.7 L4.75 -0.25 4.25 -0.85 3.15 -0.15 4.05 -0.35 4.45 0.25 3.65 0.95 3.0 0.1 -1.8 4.4 -1.3 5.15 -2.15 5.7 -1.75 4.95 -2.7 5.45 -2.4 6.1 -3.65 7.2 -6.1 4.7 Q-5.75 4.4 -5.95 3.85 -6.05 3.6 -6.3 3.7 L-6.35 3.65 -6.1 3.5 -5.9 3.65 -5.65 3.75 -3.85 2.1 Q-3.25 1.95 -2.9 1.25 L-3.05 1.0 -3.1 0.85 -3.2 0.7 -2.7 0.6 -1.7 -0.05 -0.65 -0.65 -0.2 -0.25 Q0.55 -0.25 0.65 -1.05 L-0.3 -1.0 -0.2 -1.15 Q0.2 -1.75 -0.15 -2.3 L0.3 -2.75 0.65 -2.5 Q0.85 -2.35 1.05 -2.6 L2.95 -4.2 5.2 -1.9 6.85 -3.3 7.55 -2.5 M-0.25 -2.05 L-0.35 -2.15 -0.2 -2.3 -0.25 -2.05 M3.15 -5.1 L2.9 -5.35 3.95 -6.4 4.3 -6.0 3.25 -5.05 3.15 -5.1 M6.05 -3.9 L5.7 -3.75 5.5 -3.95 5.1 -4.25 5.4 -3.6 5.0 -3.3 4.35 -4.0 4.75 -2.95 3.55 -4.5 3.6 -4.7 4.6 -5.65 6.05 -3.9 M5.45 -2.75 L5.4 -2.9 5.9 -3.15 5.45 -2.75 M6.1 -3.3 L5.95 -3.5 6.15 -3.75 6.35 -3.5 6.1 -3.3 M2.75 -2.1 L3.35 -2.7 4.15 -1.9 3.65 -1.35 2.75 -2.1 M1.75 -0.1 L0.85 -0.1 0.85 0.6 1.75 0.6 1.75 -0.1 M3.7 -0.8 L4.7 -1.8 3.3 -3.3 2.2 -2.2 3.7 -0.8 M0.05 1.95 L0.1 1.1 Q0.0 0.5 -0.2 1.05 L-0.35 1.65 -0.5 1.65 Q-0.9 2.0 -0.35 2.25 0.0 2.25 0.05 1.95 M-0.9 2.5 L-1.05 2.3 Q-1.35 2.0 -1.35 3.0 L-0.9 2.5 M-2.95 5.45 L-3.25 5.45 Q-4.3 6.25 -3.8 6.8 L-2.95 5.45 M-3.65 4.1 L-3.65 3.4 -4.75 3.4 -4.75 4.1 -3.65 4.1 M-2.8 4.1 L-3.2 4.45 Q-3.65 4.7 -3.1 5.05 L-2.8 4.85 -2.55 4.2 Q-2.45 3.85 -2.8 4.1 M-3.35 2.1 L-3.6 2.2 Q-3.85 2.65 -3.35 2.95 L-3.1 2.9 Q-2.45 2.75 -2.45 2.25 -2.35 1.75 -2.8 1.85 -3.25 2.0 -3.2 2.35 L-3.35 2.1 M-5.35 3.95 L-5.6 5.2 -4.75 4.45 -5.35 3.95" fill="#ffffcc" fill-rule="evenodd" stroke="none"/>
    <path d="M4.25 -7.45 L3.95 -7.8 -7.8 3.6 -7.35 4.1 4.05 -7.0 6.85 -3.3 5.2 -1.9 2.95 -4.2 1.05 -2.6 Q0.85 -2.35 0.65 -2.5 L0.3 -2.75 -0.15 -2.3 -0.2 -2.3 -0.35 -2.15 -0.25 -2.05 Q0.0 -1.9 -0.2 -1.6 L-1.7 -0.05 -2.7 0.6 -3.2 0.7 -3.1 0.85 -3.05 1.0 -3.85 2.1 -5.65 3.75 -5.9 3.65 -6.1 3.5 -6.35 3.65 -6.3 3.7 -6.1 4.7 -3.65 7.2 -2.4 6.1 -2.7 5.45 -1.75 4.95 -2.15 5.7 -1.3 5.15 -1.8 4.4 3.0 0.1 3.65 0.95 4.45 0.25 4.05 -0.35 3.15 -0.15 4.25 -0.85 4.75 -0.25 5.7 -0.85 6.5 -1.55 7.5 -2.45 7.55 -2.5 8.0 -2.9 4.25 -7.45 M3.15 -5.1 L3.2 -5.05 3.2 -5.0 3.25 -5.05 4.3 -6.0 3.95 -6.4 2.9 -5.35 3.15 -5.1 M6.05 -3.9 L4.6 -5.65 3.6 -4.7 3.55 -4.5 4.75 -2.95 4.9 -2.8 5.45 -2.75 5.9 -3.15 6.1 -3.3 6.35 -3.5 6.15 -3.75 6.05 -3.9 M1.75 -0.1 L1.75 0.6 0.85 0.6 0.85 -0.1 1.75 -0.1 M2.75 -2.1 L3.65 -1.35 4.15 -1.9 3.35 -2.7 2.75 -2.1 M3.7 -0.8 L2.2 -2.2 3.3 -3.3 4.7 -1.8 3.7 -0.8 M8.6 -2.85 L-4.1 8.15 -8.35 3.55 3.9 -8.45 8.6 -2.85 M2.95 0.75 L-1.2 4.45 -0.9 4.8 3.25 1.25 2.95 0.75 M0.05 1.95 Q0.0 2.25 -0.35 2.25 -0.9 2.0 -0.5 1.65 L-0.35 1.65 -0.2 1.05 Q0.0 0.5 0.1 1.1 L0.05 1.95 M-0.3 -1.0 L0.65 -1.05 Q0.55 -0.25 -0.2 -0.25 L-0.65 -0.65 -0.55 -0.9 -0.3 -1.0 M-3.35 2.1 L-3.2 2.35 Q-3.25 2.0 -2.8 1.85 -2.35 1.75 -2.45 2.25 -2.45 2.75 -3.1 2.9 L-3.35 2.95 Q-3.85 2.65 -3.6 2.2 L-3.35 2.1 M-2.8 4.1 Q-2.45 3.85 -2.55 4.2 L-2.8 4.85 -3.1 5.05 Q-3.65 4.7 -3.2 4.45 L-2.8 4.1 M-3.65 4.1 L-4.75 4.1 -4.75 3.4 -3.65 3.4 -3.65 4.1 M-2.95 5.45 L-3.8 6.8 Q-4.3 6.25 -3.25 5.45 L-2.95 5.45 M-5.35 3.95 L-4.75 4.45 -5.6 5.2 -5.35 3.95" fill="#837b41" fill-rule="evenodd" stroke="none"/>
  </g>
</svg>
