<?xml version="1.0" encoding="UTF-8" standalone="no"?>
<svg xmlns:xlink="http://www.w3.org/1999/xlink" height="9.6px" width="14.05px" xmlns="http://www.w3.org/2000/svg">
  <g transform="matrix(1.0, 0.0, 0.0, 1.0, 7.3, 4.25)">
    <path d="M-3.05 -2.8 L-2.9 -2.85 -2.85 -2.9 -2.15 -3.0 -1.95 -3.05 -2.0 -2.75 -2.15 -2.8 -2.9 -2.8 -3.05 -2.8 M0.3 -3.35 L1.25 -3.35 1.15 -3.15 0.55 -2.65 0.45 -2.6 0.4 -2.55 0.3 -2.4 0.35 -2.25 0.4 -2.2 -0.25 -2.15 -0.35 -2.05 -0.55 -2.0 -0.65 -2.05 0.35 -2.6 0.45 -2.75 0.45 -2.8 0.3 -3.3 0.3 -3.35 M3.05 -3.15 L3.35 -3.1 3.7 -3.05 4.0 -2.95 3.95 -2.95 3.9 -2.95 3.7 -2.8 3.65 -2.8 3.65 -2.75 3.45 -2.7 3.4 -2.7 3.2 -2.75 3.15 -2.8 3.15 -2.9 3.15 -2.95 3.15 -3.0 3.1 -3.05 3.05 -3.15 M1.5 -1.55 L1.5 -1.6 1.5 -1.75 1.35 -1.9 0.7 -2.15 1.55 -2.8 1.55 -2.85 1.95 -3.05 2.05 -3.0 2.2 -3.0 2.35 -3.0 2.65 -2.8 2.7 -2.7 2.8 -2.45 2.85 -2.4 2.9 -2.35 2.8 -2.25 2.4 -1.8 2.3 -1.6 2.3 -1.5 2.25 -1.5 2.15 -1.5 1.85 -1.5 1.5 -1.55 M2.5 -1.35 L2.55 -1.35 2.7 -1.4 3.1 -1.8 3.35 -1.7 3.5 -1.7 4.0 -1.7 4.05 -1.7 4.15 -1.7 4.35 -1.7 4.45 -1.7 5.6 -2.15 5.8 -2.15 Q5.0 -1.55 1.8 -0.75 L1.85 -0.85 1.85 -0.95 2.35 -1.1 2.45 -1.3 2.5 -1.35 M1.05 -0.9 Q0.55 -0.8 0.1 -1.25 L-0.2 -1.6 -0.15 -1.65 -0.1 -1.65 1.15 -1.45 1.2 -1.45 Q0.75 -1.2 0.9 -0.95 L1.05 -0.9 M5.05 -2.35 L4.65 -2.25 4.65 -2.3 4.6 -2.4 4.5 -2.55 5.05 -2.35 M4.1 -2.3 L4.05 -2.3 3.9 -2.2 3.5 -2.2 Q3.75 -2.2 4.0 -2.4 L4.05 -2.35 4.1 -2.3 M-4.5 3.5 L-4.35 3.6 -4.4 3.6 -4.5 3.5 M-5.75 -1.85 L-5.45 -1.85 -5.4 -1.85 -5.0 -1.8 -4.45 -1.55 -4.2 -1.35 -4.05 -1.2 -4.0 -1.1 Q-4.9 -1.4 -5.75 -1.85 M-3.6 -1.0 L-3.5 -1.0 -3.35 -1.05 -3.25 -1.2 -3.25 -1.35 -3.35 -1.45 -3.4 -1.5 -3.25 -1.5 -2.65 -1.6 -2.6 -1.45 -2.45 -1.35 -1.95 -1.3 -2.25 -0.75 -2.3 -0.65 -3.6 -1.0 M-4.3 -2.1 L-4.55 -2.4 -4.5 -2.4 -4.4 -2.25 -4.25 -2.25 -4.3 -2.1 M-4.05 -2.45 L-4.0 -2.55 -3.55 -2.7 -4.05 -2.45 M-1.65 -2.35 L-1.55 -2.4 -1.5 -2.6 -1.45 -3.1 -1.45 -3.05 -1.4 -3.15 -1.35 -3.2 -0.4 -3.3 -0.2 -3.15 -0.1 -3.05 -0.05 -2.95 -0.05 -2.9 -1.1 -2.4 -1.05 -2.45 -1.65 -2.3 -1.65 -2.35 M-1.95 -1.95 L-1.9 -1.85 -1.95 -1.85 -2.15 -1.8 -1.95 -1.95 M-1.75 -0.55 L-1.5 -1.1 -0.85 -1.7 -0.8 -1.55 -0.25 -0.9 0.25 -0.5 -1.75 -0.55" fill="#97cf41" fill-rule="evenodd" stroke="none"/>
    <path d="M4.2 -3.15 L3.75 -3.3 3.7 -3.3 3.85 -3.25 4.1 -3.05 4.0 -2.95 3.7 -3.05 3.35 -3.1 3.05 -3.15 3.05 -3.2 3.0 -3.4 2.85 -3.9 2.4 -4.15 1.85 -3.95 1.4 -3.5 1.35 -3.5 1.25 -3.35 0.3 -3.35 0.25 -3.45 0.15 -3.55 -0.6 -3.85 -0.65 -3.85 -1.75 -3.55 -1.75 -3.5 -1.9 -3.2 -1.95 -3.2 -1.95 -3.05 -2.15 -3.0 -2.85 -2.9 -2.9 -2.85 -3.05 -2.8 -3.1 -2.8 -3.1 -2.95 -3.3 -3.5 -3.4 -3.6 -3.6 -3.65 -3.75 -3.55 -3.8 -3.4 -3.85 -3.35 -3.8 -3.5 -3.85 -3.35 -3.95 -3.5 -4.0 -3.55 -2.15 -4.0 -0.05 -4.2 1.95 -4.2 3.95 -4.0 4.9 -3.75 4.7 -3.65 4.2 -3.15 M2.55 -3.45 L2.45 -3.5 2.5 -3.45 2.2 -3.5 2.15 -3.5 2.15 -3.55 2.4 -3.65 2.45 -3.65 2.5 -3.55 2.6 -3.5 2.55 -3.45 M5.8 -2.15 L6.0 -2.2 6.05 -2.4 6.0 -2.55 5.8 -2.65 5.7 -2.65 5.75 -2.7 5.75 -2.85 5.5 -3.45 5.7 -3.35 Q6.5 -2.9 6.55 -2.2 L6.6 -2.2 6.25 -1.9 5.2 -0.95 Q4.4 -0.35 3.45 0.0 3.0 -0.6 2.7 0.1 L2.7 0.15 1.8 0.45 1.3 1.5 0.95 0.55 Q0.2 -0.5 -0.15 1.35 -0.4 2.5 -0.25 3.25 L-1.5 3.5 -1.6 2.4 Q-1.9 1.35 -2.3 0.8 -2.75 0.15 -3.0 0.3 -3.3 0.45 -3.35 1.2 -3.5 2.45 -3.15 3.3 L-4.1 3.0 -4.4 1.5 -4.9 -0.5 -5.45 -0.8 -5.7 0.05 Q-5.7 1.4 -5.15 2.45 L-5.85 2.05 -6.3 1.0 -6.6 -0.7 -6.45 -1.05 -6.1 -1.7 -5.75 -1.85 Q-4.9 -1.4 -4.0 -1.1 L-3.75 -0.95 -3.65 -0.95 -3.6 -1.0 -2.3 -0.65 -2.3 -0.55 -2.2 -0.4 -2.0 -0.35 -1.85 -0.45 -1.75 -0.55 0.25 -0.5 Q0.95 -0.15 1.75 -0.7 L1.8 -0.75 Q5.0 -1.55 5.8 -2.15 M4.75 -3.0 L5.0 -3.2 5.25 -2.85 4.75 -3.0 M-5.45 -3.05 L-5.4 -3.0 -5.15 -2.4 -5.15 -2.35 -5.45 -2.35 -5.5 -2.35 -6.4 -2.1 -6.45 -2.05 -6.75 -1.6 -6.85 -2.35 -5.45 -3.05 M-4.55 -2.4 L-4.65 -2.5 -4.7 -2.55 -4.7 -2.6 -4.95 -3.15 -4.55 -3.3 -4.45 -3.25 -4.35 -3.2 -4.4 -2.9 -4.4 -2.85 -4.5 -2.6 -4.5 -2.4 -4.55 -2.4 M-4.0 -2.55 L-3.95 -2.6 -3.6 -2.9 -3.55 -2.75 -3.55 -2.7 -4.0 -2.55 M-1.35 -3.2 L-0.65 -3.35 -0.4 -3.3 -1.35 -3.2" fill="#bae776" fill-rule="evenodd" stroke="none"/>
    <path d="M6.6 -2.2 L6.6 -1.95 6.7 -1.3 6.7 -1.05 6.75 -0.95 6.5 0.65 Q6.2 1.6 5.35 2.45 4.5 3.25 3.45 3.85 L2.9 4.1 2.95 4.65 1.85 5.05 0.85 5.35 -1.6 5.25 -3.65 4.6 -3.75 4.45 -3.75 4.2 -3.6 4.15 -4.35 3.6 -4.5 3.5 -4.6 3.4 -5.15 3.0 -5.85 2.05 -5.15 2.45 Q-5.7 1.4 -5.7 0.05 L-5.45 -0.8 -4.9 -0.5 -4.4 1.5 -4.1 3.0 -3.15 3.3 Q-3.5 2.45 -3.35 1.2 -3.3 0.45 -3.0 0.3 -2.75 0.15 -2.3 0.8 -1.9 1.35 -1.6 2.4 L-1.5 3.5 -0.25 3.25 Q-0.4 2.5 -0.15 1.35 0.2 -0.5 0.95 0.55 L1.3 1.5 1.8 0.45 2.7 0.15 2.7 0.1 Q3.0 -0.6 3.45 0.0 4.4 -0.35 5.2 -0.95 L6.25 -1.9 6.6 -2.2" fill="#7cb02d" fill-rule="evenodd" stroke="none"/>
    <path d="M-3.1 -2.8 L-3.05 -2.8 -2.9 -2.8 -2.15 -2.8 -2.0 -2.75 -2.0 -2.6 -1.9 -2.4 -1.75 -2.35 -1.65 -2.35 -1.65 -2.3 -1.7 -2.3 -1.85 -2.2 -1.95 -2.05 -1.95 -1.95 -2.15 -1.8 -2.35 -1.85 -2.5 -1.8 -2.65 -1.65 -2.65 -1.6 -3.25 -1.5 -3.4 -1.5 -4.3 -2.1 -4.25 -2.25 -4.2 -2.25 -4.05 -2.4 -4.05 -2.45 -3.55 -2.7 -3.45 -2.6 -3.25 -2.6 -3.1 -2.75 -3.1 -2.8 M2.3 -1.5 L2.35 -1.45 2.5 -1.35 2.45 -1.3 2.35 -1.1 1.85 -0.95 1.8 -1.05 1.65 -1.15 1.45 -1.1 Q1.25 -0.95 1.05 -0.9 L0.9 -0.95 Q0.75 -1.2 1.2 -1.45 L1.35 -1.45 1.5 -1.55 1.85 -1.5 2.15 -1.5 2.25 -1.5 2.3 -1.5 M1.75 -1.3 L1.7 -1.4 1.6 -1.35 1.55 -1.2 1.6 -1.2 1.75 -1.25 1.75 -1.3 M-3.05 -2.4 L-3.05 -2.45 -3.2 -2.45 -3.35 -2.4 -3.55 -2.35 -3.7 -2.2 -3.7 -2.1 -3.2 -2.0 -2.95 -1.95 -2.55 -2.1 -2.45 -2.2 -2.5 -2.35 -2.6 -2.45 -2.9 -2.45 -2.95 -2.3 -2.65 -2.25 -2.7 -2.2 -3.05 -2.2 -3.1 -2.2 -3.5 -2.2 -3.4 -2.3 -3.25 -2.3 -3.05 -2.4" fill="#ff9999" fill-rule="evenodd" stroke="none"/>
    <path d="M4.1 -3.05 L4.2 -3.15 4.7 -3.65 4.9 -3.75 Q5.15 -3.85 5.4 -3.6 L5.5 -3.45 5.75 -2.85 5.75 -2.7 5.7 -2.65 5.8 -2.65 6.0 -2.55 6.05 -2.4 6.0 -2.2 5.8 -2.15 5.6 -2.15 4.45 -1.7 4.35 -1.7 4.15 -1.7 4.05 -1.7 4.0 -1.7 3.5 -1.7 3.35 -1.7 3.1 -1.8 2.7 -1.4 2.55 -1.35 2.5 -1.35 2.35 -1.45 2.3 -1.5 2.3 -1.6 2.4 -1.8 2.8 -2.25 2.9 -2.35 2.85 -2.4 2.8 -2.45 2.7 -2.7 2.65 -2.8 2.35 -3.0 2.2 -3.0 2.05 -3.0 1.95 -3.05 1.55 -2.85 1.55 -2.8 0.7 -2.15 1.35 -1.9 1.5 -1.75 1.5 -1.6 1.5 -1.55 1.35 -1.45 1.2 -1.45 1.15 -1.45 -0.1 -1.65 -0.15 -1.65 -0.2 -1.6 0.1 -1.25 Q0.55 -0.8 1.05 -0.9 1.25 -0.95 1.45 -1.1 L1.65 -1.15 1.8 -1.05 1.85 -0.95 1.85 -0.85 1.8 -0.75 1.75 -0.7 Q0.95 -0.15 0.25 -0.5 L-0.25 -0.9 -0.8 -1.55 -0.85 -1.7 -1.5 -1.1 -1.75 -0.55 -1.85 -0.45 -2.0 -0.35 -2.2 -0.4 -2.3 -0.55 -2.3 -0.65 -2.25 -0.75 -1.95 -1.3 -2.45 -1.35 -2.6 -1.45 -2.65 -1.6 -2.65 -1.65 -2.5 -1.8 -2.35 -1.85 -2.15 -1.8 -1.95 -1.85 -1.9 -1.85 -1.95 -1.95 -1.95 -2.05 -1.85 -2.2 -1.7 -2.3 -1.65 -2.3 -1.05 -2.45 -1.1 -2.4 -0.05 -2.9 -0.05 -2.95 -0.1 -3.05 -0.2 -3.15 -0.4 -3.3 -0.65 -3.35 -1.35 -3.2 -1.4 -3.15 -1.45 -3.05 -1.45 -3.1 -1.5 -2.6 -1.55 -2.4 -1.65 -2.35 -1.75 -2.35 -1.9 -2.4 -2.0 -2.6 -2.0 -2.75 -1.95 -3.05 -1.95 -3.2 -1.9 -3.2 -1.75 -3.5 -1.75 -3.55 -0.65 -3.85 -0.6 -3.85 0.15 -3.55 0.25 -3.45 0.3 -3.35 0.3 -3.3 0.45 -2.8 0.45 -2.75 0.35 -2.6 -0.65 -2.05 -0.55 -2.0 -0.35 -2.05 -0.25 -2.15 0.4 -2.2 0.35 -2.25 0.3 -2.4 0.4 -2.55 0.45 -2.6 0.55 -2.65 1.15 -3.15 1.25 -3.35 1.35 -3.5 1.4 -3.5 1.85 -3.95 2.4 -4.15 2.85 -3.9 3.0 -3.4 3.05 -3.2 3.05 -3.15 3.1 -3.05 3.15 -3.0 3.15 -2.95 3.15 -2.9 3.15 -2.8 3.2 -2.75 3.4 -2.7 3.45 -2.7 3.65 -2.75 3.65 -2.8 3.7 -2.8 3.9 -2.95 3.95 -2.95 4.0 -2.95 4.1 -3.05 M-4.0 -3.55 L-3.95 -3.5 -3.85 -3.35 -3.8 -3.5 -3.85 -3.35 -3.8 -3.4 -3.75 -3.55 -3.6 -3.65 -3.4 -3.6 -3.3 -3.5 -3.1 -2.95 -3.1 -2.8 -3.1 -2.75 -3.25 -2.6 -3.45 -2.6 -3.55 -2.7 -3.55 -2.75 -3.6 -2.9 -3.95 -2.6 -4.0 -2.55 -4.05 -2.45 -4.05 -2.4 -4.2 -2.25 -4.25 -2.25 -4.4 -2.25 -4.5 -2.4 -4.5 -2.6 -4.4 -2.85 -4.4 -2.9 -4.35 -3.2 -4.45 -3.25 -4.55 -3.3 -4.95 -3.15 -4.7 -2.6 -4.7 -2.55 -4.65 -2.5 -4.55 -2.4 -4.3 -2.1 -3.4 -1.5 -3.35 -1.45 -3.25 -1.35 -3.25 -1.2 -3.35 -1.05 -3.5 -1.0 -3.6 -1.0 -3.65 -0.95 -3.75 -0.95 -4.0 -1.1 -4.05 -1.2 -4.2 -1.35 -4.45 -1.55 -5.0 -1.8 -5.4 -1.85 -5.45 -1.85 -5.75 -1.85 -6.1 -1.7 -6.45 -1.05 -6.6 -0.7 -6.8 -0.2 -6.95 -0.05 -7.1 -0.05 -7.25 -0.2 -7.25 -0.35 -6.9 -1.25 -6.75 -1.6 -6.45 -2.05 -6.4 -2.1 -5.5 -2.35 -5.45 -2.35 -5.15 -2.35 -5.15 -2.4 -5.4 -3.0 -5.45 -3.05 -5.5 -3.2 -5.5 -3.25 -5.4 -3.4 -5.25 -3.5 -5.2 -3.55 -5.35 -3.5 -4.65 -3.8 -4.6 -3.8 -4.2 -3.7 -4.0 -3.55 M2.55 -3.45 L2.6 -3.5 2.5 -3.55 2.45 -3.65 2.4 -3.65 2.15 -3.55 2.15 -3.5 2.2 -3.5 2.5 -3.45 2.45 -3.5 2.55 -3.45 M1.75 -1.3 L1.75 -1.25 1.6 -1.2 1.55 -1.2 1.6 -1.35 1.7 -1.4 1.75 -1.3 M4.5 -2.55 L4.6 -2.4 4.65 -2.3 4.65 -2.25 5.05 -2.35 5.35 -2.55 5.4 -2.55 5.3 -2.7 5.25 -2.85 5.0 -3.2 4.75 -3.0 4.55 -2.8 4.45 -2.7 4.4 -2.7 4.45 -2.65 4.5 -2.55 M4.1 -2.3 L4.05 -2.35 4.0 -2.4 Q3.75 -2.2 3.5 -2.2 L3.9 -2.2 4.05 -2.3 4.1 -2.3 M-3.05 -2.4 L-3.25 -2.3 -3.4 -2.3 -3.5 -2.2 -3.1 -2.2 -3.05 -2.2 -2.7 -2.2 -2.65 -2.25 -2.95 -2.3 -2.9 -2.45 -2.6 -2.45 -2.5 -2.35 -2.45 -2.2 -2.55 -2.1 -2.95 -1.95 -3.2 -2.0 -3.7 -2.1 -3.7 -2.2 -3.55 -2.35 -3.35 -2.4 -3.2 -2.45 -3.05 -2.45 -3.05 -2.4" fill="#ffffcc" fill-rule="evenodd" stroke="none"/>
    <path d="M4.1 -3.05 L3.85 -3.25 3.7 -3.3 3.75 -3.3 4.2 -3.15 4.1 -3.05" fill="#000000" fill-opacity="0.4" fill-rule="evenodd" stroke="none"/>
  </g>
</svg>
