<?xml version="1.0" encoding="UTF-8" standalone="no"?>
<svg xmlns:xlink="http://www.w3.org/1999/xlink" height="12.0px" width="12.0px" xmlns="http://www.w3.org/2000/svg">
  <g transform="matrix(1.0, 0.0, 0.0, 1.0, 6.0, 6.0)">
    <path d="M4.25 -4.25 Q6.0 -2.5 6.0 0.0 6.0 2.5 4.25 4.25 2.5 6.0 0.0 6.0 -2.5 6.0 -4.25 4.25 -6.0 2.5 -6.0 0.0 -6.0 -2.5 -4.25 -4.25 -2.5 -6.0 0.0 -6.0 2.5 -6.0 4.25 -4.25" fill="#ffffff" fill-opacity="0.101960786" fill-rule="evenodd" stroke="none"/>
    <path d="M0.7 -0.75 L1.0 0.0 0.7 0.7 0.0 1.0 -0.7 0.7 -1.0 0.0 -0.7 -0.75 0.0 -1.0 0.7 -0.75" fill="#ffffff" fill-rule="evenodd" stroke="none"/>
  </g>
</svg>
