<?xml version="1.0" encoding="UTF-8" standalone="no"?>
<svg xmlns:xlink="http://www.w3.org/1999/xlink" height="7.65px" width="42.65px" xmlns="http://www.w3.org/2000/svg">
  <g transform="matrix(1.0, 0.0, 0.0, 1.0, 16.7, 2.5)">
    <path d="M-3.45 -0.85 L-3.45 -2.4 16.75 0.6 20.8 -1.65 22.2 0.6 24.0 0.05 23.75 0.15 22.45 0.95 22.15 1.1 21.8 1.3 21.8 1.35 21.25 1.45 20.15 1.95 18.95 2.6 15.0 2.8 11.1 2.1 8.7 1.65 6.3 1.2 0.75 -0.1 -1.65 -0.55 -2.95 -0.75 -3.45 -0.85" fill="#e0e8eb" fill-rule="evenodd" stroke="none"/>
    <path d="M-3.45 -0.85 L-2.95 -0.75 -1.65 -0.55 0.75 -0.1 6.3 1.2 8.7 1.65 11.1 2.1 15.0 2.8 18.95 2.6 20.15 1.95 21.25 1.45 21.8 1.35 21.8 1.3 22.15 1.1 22.45 0.95 23.75 0.15 24.0 0.05 25.95 -0.55 23.25 2.9 18.0 5.1 14.65 5.15 -3.5 0.2 -3.45 -0.85" fill="#b8c9cf" fill-rule="evenodd" stroke="none"/>
    <path d="M-16.65 -1.4 L-3.45 -0.85 -3.5 0.2 -16.7 0.05 -16.65 -1.4" fill="#000000" fill-rule="evenodd" stroke="none"/>
    <path d="M-3.45 -2.4 L-3.45 -0.85 -16.65 -1.4 -16.65 -2.5 -3.45 -2.4" fill="#6b5a50" fill-rule="evenodd" stroke="none"/>
    <path d="M-3.45 -0.85 L-3.45 -2.4 -16.65 -2.5 -16.65 -1.4 -16.7 0.05 -3.5 0.2 -3.45 -0.85 M24.0 0.05 L22.2 0.6 20.8 -1.65 16.75 0.6 -3.45 -2.4 M-3.5 0.2 L14.65 5.15 18.0 5.1 23.25 2.9 25.95 -0.55 24.0 0.05" fill="none" stroke="#000000" stroke-linecap="round" stroke-linejoin="round" stroke-opacity="0.4" stroke-width="0.05"/>
  </g>
</svg>
