<?xml version="1.0" encoding="UTF-8" standalone="no"?>
<svg xmlns:xlink="http://www.w3.org/1999/xlink" height="75.7px" width="855.85px" xmlns="http://www.w3.org/2000/svg">
  <g transform="matrix(1.0, 0.0, 0.0, 1.0, 544.0, 37.85)">
    <path d="M140.5 -29.5 L95.45 -37.85 255.2 -37.85 311.85 0.0 255.2 37.85 122.3 37.85 183.95 25.1 45.35 25.1 143.2 17.0 -135.5 17.0 31.9 7.6 -311.85 0.0 74.75 -15.55 -69.9 -29.5 140.5 -29.5" fill="#ffffff" fill-rule="evenodd" stroke="none"/>
    <path d="M-91.65 -29.5 L-136.7 -37.85 178.0 -37.85 178.0 37.85 -109.85 37.85 -48.2 25.1 -186.8 25.1 -88.95 17.0 -367.65 17.0 -200.25 7.6 -544.0 0.0 -157.4 -15.55 -302.05 -29.5 -91.65 -29.5" fill="#ffffff" fill-opacity="0.4" fill-rule="evenodd" stroke="none"/>
  </g>
</svg>
