<?xml version="1.0" encoding="UTF-8" standalone="no"?>
<svg xmlns:xlink="http://www.w3.org/1999/xlink" height="31.7px" width="35.2px" xmlns="http://www.w3.org/2000/svg">
  <g transform="matrix(1.0, 0.0, 0.0, 1.0, 13.9, 20.0)">
    <path d="M11.45 -14.1 Q11.7 -15.05 13.05 -15.4 14.7 -15.85 14.7 -13.85 L14.25 -13.0 13.75 -12.6 13.55 -12.35 Q12.85 -11.6 12.05 -11.6 11.3 -11.6 10.95 -12.1 L10.7 -12.75 Q10.7 -13.55 11.45 -14.1 M19.45 -15.0 Q21.3 -15.05 21.3 -12.8 L20.85 -11.65 Q20.4 -11.1 19.8 -11.1 18.3 -11.1 17.8 -12.0 17.5 -12.45 17.55 -12.95 17.55 -14.95 19.45 -15.0 M0.9 -16.2 Q0.4 -14.75 -1.35 -14.75 L-2.75 -14.95 Q-2.95 -14.4 -3.65 -14.4 -4.35 -14.4 -4.55 -15.0 L-4.65 -15.5 Q-4.65 -16.25 -3.65 -16.25 L-3.3 -16.2 Q-3.2 -18.15 -1.1 -19.5 1.05 -20.95 1.05 -18.05 L0.9 -16.2 M9.85 -7.4 Q11.15 -8.15 12.05 -8.3 L12.85 -9.2 Q13.8 -9.9 14.45 -9.9 15.9 -9.9 16.6 -9.25 L17.1 -8.45 Q17.1 -7.8 16.25 -7.65 L13.05 -7.5 11.4 -6.55 Q9.7 -5.7 8.95 -5.7 8.25 -5.7 8.25 -6.3 L9.85 -7.4 M0.95 -9.2 Q0.15 -9.2 0.3 -9.95 0.3 -10.65 1.0 -10.65 1.7 -10.65 1.7 -9.95 1.7 -9.2 0.95 -9.2 M5.0 -7.75 Q6.8 -7.7 6.8 -5.85 6.8 -4.35 5.35 -4.35 4.05 -4.35 3.45 -5.3 3.15 -5.8 3.15 -6.3 3.15 -7.8 5.0 -7.75 M15.8 5.95 Q15.0 6.95 14.4 6.95 11.85 6.95 11.85 4.85 L11.85 4.8 11.55 4.65 Q10.8 4.2 10.8 3.9 10.8 3.15 12.25 3.3 L12.45 3.35 Q13.05 2.8 14.2 2.65 16.5 2.45 16.5 4.6 16.5 5.05 15.8 5.95 M11.25 10.45 Q11.25 11.7 10.25 11.7 9.75 11.7 9.35 10.6 L9.05 9.6 Q9.05 8.55 10.15 8.9 11.25 9.2 11.25 10.45 M5.4 4.65 Q4.05 4.65 4.2 3.55 4.2 2.45 5.35 2.35 6.5 2.25 6.5 3.5 6.25 4.65 5.4 4.65 M-7.85 -10.35 Q-7.05 -10.35 -6.7 -9.65 L-6.45 -8.9 Q-6.45 -7.85 -7.55 -7.85 -8.6 -7.85 -8.95 -8.55 L-9.15 -9.3 Q-9.15 -10.35 -7.85 -10.35 M-5.25 -8.55 L-5.5 -8.25 -5.85 -7.95 -6.3 -8.5 -5.7 -9.15 -5.25 -8.55 M-6.15 10.1 L-6.4 10.55 -6.75 10.65 -7.2 10.5 -7.35 10.15 Q-7.35 9.75 -6.45 9.5 -6.15 9.8 -6.15 10.1 M-12.95 1.05 Q-14.05 1.05 -13.85 0.15 -13.85 -0.6 -12.8 -0.6 -11.7 -0.6 -11.7 0.15 -11.7 1.05 -12.95 1.05" fill="#ffcc00" fill-rule="evenodd" stroke="none"/>
  </g>
</svg>
