<?xml version="1.0" encoding="UTF-8" standalone="no"?>
<svg xmlns:xlink="http://www.w3.org/1999/xlink" height="34.65px" width="25.75px" xmlns="http://www.w3.org/2000/svg">
  <g transform="matrix(1.0, 0.0, 0.0, 1.0, 2.9, 22.8)">
    <path d="M13.25 -16.15 L13.9 -16.3 Q14.7 -16.15 14.7 -15.65 L14.45 -15.15 14.25 -14.95 13.65 -14.7 Q13.15 -14.7 12.9 -15.05 12.75 -15.3 12.75 -15.5 12.75 -16.0 13.25 -16.15 M1.05 -18.3 Q0.15 -18.3 0.05 -19.25 0.05 -20.35 1.15 -20.65 2.25 -20.95 2.25 -19.7 L1.95 -18.8 Q1.6 -18.3 1.05 -18.3 M5.4 -7.05 Q5.2 -7.4 5.15 -7.7 5.15 -8.95 6.7 -8.95 8.25 -9.0 8.25 -7.65 8.25 -7.15 7.9 -6.75 7.45 -6.3 6.8 -6.3 5.85 -6.3 5.4 -7.05 M0.45 -11.45 Q0.45 -12.35 1.35 -12.4 2.25 -12.4 2.25 -11.55 L2.05 -11.0 Q1.8 -10.55 1.25 -10.55 0.35 -10.55 0.45 -11.45 M22.85 -14.9 Q22.85 -13.95 21.75 -13.95 20.9 -13.95 20.7 -14.4 L20.7 -14.95 Q20.7 -16.2 21.8 -16.2 22.85 -16.2 22.85 -14.9 M16.8 3.4 Q18.3 3.5 18.3 5.2 18.3 6.35 16.75 6.35 16.0 6.35 15.6 5.5 L15.3 4.75 Q15.3 3.3 16.8 3.4 M11.35 11.15 L11.4 11.4 11.25 11.75 10.8 11.85 10.35 11.75 Q10.25 11.75 10.25 11.4 L10.35 11.0 11.25 11.0 11.35 11.15 M6.15 5.3 Q5.55 5.3 5.55 4.65 5.55 3.95 6.2 4.05 6.8 4.1 6.8 4.65 6.8 5.3 6.15 5.3 M-0.45 -20.0 Q-0.85 -19.35 -1.55 -19.35 -3.0 -19.35 -2.9 -20.85 -2.9 -22.6 -1.5 -22.8 -0.15 -22.95 -0.15 -21.15 -0.15 -20.5 -0.45 -20.0" fill="#ff9900" fill-rule="evenodd" stroke="none"/>
  </g>
</svg>
