<?xml version="1.0" encoding="UTF-8" standalone="no"?>
<svg xmlns:xlink="http://www.w3.org/1999/xlink" height="30.0px" width="26.55px" xmlns="http://www.w3.org/2000/svg">
  <g transform="matrix(1.0, 0.0, 0.0, 1.0, 2.4, 23.5)">
    <path d="M2.1 -20.0 Q1.35 -20.0 1.35 -20.7 1.35 -21.4 2.05 -21.4 2.7 -21.4 2.7 -20.7 2.7 -20.0 2.1 -20.0 M6.25 -7.75 L6.2 -8.35 Q6.2 -9.35 7.25 -9.35 8.3 -9.35 8.3 -8.3 L8.0 -7.6 Q7.65 -7.2 7.2 -7.2 6.5 -7.2 6.25 -7.75 M1.55 -11.45 Q0.9 -11.45 0.75 -11.9 L0.75 -12.2 Q0.75 -12.9 1.5 -12.9 2.25 -12.9 2.25 -12.2 2.25 -11.85 1.9 -11.6 1.7 -11.45 1.55 -11.45 M24.15 -16.25 Q24.15 -15.3 23.3 -15.3 22.5 -15.3 22.5 -16.25 22.5 -17.0 23.35 -17.15 24.15 -17.25 24.15 -16.25 M18.4 6.15 Q18.05 6.5 17.5 6.5 16.8 6.5 16.5 6.0 L16.4 5.45 Q16.4 4.3 17.6 4.15 18.8 4.0 18.8 5.2 18.8 5.75 18.4 6.15 M6.75 5.4 L6.3 5.55 Q5.85 5.55 5.85 5.05 L5.85 4.65 Q6.4 4.35 6.9 5.1 L6.75 5.4 M-0.5 -21.85 Q-0.95 -21.3 -1.65 -21.3 -2.45 -21.3 -2.4 -22.25 -2.4 -23.25 -1.3 -23.45 -0.2 -23.65 -0.2 -22.6 -0.2 -22.3 -0.5 -21.85" fill="#ff9900" fill-rule="evenodd" stroke="none"/>
  </g>
</svg>
