<?xml version="1.0" encoding="UTF-8" standalone="no"?>
<svg xmlns:xlink="http://www.w3.org/1999/xlink" height="51.1px" width="73.25px" xmlns="http://www.w3.org/2000/svg">
  <g transform="matrix(1.0, 0.0, 0.0, 1.0, 30.3, 31.3)">
    <path d="M-17.55 5.85 L-16.2 5.05 -13.5 5.2 Q-12.7 5.75 -12.35 6.5 -11.0 9.15 -14.25 10.1 -17.55 11.05 -18.6 9.05 -19.0 8.3 -18.9 7.7 L-18.25 6.55 -18.15 6.4 -17.55 5.85 M6.2 16.05 L5.75 15.0 Q5.65 13.9 6.95 13.2 8.05 12.65 9.45 13.4 10.6 14.0 11.05 14.85 12.2 17.15 9.75 17.6 7.2 18.05 6.2 16.05 M5.75 4.0 L6.1 4.65 Q6.8 6.05 5.5 6.4 4.15 6.65 3.75 5.85 L3.65 5.2 4.2 3.85 5.0 3.8 5.5 3.75 5.75 4.0 M17.0 5.5 Q17.7 5.15 18.6 5.5 19.5 5.75 19.85 6.4 20.5 7.65 18.95 8.3 17.3 9.0 16.55 7.5 L16.25 6.7 Q16.1 5.95 17.0 5.5 M31.25 -0.95 Q30.7 -1.95 30.45 -3.25 29.9 -5.85 31.75 -6.8 32.6 -7.2 35.0 -6.85 37.35 -6.45 37.65 -5.8 39.95 -1.4 36.4 0.5 35.05 1.2 33.6 0.8 32.0 0.5 31.25 -0.95 M15.2 -4.45 Q15.1 -5.55 16.5 -6.3 L19.0 -6.4 Q20.15 -5.9 20.6 -5.1 21.65 -3.05 19.2 -2.15 16.65 -1.3 15.6 -3.35 L15.2 -4.45 M7.65 -2.6 L9.95 -2.95 Q11.35 -2.65 11.9 -1.6 13.05 0.7 10.3 2.2 7.6 3.75 6.35 1.35 6.1 0.85 6.1 0.05 6.0 -1.75 7.65 -2.6 M5.8 -18.45 Q5.95 -19.75 7.25 -20.45 L9.45 -20.25 Q10.65 -19.7 10.95 -19.15 12.0 -17.05 9.6 -15.9 7.15 -14.75 5.95 -17.05 5.65 -17.65 5.8 -18.45 M13.75 -28.85 Q17.65 -30.85 18.75 -28.7 19.9 -26.4 19.2 -24.35 18.65 -22.6 16.85 -21.55 15.2 -20.55 13.45 -20.8 11.6 -21.0 10.8 -22.55 L10.45 -24.7 Q10.65 -27.25 13.75 -28.85" fill="#980101" fill-rule="evenodd" stroke="none"/>
    <path d="M37.85 -27.1 Q42.95 -27.0 42.95 -20.6 42.95 -19.7 40.5 -17.85 38.0 -16.05 36.75 -16.05 34.1 -16.05 33.15 -19.35 32.7 -21.0 32.75 -22.4 32.75 -24.5 34.35 -25.85 35.85 -27.15 37.85 -27.1 M11.0 -22.45 L10.95 -23.55 Q10.95 -25.7 13.15 -25.85 15.35 -26.0 15.35 -24.15 15.35 -23.25 14.5 -22.4 13.6 -21.5 12.6 -21.5 11.3 -21.5 11.0 -22.45 M0.6 -13.2 L0.45 -12.75 -0.15 -12.5 -1.1 -12.05 -2.55 -13.35 -2.85 -14.1 Q-2.85 -15.3 -1.1 -15.75 0.6 -16.15 0.6 -14.1 L0.6 -13.2 M3.3 -8.8 Q2.85 -9.8 2.85 -10.5 2.85 -13.95 6.9 -13.8 10.95 -13.65 10.95 -10.35 10.95 -8.8 9.45 -7.7 8.1 -6.75 6.6 -6.75 4.2 -6.75 3.3 -8.8 M16.35 -9.0 Q16.2 -9.3 16.2 -10.5 16.2 -13.45 19.6 -13.95 22.95 -14.4 22.95 -11.4 22.95 -10.25 21.85 -9.0 20.6 -7.65 18.95 -7.65 16.9 -7.65 16.35 -9.0 M34.65 16.7 Q34.65 19.8 29.0 19.8 24.5 19.8 22.8 17.0 L21.95 14.3 Q21.95 12.05 23.95 10.75 25.8 9.5 28.3 9.65 30.95 9.8 32.65 11.45 34.65 13.4 34.65 16.7 M16.65 7.4 Q20.1 7.3 20.1 10.35 20.1 11.15 19.05 12.45 17.85 13.95 16.65 13.95 14.75 13.95 13.8 12.6 13.2 11.75 13.2 10.85 13.2 7.55 16.65 7.4 M-6.0 -27.3 Q-6.0 -30.15 -2.85 -31.1 0.3 -32.05 0.3 -28.7 0.3 -27.5 -0.65 -26.1 -1.85 -24.45 -3.45 -24.45 -5.35 -24.45 -5.85 -25.8 L-6.0 -27.3 M-28.45 -2.05 L-29.85 -3.0 Q-30.3 -3.6 -30.3 -4.7 -30.3 -7.6 -25.95 -8.45 -21.65 -9.25 -21.65 -5.45 -21.65 -4.35 -22.25 -3.25 -23.25 -1.55 -25.25 -1.55 L-27.25 -1.7 -28.25 -1.9 -28.45 -2.05" fill="#ff0000" fill-rule="evenodd" stroke="none"/>
    <path d="M17.35 -15.55 Q17.0 -16.15 17.0 -16.8 17.0 -19.85 20.15 -20.5 23.25 -21.2 23.25 -17.8 23.25 -16.95 22.7 -16.0 21.7 -14.35 19.55 -14.35 18.0 -14.35 17.35 -15.55 M1.8 -8.0 Q-0.55 -5.4 -3.65 -5.4 -6.15 -5.4 -7.25 -7.85 -7.85 -9.25 -7.85 -10.55 -7.85 -15.6 -2.0 -15.95 0.3 -16.1 2.0 -15.05 3.8 -13.9 3.8 -11.9 3.8 -10.15 1.8 -8.0 M-15.5 -0.5 Q-15.5 0.35 -16.45 1.35 -17.55 2.5 -18.9 2.5 -21.3 2.5 -21.3 0.25 -21.3 -2.1 -18.4 -2.35 -15.5 -2.65 -15.5 -0.5 M-16.15 10.55 Q-16.15 8.75 -14.1 8.45 -12.1 8.15 -12.1 10.05 -12.1 10.85 -12.65 11.55 -13.3 12.25 -14.25 12.25 -15.6 12.25 -16.0 11.45 L-16.15 10.55 M23.7 1.25 Q28.4 1.05 28.4 6.3 28.4 7.5 27.3 8.65 26.05 10.0 24.05 10.0 21.7 10.0 20.2 8.25 19.0 6.9 19.0 5.95 19.0 3.9 20.45 2.55 21.8 1.35 23.7 1.25 M1.8 11.3 Q1.8 9.45 3.8 9.05 5.75 8.65 5.75 10.95 5.75 11.7 5.35 12.25 4.8 13.0 3.65 13.0 2.4 13.0 2.0 12.15 L1.8 11.3" fill="#ff0000" fill-rule="evenodd" stroke="none"/>
  </g>
</svg>
