<?xml version="1.0" encoding="UTF-8" standalone="no"?>
<svg xmlns:xlink="http://www.w3.org/1999/xlink" height="60.1px" width="82.05px" xmlns="http://www.w3.org/2000/svg">
  <g transform="matrix(1.0, 0.0, 0.0, 1.0, 33.0, 37.0)">
    <path d="M-19.05 6.9 Q-17.8 6.25 -16.4 6.65 -15.1 7.0 -14.65 7.8 -13.5 10.1 -16.25 11.4 -19.05 12.75 -20.3 10.25 L-20.65 9.05 Q-20.6 7.7 -19.05 6.9 M7.6 19.85 Q7.55 18.75 9.3 17.85 10.4 17.3 11.45 17.5 12.5 17.75 13.05 18.75 14.0 20.65 11.55 21.8 9.05 22.95 8.0 20.85 7.55 20.4 7.6 19.85 M8.15 7.5 L8.55 8.05 Q9.35 9.65 7.8 10.0 6.3 10.35 5.85 9.5 L5.55 8.75 5.5 8.55 5.75 7.95 Q5.85 7.8 6.5 7.45 L7.5 7.2 7.9 7.3 8.15 7.5 M23.0 8.8 Q23.75 10.25 22.1 11.2 20.4 12.2 19.6 10.65 L19.35 9.6 Q19.35 8.6 20.3 8.1 L22.05 7.95 23.0 8.8 M37.85 -3.2 Q37.9 -5.05 39.55 -5.9 L41.65 -6.15 Q42.9 -5.95 43.35 -5.1 45.3 -1.3 42.65 0.3 L40.35 0.5 Q39.05 0.05 38.25 -1.55 L37.85 -3.2 M23.7 -4.5 L24.6 -3.9 Q24.0 -2.55 22.4 -1.75 L22.15 -1.95 21.75 -2.55 Q21.05 -3.95 22.4 -4.65 L23.7 -4.5 M6.7 -1.95 Q10.1 -3.7 11.2 -1.5 12.2 0.5 9.9 1.7 7.55 2.9 6.45 0.7 5.8 -1.5 6.7 -1.95 M7.1 -21.8 L8.55 -21.75 9.45 -20.95 Q10.0 -19.9 8.7 -18.95 7.4 -17.95 6.55 -19.55 L6.35 -20.4 Q6.2 -21.35 7.1 -21.8 M15.95 -30.7 L15.7 -31.65 Q15.85 -32.75 17.55 -33.65 20.05 -34.9 20.85 -33.3 22.2 -30.75 19.6 -29.6 17.1 -28.45 15.95 -30.7" fill="#980101" fill-rule="evenodd" stroke="none"/>
    <path d="M15.1 -31.05 Q17.55 -30.9 17.55 -28.8 17.55 -28.05 16.95 -27.3 16.2 -26.4 14.9 -26.4 13.5 -26.4 12.9 -27.6 12.6 -28.25 12.6 -28.95 12.6 -31.2 15.1 -31.05 M0.7 -17.85 Q0.3 -17.55 -0.6 -17.55 L-1.75 -17.75 -2.4 -18.2 -2.45 -18.5 -2.55 -19.55 Q-2.55 -20.75 -0.55 -21.25 1.4 -21.8 1.4 -19.5 L1.3 -18.6 1.1 -18.2 0.7 -17.85 M3.3 -9.75 Q3.3 -12.95 6.7 -12.95 10.05 -12.95 10.05 -10.05 10.05 -6.9 5.15 -6.9 3.8 -6.9 3.3 -9.75 M22.8 -15.05 L22.85 -15.95 23.1 -16.35 Q25.4 -16.35 26.85 -15.2 L26.15 -13.95 Q25.5 -13.05 24.75 -13.05 22.8 -13.05 22.8 -15.05 M42.35 -29.45 Q43.5 -30.65 45.1 -30.55 49.05 -30.25 49.05 -24.75 49.05 -23.55 47.7 -22.6 46.45 -21.65 45.15 -21.65 42.8 -21.65 41.7 -23.7 L41.1 -25.85 Q41.1 -28.15 42.35 -29.45 M39.8 20.75 Q39.8 23.1 36.2 23.1 33.7 23.1 32.9 21.95 L32.6 20.7 Q32.6 17.45 36.2 17.25 39.8 17.05 39.8 20.75 M17.25 15.6 Q15.95 15.6 15.55 14.5 L15.35 13.4 Q15.35 11.05 17.45 11.4 19.5 11.75 19.5 13.25 19.5 14.0 18.85 14.75 18.1 15.6 17.25 15.6 M-3.45 -31.2 Q-6.0 -31.2 -6.6 -32.4 -6.95 -33.05 -6.75 -33.8 -6.75 -36.85 -3.2 -37.0 0.3 -37.15 0.3 -34.4 0.3 -32.9 -0.8 -32.0 -1.85 -31.2 -3.45 -31.2 M-33.0 -5.1 Q-33.0 -8.65 -29.05 -8.75 -25.1 -8.9 -25.1 -5.6 -25.1 -4.45 -26.4 -3.25 -27.8 -1.95 -29.6 -1.95 -31.85 -1.95 -32.65 -3.45 -33.0 -4.1 -33.0 -5.1" fill="#ff0000" fill-rule="evenodd" stroke="none"/>
    <path d="M0.1 -9.95 L-1.2 -9.25 Q-0.75 -8.6 -0.75 -7.55 -0.75 -5.9 -2.35 -5.25 -3.5 -4.75 -5.9 -4.75 -7.6 -4.75 -8.25 -6.4 -8.6 -7.25 -8.6 -8.0 -8.6 -9.5 -6.95 -10.05 L-7.2 -10.55 Q-7.55 -11.45 -7.5 -12.4 -7.5 -14.3 -6.05 -15.65 -4.75 -16.85 -2.9 -17.05 1.65 -17.5 1.65 -12.5 1.65 -11.0 0.1 -9.95 M24.4 -21.0 Q22.95 -21.0 22.45 -22.1 22.25 -22.6 22.3 -23.2 22.3 -25.95 24.7 -25.1 27.1 -24.3 27.1 -23.0 27.1 -22.3 26.35 -21.7 25.55 -21.0 24.4 -21.0 M27.5 2.95 Q31.0 2.6 31.0 7.5 31.0 8.6 29.6 9.5 28.25 10.3 26.95 10.3 24.0 10.3 24.0 8.15 24.0 3.3 27.5 2.95 M8.2 18.15 Q6.3 18.15 6.4 16.7 6.4 15.0 8.2 15.1 10.0 15.2 10.0 16.65 10.0 17.35 9.5 17.75 9.0 18.15 8.2 18.15 M-17.8 -0.65 Q-17.8 -0.1 -18.4 0.75 -19.2 1.9 -20.5 1.9 -22.25 1.9 -22.25 0.1 -22.25 -1.95 -20.0 -2.35 -17.8 -2.75 -17.8 -0.65 M-17.15 15.35 Q-19.0 15.35 -19.0 13.6 -19.0 12.0 -17.1 12.0 -15.25 12.0 -15.25 13.7 -15.25 14.55 -16.0 15.0 L-17.15 15.35" fill="#ff0000" fill-rule="evenodd" stroke="none"/>
  </g>
</svg>
