<?xml version="1.0" encoding="UTF-8" standalone="no"?>
<svg xmlns:xlink="http://www.w3.org/1999/xlink" height="68.2px" width="92.2px" xmlns="http://www.w3.org/2000/svg">
  <g transform="matrix(1.0, 0.0, 0.0, 1.0, 35.45, 42.1)">
    <path d="M-19.6 10.45 L-19.75 11.05 -20.1 12.15 Q-20.5 11.35 -21.15 11.45 L-21.8 11.55 -21.25 9.9 -20.15 10.15 -19.6 10.45 M11.25 23.2 Q11.85 22.85 12.3 22.8 L12.75 22.8 13.1 23.05 13.45 23.65 13.75 24.55 13.75 24.9 Q12.5 26.1 11.45 25.9 10.8 25.85 10.5 25.3 10.2 24.7 10.2 24.3 L10.2 23.95 11.25 23.2 M25.35 12.95 Q23.65 13.65 23.0 12.4 L22.8 11.4 Q22.7 10.4 23.8 9.85 24.45 9.5 25.2 9.85 25.95 10.2 26.2 10.7 27.0 12.3 25.35 12.95 M48.85 -0.7 Q46.1 0.6 45.1 -1.4 L44.75 -2.55 Q44.65 -4.35 46.75 -5.4 47.8 -5.95 48.75 -5.8 49.8 -5.6 50.35 -4.55 51.6 -2.0 48.85 -0.7 M7.25 -0.3 Q7.25 -1.1 8.35 -1.7 L9.55 -1.75 10.5 -1.0 Q11.3 0.5 9.85 1.3 8.35 2.05 7.55 0.5 L7.25 -0.3 M23.15 -36.95 Q24.1 -35.15 22.25 -34.25 20.45 -33.35 19.6 -35.0 L19.3 -35.85 Q19.2 -37.1 20.5 -37.8 L21.75 -37.9 Q22.75 -37.8 23.15 -36.95" fill="#980101" fill-rule="evenodd" stroke="none"/>
    <path d="M15.75 -31.65 Q15.45 -32.25 15.5 -32.9 15.5 -34.75 17.8 -34.95 20.1 -35.15 20.1 -32.85 20.1 -32.15 19.5 -31.35 18.8 -30.45 17.85 -30.45 16.3 -30.45 15.75 -31.65 M6.9 -8.15 Q5.3 -8.15 4.85 -9.1 4.7 -9.4 4.7 -10.2 4.7 -12.45 6.85 -12.45 9.0 -12.45 9.0 -10.25 9.0 -9.45 8.35 -8.8 7.7 -8.15 6.9 -8.15 M48.9 -30.0 Q48.9 -32.9 52.85 -33.05 56.75 -33.2 56.75 -29.55 56.75 -28.0 55.65 -27.15 54.7 -26.4 53.15 -26.4 50.15 -26.4 49.2 -28.5 L48.9 -30.0 M42.0 26.1 Q40.1 26.1 39.5 24.6 L39.35 23.45 Q39.35 21.05 41.95 21.05 44.55 21.0 44.55 23.6 44.55 24.85 43.5 25.55 42.75 26.1 42.0 26.1 M-6.2 -39.1 L-6.45 -40.4 Q-6.45 -41.15 -5.7 -41.7 L-2.55 -41.85 -2.3 -41.45 -2.1 -40.25 -2.2 -39.3 -2.4 -38.85 -3.0 -38.6 -4.35 -38.4 -6.0 -38.7 -6.2 -39.1 M-32.8 -6.3 L-32.3 -5.7 -32.75 -5.1 -33.9 -4.1 -35.45 -5.7 -34.65 -5.9 Q-33.9 -6.2 -33.9 -7.35 L-32.8 -6.3" fill="#ff0000" fill-rule="evenodd" stroke="none"/>
    <path d="M28.2 -26.9 Q28.0 -27.4 28.05 -27.85 28.05 -29.7 29.85 -29.7 31.6 -29.75 31.6 -27.8 31.6 -27.0 31.2 -26.45 30.7 -25.9 29.85 -25.9 28.65 -25.9 28.2 -26.9 M28.1 8.75 Q27.85 8.1 27.85 7.15 27.85 4.6 31.0 4.0 34.1 3.4 34.1 7.4 34.1 8.05 32.85 9.05 31.45 10.15 30.15 10.15 28.6 10.15 28.1 8.75 M11.75 20.1 Q13.3 19.85 13.3 21.6 13.2 23.15 11.75 23.15 10.75 23.15 10.35 22.45 L10.15 21.6 Q10.15 20.3 11.75 20.1 M-20.4 -0.85 Q-20.4 -0.1 -21.05 0.6 -21.75 1.3 -22.6 1.3 -23.85 1.3 -24.2 0.55 L-24.35 -0.3 Q-24.35 -1.7 -22.35 -2.3 -20.4 -2.85 -20.4 -0.85 M-3.95 -18.35 Q0.1 -18.9 0.1 -15.55 0.1 -14.25 -0.95 -12.85 -2.25 -11.1 -4.25 -11.1 -6.9 -11.1 -7.7 -12.75 -8.15 -13.55 -8.05 -14.4 -8.05 -17.75 -3.95 -18.35 M-4.25 -8.25 Q-4.25 -10.1 -2.5 -9.9 -0.75 -9.7 -0.75 -7.4 -0.75 -6.85 -1.25 -6.3 -1.75 -5.75 -2.4 -5.75 -3.65 -5.75 -4.05 -6.95 L-4.25 -8.25 M-10.0 -7.9 Q-10.0 -8.75 -9.2 -9.25 -8.5 -9.75 -7.4 -9.75 -6.1 -9.75 -5.6 -8.55 L-5.35 -7.4 Q-5.35 -6.75 -6.0 -6.3 L-7.1 -6.0 Q-8.85 -6.0 -9.6 -6.9 -10.0 -7.4 -10.0 -7.9 M-18.9 17.55 Q-19.95 17.55 -20.2 16.8 L-20.3 16.05 Q-20.3 14.7 -18.9 14.7 -17.5 14.7 -17.5 16.15 -17.5 16.65 -17.85 17.1 -18.25 17.55 -18.9 17.55" fill="#ff0000" fill-rule="evenodd" stroke="none"/>
  </g>
</svg>
