<?xml version="1.0" encoding="UTF-8" standalone="no"?>
<svg xmlns:xlink="http://www.w3.org/1999/xlink" height="69.0px" width="86.45px" xmlns="http://www.w3.org/2000/svg">
  <g transform="matrix(1.0, 0.0, 0.0, 1.0, 26.75, 39.75)">
    <path d="M26.65 10.65 Q27.3 10.3 27.7 10.45 L28.1 10.5 28.4 10.75 28.75 11.35 Q29.45 12.75 27.9 13.15 26.4 13.55 26.0 12.75 L25.65 12.05 25.6 11.75 25.9 11.2 Q26.05 10.95 26.65 10.65 M49.05 -2.85 Q49.0 -3.9 50.4 -4.65 L52.15 -4.75 Q52.95 -4.5 53.35 -3.7 54.35 -1.8 52.35 -0.9 50.35 0.0 49.45 -1.8 49.05 -2.3 49.05 -2.85 M21.1 -37.2 L20.8 -38.0 Q20.8 -38.8 21.9 -39.4 L22.9 -39.7 23.3 -39.75 24.05 -38.8 24.35 -37.9 24.3 -37.65 Q23.15 -36.5 22.05 -36.65 21.35 -36.7 21.1 -37.2" fill="#980101" fill-rule="evenodd" stroke="none"/>
    <path d="M22.6 -34.2 L22.4 -33.75 22.0 -33.4 Q21.6 -33.05 20.7 -33.05 L19.5 -33.25 18.8 -33.75 18.75 -34.05 Q18.65 -34.2 18.65 -35.1 18.65 -36.25 20.65 -36.7 22.65 -37.15 22.65 -35.1 L22.6 -34.2 M59.7 -32.25 Q59.7 -31.1 58.95 -30.3 58.15 -29.45 56.9 -29.45 54.85 -29.45 54.3 -30.7 54.0 -31.35 54.15 -32.15 54.15 -34.7 56.95 -34.85 59.7 -35.05 59.7 -32.25 M46.25 23.7 L46.5 24.05 Q46.7 24.3 46.7 25.2 46.7 26.7 46.4 26.7 L45.85 26.95 44.55 27.15 Q42.95 27.15 42.5 26.2 42.35 25.9 42.35 25.1 42.35 24.4 43.15 23.9 L46.25 23.7" fill="#ff0000" fill-rule="evenodd" stroke="none"/>
    <path d="M34.25 -32.75 Q35.65 -32.75 35.65 -31.25 35.65 -30.8 35.25 -30.35 34.8 -29.85 34.25 -29.85 33.25 -29.85 32.95 -30.6 32.75 -30.95 32.8 -31.4 32.8 -32.8 34.25 -32.75 M30.5 9.3 L30.4 8.15 Q30.4 5.65 32.7 5.25 35.0 4.9 35.0 7.4 35.0 8.45 34.5 9.25 33.85 10.35 32.45 10.35 30.9 10.35 30.5 9.3 M16.7 28.75 Q16.3 29.25 15.6 29.25 14.7 29.25 14.4 28.5 L14.25 27.9 Q14.25 26.5 15.65 26.5 17.0 26.5 17.0 27.9 L16.7 28.75 M-23.45 -0.25 Q-24.05 0.4 -24.9 0.4 -26.75 0.4 -26.75 -1.05 -26.75 -3.0 -24.85 -3.05 -23.0 -3.05 -23.0 -1.3 -23.0 -0.8 -23.45 -0.25 M-4.25 -13.5 Q-6.3 -13.5 -7.35 -14.9 -8.1 -15.9 -8.1 -16.9 -8.1 -18.0 -6.9 -19.1 -5.75 -20.15 -4.3 -20.4 -0.5 -21.1 -0.5 -15.9 -0.5 -14.75 -1.65 -14.1 -2.7 -13.5 -4.25 -13.5 M-1.25 -9.25 Q-1.25 -8.7 -1.65 -8.35 -2.05 -8.05 -2.4 -8.05 -3.3 -8.05 -3.6 -8.8 L-3.65 -9.35 Q-3.65 -10.75 -2.45 -10.75 -1.25 -10.75 -1.25 -9.25 M-5.5 -9.9 L-5.9 -8.85 Q-6.5 -7.85 -7.35 -7.85 -8.5 -7.85 -8.85 -8.7 L-9.0 -9.55 Q-9.0 -11.15 -7.25 -11.4 -5.5 -11.65 -5.5 -9.9 M-20.0 19.25 Q-20.3 19.65 -20.8 19.65 L-21.35 19.6 -21.75 19.35 -21.9 18.5 Q-21.9 17.4 -20.8 17.45 -19.75 17.5 -19.75 18.55 L-20.0 19.25" fill="#ff0000" fill-rule="evenodd" stroke="none"/>
  </g>
</svg>
