<?xml version="1.0" encoding="UTF-8" standalone="no"?>
<svg xmlns:xlink="http://www.w3.org/1999/xlink" height="70.7px" width="90.85px" xmlns="http://www.w3.org/2000/svg">
  <g transform="matrix(1.0, 0.0, 0.0, 1.0, 28.75, 36.15)">
    <path d="M55.75 -3.1 L56.0 -2.2 56.0 -1.85 Q54.25 -0.15 53.4 -1.85 L53.45 -2.25 53.95 -3.55 55.15 -3.7 55.75 -3.1" fill="#980101" fill-rule="evenodd" stroke="none"/>
    <path d="M62.1 -34.4 L61.8 -33.3 60.35 -32.75 58.95 -33.95 Q58.65 -34.2 58.65 -34.35 58.65 -36.85 61.65 -35.9 L61.9 -35.55 62.1 -34.4" fill="#ff0000" fill-rule="evenodd" stroke="none"/>
    <path d="M37.5 -33.15 Q36.65 -33.15 36.3 -33.9 L36.15 -34.55 Q36.15 -36.0 37.6 -35.8 39.0 -35.6 39.0 -34.55 L38.75 -33.75 Q38.35 -33.15 37.5 -33.15 M33.9 5.65 Q36.0 5.65 36.0 7.75 36.0 10.15 33.85 10.15 32.4 10.15 31.95 9.1 31.8 8.7 31.8 7.9 31.8 5.7 33.9 5.65 M18.8 33.4 Q18.8 32.3 20.1 32.15 21.4 32.0 21.4 33.35 21.4 34.55 20.1 34.55 19.3 34.55 18.95 34.0 L18.8 33.4 M-27.15 -3.4 Q-25.55 -3.65 -25.55 -1.9 L-25.8 -1.05 Q-26.25 -0.3 -27.1 -0.3 -28.7 -0.3 -28.75 -1.9 -28.75 -3.1 -27.15 -3.4 M-5.15 -15.25 Q-7.1 -15.25 -7.85 -16.7 -8.25 -17.45 -8.25 -18.25 -8.25 -21.35 -5.05 -21.3 -1.85 -21.25 -1.85 -18.75 -1.85 -17.7 -2.55 -16.65 -3.5 -15.25 -5.15 -15.25 M-3.4 -9.55 Q-3.4 -10.2 -2.45 -10.45 -1.5 -10.65 -1.5 -9.55 L-1.6 -9.0 -1.85 -8.8 -2.4 -8.6 -2.95 -8.7 -3.3 -9.0 -3.4 -9.55 M-6.75 -9.5 Q-7.2 -8.9 -7.9 -8.9 -9.4 -8.9 -9.4 -10.4 -9.4 -11.9 -7.9 -11.9 -6.4 -11.95 -6.4 -10.45 -6.4 -10.0 -6.75 -9.5 M-23.95 21.3 L-24.0 20.8 Q-24.0 19.7 -22.85 19.7 -21.75 19.7 -21.75 20.75 -21.75 21.75 -22.9 21.75 -23.8 21.75 -23.95 21.3" fill="#ff0000" fill-rule="evenodd" stroke="none"/>
  </g>
</svg>
