<?xml version="1.0" encoding="UTF-8" standalone="no"?>
<svg xmlns:xlink="http://www.w3.org/1999/xlink" height="78.25px" width="72.55px" xmlns="http://www.w3.org/2000/svg">
  <g transform="matrix(1.0, 0.0, 0.0, 1.0, 31.0, 38.85)">
    <path d="M39.0 -37.55 Q39.0 -38.75 40.3 -38.85 41.55 -38.9 41.55 -37.6 41.55 -37.05 41.2 -36.65 40.85 -36.25 40.25 -36.25 39.25 -36.25 39.05 -36.85 38.9 -37.15 39.0 -37.55 M35.15 7.6 Q36.75 7.6 36.75 9.0 36.75 9.75 36.15 10.15 L35.05 10.5 Q34.15 10.5 33.75 9.75 L33.55 9.0 Q33.55 7.6 35.15 7.6 M23.7 39.4 Q22.7 39.4 22.3 38.65 L22.15 38.05 Q22.15 36.65 23.65 36.65 25.15 36.65 25.15 38.05 25.15 39.4 23.7 39.4 M-28.0 -2.5 Q-28.0 -1.05 -29.45 -1.05 -30.45 -1.05 -30.8 -1.8 L-31.0 -2.5 Q-31.0 -3.8 -29.5 -3.8 -28.0 -3.8 -28.0 -2.5 M-5.75 -16.85 Q-7.95 -16.85 -8.05 -19.0 -8.05 -21.75 -5.3 -22.0 -2.55 -22.3 -2.55 -19.6 -2.55 -18.9 -3.4 -18.0 -4.4 -16.85 -5.75 -16.85 M-0.3 -10.1 L-0.55 -9.5 Q-0.85 -9.15 -1.35 -9.15 -2.0 -9.15 -2.2 -9.7 L-2.3 -10.15 Q-2.3 -10.75 -1.3 -10.95 -0.3 -11.2 -0.3 -10.1 M-6.35 -10.25 L-7.1 -10.0 Q-8.0 -10.0 -8.25 -10.75 L-8.3 -11.3 Q-8.3 -12.45 -7.05 -12.45 -5.85 -12.45 -5.85 -11.25 -5.85 -10.6 -6.35 -10.25" fill="#ff0000" fill-rule="evenodd" stroke="none"/>
  </g>
</svg>
