<?xml version="1.0" encoding="UTF-8" standalone="no"?>
<svg xmlns:xlink="http://www.w3.org/1999/xlink" height="84.65px" width="76.15px" xmlns="http://www.w3.org/2000/svg">
  <g transform="matrix(1.0, 0.0, 0.0, 1.0, 31.9, 41.6)">
    <path d="M43.0 -39.1 Q42.1 -39.1 41.85 -39.85 L41.75 -40.4 Q41.75 -41.6 43.0 -41.6 44.25 -41.6 44.25 -40.3 44.25 -39.8 43.75 -39.4 43.35 -39.1 43.0 -39.1 M37.6 9.55 Q37.55 10.75 36.4 10.75 35.7 10.75 35.4 10.15 L35.25 9.55 Q35.25 8.4 36.45 8.4 37.6 8.4 37.6 9.55 M26.1 42.5 L26.0 41.9 Q26.0 40.7 27.3 40.7 28.55 40.7 28.55 41.9 28.55 43.05 27.25 43.05 26.35 43.05 26.1 42.5 M-30.7 -3.7 Q-29.5 -3.7 -29.5 -2.4 -29.5 -1.85 -29.9 -1.5 L-30.65 -1.25 Q-31.55 -1.25 -31.85 -2.0 L-31.9 -2.5 Q-31.9 -3.7 -30.7 -3.7 M-6.25 -18.15 Q-7.9 -18.15 -8.0 -20.15 -8.0 -22.55 -6.05 -22.4 -4.15 -22.3 -4.15 -20.3 -4.15 -19.85 -4.7 -19.05 -5.4 -18.15 -6.25 -18.15 M-8.75 -10.5 Q-9.55 -10.5 -9.75 -10.95 L-9.75 -11.45 Q-9.75 -12.55 -8.7 -12.55 -7.65 -12.55 -7.65 -11.5 -7.65 -11.1 -8.05 -10.75 -8.45 -10.5 -8.75 -10.5" fill="#ff0000" fill-rule="evenodd" stroke="none"/>
  </g>
</svg>
