<?xml version="1.0" encoding="UTF-8" standalone="no"?>
<svg xmlns:xlink="http://www.w3.org/1999/xlink" height="16.75px" width="29.6px" xmlns="http://www.w3.org/2000/svg">
  <g transform="matrix(1.0, 0.0, 0.0, 1.0, 14.8, 8.35)">
    <use height="16.75" transform="matrix(1.0, 0.0, 0.0, 1.0, -14.8, -8.35)" width="29.6" xlink:href="#shape0"/>
  </g>
  <defs>
    <g id="shape0" transform="matrix(1.0, 0.0, 0.0, 1.0, 14.8, 8.35)">
      <path d="M7.7 -3.05 L9.2 -2.4 12.9 -0.35 12.9 -0.25 12.4 -0.45 10.95 -0.35 10.0 -0.15 12.2 1.8 Q14.05 3.55 14.8 3.65 L13.5 3.85 12.3 3.9 Q12.9 4.65 13.8 7.1 L14.25 8.4 Q13.4 7.45 13.2 7.45 13.0 7.4 12.65 7.65 L12.25 8.1 11.2 6.35 10.1 4.55 8.95 5.4 8.45 3.8 Q8.0 2.5 7.65 2.35 L6.65 2.8 5.55 3.15 5.25 3.0 5.2 2.95 5.25 2.65 5.55 2.25 5.9 1.6 5.7 1.6 4.2 1.95 2.1 2.0 1.75 1.95 1.6 1.8 1.8 0.75 1.45 -0.05 1.25 0.0 0.85 0.6 Q-0.45 0.35 -1.15 -1.0 -1.5 -1.65 -2.45 -1.95 L-2.5 -0.1 -2.55 0.4 -4.35 -1.05 -6.3 -2.15 -6.5 -0.45 -8.6 -2.95 -8.85 -2.6 -10.25 -2.1 -10.0 -3.55 -12.25 -2.3 -12.9 -2.05 -12.25 -2.3 -12.85 -2.05 -12.9 -2.05 -12.45 -3.55 -14.8 -4.45 -14.2 -4.5 -13.8 -4.75 -13.7 -4.85 -13.65 -4.8 -11.95 -5.25 -9.85 -4.6 Q-8.4 -4.05 -7.6 -3.45 L-8.2 -4.0 -9.1 -4.8 -4.8 -5.05 -2.65 -4.95 -2.7 -4.8 -5.9 -4.5 -6.8 -4.7 -6.85 -4.6 Q-2.3 -2.55 0.85 -1.5 L-0.2 -2.3 -1.25 -2.85 -1.05 -2.85 -0.8 -2.95 1.45 -2.35 Q3.95 -1.5 3.95 -0.7 L3.5 -0.15 3.7 -0.15 9.0 -0.9 Q8.9 -1.15 7.6 -1.7 L6.2 -2.45 7.7 -3.05" fill="#d6baba" fill-rule="evenodd" stroke="none"/>
      <path d="M7.7 -3.05 L6.2 -2.45 7.6 -1.7 Q8.9 -1.15 9.0 -0.9 L3.7 -0.15 3.5 -0.15 3.95 -0.7 Q3.95 -1.5 1.45 -2.35 L-0.8 -2.95 -1.05 -2.85 -1.25 -2.85 -0.2 -2.3 0.85 -1.5 Q-2.3 -2.55 -6.85 -4.6 L-6.8 -4.7 -5.9 -4.5 -2.7 -4.8 -2.65 -4.95 -4.8 -5.05 -9.1 -4.8 -8.2 -4.0 -7.6 -3.45 Q-8.4 -4.05 -9.85 -4.6 L-11.95 -5.25 -13.65 -4.8 -13.7 -4.85 -12.7 -5.4 -14.05 -7.6 -13.05 -7.35 Q-11.7 -6.8 -10.7 -6.6 L-8.9 -8.35 -8.9 -7.85 -8.85 -7.5 -8.7 -7.15 -8.55 -7.0 -6.15 -7.55 -6.4 -7.3 -6.55 -6.85 -6.55 -6.45 -3.25 -7.6 -2.65 -7.75 -2.6 -6.35 2.3 -6.1 2.75 -6.0 2.2 -5.15 1.8 -4.6 2.5 -4.4 Q3.45 -4.25 4.9 -5.0 L4.75 -3.6 7.7 -3.05" fill="#ffffff" fill-rule="evenodd" stroke="none"/>
      <path d="M-12.25 -2.3 L-10.0 -3.55 -10.25 -2.1 -8.85 -2.6 -8.6 -2.95 -6.5 -0.45 -6.3 -2.15 -4.35 -1.05 -2.55 0.4 -2.5 -0.1 -2.45 -1.95 Q-1.5 -1.65 -1.15 -1.0 -0.45 0.35 0.85 0.6 L1.25 0.0 1.45 -0.05 1.8 0.75 1.6 1.8 1.75 1.95 2.1 2.0 4.2 1.95 5.7 1.6 5.9 1.6 5.55 2.25 5.25 2.65 5.2 2.95 5.25 3.0 5.55 3.15 6.65 2.8 7.65 2.35 Q8.0 2.5 8.45 3.8 L8.95 5.4 10.1 4.55 11.2 6.35 12.25 8.1 12.65 7.65 Q13.0 7.4 13.2 7.45 13.4 7.45 14.25 8.4 L13.8 7.1 Q12.9 4.65 12.3 3.9 L13.5 3.85 14.8 3.65 Q14.05 3.55 12.2 1.8 L10.0 -0.15 10.95 -0.35 12.4 -0.45 12.9 -0.25 12.9 -0.35 9.2 -2.4 7.7 -3.05 M-13.7 -4.85 L-13.8 -4.75 -14.2 -4.5 -14.8 -4.45 -12.45 -3.55 -12.9 -2.05 -12.25 -2.3 M12.9 -0.25 L13.0 -0.25 12.9 -0.35 M-13.7 -4.85 L-12.7 -5.4 -14.05 -7.6 -13.05 -7.35 Q-11.7 -6.8 -10.7 -6.6 L-8.9 -8.35 -8.9 -7.85 -8.85 -7.5 -8.7 -7.15 -8.55 -7.0 -6.15 -7.55 -6.4 -7.3 -6.55 -6.85 -6.55 -6.45 -3.25 -7.6 -2.65 -7.75 -2.6 -6.35 2.3 -6.1 2.75 -6.0 2.2 -5.15 1.8 -4.6 2.5 -4.4 Q3.45 -4.25 4.9 -5.0 L4.75 -3.6 7.7 -3.05" fill="none" stroke="#000000" stroke-linecap="round" stroke-linejoin="round" stroke-opacity="0.3019608" stroke-width="0.05"/>
    </g>
  </defs>
</svg>
