<?xml version="1.0" encoding="UTF-8" standalone="no"?>
<svg xmlns:xlink="http://www.w3.org/1999/xlink" height="113.0px" width="124.15px" xmlns="http://www.w3.org/2000/svg">
  <g transform="matrix(1.0, 0.0, 0.0, 1.0, 49.55, 50.0)">
    <use height="103.15" id="_col1b" transform="matrix(1.0, 0.0, 0.0, 1.0, 4.0, -50.0)" width="63.0" xlink:href="#sprite0"/>
    <use height="63.95" id="_col0a" transform="matrix(1.0, 0.0, 0.0, 1.0, -31.35, -25.9)" width="63.3" xlink:href="#sprite1"/>
    <use height="10.05" transform="matrix(1.0, 0.0, 0.0, 1.0, -26.4, 24.0)" width="24.85" xlink:href="#sprite2"/>
    <use height="28.7" transform="matrix(0.9958, 0.088, 0.0, 1.0, -32.563, 2.769)" width="42.9" xlink:href="#sprite3"/>
    <use height="49.85" id="_col1" transform="matrix(1.3255, 0.0, 0.0, 1.3255, -49.5583, -38.2201)" width="52.85" xlink:href="#sprite8"/>
    <use height="19.0" id="_col0c" transform="matrix(1.0, 0.0, 0.0, 1.0, 11.4, 11.95)" width="20.95" xlink:href="#sprite9"/>
  </g>
  <defs>
    <g id="sprite0" transform="matrix(1.0, 0.0, 0.0, 1.0, 31.5, 51.55)">
      <use height="103.15" transform="matrix(1.0, 0.0, 0.0, 1.0, -31.5, -51.55)" width="63.0" xlink:href="#shape0"/>
    </g>
    <g id="shape0" transform="matrix(1.0, 0.0, 0.0, 1.0, 31.5, 51.55)">
      <path d="M27.65 -29.25 L27.7 -28.1 Q27.5 -21.7 26.6 -17.65 25.7 -13.6 22.8 -7.85 L15.05 6.25 Q10.2 14.55 8.9 16.95 L8.8 17.25 Q7.65 20.75 6.2 27.3 5.5 26.65 5.35 24.0 L5.2 21.0 3.3 22.4 Q1.8 23.5 0.8 23.5 -0.15 23.5 -0.65 19.05 L-0.95 14.75 0.7 11.45 Q3.75 6.05 11.55 -1.4 19.5 -9.0 22.4 -13.85 26.7 -21.15 27.65 -29.25 M10.6 33.5 L11.35 34.4 12.55 35.55 Q15.6 35.55 21.6 27.8 17.85 38.4 14.2 38.7 11.5 37.6 10.6 33.5 M-18.2 -24.0 Q-19.15 -22.65 -18.85 -24.25 L-18.2 -24.0 -18.85 -24.25 -18.1 -27.2 Q-18.35 -28.5 -14.7 -35.3 -11.4 -41.5 -10.0 -43.1 L-12.85 -40.8 Q-15.3 -38.75 -16.6 -36.8 -21.5 -29.45 -22.85 -26.45 L-24.4 -27.4 -24.4 -27.55 Q-23.65 -30.65 -22.25 -33.5 -19.45 -39.15 -11.75 -45.0 -4.1 -50.9 9.0 -51.5 14.6 -51.8 16.75 -48.75 12.25 -47.9 7.95 -46.2 2.3 -44.0 -1.1 -42.2 -6.0 -39.6 -10.3 -35.05 L-12.4 -32.9 Q-13.85 -31.4 -14.8 -29.65 L-17.8 -24.55 -18.2 -24.0" fill="#ffffff" fill-rule="evenodd" stroke="none"/>
      <path d="M-0.95 14.75 L-0.65 19.05 Q-0.15 23.5 0.8 23.5 1.8 23.5 3.3 22.4 L5.2 21.0 5.35 24.0 Q5.5 26.65 6.2 27.3 7.65 20.75 8.8 17.25 L8.9 16.95 Q10.2 14.55 15.05 6.25 L22.8 -7.85 Q25.7 -13.6 26.6 -17.65 27.5 -21.7 27.7 -28.1 L27.65 -29.25 27.75 -30.2 27.8 -31.45 Q28.25 -40.75 27.05 -43.6 25.8 -46.5 18.55 -45.6 11.3 -44.7 0.95 -39.8 -7.65 -35.75 -10.9 -30.3 -12.25 -28.15 -12.7 -25.8 L-12.85 -24.55 -12.95 -23.1 -12.8 -22.5 -18.2 -24.0 -17.8 -24.55 -14.8 -29.65 Q-13.85 -31.4 -12.4 -32.9 L-10.3 -35.05 Q-6.0 -39.6 -1.1 -42.2 2.3 -44.0 7.95 -46.2 12.25 -47.9 16.75 -48.75 L16.8 -48.7 18.9 -49.1 19.55 -49.2 Q24.55 -49.95 26.6 -48.15 31.1 -44.15 31.5 -29.7 31.85 -15.3 21.0 3.3 L13.55 16.25 Q10.15 23.1 10.15 28.55 10.15 31.4 10.6 33.5 11.5 37.6 14.2 38.7 17.85 38.4 21.6 27.8 L22.1 27.1 22.6 28.9 23.1 31.5 Q23.1 32.8 22.3 35.1 L21.45 37.8 21.75 38.1 22.45 38.15 Q23.2 38.15 24.55 37.4 L27.25 35.9 Q26.65 39.1 24.3 42.1 21.35 45.9 16.65 47.3 17.65 48.45 19.5 49.15 L22.15 50.3 18.0 51.25 13.15 51.6 Q9.4 51.6 7.35 50.7 6.85 50.85 4.45 48.55 2.0 46.25 -1.8 46.0 -5.65 45.75 -4.9 32.95 -4.35 22.45 -0.95 14.75 M11.4 48.55 L8.95 49.95 7.35 50.7 8.95 49.95 11.4 48.55 M-18.85 -24.25 Q-19.75 -24.6 -20.25 -24.9 L-22.85 -26.45 Q-21.5 -29.45 -16.6 -36.8 -15.3 -38.75 -12.85 -40.8 L-10.0 -43.1 Q-11.4 -41.5 -14.7 -35.3 -18.35 -28.5 -18.1 -27.2 L-18.85 -24.25 M13.35 47.9 L16.65 47.3 13.35 47.9 M18.55 38.15 L17.8 38.95 16.45 39.1 14.2 38.7 16.45 39.1 17.8 38.95 18.55 38.15" fill="#d6baba" fill-rule="evenodd" stroke="none"/>
      <path d="M-0.95 14.75 Q-4.35 22.45 -4.9 32.95 -5.65 45.75 -1.8 46.0 2.0 46.25 4.45 48.55 6.85 50.85 7.35 50.7 L8.95 49.95 11.4 48.55 M16.75 -48.75 L16.8 -48.7 18.9 -49.1 19.55 -49.2 Q24.55 -49.95 26.6 -48.15 31.1 -44.15 31.5 -29.7 31.85 -15.3 21.0 3.3 L13.55 16.25 Q10.15 23.1 10.15 28.55 10.15 31.4 10.6 33.5 L11.35 34.4 12.55 35.55 Q15.6 35.55 21.6 27.8 L22.1 27.1 22.6 28.9 23.1 31.5 Q23.1 32.8 22.3 35.1 L21.45 37.8 21.75 38.1 22.45 38.15 Q23.2 38.15 24.55 37.4 L27.25 35.9 27.3 35.55 27.3 35.85 27.25 35.9 Q26.65 39.1 24.3 42.1 21.35 45.9 16.65 47.3 17.65 48.45 19.5 49.15 L22.15 50.3 18.0 51.25 13.15 51.6 Q9.4 51.6 7.35 50.7 M27.65 -29.25 L27.75 -30.2 27.8 -31.45 Q28.25 -40.75 27.05 -43.6 25.8 -46.5 18.55 -45.6 11.3 -44.7 0.95 -39.8 -7.65 -35.75 -10.9 -30.3 -12.25 -28.15 -12.7 -25.8 L-12.85 -24.55 -12.95 -23.1 -12.8 -22.5 -18.2 -24.0 -18.85 -24.25 Q-19.75 -24.6 -20.25 -24.9 L-22.85 -26.45 -24.4 -27.4 -24.4 -27.55 Q-23.65 -30.65 -22.25 -33.5 -19.45 -39.15 -11.75 -45.0 -4.1 -50.9 9.0 -51.5 14.6 -51.8 16.75 -48.75 M-0.95 14.75 L0.7 11.45 Q3.75 6.05 11.55 -1.4 19.5 -9.0 22.4 -13.85 26.7 -21.15 27.65 -29.25 M14.2 38.7 L16.45 39.1 17.8 38.95 18.55 38.15 M16.65 47.3 L13.35 47.9 M10.6 33.5 Q11.5 37.6 14.2 38.7" fill="none" stroke="#000000" stroke-linecap="round" stroke-linejoin="round" stroke-opacity="0.3019608" stroke-width="0.05"/>
      <path d="M-29.35 -24.6 L-30.8 -25.6 -31.2 -25.85 -31.25 -25.9 -31.5 -26.25 Q-31.15 -33.75 -25.75 -38.85 L-26.25 -35.5 -26.7 -29.15 Q-20.95 -31.6 -14.9 -32.3 -10.1 -32.9 -5.15 -32.4 L-8.15 -32.3 Q-13.6 -31.95 -17.2 -30.4 L-25.0 -27.35 Q-28.15 -25.95 -29.35 -24.6 M-17.55 -27.0 L-16.85 -26.55 Q-14.1 -24.75 -11.1 -24.0 L-14.8 -24.4 -18.35 -25.05 -21.7 -25.85 -18.6 -26.75 -17.55 -27.0" fill="#ffffff" fill-rule="evenodd" stroke="none"/>
      <path d="M-5.15 -32.4 L-3.75 -32.25 -18.0 -27.35 -17.55 -27.0 -18.6 -26.75 -21.7 -25.85 -18.35 -25.05 -14.8 -24.4 -11.1 -24.0 Q-6.55 -22.95 -1.5 -24.55 -6.75 -21.5 -12.75 -20.8 -7.05 -19.6 -2.25 -16.4 L-10.0 -15.2 Q-21.95 -19.3 -25.45 -21.85 L-29.35 -24.6 Q-28.15 -25.95 -25.0 -27.35 L-17.2 -30.4 Q-13.6 -31.95 -8.15 -32.3 L-5.15 -32.4" fill="#d6baba" fill-rule="evenodd" stroke="none"/>
      <path d="M-29.35 -24.6 L-30.8 -25.6 -31.2 -25.85 -31.25 -25.9 -31.5 -26.25 Q-31.15 -33.75 -25.75 -38.85 L-26.25 -35.5 -26.7 -29.15 Q-20.95 -31.6 -14.9 -32.3 -10.1 -32.9 -5.15 -32.4 L-3.75 -32.25 -18.0 -27.35 -17.55 -27.0 -16.85 -26.55 Q-14.1 -24.75 -11.1 -24.0 -6.55 -22.95 -1.5 -24.55 -6.75 -21.5 -12.75 -20.8 -7.05 -19.6 -2.25 -16.4 L-10.0 -15.2 Q-21.95 -19.3 -25.45 -21.85 L-29.35 -24.6 Z" fill="none" stroke="#000000" stroke-linecap="round" stroke-linejoin="round" stroke-opacity="0.3019608" stroke-width="0.05"/>
    </g>
    <g id="sprite1" transform="matrix(1.0, 0.0, 0.0, 1.0, 31.35, 31.95)">
      <use height="63.95" transform="matrix(1.0, 0.0, 0.0, 1.0, -31.35, -31.95)" width="63.3" xlink:href="#shape1"/>
    </g>
    <g id="shape1" transform="matrix(1.0, 0.0, 0.0, 1.0, 31.35, 31.95)">
      <path d="M-19.5 28.2 L-22.1 26.65 Q-27.15 23.0 -26.25 17.45 L-26.1 16.25 Q-25.6 14.5 -26.1 13.1 L-26.25 12.75 -26.8 12.05 -26.95 11.9 Q-28.55 9.8 -29.4 7.55 -30.95 3.9 -31.3 0.45 -31.65 -8.75 -27.5 -17.1 -23.3 -26.45 -14.45 -29.55 -4.75 -32.85 5.15 -31.65 L5.85 -31.6 7.9 -29.9 Q13.45 -25.9 12.95 -19.0 12.25 -10.65 9.3 -2.7 7.55 1.65 3.4 3.55 -5.3 7.9 -13.95 11.7 L-15.0 11.55 Q-17.95 9.45 -19.35 11.9 -20.55 11.55 -21.6 12.25 L-22.45 13.1 -23.15 12.95 -25.4 12.05 -25.6 12.05 -26.25 11.7 -26.25 11.9 -26.1 12.05 -25.6 12.75 -25.4 13.1 Q-24.9 14.5 -25.4 16.25 L-25.6 17.45 -25.05 17.6 -21.6 18.15 -15.15 19.7 Q-13.45 20.05 -11.85 20.9 -10.85 21.45 -9.95 22.3 -8.9 23.0 -7.9 24.05 L-7.55 24.2 -7.9 24.4 Q-12.9 28.4 -19.5 28.2" fill="#efcdaf" fill-rule="evenodd" stroke="none"/>
      <path d="M-19.5 28.2 Q-12.9 28.4 -7.9 24.4 L-7.55 24.2 -7.9 24.05 Q-8.9 23.0 -9.95 22.3 -10.85 21.45 -11.85 20.9 -13.45 20.05 -15.15 19.7 L-21.6 18.15 -25.05 17.6 -25.6 17.45 -25.4 16.25 Q-24.9 14.5 -25.4 13.1 L-25.6 12.75 -26.1 12.05 -26.25 11.9 -26.25 11.7 -25.6 12.05 -25.4 12.05 -23.15 12.95 -22.45 13.1 -21.6 12.25 Q-20.55 11.55 -19.35 11.9 -17.95 9.45 -15.0 11.55 L-13.95 11.7 Q-5.3 7.9 3.4 3.55 7.55 1.65 9.3 -2.7 12.25 -10.65 12.95 -19.0 13.45 -25.9 7.9 -29.9 L5.85 -31.6 5.8 -31.65 7.55 -31.5 10.7 -30.45 12.95 -29.55 Q15.55 -28.55 18.65 -26.8 27.85 -21.75 30.45 -12.55 32.9 -3.55 31.35 0.8 29.95 4.95 28.55 6.15 27.15 7.2 26.8 8.95 25.95 11.7 24.55 14.35 L22.65 17.45 18.15 22.15 16.75 23.35 16.6 23.35 12.75 25.8 Q7.2 28.9 2.0 30.3 -3.9 32.0 -9.45 32.0 L-10.15 32.0 -13.8 31.0 -17.4 29.4 -19.5 28.2" fill="#c6886a" fill-rule="evenodd" stroke="none"/>
      <path d="M5.85 -31.6 L5.15 -31.65 Q-4.75 -32.85 -14.45 -29.55 -23.3 -26.45 -27.5 -17.1 -31.65 -8.75 -31.3 0.45 -30.95 3.9 -29.4 7.55 -28.55 9.8 -26.95 11.9 L-26.8 12.05 -26.25 12.75 -26.1 13.1 Q-25.6 14.5 -26.1 16.25 L-26.25 17.45 Q-27.15 23.0 -22.1 26.65 L-19.5 28.2 M5.85 -31.6 L5.8 -31.65 7.55 -31.5 10.7 -30.45 12.95 -29.55 Q15.55 -28.55 18.65 -26.8 27.85 -21.75 30.45 -12.55 32.9 -3.55 31.35 0.8 29.95 4.95 28.55 6.15 27.15 7.2 26.8 8.95 25.95 11.7 24.55 14.35 L22.65 17.45 18.15 22.15 16.75 23.35 16.6 23.35 12.75 25.8 Q7.2 28.9 2.0 30.3 -3.9 32.0 -9.45 32.0 L-10.15 32.0 -13.8 31.0 -17.4 29.4 -19.5 28.2" fill="none" stroke="#000000" stroke-linecap="round" stroke-linejoin="round" stroke-opacity="0.3019608" stroke-width="0.05"/>
    </g>
    <g id="sprite2" transform="matrix(1.0, 0.0, 0.0, 1.0, 12.45, 5.0)">
      <use height="10.05" transform="matrix(1.0, 0.0, 0.0, 1.0, -12.45, -5.0)" width="24.85" xlink:href="#shape2"/>
    </g>
    <g id="shape2" transform="matrix(1.0, 0.0, 0.0, 1.0, 12.45, 5.0)">
      <path d="M-10.5 -3.95 L-10.55 -2.4 Q-10.55 -1.85 -11.15 -1.5 -11.8 -1.2 -12.25 -2.3 L-12.45 -3.35 Q-12.45 -5.05 -11.4 -5.0 -10.4 -4.95 -10.5 -3.95 M8.2 5.05 Q5.4 5.05 3.8 4.25 2.55 3.55 2.55 2.7 2.55 -0.05 7.5 0.3 12.4 0.65 12.4 2.85 12.4 3.5 11.75 4.1 10.65 5.05 8.2 5.05" fill="#f29595" fill-opacity="0.5294118" fill-rule="evenodd" stroke="none"/>
    </g>
    <g id="sprite3" transform="matrix(1.0, 0.0, 0.0, 1.0, 20.8, 22.05)">
      <use height="6.05" id="yeux" transform="matrix(3.5469, 0.6759, 0.0, 3.8129, -7.3594, -22.0349)" width="8.3" xlink:href="#sprite4"/>
      <use height="6.05" transform="matrix(-0.7089, 0.0624, 0.9139, 3.339, -14.9276, -20.8291)" width="8.3" xlink:href="#sprite4"/>
    </g>
    <g id="sprite4" transform="matrix(1.0, 0.0, 0.0, 1.0, 3.4, 5.95)">
      <use height="6.05" transform="matrix(1.0, 0.0, 0.0, 1.0, -3.4, -5.95)" width="8.3" xlink:href="#sprite5"/>
    </g>
    <g id="sprite5" transform="matrix(1.0, 0.0, 0.0, 1.0, 3.65, 3.45)">
      <use height="3.95" transform="matrix(1.0, 0.0, 0.0, 1.0, -3.35, -3.45)" width="7.75" xlink:href="#sprite6"/>
      <use height="3.8" transform="matrix(1.0, 0.0, 0.0, 1.0, -2.85, -1.2)" width="6.4" xlink:href="#sprite7"/>
    </g>
    <g id="sprite6" transform="matrix(1.0, 0.0, 0.0, 1.0, 3.85, 2.2)">
      <use height="1.45" transform="matrix(1.0, 0.0, 0.0, 1.0, -2.45, -2.2)" width="4.45" xlink:href="#shape3"/>
    </g>
    <g id="shape3" transform="matrix(1.0, 0.0, 0.0, 1.0, 2.45, 2.2)">
      <path d="M-2.25 -0.95 L-1.35 -1.5 -0.15 -1.9 1.25 -1.95 1.8 -1.85" fill="none" stroke="#000000" stroke-linecap="round" stroke-linejoin="round" stroke-opacity="0.5019608" stroke-width="0.4"/>
    </g>
    <g id="sprite7" transform="matrix(1.0, 0.0, 0.0, 1.0, 3.2, 2.15)">
      <use height="3.45" transform="matrix(1.0, 0.0, 0.0, 1.0, -3.0, -2.15)" width="5.5" xlink:href="#shape4"/>
    </g>
    <g id="shape4" transform="matrix(1.0, 0.0, 0.0, 1.0, 3.0, 2.15)">
      <path d="M0.5 0.75 L0.2 0.85 0.05 0.9 -1.0 1.1 -1.1 1.1 -1.5 0.9 -1.6 0.75 -1.7 0.5 -1.8 0.1 -1.65 -0.65 -0.8 -0.95 -0.15 -1.2 0.5 -0.5 0.6 -0.05 0.55 0.65 0.5 0.75 M0.05 0.4 L0.0 0.35 -1.2 0.6 -1.3 0.7 -0.45 0.85 0.05 0.4 M-0.2 -0.05 L-0.3 -0.15 -0.6 0.0 -1.05 0.4 -0.9 0.35 -0.2 0.15 -0.2 0.1 -0.2 -0.05" fill="#096f6f" fill-rule="evenodd" stroke="none"/>
      <path d="M1.8 -0.75 L1.8 -0.45 1.75 -0.2 1.6 0.0 1.3 0.4 1.1 0.5 0.5 0.75 0.55 0.65 0.6 -0.05 0.5 -0.5 -0.15 -1.2 1.6 -1.05 1.8 -0.75 M-1.65 -0.65 L-1.8 0.1 -1.7 0.5 -1.6 0.75 -1.5 0.9 -1.1 1.1 -1.0 1.1 -2.35 1.2 -2.5 1.2 -2.55 1.1 -2.6 0.55 -2.35 0.2 -1.7 -0.55 -1.65 -0.65" fill="#fbfbfb" fill-rule="evenodd" stroke="none"/>
      <path d="M0.05 0.4 L-0.45 0.85 -1.3 0.7 -1.2 0.6 0.0 0.35 0.05 0.4" fill="#00ffff" fill-rule="evenodd" stroke="none"/>
      <path d="M-0.2 -0.05 L-0.2 0.1 -0.2 0.15 -0.9 0.35 -1.05 0.4 -0.6 0.0 -0.3 -0.15 -0.2 -0.05" fill="#054746" fill-rule="evenodd" stroke="none"/>
      <path d="M0.5 0.75 L0.55 0.65 0.6 -0.05 0.5 -0.5 -0.15 -1.2 M-1.65 -0.65 L-1.8 0.1 -1.7 0.5 -1.6 0.75 -1.5 0.9 -1.1 1.1 -1.0 1.1" fill="none" stroke="#000000" stroke-linecap="round" stroke-linejoin="round" stroke-opacity="0.4" stroke-width="0.05"/>
      <path d="M0.3 -2.05 L0.2 -1.65 M0.05 0.9 L0.35 1.15 M-2.15 -0.6 L-1.7 -0.55 M-0.8 -0.95 L-1.1 -1.5 M-2.5 1.2 L-2.55 1.1 -2.6 0.55 M-2.35 0.2 L-2.9 0.0" fill="none" stroke="#000000" stroke-linecap="round" stroke-linejoin="round" stroke-opacity="0.5019608" stroke-width="0.2"/>
      <path d="M1.8 -0.75 L1.8 -0.45 M1.8 -0.75 Q1.8 -1.35 2.2 -1.65 M-0.15 -1.2 L1.6 -1.05 1.8 -0.75 M-0.15 -1.2 L-0.8 -0.95 -1.65 -0.65 M-1.7 -0.55 L-1.65 -0.65 M-2.6 0.55 L-2.35 0.2 -1.7 -0.55" fill="none" stroke="#000000" stroke-linecap="round" stroke-linejoin="round" stroke-opacity="0.5019608" stroke-width="0.6000000000000001"/>
      <path d="M1.3 0.4 L1.1 0.5" fill="none" stroke="#000000" stroke-linecap="round" stroke-linejoin="round" stroke-opacity="0.3529412" stroke-width="0.2"/>
      <path d="M1.6 0.0 L1.3 0.4 M1.1 0.5 L0.5 0.75 0.2 0.85 0.05 0.9 M-1.0 1.1 L0.05 0.9" fill="none" stroke="#000000" stroke-linecap="round" stroke-linejoin="round" stroke-opacity="0.3529412" stroke-width="0.4"/>
    </g>
    <g id="sprite8" transform="matrix(1.0, 0.0, 0.0, 1.0, 26.45, 24.95)">
      <use height="49.85" transform="matrix(1.0, 0.0, 0.0, 1.0, -26.45, -24.95)" width="52.85" xlink:href="#shape5"/>
    </g>
    <g id="shape5" transform="matrix(1.0, 0.0, 0.0, 1.0, 26.45, 24.95)">
      <path d="M9.55 -24.65 L10.95 -21.3 Q12.55 -17.9 12.55 -15.15 12.55 -11.65 10.85 -9.45 L10.2 -8.7 Q9.0 -7.5 7.7 -7.15 7.4 -7.15 4.95 -9.85 1.9 -12.7 -1.2 -13.3 L0.1 -11.55 Q1.25 -9.95 1.6 -8.65 L2.5 -4.6 -0.55 -3.9 -5.6 -3.25 -7.6 -3.45 -8.95 -3.7 Q-8.8 -2.6 -5.7 -0.85 -2.7 0.9 -1.1 0.9 -2.3 1.65 -3.65 4.5 -4.85 7.05 -4.85 8.15 L-4.75 8.8 -3.7 12.3 Q-2.6 15.4 -2.6 20.55 L-2.8 24.9 -2.85 24.9 Q-3.75 21.05 -7.65 15.0 L-7.95 14.55 -11.55 8.8 -11.25 8.25 -10.05 6.2 -8.75 3.8 -12.4 5.9 -14.1 6.9 -16.1 8.15 Q-16.85 8.8 -19.05 12.6 L-21.15 15.95 -21.2 14.3 -20.1 3.55 Q-19.55 1.85 -18.8 1.0 L-18.35 0.5 Q-17.8 0.2 -17.5 0.05 -17.8 0.2 -18.35 0.5 L-18.95 0.75 -17.5 0.05 -17.5 0.0 -16.85 -0.35 -14.0 -2.1 Q-17.0 -0.8 -19.3 -0.2 L-19.35 -0.2 -25.15 0.6 -26.15 0.6 -26.45 0.35 Q-26.25 0.35 -26.2 0.25 L-26.15 0.1 Q-24.0 0.65 -19.95 -3.0 L-18.95 -3.95 Q-14.2 -8.65 -10.75 -10.95 L-10.6 -11.0 -10.6 -11.3 -10.75 -10.95 -20.0 -8.85 -18.7 -10.1 -18.5 -10.3 Q-14.8 -13.85 -12.4 -15.35 -7.15 -18.65 -1.4 -18.15 2.3 -17.9 5.45 -15.45 L7.1 -16.85 Q8.45 -18.15 8.9 -19.0 9.5 -20.3 9.45 -21.95 L9.05 -24.95 9.55 -24.65 M9.6 -11.9 Q8.5 -12.55 5.7 -15.3 L5.45 -15.45 5.7 -15.3 Q8.5 -12.55 9.6 -11.9 M6.55 -1.05 Q10.15 -3.0 11.05 -3.0 14.25 -3.0 16.2 0.35 17.75 3.05 17.85 6.2 L17.85 6.75 Q15.5 4.15 11.7 1.65 8.85 -0.3 7.0 -0.9 L6.55 -1.05 M2.35 4.5 Q2.65 6.05 3.55 8.2 L6.05 13.4 5.3 13.4 Q3.8 13.15 2.5 11.6 L1.45 10.0 1.6 9.45 1.75 8.75 2.35 4.5 M-19.5 1.0 L-19.65 1.05 -21.65 1.65 -19.5 1.0" fill="#ffffff" fill-rule="evenodd" stroke="none"/>
      <path d="M9.55 -24.65 Q11.9 -23.25 13.55 -21.25 16.45 -17.9 16.55 -13.65 16.6 -11.95 16.1 -10.35 L21.45 -11.85 26.4 -13.15 Q26.35 -10.3 21.8 -7.45 17.3 -4.65 13.45 -5.0 L13.6 -4.85 13.65 -4.75 Q16.05 -4.3 19.05 0.05 22.5 5.0 22.55 10.55 L22.35 14.6 Q20.2 13.2 18.4 12.15 16.4 11.0 14.6 10.5 L14.35 10.45 11.8 10.05 10.05 10.25 13.85 13.95 Q16.65 16.45 18.25 16.65 L18.25 16.7 12.4 17.1 Q5.8 17.0 3.7 16.2 1.2 15.25 0.1 12.25 0.2 14.95 -0.1 18.0 -0.7 23.75 -2.8 24.9 L-2.6 20.55 Q-2.6 15.4 -3.7 12.3 L-4.75 8.8 -4.85 8.15 Q-4.85 7.05 -3.65 4.5 -2.3 1.65 -1.1 0.9 -2.7 0.9 -5.7 -0.85 -8.8 -2.6 -8.95 -3.7 L-7.6 -3.45 -5.6 -3.25 -0.55 -3.9 2.5 -4.6 1.6 -8.65 Q1.25 -9.95 0.1 -11.55 L-1.2 -13.3 Q1.9 -12.7 4.95 -9.85 7.4 -7.15 7.7 -7.15 9.0 -7.5 10.2 -8.7 L10.85 -9.45 Q12.55 -11.65 12.55 -15.15 12.55 -17.9 10.95 -21.3 L9.55 -24.65 M-0.15 11.2 L0.1 12.25 -0.15 11.2 M-26.15 0.6 L-25.15 0.6 -19.35 -0.2 -19.3 -0.2 Q-17.0 -0.8 -14.0 -2.1 L-16.85 -0.35 -17.5 0.0 -17.5 0.05 -18.95 0.75 -19.35 0.95 -19.45 1.0 -19.5 1.0 -21.65 1.65 -22.4 1.75 Q-24.85 1.6 -26.15 0.6 M-21.15 15.95 L-19.05 12.6 Q-16.85 8.8 -16.1 8.15 L-14.1 6.9 -12.4 5.9 -8.75 3.8 -10.05 6.2 -11.25 8.25 -11.55 8.8 -11.85 8.3 -12.3 8.9 Q-15.1 12.1 -18.55 14.35 L-21.05 16.25 -21.15 16.1 -21.15 15.95 M2.35 4.5 L1.75 8.75 1.6 9.45 1.45 10.0 2.5 11.6 Q3.8 13.15 5.3 13.4 L6.05 13.4 3.55 8.2 Q2.65 6.05 2.35 4.5 M6.55 -1.05 L7.0 -0.9 Q8.85 -0.3 11.7 1.65 15.5 4.15 17.85 6.75 L17.85 6.2 Q17.75 3.05 16.2 0.35 14.25 -3.0 11.05 -3.0 10.15 -3.0 6.55 -1.05" fill="#d6baba" fill-rule="evenodd" stroke="none"/>
      <path d="M18.25 16.65 Q16.65 16.45 13.85 13.95 L10.05 10.25 11.8 10.05 14.35 10.45 14.6 10.5 Q16.4 11.0 18.4 12.15 20.2 13.2 22.35 14.6 L22.55 10.55 Q22.5 5.0 19.05 0.05 16.05 -4.3 13.65 -4.75 L13.6 -4.85 13.45 -5.0 Q17.3 -4.65 21.8 -7.45 26.35 -10.3 26.4 -13.15 L21.45 -11.85 16.1 -10.35 Q16.6 -11.95 16.55 -13.65 16.45 -17.9 13.55 -21.25 11.9 -23.25 9.55 -24.65 L9.05 -24.95 9.45 -21.95 Q9.5 -20.3 8.9 -19.0 8.45 -18.15 7.1 -16.85 L5.45 -15.45 Q2.3 -17.9 -1.4 -18.15 -7.15 -18.65 -12.4 -15.35 -14.8 -13.85 -18.5 -10.3 L-18.7 -10.1 -20.0 -8.85 -10.75 -10.95 Q-14.2 -8.65 -18.95 -3.95 L-19.95 -3.0 Q-24.0 0.65 -26.15 0.1 L-26.2 0.25 Q-26.25 0.35 -26.45 0.35 L-26.15 0.6 M-2.8 24.9 Q-0.7 23.75 -0.1 18.0 0.2 14.95 0.1 12.25 L-0.15 11.2 M5.45 -15.45 L5.7 -15.3 Q8.5 -12.55 9.6 -11.9 M-10.6 -11.0 L-10.75 -10.95 M-17.5 0.0 L-17.5 0.05 Q-17.8 0.2 -18.35 0.5 L-18.8 1.0 Q-19.55 1.85 -20.1 3.55 L-21.2 14.3 -21.15 15.95 M-11.55 8.8 L-7.95 14.55 -7.65 15.0 Q-3.75 21.05 -2.85 24.9 L-2.8 24.9 M0.1 12.25 Q1.2 15.25 3.7 16.2 5.8 17.0 12.4 17.1 L18.25 16.7 M-21.65 1.65 L-19.65 1.05 -19.5 1.0 -19.45 1.0 -19.35 0.95 -18.95 0.75 -18.35 0.5 M-21.65 1.65 L-22.4 1.75 Q-24.85 1.6 -26.15 0.6 M-11.55 8.8 L-11.85 8.3 -12.3 8.9 Q-15.1 12.1 -18.55 14.35 L-21.05 16.25 M-21.15 16.1 L-21.15 15.95" fill="none" stroke="#000000" stroke-linecap="round" stroke-linejoin="round" stroke-opacity="0.3019608" stroke-width="0.05"/>
    </g>
    <g id="sprite9" transform="matrix(1.0, 0.0, 0.0, 1.0, 10.1, 9.4)">
      <use height="19.0" transform="matrix(1.0, 0.0, 0.0, 1.0, -10.1, -9.4)" width="20.95" xlink:href="#shape6"/>
    </g>
    <g id="shape6" transform="matrix(1.0, 0.0, 0.0, 1.0, 10.1, 9.4)">
      <path d="M-8.45 9.6 L-8.5 9.6 -8.75 9.4 -8.45 9.6 M-9.9 7.75 L-10.1 7.05 -10.05 7.05 -9.9 7.75 M5.6 -8.35 L6.35 -7.5 Q6.8 -6.95 6.2 -6.15 L5.4 -5.2 Q4.3 -4.25 3.0 -3.7 0.95 -2.95 -0.35 -4.15 L-0.4 -5.05 0.2 -5.8 1.2 -6.75 Q3.3 -7.8 5.6 -8.35" fill="#efcdaf" fill-rule="evenodd" stroke="none"/>
      <path d="M-3.3 -5.25 L1.25 -7.5 Q3.5 -8.75 5.9 -9.05 L8.6 -9.4 10.85 -9.05 Q9.15 -2.65 4.95 3.0 L4.8 3.2 3.4 4.65 0.35 6.75 -1.6 7.75 Q-3.2 8.6 -4.8 9.05 L-8.45 9.6 -8.75 9.4 -8.8 9.35 -8.9 9.25 -9.55 8.45 -9.9 7.75 -10.05 7.05 -10.1 7.05 -4.8 -2.35 Q-4.4 -3.6 -3.3 -5.25 M5.6 -8.35 Q3.3 -7.8 1.2 -6.75 L0.2 -5.8 -0.4 -5.05 -0.35 -4.15 Q0.95 -2.95 3.0 -3.7 4.3 -4.25 5.4 -5.2 L6.2 -6.15 Q6.8 -6.95 6.35 -7.5 L5.6 -8.35 M-4.2 1.05 L-0.6 -2.2 0.6 -2.85 Q2.7 -3.7 4.0 -2.5 4.4 -0.55 2.9 1.3 L1.2 3.2 -0.1 4.2 1.2 3.2 2.9 1.3 Q4.4 -0.55 4.0 -2.5 2.7 -3.7 0.6 -2.85 L-0.6 -2.2 -4.2 1.05" fill="#c6886a" fill-rule="evenodd" stroke="none"/>
      <path d="M-3.3 -5.25 L1.25 -7.5 Q3.5 -8.75 5.9 -9.05 L8.6 -9.4 10.85 -9.05 Q9.15 -2.65 4.95 3.0 L4.8 3.2 3.4 4.65 0.35 6.75 -1.6 7.75 Q-3.2 8.6 -4.8 9.05 L-8.45 9.6 -8.75 9.4 -8.8 9.35 -8.9 9.25 -9.7 8.55 -9.9 7.75 -10.05 7.05 M-0.1 4.2 L1.2 3.2 2.9 1.3 Q4.4 -0.55 4.0 -2.5 2.7 -3.7 0.6 -2.85 L-0.6 -2.2 -4.2 1.05" fill="none" stroke="#000000" stroke-linecap="round" stroke-linejoin="round" stroke-opacity="0.3019608" stroke-width="0.05"/>
    </g>
  </defs>
</svg>
