<?xml version="1.0" encoding="UTF-8" standalone="no"?>
<svg xmlns:xlink="http://www.w3.org/1999/xlink" height="113.0px" width="124.15px" xmlns="http://www.w3.org/2000/svg">
  <g transform="matrix(1.0, 0.0, 0.0, 1.0, 49.55, 50.0)">
    <use height="63.95" id="_col0a" transform="matrix(1.0, 0.0, 0.0, 1.0, -31.35, -25.9)" width="63.3" xlink:href="#sprite0"/>
    <use height="10.05" transform="matrix(1.0, 0.0, 0.0, 1.0, -26.4, 24.0)" width="24.85" xlink:href="#sprite1"/>
    <use height="28.7" transform="matrix(0.9958, 0.088, 0.0, 1.0, -32.563, 2.769)" width="42.9" xlink:href="#sprite2"/>
    <use height="79.75" id="_col1" transform="matrix(1.0, 0.0, 0.0, 1.0, -36.6, -45.6)" width="89.4" xlink:href="#sprite7"/>
    <use height="19.0" id="_col0c" transform="matrix(1.0, 0.0, 0.0, 1.0, 11.4, 11.95)" width="20.95" xlink:href="#sprite8"/>
    <use height="61.6" id="_p4" transform="matrix(1.0, 0.0, 0.0, 1.0, -39.7, -15.55)" width="56.9" xlink:href="#sprite9"/>
    <use height="41.35" id="_col2" transform="matrix(0.8965, 0.0, 0.0, 1.0, -29.1511, -24.0)" width="52.15" xlink:href="#sprite11"/>
  </g>
  <defs>
    <g id="sprite0" transform="matrix(1.0, 0.0, 0.0, 1.0, 31.35, 31.95)">
      <use height="63.95" transform="matrix(1.0, 0.0, 0.0, 1.0, -31.35, -31.95)" width="63.3" xlink:href="#shape0"/>
    </g>
    <g id="shape0" transform="matrix(1.0, 0.0, 0.0, 1.0, 31.35, 31.95)">
      <path d="M-19.5 28.2 L-22.1 26.65 Q-27.15 23.0 -26.25 17.45 L-26.1 16.25 Q-25.6 14.5 -26.1 13.1 L-26.25 12.75 -26.8 12.05 -26.95 11.9 Q-28.55 9.8 -29.4 7.55 -30.95 3.9 -31.3 0.45 -31.65 -8.75 -27.5 -17.1 -23.3 -26.45 -14.45 -29.55 -4.75 -32.85 5.15 -31.65 L5.85 -31.6 7.9 -29.9 Q13.45 -25.9 12.95 -19.0 12.25 -10.65 9.3 -2.7 7.55 1.65 3.4 3.55 -5.3 7.9 -13.95 11.7 L-15.0 11.55 Q-17.95 9.45 -19.35 11.9 -20.55 11.55 -21.6 12.25 L-22.45 13.1 -23.15 12.95 -25.4 12.05 -25.6 12.05 -26.25 11.7 -26.25 11.9 -26.1 12.05 -25.6 12.75 -25.4 13.1 Q-24.9 14.5 -25.4 16.25 L-25.6 17.45 -25.05 17.6 -21.6 18.15 -15.15 19.7 Q-13.45 20.05 -11.85 20.9 -10.85 21.45 -9.95 22.3 -8.9 23.0 -7.9 24.05 L-7.55 24.2 -7.9 24.4 Q-12.9 28.4 -19.5 28.2" fill="#efcdaf" fill-rule="evenodd" stroke="none"/>
      <path d="M-19.5 28.2 Q-12.9 28.4 -7.9 24.4 L-7.55 24.2 -7.9 24.05 Q-8.9 23.0 -9.95 22.3 -10.85 21.45 -11.85 20.9 -13.45 20.05 -15.15 19.7 L-21.6 18.15 -25.05 17.6 -25.6 17.45 -25.4 16.25 Q-24.9 14.5 -25.4 13.1 L-25.6 12.75 -26.1 12.05 -26.25 11.9 -26.25 11.7 -25.6 12.05 -25.4 12.05 -23.15 12.95 -22.45 13.1 -21.6 12.25 Q-20.55 11.55 -19.35 11.9 -17.95 9.45 -15.0 11.55 L-13.95 11.7 Q-5.3 7.9 3.4 3.55 7.55 1.65 9.3 -2.7 12.25 -10.65 12.95 -19.0 13.45 -25.9 7.9 -29.9 L5.85 -31.6 5.8 -31.65 7.55 -31.5 10.7 -30.45 12.95 -29.55 Q15.55 -28.55 18.65 -26.8 27.85 -21.75 30.45 -12.55 32.9 -3.55 31.35 0.8 29.95 4.95 28.55 6.15 27.15 7.2 26.8 8.95 25.95 11.7 24.55 14.35 L22.65 17.45 18.15 22.15 16.75 23.35 16.6 23.35 12.75 25.8 Q7.2 28.9 2.0 30.3 -3.9 32.0 -9.45 32.0 L-10.15 32.0 -13.8 31.0 -17.4 29.4 -19.5 28.2" fill="#c6886a" fill-rule="evenodd" stroke="none"/>
      <path d="M5.85 -31.6 L5.15 -31.65 Q-4.75 -32.85 -14.45 -29.55 -23.3 -26.45 -27.5 -17.1 -31.65 -8.75 -31.3 0.45 -30.95 3.9 -29.4 7.55 -28.55 9.8 -26.95 11.9 L-26.8 12.05 -26.25 12.75 -26.1 13.1 Q-25.6 14.5 -26.1 16.25 L-26.25 17.45 Q-27.15 23.0 -22.1 26.65 L-19.5 28.2 M5.85 -31.6 L5.8 -31.65 7.55 -31.5 10.7 -30.45 12.95 -29.55 Q15.55 -28.55 18.65 -26.8 27.85 -21.75 30.45 -12.55 32.9 -3.55 31.35 0.8 29.95 4.95 28.55 6.15 27.15 7.2 26.8 8.95 25.95 11.7 24.55 14.35 L22.65 17.45 18.15 22.15 16.75 23.35 16.6 23.35 12.75 25.8 Q7.2 28.9 2.0 30.3 -3.9 32.0 -9.45 32.0 L-10.15 32.0 -13.8 31.0 -17.4 29.4 -19.5 28.2" fill="none" stroke="#000000" stroke-linecap="round" stroke-linejoin="round" stroke-opacity="0.3019608" stroke-width="0.05"/>
    </g>
    <g id="sprite1" transform="matrix(1.0, 0.0, 0.0, 1.0, 12.45, 5.0)">
      <use height="10.05" transform="matrix(1.0, 0.0, 0.0, 1.0, -12.45, -5.0)" width="24.85" xlink:href="#shape1"/>
    </g>
    <g id="shape1" transform="matrix(1.0, 0.0, 0.0, 1.0, 12.45, 5.0)">
      <path d="M-10.5 -3.95 L-10.55 -2.4 Q-10.55 -1.85 -11.15 -1.5 -11.8 -1.2 -12.25 -2.3 L-12.45 -3.35 Q-12.45 -5.05 -11.4 -5.0 -10.4 -4.95 -10.5 -3.95 M8.2 5.05 Q5.4 5.05 3.8 4.25 2.55 3.55 2.55 2.7 2.55 -0.05 7.5 0.3 12.4 0.65 12.4 2.85 12.4 3.5 11.75 4.1 10.65 5.05 8.2 5.05" fill="#f29595" fill-opacity="0.5294118" fill-rule="evenodd" stroke="none"/>
    </g>
    <g id="sprite2" transform="matrix(1.0, 0.0, 0.0, 1.0, 20.8, 22.05)">
      <use height="6.05" id="yeux" transform="matrix(3.5469, 0.6759, 0.0, 3.8129, -7.3594, -22.0349)" width="8.3" xlink:href="#sprite3"/>
      <use height="6.05" transform="matrix(-0.7089, 0.0624, 0.9139, 3.339, -14.9276, -20.8291)" width="8.3" xlink:href="#sprite3"/>
    </g>
    <g id="sprite3" transform="matrix(1.0, 0.0, 0.0, 1.0, 3.4, 5.95)">
      <use height="6.05" transform="matrix(1.0, 0.0, 0.0, 1.0, -3.4, -5.95)" width="8.3" xlink:href="#sprite4"/>
    </g>
    <g id="sprite4" transform="matrix(1.0, 0.0, 0.0, 1.0, 3.65, 3.45)">
      <use height="3.95" transform="matrix(1.0, 0.0, 0.0, 1.0, -3.35, -3.45)" width="7.75" xlink:href="#sprite5"/>
      <use height="3.8" transform="matrix(1.0, 0.0, 0.0, 1.0, -2.85, -1.2)" width="6.4" xlink:href="#sprite6"/>
    </g>
    <g id="sprite5" transform="matrix(1.0, 0.0, 0.0, 1.0, 3.85, 2.2)">
      <use height="1.45" transform="matrix(1.0, 0.0, 0.0, 1.0, -2.45, -2.2)" width="4.45" xlink:href="#shape2"/>
    </g>
    <g id="shape2" transform="matrix(1.0, 0.0, 0.0, 1.0, 2.45, 2.2)">
      <path d="M-2.25 -0.95 L-1.35 -1.5 -0.15 -1.9 1.25 -1.95 1.8 -1.85" fill="none" stroke="#000000" stroke-linecap="round" stroke-linejoin="round" stroke-opacity="0.5019608" stroke-width="0.4"/>
    </g>
    <g id="sprite6" transform="matrix(1.0, 0.0, 0.0, 1.0, 3.2, 2.15)">
      <use height="3.45" transform="matrix(1.0, 0.0, 0.0, 1.0, -3.0, -2.15)" width="5.5" xlink:href="#shape3"/>
    </g>
    <g id="shape3" transform="matrix(1.0, 0.0, 0.0, 1.0, 3.0, 2.15)">
      <path d="M0.5 0.75 L0.2 0.85 0.05 0.9 -1.0 1.1 -1.1 1.1 -1.5 0.9 -1.6 0.75 -1.7 0.5 -1.8 0.1 -1.65 -0.65 -0.8 -0.95 -0.15 -1.2 0.5 -0.5 0.6 -0.05 0.55 0.65 0.5 0.75 M0.05 0.4 L0.0 0.35 -1.2 0.6 -1.3 0.7 -0.45 0.85 0.05 0.4 M-0.2 -0.05 L-0.3 -0.15 -0.6 0.0 -1.05 0.4 -0.9 0.35 -0.2 0.15 -0.2 0.1 -0.2 -0.05" fill="#096f6f" fill-rule="evenodd" stroke="none"/>
      <path d="M1.8 -0.75 L1.8 -0.45 1.75 -0.2 1.6 0.0 1.3 0.4 1.1 0.5 0.5 0.75 0.55 0.65 0.6 -0.05 0.5 -0.5 -0.15 -1.2 1.6 -1.05 1.8 -0.75 M-1.65 -0.65 L-1.8 0.1 -1.7 0.5 -1.6 0.75 -1.5 0.9 -1.1 1.1 -1.0 1.1 -2.35 1.2 -2.5 1.2 -2.55 1.1 -2.6 0.55 -2.35 0.2 -1.7 -0.55 -1.65 -0.65" fill="#fbfbfb" fill-rule="evenodd" stroke="none"/>
      <path d="M0.05 0.4 L-0.45 0.85 -1.3 0.7 -1.2 0.6 0.0 0.35 0.05 0.4" fill="#00ffff" fill-rule="evenodd" stroke="none"/>
      <path d="M-0.2 -0.05 L-0.2 0.1 -0.2 0.15 -0.9 0.35 -1.05 0.4 -0.6 0.0 -0.3 -0.15 -0.2 -0.05" fill="#054746" fill-rule="evenodd" stroke="none"/>
      <path d="M0.5 0.75 L0.55 0.65 0.6 -0.05 0.5 -0.5 -0.15 -1.2 M-1.65 -0.65 L-1.8 0.1 -1.7 0.5 -1.6 0.75 -1.5 0.9 -1.1 1.1 -1.0 1.1" fill="none" stroke="#000000" stroke-linecap="round" stroke-linejoin="round" stroke-opacity="0.4" stroke-width="0.05"/>
      <path d="M0.3 -2.05 L0.2 -1.65 M0.05 0.9 L0.35 1.15 M-2.15 -0.6 L-1.7 -0.55 M-0.8 -0.95 L-1.1 -1.5 M-2.5 1.2 L-2.55 1.1 -2.6 0.55 M-2.35 0.2 L-2.9 0.0" fill="none" stroke="#000000" stroke-linecap="round" stroke-linejoin="round" stroke-opacity="0.5019608" stroke-width="0.2"/>
      <path d="M1.8 -0.75 L1.8 -0.45 M1.8 -0.75 Q1.8 -1.35 2.2 -1.65 M-0.15 -1.2 L1.6 -1.05 1.8 -0.75 M-0.15 -1.2 L-0.8 -0.95 -1.65 -0.65 M-1.7 -0.55 L-1.65 -0.65 M-2.6 0.55 L-2.35 0.2 -1.7 -0.55" fill="none" stroke="#000000" stroke-linecap="round" stroke-linejoin="round" stroke-opacity="0.5019608" stroke-width="0.6000000000000001"/>
      <path d="M1.3 0.4 L1.1 0.5" fill="none" stroke="#000000" stroke-linecap="round" stroke-linejoin="round" stroke-opacity="0.3529412" stroke-width="0.2"/>
      <path d="M1.6 0.0 L1.3 0.4 M1.1 0.5 L0.5 0.75 0.2 0.85 0.05 0.9 M-1.0 1.1 L0.05 0.9" fill="none" stroke="#000000" stroke-linecap="round" stroke-linejoin="round" stroke-opacity="0.3529412" stroke-width="0.4"/>
    </g>
    <g id="sprite7" transform="matrix(1.0, 0.0, 0.0, 1.0, 34.75, 43.1)">
      <use height="79.75" transform="matrix(1.0, 0.0, 0.0, 1.0, -34.75, -43.1)" width="89.4" xlink:href="#shape4"/>
    </g>
    <g id="shape4" transform="matrix(1.0, 0.0, 0.0, 1.0, 34.75, 43.1)">
      <path d="M-32.35 -11.65 L-33.5 -13.95 -34.0 -15.95 Q-34.0 -20.15 -30.6 -23.15 -28.4 -25.1 -26.35 -25.6 L-26.1 -27.05 Q-25.65 -28.5 -24.95 -31.55 -23.4 -35.15 -19.45 -35.55 -18.6 -35.6 -17.3 -35.05 -15.9 -34.45 -15.05 -33.55 -14.55 -36.9 -10.6 -39.2 -7.05 -41.3 -2.15 -41.75 L4.1 -41.25 5.85 -39.95 6.45 -39.4 6.85 -38.9 Q11.1 -42.05 14.5 -42.85 18.9 -43.75 22.05 -41.55 L26.35 -38.1 Q27.25 -35.65 27.25 -33.0 27.25 -30.3 26.0 -28.8 24.95 -27.5 23.45 -27.45 L23.25 -27.25 Q25.75 -25.3 26.65 -24.25 28.6 -21.95 28.6 -19.2 28.6 -14.8 24.9 -13.5 L20.45 -13.1 Q20.7 -11.1 19.3 -9.4 17.6 -7.4 14.5 -7.35 L14.35 -7.35 12.5 -7.4 Q11.65 -7.55 11.35 -8.15 10.9 -6.2 9.5 -4.7 7.45 -2.4 4.15 -2.4 3.9 -2.4 3.7 -2.6 L3.25 -2.8 1.55 -2.0 1.2 -1.85 0.75 -2.05 Q-6.0 -4.3 -18.0 -4.3 L-20.45 -4.15 Q-20.5 -4.9 -21.15 -5.4 -21.95 -6.05 -22.75 -4.7 L-23.2 -3.55 Q-23.5 -3.05 -23.95 -2.95 L-24.05 -2.9 -23.3 -4.7 Q-23.3 -6.0 -24.6 -5.65 -25.85 -5.3 -26.35 -3.95 L-26.9 -2.6 -27.2 -2.05 -28.05 -0.3 -28.95 3.85 -29.45 6.95 -29.35 7.75 -31.05 6.25 Q-34.75 2.5 -34.75 -3.35 -34.75 -8.5 -32.35 -11.65 L-30.7 -13.45 -32.35 -11.65 M-25.9 4.1 Q-26.1 4.95 -26.55 5.0 L-26.55 4.9 -26.25 2.95 -25.8 3.35 -25.85 4.0 -25.9 4.1" fill="#ffffff" fill-rule="evenodd" stroke="none"/>
      <path d="M26.35 -38.1 Q28.0 -36.55 28.2 -35.6 L29.25 -35.65 Q33.35 -35.8 36.75 -34.35 41.75 -32.15 42.15 -27.05 42.45 -23.6 40.5 -21.8 55.25 -16.7 51.5 -4.5 51.25 -3.7 50.65 -3.1 L49.5 -2.3 Q60.25 6.35 48.65 13.1 L49.15 13.65 49.65 14.4 50.25 15.8 50.4 16.45 50.5 17.2 Q50.95 22.4 46.55 24.55 43.4 26.05 41.2 25.6 41.0 29.15 39.85 31.1 37.75 34.5 32.45 34.95 L30.1 34.7 29.55 33.85 29.25 33.9 Q29.65 34.95 28.5 35.75 27.45 36.45 25.65 36.6 L19.25 36.0 15.85 34.95 14.7 34.35 15.85 34.95 15.8 34.95 Q15.0 34.95 14.7 34.35 L14.6 34.15 14.55 33.25 Q14.55 31.8 17.2 28.2 19.85 24.65 19.85 22.1 19.85 20.1 14.95 14.45 L14.45 13.85 9.85 7.85 Q7.6 3.45 5.65 0.7 4.55 -0.7 1.2 -1.85 L1.55 -2.0 3.25 -2.8 3.7 -2.6 Q3.9 -2.4 4.15 -2.4 7.45 -2.4 9.5 -4.7 10.9 -6.2 11.35 -8.15 11.65 -7.55 12.5 -7.4 L14.35 -7.35 14.5 -7.35 Q17.6 -7.4 19.3 -9.4 20.7 -11.1 20.45 -13.1 L24.9 -13.5 Q28.6 -14.8 28.6 -19.2 28.6 -21.95 26.65 -24.25 25.75 -25.3 23.25 -27.25 L23.45 -27.45 Q24.95 -27.5 26.0 -28.8 27.25 -30.3 27.25 -33.0 27.25 -35.65 26.35 -38.1" fill="#d6baba" fill-rule="evenodd" stroke="none"/>
      <path d="M26.35 -38.1 L22.05 -41.55 Q18.9 -43.75 14.5 -42.85 11.1 -42.05 6.85 -38.9 L6.45 -39.4 5.85 -39.95 4.1 -41.25 -2.15 -41.75 Q-7.05 -41.3 -10.6 -39.2 -14.55 -36.9 -15.05 -33.55 -15.9 -34.45 -17.3 -35.05 -18.6 -35.6 -19.45 -35.55 -23.4 -35.15 -24.95 -31.55 -25.65 -28.5 -26.1 -27.05 L-26.35 -25.6 Q-28.4 -25.1 -30.6 -23.15 -34.0 -20.15 -34.0 -15.95 L-33.5 -13.95 -32.35 -11.65 -30.7 -13.45 M15.85 34.95 L19.25 36.0 25.65 36.6 Q27.45 36.45 28.5 35.75 29.65 34.95 29.25 33.9 L29.55 33.85 30.1 34.7 32.45 34.95 Q37.75 34.5 39.85 31.1 41.0 29.15 41.2 25.6 43.4 26.05 46.55 24.55 50.95 22.4 50.5 17.2 L50.4 16.45 50.25 15.8 49.65 14.4 49.15 13.65 48.65 13.1 Q60.25 6.35 49.5 -2.3 L50.65 -3.1 Q51.25 -3.7 51.5 -4.5 55.25 -16.7 40.5 -21.8 42.45 -23.6 42.15 -27.05 41.75 -32.15 36.75 -34.35 33.35 -35.8 29.25 -35.65 L28.2 -35.6 Q28.0 -36.55 26.35 -38.1 M14.7 34.35 L15.85 34.95 M-26.9 -2.6 L-27.2 -2.05 -28.05 -0.3 -28.95 3.85 -29.45 6.95 -29.35 7.75 -31.05 6.25 Q-34.75 2.5 -34.75 -3.35 -34.75 -8.5 -32.35 -11.65" fill="none" stroke="#000000" stroke-linecap="round" stroke-linejoin="round" stroke-opacity="0.3019608" stroke-width="0.05"/>
      <path d="M30.15 -32.1 L31.4 -32.1 Q32.5 -31.55 32.9 -29.7 M17.75 -25.25 L18.45 -25.4 19.6 -25.15 20.4 -24.75 M3.95 -34.7 Q5.45 -35.55 6.9 -35.55 9.45 -35.35 10.8 -34.55 M0.75 -29.3 L2.1 -29.85 M34.7 -23.85 L35.0 -23.9 37.75 -22.6 Q40.3 -20.45 39.45 -16.25 M34.2 -9.75 Q34.75 -9.65 35.35 -8.65 36.0 -7.6 36.3 -6.0 M46.65 -8.7 L48.0 -6.3 Q48.9 -4.7 48.9 -2.7 48.9 -0.2 47.1 1.1 M47.25 6.5 Q48.3 7.2 48.3 10.35 47.95 12.1 47.1 13.25 M42.35 14.9 L42.7 15.05 42.75 16.65 Q42.75 18.7 41.95 20.05 40.7 22.15 37.05 24.05 M32.1 28.05 Q31.55 28.65 29.8 29.3 L27.3 29.9 M38.25 8.55 Q38.25 10.15 37.65 11.25 M-14.9 -30.05 L-11.9 -32.3 Q-9.8 -33.45 -8.3 -33.45 L-6.4 -33.3 -6.0 -33.0 M-24.6 -21.45 L-23.95 -23.0 -22.05 -24.9 M-26.7 -8.25 L-27.15 -8.85 -27.45 -10.1 Q-26.85 -13.65 -24.3 -15.5 M-16.8 -18.9 L-17.15 -19.7 -17.05 -20.55 Q-16.7 -21.4 -15.45 -21.9" fill="none" stroke="#000000" stroke-linecap="round" stroke-linejoin="round" stroke-opacity="0.15294118" stroke-width="0.05"/>
    </g>
    <g id="sprite8" transform="matrix(1.0, 0.0, 0.0, 1.0, 10.1, 9.4)">
      <use height="19.0" transform="matrix(1.0, 0.0, 0.0, 1.0, -10.1, -9.4)" width="20.95" xlink:href="#shape5"/>
    </g>
    <g id="shape5" transform="matrix(1.0, 0.0, 0.0, 1.0, 10.1, 9.4)">
      <path d="M-8.45 9.6 L-8.5 9.6 -8.75 9.4 -8.45 9.6 M-9.9 7.75 L-10.1 7.05 -10.05 7.05 -9.9 7.75 M5.6 -8.35 L6.35 -7.5 Q6.8 -6.95 6.2 -6.15 L5.4 -5.2 Q4.3 -4.25 3.0 -3.7 0.95 -2.95 -0.35 -4.15 L-0.4 -5.05 0.2 -5.8 1.2 -6.75 Q3.3 -7.8 5.6 -8.35" fill="#efcdaf" fill-rule="evenodd" stroke="none"/>
      <path d="M-3.3 -5.25 L1.25 -7.5 Q3.5 -8.75 5.9 -9.05 L8.6 -9.4 10.85 -9.05 Q9.15 -2.65 4.95 3.0 L4.8 3.2 3.4 4.65 0.35 6.75 -1.6 7.75 Q-3.2 8.6 -4.8 9.05 L-8.45 9.6 -8.75 9.4 -8.8 9.35 -8.9 9.25 -9.55 8.45 -9.9 7.75 -10.05 7.05 -10.1 7.05 -4.8 -2.35 Q-4.4 -3.6 -3.3 -5.25 M5.6 -8.35 Q3.3 -7.8 1.2 -6.75 L0.2 -5.8 -0.4 -5.05 -0.35 -4.15 Q0.95 -2.95 3.0 -3.7 4.3 -4.25 5.4 -5.2 L6.2 -6.15 Q6.8 -6.95 6.35 -7.5 L5.6 -8.35 M-4.2 1.05 L-0.6 -2.2 0.6 -2.85 Q2.7 -3.7 4.0 -2.5 4.4 -0.55 2.9 1.3 L1.2 3.2 -0.1 4.2 1.2 3.2 2.9 1.3 Q4.4 -0.55 4.0 -2.5 2.7 -3.7 0.6 -2.85 L-0.6 -2.2 -4.2 1.05" fill="#c6886a" fill-rule="evenodd" stroke="none"/>
      <path d="M-3.3 -5.25 L1.25 -7.5 Q3.5 -8.75 5.9 -9.05 L8.6 -9.4 10.85 -9.05 Q9.15 -2.65 4.95 3.0 L4.8 3.2 3.4 4.65 0.35 6.75 -1.6 7.75 Q-3.2 8.6 -4.8 9.05 L-8.45 9.6 -8.75 9.4 -8.8 9.35 -8.9 9.25 -9.7 8.55 -9.9 7.75 -10.05 7.05 M-0.1 4.2 L1.2 3.2 2.9 1.3 Q4.4 -0.55 4.0 -2.5 2.7 -3.7 0.6 -2.85 L-0.6 -2.2 -4.2 1.05" fill="none" stroke="#000000" stroke-linecap="round" stroke-linejoin="round" stroke-opacity="0.3019608" stroke-width="0.05"/>
    </g>
    <g id="sprite9" transform="matrix(1.0, 0.0, 0.0, 1.0, 28.45, 20.2)">
      <use height="34.0" id="_col1c" transform="matrix(1.0, 0.101, 0.0, 1.0, -28.45, -20.1961)" width="56.9" xlink:href="#sprite10"/>
    </g>
    <g id="sprite10" transform="matrix(1.0, 0.0, 0.0, 1.0, 31.65, 17.0)">
      <use height="34.0" transform="matrix(1.0, 0.0, 0.0, 1.0, -31.65, -17.0)" width="56.9" xlink:href="#shape6"/>
    </g>
    <g id="shape6" transform="matrix(1.0, 0.0, 0.0, 1.0, 31.65, 17.0)">
      <path d="M-21.3 -16.5 Q-14.25 -16.3 -6.3 -16.8 0.55 -17.55 6.35 -15.35 L6.75 -14.95 8.75 -14.25 14.0 -10.7 14.4 -10.35 13.65 -9.65 12.25 -8.35 13.8 -7.65 15.15 -4.4 Q16.2 -1.95 16.4 1.05 16.55 3.3 16.0 5.5 L15.7 6.3 14.15 9.8 12.85 11.65 11.35 13.1 12.6 9.5 12.8 8.15 12.75 7.45 Q12.65 5.9 12.2 4.6 L7.95 -6.2 7.8 -6.6 Q6.75 -9.1 5.05 -11.1 L2.35 -13.95 1.85 -6.35 1.55 -3.65 0.55 1.65 Q-0.05 4.25 -0.95 6.75 L-2.2 10.0 -4.15 14.75 -4.1 10.2 -4.45 5.35 -5.05 -0.05 -5.05 -0.25 Q-4.5 -1.7 -4.75 -3.3 L-5.4 -7.65 -4.85 -9.25 -6.2 -9.05 Q-9.7 -7.4 -12.3 -4.45 -13.2 -3.45 -13.75 -2.15 -14.75 0.2 -14.55 2.75 L-13.6 11.05 Q-13.35 12.85 -11.55 14.35 -14.1 13.3 -15.05 12.25 -19.8 6.85 -20.4 -0.25 -20.6 -2.5 -20.25 -4.75 L-19.7 -6.85 Q-19.3 -7.9 -18.4 -8.55 L-19.5 -8.3 -22.55 -7.1 -23.35 -6.5 Q-24.75 -4.95 -25.1 -2.7 -25.5 -0.4 -25.0 1.75 L-23.9 4.75 -22.25 8.0 -22.35 8.05 -24.2 7.3 Q-26.45 6.4 -27.7 4.55 -29.05 2.65 -30.05 0.3 L-31.25 -2.25 Q-31.7 -3.35 -31.65 -4.4 L-31.55 -7.9 Q-31.55 -9.6 -30.65 -11.05 -29.05 -13.45 -26.7 -14.75 L-25.5 -15.15 -21.4 -15.55 -21.3 -16.5 M-21.65 -12.5 L-21.4 -15.55 -21.65 -12.5" fill="#ffffff" fill-rule="evenodd" stroke="none"/>
      <path d="M14.4 -10.35 L14.45 -10.2 Q18.65 -7.1 21.45 -2.1 22.8 0.25 24.35 2.25 L25.05 4.1 25.25 4.4 25.2 7.05 24.95 10.6 24.9 10.85 24.85 11.15 24.2 12.8 21.3 15.65 20.25 16.55 Q19.3 17.35 19.1 16.7 20.3 15.1 20.35 12.95 L20.45 10.6 Q20.55 8.45 19.85 6.6 19.85 8.65 19.45 10.6 19.2 12.05 18.25 13.0 16.5 14.7 14.0 15.3 L11.35 15.65 Q10.25 15.85 9.55 15.65 L11.35 13.1 12.85 11.65 14.15 9.8 15.7 6.3 16.0 5.5 Q16.55 3.3 16.4 1.05 16.2 -1.95 15.15 -4.4 L13.8 -7.65 12.25 -8.35 13.65 -9.65 14.4 -10.35 M4.0 9.1 L3.6 9.5 -1.25 13.85 -1.7 13.9 -2.0 14.0 Q-3.4 14.3 -4.15 14.75 L-2.2 10.0 -0.95 6.75 Q-0.05 4.25 0.55 1.65 L1.55 -3.65 1.85 -6.35 2.35 -13.95 5.05 -11.1 Q6.75 -9.1 7.8 -6.6 L7.95 -6.2 7.75 -6.35 7.75 -6.2 7.75 -6.15 Q8.4 -3.5 8.15 -0.5 7.95 2.3 6.8 4.75 5.7 7.2 4.0 9.1 M-11.9 13.3 L-11.55 14.35 Q-13.35 12.85 -13.6 11.05 L-14.55 2.75 Q-14.75 0.2 -13.75 -2.15 -13.2 -3.45 -12.3 -4.45 -9.7 -7.4 -6.2 -9.05 L-4.85 -9.25 -5.4 -7.65 -4.75 -3.3 Q-4.5 -1.7 -5.05 -0.25 L-6.3 -6.25 -6.65 -6.3 -6.75 -6.25 -6.85 -6.2 -7.05 -6.05 -7.4 -6.0 Q-9.05 -4.05 -10.1 -1.5 -13.15 5.65 -11.9 13.3 M7.75 -6.35 L7.8 -6.6 7.75 -6.35" fill="#d6baba" fill-rule="evenodd" stroke="none"/>
      <path d="M7.75 -6.35 L7.95 -6.2 7.75 -6.15 7.75 -6.2 7.75 -6.35" fill="#660000" fill-opacity="0.28235295" fill-rule="evenodd" stroke="none"/>
      <path d="M12.2 4.6 L11.7 4.85 Q11.5 4.9 10.7 5.4 L7.9 6.75 Q5.95 7.6 4.0 9.1 5.7 7.2 6.8 4.75 7.95 2.3 8.15 -0.5 8.4 -3.5 7.75 -6.15 L7.95 -6.2 12.2 4.6 M-5.05 -0.05 Q-6.35 4.25 -7.0 8.6 -7.2 10.15 -7.85 11.4 L-8.35 12.25 -10.25 12.35 -11.1 13.15 -11.9 13.3 Q-13.15 5.65 -10.1 -1.5 -9.05 -4.05 -7.4 -6.0 L-7.05 -6.05 -6.85 -6.2 -6.75 -6.25 -6.65 -6.3 -6.3 -6.25 -5.05 -0.25 -5.05 -0.05" fill="#631300" fill-opacity="0.3529412" fill-rule="evenodd" stroke="none"/>
      <path d="M25.2 7.05 L24.95 10.6 24.9 10.85 24.85 11.15 24.2 12.8 21.3 15.65 20.25 16.55 Q19.3 17.35 19.1 16.7 20.3 15.1 20.35 12.95 L20.45 10.6 Q20.55 8.45 19.85 6.6 19.85 8.65 19.45 10.6 19.2 12.05 18.25 13.0 16.5 14.7 14.0 15.3 L11.35 15.65 Q10.25 15.85 9.55 15.65 L11.35 13.1 12.6 9.5 12.8 8.15 12.75 7.45 Q12.65 5.9 12.2 4.6 L7.95 -6.2 7.75 -6.35 M4.0 9.1 L3.6 9.5 -1.25 13.85 -1.7 13.9 -2.0 14.0 Q-3.4 14.3 -4.15 14.75 L-4.1 10.2 -4.45 5.35 -5.05 -0.05 -5.05 -0.25 -6.3 -6.25 -6.65 -6.3 -6.75 -6.25 -6.85 -6.2 -7.05 -6.05 -7.4 -6.0 Q-9.05 -4.05 -10.1 -1.5 -13.15 5.65 -11.9 13.3 L-11.55 14.35 Q-14.1 13.3 -15.05 12.25 -19.8 6.85 -20.4 -0.25 -20.6 -2.5 -20.25 -4.75 L-19.7 -6.85 Q-19.3 -7.9 -18.4 -8.55 L-19.5 -8.3 -22.55 -7.1 -23.35 -6.5 Q-24.75 -4.95 -25.1 -2.7 -25.5 -0.4 -25.0 1.75 L-23.9 4.75 -22.25 8.0 -22.35 8.05 -24.2 7.3 Q-26.45 6.4 -27.7 4.55 -29.05 2.65 -30.05 0.3 L-31.25 -2.25 Q-31.7 -3.35 -31.65 -4.4 L-31.55 -7.9 Q-31.55 -9.6 -30.65 -11.05 -29.05 -13.45 -26.7 -14.75 L-25.5 -15.15 -21.4 -15.55 -21.3 -16.5 M7.75 -6.2 L7.75 -6.15 Q8.4 -3.5 8.15 -0.5 7.95 2.3 6.8 4.75 5.7 7.2 4.0 9.1 M7.8 -6.6 L7.75 -6.35 M-21.4 -15.55 L-21.65 -12.5" fill="none" stroke="#000000" stroke-linecap="round" stroke-linejoin="round" stroke-opacity="0.3019608" stroke-width="0.05"/>
    </g>
    <g id="sprite11" transform="matrix(1.0, 0.0, 0.0, 1.0, 23.65, 20.7)">
      <use height="41.35" transform="matrix(1.0, 0.0, 0.0, 1.0, -23.65, -20.7)" width="52.15" xlink:href="#shape7"/>
    </g>
    <g id="shape7" transform="matrix(1.0, 0.0, 0.0, 1.0, 23.65, 20.7)">
      <path d="M-23.65 -7.55 L-20.75 -9.0 -17.35 -9.95 -8.3 -10.5 Q-1.65 -10.4 4.35 -8.1 8.2 -6.6 10.85 -5.25 L15.8 -1.3 Q16.25 -0.9 16.9 -0.6 20.15 -1.85 22.2 -4.25 22.65 -4.8 22.75 -5.7 25.05 -1.85 26.35 2.4 28.4 9.05 28.25 15.2 28.2 16.8 28.5 16.9 23.7 19.3 23.05 20.65 L22.2 14.8 Q21.8 12.35 20.9 10.15 19.75 7.55 18.25 5.05 16.8 2.5 14.85 0.55 L10.5 -3.25 5.45 -6.15 Q2.65 -7.35 -0.05 -8.05 L-5.55 -9.1 -11.05 -9.5 -15.9 -9.2 -20.7 -8.35 -23.65 -7.55" fill="#d6baba" fill-rule="evenodd" stroke="none"/>
      <path d="M22.75 -5.7 Q22.65 -4.8 22.2 -4.25 20.15 -1.85 16.9 -0.6 16.25 -0.9 15.8 -1.3 L10.85 -5.25 Q8.2 -6.6 4.35 -8.1 -1.65 -10.4 -8.3 -10.5 L-17.35 -9.95 -20.75 -9.0 -23.65 -7.55 Q-22.95 -10.55 -21.45 -12.65 L-20.75 -13.55 -19.75 -14.45 Q-18.45 -15.65 -16.1 -17.0 -13.7 -18.4 -11.05 -19.4 L-6.05 -20.55 -1.0 -20.7 Q4.2 -19.85 9.15 -17.9 13.5 -16.3 17.15 -12.85 L17.75 -12.25 18.95 -11.0 19.05 -10.85 19.75 -10.0 22.75 -5.7" fill="#ffffff" fill-rule="evenodd" stroke="none"/>
      <path d="M22.75 -5.7 L19.75 -10.0 19.05 -10.85 18.95 -11.0 17.75 -12.25 17.15 -12.85 Q13.5 -16.3 9.15 -17.9 4.2 -19.85 -1.0 -20.7 L-6.05 -20.55 -11.05 -19.4 Q-13.7 -18.4 -16.1 -17.0 -18.45 -15.65 -19.75 -14.45 L-20.75 -13.55 -21.45 -12.65 Q-22.95 -10.55 -23.65 -7.55 L-20.7 -8.35 -15.9 -9.2 -11.05 -9.5 -5.55 -9.1 -0.05 -8.05 Q2.65 -7.35 5.45 -6.15 L10.5 -3.25 14.85 0.55 Q16.8 2.5 18.25 5.05 19.75 7.55 20.9 10.15 21.8 12.35 22.2 14.8 L23.05 20.65 Q23.7 19.3 28.5 16.9 28.2 16.8 28.25 15.2 28.4 9.05 26.35 2.4 25.05 -1.85 22.75 -5.7 Z" fill="none" stroke="#000000" stroke-linecap="round" stroke-linejoin="round" stroke-opacity="0.3019608" stroke-width="0.05"/>
    </g>
  </defs>
</svg>
