<?xml version="1.0" encoding="UTF-8" standalone="no"?>
<svg xmlns:xlink="http://www.w3.org/1999/xlink" height="41.1px" width="40.0px" xmlns="http://www.w3.org/2000/svg">
  <g transform="matrix(1.0, 0.0, 0.0, 1.0, 20.05, 19.55)">
    <use height="35.0" id="_col2" transform="matrix(0.9077, 0.0, 0.0, 0.9077, -17.1172, -16.6842)" width="39.75" xlink:href="#sprite0"/>
    <use height="7.95" id="_col4" transform="matrix(0.9981, 0.0577, -0.0577, 0.9981, -18.4857, 7.1958)" width="27.35" xlink:href="#sprite1"/>
    <use height="35.9" id="_col3b" transform="matrix(0.9556, 0.0973, -0.0379, 1.0348, -18.6735, -19.5395)" width="40.4" xlink:href="#sprite2"/>
    <use height="24.7" transform="matrix(0.9556, 0.0973, -0.0379, 1.0348, -14.932, -14.9548)" width="29.3" xlink:href="#sprite3"/>
  </g>
  <defs>
    <g id="sprite0" transform="matrix(1.0, 0.0, 0.0, 1.0, 19.85, 17.5)">
      <use height="35.0" transform="matrix(1.0, 0.0, 0.0, 1.0, -19.85, -17.5)" width="39.75" xlink:href="#shape0"/>
    </g>
    <g id="shape0" transform="matrix(1.0, 0.0, 0.0, 1.0, 19.85, 17.5)">
      <path d="M11.7 -16.6 L13.8 -16.15 17.95 -14.65 19.05 -13.85 19.75 -12.5 19.9 -10.65 Q19.85 -9.1 19.4 -7.6 18.55 -4.9 17.05 -2.35 L14.1 2.45 Q12.7 4.5 10.9 6.2 L4.95 13.8 4.7 14.1 Q2.65 15.75 0.15 16.4 L-1.0 16.7 -2.3 17.0 -4.55 17.3 -6.75 17.5 -6.75 17.45 Q-5.45 12.15 -4.25 8.8 L-3.45 6.5 Q6.45 1.05 13.3 -8.2 L13.05 -9.3 Q12.25 -11.85 9.4 -12.4 L7.7 -12.15 5.65 -11.3 1.25 -9.2 Q-1.15 -8.1 -3.7 -7.55 L-5.95 -7.5 -6.8 -7.75 -3.2 -9.65 Q-1.3 -10.5 3.1 -17.35 L10.9 -16.7 11.55 -16.6 11.7 -16.6 M-5.55 -16.2 Q-6.6 -15.55 -7.25 -13.85 L-8.75 -10.35 -9.0 -9.95 Q-9.35 -11.15 -8.75 -12.35 L-7.15 -15.5 -5.55 -16.2 M-5.1 5.75 L-5.4 6.0 -5.45 5.95 -5.1 5.75" fill="#68606a" fill-rule="evenodd" stroke="none"/>
      <path d="M-6.8 -7.75 L-5.95 -7.5 -3.7 -7.55 Q-1.15 -8.1 1.25 -9.2 L5.65 -11.3 7.7 -12.15 9.4 -12.4 Q12.25 -11.85 13.05 -9.3 L13.3 -8.2 Q6.45 1.05 -3.45 6.5 L-4.25 8.8 Q-5.45 12.15 -6.75 17.45 L-9.5 17.3 Q-12.35 17.0 -14.95 15.85 -18.15 14.45 -19.85 11.4 L-19.8 10.5 -19.65 6.85 -18.4 0.1 -18.3 -0.25 -18.3 -0.3 -18.75 -1.7 -18.7 -2.95 -18.75 -1.7 -18.9 -2.15 -18.7 -2.95 -18.65 -3.2 -18.6 -3.4 -17.55 -6.15 Q-16.75 -8.2 -14.85 -9.55 L-14.1 -10.1 -14.85 -9.55 Q-16.75 -8.2 -17.55 -6.15 L-18.6 -3.4 -17.9 -5.55 -16.9 -7.45 Q-16.15 -8.7 -14.9 -9.55 L-14.1 -10.1 -13.65 -10.5 -12.0 -11.9 -10.95 -12.85 -8.25 -14.8 -8.0 -14.95 -7.15 -15.5 -8.75 -12.35 Q-9.35 -11.15 -9.0 -9.95 L-10.05 -7.15 -10.55 -5.7 -11.4 -4.55 -11.4 -4.4 -10.0 -5.55 -6.8 -7.75 M-3.2 -16.85 L-3.45 -16.8 -3.5 -16.8 -3.2 -16.85 M-8.25 -14.8 L-7.75 -15.05 -7.15 -15.5 -7.75 -15.05 -8.25 -14.8 M-12.35 0.3 L-13.85 -0.05 -14.4 -0.3 -13.85 -0.05 -12.35 0.3 M-9.9 -2.55 L-12.4 -3.35 -13.8 -3.75 -12.4 -3.35 -9.9 -2.55 M-8.4 -5.0 L-10.0 -5.55 -8.4 -5.0 M-12.65 -6.3 L-10.55 -5.7 -12.65 -6.3 M-5.1 5.75 L-5.45 5.95 -5.4 6.0 -5.1 5.75" fill="#91a5af" fill-rule="evenodd" stroke="none"/>
      <path d="M4.95 13.8 L10.9 6.2 Q12.7 4.5 14.1 2.45 L17.05 -2.35 Q18.55 -4.9 19.4 -7.6 19.85 -9.1 19.9 -10.65 L19.75 -12.5 19.05 -13.85 17.95 -14.65 13.8 -16.15 11.7 -16.6 M11.55 -16.6 L10.9 -16.7 3.1 -17.35 Q-1.3 -10.5 -3.2 -9.65 L-6.8 -7.75 M3.1 -17.35 L1.65 -17.5 1.5 -17.5 -3.2 -16.85 -3.45 -16.8 -4.95 -16.4 -5.55 -16.2 Q-6.6 -15.55 -7.25 -13.85 L-8.75 -10.35 -9.0 -9.95 -10.05 -7.15 -10.55 -5.7 -10.0 -5.55 -6.8 -7.75 M-5.55 -16.2 L-7.15 -15.5 -7.75 -15.05 -8.25 -14.8 -10.95 -12.85 -12.0 -11.9 -13.65 -10.5 -14.1 -10.1 -14.85 -9.55 Q-16.75 -8.2 -17.55 -6.15 L-18.6 -3.4 -18.65 -3.2 -18.7 -2.95 -18.75 -1.7 -18.3 -0.3 -18.3 -0.25 -18.4 0.1 -19.65 6.85 -19.8 10.5 M-13.8 -3.75 L-12.4 -3.35 -9.9 -2.55 M-14.4 -0.3 L-13.85 -0.05 -12.35 0.3 M-10.0 -5.55 L-11.4 -4.4 -11.4 -4.55 -10.55 -5.7 -12.65 -6.3 M-10.0 -5.55 L-8.4 -5.0" fill="none" stroke="#000000" stroke-linecap="round" stroke-linejoin="round" stroke-opacity="0.3019608" stroke-width="0.05"/>
    </g>
    <g id="sprite1" transform="matrix(1.0, 0.0, 0.0, 1.0, 14.2, 8.45)">
      <use height="7.95" transform="matrix(1.0, 0.0, 0.0, 1.0, -14.2, -8.45)" width="27.35" xlink:href="#shape1"/>
    </g>
    <g id="shape1" transform="matrix(1.0, 0.0, 0.0, 1.0, 14.2, 8.45)">
      <path d="M3.1 -4.25 L3.15 -4.25 5.15 -4.6 5.25 -4.65 7.25 -5.2 7.45 -5.25 7.5 -5.3 9.2 -5.9 9.65 -6.05 10.55 -6.55 11.3 -7.3 11.45 -7.5 12.1 -8.4 12.9 -7.8 13.05 -6.25 13.15 -5.3 12.65 -5.0 12.05 -4.5 11.75 -4.2 9.8 -2.85 8.15 -2.05 6.05 -1.35 5.4 -1.2 3.3 -0.75 1.45 -0.55 Q1.55 -1.2 2.35 -1.95 3.35 -2.85 3.35 -3.4 L3.1 -4.25 M-6.2 -0.95 L-7.8 -1.25 -10.35 -1.85 -10.45 -1.9 Q-11.7 -2.25 -12.6 -2.75 L-14.2 -4.0 -14.15 -5.2 -12.65 -3.95 -11.45 -3.3 -10.45 -2.9 -10.45 -1.9 -10.45 -2.9 -7.9 -2.15 -7.8 -1.25 -7.9 -2.15 -6.85 -1.95 -5.15 -1.7 -5.25 -1.2 -6.2 -0.95 M3.3 -0.75 L3.65 -2.55 3.45 -3.55 3.15 -4.25 3.45 -3.55 3.65 -2.55 3.3 -0.75 M11.45 -7.5 L12.3 -6.9 12.5 -6.45 12.55 -6.25 12.65 -5.0 12.55 -6.25 12.5 -6.45 12.3 -6.9 11.45 -7.5 M11.75 -4.2 L11.5 -5.85 11.3 -6.15 11.05 -6.35 10.55 -6.55 11.05 -6.35 11.3 -6.15 11.5 -5.85 11.75 -4.2 M7.45 -5.25 L8.05 -4.6 8.2 -2.9 8.15 -2.05 8.2 -2.9 8.05 -4.6 7.45 -5.25 M5.25 -4.65 L5.8 -3.9 6.1 -2.6 6.05 -1.35 6.1 -2.6 5.8 -3.9 5.25 -4.65 M9.8 -2.85 L9.85 -3.15 9.9 -4.4 Q9.9 -5.5 9.2 -5.9 9.9 -5.5 9.9 -4.4 L9.85 -3.15 9.8 -2.85 M-12.6 -2.75 L-12.55 -3.1 -12.65 -3.95 -12.55 -3.1 -12.6 -2.75 M-5.25 -1.2 L-5.15 -1.7 -3.15 -1.7 -5.25 -1.2" fill="#d6baba" fill-rule="evenodd" stroke="none"/>
      <path d="M1.45 -0.55 L0.0 -0.5 -2.5 -0.65 -2.6 -0.65 -5.25 -0.85 -6.2 -0.95 -5.25 -1.2 -3.15 -1.7 -5.15 -1.7 -6.85 -1.95 -7.9 -2.15 -10.45 -2.9 -11.45 -3.3 -12.65 -3.95 -12.85 -4.5 -13.15 -5.8 -13.1 -6.35 -12.6 -6.8 -12.2 -6.8 -12.6 -6.8 -13.1 -6.35 -13.15 -5.8 -12.85 -4.5 -12.65 -3.95 -14.15 -5.2 -14.15 -6.5 Q-14.15 -7.25 -13.65 -7.65 L-12.7 -8.45 -12.6 -7.5 -12.65 -7.1 -12.2 -6.8 Q-11.2 -6.2 -9.85 -5.7 L-7.65 -5.0 -7.4 -4.9 -4.8 -4.35 -2.45 -4.05 -0.65 -4.0 -0.1 -4.0 3.1 -4.25 3.35 -3.4 Q3.35 -2.85 2.35 -1.95 1.55 -1.2 1.45 -0.55 M0.0 -0.5 L0.3 -2.5 0.15 -3.25 -0.1 -4.0 0.15 -3.25 0.3 -2.5 0.0 -0.5 M-9.85 -5.7 L-10.3 -5.05 -10.55 -3.7 -10.45 -2.9 -10.55 -3.7 -10.3 -5.05 -9.85 -5.7 M-7.4 -4.9 L-7.8 -4.3 -8.1 -3.3 -7.95 -2.2 -7.9 -2.15 -7.95 -2.2 -8.1 -3.3 -7.8 -4.3 -7.4 -4.9 M-4.8 -4.35 L-5.0 -3.1 -5.15 -1.7 -5.0 -3.1 -4.8 -4.35 M-2.45 -4.05 L-2.4 -2.65 -2.6 -0.65 -2.4 -2.65 -2.45 -4.05 M-5.25 -0.85 L-5.25 -1.15 -5.25 -1.2 -5.25 -1.15 -5.25 -0.85" fill="#ffffff" fill-rule="evenodd" stroke="none"/>
      <path d="M3.1 -4.25 L3.15 -4.25 5.15 -4.6 M5.25 -4.65 L7.25 -5.2 M7.45 -5.25 L7.5 -5.3 9.2 -5.9 9.65 -6.05 10.55 -6.55 11.3 -7.3 M11.45 -7.5 L12.1 -8.4 12.9 -7.8 13.05 -6.25 13.15 -5.3 M-14.2 -4.0 L-14.15 -5.2 -14.15 -6.5 Q-14.15 -7.25 -13.65 -7.65 L-12.7 -8.45 -12.6 -7.5 -12.65 -7.1 -12.2 -6.8 Q-11.2 -6.2 -9.85 -5.7 L-7.65 -5.0 -7.4 -4.9 -4.8 -4.35 -2.45 -4.05 -0.65 -4.0 -0.1 -4.0 3.1 -4.25" fill="none" stroke="#000000" stroke-linecap="round" stroke-linejoin="round" stroke-opacity="0.3019608" stroke-width="0.05"/>
      <path d="M5.15 -4.6 L5.25 -4.65 M7.25 -5.2 L7.45 -5.25 M11.3 -7.3 L11.45 -7.5 M3.15 -4.25 L3.45 -3.55 3.65 -2.55 3.3 -0.75 M-0.1 -4.0 L0.15 -3.25 0.3 -2.5 0.0 -0.5 M9.2 -5.9 Q9.9 -5.5 9.9 -4.4 L9.85 -3.15 9.8 -2.85 M6.05 -1.35 L6.1 -2.6 5.8 -3.9 5.25 -4.65 M8.15 -2.05 L8.2 -2.9 8.05 -4.6 7.45 -5.25 M10.55 -6.55 L11.05 -6.35 11.3 -6.15 11.5 -5.85 11.75 -4.2 M12.65 -5.0 L12.55 -6.25 12.5 -6.45 12.3 -6.9 11.45 -7.5 M-12.2 -6.8 L-12.6 -6.8 -13.1 -6.35 -13.15 -5.8 -12.85 -4.5 -12.65 -3.95 -12.55 -3.1 -12.6 -2.75 M-10.45 -2.9 L-10.55 -3.7 -10.3 -5.05 -9.85 -5.7 M-10.45 -1.9 L-10.45 -2.9 M-7.9 -2.15 L-7.95 -2.2 -8.1 -3.3 -7.8 -4.3 -7.4 -4.9 M-7.8 -1.25 L-7.9 -2.15 M-5.15 -1.7 L-5.0 -3.1 -4.8 -4.35 M-5.15 -1.7 L-5.25 -1.2 -5.25 -1.15 -5.25 -0.85 M-2.6 -0.65 L-2.4 -2.65 -2.45 -4.05" fill="none" stroke="#000000" stroke-linecap="round" stroke-linejoin="round" stroke-opacity="0.15294118" stroke-width="0.05"/>
    </g>
    <g id="sprite2" transform="matrix(1.0, 0.0, 0.0, 1.0, 20.2, 17.95)">
      <use height="35.9" transform="matrix(1.0, 0.0, 0.0, 1.0, -20.2, -17.95)" width="40.4" xlink:href="#shape2"/>
    </g>
    <g id="shape2" transform="matrix(1.0, 0.0, 0.0, 1.0, 20.2, 17.95)">
      <path d="M10.95 -17.3 L10.8 -15.0 Q10.55 -12.7 9.7 -12.1 L9.6 -12.0 8.0 -10.75 7.65 -11.15 7.1 -11.7 5.45 -13.3 Q6.05 -14.25 9.0 -16.15 L10.95 -17.3 M-16.9 15.2 L-19.55 13.6 Q-20.2 12.95 -20.2 11.05 L-20.15 9.1 Q-19.95 8.15 -18.95 7.5 L-18.65 9.25 Q-18.0 10.5 -15.5 11.5 -12.05 12.8 -7.25 13.15 L-3.85 13.25 Q-4.0 13.85 -4.35 14.1 L-6.05 14.4 -9.05 14.15 -10.7 13.9 -14.25 13.4 -15.4 13.55 Q-16.15 13.9 -16.9 15.2 M-18.0 -2.7 L-17.6 -6.85 -17.3 -7.15 -16.2 -8.2 -15.1 -9.2 -12.8 -11.15 -11.5 -12.2 -11.05 -12.45 -9.25 -13.05 -7.25 -13.25 0.25 -12.75 2.3 -12.5 2.7 -12.35 3.15 -10.0 3.15 -7.2 3.0 -4.85 2.15 -2.3 Q1.05 -0.1 -0.6 -0.1 L-3.6 -0.15 Q-9.35 -0.35 -12.85 -1.3 L-18.0 -2.7 M-10.6 -13.65 L-10.95 -13.5 -14.1 -11.9 -11.05 -14.7 -10.55 -15.1 -9.9 -15.55 -10.05 -15.1 -10.6 -13.65 M-2.0 4.6 L-2.1 4.6 -10.7 3.7 Q-17.6 2.65 -17.6 1.6 -17.6 0.6 -16.25 0.7 L-15.4 0.8 -10.6 1.65 -3.8 2.3 Q-0.85 2.65 -0.85 3.65 -0.85 4.55 -2.0 4.6 M-2.45 7.85 Q-2.45 8.85 -4.7 8.85 L-12.75 7.9 -16.65 7.15 -17.0 7.1 Q-17.85 6.95 -17.85 6.35 -17.85 5.4 -16.35 5.4 L-11.4 6.05 -10.7 6.25 -10.6 6.25 -4.05 7.1 -2.8 7.35 Q-2.45 7.5 -2.45 7.85" fill="#ffffff" fill-rule="evenodd" stroke="none"/>
      <path d="M10.95 -17.3 L12.3 -17.95 Q14.55 -17.95 17.35 -16.8 20.2 -15.6 20.2 -14.55 L16.35 -12.45 12.8 -10.3 Q11.2 -9.2 10.15 -8.0 L9.75 -8.6 8.9 -9.75 8.65 -10.05 8.0 -10.75 9.6 -12.0 9.7 -12.1 Q10.55 -12.7 10.8 -15.0 L10.95 -17.3 M2.7 -12.35 L3.15 -12.15 3.4 -11.95 4.15 -11.15 4.15 -11.1 6.45 -7.1 6.8 -6.45 Q7.85 -4.2 7.9 -2.85 L7.9 -2.65 Q7.9 -1.4 6.85 1.75 L6.85 1.8 6.6 2.45 4.4 8.4 4.1 9.45 5.0 12.1 Q5.0 13.2 4.1 14.6 3.25 15.95 2.4 16.4 -4.05 18.05 -5.85 17.95 L-5.95 17.95 -10.4 17.45 -14.0 16.6 -14.8 16.3 -16.9 15.2 Q-16.15 13.9 -15.4 13.55 L-14.25 13.4 -10.7 13.9 -9.05 14.15 -6.05 14.4 -4.35 14.1 Q-4.0 13.85 -3.85 13.25 L-3.8 13.25 -0.45 12.6 Q2.45 11.85 3.1 11.35 L3.65 10.7 3.9 10.05 4.1 9.45 3.9 10.05 3.65 10.7 3.1 11.35 Q2.45 11.85 -0.45 12.6 L-3.8 13.25 -3.85 13.25 -7.25 13.15 Q-12.05 12.8 -15.5 11.5 -18.0 10.5 -18.65 9.25 L-18.95 7.5 -18.75 3.9 -18.05 -2.35 -18.0 -2.7 -12.85 -1.3 Q-9.35 -0.35 -3.6 -0.15 L-0.6 -0.1 Q1.05 -0.1 2.15 -2.3 L3.0 -4.85 3.15 -7.2 3.15 -10.0 2.7 -12.35 M-9.9 -15.55 Q-8.2 -16.9 -7.75 -16.9 L-6.1 -16.45 -7.55 -15.15 -8.25 -14.55 -9.5 -13.8 -9.7 -13.95 -10.6 -13.65 -10.05 -15.1 -9.9 -15.55 M-2.45 7.85 Q-2.45 7.5 -2.8 7.35 L-4.05 7.1 -10.6 6.25 -10.7 6.25 -11.4 6.05 -16.35 5.4 Q-17.85 5.4 -17.85 6.35 -17.85 6.95 -17.0 7.1 L-16.65 7.15 -12.75 7.9 -4.7 8.85 Q-2.45 8.85 -2.45 7.85 M-2.0 4.6 Q-0.85 4.55 -0.85 3.65 -0.85 2.65 -3.8 2.3 L-10.6 1.65 -15.4 0.8 -16.25 0.7 Q-17.6 0.6 -17.6 1.6 -17.6 2.65 -10.7 3.7 L-2.1 4.6 -2.0 4.6" fill="#d1b6b6" fill-rule="evenodd" stroke="none"/>
      <path d="M10.15 -8.0 Q11.2 -9.2 12.8 -10.3 L16.35 -12.45 20.2 -14.55 Q20.2 -15.6 17.35 -16.8 14.55 -17.95 12.3 -17.95 L10.95 -17.3 M5.45 -13.3 Q6.05 -14.25 9.0 -16.15 L10.95 -17.3 M2.7 -12.35 L3.15 -12.15 M7.9 -2.85 L7.9 -2.65 Q7.9 -1.4 6.85 1.75 L6.85 1.8 6.6 2.45 4.4 8.4 4.1 9.45 5.0 12.1 Q5.0 13.2 4.1 14.6 3.25 15.95 2.4 16.4 -4.05 18.05 -5.85 17.95 L-5.95 17.95 -10.4 17.45 -14.0 16.6 -14.8 16.3 -16.9 15.2 -19.55 13.6 Q-20.2 12.95 -20.2 11.05 L-20.15 9.1 Q-19.95 8.15 -18.95 7.5 L-18.75 3.9 -18.05 -2.35 -18.0 -2.7 -17.6 -6.85 -17.3 -7.15 -16.2 -8.2 M-9.25 -13.05 L-7.25 -13.25 0.25 -12.75 2.3 -12.5 2.7 -12.35 M4.1 9.45 L3.9 10.05 3.65 10.7 3.1 11.35 Q2.45 11.85 -0.45 12.6 L-3.8 13.25 -3.85 13.25 -7.25 13.15 Q-12.05 12.8 -15.5 11.5 -18.0 10.5 -18.65 9.25 L-18.95 7.5 M-9.9 -15.55 Q-8.2 -16.9 -7.75 -16.9 L-6.1 -16.45 -7.55 -15.15 -8.25 -14.55 -9.5 -13.8 M-14.1 -11.9 L-11.05 -14.7 -10.55 -15.1 -9.9 -15.55" fill="none" stroke="#000000" stroke-linecap="round" stroke-linejoin="round" stroke-opacity="0.3019608" stroke-width="0.05"/>
    </g>
    <g id="sprite3" transform="matrix(1.0, 0.0, 0.0, 1.0, 14.65, 12.35)">
      <use height="24.7" transform="matrix(1.0, 0.0, 0.0, 1.0, -14.65, -12.35)" width="29.3" xlink:href="#shape3"/>
    </g>
    <g id="shape3" transform="matrix(1.0, 0.0, 0.0, 1.0, 14.65, 12.35)">
      <path d="M4.7 -10.55 L5.6 -11.3 6.45 -12.0 7.0 -11.7 8.65 -10.1 9.2 -9.55 9.55 -9.15 9.95 -7.05 10.05 -6.3 Q10.05 -5.45 9.15 -5.5 L8.0 -5.5 5.7 -9.5 5.7 -9.55 4.95 -10.35 4.7 -10.55 M-9.05 -12.05 L-9.4 -11.65 -9.5 -10.85 -9.95 -10.6 -11.25 -9.55 -13.55 -7.6 -14.65 -6.6 -13.95 -8.55 -13.4 -9.55 -12.8 -10.15 -12.55 -10.3 -9.4 -11.9 -9.05 -12.05" fill="#938e93" fill-rule="evenodd" stroke="none"/>
      <path d="M9.55 -9.15 L10.2 -8.45 10.45 -8.15 11.3 -7.0 11.7 -6.4 11.75 -6.3 12.05 -5.8 Q10.3 -1.8 9.45 -1.25 9.4 -2.6 8.35 -4.85 L8.0 -5.5 9.15 -5.5 Q10.05 -5.45 10.05 -6.3 L9.95 -7.05 9.55 -9.15 M8.4 3.35 L14.35 3.65 14.55 3.65 14.65 3.8 14.35 4.1 Q13.2 5.3 9.95 9.75 8.2 12.1 6.1 12.35 L5.65 11.05 5.95 10.0 8.15 4.05 8.4 3.4 8.4 3.35 M-9.5 -10.85 L-9.4 -11.65 -9.05 -12.05 -8.15 -12.35 -7.95 -12.2 -7.8 -11.85 -7.7 -11.45 -9.5 -10.85" fill="#65454a" fill-rule="evenodd" stroke="none"/>
      <path d="M4.7 -10.55 L5.6 -11.3 6.45 -12.0 7.0 -11.7 8.65 -10.1 9.2 -9.55 9.55 -9.15 10.2 -8.45 10.45 -8.15 11.3 -7.0 11.7 -6.4 11.75 -6.3 12.05 -5.8 Q10.3 -1.8 9.45 -1.25 9.4 -2.6 8.35 -4.85 L8.0 -5.5 5.7 -9.5 5.7 -9.55 4.95 -10.35 M8.4 3.35 L14.35 3.65 14.55 3.65 14.65 3.8 14.35 4.1 Q13.2 5.3 9.95 9.75 8.2 12.1 6.1 12.35 M-9.05 -12.05 L-9.4 -11.9 -12.55 -10.3 -12.8 -10.15 -13.4 -9.55 -13.95 -8.55 -14.65 -6.6 -13.55 -7.6 -11.25 -9.55 -9.95 -10.6 -9.5 -10.85 -7.7 -11.45 -7.8 -11.85 -7.95 -12.2 -8.15 -12.35 -9.05 -12.05" fill="none" stroke="#000000" stroke-linecap="round" stroke-linejoin="round" stroke-opacity="0.3019608" stroke-width="0.05"/>
    </g>
  </defs>
</svg>
