<?xml version="1.0" encoding="UTF-8" standalone="no"?>
<svg xmlns:xlink="http://www.w3.org/1999/xlink" height="29.15px" width="30.4px" xmlns="http://www.w3.org/2000/svg">
  <g transform="matrix(1.0, 0.0, 0.0, 1.0, 14.9, 22.9)">
    <use height="29.15" id="_col3" transform="matrix(1.0, 0.0, 0.0, 1.0, -14.9, -22.9)" width="30.4" xlink:href="#sprite0"/>
  </g>
  <defs>
    <g id="sprite0" transform="matrix(1.0, 0.0, 0.0, 1.0, 15.2, 14.6)">
      <use height="29.15" transform="matrix(1.0, 0.0, 0.0, 1.0, -15.2, -14.6)" width="30.4" xlink:href="#shape0"/>
    </g>
    <g id="shape0" transform="matrix(1.0, 0.0, 0.0, 1.0, 15.2, 14.6)">
      <path d="M-14.2 2.05 L-14.55 0.8 Q-15.4 -2.05 -15.15 -3.75 -14.8 -6.05 -11.55 -9.8 -8.55 -13.6 -2.3 -14.6 L2.45 -14.25 Q1.95 -10.8 3.0 -2.0 4.0 6.75 -1.5 8.75 L-2.8 8.95 -5.05 9.1 -5.55 9.05 -6.6 8.9 Q-8.75 8.5 -10.55 7.15 -10.85 6.95 -11.2 7.15 L-11.35 7.3 -11.85 6.65 Q-13.15 4.8 -13.85 3.0 L-14.0 2.6 -14.2 2.05" fill="#d6baba" fill-rule="evenodd" stroke="none"/>
      <path d="M2.45 -14.25 L5.4 -13.45 7.55 -12.6 7.9 -12.45 Q8.4 -12.3 9.05 -11.8 L9.85 -11.45 10.2 -11.15 10.35 -11.0 11.35 -10.3 12.85 -8.2 14.5 -4.55 Q15.45 -1.45 15.15 2.35 14.65 9.6 8.55 12.55 2.45 15.85 -3.65 13.7 L-3.8 13.55 -4.75 13.1 -5.35 12.75 -5.65 12.55 -6.25 12.2 Q-6.6 11.95 -6.9 11.75 L-7.6 11.25 -8.75 10.1 -8.9 9.9 -9.55 9.25 -10.35 8.45 -11.35 7.3 -11.2 7.15 Q-10.85 6.95 -10.55 7.15 -8.75 8.5 -6.6 8.9 L-5.55 9.05 -5.05 9.1 -2.8 8.95 -1.5 8.75 Q4.0 6.75 3.0 -2.0 1.95 -10.8 2.45 -14.25" fill="#a78383" fill-rule="evenodd" stroke="none"/>
      <path d="M-14.2 2.05 L-14.55 0.8 Q-15.4 -2.05 -15.15 -3.75 -14.8 -6.05 -11.55 -9.8 -8.55 -13.6 -2.3 -14.6 L2.45 -14.25 5.4 -13.45 7.55 -12.6 7.9 -12.45 Q8.4 -12.3 9.05 -11.8 L9.85 -11.45 10.2 -11.15 10.35 -11.0 11.35 -10.3 12.85 -8.2 14.5 -4.55 Q15.45 -1.45 15.15 2.35 14.65 9.6 8.55 12.55 2.45 15.85 -3.65 13.7 M-3.8 13.55 L-4.75 13.1 -5.35 12.75 -5.65 12.55 -6.25 12.2" fill="none" stroke="#000000" stroke-linecap="round" stroke-linejoin="round" stroke-opacity="0.3019608" stroke-width="0.05"/>
      <path d="M-8.4 2.4 L-8.1 2.3 -7.8 1.45 M-7.55 2.85 L-7.0 2.9 -7.0 2.8 -6.9 2.3 Q-7.35 2.15 -8.1 2.3 L-8.25 4.5 -7.2 4.75 -7.0 2.9 M-6.9 2.3 L-6.85 1.55 M-7.15 11.4 L-7.75 9.7 -8.1 7.75 -8.25 5.45 -8.25 4.5 M-6.25 11.95 Q-6.85 10.15 -7.05 7.9 L-7.2 5.3 -7.2 4.75" fill="none" stroke="#000000" stroke-linecap="round" stroke-linejoin="round" stroke-opacity="0.3019608" stroke-width="0.05"/>
    </g>
  </defs>
</svg>
