<?xml version="1.0" encoding="UTF-8" standalone="no"?>
<svg xmlns:xlink="http://www.w3.org/1999/xlink" height="16.25px" width="16.2px" xmlns="http://www.w3.org/2000/svg">
  <g transform="matrix(1.0, 0.0, 0.0, 1.0, 8.1, 8.1)">
    <use height="16.25" id="_col3" transform="matrix(0.8642, 0.0, 0.0, 0.8642, -7.0, -7.0)" width="16.2" xlink:href="#sprite0"/>
    <use height="5.7" transform="matrix(1.0, 0.0, 0.0, 1.0, -4.85, -5.6)" width="4.4" xlink:href="#shape1"/>
  </g>
  <defs>
    <g id="sprite0" transform="matrix(1.0, 0.0, 0.0, 1.0, 8.1, 8.1)">
      <use height="16.25" transform="matrix(1.0, 0.0, 0.0, 1.0, -8.1, -8.1)" width="16.2" xlink:href="#shape0"/>
    </g>
    <g id="shape0" transform="matrix(1.0, 0.0, 0.0, 1.0, 8.1, 8.1)">
      <path d="M-0.15 -8.1 L1.0 -7.35 Q3.85 -5.75 5.8 -3.25 7.7 -0.6 8.1 2.75 2.2 10.05 -2.85 7.45 -7.95 4.8 -8.1 2.05 L-8.05 0.85 -6.3 1.15 -5.2 1.5 1.9 2.55 2.0 1.15 Q2.15 -0.8 1.4 -3.8 L0.35 -6.6 -0.15 -8.1" fill="#d6baba" fill-rule="evenodd" stroke="none"/>
      <path d="M-8.05 0.85 Q-7.65 -1.45 -5.3 -4.85 L-4.65 -5.55 Q-2.35 -7.45 -0.15 -8.1 L0.35 -6.6 1.4 -3.8 Q2.15 -0.8 2.0 1.15 L1.9 2.55 -5.2 1.5 -6.3 1.15 -8.05 0.85" fill="#ffffff" fill-rule="evenodd" stroke="none"/>
      <path d="M-8.05 0.85 Q-7.65 -1.45 -5.3 -4.85 L-4.65 -5.55 Q-2.35 -7.45 -0.15 -8.1 L1.0 -7.35 Q3.85 -5.75 5.8 -3.25 7.7 -0.6 8.1 2.75 2.2 10.05 -2.85 7.45 -7.95 4.8 -8.1 2.05 L-8.05 0.85 Z" fill="none" stroke="#000000" stroke-linecap="round" stroke-linejoin="round" stroke-opacity="0.3019608" stroke-width="0.05"/>
    </g>
    <g id="shape1" transform="matrix(1.0, 0.0, 0.0, 1.0, 4.85, 5.6)">
      <path d="M-0.95 -5.25 L-0.75 -4.2 -0.55 -2.7 Q-0.35 -1.4 -0.5 0.05 L-1.9 -0.1 Q-3.55 -0.6 -4.85 -1.7 L-4.7 -2.1 Q-3.7 -4.05 -2.0 -5.4 L-1.05 -5.45 -0.95 -5.25" fill="#ffffff" fill-rule="evenodd" stroke="none"/>
    </g>
  </defs>
</svg>
