<?xml version="1.0" encoding="UTF-8" standalone="no"?>
<svg xmlns:xlink="http://www.w3.org/1999/xlink" height="16.25px" width="16.2px" xmlns="http://www.w3.org/2000/svg">
  <g transform="matrix(1.0, 0.0, 0.0, 1.0, 8.1, 8.1)">
    <use height="16.25" id="_col3" transform="matrix(1.0, 0.0, 0.0, 1.0, -8.1, -8.1)" width="16.2" xlink:href="#sprite0"/>
    <use height="11.8" id="_col2" transform="matrix(1.0, 0.0, 0.0, 1.0, -2.4, -5.65)" width="2.8" xlink:href="#sprite1"/>
    <use height="5.95" transform="matrix(1.0, 0.0, 0.0, 1.0, -6.05, -7.05)" width="4.95" xlink:href="#shape2"/>
  </g>
  <defs>
    <g id="sprite0" transform="matrix(1.0, 0.0, 0.0, 1.0, 8.1, 8.1)">
      <use height="16.25" transform="matrix(1.0, 0.0, 0.0, 1.0, -8.1, -8.1)" width="16.2" xlink:href="#shape0"/>
    </g>
    <g id="shape0" transform="matrix(1.0, 0.0, 0.0, 1.0, 8.1, 8.1)">
      <path d="M-0.15 -8.1 L1.0 -7.35 Q3.85 -5.75 5.8 -3.25 7.7 -0.6 8.1 2.75 2.2 10.05 -2.85 7.45 -7.95 4.8 -8.1 2.05 L-8.05 0.85 -6.3 1.15 -5.2 1.5 1.9 2.55 2.0 1.15 Q2.15 -0.8 1.4 -3.8 L0.35 -6.6 -0.15 -8.1" fill="#d6baba" fill-rule="evenodd" stroke="none"/>
      <path d="M-8.05 0.85 Q-7.65 -1.45 -5.3 -4.85 L-4.65 -5.55 Q-2.35 -7.45 -0.15 -8.1 L0.35 -6.6 1.4 -3.8 Q2.15 -0.8 2.0 1.15 L1.9 2.55 -5.2 1.5 -6.3 1.15 -8.05 0.85" fill="#ffffff" fill-rule="evenodd" stroke="none"/>
      <path d="M-8.05 0.85 Q-7.65 -1.45 -5.3 -4.85 L-4.65 -5.55 Q-2.35 -7.45 -0.15 -8.1 L1.0 -7.35 Q3.85 -5.75 5.8 -3.25 7.7 -0.6 8.1 2.75 2.2 10.05 -2.85 7.45 -7.95 4.8 -8.1 2.05 L-8.05 0.85 Z" fill="none" stroke="#000000" stroke-linecap="round" stroke-linejoin="round" stroke-opacity="0.3019608" stroke-width="0.05"/>
    </g>
    <g id="sprite1" transform="matrix(1.0, 0.0, 0.0, 1.0, 1.4, 5.9)">
      <use height="11.8" transform="matrix(1.0, 0.0, 0.0, 1.0, -1.4, -5.9)" width="2.8" xlink:href="#shape1"/>
    </g>
    <g id="shape1" transform="matrix(1.0, 0.0, 0.0, 1.0, 1.4, 5.9)">
      <path d="M1.15 -2.3 L1.1 -0.75 0.95 5.8 0.55 5.9 -0.15 5.75 -0.9 5.85 -1.4 5.8 -1.2 4.35 -1.15 3.3 -1.25 1.7 -1.1 -0.7 -0.95 -3.8 -0.75 -5.85 -0.75 -5.9 1.25 -5.7 1.35 -5.35 1.4 -4.8 1.3 -4.4 1.15 -2.3" fill="#a78383" fill-rule="evenodd" stroke="none"/>
      <path d="M1.15 -2.3 L1.3 -4.4 1.4 -4.8 1.35 -5.35 1.25 -5.7 -0.75 -5.9 -0.75 -5.85 -0.95 -3.8 -1.1 -0.7 -1.25 1.7 -1.15 3.3 -1.2 4.35 -1.4 5.8 -0.9 5.85 -0.15 5.75 0.55 5.9 0.95 5.8 1.1 -0.75 1.15 -2.3 Z" fill="none" stroke="#000000" stroke-linecap="round" stroke-linejoin="round" stroke-opacity="0.3019608" stroke-width="0.05"/>
    </g>
    <g id="shape2" transform="matrix(1.0, 0.0, 0.0, 1.0, 6.05, 7.05)">
      <path d="M-1.1 -6.8 L-1.15 -6.95 -1.1 -7.0 -1.1 -6.8 M-1.55 -6.95 L-1.3 -7.05 -1.2 -7.05 -1.65 -6.15 -2.25 -4.2 -2.95 -1.8 -3.35 -1.1 -4.6 -1.4 Q-5.65 -1.2 -6.05 -1.9 -5.85 -2.75 -5.25 -3.45 L-4.15 -4.75 -2.9 -6.05 -1.55 -6.95" fill="#ffffff" fill-rule="evenodd" stroke="none"/>
    </g>
  </defs>
</svg>
