<?xml version="1.0" encoding="UTF-8" standalone="no"?>
<svg xmlns:xlink="http://www.w3.org/1999/xlink" height="113.0px" width="124.15px" xmlns="http://www.w3.org/2000/svg">
  <g transform="matrix(1.0, 0.0, 0.0, 1.0, 49.55, 50.0)">
    <use height="113.0" id="_p3" transform="matrix(1.0, 0.0, 0.0, 1.0, -49.55, -50.0)" width="124.15" xlink:href="#sprite0"/>
  </g>
  <defs>
    <g id="sprite0" transform="matrix(1.0, 0.0, 0.0, 1.0, 49.55, 50.0)">
      <use height="63.95" id="_col0a" transform="matrix(1.0, 0.0, 0.0, 1.0, -31.35, -25.9)" width="63.3" xlink:href="#sprite1"/>
      <use height="10.05" transform="matrix(1.0, 0.0, 0.0, 1.0, -26.4, 24.0)" width="24.85" xlink:href="#sprite2"/>
      <use height="28.7" transform="matrix(0.9958, 0.088, 0.0, 1.0, -32.563, 2.769)" width="42.9" xlink:href="#sprite3"/>
      <use height="54.9" id="_col1" transform="matrix(1.0, 0.0, 0.0, 1.0, -29.5, -29.9)" width="65.15" xlink:href="#sprite8"/>
      <use height="19.0" id="_col0c" transform="matrix(1.0, 0.0, 0.0, 1.0, 11.4, 11.95)" width="20.95" xlink:href="#sprite9"/>
      <use height="74.85" id="_p4" transform="matrix(1.0, 0.0, 0.0, 1.0, -39.7, -26.3)" width="61.3" xlink:href="#sprite10"/>
    </g>
    <g id="sprite1" transform="matrix(1.0, 0.0, 0.0, 1.0, 31.35, 31.95)">
      <use height="63.95" transform="matrix(1.0, 0.0, 0.0, 1.0, -31.35, -31.95)" width="63.3" xlink:href="#shape0"/>
    </g>
    <g id="shape0" transform="matrix(1.0, 0.0, 0.0, 1.0, 31.35, 31.95)">
      <path d="M-19.5 28.2 L-22.1 26.65 Q-27.15 23.0 -26.25 17.45 L-26.1 16.25 Q-25.6 14.5 -26.1 13.1 L-26.25 12.75 -26.8 12.05 -26.95 11.9 Q-28.55 9.8 -29.4 7.55 -30.95 3.9 -31.3 0.45 -31.65 -8.75 -27.5 -17.1 -23.3 -26.45 -14.45 -29.55 -4.75 -32.85 5.15 -31.65 L5.85 -31.6 7.9 -29.9 Q13.45 -25.9 12.95 -19.0 12.25 -10.65 9.3 -2.7 7.55 1.65 3.4 3.55 -5.3 7.9 -13.95 11.7 L-15.0 11.55 Q-17.95 9.45 -19.35 11.9 -20.55 11.55 -21.6 12.25 L-22.45 13.1 -23.15 12.95 -25.4 12.05 -25.6 12.05 -26.25 11.7 -26.25 11.9 -26.1 12.05 -25.6 12.75 -25.4 13.1 Q-24.9 14.5 -25.4 16.25 L-25.6 17.45 -25.05 17.6 -21.6 18.15 -15.15 19.7 Q-13.45 20.05 -11.85 20.9 -10.85 21.45 -9.95 22.3 -8.9 23.0 -7.9 24.05 L-7.55 24.2 -7.9 24.4 Q-12.9 28.4 -19.5 28.2" fill="#efcdaf" fill-rule="evenodd" stroke="none"/>
      <path d="M-19.5 28.2 Q-12.9 28.4 -7.9 24.4 L-7.55 24.2 -7.9 24.05 Q-8.9 23.0 -9.95 22.3 -10.85 21.45 -11.85 20.9 -13.45 20.05 -15.15 19.7 L-21.6 18.15 -25.05 17.6 -25.6 17.45 -25.4 16.25 Q-24.9 14.5 -25.4 13.1 L-25.6 12.75 -26.1 12.05 -26.25 11.9 -26.25 11.7 -25.6 12.05 -25.4 12.05 -23.15 12.95 -22.45 13.1 -21.6 12.25 Q-20.55 11.55 -19.35 11.9 -17.95 9.45 -15.0 11.55 L-13.95 11.7 Q-5.3 7.9 3.4 3.55 7.55 1.65 9.3 -2.7 12.25 -10.65 12.95 -19.0 13.45 -25.9 7.9 -29.9 L5.85 -31.6 5.8 -31.65 7.55 -31.5 10.7 -30.45 12.95 -29.55 Q15.55 -28.55 18.65 -26.8 27.85 -21.75 30.45 -12.55 32.9 -3.55 31.35 0.8 29.95 4.95 28.55 6.15 27.15 7.2 26.8 8.95 25.95 11.7 24.55 14.35 L22.65 17.45 18.15 22.15 16.75 23.35 16.6 23.35 12.75 25.8 Q7.2 28.9 2.0 30.3 -3.9 32.0 -9.45 32.0 L-10.15 32.0 -13.8 31.0 -17.4 29.4 -19.5 28.2" fill="#c6886a" fill-rule="evenodd" stroke="none"/>
      <path d="M5.85 -31.6 L5.15 -31.65 Q-4.75 -32.85 -14.45 -29.55 -23.3 -26.45 -27.5 -17.1 -31.65 -8.75 -31.3 0.45 -30.95 3.9 -29.4 7.55 -28.55 9.8 -26.95 11.9 L-26.8 12.05 -26.25 12.75 -26.1 13.1 Q-25.6 14.5 -26.1 16.25 L-26.25 17.45 Q-27.15 23.0 -22.1 26.65 L-19.5 28.2 M5.85 -31.6 L5.8 -31.65 7.55 -31.5 10.7 -30.45 12.95 -29.55 Q15.55 -28.55 18.65 -26.8 27.85 -21.75 30.45 -12.55 32.9 -3.55 31.35 0.8 29.95 4.95 28.55 6.15 27.15 7.2 26.8 8.95 25.95 11.7 24.55 14.35 L22.65 17.45 18.15 22.15 16.75 23.35 16.6 23.35 12.75 25.8 Q7.2 28.9 2.0 30.3 -3.9 32.0 -9.45 32.0 L-10.15 32.0 -13.8 31.0 -17.4 29.4 -19.5 28.2" fill="none" stroke="#000000" stroke-linecap="round" stroke-linejoin="round" stroke-opacity="0.3019608" stroke-width="0.05"/>
    </g>
    <g id="sprite2" transform="matrix(1.0, 0.0, 0.0, 1.0, 12.45, 5.0)">
      <use height="10.05" transform="matrix(1.0, 0.0, 0.0, 1.0, -12.45, -5.0)" width="24.85" xlink:href="#shape1"/>
    </g>
    <g id="shape1" transform="matrix(1.0, 0.0, 0.0, 1.0, 12.45, 5.0)">
      <path d="M-10.5 -3.95 L-10.55 -2.4 Q-10.55 -1.85 -11.15 -1.5 -11.8 -1.2 -12.25 -2.3 L-12.45 -3.35 Q-12.45 -5.05 -11.4 -5.0 -10.4 -4.95 -10.5 -3.95 M8.2 5.05 Q5.4 5.05 3.8 4.25 2.55 3.55 2.55 2.7 2.55 -0.05 7.5 0.3 12.4 0.65 12.4 2.85 12.4 3.5 11.75 4.1 10.65 5.05 8.2 5.05" fill="#f29595" fill-opacity="0.5294118" fill-rule="evenodd" stroke="none"/>
    </g>
    <g id="sprite3" transform="matrix(1.0, 0.0, 0.0, 1.0, 20.8, 22.05)">
      <use height="6.05" id="yeux" transform="matrix(3.5469, 0.6759, 0.0, 3.8129, -7.3594, -22.0349)" width="8.3" xlink:href="#sprite4"/>
      <use height="6.05" transform="matrix(-0.7089, 0.0624, 0.9139, 3.339, -14.9276, -20.8291)" width="8.3" xlink:href="#sprite4"/>
    </g>
    <g id="sprite4" transform="matrix(1.0, 0.0, 0.0, 1.0, 3.4, 5.95)">
      <use height="6.05" transform="matrix(1.0, 0.0, 0.0, 1.0, -3.4, -5.95)" width="8.3" xlink:href="#sprite5"/>
    </g>
    <g id="sprite5" transform="matrix(1.0, 0.0, 0.0, 1.0, 3.65, 3.45)">
      <use height="3.95" transform="matrix(1.0, 0.0, 0.0, 1.0, -3.35, -3.45)" width="7.75" xlink:href="#sprite6"/>
      <use height="3.8" transform="matrix(1.0, 0.0, 0.0, 1.0, -2.85, -1.2)" width="6.4" xlink:href="#sprite7"/>
    </g>
    <g id="sprite6" transform="matrix(1.0, 0.0, 0.0, 1.0, 3.85, 2.2)">
      <use height="1.45" transform="matrix(1.0, 0.0, 0.0, 1.0, -2.45, -2.2)" width="4.45" xlink:href="#shape2"/>
    </g>
    <g id="shape2" transform="matrix(1.0, 0.0, 0.0, 1.0, 2.45, 2.2)">
      <path d="M-2.25 -0.95 L-1.35 -1.5 -0.15 -1.9 1.25 -1.95 1.8 -1.85" fill="none" stroke="#000000" stroke-linecap="round" stroke-linejoin="round" stroke-opacity="0.5019608" stroke-width="0.4"/>
    </g>
    <g id="sprite7" transform="matrix(1.0, 0.0, 0.0, 1.0, 3.2, 2.15)">
      <use height="3.45" transform="matrix(1.0, 0.0, 0.0, 1.0, -3.0, -2.15)" width="5.5" xlink:href="#shape3"/>
    </g>
    <g id="shape3" transform="matrix(1.0, 0.0, 0.0, 1.0, 3.0, 2.15)">
      <path d="M0.5 0.75 L0.2 0.85 0.05 0.9 -1.0 1.1 -1.1 1.1 -1.5 0.9 -1.6 0.75 -1.7 0.5 -1.8 0.1 -1.65 -0.65 -0.8 -0.95 -0.15 -1.2 0.5 -0.5 0.6 -0.05 0.55 0.65 0.5 0.75 M0.05 0.4 L0.0 0.35 -1.2 0.6 -1.3 0.7 -0.45 0.85 0.05 0.4 M-0.2 -0.05 L-0.3 -0.15 -0.6 0.0 -1.05 0.4 -0.9 0.35 -0.2 0.15 -0.2 0.1 -0.2 -0.05" fill="#096f6f" fill-rule="evenodd" stroke="none"/>
      <path d="M1.8 -0.75 L1.8 -0.45 1.75 -0.2 1.6 0.0 1.3 0.4 1.1 0.5 0.5 0.75 0.55 0.65 0.6 -0.05 0.5 -0.5 -0.15 -1.2 1.6 -1.05 1.8 -0.75 M-1.65 -0.65 L-1.8 0.1 -1.7 0.5 -1.6 0.75 -1.5 0.9 -1.1 1.1 -1.0 1.1 -2.35 1.2 -2.5 1.2 -2.55 1.1 -2.6 0.55 -2.35 0.2 -1.7 -0.55 -1.65 -0.65" fill="#fbfbfb" fill-rule="evenodd" stroke="none"/>
      <path d="M0.05 0.4 L-0.45 0.85 -1.3 0.7 -1.2 0.6 0.0 0.35 0.05 0.4" fill="#00ffff" fill-rule="evenodd" stroke="none"/>
      <path d="M-0.2 -0.05 L-0.2 0.1 -0.2 0.15 -0.9 0.35 -1.05 0.4 -0.6 0.0 -0.3 -0.15 -0.2 -0.05" fill="#054746" fill-rule="evenodd" stroke="none"/>
      <path d="M0.5 0.75 L0.55 0.65 0.6 -0.05 0.5 -0.5 -0.15 -1.2 M-1.65 -0.65 L-1.8 0.1 -1.7 0.5 -1.6 0.75 -1.5 0.9 -1.1 1.1 -1.0 1.1" fill="none" stroke="#000000" stroke-linecap="round" stroke-linejoin="round" stroke-opacity="0.4" stroke-width="0.05"/>
      <path d="M0.3 -2.05 L0.2 -1.65 M0.05 0.9 L0.35 1.15 M-2.15 -0.6 L-1.7 -0.55 M-0.8 -0.95 L-1.1 -1.5 M-2.5 1.2 L-2.55 1.1 -2.6 0.55 M-2.35 0.2 L-2.9 0.0" fill="none" stroke="#000000" stroke-linecap="round" stroke-linejoin="round" stroke-opacity="0.5019608" stroke-width="0.2"/>
      <path d="M1.8 -0.75 L1.8 -0.45 M1.8 -0.75 Q1.8 -1.35 2.2 -1.65 M-0.15 -1.2 L1.6 -1.05 1.8 -0.75 M-0.15 -1.2 L-0.8 -0.95 -1.65 -0.65 M-1.7 -0.55 L-1.65 -0.65 M-2.6 0.55 L-2.35 0.2 -1.7 -0.55" fill="none" stroke="#000000" stroke-linecap="round" stroke-linejoin="round" stroke-opacity="0.5019608" stroke-width="0.6000000000000001"/>
      <path d="M1.3 0.4 L1.1 0.5" fill="none" stroke="#000000" stroke-linecap="round" stroke-linejoin="round" stroke-opacity="0.3529412" stroke-width="0.2"/>
      <path d="M1.6 0.0 L1.3 0.4 M1.1 0.5 L0.5 0.75 0.2 0.85 0.05 0.9 M-1.0 1.1 L0.05 0.9" fill="none" stroke="#000000" stroke-linecap="round" stroke-linejoin="round" stroke-opacity="0.3529412" stroke-width="0.4"/>
    </g>
    <g id="sprite8" transform="matrix(1.0, 0.0, 0.0, 1.0, 27.65, 27.4)">
      <use height="54.9" transform="matrix(1.0, 0.0, 0.0, 1.0, -27.65, -27.4)" width="65.15" xlink:href="#shape4"/>
    </g>
    <g id="shape4" transform="matrix(1.0, 0.0, 0.0, 1.0, 27.65, 27.4)">
      <path d="M-3.85 -26.7 L-3.45 -26.7 -0.6 -27.05 2.8 -27.4 5.9 -27.4 11.45 -26.45 16.3 -25.1 19.8 -23.95 Q22.45 -23.05 25.0 -21.65 L24.85 -20.95 22.5 -15.5 15.1 -5.95 15.7 -7.05 Q16.95 -9.75 17.5 -12.65 L17.8 -14.6 15.9 -11.8 Q12.6 -6.95 8.5 -3.2 L8.4 -3.1 7.65 -2.4 6.25 -1.1 7.8 -0.4 8.7 1.75 Q6.1 0.15 2.55 -0.75 L1.0 -1.0 -3.95 -1.8 -16.2 -3.85 Q-25.4 -5.45 -27.65 -7.6 L-27.65 -8.35 -27.5 -9.15 -26.85 -10.85 -25.85 -12.55 -25.2 -13.65 -23.75 -16.1 Q-22.15 -18.5 -19.65 -20.15 -17.55 -21.5 -15.35 -22.65 L-12.1 -24.35 Q-10.85 -25.0 -9.2 -25.35 L-3.85 -26.7 -5.5 -26.15 -9.9 -23.55 Q-12.3 -21.85 -14.3 -19.65 -12.3 -21.85 -9.9 -23.55 L-5.5 -26.15 -3.85 -26.7 M-19.0 -13.9 Q-17.6 -16.35 -15.6 -18.35 L-14.3 -19.65 -15.6 -18.35 Q-17.6 -16.35 -19.0 -13.9 M4.65 -18.2 L6.15 -19.6 8.55 -21.7 Q10.5 -23.35 12.2 -25.45 10.5 -23.35 8.55 -21.7 L6.15 -19.6 4.65 -18.2 -2.4 -11.9 4.65 -18.2 M26.0 -21.0 L25.2 -21.45 25.0 -21.65 26.0 -21.0" fill="#ffffff" fill-rule="evenodd" stroke="none"/>
      <path d="M25.2 -21.45 L24.85 -20.95 25.0 -21.65 25.2 -21.45" fill="#d5891a" fill-rule="evenodd" stroke="none"/>
      <path d="M8.7 1.75 L7.8 -0.4 6.25 -1.1 7.65 -2.4 8.4 -3.1 8.5 -3.2 Q12.6 -6.95 15.9 -11.8 L17.8 -14.6 17.5 -12.65 Q16.95 -9.75 15.7 -7.05 L15.1 -5.95 22.5 -15.5 Q21.75 -13.15 20.2 -11.0 L19.05 -9.4 17.85 -8.0 Q16.15 -5.9 13.85 -4.35 16.15 -5.9 17.85 -8.0 L19.05 -9.4 20.2 -11.0 Q21.75 -13.15 22.5 -15.5 L24.85 -20.95 25.2 -21.45 26.0 -21.0 26.1 -20.9 27.45 -19.75 30.9 -16.2 33.85 -12.25 35.45 -8.15 36.85 -3.25 Q37.55 0.05 37.5 3.3 37.4 6.25 36.65 9.2 L35.65 13.15 Q34.05 19.8 28.95 24.2 L28.4 24.65 27.1 25.45 Q25.5 26.25 23.95 26.65 L23.2 27.2 20.7 27.5 Q18.95 27.4 17.45 26.65 L16.3 25.7 Q15.5 24.75 15.35 23.55 L15.3 22.9 Q16.2 13.15 13.9 8.8 11.55 4.45 8.7 1.75 M32.95 11.35 L34.35 9.3 Q36.35 6.6 37.5 3.3 36.35 6.6 34.35 9.3 L32.95 11.35 29.7 14.4 32.95 11.35 M29.15 0.7 L31.15 -3.25 31.55 -4.35 33.05 -9.3 33.85 -12.25 33.05 -9.3 31.55 -4.35 31.15 -3.25 29.15 0.7 28.95 0.95 26.35 4.0 23.2 7.0 26.35 4.0 28.95 0.95 29.15 0.7" fill="#d6baba" fill-rule="evenodd" stroke="none"/>
      <path d="M25.0 -21.65 Q22.45 -23.05 19.8 -23.95 L16.3 -25.1 11.45 -26.45 5.9 -27.4 2.8 -27.4 -0.6 -27.05 -3.45 -26.7 -3.85 -26.7 -9.2 -25.35 Q-10.85 -25.0 -12.1 -24.35 L-15.35 -22.65 Q-17.55 -21.5 -19.65 -20.15 -22.15 -18.5 -23.75 -16.1 L-25.2 -13.65 -25.85 -12.55 -26.85 -10.85 -27.5 -9.15 -27.65 -8.35 -27.65 -7.6 M15.3 22.9 L15.35 23.55 Q15.5 24.75 16.3 25.7 L17.45 26.65 Q18.95 27.4 20.7 27.5 L23.2 27.2 23.95 26.65 Q25.5 26.25 27.1 25.45 L28.4 24.65 28.95 24.2 Q34.05 19.8 35.65 13.15 L36.65 9.2 Q37.4 6.25 37.5 3.3 37.55 0.05 36.85 -3.25 L35.45 -8.15 33.85 -12.25 30.9 -16.2 27.45 -19.75 26.1 -20.9 26.0 -21.0 25.2 -21.45 25.0 -21.65" fill="none" stroke="#000000" stroke-linecap="round" stroke-linejoin="round" stroke-opacity="0.3019608" stroke-width="0.05"/>
      <path d="M-14.3 -19.65 L-15.6 -18.35 Q-17.6 -16.35 -19.0 -13.9 M32.95 11.35 L29.7 14.4 M4.65 -18.2 L-2.4 -11.9 M19.05 -9.4 L17.85 -8.0 Q16.15 -5.9 13.85 -4.35 M29.15 0.7 L28.95 0.95 26.35 4.0 23.2 7.0" fill="none" stroke="#000000" stroke-linecap="round" stroke-linejoin="round" stroke-opacity="0.08235294" stroke-width="0.05"/>
      <path d="M-3.85 -26.7 L-5.5 -26.15 -9.9 -23.55 Q-12.3 -21.85 -14.3 -19.65 M37.5 3.3 Q36.35 6.6 34.35 9.3 L32.95 11.35 M12.2 -25.45 Q10.5 -23.35 8.55 -21.7 L6.15 -19.6 4.65 -18.2 M22.5 -15.5 Q21.75 -13.15 20.2 -11.0 L19.05 -9.4 M24.85 -20.95 L22.5 -15.5 M33.85 -12.25 L33.05 -9.3 31.55 -4.35 31.15 -3.25 29.15 0.7" fill="none" stroke="#000000" stroke-linecap="round" stroke-linejoin="round" stroke-opacity="0.15294118" stroke-width="0.05"/>
    </g>
    <g id="sprite9" transform="matrix(1.0, 0.0, 0.0, 1.0, 10.1, 9.4)">
      <use height="19.0" transform="matrix(1.0, 0.0, 0.0, 1.0, -10.1, -9.4)" width="20.95" xlink:href="#shape5"/>
    </g>
    <g id="shape5" transform="matrix(1.0, 0.0, 0.0, 1.0, 10.1, 9.4)">
      <path d="M-8.45 9.6 L-8.5 9.6 -8.75 9.4 -8.45 9.6 M-9.9 7.75 L-10.1 7.05 -10.05 7.05 -9.9 7.75 M5.6 -8.35 L6.35 -7.5 Q6.8 -6.95 6.2 -6.15 L5.4 -5.2 Q4.3 -4.25 3.0 -3.7 0.95 -2.95 -0.35 -4.15 L-0.4 -5.05 0.2 -5.8 1.2 -6.75 Q3.3 -7.8 5.6 -8.35" fill="#efcdaf" fill-rule="evenodd" stroke="none"/>
      <path d="M-3.3 -5.25 L1.25 -7.5 Q3.5 -8.75 5.9 -9.05 L8.6 -9.4 10.85 -9.05 Q9.15 -2.65 4.95 3.0 L4.8 3.2 3.4 4.65 0.35 6.75 -1.6 7.75 Q-3.2 8.6 -4.8 9.05 L-8.45 9.6 -8.75 9.4 -8.8 9.35 -8.9 9.25 -9.55 8.45 -9.9 7.75 -10.05 7.05 -10.1 7.05 -4.8 -2.35 Q-4.4 -3.6 -3.3 -5.25 M5.6 -8.35 Q3.3 -7.8 1.2 -6.75 L0.2 -5.8 -0.4 -5.05 -0.35 -4.15 Q0.95 -2.95 3.0 -3.7 4.3 -4.25 5.4 -5.2 L6.2 -6.15 Q6.8 -6.95 6.35 -7.5 L5.6 -8.35 M-4.2 1.05 L-0.6 -2.2 0.6 -2.85 Q2.7 -3.7 4.0 -2.5 4.4 -0.55 2.9 1.3 L1.2 3.2 -0.1 4.2 1.2 3.2 2.9 1.3 Q4.4 -0.55 4.0 -2.5 2.7 -3.7 0.6 -2.85 L-0.6 -2.2 -4.2 1.05" fill="#c6886a" fill-rule="evenodd" stroke="none"/>
      <path d="M-3.3 -5.25 L1.25 -7.5 Q3.5 -8.75 5.9 -9.05 L8.6 -9.4 10.85 -9.05 Q9.15 -2.65 4.95 3.0 L4.8 3.2 3.4 4.65 0.35 6.75 -1.6 7.75 Q-3.2 8.6 -4.8 9.05 L-8.45 9.6 -8.75 9.4 -8.8 9.35 -8.9 9.25 -9.7 8.55 -9.9 7.75 -10.05 7.05 M-0.1 4.2 L1.2 3.2 2.9 1.3 Q4.4 -0.55 4.0 -2.5 2.7 -3.7 0.6 -2.85 L-0.6 -2.2 -4.2 1.05" fill="none" stroke="#000000" stroke-linecap="round" stroke-linejoin="round" stroke-opacity="0.3019608" stroke-width="0.05"/>
    </g>
    <g id="sprite10" transform="matrix(1.0, 0.0, 0.0, 1.0, 28.45, 30.95)">
      <use height="34.0" id="_col1c" transform="matrix(1.0, 0.1027, 0.0, 1.0, -28.45, -20.2502)" width="56.9" xlink:href="#sprite11"/>
    </g>
    <g id="sprite11" transform="matrix(1.0, 0.0, 0.0, 1.0, 31.65, 17.0)">
      <use height="34.0" transform="matrix(1.0, 0.0, 0.0, 1.0, -31.65, -17.0)" width="56.9" xlink:href="#shape6"/>
    </g>
    <g id="shape6" transform="matrix(1.0, 0.0, 0.0, 1.0, 31.65, 17.0)">
      <path d="M-21.3 -16.5 Q-14.25 -16.3 -6.3 -16.8 0.55 -17.55 6.35 -15.35 L6.75 -14.95 8.75 -14.25 14.0 -10.7 14.4 -10.35 13.65 -9.65 12.25 -8.35 13.8 -7.65 15.15 -4.4 Q16.2 -1.95 16.4 1.05 16.55 3.3 16.0 5.5 L15.7 6.3 14.15 9.8 12.85 11.65 11.35 13.1 12.6 9.5 12.8 8.15 12.75 7.45 Q12.65 5.9 12.2 4.6 L7.95 -6.2 7.8 -6.6 Q6.75 -9.1 5.05 -11.1 L2.35 -13.95 1.85 -6.35 1.55 -3.65 0.55 1.65 Q-0.05 4.25 -0.95 6.75 L-2.2 10.0 -4.15 14.75 -4.1 10.2 -4.45 5.35 -5.05 -0.05 -5.05 -0.25 Q-4.5 -1.7 -4.75 -3.3 L-5.4 -7.65 -4.85 -9.25 -6.2 -9.05 Q-9.7 -7.4 -12.3 -4.45 -13.2 -3.45 -13.75 -2.15 -14.75 0.2 -14.55 2.75 L-13.6 11.05 Q-13.35 12.85 -11.55 14.35 -14.1 13.3 -15.05 12.25 -19.8 6.85 -20.4 -0.25 -20.6 -2.5 -20.25 -4.75 L-19.7 -6.85 Q-19.3 -7.9 -18.4 -8.55 L-19.5 -8.3 -22.55 -7.1 -23.35 -6.5 Q-24.75 -4.95 -25.1 -2.7 -25.5 -0.4 -25.0 1.75 L-23.9 4.75 -22.25 8.0 -22.35 8.05 -24.2 7.3 Q-26.45 6.4 -27.7 4.55 -29.05 2.65 -30.05 0.3 L-31.25 -2.25 Q-31.7 -3.35 -31.65 -4.4 L-31.55 -7.9 Q-31.55 -9.6 -30.65 -11.05 -29.05 -13.45 -26.7 -14.75 L-25.5 -15.15 -21.4 -15.55 -21.3 -16.5 M-21.65 -12.5 L-21.4 -15.55 -21.65 -12.5" fill="#ffffff" fill-rule="evenodd" stroke="none"/>
      <path d="M14.4 -10.35 L14.45 -10.2 Q18.65 -7.1 21.45 -2.1 22.8 0.25 24.35 2.25 L25.05 4.1 25.25 4.4 25.2 7.05 24.95 10.6 24.9 10.85 24.85 11.15 24.2 12.8 21.3 15.65 20.25 16.55 Q19.3 17.35 19.1 16.7 20.3 15.1 20.35 12.95 L20.45 10.6 Q20.55 8.45 19.85 6.6 19.85 8.65 19.45 10.6 19.2 12.05 18.25 13.0 16.5 14.7 14.0 15.3 L11.35 15.65 Q10.25 15.85 9.55 15.65 L11.35 13.1 12.85 11.65 14.15 9.8 15.7 6.3 16.0 5.5 Q16.55 3.3 16.4 1.05 16.2 -1.95 15.15 -4.4 L13.8 -7.65 12.25 -8.35 13.65 -9.65 14.4 -10.35 M4.0 9.1 L3.6 9.5 -1.25 13.85 -1.7 13.9 -2.0 14.0 Q-3.4 14.3 -4.15 14.75 L-2.2 10.0 -0.95 6.75 Q-0.05 4.25 0.55 1.65 L1.55 -3.65 1.85 -6.35 2.35 -13.95 5.05 -11.1 Q6.75 -9.1 7.8 -6.6 L7.95 -6.2 7.75 -6.35 7.75 -6.2 7.75 -6.15 Q8.4 -3.5 8.15 -0.5 7.95 2.3 6.8 4.75 5.7 7.2 4.0 9.1 M-11.9 13.3 L-11.55 14.35 Q-13.35 12.85 -13.6 11.05 L-14.55 2.75 Q-14.75 0.2 -13.75 -2.15 -13.2 -3.45 -12.3 -4.45 -9.7 -7.4 -6.2 -9.05 L-4.85 -9.25 -5.4 -7.65 -4.75 -3.3 Q-4.5 -1.7 -5.05 -0.25 L-6.3 -6.25 -6.65 -6.3 -6.75 -6.25 -6.85 -6.2 -7.05 -6.05 -7.4 -6.0 Q-9.05 -4.05 -10.1 -1.5 -13.15 5.65 -11.9 13.3 M7.75 -6.35 L7.8 -6.6 7.75 -6.35" fill="#d6baba" fill-rule="evenodd" stroke="none"/>
      <path d="M7.75 -6.35 L7.95 -6.2 7.75 -6.15 7.75 -6.2 7.75 -6.35" fill="#660000" fill-opacity="0.28235295" fill-rule="evenodd" stroke="none"/>
      <path d="M12.2 4.6 L11.7 4.85 Q11.5 4.9 10.7 5.4 L7.9 6.75 Q5.95 7.6 4.0 9.1 5.7 7.2 6.8 4.75 7.95 2.3 8.15 -0.5 8.4 -3.5 7.75 -6.15 L7.95 -6.2 12.2 4.6 M-5.05 -0.05 Q-6.35 4.25 -7.0 8.6 -7.2 10.15 -7.85 11.4 L-8.35 12.25 -10.25 12.35 -11.1 13.15 -11.9 13.3 Q-13.15 5.65 -10.1 -1.5 -9.05 -4.05 -7.4 -6.0 L-7.05 -6.05 -6.85 -6.2 -6.75 -6.25 -6.65 -6.3 -6.3 -6.25 -5.05 -0.25 -5.05 -0.05" fill="#631300" fill-opacity="0.3529412" fill-rule="evenodd" stroke="none"/>
      <path d="M25.2 7.05 L24.95 10.6 24.9 10.85 24.85 11.15 24.2 12.8 21.3 15.65 20.25 16.55 Q19.3 17.35 19.1 16.7 20.3 15.1 20.35 12.95 L20.45 10.6 Q20.55 8.45 19.85 6.6 19.85 8.65 19.45 10.6 19.2 12.05 18.25 13.0 16.5 14.7 14.0 15.3 L11.35 15.65 Q10.25 15.85 9.55 15.65 L11.35 13.1 12.6 9.5 12.8 8.15 12.75 7.45 Q12.65 5.9 12.2 4.6 L7.95 -6.2 7.75 -6.35 M4.0 9.1 L3.6 9.5 -1.25 13.85 -1.7 13.9 -2.0 14.0 Q-3.4 14.3 -4.15 14.75 L-4.1 10.2 -4.45 5.35 -5.05 -0.05 -5.05 -0.25 -6.3 -6.25 -6.65 -6.3 -6.75 -6.25 -6.85 -6.2 -7.05 -6.05 -7.4 -6.0 Q-9.05 -4.05 -10.1 -1.5 -13.15 5.65 -11.9 13.3 L-11.55 14.35 Q-14.1 13.3 -15.05 12.25 -19.8 6.85 -20.4 -0.25 -20.6 -2.5 -20.25 -4.75 L-19.7 -6.85 Q-19.3 -7.9 -18.4 -8.55 L-19.5 -8.3 -22.55 -7.1 -23.35 -6.5 Q-24.75 -4.95 -25.1 -2.7 -25.5 -0.4 -25.0 1.75 L-23.9 4.75 -22.25 8.0 -22.35 8.05 -24.2 7.3 Q-26.45 6.4 -27.7 4.55 -29.05 2.65 -30.05 0.3 L-31.25 -2.25 Q-31.7 -3.35 -31.65 -4.4 L-31.55 -7.9 Q-31.55 -9.6 -30.65 -11.05 -29.05 -13.45 -26.7 -14.75 L-25.5 -15.15 -21.4 -15.55 -21.3 -16.5 M7.75 -6.2 L7.75 -6.15 Q8.4 -3.5 8.15 -0.5 7.95 2.3 6.8 4.75 5.7 7.2 4.0 9.1 M7.8 -6.6 L7.75 -6.35 M-21.4 -15.55 L-21.65 -12.5" fill="none" stroke="#000000" stroke-linecap="round" stroke-linejoin="round" stroke-opacity="0.3019608" stroke-width="0.05"/>
    </g>
  </defs>
</svg>
