<?xml version="1.0" encoding="UTF-8" standalone="no"?>
<svg xmlns:xlink="http://www.w3.org/1999/xlink" height="20.15px" width="23.0px" xmlns="http://www.w3.org/2000/svg">
  <g transform="matrix(1.0, 0.0, 0.0, 1.0, 36.85, 1.15)">
    <use height="20.15" transform="matrix(1.0, 0.0, 0.0, 1.0, -36.85, -1.15)" width="23.0" xlink:href="#shape0"/>
  </g>
  <defs>
    <g id="shape0" transform="matrix(1.0, 0.0, 0.0, 1.0, 36.85, 1.15)">
      <path d="M-13.85 12.8 L-13.9 13.2 Q-16.2 17.8 -18.8 18.3 L-23.1 19.0 -23.8 16.7 -21.85 12.0 -22.0 12.4 -15.9 9.9 Q-15.15 9.9 -14.1 11.6 L-13.85 12.8 M-36.45 3.0 Q-35.55 3.55 -34.95 4.35 -34.05 5.65 -34.15 6.85 -33.6 8.45 -31.15 9.7 -33.5 8.9 -35.4 7.6 L-35.55 5.95 Q-35.55 4.55 -36.45 3.0" fill="#d6baba" fill-rule="evenodd" stroke="none"/>
      <path d="M-21.85 12.0 L-21.85 11.95 -21.55 11.2 -18.55 10.35 -15.2 8.75 -14.1 11.6 Q-15.15 9.9 -15.9 9.9 L-22.0 12.4 -21.85 12.0 M-36.45 3.0 L-36.85 2.3 -32.05 4.5 Q-31.0 5.3 -30.65 5.95 -30.45 6.35 -30.55 6.7 L-30.65 7.45 -31.0 8.6 -30.65 8.95 -30.4 9.1 -29.7 9.55 Q-27.7 10.5 -25.85 10.9 L-28.75 10.35 -30.65 9.85 -31.15 9.7 Q-33.6 8.45 -34.15 6.85 -34.05 5.65 -34.95 4.35 -35.55 3.55 -36.45 3.0 M-23.85 2.8 Q-23.05 3.25 -22.6 3.85 -20.55 6.85 -22.35 8.3 L-22.35 7.45 Q-22.45 6.6 -23.25 5.6 -25.05 3.45 -28.45 1.9 -30.05 0.0 -29.55 -1.15 L-28.35 0.05 -23.85 2.8" fill="#ffffff" fill-rule="evenodd" stroke="none"/>
      <path d="M-23.8 16.7 L-21.85 12.0 -21.85 11.95 -21.55 11.2 -18.55 10.35 -15.2 8.75 -14.1 11.6 -13.85 12.8 M-23.85 2.8 L-28.35 0.05 -29.55 -1.15 Q-30.05 0.0 -28.45 1.9 -25.05 3.45 -23.25 5.6 -22.45 6.6 -22.35 7.45 L-22.35 8.3 Q-20.55 6.85 -22.6 3.85 -23.05 3.25 -23.85 2.8 M-31.15 9.7 L-30.65 9.85 -28.75 10.35 -25.85 10.9 Q-27.7 10.5 -29.7 9.55 L-30.4 9.1 -30.65 8.95 -31.0 8.6 -30.65 7.45 -30.55 6.7 Q-30.45 6.35 -30.65 5.95 -31.0 5.3 -32.05 4.5 L-36.85 2.3 -36.45 3.0 M-31.15 9.7 Q-33.5 8.9 -35.4 7.6 L-35.55 5.95 Q-35.55 4.55 -36.45 3.0" fill="none" stroke="#000000" stroke-linecap="round" stroke-linejoin="round" stroke-opacity="0.3019608" stroke-width="0.05"/>
    </g>
  </defs>
</svg>
