<?xml version="1.0" encoding="UTF-8" standalone="no"?>
<svg xmlns:xlink="http://www.w3.org/1999/xlink" height="7.95px" width="26.15px" xmlns="http://www.w3.org/2000/svg">
  <g transform="matrix(1.0, 0.0, 0.0, 1.0, 13.05, 4.05)">
    <use height="7.75" transform="matrix(1.0, 0.0, 0.0, 1.0, -13.05, -3.85)" width="26.15" xlink:href="#shape0"/>
  </g>
  <defs>
    <g id="shape0" transform="matrix(1.0, 0.0, 0.0, 1.0, 13.05, 3.85)">
      <path d="M-13.05 2.05 L-13.05 -2.1 -10.55 -3.85 -6.55 -1.25 7.85 -1.25 10.05 -3.15 13.1 -1.75 12.05 2.35 9.2 3.9 7.85 1.65 -8.05 1.65 -10.4 3.9 -13.05 2.05 M12.45 -1.35 L10.65 0.1 11.65 2.2 12.45 -1.35 M-11.6 1.55 L-9.75 0.0 -11.7 -1.1 -11.6 1.55" fill="#ffff99" fill-rule="evenodd" stroke="none"/>
      <path d="M-11.6 1.55 L-11.7 -1.1 -9.75 0.0 -11.6 1.55 M12.45 -1.35 L11.65 2.2 10.65 0.1 12.45 -1.35" fill="#fce17a" fill-rule="evenodd" stroke="none"/>
    </g>
  </defs>
</svg>
