<?xml version="1.0" encoding="UTF-8" standalone="no"?>
<svg xmlns:xlink="http://www.w3.org/1999/xlink" height="7.95px" width="26.15px" xmlns="http://www.w3.org/2000/svg">
  <g transform="matrix(1.0, 0.0, 0.0, 1.0, 13.05, 4.05)">
    <use height="3.25" transform="matrix(1.0, 0.0, 0.0, 1.0, -1.6, -1.65)" width="3.15" xlink:href="#shape0"/>
  </g>
  <defs>
    <g id="shape0" transform="matrix(1.0, 0.0, 0.0, 1.0, 1.6, 1.65)">
      <path d="M-1.2 1.1 L-0.5 0.35 0.35 1.2 0.3 0.05 1.0 -1.15 1.55 0.75 0.95 1.25 -0.4 1.6 -1.1 1.45 -1.2 1.1" fill="#910909" fill-rule="evenodd" stroke="none"/>
      <path d="M1.0 -1.15 L0.3 0.05 0.35 1.2 -0.5 0.35 -1.2 1.1 -1.6 -0.45 -1.0 -1.35 -0.05 -1.65 1.0 -1.15" fill="#e00e0e" fill-rule="evenodd" stroke="none"/>
    </g>
  </defs>
</svg>
