<?xml version="1.0" encoding="UTF-8" standalone="no"?>
<svg xmlns:xlink="http://www.w3.org/1999/xlink" height="45.0px" width="18.35px" xmlns="http://www.w3.org/2000/svg">
  <g transform="matrix(1.0, 0.0, 0.0, 1.0, 9.15, 20.4)">
    <use height="40.75" id="_col3" transform="matrix(1.0, 0.0, 0.0, 1.0, -9.15, -20.4)" width="18.35" xlink:href="#sprite0"/>
    <use height="20.85" id="_col2" transform="matrix(1.1503, -0.3352, 0.0, 1.2356, -7.4768, -1.1712)" width="13.0" xlink:href="#sprite1"/>
  </g>
  <defs>
    <g id="sprite0" transform="matrix(1.0, 0.0, 0.0, 1.0, 9.15, 21.65)">
      <use height="40.75" transform="matrix(1.0, 0.0, 0.0, 1.0, -9.15, -21.65)" width="18.35" xlink:href="#shape0"/>
    </g>
    <g id="shape0" transform="matrix(1.0, 0.0, 0.0, 1.0, 9.15, 21.65)">
      <path d="M-1.0 -21.5 Q-0.15 -21.5 0.15 -20.75 L0.25 -19.95 0.15 -18.65 0.15 -18.5 -0.05 -18.45 1.95 -18.0 1.45 -17.4 1.05 -17.1 Q0.8 -17.1 0.3 -16.5 -0.25 -15.9 -0.9 -15.9 L-0.8 -15.75 -1.25 -15.75 -1.35 -15.6 Q0.6 -13.85 0.6 -13.35 0.6 -13.15 0.75 -13.2 L0.9 -13.05 0.45 -10.2 Q0.0 -8.0 0.0 -6.6 L-0.35 -4.25 -0.1 -1.85 0.2 -0.75 0.65 0.3 1.1 1.3 1.25 1.45 1.35 1.65 2.55 3.6 3.2 4.45 3.4 4.85 3.6 5.25 1.75 15.2 1.05 18.65 1.0 18.65 0.05 18.9 -1.65 19.1 -3.15 18.8 -3.5 18.65 -3.55 18.6 -5.25 17.1 -5.15 16.75 -6.35 14.95 -7.15 13.7 -8.05 11.9 -8.25 11.3 -8.45 10.4 -8.7 5.6 -8.7 4.1 -9.0 0.5 -9.15 -1.7 -8.7 -6.5 -8.15 -11.85 -8.0 -14.0 -8.4 -14.8 Q-8.4 -15.95 -7.7 -17.35 -6.95 -18.95 -5.8 -19.55 L-1.9 -21.4 -1.05 -21.5 -1.0 -21.5 M-8.0 -14.0 L-7.95 -14.4 -6.45 -15.25 -5.85 -15.35 -1.25 -15.75 -5.85 -15.35 -6.45 -15.25 -7.95 -14.4 -8.0 -14.0 M-0.05 -18.45 L-1.2 -18.1 -2.4 -17.7 Q-5.65 -16.5 -7.15 -15.25 L-7.95 -14.4 -7.15 -15.25 Q-5.65 -16.5 -2.4 -17.7 L-1.2 -18.1 -0.05 -18.45" fill="#d6baba" fill-rule="evenodd" stroke="none"/>
      <path d="M3.45 -18.9 L1.6 -18.8 0.15 -18.5 1.6 -18.8 3.45 -18.9 M0.15 -18.5 L0.15 -18.65 0.25 -19.95 0.15 -20.75 Q-0.15 -21.5 -1.0 -21.5 L0.2 -21.65 Q2.9 -21.65 5.35 -20.35 7.75 -19.05 7.75 -17.7 L8.0 -16.8 8.2 -16.6 8.25 -15.15 7.85 -11.45 8.0 -10.55 8.1 -9.45 8.25 -7.35 8.85 -5.3 8.95 -4.5 9.2 -1.65 9.05 0.1 8.9 1.8 8.7 3.75 9.15 8.1 Q9.15 10.05 7.4 13.0 L4.95 16.4 4.0 17.55 3.75 17.65 2.8 18.0 Q1.8 18.35 1.05 18.65 L1.75 15.2 3.6 5.25 3.4 4.85 3.2 4.45 2.55 3.6 1.35 1.65 1.25 1.45 1.1 1.3 0.65 0.3 0.2 -0.75 -0.1 -1.85 -0.35 -4.25 0.0 -6.6 Q0.0 -8.0 0.45 -10.2 L0.9 -13.05 0.75 -13.2 Q0.6 -13.15 0.6 -13.35 0.6 -13.85 -1.35 -15.6 L-1.25 -15.75 -0.8 -15.75 -0.9 -15.9 Q-0.25 -15.9 0.3 -16.5 0.8 -17.1 1.05 -17.1 L1.45 -17.4 1.95 -18.0 -0.05 -18.45 0.15 -18.5 M2.7 -15.95 L-0.8 -15.75 2.7 -15.95" fill="#a78383" fill-rule="evenodd" stroke="none"/>
      <path d="M0.15 -18.5 L1.6 -18.8 3.45 -18.9 M0.15 -18.5 L-0.05 -18.45 M-0.8 -15.75 L2.7 -15.95 M-1.25 -15.75 L-5.85 -15.35 -6.45 -15.25 -7.95 -14.4 -8.0 -14.0 -8.15 -11.85 -8.7 -6.5 -9.15 -1.7 -9.0 0.5 -8.7 4.1 -8.7 5.6 -8.45 10.4 -8.25 11.3 -8.05 11.9 M-3.55 18.6 L-3.5 18.65 M7.4 13.0 Q9.15 10.05 9.15 8.1 L8.7 3.75 8.9 1.8 9.05 0.1 9.2 -1.65 8.95 -4.5 8.85 -5.3 8.25 -7.35 8.1 -9.45 8.0 -10.55 7.85 -11.45 8.25 -15.15 8.2 -16.6 M-7.95 -14.4 L-7.15 -15.25 Q-5.65 -16.5 -2.4 -17.7 L-1.2 -18.1 -0.05 -18.45 M-1.25 -15.75 L-0.8 -15.75" fill="none" stroke="#000000" stroke-linecap="round" stroke-linejoin="round" stroke-opacity="0.3019608" stroke-width="0.05"/>
    </g>
    <g id="sprite1" transform="matrix(1.0, 0.0, 0.0, 1.0, 6.5, 10.4)">
      <use height="20.85" transform="matrix(1.0, 0.0, 0.0, 1.0, -6.5, -10.4)" width="13.0" xlink:href="#shape1"/>
    </g>
    <g id="shape1" transform="matrix(1.0, 0.0, 0.0, 1.0, 6.5, 10.4)">
      <path d="M0.8 -7.85 L0.45 -7.9 0.5 -8.0 0.8 -7.85 M-0.05 -8.15 L-0.4 -8.25 0.1 -6.1 0.5 -1.4 0.15 1.65 0.45 4.95 0.25 7.1 0.25 7.4 0.3 8.0 0.3 8.05 0.3 8.35 -0.4 8.3 -0.45 8.1 -1.3 7.95 -1.95 7.8 -2.95 7.1 -3.5 6.6 -4.1 5.95 -4.4 5.4 -4.45 5.3 -4.7 4.75 -4.8 4.5 -5.05 3.85 -5.7 1.95 -6.15 0.4 -6.35 -0.65 -6.4 -2.35 -6.35 -0.65 -6.5 -1.3 -6.4 -2.35 -6.45 -4.05 -6.25 -8.45 -6.2 -8.95 -6.1 -9.0 -5.65 -9.2 -4.65 -9.35 -3.5 -9.3 -3.5 -9.2 -3.5 -9.1 -3.15 -9.15 -1.25 -8.75 -1.3 -8.55 -1.25 -8.55 -0.05 -8.15 M-3.9 4.65 L-3.6 5.25 -3.5 6.6 -3.6 5.25 -3.9 4.65 M-3.6 -8.35 L-3.5 -9.1 -3.6 -8.35 M-1.25 -7.85 L-1.3 -8.55 -1.25 -7.85 M-0.95 5.75 L-0.45 8.1 -0.95 5.75 M-1.3 7.95 L-2.95 7.1 -1.3 7.95" fill="#ffffff" fill-rule="evenodd" stroke="none"/>
      <path d="M0.8 -7.85 L1.1 -7.85 1.25 -7.75 1.7 -7.55 2.5 -7.1 3.65 -6.2 3.9 -5.65 4.85 -3.35 4.5 -3.35 4.0 -5.4 3.65 -6.2 4.0 -5.4 4.5 -3.35 4.85 -3.35 5.2 -1.9 5.35 -0.9 5.5 1.35 5.5 3.1 5.45 3.85 5.3 6.05 5.15 6.95 4.1 8.05 4.2 8.2 2.75 8.55 1.05 8.45 0.75 8.4 0.35 8.35 0.3 8.0 0.35 8.35 0.3 8.35 0.3 8.05 0.3 8.0 0.25 7.4 0.25 7.1 0.45 4.95 0.15 1.65 0.5 -1.4 0.1 -6.1 -0.4 -8.25 -0.05 -8.15 0.5 -8.0 0.45 -7.9 0.8 -7.85 M0.4 -7.3 L0.45 -7.9 0.4 -7.3 M3.7 7.5 L4.1 8.05 3.7 7.5 M5.5 1.35 L5.1 0.8 5.2 -1.9 5.1 0.8 5.5 1.35 M3.25 -3.4 L4.5 -3.35 3.25 -3.4 M3.6 2.3 L4.2 2.7 5.5 3.1 4.2 2.7 3.6 2.3" fill="#d6baba" fill-rule="evenodd" stroke="none"/>
      <path d="M0.8 -7.85 L1.1 -7.85 1.25 -7.75 1.7 -7.55 2.5 -7.1 M4.85 -3.35 L6.5 -2.9 M0.45 -7.9 L0.4 -7.3 M0.5 -8.0 L0.45 -7.9 0.8 -7.85 M0.25 7.4 L0.3 8.0 0.35 8.35 0.6 9.9 M0.75 8.4 L1.05 8.45 2.75 8.55 M4.2 8.2 L4.1 8.05 3.7 7.5 M0.65 -9.5 L0.5 -8.0 M3.65 -6.2 L4.0 -5.4 4.5 -3.35 4.85 -3.35 M5.5 3.1 L6.5 3.3 M4.5 -3.35 L3.25 -3.4 M5.2 -1.9 L5.1 0.8 5.5 1.35 M5.45 3.85 L5.3 6.05 M5.15 6.95 L4.1 8.05 M5.5 3.1 L4.2 2.7 3.6 2.3 M4.2 8.2 L4.85 8.95 M-0.4 8.3 L0.1 10.45 M-4.65 -9.35 L-5.65 -9.2 M-6.1 -9.0 L-6.2 -8.95 M-6.25 -8.45 L-6.45 -4.05 -6.4 -2.35 -6.35 -0.65 -6.15 0.4 -5.7 1.95 -5.05 3.85 -4.8 4.5 -4.7 4.75 -4.45 5.3 -4.4 5.4 -4.1 5.95 M-3.5 6.6 L-3.6 5.25 -3.9 4.65 M-3.45 -10.35 L-3.5 -9.3 -3.5 -9.2 -3.15 -9.15 -1.25 -8.75 -1.05 -10.4 M-3.5 -9.2 L-3.5 -9.1 -3.6 -8.35 M-1.25 -8.75 L-1.3 -8.55 -1.25 -7.85 M-0.4 8.3 L-0.45 8.1 -0.95 5.75 M-3.5 6.6 L-3.5 8.0 M-2.95 7.1 L-1.3 7.95" fill="none" stroke="#000000" stroke-linecap="round" stroke-linejoin="round" stroke-opacity="0.3019608" stroke-width="0.05"/>
    </g>
  </defs>
</svg>
