<?xml version="1.0" encoding="UTF-8" standalone="no"?>
<svg xmlns:xlink="http://www.w3.org/1999/xlink" height="37.15px" width="34.95px" xmlns="http://www.w3.org/2000/svg">
  <g transform="matrix(1.0, 0.0, 0.0, 1.0, 16.5, 16.65)">
    <use height="14.0" id="_col2" transform="matrix(1.0288, 0.0, 0.0, 1.036, -9.1, -6.6)" width="13.8" xlink:href="#sprite0"/>
    <use height="1.8" transform="matrix(1.0, 0.0, 0.0, 1.0, -4.65, -4.4)" width="2.7" xlink:href="#shape1"/>
  </g>
  <defs>
    <g id="sprite0" transform="matrix(1.0, 0.0, 0.0, 1.0, 6.95, 6.95)">
      <use height="14.0" transform="matrix(1.0, 0.0, 0.0, 1.0, -6.95, -6.95)" width="13.8" xlink:href="#shape0"/>
    </g>
    <g id="shape0" transform="matrix(1.0, 0.0, 0.0, 1.0, 6.95, 6.95)">
      <path d="M0.4 -6.9 Q2.15 -6.95 3.7 -5.9 L5.6 -4.1 Q6.35 -3.05 6.6 -1.7 L6.85 1.2 Q6.75 2.95 5.65 4.3 L4.95 5.2 4.35 5.75 Q3.2 6.65 1.95 6.9 L1.05 7.0 Q2.3 5.95 3.0 3.85 L3.85 -1.05 Q3.75 -3.05 1.1 -6.05 L0.4 -6.9" fill="#d6baba" fill-rule="evenodd" stroke="none"/>
      <path d="M0.4 -6.9 L1.1 -6.05 Q3.75 -3.05 3.85 -1.05 L3.0 3.85 Q2.3 5.95 1.05 7.0 L0.95 7.05 0.8 7.05 -1.15 6.95 -1.4 6.7 Q-4.05 6.25 -5.55 4.25 -6.55 2.95 -6.8 1.45 -7.2 -0.5 -6.65 -2.3 -6.05 -4.2 -4.55 -5.45 L-3.45 -6.25 -2.8 -6.5 0.4 -6.9" fill="#ffffff" fill-rule="evenodd" stroke="none"/>
      <path d="M4.95 5.2 L5.65 4.3 Q6.75 2.95 6.85 1.2 L6.6 -1.7 Q6.35 -3.05 5.6 -4.1 L3.7 -5.9 Q2.15 -6.95 0.4 -6.9 L-2.8 -6.5" fill="none" stroke="#000000" stroke-linecap="round" stroke-linejoin="round" stroke-opacity="0.3019608" stroke-width="0.05"/>
    </g>
    <g id="shape1" transform="matrix(1.0, 0.0, 0.0, 1.0, 4.65, 4.4)">
      <path d="M-2.5 -2.6 Q-3.1 -2.6 -3.9 -3.05 L-4.65 -3.8 Q-4.65 -4.7 -3.3 -4.3 -1.95 -3.85 -1.95 -3.2 -1.95 -2.6 -2.5 -2.6" fill="#ffffff" fill-rule="evenodd" stroke="none"/>
    </g>
  </defs>
</svg>
