<?xml version="1.0" encoding="UTF-8" standalone="no"?>
<svg xmlns:xlink="http://www.w3.org/1999/xlink" height="9.8px" width="158.25px" xmlns="http://www.w3.org/2000/svg">
  <g transform="matrix(1.0, 0.0, 0.0, 1.0, 75.35, 4.9)">
    <clipPath id="clipPath0" transform="matrix(1.0, 0.0, 0.0, 1.0, 75.35, 4.9)">
      <use height="4.0" transform="matrix(0.4035, 0.0, 0.0, 2.4499, -46.4, -4.9)" width="230.0" xlink:href="#shape0"/>
    </clipPath>
    <g clip-path="url(#clipPath0)">
      <use height="5.85" transform="matrix(1.0, 0.0, 0.0, 1.0, -59.05, -2.95)" width="131.1" xlink:href="#sprite0"/>
    </g>
  </g>
  <defs>
    <g id="shape0" transform="matrix(1.0, 0.0, 0.0, 1.0, 0.0, 0.0)">
      <path d="M230.0 4.0 L0.0 4.0 0.0 0.0 230.0 0.0 230.0 4.0" fill="#ff0000" fill-rule="evenodd" stroke="none"/>
    </g>
    <g id="sprite0" transform="matrix(1.0, 0.0, 0.0, 1.0, 55.1, 2.95)">
      <use height="5.85" transform="matrix(1.0, 0.0, 0.0, 1.0, -55.1, -2.95)" width="131.1" xlink:href="#shape1"/>
    </g>
    <g id="shape1" transform="matrix(1.0, 0.0, 0.0, 1.0, 55.1, 2.95)">
      <path d="M-54.1 -0.05 Q-47.1 3.65 -40.95 0.25 -33.55 -3.75 -26.85 -0.1 -20.05 3.65 -13.9 0.25 -6.55 -3.75 0.05 -0.2 7.05 3.6 13.15 0.2 20.55 -3.85 27.3 -0.15 34.1 3.6 40.25 0.2 47.65 -3.85 54.15 -0.15 61.15 3.55 67.3 0.15 71.25 -2.0 75.0 -1.95" fill="none" stroke="#ffffff" stroke-linecap="round" stroke-linejoin="round" stroke-width="2.0"/>
    </g>
  </defs>
</svg>
