<?xml version="1.0" encoding="UTF-8" standalone="no"?>
<svg xmlns:xlink="http://www.w3.org/1999/xlink" height="38.25px" width="36.6px" xmlns="http://www.w3.org/2000/svg">
  <g transform="matrix(1.0, 0.0, 0.0, 1.0, 17.85, 19.1)">
    <use height="29.7" id="_col2" transform="matrix(0.991, 0.2449, -0.0366, 1.0, -15.9246, -19.084)" width="34.95" xlink:href="#sprite0"/>
    <use height="13.6" transform="matrix(1.0, 0.0, 0.0, 1.0, -17.85, 3.85)" width="36.6" xlink:href="#shape1"/>
    <use height="20.7" id="_p1b" transform="matrix(1.0, 0.2081, 0.0, 1.0, -17.5, -13.3339)" width="35.15" xlink:href="#sprite1"/>
    <use height="12.95" id="_p1a" transform="matrix(1.0, 0.134, 0.0, 1.0, -15.85, -15.1067)" width="29.45" xlink:href="#sprite2"/>
  </g>
  <defs>
    <g id="sprite0" transform="matrix(1.0, 0.0, 0.0, 1.0, 17.7, 14.1)">
      <use height="29.7" transform="matrix(1.0, 0.0, 0.0, 1.0, -17.7, -14.1)" width="34.95" xlink:href="#shape0"/>
    </g>
    <g id="shape0" transform="matrix(1.0, 0.0, 0.0, 1.0, 17.7, 14.1)">
      <path d="M-1.15 -14.05 L0.25 -14.05 Q2.05 -14.0 12.15 -11.55 14.35 -6.6 15.4 -1.35 L16.95 5.75 17.25 6.8 16.55 8.25 Q15.1 9.15 12.85 10.95 L10.75 12.6 8.55 13.2 1.9 14.1 2.7 13.05 3.1 10.25 Q3.1 9.35 2.55 7.65 L1.25 3.35 Q0.25 -0.3 -0.55 -6.6 L-1.2 -13.9 -1.15 -14.05" fill="#d6baba" fill-rule="evenodd" stroke="none"/>
      <path d="M1.9 14.1 Q0.9 15.85 -2.65 15.55 L-11.65 14.1 Q-17.05 12.95 -17.3 10.8 -17.6 8.65 -17.6 4.4 L-17.7 -2.6 Q-17.75 -5.35 -17.25 -8.25 L-17.2 -8.6 Q-16.6 -10.5 -16.15 -12.35 -16.05 -12.75 -15.15 -13.0 L-13.3 -13.45 -11.35 -13.8 -4.65 -14.1 -1.15 -14.05 -1.2 -13.9 -0.55 -6.6 Q0.25 -0.3 1.25 3.35 L2.55 7.65 Q3.1 9.35 3.1 10.25 L2.7 13.05 1.9 14.1" fill="#ffffff" fill-rule="evenodd" stroke="none"/>
      <path d="M-1.15 -14.05 L0.25 -14.05 Q2.05 -14.0 12.15 -11.55 14.35 -6.6 15.4 -1.35 L16.95 5.75 17.25 6.8 M-17.3 10.8 Q-17.6 8.65 -17.6 4.4 L-17.7 -2.6 Q-17.75 -5.35 -17.25 -8.25 L-17.2 -8.6 Q-16.6 -10.5 -16.15 -12.35 -16.05 -12.75 -15.15 -13.0 L-13.3 -13.45 -11.35 -13.8 -4.65 -14.1 -1.15 -14.05 Z" fill="none" stroke="#000000" stroke-linecap="round" stroke-linejoin="round" stroke-opacity="0.3019608" stroke-width="0.05"/>
    </g>
    <g id="shape1" transform="matrix(1.0, 0.0, 0.0, 1.0, 17.85, -3.85)">
      <path d="M2.55 17.45 L0.1 17.25 0.1 17.3 -3.25 16.35 Q-7.25 15.1 -11.4 13.1 -15.5 11.05 -17.15 8.1 -18.8 5.15 -16.65 3.85 -16.15 6.95 -11.25 9.65 -6.35 12.3 -1.65 13.25 L0.0 13.55 3.3 13.6 3.65 15.4 2.55 17.45" fill="#ffffff" fill-rule="evenodd" stroke="none"/>
      <path d="M3.3 13.6 L4.45 13.6 6.05 13.55 9.15 13.25 13.0 12.4 Q15.55 10.8 17.9 8.7 18.4 8.6 18.75 9.7 18.75 10.95 18.35 11.5 L17.55 12.35 16.45 13.2 14.9 14.55 13.1 15.7 13.1 15.75 9.5 16.45 5.2 17.25 3.65 17.45 2.9 17.45 2.8 17.45 2.55 17.45 3.65 15.4 3.3 13.6" fill="#d6c7ba" fill-rule="evenodd" stroke="none"/>
      <path d="M3.3 13.6 L4.45 13.6 6.05 13.55 9.15 13.25 13.0 12.4 Q15.55 10.8 17.9 8.7 18.4 8.6 18.75 9.7 18.75 10.95 18.35 11.5 L17.55 12.35 16.45 13.2 14.9 14.55 13.1 15.7 M13.1 15.75 L9.5 16.45 5.2 17.25 3.65 17.45 2.9 17.45 2.8 17.45 2.55 17.45 0.1 17.25 M0.1 17.3 L-3.25 16.35 Q-7.25 15.1 -11.4 13.1 -15.5 11.05 -17.15 8.1 -18.8 5.15 -16.65 3.85 -16.15 6.95 -11.25 9.65 -6.35 12.3 -1.65 13.25 L0.0 13.55 3.3 13.6 Z" fill="none" stroke="#000000" stroke-linecap="round" stroke-linejoin="round" stroke-opacity="0.3019608" stroke-width="0.05"/>
    </g>
    <g id="sprite1" transform="matrix(1.0, 0.0, 0.0, 1.0, 17.7, 13.35)">
      <use height="20.7" transform="matrix(1.0, 0.0, 0.0, 1.0, -17.7, -13.35)" width="35.15" xlink:href="#shape2"/>
    </g>
    <g id="shape2" transform="matrix(1.0, 0.0, 0.0, 1.0, 17.7, 13.35)">
      <path d="M-1.65 -11.15 Q-1.0 -10.3 0.05 -5.85 L1.1 -0.55 1.1 0.95 0.95 0.9 0.15 1.7 Q-0.2 2.95 0.05 4.6 0.3 6.05 1.05 6.3 L1.0 6.6 1.05 6.8 1.1 6.8 1.0 7.3 1.0 7.35 0.85 7.35 Q-0.4 7.35 -1.4 4.1 -2.3 1.15 -2.5 -3.25 L-2.5 -4.55 -2.55 -4.5 -2.4 -6.8 -2.4 -7.35 -2.15 -8.0 Q-3.2 -10.3 -3.2 -8.8 L-3.3 -6.65 -3.65 -2.9 -3.8 -1.4 Q-3.8 -0.2 -4.35 1.9 -4.35 2.55 -4.65 3.2 L-5.5 4.7 Q-6.35 6.25 -7.3 7.1 L-7.55 7.3 Q-8.75 7.05 -9.35 4.35 L-9.9 0.8 -9.75 -1.4 -9.6 -2.05 -9.3 -4.55 -9.2 -4.95 -9.2 -5.0 -9.15 -5.1 -8.85 -6.7 -8.8 -6.8 -8.55 -8.0 -8.55 -8.35 -8.6 -8.8 -8.7 -9.0 -9.45 -7.3 -9.9 -5.05 -10.05 -4.45 -10.55 -1.5 Q-10.55 -0.2 -11.45 2.1 -11.95 3.6 -13.55 4.95 L-14.35 5.7 -15.15 4.9 Q-15.8 3.8 -15.8 2.95 L-15.6 0.7 Q-17.3 0.65 -17.55 -0.35 L-17.7 -2.55 -17.15 -7.35 -16.15 -11.6 -15.65 -12.8 -12.45 -12.35 -8.3 -11.7 -1.65 -11.15 M-13.1 -11.1 Q-13.55 -10.8 -14.15 -8.4 L-15.0 -3.75 -15.55 0.2 -15.6 0.7 -15.55 0.2 -15.0 -3.75 -14.15 -8.4 Q-13.55 -10.8 -13.1 -11.1 M1.45 7.15 L1.4 7.15 1.4 7.1 1.45 7.15 M-16.7 -4.6 Q-17.15 -4.3 -17.3 -3.0 L-17.35 -1.25 Q-17.35 -0.8 -16.95 -0.65 -16.55 -0.55 -16.2 -1.3 -15.85 -2.05 -15.85 -2.8 -15.85 -4.6 -16.25 -4.6 L-16.7 -4.6 M-7.25 1.45 Q-8.15 2.65 -8.15 3.8 -8.15 5.05 -7.7 5.7 L-7.05 6.15 Q-6.5 6.15 -5.85 5.05 -5.15 3.9 -5.15 2.8 -5.15 1.0 -6.45 1.0 L-7.25 1.45 M-14.8 2.4 Q-14.8 4.1 -14.15 4.1 -13.35 4.1 -12.75 2.75 -12.25 1.6 -12.25 0.75 -12.25 -0.65 -13.4 -0.65 L-14.2 0.2 Q-14.8 1.2 -14.8 2.4" fill="#c9a894" fill-rule="evenodd" stroke="none"/>
      <path d="M1.05 6.3 Q0.3 6.05 0.05 4.6 -0.2 2.95 0.15 1.7 L0.95 0.9 1.1 0.95 1.5 3.15 1.6 4.0 1.55 4.65 1.35 5.15 Q1.35 5.25 1.45 5.2 L1.3 5.65 1.4 5.75 1.2 6.25 1.1 6.3 1.05 6.3 M-16.7 -4.6 L-16.25 -4.6 Q-15.85 -4.6 -15.85 -2.8 -15.85 -2.05 -16.2 -1.3 -16.55 -0.55 -16.95 -0.65 -17.35 -0.8 -17.35 -1.25 L-17.3 -3.0 Q-17.15 -4.3 -16.7 -4.6 M-14.8 2.4 Q-14.8 1.2 -14.2 0.2 L-13.4 -0.65 Q-12.25 -0.65 -12.25 0.75 -12.25 1.6 -12.75 2.75 -13.35 4.1 -14.15 4.1 -14.8 4.1 -14.8 2.4 M-7.25 1.45 L-6.45 1.0 Q-5.15 1.0 -5.15 2.8 -5.15 3.9 -5.85 5.05 -6.5 6.15 -7.05 6.15 L-7.7 5.7 Q-8.15 5.05 -8.15 3.8 -8.15 2.65 -7.25 1.45" fill="#fefefe" fill-rule="evenodd" stroke="none"/>
      <path d="M13.8 -2.25 L14.35 -2.9 14.6 -2.9 14.85 -2.75 15.2 -2.5 15.4 -2.15 15.7 -1.2 15.8 0.25 15.7 0.65 15.35 0.8 14.95 0.95 14.65 0.9 14.45 0.65 14.05 -0.35 Q13.7 -1.1 13.8 -2.25 M7.8 3.25 Q7.2 2.3 7.3 1.6 L7.45 0.25 Q7.55 -0.4 8.9 -0.2 9.95 0.95 9.8 2.55 L9.55 3.7 9.2 4.1 Q8.2 3.95 7.8 3.25 M1.1 0.95 L1.8 1.35 2.35 2.05 Q2.9 3.05 2.4 4.45 L1.65 5.85 1.2 6.25 1.4 5.75 1.3 5.65 1.45 5.2 Q1.35 5.25 1.35 5.15 L1.55 4.65 1.6 4.0 1.5 3.15 1.1 0.95" fill="#d6baba" fill-rule="evenodd" stroke="none"/>
      <path d="M4.6 0.15 L3.45 -5.8 Q3.15 -7.35 3.15 -8.25 3.15 -7.35 3.45 -5.8 L4.6 0.15 4.4 2.45 3.6 4.7 Q3.25 5.55 2.25 6.45 L1.45 7.15 1.4 7.1 1.4 7.15 1.0 7.35 1.0 7.3 1.1 6.8 1.05 6.8 1.0 6.6 1.05 6.3 1.1 6.3 1.2 6.25 1.65 5.85 2.4 4.45 Q2.9 3.05 2.35 2.05 L1.8 1.35 1.1 0.95 1.1 -0.55 0.05 -5.85 Q-1.0 -10.3 -1.65 -11.15 L-0.75 -11.15 -0.05 -11.15 0.3 -11.15 Q4.5 -11.15 12.95 -13.35 L15.7 -7.35 Q17.45 -3.7 17.45 -2.0 L17.3 -0.6 16.55 -0.7 16.55 0.55 16.2 1.4 15.3 2.25 Q14.6 2.7 12.8 0.05 L10.5 -3.55 Q11.1 -0.2 11.05 2.25 11.0 4.7 10.3 5.1 L8.9 5.45 Q6.55 5.45 4.7 0.45 L4.6 0.15 M8.0 -9.65 L8.95 -8.2 Q9.7 -6.8 10.25 -4.6 L10.5 -3.55 10.25 -4.6 Q9.7 -6.8 8.95 -8.2 L8.0 -9.65 M11.85 -11.35 Q13.15 -9.75 14.75 -6.25 16.2 -3.1 16.55 -0.7 16.2 -3.1 14.75 -6.25 13.15 -9.75 11.85 -11.35 M13.8 -2.25 Q13.7 -1.1 14.05 -0.35 L14.45 0.65 14.65 0.9 14.95 0.95 15.35 0.8 15.7 0.65 15.8 0.25 15.7 -1.2 15.4 -2.15 15.2 -2.5 14.85 -2.75 14.6 -2.9 14.35 -2.9 13.8 -2.25 M7.8 3.25 Q8.2 3.95 9.2 4.1 L9.55 3.7 9.8 2.55 Q9.95 0.95 8.9 -0.2 7.55 -0.4 7.45 0.25 L7.3 1.6 Q7.2 2.3 7.8 3.25 M-2.5 -3.25 Q-2.65 1.65 -3.8 4.2 -4.8 6.2 -6.15 7.0 L-6.8 7.25 -7.0 7.3 -7.55 7.3 -7.3 7.1 Q-6.35 6.25 -5.5 4.7 L-4.65 3.2 Q-4.35 2.55 -4.35 1.9 -3.8 -0.2 -3.8 -1.4 L-3.65 -2.9 -3.3 -6.65 -3.2 -8.8 Q-3.2 -10.3 -2.15 -8.0 L-2.4 -7.35 -2.4 -6.8 -2.55 -4.5 -2.5 -3.25 M-9.9 0.8 L-9.9 -0.15 -9.85 -0.5 -10.8 2.65 Q-11.2 3.55 -11.85 4.25 L-13.55 5.55 -14.35 5.7 -13.55 4.95 Q-11.95 3.6 -11.45 2.1 -10.55 -0.2 -10.55 -1.5 L-10.05 -4.45 -9.9 -5.05 -9.45 -7.3 -8.7 -9.0 -8.6 -8.8 -8.55 -8.35 -8.55 -8.0 -8.8 -6.8 -8.85 -6.7 -9.15 -5.1 -9.2 -5.0 -9.2 -4.95 -9.3 -4.55 -9.6 -2.05 -9.75 -1.4 -9.9 0.8 M-8.6 -8.8 L-8.85 -6.7 -8.6 -8.8 M-9.85 -0.5 L-9.6 -2.7 -9.3 -4.55 -9.2 -5.0 -9.3 -4.55 -9.6 -2.7 -9.85 -0.5" fill="#af8061" fill-rule="evenodd" stroke="none"/>
      <path d="M3.15 -8.25 Q3.15 -7.35 3.45 -5.8 L4.6 0.15 4.7 0.45 Q6.55 5.45 8.9 5.45 L10.3 5.1 Q11.0 4.7 11.05 2.25 11.1 -0.2 10.5 -3.55 L10.25 -4.6 Q9.7 -6.8 8.95 -8.2 L8.0 -9.65 M-1.65 -11.15 L-8.3 -11.7 -12.45 -12.35 -15.65 -12.8 -16.15 -11.6 -17.15 -7.35 -17.7 -2.55 -17.55 -0.35 Q-17.3 0.65 -15.6 0.7 L-15.55 0.2 -15.0 -3.75 -14.15 -8.4 Q-13.55 -10.8 -13.1 -11.1 M16.55 -0.7 Q16.2 -3.1 14.75 -6.25 13.15 -9.75 11.85 -11.35 M13.8 -2.25 L14.35 -2.9 14.6 -2.9 14.85 -2.75 15.2 -2.5 15.4 -2.15 15.7 -1.2 15.8 0.25 15.7 0.65 15.35 0.8 14.95 0.95 14.65 0.9 14.45 0.65 14.05 -0.35 Q13.7 -1.1 13.8 -2.25 M-1.65 -11.15 L-0.75 -11.15 -0.05 -11.15 0.3 -11.15 Q4.5 -11.15 12.95 -13.35 L15.7 -7.35 Q17.45 -3.7 17.45 -2.0 L17.3 -0.6 16.55 -0.7 16.55 0.55 16.2 1.4 15.3 2.25 Q14.6 2.7 12.8 0.05 L10.5 -3.55 M7.8 3.25 Q8.2 3.95 9.2 4.1 L9.55 3.7 9.8 2.55 Q9.95 0.95 8.9 -0.2 7.55 -0.4 7.45 0.25 L7.3 1.6 Q7.2 2.3 7.8 3.25 M4.6 0.15 L4.4 2.45 3.6 4.7 Q3.25 5.55 2.25 6.45 L1.45 7.15 1.4 7.15 1.0 7.35 0.85 7.35 Q-0.4 7.35 -1.4 4.1 -2.3 1.15 -2.5 -3.25 -2.65 1.65 -3.8 4.2 -4.8 6.2 -6.15 7.0 L-6.8 7.25 -7.0 7.3 M-7.55 7.3 Q-8.75 7.05 -9.35 4.35 L-9.9 0.8 -9.9 -0.15 -9.85 -0.5 -10.8 2.65 Q-11.2 3.55 -11.85 4.25 L-13.55 5.55 -14.35 5.7 -15.15 4.9 Q-15.8 3.8 -15.8 2.95 L-15.6 0.7 M1.05 6.3 Q0.3 6.05 0.05 4.6 -0.2 2.95 0.15 1.7 L0.95 0.9 1.1 0.95 1.8 1.35 2.35 2.05 Q2.9 3.05 2.4 4.45 L1.65 5.85 1.2 6.25 1.1 6.3 M-16.7 -4.6 Q-17.15 -4.3 -17.3 -3.0 L-17.35 -1.25 Q-17.35 -0.8 -16.95 -0.65 -16.55 -0.55 -16.2 -1.3 -15.85 -2.05 -15.85 -2.8 -15.85 -4.6 -16.25 -4.6 L-16.7 -4.6 M-2.15 -8.0 L-2.4 -7.35 -2.4 -6.8 -2.55 -4.5 M-2.5 -4.55 L-2.5 -3.25 -2.55 -4.5 M-8.85 -6.7 L-8.6 -8.8 M-8.85 -6.7 L-9.15 -5.1 -9.2 -5.0 -9.3 -4.55 -9.6 -2.7 -9.85 -0.5 M-7.25 1.45 Q-8.15 2.65 -8.15 3.8 -8.15 5.05 -7.7 5.7 L-7.05 6.15 Q-6.5 6.15 -5.85 5.05 -5.15 3.9 -5.15 2.8 -5.15 1.0 -6.45 1.0 L-7.25 1.45 M-14.8 2.4 Q-14.8 4.1 -14.15 4.1 -13.35 4.1 -12.75 2.75 -12.25 1.6 -12.25 0.75 -12.25 -0.65 -13.4 -0.65 L-14.2 0.2 Q-14.8 1.2 -14.8 2.4" fill="none" stroke="#000000" stroke-linecap="round" stroke-linejoin="round" stroke-opacity="0.3019608" stroke-width="0.05"/>
    </g>
    <g id="sprite2" transform="matrix(1.0, 0.0, 0.0, 1.0, 14.6, 6.5)">
      <use height="12.95" transform="matrix(1.0, 0.0, 0.0, 1.0, -14.6, -6.5)" width="29.45" xlink:href="#shape3"/>
    </g>
    <g id="shape3" transform="matrix(1.0, 0.0, 0.0, 1.0, 14.6, 6.5)">
      <path d="M-1.85 6.4 Q-5.2 6.1 -9.0 4.6 -13.55 2.8 -14.1 0.65 L-14.6 -1.95 -14.4 -3.4 -14.0 -5.0 -13.05 -6.45 -13.35 -4.85 Q-12.85 -2.9 -8.65 -1.6 -5.4 -0.6 -2.6 -0.35 L-1.1 -0.3 3.2 -0.75 Q3.4 0.6 2.9 1.05 L0.9 1.45 Q-1.95 1.85 -1.85 6.4" fill="#c9a894" fill-rule="evenodd" stroke="none"/>
      <path d="M3.2 -0.75 L6.4 -1.5 Q10.45 -2.65 12.75 -4.4 L11.9 -6.5 Q13.65 -5.65 14.55 -2.9 15.45 -0.2 13.7 1.6 11.95 3.35 7.55 4.95 3.15 6.5 -0.65 6.45 L-1.85 6.4 Q-1.95 1.85 0.9 1.45 L2.9 1.05 Q3.4 0.6 3.2 -0.75" fill="#af8061" fill-rule="evenodd" stroke="none"/>
      <path d="M3.2 -0.75 L6.4 -1.5 Q10.45 -2.65 12.75 -4.4 L11.9 -6.5 Q13.65 -5.65 14.55 -2.9 15.45 -0.2 13.7 1.6 11.95 3.35 7.55 4.95 3.15 6.5 -0.65 6.45 L-1.85 6.4 Q-5.2 6.1 -9.0 4.6 -13.55 2.8 -14.1 0.65 L-14.6 -1.95 -14.4 -3.4 -14.0 -5.0 -13.05 -6.45 -13.35 -4.85 Q-12.85 -2.9 -8.65 -1.6 -5.4 -0.6 -2.6 -0.35 L-1.1 -0.3 3.2 -0.75 Z" fill="none" stroke="#000000" stroke-linecap="round" stroke-linejoin="round" stroke-opacity="0.3019608" stroke-width="0.05"/>
      <path d="M-11.35 2.0 L-11.6 1.65 -12.0 0.75 -11.95 0.35 -11.8 -0.15 -6.2 0.05 -5.85 0.2 -5.75 0.85 Q-5.75 2.5 -9.0 2.5 L-10.35 2.35 -11.35 2.0" fill="#d6c7ba" fill-rule="evenodd" stroke="none"/>
      <path d="M-11.35 2.0 L-10.35 2.35 -9.0 2.5 Q-5.75 2.5 -5.75 0.85 L-5.85 0.2 Q-4.95 0.55 -4.15 1.15 L-3.6 1.75 -3.7 2.95 Q-6.5 4.8 -10.05 3.0 L-11.35 2.0" fill="#ffffff" fill-rule="evenodd" stroke="none"/>
      <path d="M-5.85 0.2 L-6.2 0.05 -11.8 -0.15 -11.95 0.35 -12.0 0.75 -11.6 1.65 -11.35 2.0 M-5.85 0.2 Q-4.95 0.55 -4.15 1.15 L-3.6 1.75 -3.7 2.95 Q-6.5 4.8 -10.05 3.0 L-11.35 2.0" fill="none" stroke="#000000" stroke-linecap="round" stroke-linejoin="round" stroke-opacity="0.3019608" stroke-width="0.05"/>
    </g>
  </defs>
</svg>
