<?xml version="1.0" encoding="UTF-8" standalone="no"?>
<svg xmlns:xlink="http://www.w3.org/1999/xlink" height="2.8px" width="4.75px" xmlns="http://www.w3.org/2000/svg">
  <g transform="matrix(1.0, 0.0, 0.0, 1.0, 0.0, 0.9)">
    <use height="2.8" transform="matrix(1.0, 0.0, 0.0, 1.0, 0.0, -0.9)" width="4.75" xlink:href="#shape0"/>
  </g>
  <defs>
    <g id="shape0" transform="matrix(1.0, 0.0, 0.0, 1.0, 0.0, 0.9)">
      <path d="M0.2 1.4 L0.0 1.4 0.0 -0.4 0.2 -0.35 4.15 0.2 4.15 0.75 0.2 1.4" fill="#ff9900" fill-rule="evenodd" stroke="none"/>
      <path d="M0.2 -0.35 L0.2 -0.85 0.5 -0.9 4.65 -0.3 4.75 -0.25 4.75 1.25 4.65 1.25 4.55 1.3 0.5 1.9 0.2 1.9 0.2 1.4 4.15 0.75 4.15 0.2 0.2 -0.35" fill="#6b3c01" fill-rule="evenodd" stroke="none"/>
    </g>
  </defs>
</svg>
