<?xml version="1.0" encoding="UTF-8" standalone="no"?>
<svg xmlns:xlink="http://www.w3.org/1999/xlink" height="209.9px" width="310.9px" xmlns="http://www.w3.org/2000/svg">
  <g transform="matrix(1.0, 0.0, 0.0, 1.0, 155.45, 104.95)">
    <use height="209.9" transform="matrix(1.0, 0.0, 0.0, 1.0, -155.45, -104.95)" width="310.9" xlink:href="#sprite0"/>
  </g>
  <defs>
    <g id="sprite0" transform="matrix(1.0, 0.0, 0.0, 1.0, 155.45, 104.95)">
      <use height="209.9" transform="matrix(1.0, 0.0, 0.0, 1.0, -155.45, -104.95)" width="310.9" xlink:href="#shape0"/>
    </g>
    <g id="shape0" transform="matrix(1.0, 0.0, 0.0, 1.0, 155.45, 104.95)">
      <path d="M-152.15 -58.9 L-152.25 -58.95 Q-155.25 -60.0 -155.35 -65.2 L-155.45 -73.75 -155.45 -79.85 -155.2 -95.2 Q-154.65 -101.3 -152.25 -104.4 L-126.25 -103.95 -73.95 -104.4 Q-24.4 -105.0 -17.05 -104.45 -9.7 -104.0 11.65 -104.5 33.0 -105.0 51.85 -104.75 70.7 -104.6 78.8 -104.8 86.85 -105.1 93.1 -104.8 L105.95 -104.25 119.3 -103.75 130.45 -103.45 Q134.75 -103.4 142.4 -103.75 150.05 -104.15 149.7 -101.1 149.35 -98.1 149.8 -96.25 150.25 -94.4 149.45 -94.3 L149.35 -94.3 147.3 -94.25 130.9 -91.95 Q115.85 -89.6 109.85 -87.2 121.2 -87.85 133.1 -87.85 L143.05 -88.05 151.9 -88.4 151.9 -84.55 Q151.85 -80.7 152.1 -77.35 152.35 -74.0 151.85 -66.7 151.3 -59.45 147.6 -60.0 140.25 -60.35 118.65 -59.2 93.45 -57.8 74.85 -58.15 L32.0 -60.05 16.1 -59.95 -5.4 -59.9 -29.8 -59.85 -46.9 -59.75 Q-54.6 -59.55 -67.45 -59.8 L-87.35 -60.05 -123.55 -59.35 -132.45 -59.15 -145.9 -58.7 -146.45 -58.7 -148.25 -58.65 -146.45 -58.65 -152.15 -58.9 M147.25 28.2 Q153.4 27.8 154.7 31.75 L155.05 33.85 155.05 34.1 154.5 34.1 155.05 33.85 154.5 34.1 153.5 34.1 145.3 35.55 138.6 36.7 145.95 38.6 Q153.0 40.35 155.3 40.45 L155.35 47.65 155.35 56.5 155.35 60.45 Q155.8 63.95 154.15 66.5 L153.9 66.75 148.15 66.5 144.7 66.15 128.85 64.9 114.85 64.5 110.7 64.25 Q105.0 64.05 99.4 64.5 L85.9 65.0 72.5 65.35 57.75 65.45 47.15 65.55 35.95 65.75 24.15 66.05 11.75 66.35 -1.25 66.75 -14.95 67.1 -28.55 67.6 -41.65 68.0 -54.15 68.5 Q-61.6 69.05 -68.95 68.75 -76.55 67.85 -84.15 68.4 L-99.65 68.95 -115.35 69.15 -130.95 69.9 Q-136.15 70.5 -141.2 69.65 L-142.3 69.45 -142.35 69.45 -143.2 68.75 Q-144.55 67.05 -144.6 64.95 L-144.6 61.65 -144.5 61.6 -144.25 61.4 -113.25 61.25 Q-96.2 60.95 -76.55 61.0 L-47.15 61.0 -67.1 58.45 Q-81.15 56.65 -101.95 55.8 L-134.05 54.65 -144.8 54.35 Q-144.4 49.4 -144.3 45.0 L-144.25 34.45 -144.25 33.85 Q-139.2 33.65 -121.9 34.1 -101.7 34.6 -68.15 32.7 L-3.9 30.15 42.85 29.25 46.1 29.2 60.2 29.05 74.25 29.0 106.05 28.65 117.1 28.4 145.3 28.4 147.3 28.4 147.25 28.2 M36.0 -1.75 L37.25 -1.55 37.2 -1.2 36.0 -1.75 M-114.2 44.55 L-136.75 45.35 -137.7 45.35 -138.5 45.35 -144.3 45.0 -138.5 45.35 -137.7 45.35 -136.75 45.35 -114.2 44.55 M38.4 11.45 L38.5 11.6 37.9 11.7 38.4 11.45" fill="#a75e3f" fill-rule="evenodd" stroke="none"/>
      <path d="M147.6 -60.0 Q148.15 -55.5 148.0 -53.15 147.85 -50.85 148.0 -47.85 L148.75 -34.5 148.75 -14.0 Q147.0 -12.5 144.9 -11.95 132.2 -12.1 119.45 -11.85 106.35 -11.55 93.2 -11.65 78.35 -11.75 63.65 -12.1 L37.25 -12.75 9.6 -13.3 Q-3.15 -13.5 -15.85 -13.2 -28.2 -12.95 -40.45 -13.0 L-66.75 -12.8 -93.4 -12.4 -121.65 -10.75 -149.55 -11.6 -152.1 -12.3 Q-153.8 -13.2 -154.45 -15.0 -155.05 -16.75 -155.05 -21.0 L-154.65 -32.5 -147.2 -33.0 -129.05 -33.8 -91.45 -35.95 -56.1 -36.8 Q-46.75 -36.8 -16.2 -37.3 14.35 -37.85 -35.35 -38.4 L-58.7 -39.6 -91.6 -41.3 Q-109.15 -41.6 -121.85 -40.8 L-136.95 -40.0 -137.75 -40.0 -149.25 -40.4 -154.2 -40.75 Q-153.45 -53.35 -153.45 -58.45 L-152.25 -58.45 -152.15 -58.9 -146.45 -58.65 -146.45 -58.7 -145.9 -58.7 -132.45 -59.15 -123.55 -59.35 -87.35 -60.05 -67.45 -59.8 Q-54.6 -59.55 -46.9 -59.75 L-29.8 -59.85 -5.4 -59.9 16.1 -59.95 32.0 -60.05 74.85 -58.15 Q93.45 -57.8 118.65 -59.2 140.25 -60.35 147.6 -60.0 M148.15 66.5 Q149.2 69.1 149.15 72.65 L149.2 76.8 149.3 78.2 149.9 90.65 150.0 92.55 Q150.3 97.5 149.4 102.5 149.0 104.85 146.65 104.4 L132.0 103.65 116.1 103.0 101.8 102.45 88.85 102.3 72.95 103.2 61.55 103.45 49.55 103.35 36.2 103.5 24.1 103.65 Q16.3 103.75 8.65 104.0 L-3.55 104.3 -15.3 104.55 -30.6 104.85 -44.75 104.95 -60.05 104.85 -76.0 104.55 -89.7 104.1 -104.75 103.65 Q-112.4 103.55 -119.95 103.85 L-132.4 104.25 -148.1 103.6 -149.05 103.4 Q-151.05 90.55 -151.55 77.55 -151.65 74.6 -150.45 71.8 -149.75 70.2 -147.85 69.9 L-142.4 69.6 -142.35 69.6 -141.2 69.65 Q-136.15 70.5 -130.95 69.9 L-115.35 69.15 -99.65 68.95 -84.15 68.4 Q-76.55 67.85 -68.95 68.75 -61.6 69.05 -54.15 68.5 L-41.65 68.0 -28.55 67.6 -14.95 67.1 -1.25 66.75 11.75 66.35 24.15 66.05 35.95 65.75 47.15 65.55 57.75 65.45 72.5 65.35 85.9 65.0 99.4 64.5 Q105.0 64.05 110.7 64.25 L114.85 64.5 128.85 64.9 144.7 66.15 148.15 66.5" fill="#a8653f" fill-rule="evenodd" stroke="none"/>
      <path d="M-147.2 -33.0 Q-150.55 -37.7 -154.2 -40.75 L-149.25 -40.4 -137.75 -40.0 -136.95 -40.0 -121.85 -40.8 Q-109.15 -41.6 -91.6 -41.3 L-58.7 -39.6 -35.35 -38.4 Q14.35 -37.85 -16.2 -37.3 -46.75 -36.8 -56.1 -36.8 L-91.45 -35.95 -129.05 -33.8 -147.2 -33.0" fill="#623726" fill-rule="evenodd" stroke="none"/>
      <path d="M144.9 -11.95 L144.95 -11.6 146.15 -11.6 146.25 -9.75 146.25 -9.3 Q131.85 -8.7 117.4 -8.55 102.95 -8.4 88.7 -8.55 74.2 -9.55 59.6 -9.3 44.8 -9.0 29.95 -9.85 L29.6 -9.8 29.2 -9.4 Q10.2 -8.9 -8.75 -9.5 -27.5 -10.15 -46.25 -9.7 L-67.85 -8.9 Q-87.1 -8.4 -106.45 -9.1 L-109.3 -8.85 -131.7 -8.15 Q-142.5 -9.05 -153.4 -8.05 L-153.25 -10.2 -153.15 -10.55 -152.25 -12.0 -152.1 -12.3 -149.55 -11.6 -121.65 -10.75 -93.4 -12.4 -66.75 -12.8 -40.45 -13.0 Q-28.2 -12.95 -15.85 -13.2 -3.15 -13.5 9.6 -13.3 L37.25 -12.75 63.65 -12.1 Q78.35 -11.75 93.2 -11.65 106.35 -11.55 119.45 -11.85 132.2 -12.1 144.9 -11.95" fill="#944a38" fill-rule="evenodd" stroke="none"/>
      <path d="M146.25 -9.3 L146.95 3.6 147.2 9.7 147.25 11.2 Q147.45 16.3 146.75 21.45 146.4 23.95 146.8 26.45 L147.25 28.2 145.3 28.4 117.1 28.4 106.05 28.65 74.25 29.0 60.2 29.05 46.1 29.2 42.85 29.25 -3.9 30.15 -68.15 32.7 Q-101.7 34.6 -121.9 34.1 -139.2 33.65 -144.25 33.85 L-144.3 33.85 -145.6 33.95 Q-149.15 34.25 -150.5 32.45 -151.85 30.65 -151.85 27.05 -152.0 14.2 -152.25 12.35 L-152.95 1.05 -153.4 -8.05 Q-142.5 -9.05 -131.7 -8.15 L-109.3 -8.85 -106.45 -9.1 Q-87.1 -8.4 -67.85 -8.9 L-46.25 -9.7 Q-27.5 -10.15 -8.75 -9.5 10.2 -8.9 29.2 -9.4 L29.6 -9.8 29.95 -9.85 Q44.8 -9.0 59.6 -9.3 74.2 -9.55 88.7 -8.55 102.95 -8.4 117.4 -8.55 131.85 -8.7 146.25 -9.3 M36.0 -1.75 L37.2 -1.2 37.25 -1.55 36.0 -1.75 M38.4 11.45 L37.9 11.7 38.5 11.6 38.4 11.45" fill="#a8583f" fill-rule="evenodd" stroke="none"/>
      <path d="M149.35 -94.3 L144.9 -90.0 143.05 -88.05 133.1 -87.85 Q121.2 -87.85 109.85 -87.2 115.85 -89.6 130.9 -91.95 L147.3 -94.25 149.35 -94.3 M154.5 34.1 L145.95 38.6 138.6 36.7 145.3 35.55 153.5 34.1 154.5 34.1 M-144.25 61.4 L-138.5 57.4 -134.05 54.65 -101.95 55.8 Q-81.15 56.65 -67.1 58.45 L-47.15 61.0 -76.55 61.0 Q-96.2 60.95 -113.25 61.25 L-144.25 61.4" fill="#663622" fill-rule="evenodd" stroke="none"/>
      <path d="M-152.15 -58.9 L-152.25 -58.95 Q-155.25 -60.0 -155.35 -65.2 L-155.45 -73.75 -155.45 -79.85 -155.2 -95.2 Q-154.65 -101.3 -152.25 -104.4 L-126.25 -103.95 -73.95 -104.4 Q-24.4 -105.0 -17.05 -104.45 -9.7 -104.0 11.65 -104.5 33.0 -105.0 51.85 -104.75 70.7 -104.6 78.8 -104.8 86.85 -105.1 93.1 -104.8 L105.95 -104.25 119.3 -103.75 130.45 -103.45 Q134.75 -103.4 142.4 -103.75 150.05 -104.15 149.7 -101.1 149.35 -98.1 149.8 -96.25 150.25 -94.4 149.45 -94.3 L149.35 -94.3 144.9 -90.0 143.05 -88.05 151.9 -88.4 151.9 -84.55 Q151.85 -80.7 152.1 -77.35 152.35 -74.0 151.85 -66.7 151.3 -59.45 147.6 -60.0 148.15 -55.5 148.0 -53.15 147.85 -50.85 148.0 -47.85 L148.75 -34.5 148.75 -14.0 Q147.0 -12.5 144.9 -11.95 132.2 -12.1 119.45 -11.85 106.35 -11.55 93.2 -11.65 78.35 -11.75 63.65 -12.1 L37.25 -12.75 9.6 -13.3 Q-3.15 -13.5 -15.85 -13.2 -28.2 -12.95 -40.45 -13.0 L-66.75 -12.8 -93.4 -12.4 -121.65 -10.75 -149.55 -11.6 -152.1 -12.3 Q-153.8 -13.2 -154.45 -15.0 -155.05 -16.75 -155.05 -21.0 L-154.65 -32.5 -147.2 -33.0 Q-150.55 -37.7 -154.2 -40.75 -153.45 -53.35 -153.45 -58.45 L-152.25 -58.45 M144.95 -11.6 L146.15 -11.6 146.25 -9.75 M146.25 -9.3 L146.95 3.6 147.2 9.7 147.25 11.2 Q147.45 16.3 146.75 21.45 146.4 23.95 146.8 26.45 L147.25 28.2 Q153.4 27.8 154.7 31.75 L155.05 33.85 155.05 34.1 154.5 34.1 145.95 38.6 Q153.0 40.35 155.3 40.45 L155.35 47.65 155.35 56.5 155.35 60.45 Q155.8 63.95 154.15 66.5 L153.9 66.75 148.15 66.5 Q149.2 69.1 149.15 72.65 L149.2 76.8 149.3 78.2 149.9 90.65 150.0 92.55 Q150.3 97.5 149.4 102.5 149.0 104.85 146.65 104.4 L132.0 103.65 116.1 103.0 101.8 102.45 88.85 102.3 72.95 103.2 61.55 103.45 49.55 103.35 36.2 103.5 24.1 103.65 Q16.3 103.75 8.65 104.0 L-3.55 104.3 -15.3 104.55 -30.6 104.85 -44.75 104.95 -60.05 104.85 -76.0 104.55 -89.7 104.1 -104.75 103.65 Q-112.4 103.55 -119.95 103.85 L-132.4 104.25 -148.1 103.6 -149.05 103.4 Q-151.05 90.55 -151.55 77.55 -151.65 74.6 -150.45 71.8 -149.75 70.2 -147.85 69.9 L-142.4 69.6 -142.35 69.6 -141.2 69.65 -142.3 69.45 -142.35 69.45 -143.2 68.75 Q-144.55 67.05 -144.6 64.95 L-144.6 61.65 -144.5 61.6 -144.25 61.4 -138.5 57.4 -134.05 54.65 -144.8 54.35 Q-144.4 49.4 -144.3 45.0 L-144.25 34.45 -144.25 33.85 -144.3 33.85 -145.6 33.95 Q-149.15 34.25 -150.5 32.45 -151.85 30.65 -151.85 27.05 -152.0 14.2 -152.25 12.35 L-152.95 1.05 -153.4 -8.05 -153.25 -10.2 M-153.15 -10.55 L-152.25 -12.0 M-152.15 -58.9 L-146.45 -58.65 -148.25 -58.65 -146.45 -58.7 M-145.9 -58.7 L-132.45 -59.15 -123.55 -59.35 -87.35 -60.05 -67.45 -59.8 Q-54.6 -59.55 -46.9 -59.75 L-29.8 -59.85 -5.4 -59.9 16.1 -59.95 32.0 -60.05 74.85 -58.15 Q93.45 -57.8 118.65 -59.2 140.25 -60.35 147.6 -60.0 M149.35 -94.3 L147.3 -94.25 130.9 -91.95 Q115.85 -89.6 109.85 -87.2 121.2 -87.85 133.1 -87.85 L143.05 -88.05 M-154.2 -40.75 L-149.25 -40.4 -137.75 -40.0 -136.95 -40.0 -121.85 -40.8 Q-109.15 -41.6 -91.6 -41.3 L-58.7 -39.6 -35.35 -38.4 Q14.35 -37.85 -16.2 -37.3 -46.75 -36.8 -56.1 -36.8 L-91.45 -35.95 -129.05 -33.8 -147.2 -33.0 M148.15 66.5 L144.7 66.15 128.85 64.9 114.85 64.5 110.7 64.25 Q105.0 64.05 99.4 64.5 L85.9 65.0 72.5 65.35 57.75 65.45 47.15 65.55 35.95 65.75 24.15 66.05 11.75 66.35 -1.25 66.75 -14.95 67.1 -28.55 67.6 -41.65 68.0 -54.15 68.5 Q-61.6 69.05 -68.95 68.75 -76.55 67.85 -84.15 68.4 L-99.65 68.95 -115.35 69.15 -130.95 69.9 Q-136.15 70.5 -141.2 69.65 M-134.05 54.65 L-101.95 55.8 Q-81.15 56.65 -67.1 58.45 L-47.15 61.0 -76.55 61.0 Q-96.2 60.95 -113.25 61.25 L-144.25 61.4 M-144.25 33.85 Q-139.2 33.65 -121.9 34.1 -101.7 34.6 -68.15 32.7 L-3.9 30.15 42.85 29.25 46.1 29.2 60.2 29.05 74.25 29.0 106.05 28.65 117.1 28.4 145.3 28.4 147.25 28.2 147.3 28.4 145.3 28.4 M-144.3 45.0 L-138.5 45.35 -137.7 45.35 -136.75 45.35 -114.2 44.55 M155.05 33.85 L154.5 34.1 153.5 34.1 145.3 35.55 138.6 36.7 145.95 38.6" fill="none" stroke="#000000" stroke-linecap="round" stroke-linejoin="round" stroke-opacity="0.4" stroke-width="0.05"/>
    </g>
  </defs>
</svg>
