<?xml version="1.0" encoding="UTF-8" standalone="no"?>
<svg xmlns:xlink="http://www.w3.org/1999/xlink" height="34.25px" width="38.95px" xmlns="http://www.w3.org/2000/svg">
  <g transform="matrix(1.0, 0.0, 0.0, 1.0, 16.7, 17.35)">
    <use height="9.85" id="_col3" transform="matrix(3.2307, 0.0, 0.0, 3.2307, -13.9343, -15.8804)" width="8.65" xlink:href="#sprite0"/>
  </g>
  <defs>
    <g id="sprite0" transform="matrix(1.0, 0.0, 0.0, 1.0, 4.05, 4.9)">
      <use height="9.85" transform="matrix(1.0, 0.0, 0.0, 1.0, -4.05, -4.9)" width="8.65" xlink:href="#shape0"/>
    </g>
    <g id="shape0" transform="matrix(1.0, 0.0, 0.0, 1.0, 4.05, 4.9)">
      <path d="M-0.75 2.05 L-0.7 1.95 -1.6 1.55 -1.2 0.4 -0.8 -0.2 -0.5 -0.9 Q-0.25 -1.85 0.4 -2.35 0.9 -2.75 0.9 -3.5 L0.3 -4.0 -0.7 -4.2 Q0.3 -5.1 1.5 -4.85 L1.8 -4.9 2.65 -4.85 3.7 -4.55 4.35 -4.25 4.6 -3.5 Q4.75 -2.85 3.65 -0.85 2.5 1.15 2.3 1.85 L2.25 2.0 0.35 2.8 2.25 2.0 2.25 2.05 2.4 3.5 Q2.4 3.9 0.5 4.45 L-2.0 4.95 -2.85 4.9 -2.3 4.5 Q-1.95 4.25 -1.95 3.9 L-2.1 3.3 -2.3 2.7 -2.25 2.15 -1.45 2.1 -1.05 2.15 -0.75 2.05 2.3 1.85 -0.75 2.05" fill="#d6baba" fill-rule="evenodd" stroke="none"/>
      <path d="M-0.7 -4.2 L0.3 -4.0 0.9 -3.5 Q0.9 -2.75 0.4 -2.35 -0.25 -1.85 -0.5 -0.9 L-0.8 -0.2 -1.2 0.4 -1.6 1.55 -0.7 1.95 -0.75 2.05 -1.05 2.15 -1.45 2.1 -2.25 2.15 -2.3 2.7 -2.1 3.3 -1.95 3.9 Q-1.95 4.25 -2.3 4.5 L-2.85 4.9 -3.15 4.85 -3.35 4.85 Q-4.05 4.65 -4.05 4.45 L-3.6 1.7 Q-3.4 0.25 -2.5 -1.6 L-1.85 -2.7 -1.05 -3.85 -0.7 -4.2 M-1.75 -0.85 L-1.0 -3.25 -2.5 -1.6 -1.0 -3.25 -1.75 -0.85 M0.2 -2.7 Q-0.6 -2.0 -0.8 -0.2 -0.6 -2.0 0.2 -2.7" fill="#ffffff" fill-rule="evenodd" stroke="none"/>
      <path d="M-0.75 2.05 L2.3 1.85 Q2.5 1.15 3.65 -0.85 4.75 -2.85 4.6 -3.5 L4.35 -4.25 3.7 -4.55 2.65 -4.85 1.8 -4.9 1.5 -4.85 Q0.3 -5.1 -0.7 -4.2 L-1.05 -3.85 -1.85 -2.7 -2.5 -1.6 -1.0 -3.25 -1.75 -0.85 M2.25 2.0 L2.3 1.85 M2.25 2.0 L0.35 2.8 M-2.85 4.9 L-2.0 4.95 0.5 4.45 Q2.4 3.9 2.4 3.5 L2.25 2.05 2.25 2.0 M-2.5 -1.6 Q-3.4 0.25 -3.6 1.7 L-4.05 4.45 Q-4.05 4.65 -3.35 4.85 L-3.15 4.85 -2.85 4.9 M-0.8 -0.2 Q-0.6 -2.0 0.2 -2.7" fill="none" stroke="#000000" stroke-linecap="round" stroke-linejoin="round" stroke-opacity="0.3019608" stroke-width="0.05"/>
    </g>
  </defs>
</svg>
