<?xml version="1.0" encoding="UTF-8" standalone="no"?>
<svg xmlns:xlink="http://www.w3.org/1999/xlink" height="34.25px" width="38.95px" xmlns="http://www.w3.org/2000/svg">
  <g transform="matrix(1.0, 0.0, 0.0, 1.0, 16.7, 17.35)">
    <use height="10.6" id="_col3" transform="matrix(3.2307, 0.0, 0.0, 3.2307, -16.6804, -17.3342)" width="12.05" xlink:href="#sprite0"/>
    <use height="16.35" id="_col2" transform="matrix(1.0, 0.0, 0.0, 1.0, -14.4, -1.8)" width="13.6" xlink:href="#sprite1"/>
  </g>
  <defs>
    <g id="sprite0" transform="matrix(1.0, 0.0, 0.0, 1.0, 4.9, 5.35)">
      <use height="10.6" transform="matrix(1.0, 0.0, 0.0, 1.0, -4.9, -5.35)" width="12.05" xlink:href="#shape0"/>
    </g>
    <g id="shape0" transform="matrix(1.0, 0.0, 0.0, 1.0, 4.9, 5.35)">
      <path d="M3.35 -4.95 L5.55 -5.35 5.7 -5.35 4.75 -4.75 4.7 -4.75 5.05 -4.65 5.9 -4.55 6.7 -4.65 6.95 -4.65 Q5.55 -3.7 5.2 -3.9 5.35 -3.7 6.05 -3.5 L7.15 -3.4 6.5 -2.6 5.95 -2.15 6.7 -0.8 6.2 -1.05 5.9 -1.0 6.15 -0.95 Q5.85 -0.3 4.55 -0.05 L3.35 0.3 2.95 0.5 2.7 0.9 2.3 1.85 2.25 2.0 2.25 2.05 2.4 3.5 1.85 4.0 2.15 4.25 2.1 4.3 1.3 4.4 1.3 4.45 Q1.55 4.45 1.75 4.7 L1.7 4.75 0.3 4.95 -1.45 5.25 -0.8 4.95 -0.85 4.95 -1.75 5.05 -2.85 5.2 -2.45 4.9 -2.3 4.8 -2.0 4.75 -1.8 4.6 -2.05 2.15 -1.45 2.1 -1.05 2.15 -0.75 2.05 -0.7 1.95 -1.6 1.55 -1.2 0.4 -0.8 -0.2 -0.5 -0.9 Q-0.25 -1.85 0.4 -2.35 L0.5 -2.4 Q0.9 -2.8 0.9 -3.5 L0.3 -4.0 -0.7 -4.2 Q0.3 -5.1 1.5 -4.85 L1.8 -4.9 2.75 -4.95 2.9 -4.95 3.35 -4.95 M4.45 -3.55 L2.85 -3.4 3.35 -3.55 4.0 -4.1 3.35 -3.85 3.2 -3.85 2.1 -3.6 3.2 -3.85 3.35 -3.85 4.0 -4.1 3.35 -3.55 2.85 -3.4 4.45 -3.55 M0.35 2.8 L2.25 2.0 0.35 2.8 M2.3 1.85 L-0.75 2.05 2.3 1.85" fill="#d6baba" fill-rule="evenodd" stroke="none"/>
      <path d="M-2.85 5.2 L-3.35 5.15 -3.0 4.95 -3.35 4.95 -4.55 4.85 -4.25 4.5 -4.3 4.5 -4.6 4.6 -4.9 4.55 -4.9 4.45 -4.3 3.55 -3.95 2.75 -4.0 2.75 -4.6 3.15 -4.65 3.15 -4.65 3.1 Q-4.25 2.8 -3.75 1.7 L-3.2 0.3 -3.25 0.3 -4.35 1.15 -3.5 -0.05 -2.8 -0.85 -2.5 -1.6 -2.5 -1.7 -2.5 -1.65 -2.5 -1.6 -2.45 -1.15 -2.45 -1.65 -2.45 -1.7 -1.85 -2.7 -1.05 -3.85 -0.7 -4.2 0.3 -4.0 0.9 -3.5 Q0.9 -2.8 0.5 -2.4 L0.4 -2.35 Q-0.25 -1.85 -0.5 -0.9 L-0.8 -0.2 -1.2 0.4 -1.6 1.55 -0.7 1.95 -0.75 2.05 -1.05 2.15 -1.45 2.1 -2.05 2.15 -1.8 4.6 -2.0 4.75 -2.3 4.8 -2.45 4.9 -2.85 5.2 M-1.75 -0.85 L-1.0 -3.25 -2.45 -1.65 -1.0 -3.25 -1.75 -0.85 M0.5 -2.4 Q-0.6 -2.0 -0.8 -0.2 -0.6 -2.0 0.5 -2.4" fill="#ffffff" fill-rule="evenodd" stroke="none"/>
      <path d="M3.35 -4.95 L5.55 -5.35 5.7 -5.35 4.75 -4.75 4.7 -4.75 5.05 -4.65 5.9 -4.55 6.7 -4.65 6.95 -4.65 Q5.55 -3.7 5.2 -3.9 5.35 -3.7 6.05 -3.5 L7.15 -3.4 6.5 -2.6 5.95 -2.15 6.7 -0.8 6.2 -1.05 5.9 -1.0 6.15 -0.95 Q5.85 -0.3 4.55 -0.05 L3.35 0.3 2.95 0.5 2.7 0.9 2.3 1.85 2.25 2.0 2.25 2.05 2.4 3.5 1.85 4.0 2.15 4.25 2.1 4.3 1.3 4.4 1.3 4.45 Q1.55 4.45 1.75 4.7 L1.75 4.75 1.7 4.75 0.3 4.95 -1.45 5.25 -0.8 4.95 -0.85 4.95 -1.75 5.05 -2.85 5.2 -3.35 5.15 -3.0 4.95 -3.35 4.95 -4.55 4.85 -4.25 4.5 -4.3 4.5 -4.6 4.6 -4.9 4.55 -4.9 4.45 -4.3 3.55 -3.95 2.75 -4.0 2.75 -4.6 3.15 -4.65 3.15 -4.7 3.1 -4.65 3.1 Q-4.25 2.8 -3.75 1.7 L-3.2 0.3 -3.25 0.3 -4.35 1.15 -3.5 -0.05 -2.8 -0.85 -2.5 -1.6 -2.5 -1.7 M-2.5 -1.65 L-2.5 -1.6 M-2.45 -1.7 L-1.85 -2.7 -1.05 -3.85 -0.7 -4.2 Q0.3 -5.1 1.5 -4.85 L1.8 -4.9 2.75 -4.95 2.9 -4.95 3.35 -4.95 M2.1 -3.6 L3.2 -3.85 3.35 -3.85 4.0 -4.1 3.35 -3.55 2.85 -3.4 4.45 -3.55 M-0.75 2.05 L2.3 1.85 M2.25 2.0 L0.35 2.8 M-2.45 -1.65 L-1.0 -3.25 -1.75 -0.85 M-0.8 -0.2 Q-0.6 -2.0 0.5 -2.4" fill="none" stroke="#000000" stroke-linecap="round" stroke-linejoin="round" stroke-opacity="0.3019608" stroke-width="0.05"/>
    </g>
    <g id="sprite1" transform="matrix(1.0, 0.0, 0.0, 1.0, 8.25, 7.5)">
      <use height="16.35" transform="matrix(1.0, 0.0, 0.0, 1.0, -8.25, -7.5)" width="13.6" xlink:href="#shape1"/>
    </g>
    <g id="shape1" transform="matrix(1.0, 0.0, 0.0, 1.0, 8.25, 7.5)">
      <path d="M1.45 -4.8 L1.65 -4.75 1.95 -4.65 2.15 -4.6 5.35 -4.35 5.35 -4.25 4.25 -1.3 1.85 -1.75 1.2 -1.85 0.75 -1.9 0.45 -2.0 0.65 -2.7 1.1 -4.05 1.45 -4.8 M-7.0 8.75 L-7.4 8.5 -7.5 8.0 -7.2 7.15 Q-6.7 6.45 -5.8 6.45 -5.3 6.45 -5.05 6.8 L-5.05 6.85 -5.05 7.1 Q-5.05 7.55 -5.35 8.1 -5.75 8.85 -6.5 8.85 L-6.9 8.8 -7.0 8.75" fill="#d6baba" fill-rule="evenodd" stroke="none"/>
      <path d="M1.45 -4.8 L1.1 -4.05 0.65 -2.7 0.45 -2.0 0.75 -1.9 -0.35 -2.25 -2.75 -4.2 -2.0 -7.45 -2.0 -7.5 Q-0.9 -5.8 1.45 -4.8 M-7.0 8.75 L-7.45 8.5 Q-8.25 8.0 -8.25 7.25 L-8.05 6.55 -7.9 6.3 -7.7 6.15 -7.45 5.9 -7.0 5.55 -6.4 5.5 Q-5.2 5.5 -5.05 6.8 -5.3 6.45 -5.8 6.45 -6.7 6.45 -7.2 7.15 L-7.5 8.0 -7.4 8.5 -7.0 8.75" fill="#ffffff" fill-rule="evenodd" stroke="none"/>
      <path d="M0.75 -1.9 L1.2 -1.85 1.85 -1.75 4.25 -1.3 5.35 -4.25 5.35 -4.35 2.15 -4.6 1.95 -4.65 1.65 -4.75 1.45 -4.8 M0.75 -1.9 L-0.35 -2.25 -2.75 -4.2 -2.0 -7.45 -2.0 -7.5 Q-0.9 -5.8 1.45 -4.8 M-5.05 6.8 Q-5.2 5.5 -6.4 5.5 L-7.0 5.55 -7.45 5.9 -7.7 6.15 -7.9 6.3 -8.05 6.55 -8.25 7.25 Q-8.25 8.0 -7.45 8.5 L-7.0 8.75 M-5.05 6.85 L-5.05 7.1 Q-5.05 7.55 -5.35 8.1 -5.75 8.85 -6.5 8.85 L-6.9 8.8 -7.0 8.75" fill="none" stroke="#000000" stroke-linecap="round" stroke-linejoin="round" stroke-opacity="0.3019608" stroke-width="0.05"/>
    </g>
  </defs>
</svg>
