<?xml version="1.0" encoding="UTF-8" standalone="no"?>
<svg xmlns:xlink="http://www.w3.org/1999/xlink" height="30.5px" width="27.8px" xmlns="http://www.w3.org/2000/svg">
  <g transform="matrix(1.0, 0.0, 0.0, 1.0, 20.05, 14.8)">
    <use height="28.0" id="_col2" transform="matrix(1.0086, 0.1242, -0.1242, 1.0086, -4.3741, -14.7948)" width="12.0" xlink:href="#sprite0"/>
    <use height="20.65" transform="matrix(1.0, 0.0, 0.0, 1.0, -20.05, -4.95)" width="18.45" xlink:href="#shape1"/>
  </g>
  <defs>
    <g id="sprite0" transform="matrix(1.0, 0.0, 0.0, 1.0, 6.3, 1.45)">
      <use height="28.0" transform="matrix(1.0, 0.0, 0.0, 1.0, -6.3, -1.45)" width="12.0" xlink:href="#shape0"/>
    </g>
    <g id="shape0" transform="matrix(1.0, 0.0, 0.0, 1.0, 6.3, 1.45)">
      <path d="M3.7 0.7 Q4.3 1.25 4.6 2.1 L3.85 0.9 3.7 0.7 M-0.55 26.25 Q-2.8 25.8 -3.65 24.7 -4.4 23.85 -4.4 22.75 -4.2 10.2 -6.3 6.75 L-5.4 5.15 -5.0 3.6 -4.95 3.55 -3.7 3.3 Q-1.8 3.3 -0.15 6.15 L0.1 6.6 0.15 11.35 -0.1 22.1 -0.05 23.3 -0.5 24.65 -0.55 26.25" fill="#efcdaf" fill-rule="evenodd" stroke="none"/>
      <path d="M3.7 0.7 L3.85 0.9 4.6 2.1 5.65 4.95 5.7 5.15 4.85 22.75 Q4.5 24.1 3.7 25.15 2.5 26.3 0.5 26.55 L0.25 26.45 -0.55 26.25 -0.5 24.65 -0.05 23.3 -0.1 22.1 0.15 11.35 0.1 6.6 -0.15 6.15 Q-1.8 3.3 -3.7 3.3 L-4.95 3.55 -5.0 3.6 -4.8 2.95 -4.4 2.0 -4.4 1.9 -4.35 1.75 -3.9 0.55 Q-3.4 -1.05 -0.1 -1.45 1.65 -1.2 2.95 -0.2 L3.6 0.55 3.7 0.7" fill="#c6886a" fill-rule="evenodd" stroke="none"/>
      <path d="M3.85 0.9 L4.6 2.1 5.65 4.95 5.7 5.15 4.85 22.75 Q4.5 24.1 3.7 25.15 M-3.65 24.7 Q-4.4 23.85 -4.4 22.75 -4.2 10.2 -6.3 6.75" fill="none" stroke="#000000" stroke-linecap="round" stroke-linejoin="round" stroke-opacity="0.3019608" stroke-width="0.05"/>
    </g>
    <g id="shape1" transform="matrix(1.0, 0.0, 0.0, 1.0, 20.05, 4.95)">
      <path d="M-1.95 -4.95 Q-1.75 -4.95 -1.75 -4.55 L-1.95 -4.0 Q-2.15 -4.1 -2.15 -4.35 L-2.2 -4.9 -1.95 -4.95 M-2.55 -1.85 L-2.25 -2.15 Q-2.0 -2.15 -1.8 -1.8 L-1.6 -1.25 -2.05 3.7 -2.35 4.95 -2.7 6.35 -3.1 7.35 -3.35 8.8 -3.55 8.95 -3.55 8.65 -3.65 8.35 -3.2 6.0 -3.3 5.7 -3.15 4.35 Q-3.0 3.7 -3.0 2.5 L-2.65 -0.75 -2.55 -1.85 M-19.05 14.4 L-18.75 14.65 -18.6 15.0 Q-18.6 15.7 -19.45 15.7 -19.65 15.7 -19.85 15.5 L-20.05 15.05 -19.8 14.55 -19.25 14.35 -19.05 14.4" fill="#ffffff" fill-rule="evenodd" stroke="none"/>
    </g>
  </defs>
</svg>
